<svg width="1390" height="701" viewBox="0 0 1390 701" fill="none" xmlns="http://www.w3.org/2000/svg">
<path d="M1178.02 577.984C1190.58 569.15 1199.75 568.302 1214.38 565.214C1230.36 561.841 1239.69 562.702 1255.94 562.525C1276.67 562.3 1288.75 560.602 1308.92 565.592C1322.03 568.833 1329.84 570.478 1341.41 577.864C1354.9 586.469 1361.58 593.837 1370.45 607.867C1378.81 621.071 1382.98 629.74 1385.43 645.615C1387.77 660.782 1385.13 669.737 1383.15 685.012C1381.21 699.913 1379.83 708.342 1375.56 722.676C1369.01 744.668 1364.45 757.546 1351.23 775.673C1343.49 786.282 1337.95 791.156 1328.56 800.035C1317.61 810.385 1313.14 822.439 1298.81 824.191C1294.17 824.757 1291.32 825.074 1286.91 823.502C1280.65 821.272 1280.34 813.586 1273.97 811.75C1270.89 810.861 1268.96 810.767 1265.79 811.277C1257.18 812.663 1257.31 825.01 1248.83 827.207C1243.65 828.55 1240.41 827.802 1235.26 826.422C1226.84 824.163 1224.86 811.415 1216.41 813.717C1212.9 814.673 1208.46 818.962 1208.46 818.962C1208.46 818.962 1205.42 820.008 1199.72 818.456C1194.03 816.904 1177.32 795.117 1166.49 777.207C1156.18 760.165 1151.19 749.646 1145.52 730.147C1139.04 707.872 1136.72 694.236 1137.76 670.811C1138.73 649.101 1140.08 635.906 1149.12 616.453C1157.16 599.142 1163.06 588.502 1178.02 577.984Z" fill="#DDE7C1"/>
<path d="M1276.66 563.036L1261.24 579.104L1259.62 574.94L1273.79 559.026C1273.79 559.026 1276.05 551.979 1277.56 547.486C1279.99 540.265 1280.2 535.573 1284.01 529.09C1289.55 519.653 1295.66 516.926 1304.12 510.581C1313.66 503.43 1319.18 498.928 1330.26 495.36C1345.58 490.426 1355.7 490.735 1371.04 495.233C1380.64 498.048 1394.18 506.748 1394.18 506.748C1394.18 506.748 1380.68 529.533 1368.45 540.082C1360.75 546.719 1355.79 549.639 1346.93 554.214C1337.2 559.237 1331.41 561.588 1320.9 564.014C1308.63 566.847 1301.25 568.282 1288.9 566.232C1284.04 565.425 1276.66 563.036 1276.66 563.036Z" fill="#DDE7C1"/>
<path d="M1234.03 523.093C1230.78 520.762 1225.37 521.437 1225.67 517.183C1225.93 513.568 1229.51 513.239 1232.42 511.468C1235.5 509.596 1237.44 507.503 1240.9 508.114C1246.91 509.177 1243.68 518.156 1246.82 523.834C1250.22 529.996 1254.14 531.83 1257.81 537.811C1262.11 544.83 1262.98 549.729 1266.41 557.304C1269.79 564.782 1282.09 572.515 1275.24 576.358C1271.78 578.299 1269.25 580.532 1265.34 575.784C1261.43 571.037 1259.66 560.095 1254.78 550.752C1249.7 541.038 1247.85 534.157 1239.79 527.271C1237.66 525.455 1236.28 524.714 1234.03 523.093Z" fill="#DDE7C1"/>
<path d="M456.451 503.837C472.199 492.762 483.697 491.699 502.038 487.828C522.078 483.599 533.77 484.678 554.143 484.457C580.133 484.175 595.271 482.046 620.561 488.301C636.992 492.365 646.778 494.427 661.292 503.686C678.203 514.474 686.569 523.71 697.697 541.299C708.17 557.853 713.401 568.721 716.47 588.621C719.403 607.636 716.099 618.862 713.612 638.012C711.186 656.692 709.451 667.259 704.098 685.23C695.886 712.799 690.17 728.943 673.597 751.668C663.897 764.968 656.945 771.078 645.173 782.209C631.45 795.185 625.849 810.296 607.879 812.492C602.073 813.202 598.496 813.599 592.964 811.629C585.116 808.834 584.733 799.198 576.747 796.896C572.878 795.781 570.468 795.663 566.493 796.303C555.695 798.04 555.857 813.519 545.228 816.274C538.737 817.957 534.665 817.02 528.216 815.29C517.661 812.458 515.182 796.477 504.586 799.362C500.182 800.561 494.618 805.937 494.618 805.937C494.618 805.937 490.801 807.249 483.665 805.303C476.529 803.358 455.578 776.044 441.997 753.591C429.074 732.227 422.824 719.04 415.715 694.595C407.594 666.669 404.683 649.575 405.99 620.209C407.202 592.992 408.887 576.45 420.223 552.063C430.31 530.361 437.702 517.022 456.451 503.837Z" fill="#DDE7C1"/>
<path d="M580.119 485.099L560.788 505.242L558.755 500.021L576.517 480.071C576.517 480.071 579.355 471.237 581.247 465.604C584.288 456.552 584.554 450.669 589.329 442.542C596.279 430.711 603.93 427.293 614.545 419.339C626.507 410.374 633.42 404.73 647.308 400.257C666.512 394.071 679.202 394.459 698.437 400.097C710.476 403.626 727.444 414.533 727.444 414.533C727.444 414.533 710.526 443.098 695.183 456.323C685.53 464.643 679.315 468.303 668.209 474.039C656.014 480.336 648.753 483.283 635.58 486.324C620.197 489.876 610.945 491.675 595.457 489.105C589.363 488.094 580.119 485.099 580.119 485.099Z" fill="#DDE7C1"/>
<path d="M526.669 435.025C522.598 432.102 515.817 432.948 516.199 427.615C516.524 423.083 521.008 422.671 524.658 420.451C528.517 418.103 530.947 415.48 535.282 416.246C542.82 417.579 538.769 428.835 542.704 435.953C546.975 443.678 551.888 445.977 556.481 453.476C561.872 462.274 562.967 468.416 567.263 477.912C571.505 487.287 586.925 496.982 578.337 501.799C573.998 504.232 570.826 507.032 565.923 501.081C561.019 495.129 558.808 481.412 552.688 469.698C546.326 457.521 544 448.895 533.892 440.262C531.225 437.985 529.498 437.056 526.669 435.025Z" fill="#DDE7C1"/>
<path d="M139.861 666.713C137.535 731.644 189.462 870.658 259.578 872.971C329.693 875.284 391.446 740.02 393.773 675.089C396.099 610.158 341.144 555.646 271.028 553.333C200.913 551.02 142.187 601.782 139.861 666.713Z" fill="#DDE7C1"/>
<path d="M295.97 564.741L280.027 567.244L265.913 586.885L258.474 569.982L246.01 566.13L219.41 577.404L218.667 567.841L193.777 569.166L222.849 562.021L204.433 560.394L184.731 545.417L165.611 543.255L184.349 538.378L210.183 552.393L223.995 543.771L207.791 526.953L211.451 521.861L247.116 538.851L262.517 532.561L269.312 523.105L294.645 502.994L293.479 516.73L288.331 542.062L321.585 529.098L341.77 534.319L314.306 548.311L322.75 554.73L353.249 553.169L370.62 556.251L349.067 558.988L326.308 566.433L348.282 579.763L325.845 580.704L295.97 564.741Z" fill="#DDE7C1"/>
<path d="M1168.66 96.7322C1211.47 124.957 1179.72 287.857 1036.83 504.57C893.948 721.282 750.61 823.941 707.801 795.716C664.993 767.49 720.897 607.185 863.782 390.472C1006.67 173.76 1125.85 68.5071 1168.66 96.7322Z" fill="#DDE7C1"/>
<path d="M1036.09 504.165C1160.93 314.829 1204.28 124.207 1166.88 99.5476C1129.48 74.888 989.242 201.632 864.407 390.969C739.572 580.305 672.257 768.353 709.658 793.012C747.059 817.672 911.257 693.501 1036.09 504.165Z" fill="#FDF8F3"/>
<path d="M1035.35 503.765C1160.19 314.428 1202.5 127.026 1165.1 102.367C1127.7 77.7073 989.867 202.133 865.032 391.469C740.197 580.805 674.114 765.653 711.515 790.313C748.916 814.972 910.516 693.101 1035.35 503.765Z" fill="#FAF1E7"/>
<path d="M1034.61 503.358C1159.45 314.022 1200.72 129.84 1163.32 105.18C1125.92 80.5208 990.496 202.627 865.661 391.963C740.827 581.299 675.975 762.948 713.376 787.608C750.777 812.267 909.779 692.694 1034.61 503.358Z" fill="#F8E9DA"/>
<path d="M1033.86 502.957C1158.7 313.621 1198.93 132.659 1161.53 108C1124.13 83.34 991.114 203.127 866.279 392.463C741.444 581.799 677.824 760.249 715.225 784.908C752.626 809.568 909.03 692.293 1033.86 502.957Z" fill="#F5E2CE"/>
<path d="M1033.13 502.55C1157.96 313.214 1197.15 135.472 1159.75 110.812C1122.35 86.1525 991.743 203.62 866.908 392.956C742.073 582.293 679.684 757.542 717.085 782.202C754.486 806.862 908.293 691.886 1033.13 502.55Z" fill="#F3DBC2"/>
<path d="M1032.38 502.147C1157.22 312.811 1195.37 138.289 1157.97 113.629C1120.57 88.9698 992.364 204.118 867.529 393.455C742.695 582.791 681.537 754.841 718.938 779.501C756.339 804.16 907.548 691.483 1032.38 502.147Z" fill="#F0D4B6"/>
<path d="M1031.64 501.741C1156.48 312.405 1193.59 141.104 1156.18 116.444C1118.78 91.7843 992.989 204.614 868.155 393.95C743.32 583.286 683.394 752.137 720.795 776.796C758.196 801.456 906.807 691.078 1031.64 501.741Z" fill="#EECDA9"/>
<path d="M1030.9 501.341C1155.74 312.005 1191.8 143.923 1154.4 119.263C1117 94.6037 993.615 205.114 868.78 394.45C743.945 583.786 685.251 749.437 722.652 774.097C760.053 798.757 906.066 690.677 1030.9 501.341Z" fill="#EBC69D"/>
<path d="M1030.16 500.936C1154.99 311.6 1190.02 146.738 1152.62 122.079C1115.22 97.419 994.24 205.61 869.405 394.946C744.57 584.282 687.107 746.734 724.508 771.394C761.91 796.053 905.325 690.272 1030.16 500.936Z" fill="#E9BE91"/>
<path d="M1029.41 500.533C1154.25 311.197 1188.24 149.555 1150.83 124.896C1113.43 100.236 994.861 206.108 870.026 395.444C745.192 584.781 688.96 744.033 726.361 768.692C763.762 793.352 904.58 689.87 1029.41 500.533Z" fill="#E6B785"/>
<path d="M1028.67 500.129C1153.5 310.793 1186.45 152.371 1149.05 127.711C1111.65 103.052 995.483 206.604 870.648 395.941C745.813 585.277 690.813 741.329 728.214 765.989C765.615 790.649 903.835 689.465 1028.67 500.129Z" fill="#E4B078"/>
<path d="M1027.93 499.722C1152.77 310.386 1184.67 155.184 1147.27 130.525C1109.87 105.865 996.112 207.099 871.277 396.435C746.442 585.771 692.674 738.624 730.075 763.284C767.476 787.943 903.098 689.058 1027.93 499.722Z" fill="#E1A96C"/>
<path d="M1027.19 499.319C1152.03 309.983 1182.89 158.001 1145.49 133.341C1108.09 108.682 996.737 207.596 871.902 396.932C747.067 586.268 694.531 735.922 731.932 760.581C769.333 785.241 902.357 688.655 1027.19 499.319Z" fill="#DFA260"/>
<path d="M1026.45 498.914C1151.28 309.578 1181.11 160.816 1143.71 136.157C1106.31 111.497 997.362 208.092 872.527 397.428C747.693 586.764 696.387 733.218 733.788 757.878C771.189 782.538 901.615 688.25 1026.45 498.914Z" fill="#DC9A54"/>
<path d="M1025.71 498.513C1150.54 309.177 1179.33 163.635 1141.93 138.976C1104.52 114.316 997.987 208.592 873.153 397.928C748.318 587.265 698.244 730.519 735.645 755.179C773.046 779.838 900.874 687.85 1025.71 498.513Z" fill="#DA9347"/>
<path d="M1140.14 141.791C1177.54 166.451 1149.8 308.773 1024.97 498.109C900.133 687.445 774.903 777.135 737.502 752.475C700.101 727.816 748.943 587.761 873.778 398.425C998.613 209.089 1102.74 117.132 1140.14 141.791Z" fill="#D78C3B"/>
<ellipse cx="811.871" cy="609.639" rx="57.5056" ry="17.4009" transform="rotate(-98.6455 811.871 609.639)" fill="#9F3F00"/>
<ellipse cx="899.481" cy="491.762" rx="57.5056" ry="17.4009" transform="rotate(-98.6455 899.481 491.762)" fill="#9F3F00"/>
<ellipse cx="981.926" cy="370.471" rx="57.5056" ry="17.4009" transform="rotate(-98.6455 981.926 370.471)" fill="#9F3F00"/>
<ellipse cx="1062.64" cy="248.045" rx="57.5056" ry="17.4009" transform="rotate(-98.6455 1062.64 248.045)" fill="#9F3F00"/>
<circle cx="1057.5" cy="507.5" r="71.5" fill="white"/>
<circle cx="1057.49" cy="507.496" r="70.2043" fill="#ECF1EE"/>
<circle cx="1057.5" cy="507.492" r="68.9086" fill="#D8E2DD"/>
<circle cx="1057.49" cy="507.488" r="67.6128" fill="#C5D4CC"/>
<circle cx="1057.49" cy="507.483" r="66.3171" fill="#B2C6BA"/>
<circle cx="1057.48" cy="507.478" r="65.0214" fill="#9FB8A9"/>
<circle cx="1057.23" cy="507.473" r="67.4064" fill="#8BA998"/>
<circle cx="1057.22" cy="507.468" r="66.0358" fill="#789B87"/>
<circle cx="1057.22" cy="507.464" r="64.6653" fill="#658D76"/>
<circle cx="1057.21" cy="507.459" r="63.2947" fill="#517E65"/>
<circle cx="1057.21" cy="507.454" r="61.9241" fill="#3E7054"/>
<circle cx="1057.2" cy="507.449" r="60.5536" fill="#2B6243"/>
<circle cx="1057.2" cy="507.451" r="52.9906" fill="#2B6243"/>
<circle cx="1057.2" cy="507.451" r="52.0644" fill="#366A45"/>
<circle cx="1057.2" cy="507.451" r="51.1381" fill="#417247"/>
<circle cx="1057.2" cy="507.45" r="50.2118" fill="#4C7B49"/>
<circle cx="1057.2" cy="507.45" r="49.2856" fill="#57834B"/>
<circle cx="1057.2" cy="507.449" r="48.3593" fill="#618B4D"/>
<circle cx="1057.21" cy="507.451" r="47.4331" fill="#6C944F"/>
<circle cx="1057.2" cy="507.451" r="46.5068" fill="#779C51"/>
<circle cx="1057.2" cy="507.451" r="45.5806" fill="#82A454"/>
<circle cx="1057.21" cy="507.451" r="44.6543" fill="#8DAC56"/>
<circle cx="1057.2" cy="507.45" r="43.728" fill="#98B558"/>
<circle cx="1057.21" cy="507.449" r="42.8018" fill="#A3BD5A"/>
<circle cx="1057.1" cy="507.451" r="35.1778" fill="#A3BD5A"/>
<circle cx="1057.1" cy="507.447" r="34.3033" fill="#A7C060"/>
<circle cx="1057.09" cy="507.442" r="33.4288" fill="#ABC366"/>
<circle cx="1057.09" cy="507.437" r="32.5544" fill="#AEC66B"/>
<circle cx="1057.09" cy="507.431" r="31.6799" fill="#B2C971"/>
<circle cx="1057.08" cy="507.427" r="30.8054" fill="#B6CC77"/>
<circle cx="1057.07" cy="507.422" r="29.9309" fill="#BACF7D"/>
<circle cx="1057.07" cy="507.418" r="29.0565" fill="#BDD283"/>
<circle cx="1057.06" cy="507.414" r="28.182" fill="#C1D588"/>
<circle cx="1057.06" cy="507.409" r="27.3075" fill="#C5D88E"/>
<circle cx="1057.06" cy="507.404" r="26.433" fill="#C9DB94"/>
<circle cx="1057.05" cy="507.401" r="25.5585" fill="#CCDE9A"/>
<ellipse cx="1.823" cy="4.45621" rx="1.823" ry="4.45621" transform="matrix(-0.660699 -0.750651 -0.750651 0.660699 1039.45 521.292)" fill="#2B6243"/>
<ellipse cx="1031.8" cy="501.12" rx="1.823" ry="4.45621" transform="rotate(116.833 1031.8 501.12)" fill="#2B6243"/>
<ellipse cx="1.823" cy="4.45621" rx="1.823" ry="4.45621" transform="matrix(-0.250405 -0.968141 -0.968141 0.250405 1032.24 513.213)" fill="#2B6243"/>
<ellipse cx="1076.52" cy="491.331" rx="1.823" ry="4.45621" transform="rotate(-120.031 1076.52 491.331)" fill="#2B6243"/>
<ellipse cx="1.823" cy="4.45621" rx="1.823" ry="4.45621" transform="matrix(0.989734 -0.142923 -0.142923 -0.989734 1055.73 486.121)" fill="#2B6243"/>
<ellipse cx="1069.13" cy="481.005" rx="1.823" ry="4.45621" transform="rotate(-146.882 1069.13 481.005)" fill="#2B6243"/>
<ellipse cx="1.823" cy="4.45621" rx="1.823" ry="4.45621" transform="matrix(-0.3522 0.935925 0.935925 0.3522 1079.26 517.153)" fill="#2B6243"/>
<ellipse cx="1065.05" cy="533.384" rx="1.823" ry="4.45621" transform="rotate(-1.19166 1065.05 533.384)" fill="#2B6243"/>
<ellipse cx="1.823" cy="4.45621" rx="1.823" ry="4.45621" transform="matrix(-0.736967 0.675929 0.675929 0.736967 1075.52 527.309)" fill="#2B6243"/>
<ellipse cx="1011" cy="650.31" rx="112" ry="97.6494" fill="white"/>
<ellipse cx="1011" cy="649.864" rx="111.237" ry="96.9845" fill="#FEF8F7"/>
<ellipse cx="1011.01" cy="649.418" rx="110.475" ry="96.3195" fill="#FDF0EF"/>
<ellipse cx="1011" cy="648.526" rx="108.949" ry="94.9897" fill="#FAE2E0"/>
<ellipse cx="1011.01" cy="648.079" rx="108.187" ry="94.3248" fill="#F9DAD8"/>
<ellipse cx="1011.01" cy="647.633" rx="107.424" ry="93.6598" fill="#F8D3D0"/>
<ellipse cx="1011.01" cy="647.187" rx="106.661" ry="92.9949" fill="#F7CBC8"/>
<ellipse cx="1011.01" cy="646.741" rx="105.899" ry="92.33" fill="#F5C4C1"/>
<ellipse cx="1011.01" cy="646.295" rx="105.136" ry="91.6651" fill="#F4BDB9"/>
<ellipse cx="1011.01" cy="645.849" rx="104.374" ry="91.0001" fill="#F3B5B1"/>
<ellipse cx="1011.01" cy="645.403" rx="103.611" ry="90.3352" fill="#F2AEA9"/>
<ellipse cx="1011.02" cy="644.956" rx="102.848" ry="89.6703" fill="#F0A7A1"/>
<ellipse cx="1011.02" cy="644.51" rx="102.086" ry="89.0053" fill="#EF9F9A"/>
<ellipse cx="1011.02" cy="644.065" rx="101.323" ry="88.3404" fill="#EE9892"/>
<ellipse cx="1011.02" cy="643.619" rx="100.56" ry="87.6755" fill="#ED918A"/>
<ellipse cx="1011.02" cy="643.173" rx="99.7977" ry="87.0106" fill="#EC8982"/>
<ellipse cx="1011.02" cy="642.727" rx="99.035" ry="86.3456" fill="#EA827A"/>
<ellipse cx="1011.03" cy="642.28" rx="98.2724" ry="85.6807" fill="#E97A73"/>
<ellipse cx="1011.03" cy="641.834" rx="97.5098" ry="85.0158" fill="#E8736B"/>
<ellipse cx="1011.02" cy="641.388" rx="96.7471" ry="84.3509" fill="#E76C63"/>
<ellipse cx="1011.03" cy="640.942" rx="95.9845" ry="83.6859" fill="#E6645B"/>
<ellipse cx="1011.03" cy="640.497" rx="95.2218" ry="83.021" fill="#E45D53"/>
<ellipse cx="1011.03" cy="640.049" rx="94.4592" ry="82.3561" fill="#E3564C"/>
<ellipse cx="1011.03" cy="639.603" rx="93.6966" ry="81.6912" fill="#E24E44"/>
<ellipse cx="1011.04" cy="639.157" rx="92.9339" ry="81.0262" fill="#E1473C"/>
<ellipse cx="1011.03" cy="638.711" rx="92.1713" ry="80.3613" fill="#E04034"/>
<ellipse cx="1011.03" cy="638.266" rx="91.4086" ry="79.6964" fill="#DE382C"/>
<ellipse cx="1011.04" cy="637.819" rx="90.646" ry="79.0315" fill="#DD3125"/>
<ellipse cx="1011.04" cy="637.373" rx="89.8833" ry="78.3665" fill="#DC2A1D"/>
<ellipse cx="1011.04" cy="636.927" rx="89.1207" ry="77.7016" fill="#DB2215"/>
<ellipse cx="1011.04" cy="636.481" rx="88.358" ry="77.0367" fill="#D91B0D"/>
<ellipse cx="979.594" cy="647.527" rx="29.7816" ry="13.1725" transform="rotate(26.5397 979.594 647.527)" fill="#D91B0D"/>
<ellipse cx="979.654" cy="647.421" rx="29.1224" ry="12.8809" transform="rotate(26.5397 979.654 647.421)" fill="#DB2213"/>
<ellipse cx="979.714" cy="647.314" rx="28.4633" ry="12.5894" transform="rotate(26.5397 979.714 647.314)" fill="#DC2819"/>
<ellipse cx="979.774" cy="647.207" rx="27.8041" ry="12.2978" transform="rotate(26.5397 979.774 647.207)" fill="#DD2F1F"/>
<ellipse cx="979.838" cy="647.1" rx="27.1449" ry="12.0062" transform="rotate(26.5397 979.838 647.1)" fill="#DF3626"/>
<ellipse cx="979.894" cy="646.992" rx="26.4857" ry="11.7147" transform="rotate(26.5397 979.894 646.992)" fill="#E03D2C"/>
<ellipse cx="979.958" cy="646.886" rx="25.8265" ry="11.4231" transform="rotate(26.5397 979.958 646.886)" fill="#E14332"/>
<ellipse cx="980.018" cy="646.78" rx="25.1674" ry="11.1316" transform="rotate(26.5397 980.018 646.78)" fill="#E24A38"/>
<ellipse cx="980.078" cy="646.672" rx="24.5082" ry="10.84" transform="rotate(26.5397 980.078 646.672)" fill="#E4513E"/>
<ellipse cx="980.138" cy="646.566" rx="23.849" ry="10.5485" transform="rotate(26.5397 980.138 646.566)" fill="#E55844"/>
<ellipse cx="980.198" cy="646.46" rx="23.1898" ry="10.2569" transform="rotate(26.5397 980.198 646.46)" fill="#E65F4A"/>
<ellipse cx="980.258" cy="646.352" rx="22.5306" ry="9.96535" transform="rotate(26.5397 980.258 646.352)" fill="#E76550"/>
<ellipse cx="980.322" cy="646.245" rx="21.8715" ry="9.67379" transform="rotate(26.5397 980.322 646.245)" fill="#E96C56"/>
<ellipse cx="980.383" cy="646.138" rx="21.2123" ry="9.38224" transform="rotate(26.5397 980.383 646.138)" fill="#EA735C"/>
<ellipse cx="980.443" cy="646.032" rx="20.5531" ry="9.09068" transform="rotate(26.5397 980.443 646.032)" fill="#EB7A62"/>
<ellipse cx="980.503" cy="645.925" rx="19.8939" ry="8.79912" transform="rotate(26.5397 980.503 645.925)" fill="#EC8068"/>
<ellipse cx="980.567" cy="645.82" rx="19.2347" ry="8.50756" transform="rotate(26.5397 980.567 645.82)" fill="#EE876F"/>
<ellipse cx="980.627" cy="645.712" rx="18.5756" ry="8.21601" transform="rotate(26.5397 980.627 645.712)" fill="#EF8E75"/>
<ellipse cx="980.687" cy="645.606" rx="17.9164" ry="7.92445" transform="rotate(26.5397 980.687 645.606)" fill="#F0957B"/>
<ellipse cx="980.747" cy="645.497" rx="17.2572" ry="7.63289" transform="rotate(26.5397 980.747 645.497)" fill="#F19B81"/>
<ellipse cx="980.811" cy="645.391" rx="16.598" ry="7.34134" transform="rotate(26.5397 980.811 645.391)" fill="#F3A287"/>
<ellipse cx="980.867" cy="645.284" rx="15.9388" ry="7.04978" transform="rotate(26.5397 980.867 645.284)" fill="#F4A98D"/>
<path d="M999.988 556.894C999.141 551.61 995.507 552.371 996.14 549.001C996.814 545.411 999.662 542.995 1003.32 543C1006.13 543.004 1008.56 543.958 1009.58 546.588C1010.15 548.085 1009.58 550.697 1009.58 550.697C1009.58 550.697 1009.43 560.32 1009.58 566.483C1009.97 582.435 1014.01 605.881 1013.16 607.186C1012.32 608.49 1008.23 611.067 1005.01 610.056C1002.02 609.116 999.662 607.708 999.988 603.794C1000.31 599.88 1000.84 562.177 999.988 556.894Z" fill="#4D772D"/>
<path d="M1044.92 575.234C1048.27 575.488 1053.4 573.93 1053.4 573.93L1044.21 572.56C1044.21 572.56 1038.44 569.889 1034.94 570.995C1031.47 572.091 1028.29 577.518 1028.29 577.518L1017.27 591.151C1017.27 591.151 1015.71 598.952 1011.85 601.131C1008.28 603.146 1005.37 601.953 1001.35 601.131C999.093 600.669 997.888 600.141 995.741 599.304C987.808 596.213 985.352 590.69 977.542 587.302C973.004 585.333 970.389 584.016 965.474 583.453C957.761 582.571 953.716 586.772 945.97 587.302C941.777 587.589 939.323 586.45 935.207 587.302C929.83 588.415 920.009 593.695 922.683 593.695C925.358 593.695 929.096 590.847 933.446 589.846C940.18 588.296 944.226 588.652 951.124 589.063C956.777 589.4 964.235 589.846 965.474 591.151C966.713 592.455 967.757 594.869 965.474 595.26C963.191 595.651 956.901 591.93 951.124 591.151C945.772 590.429 942.563 589.961 937.295 591.151C931.572 592.443 929.02 595.288 923.857 597.869C922.683 598.456 929.553 597.019 932.924 595.651C937.834 593.66 940.726 592.939 945.97 593.695C954.039 594.857 959.431 595.66 965.474 601.131C968.699 604.051 969.02 607.022 972.128 610.067C977.164 615.004 981.908 615.168 987.783 619.069C992.019 621.882 993.777 624.413 998.285 626.766C1005.07 630.309 1013.29 632.311 1017.27 631.658C1021.25 631.006 1022.52 628.709 1025.22 625.983C1027.93 623.258 1026.28 620.031 1028.29 617.504C1035.3 608.694 1046.94 615.185 1055.43 607.784C1061.34 602.624 1062.95 598.041 1066.71 591.151C1069.1 586.779 1071.26 584.509 1072.13 579.605C1072.7 576.344 1074.36 573.567 1072.13 571.125C1071.45 570.385 1071.02 569.824 1070.04 569.625C1068.64 569.342 1066.13 569.826 1066.71 571.125C1067.25 572.309 1068.89 570.525 1070.04 571.125C1072.25 572.277 1070.45 575.056 1070.04 577.518C1069.17 582.649 1066.91 585.606 1063.38 589.063C1059.86 592.52 1052.36 595.736 1044.92 599.304C1038.57 602.353 1028.29 606.284 1028.29 606.284C1028.29 606.284 1024.83 607.915 1024.18 606.284C1023.53 604.653 1029.6 593.695 1029.6 593.695C1029.6 593.695 1031.88 580.518 1034.42 577.518C1036.97 574.517 1036.99 574.378 1039.31 573.93C1041.52 573.505 1042.68 575.064 1044.92 575.234Z" fill="#4D772D"/>
</svg>
