<svg width="86" height="34" viewBox="0 0 86 34" fill="none" xmlns="http://www.w3.org/2000/svg">
<path d="M80.1798 30.7339C80.5605 30.7339 80.9238 30.7252 81.2699 30.7079C81.6159 30.6906 81.8928 30.6647 82.1004 30.6301V27.6973C81.9447 27.6627 81.7111 27.6281 81.3996 27.5935C81.0882 27.5588 80.8027 27.5415 80.5432 27.5415C80.1798 27.5415 79.8338 27.5675 79.505 27.6194C79.1936 27.654 78.9167 27.7319 78.6745 27.853C78.4322 27.9741 78.2419 28.1385 78.1035 28.3461C77.9651 28.5537 77.8959 28.8133 77.8959 29.1247C77.8959 29.7303 78.0948 30.1542 78.4928 30.3965C78.9081 30.6214 79.4704 30.7339 80.1798 30.7339ZM79.8684 19.418C81.0103 19.418 81.962 19.5477 82.7233 19.8073C83.4846 20.0668 84.0902 20.4388 84.5401 20.9233C85.0072 21.4078 85.336 21.9961 85.5263 22.6882C85.7166 23.3803 85.8118 24.1502 85.8118 24.9981V33.0438C85.2581 33.1649 84.4882 33.3033 83.5019 33.459C82.5157 33.6321 81.3218 33.7186 79.9203 33.7186C79.0378 33.7186 78.2333 33.6407 77.5066 33.485C76.7972 33.3293 76.1829 33.0784 75.6638 32.7323C75.1448 32.369 74.7468 31.9018 74.47 31.3308C74.1931 30.7598 74.0547 30.0591 74.0547 29.2285C74.0547 28.4326 74.2104 27.7578 74.5219 27.2041C74.8506 26.6505 75.2832 26.2092 75.8196 25.8805C76.3559 25.5517 76.9702 25.3182 77.6623 25.1797C78.3544 25.024 79.0724 24.9462 79.8165 24.9462C80.3182 24.9462 80.7594 24.9721 81.1401 25.024C81.5381 25.0586 81.8582 25.1105 82.1004 25.1797V24.8164C82.1004 24.1589 81.9014 23.6312 81.5035 23.2332C81.1055 22.8352 80.4134 22.6363 79.4271 22.6363C78.7696 22.6363 78.1208 22.6882 77.4806 22.792C76.8404 22.8785 76.2867 23.0083 75.8196 23.1813L75.3264 20.0668C75.5514 19.9976 75.8282 19.9284 76.157 19.8592C76.503 19.7727 76.875 19.7035 77.273 19.6516C77.6709 19.5823 78.0862 19.5304 78.5188 19.4958C78.9686 19.4439 79.4185 19.418 79.8684 19.418Z" fill="#FFDEF7"/>
<path d="M64.0546 24.7127C64.4353 24.2974 64.8246 23.8649 65.2226 23.415C65.6378 22.9651 66.0358 22.5239 66.4164 22.0913C66.7971 21.6415 67.1518 21.2176 67.4806 20.8196C67.8266 20.4216 68.1208 20.0756 68.363 19.7814H72.9568C72.0398 20.8369 71.1401 21.8491 70.2576 22.8181C69.3925 23.7697 68.4408 24.7559 67.4027 25.7768C67.9218 26.244 68.4581 26.8063 69.0118 27.4638C69.5655 28.104 70.1019 28.7702 70.621 29.4623C71.1401 30.1544 71.6159 30.8465 72.0484 31.5386C72.481 32.2307 72.8444 32.8622 73.1385 33.4332H68.7004C68.4235 32.9833 68.1034 32.4902 67.7401 31.9538C67.394 31.4001 67.022 30.8551 66.6241 30.3187C66.2261 29.7651 65.8022 29.2373 65.3523 28.7355C64.9198 28.2338 64.4872 27.8099 64.0546 27.4638V33.4332H60.1875V13.9159L64.0546 13.293V24.7127Z" fill="#FFDEF7"/>
<path d="M56.5402 33.6927C55.4155 33.6754 54.4985 33.5543 53.7891 33.3294C53.0969 33.1045 52.5433 32.793 52.128 32.395C51.73 31.9798 51.4532 31.4867 51.2975 30.9157C51.1591 30.3274 51.0898 29.6699 51.0898 28.9432V13.9159L54.957 13.293V28.1646C54.957 28.5106 54.9829 28.8221 55.0348 29.0989C55.0868 29.3757 55.1819 29.6093 55.3203 29.7997C55.4761 29.99 55.6923 30.1457 55.9692 30.2668C56.246 30.3879 56.618 30.4658 57.0852 30.5004L56.5402 33.6927Z" fill="#FFDEF7"/>
<path d="M48.69 18.2441C48.8886 18.5805 54.9077 19.8849 54.9077 19.8849C54.9077 19.8849 55.3575 0.571797 54.6764 0.179013C53.9952 -0.213771 50.9631 4.05088 49.8147 7.17257C48.5093 10.721 48.4914 17.9077 48.69 18.2441Z" fill="#FFDEF7"/>
<path d="M35.2188 26.711C35.2188 25.4998 35.4004 24.4444 35.7638 23.5446C36.1444 22.6276 36.6376 21.8663 37.2432 21.2607C37.8487 20.6551 38.5409 20.1966 39.3195 19.8851C40.1154 19.5737 40.9286 19.418 41.7591 19.418C43.697 19.418 45.2283 20.0149 46.353 21.2088C47.4776 22.3854 48.04 24.1243 48.04 26.4255C48.04 26.6505 48.0313 26.9013 48.014 27.1782C47.9967 27.4377 47.9794 27.6713 47.9621 27.8789H39.1897C39.2762 28.6749 39.6482 29.3064 40.3057 29.7736C40.9632 30.2408 41.8456 30.4743 42.953 30.4743C43.6624 30.4743 44.3545 30.4138 45.0293 30.2927C45.7214 30.1542 46.2838 29.9899 46.7163 29.7995L47.2354 32.94C47.0278 33.0438 46.7509 33.1476 46.4049 33.2514C46.0588 33.3552 45.6695 33.4417 45.237 33.5109C44.8217 33.5975 44.3718 33.6667 43.8874 33.7186C43.4029 33.7705 42.9184 33.7964 42.4339 33.7964C41.2055 33.7964 40.1327 33.6148 39.2157 33.2514C38.3159 32.888 37.5633 32.3949 36.9577 31.772C36.3694 31.1318 35.9282 30.3792 35.634 29.514C35.3572 28.6489 35.2188 27.7146 35.2188 26.711ZM44.3026 25.2316C44.2853 24.9029 44.2248 24.5828 44.1209 24.2713C44.0344 23.9599 43.8874 23.6831 43.6797 23.4408C43.4894 23.1986 43.2385 22.9996 42.9271 22.8439C42.6329 22.6882 42.2609 22.6103 41.811 22.6103C41.3785 22.6103 41.0065 22.6882 40.695 22.8439C40.3836 22.9823 40.124 23.1726 39.9164 23.4149C39.7088 23.6571 39.5444 23.9426 39.4233 24.2713C39.3195 24.5828 39.2416 24.9029 39.1897 25.2316H44.3026Z" fill="#FFDEF7"/>
<path d="M33.7274 23.2075C33.3813 23.121 32.9747 23.0345 32.5076 22.948C32.0404 22.8441 31.5386 22.7922 31.0022 22.7922C30.76 22.7922 30.4658 22.8182 30.1198 22.8701C29.791 22.9047 29.5402 22.948 29.3671 22.9999V33.4333H25.5V20.5083C26.1921 20.2661 27.0053 20.0411 27.9397 19.8335C28.8913 19.6086 29.9468 19.4961 31.106 19.4961C31.3137 19.4961 31.5646 19.5134 31.8587 19.548C32.1529 19.5653 32.447 19.5999 32.7411 19.6518C33.0353 19.6864 33.3294 19.7383 33.6236 19.8075C33.9177 19.8594 34.1686 19.9287 34.3762 20.0152L33.7274 23.2075Z" fill="#FFDEF7"/>
<path d="M16.8322 30.7339C17.2128 30.7339 17.5762 30.7252 17.9222 30.7079C18.2683 30.6906 18.5451 30.6647 18.7527 30.6301V27.6973C18.597 27.6627 18.3634 27.6281 18.052 27.5935C17.7405 27.5588 17.455 27.5415 17.1955 27.5415C16.8322 27.5415 16.4861 27.5675 16.1574 27.6194C15.8459 27.654 15.5691 27.7319 15.3268 27.853C15.0846 27.9741 14.8943 28.1385 14.7558 28.3461C14.6174 28.5537 14.5482 28.8133 14.5482 29.1247C14.5482 29.7303 14.7472 30.1542 15.1451 30.3965C15.5604 30.6214 16.1227 30.7339 16.8322 30.7339ZM16.5207 19.418C17.6627 19.418 18.6143 19.5477 19.3756 19.8073C20.137 20.0668 20.7425 20.4388 21.1924 20.9233C21.6596 21.4078 21.9883 21.9961 22.1787 22.6882C22.369 23.3803 22.4642 24.1502 22.4642 24.9981V33.0438C21.9105 33.1649 21.1405 33.3033 20.1543 33.459C19.168 33.6321 17.9741 33.7186 16.5726 33.7186C15.6902 33.7186 14.8856 33.6407 14.1589 33.485C13.4495 33.3293 12.8353 33.0784 12.3162 32.7323C11.7971 32.369 11.3991 31.9018 11.1223 31.3308C10.8455 30.7598 10.707 30.0591 10.707 29.2285C10.707 28.4326 10.8628 27.7578 11.1742 27.2041C11.503 26.6505 11.9355 26.2092 12.4719 25.8805C13.0083 25.5517 13.6225 25.3182 14.3146 25.1797C15.0067 25.024 15.7248 24.9462 16.4688 24.9462C16.9706 24.9462 17.4118 24.9721 17.7924 25.024C18.1904 25.0586 18.5105 25.1105 18.7527 25.1797V24.8164C18.7527 24.1589 18.5538 23.6312 18.1558 23.2332C17.7578 22.8352 17.0657 22.6363 16.0795 22.6363C15.422 22.6363 14.7731 22.6882 14.1329 22.792C13.4928 22.8785 12.9391 23.0083 12.4719 23.1813L11.9788 20.0668C12.2037 19.9976 12.4805 19.9284 12.8093 19.8592C13.1553 19.7727 13.5274 19.7035 13.9253 19.6516C14.3233 19.5823 14.7385 19.5304 15.1711 19.4958C15.621 19.4439 16.0708 19.418 16.5207 19.418Z" fill="#FFDEF7"/>
<path d="M0 16.3817L3.86713 15.7588V19.7816H8.51288V22.9999H3.86713V27.8014C3.86713 28.6146 4.00555 29.2635 4.28239 29.7479C4.57654 30.2324 5.15618 30.4747 6.02131 30.4747C6.43657 30.4747 6.86048 30.4401 7.29305 30.3708C7.74292 30.2843 8.14953 30.1719 8.51288 30.0334L9.05791 33.0441C8.59074 33.2344 8.07167 33.3988 7.50068 33.5372C6.92969 33.6756 6.22894 33.7448 5.39841 33.7448C4.34295 33.7448 3.46917 33.6064 2.77707 33.3296C2.08496 33.0354 1.53128 32.6375 1.11602 32.1357C0.700756 31.6166 0.406611 30.9937 0.233585 30.267C0.0778617 29.5403 0 28.7357 0 27.8533V16.3817Z" fill="#FFDEF7"/>
<path d="M60.9492 3.68066H63.1504V12.3777H60.9492V3.68066Z" fill="#FFDEF7"/>
<path d="M64.875 3.14258V3.54993L67.0762 3.14258V12.378H64.875V3.14258Z" fill="#FFDEF7"/>
<path d="M58.1279 14.5791C57.5201 14.5791 57.0273 14.0863 57.0273 13.4785V12.3779H67.0762V13.5264C67.0762 14.1078 66.6049 14.5791 66.0235 14.5791H58.1279Z" fill="#FFDEF7"/>
<path d="M57.0273 3.14258L59.2285 3.58268V3.14258V12.378H57.0273V3.14258Z" fill="#FFDEF7"/>
</svg>
