<svg width="669" height="190" viewBox="0 0 669 190" fill="none" xmlns="http://www.w3.org/2000/svg">
<path d="M0 17.8669C0 7.9993 7.99929 0 17.8669 0H307.46C317.327 0 325.327 7.99929 325.327 17.8669V171.224C325.327 181.092 317.327 189.091 307.46 189.091H17.8669C7.99932 189.091 0 181.092 0 171.225V17.8669Z" fill="#3A3A3A"/>
<path d="M99.6709 100.783H95.0143L93.8753 106.679H90.2908L91.4298 100.783H88.7498V97.6006H92.0328L93.0043 92.542H88.7498V89.393H93.6073L94.7463 83.4634H98.3309L97.1919 89.393H101.848L102.987 83.4634H106.572L105.433 89.393H108.147V92.542H104.83L103.858 97.6006H108.147V100.783H103.255L102.116 106.679H98.5319L99.6709 100.783ZM95.6174 97.6006H100.274L101.245 92.542H96.5889L95.6174 97.6006ZM117.59 107.182C116.987 107.182 116.362 107.137 115.714 107.048C115.089 106.981 114.486 106.88 113.905 106.746C113.347 106.635 112.833 106.512 112.364 106.378C111.895 106.221 111.538 106.076 111.292 105.942L112.096 102.492C112.565 102.715 113.246 102.972 114.14 103.262C115.033 103.53 116.139 103.664 117.456 103.664C119.221 103.664 120.494 103.329 121.275 102.659C122.057 101.967 122.448 101.051 122.448 99.9121C122.448 99.1751 122.291 98.5609 121.979 98.0696C121.688 97.5782 121.275 97.1874 120.739 96.8971C120.226 96.5844 119.623 96.3722 118.93 96.2606C118.26 96.1266 117.546 96.0596 116.786 96.0596H115.413V92.7765H117.088C117.601 92.7765 118.115 92.7318 118.629 92.6425C119.165 92.5308 119.645 92.3522 120.069 92.1065C120.494 91.8385 120.84 91.4923 121.108 91.068C121.376 90.6437 121.51 90.0965 121.51 89.4265C121.51 88.8905 121.409 88.4326 121.208 88.0529C121.007 87.6733 120.739 87.3606 120.404 87.1149C120.092 86.8693 119.723 86.6906 119.299 86.5789C118.874 86.4673 118.428 86.4114 117.959 86.4114C116.954 86.4114 116.06 86.5678 115.279 86.8804C114.497 87.1708 113.805 87.5058 113.202 87.8854L111.728 84.8704C112.04 84.6694 112.42 84.4572 112.867 84.2339C113.313 84.0106 113.805 83.7984 114.341 83.5974C114.899 83.3964 115.491 83.2401 116.116 83.1284C116.742 82.9944 117.4 82.9274 118.093 82.9274C119.388 82.9274 120.505 83.0837 121.443 83.3964C122.381 83.7091 123.151 84.1557 123.754 84.7364C124.38 85.2947 124.838 85.9648 125.128 86.7464C125.441 87.5058 125.597 88.3433 125.597 89.259C125.597 90.331 125.295 91.2913 124.692 92.14C124.112 92.9887 123.352 93.6364 122.414 94.083C123.62 94.5074 124.614 95.2109 125.396 96.1936C126.2 97.1762 126.602 98.4381 126.602 99.9791C126.602 101.006 126.423 101.967 126.066 102.86C125.709 103.731 125.161 104.491 124.424 105.138C123.687 105.764 122.749 106.266 121.61 106.646C120.494 107.003 119.154 107.182 117.59 107.182ZM146.915 106.679C146.603 105.764 146.279 104.859 145.944 103.966C145.609 103.072 145.285 102.157 144.972 101.219H135.19C134.877 102.157 134.554 103.083 134.219 103.999C133.906 104.893 133.593 105.786 133.28 106.679H128.892C129.763 104.2 130.589 101.911 131.371 99.8116C132.153 97.7122 132.912 95.7246 133.649 93.8485C134.408 91.9725 135.157 90.1858 135.894 88.4885C136.631 86.7911 137.39 85.1161 138.172 83.4634H142.158C142.94 85.1161 143.699 86.7911 144.436 88.4885C145.173 90.1858 145.91 91.9725 146.647 93.8485C147.407 95.7246 148.177 97.7122 148.959 99.8116C149.763 101.911 150.6 104.2 151.471 106.679H146.915ZM140.081 87.9524C139.567 89.1361 138.976 90.5767 138.306 92.274C137.658 93.9714 136.977 95.8139 136.262 97.8016H143.9C143.185 95.8139 142.493 93.9602 141.823 92.2405C141.153 90.5208 140.572 89.0915 140.081 87.9524ZM159.531 107.182C158.928 107.182 158.303 107.137 157.655 107.048C157.03 106.981 156.427 106.88 155.846 106.746C155.288 106.635 154.774 106.512 154.305 106.378C153.836 106.221 153.479 106.076 153.233 105.942L154.037 102.492C154.506 102.715 155.187 102.972 156.081 103.262C156.974 103.53 158.08 103.664 159.397 103.664C161.162 103.664 162.435 103.329 163.216 102.659C163.998 101.967 164.389 101.051 164.389 99.9121C164.389 99.1751 164.232 98.5609 163.92 98.0696C163.629 97.5782 163.216 97.1874 162.68 96.8971C162.167 96.5844 161.564 96.3722 160.871 96.2606C160.201 96.1266 159.487 96.0596 158.727 96.0596H157.354V92.7765H159.029C159.542 92.7765 160.056 92.7318 160.57 92.6425C161.106 92.5308 161.586 92.3522 162.01 92.1065C162.435 91.8385 162.781 91.4923 163.049 91.068C163.317 90.6437 163.451 90.0965 163.451 89.4265C163.451 88.8905 163.35 88.4326 163.149 88.0529C162.948 87.6733 162.68 87.3606 162.345 87.1149C162.033 86.8693 161.664 86.6906 161.24 86.5789C160.815 86.4673 160.369 86.4114 159.9 86.4114C158.895 86.4114 158.001 86.5678 157.22 86.8804C156.438 87.1708 155.746 87.5058 155.143 87.8854L153.669 84.8704C153.981 84.6694 154.361 84.4572 154.808 84.2339C155.254 84.0106 155.746 83.7984 156.282 83.5974C156.84 83.3964 157.432 83.2401 158.057 83.1284C158.683 82.9944 159.341 82.9274 160.034 82.9274C161.329 82.9274 162.446 83.0837 163.384 83.3964C164.322 83.7091 165.092 84.1557 165.695 84.7364C166.321 85.2947 166.778 85.9648 167.069 86.7464C167.381 87.5058 167.538 88.3433 167.538 89.259C167.538 90.331 167.236 91.2913 166.633 92.14C166.053 92.9887 165.293 93.6364 164.355 94.083C165.561 94.5074 166.555 95.2109 167.337 96.1936C168.141 97.1762 168.543 98.4381 168.543 99.9791C168.543 101.006 168.364 101.967 168.007 102.86C167.65 103.731 167.102 104.491 166.365 105.138C165.628 105.764 164.69 106.266 163.551 106.646C162.435 107.003 161.095 107.182 159.531 107.182ZM188.856 106.679C188.543 105.764 188.22 104.859 187.885 103.966C187.55 103.072 187.226 102.157 186.913 101.219H177.131C176.818 102.157 176.494 103.083 176.159 103.999C175.847 104.893 175.534 105.786 175.221 106.679H170.833C171.704 104.2 172.53 101.911 173.312 99.8116C174.094 97.7122 174.853 95.7246 175.59 93.8485C176.349 91.9725 177.098 90.1858 177.835 88.4885C178.572 86.7911 179.331 85.1161 180.113 83.4634H184.099C184.881 85.1161 185.64 86.7911 186.377 88.4885C187.114 90.1858 187.851 91.9725 188.588 93.8485C189.348 95.7246 190.118 97.7122 190.9 99.8116C191.704 101.911 192.541 104.2 193.412 106.679H188.856ZM182.022 87.9524C181.508 89.1361 180.917 90.5767 180.247 92.274C179.599 93.9714 178.918 95.8139 178.203 97.8016H185.841C185.126 95.8139 184.434 93.9602 183.764 92.2405C183.094 90.5208 182.513 89.0915 182.022 87.9524ZM201.472 107.182C200.869 107.182 200.244 107.137 199.596 107.048C198.971 106.981 198.368 106.88 197.787 106.746C197.229 106.635 196.715 106.512 196.246 106.378C195.777 106.221 195.42 106.076 195.174 105.942L195.978 102.492C196.447 102.715 197.128 102.972 198.022 103.262C198.915 103.53 200.021 103.664 201.338 103.664C203.103 103.664 204.376 103.329 205.157 102.659C205.939 101.967 206.33 101.051 206.33 99.9121C206.33 99.1751 206.173 98.5609 205.861 98.0696C205.57 97.5782 205.157 97.1874 204.621 96.8971C204.108 96.5844 203.505 96.3722 202.812 96.2606C202.142 96.1266 201.428 96.0596 200.668 96.0596H199.295V92.7765H200.97C201.483 92.7765 201.997 92.7318 202.511 92.6425C203.047 92.5308 203.527 92.3522 203.951 92.1065C204.376 91.8385 204.722 91.4923 204.99 91.068C205.258 90.6437 205.392 90.0965 205.392 89.4265C205.392 88.8905 205.291 88.4326 205.09 88.0529C204.889 87.6733 204.621 87.3606 204.286 87.1149C203.974 86.8693 203.605 86.6906 203.181 86.5789C202.756 86.4673 202.31 86.4114 201.841 86.4114C200.836 86.4114 199.942 86.5678 199.161 86.8804C198.379 87.1708 197.687 87.5058 197.084 87.8854L195.61 84.8704C195.922 84.6694 196.302 84.4572 196.749 84.2339C197.195 84.0106 197.687 83.7984 198.223 83.5974C198.781 83.3964 199.373 83.2401 199.998 83.1284C200.624 82.9944 201.282 82.9274 201.975 82.9274C203.27 82.9274 204.387 83.0837 205.325 83.3964C206.263 83.7091 207.033 84.1557 207.636 84.7364C208.262 85.2947 208.719 85.9648 209.01 86.7464C209.322 87.5058 209.479 88.3433 209.479 89.259C209.479 90.331 209.177 91.2913 208.574 92.14C207.994 92.9887 207.234 93.6364 206.296 94.083C207.502 94.5074 208.496 95.2109 209.278 96.1936C210.082 97.1762 210.484 98.4381 210.484 99.9791C210.484 101.006 210.305 101.967 209.948 102.86C209.59 103.731 209.043 104.491 208.306 105.138C207.569 105.764 206.631 106.266 205.492 106.646C204.376 107.003 203.036 107.182 201.472 107.182ZM230.797 106.679C230.484 105.764 230.161 104.859 229.826 103.966C229.491 103.072 229.167 102.157 228.854 101.219H219.072C218.759 102.157 218.435 103.083 218.1 103.999C217.788 104.893 217.475 105.786 217.162 106.679H212.774C213.645 104.2 214.471 101.911 215.253 99.8116C216.035 97.7122 216.794 95.7246 217.531 93.8485C218.29 91.9725 219.038 90.1858 219.776 88.4885C220.513 86.7911 221.272 85.1161 222.054 83.4634H226.04C226.822 85.1161 227.581 86.7911 228.318 88.4885C229.055 90.1858 229.792 91.9725 230.529 93.8485C231.288 95.7246 232.059 97.7122 232.841 99.8116C233.645 101.911 234.482 104.2 235.353 106.679H230.797ZM223.963 87.9524C223.449 89.1361 222.858 90.5767 222.188 92.274C221.54 93.9714 220.859 95.8139 220.144 97.8016H227.782C227.067 95.8139 226.375 93.9602 225.705 92.2405C225.035 90.5208 224.454 89.0915 223.963 87.9524Z" fill="white"/>
<path d="M650.227 0.37207H359.146C349.484 0.37207 341.651 8.20514 341.651 17.8672V171.225C341.651 180.887 349.484 188.719 359.146 188.719H650.227C659.889 188.719 667.722 180.887 667.722 171.225V17.8672C667.722 8.20514 659.889 0.37207 650.227 0.37207Z" fill="white" stroke="black" stroke-width="0.744454"/>
<path d="M448.967 100.783H444.31L443.171 106.679H439.587L440.726 100.783H438.046V97.6006H441.329L442.3 92.542H438.046V89.393H442.903L444.042 83.4634H447.627L446.488 89.393H451.144L452.283 83.4634H455.868L454.729 89.393H457.442V92.542H454.126L453.154 97.6006H457.442V100.783H452.551L451.412 106.679H447.828L448.967 100.783ZM444.913 97.6006H449.57L450.541 92.542H445.885L444.913 97.6006ZM461.761 106.679V83.4634H476.434V87.0479H465.982V92.9775H475.261V96.5621H465.982V106.679H461.761ZM480.212 106.679V83.4634H494.885V87.0479H484.433V92.9775H493.713V96.5621H484.433V106.679H480.212ZM498.663 106.679V83.4634H513.337V87.0479H502.884V92.9775H512.164V96.5621H502.884V106.679H498.663ZM517.115 106.679V83.4634H531.788V87.0479H521.336V92.9775H530.616V96.5621H521.336V106.679H517.115ZM535.566 106.679V83.4634H550.239V87.0479H539.787V92.9775H549.067V96.5621H539.787V106.679H535.566ZM554.018 106.679V83.4634H568.691V87.0479H558.239V92.9775H567.518V96.5621H558.239V106.679H554.018Z" fill="#3A3A3A"/>
</svg>
