<svg width="622" height="203" viewBox="0 0 622 203" fill="none" xmlns="http://www.w3.org/2000/svg">
<path d="M25.824 37.248C25.376 35.936 24.912 34.64 24.432 33.36C23.952 32.08 23.488 30.768 23.04 29.424H9.02401C8.57601 30.768 8.11201 32.096 7.63201 33.408C7.18401 34.688 6.73601 35.968 6.28801 37.248H9.78261e-06C1.24801 33.696 2.43201 30.416 3.55201 27.408C4.67201 24.4 5.76001 21.552 6.81601 18.864C7.90401 16.176 8.97601 13.616 10.032 11.184C11.088 8.75205 12.176 6.35205 13.296 3.98405H19.008C20.128 6.35205 21.216 8.75205 22.272 11.184C23.328 13.616 24.384 16.176 25.44 18.864C26.528 21.552 27.632 24.4 28.752 27.408C29.904 30.416 31.104 33.696 32.352 37.248H25.824ZM16.032 10.416C15.296 12.112 14.448 14.176 13.488 16.608C12.56 19.04 11.584 21.68 10.56 24.528H21.504C20.48 21.68 19.488 19.024 18.528 16.56C17.568 14.096 16.736 12.048 16.032 10.416ZM45.1005 33.168C46.8925 33.168 48.2525 33.072 49.1805 32.88V26.448C48.8605 26.352 48.3965 26.256 47.7885 26.16C47.1805 26.064 46.5085 26.016 45.7725 26.016C45.1325 26.016 44.4765 26.064 43.8045 26.16C43.1645 26.256 42.5725 26.432 42.0285 26.688C41.5165 26.944 41.1005 27.312 40.7805 27.792C40.4605 28.24 40.3005 28.816 40.3005 29.52C40.3005 30.896 40.7325 31.856 41.5965 32.4C42.4605 32.912 43.6285 33.168 45.1005 33.168ZM44.6205 11.52C46.5405 11.52 48.1565 11.76 49.4685 12.24C50.7805 12.72 51.8205 13.392 52.5885 14.256C53.3885 15.12 53.9485 16.176 54.2685 17.424C54.6205 18.64 54.7965 19.984 54.7965 21.456V36.672C53.9005 36.864 52.5405 37.088 50.7165 37.344C48.9245 37.632 46.8925 37.776 44.6205 37.776C43.1165 37.776 41.7405 37.632 40.4925 37.344C39.2445 37.056 38.1725 36.592 37.2765 35.952C36.4125 35.312 35.7245 34.48 35.2125 33.456C34.7325 32.432 34.4925 31.168 34.4925 29.664C34.4925 28.224 34.7645 27.008 35.3085 26.016C35.8845 25.024 36.6525 24.224 37.6125 23.616C38.5725 22.976 39.6765 22.528 40.9245 22.272C42.2045 21.984 43.5325 21.84 44.9085 21.84C45.5485 21.84 46.2205 21.888 46.9245 21.984C47.6285 22.048 48.3805 22.176 49.1805 22.368V21.408C49.1805 20.736 49.1005 20.096 48.9405 19.488C48.7805 18.88 48.4925 18.352 48.0765 17.904C47.6925 17.424 47.1645 17.056 46.4925 16.8C45.8525 16.544 45.0365 16.416 44.0445 16.416C42.7005 16.416 41.4685 16.512 40.3485 16.704C39.2285 16.896 38.3165 17.12 37.6125 17.376L36.8925 12.672C37.6285 12.416 38.7005 12.16 40.1085 11.904C41.5165 11.648 43.0205 11.52 44.6205 11.52ZM83.4323 37.632C81.6723 37.632 79.8963 37.568 78.1043 37.44C76.3123 37.344 74.7443 37.12 73.4003 36.768V4.46405C74.1043 4.33605 74.8563 4.22404 75.6563 4.12804C76.4563 4.00005 77.2723 3.90405 78.1043 3.84004C78.9363 3.77605 79.7523 3.72805 80.5523 3.69604C81.3843 3.66404 82.1683 3.64804 82.9043 3.64804C84.9203 3.64804 86.7923 3.80804 88.5203 4.12804C90.2483 4.41604 91.7363 4.91204 92.9843 5.61604C94.2643 6.32005 95.2563 7.24805 95.9603 8.40005C96.6643 9.55205 97.0163 10.976 97.0163 12.672C97.0163 14.24 96.6323 15.584 95.8643 16.704C95.1283 17.824 94.0883 18.72 92.7443 19.392C94.7603 20.064 96.2483 21.056 97.2083 22.368C98.1683 23.68 98.6483 25.344 98.6483 27.36C98.6483 30.784 97.4003 33.36 94.9043 35.088C92.4083 36.784 88.5843 37.632 83.4323 37.632ZM79.3523 22.272V32.4C80.0243 32.464 80.7443 32.512 81.5123 32.544C82.2803 32.576 82.9843 32.592 83.6243 32.592C84.8723 32.592 86.0243 32.512 87.0803 32.352C88.1683 32.192 89.0963 31.92 89.8643 31.536C90.6643 31.12 91.2883 30.576 91.7363 29.904C92.2163 29.232 92.4563 28.368 92.4563 27.312C92.4563 25.424 91.7683 24.112 90.3923 23.376C89.0163 22.64 87.1123 22.272 84.6803 22.272H79.3523ZM79.3523 17.52H83.6243C85.9283 17.52 87.7363 17.2 89.0483 16.56C90.3603 15.888 91.0163 14.704 91.0163 13.008C91.0163 11.408 90.3283 10.272 88.9523 9.60005C87.6083 8.92805 85.8483 8.59205 83.6723 8.59205C82.7443 8.59205 81.9123 8.60805 81.1763 8.64005C80.4723 8.67205 79.8643 8.72005 79.3523 8.78404V17.52ZM121.315 24.624C121.315 22.16 120.819 20.208 119.827 18.768C118.867 17.328 117.331 16.608 115.219 16.608C114.259 16.608 113.347 16.752 112.483 17.04C111.651 17.328 110.979 17.648 110.467 18V32.448C110.883 32.544 111.411 32.64 112.051 32.736C112.723 32.8 113.523 32.832 114.451 32.832C116.595 32.832 118.275 32.112 119.491 30.672C120.707 29.2 121.315 27.184 121.315 24.624ZM127.267 24.72C127.267 26.736 126.963 28.56 126.355 30.192C125.779 31.792 124.931 33.168 123.811 34.32C122.723 35.472 121.395 36.352 119.827 36.96C118.259 37.568 116.483 37.872 114.499 37.872C112.579 37.872 110.739 37.728 108.979 37.44C107.251 37.152 105.811 36.832 104.659 36.48V0.960045L110.467 4.57764e-05V13.008C111.139 12.656 111.955 12.336 112.915 12.048C113.907 11.76 114.995 11.616 116.179 11.616C117.939 11.616 119.507 11.936 120.883 12.576C122.291 13.184 123.459 14.064 124.387 15.216C125.315 16.368 126.019 17.76 126.499 19.392C127.011 20.992 127.267 22.768 127.267 24.72ZM159.528 37.968C157.032 37.968 154.792 37.584 152.808 36.816C150.824 36.048 149.144 34.928 147.768 33.456C146.392 31.952 145.336 30.128 144.6 27.984C143.864 25.84 143.496 23.376 143.496 20.592C143.496 17.808 143.912 15.344 144.744 13.2C145.608 11.056 146.776 9.24805 148.248 7.77605C149.72 6.27205 151.448 5.13605 153.432 4.36804C155.416 3.60004 157.544 3.21604 159.816 3.21604C161.192 3.21604 162.44 3.32804 163.56 3.55205C164.68 3.74405 165.656 3.96805 166.488 4.22405C167.32 4.48005 168.008 4.75205 168.552 5.04005C169.096 5.32804 169.48 5.53604 169.704 5.66404L167.928 10.608C167.16 10.128 166.056 9.68005 164.616 9.26405C163.208 8.81605 161.672 8.59205 160.008 8.59205C158.568 8.59205 157.224 8.84805 155.976 9.36005C154.728 9.84004 153.64 10.576 152.712 11.568C151.816 12.56 151.112 13.808 150.6 15.312C150.088 16.816 149.832 18.56 149.832 20.544C149.832 22.304 150.024 23.92 150.408 25.392C150.824 26.864 151.448 28.144 152.28 29.232C153.112 30.288 154.168 31.12 155.448 31.728C156.728 32.304 158.264 32.592 160.056 32.592C162.2 32.592 163.944 32.384 165.288 31.968C166.632 31.52 167.672 31.104 168.408 30.72L170.04 35.664C169.656 35.92 169.128 36.176 168.456 36.432C167.816 36.688 167.048 36.944 166.152 37.2C165.256 37.424 164.248 37.6 163.128 37.728C162.008 37.888 160.808 37.968 159.528 37.968ZM173.064 24.72C173.064 22.864 173.352 21.136 173.928 19.536C174.504 17.904 175.32 16.496 176.376 15.312C177.464 14.128 178.776 13.2 180.312 12.528C181.848 11.856 183.576 11.52 185.496 11.52C187.864 11.52 190.104 11.952 192.216 12.816L190.968 17.568C190.296 17.28 189.528 17.04 188.664 16.848C187.832 16.656 186.936 16.56 185.976 16.56C183.704 16.56 181.976 17.28 180.792 18.72C179.608 20.128 179.016 22.128 179.016 24.72C179.016 27.216 179.576 29.2 180.696 30.672C181.816 32.112 183.704 32.832 186.36 32.832C187.352 32.832 188.328 32.736 189.288 32.544C190.248 32.352 191.08 32.112 191.784 31.824L192.6 36.624C191.96 36.944 190.984 37.232 189.672 37.488C188.392 37.744 187.064 37.872 185.688 37.872C183.544 37.872 181.672 37.552 180.072 36.912C178.504 36.24 177.192 35.328 176.136 34.176C175.112 32.992 174.344 31.6 173.832 30C173.32 28.368 173.064 26.608 173.064 24.72ZM214.636 32.256C214.988 32.288 215.452 32.32 216.028 32.352C216.604 32.352 217.388 32.352 218.38 32.352C222.444 32.352 225.468 31.328 227.452 29.28C229.468 27.2 230.476 24.304 230.476 20.592C230.476 16.816 229.5 13.92 227.548 11.904C225.596 9.88805 222.572 8.88005 218.476 8.88005C216.684 8.88005 215.404 8.92805 214.636 9.02405V32.256ZM236.812 20.592C236.812 23.472 236.364 25.984 235.468 28.128C234.572 30.24 233.292 32.016 231.628 33.456C229.996 34.864 228.012 35.92 225.676 36.624C223.372 37.296 220.812 37.632 217.996 37.632C216.652 37.632 215.132 37.568 213.436 37.44C211.74 37.344 210.124 37.12 208.588 36.768V4.46405C210.124 4.11205 211.756 3.88805 213.484 3.79205C215.212 3.69604 216.748 3.64804 218.092 3.64804C220.876 3.64804 223.42 3.98405 225.724 4.65605C228.028 5.29605 229.996 6.32005 231.628 7.72805C233.292 9.10405 234.572 10.864 235.468 13.008C236.364 15.12 236.812 17.648 236.812 20.592ZM247.688 24.624C247.688 27.184 248.296 29.2 249.512 30.672C250.728 32.112 252.408 32.832 254.552 32.832C255.48 32.832 256.264 32.8 256.904 32.736C257.576 32.64 258.12 32.544 258.536 32.448V18.048C258.024 17.696 257.336 17.376 256.472 17.088C255.64 16.768 254.744 16.608 253.784 16.608C251.672 16.608 250.12 17.328 249.128 18.768C248.168 20.208 247.688 22.16 247.688 24.624ZM264.344 36.48C263.192 36.832 261.736 37.152 259.976 37.44C258.248 37.728 256.424 37.872 254.504 37.872C252.52 37.872 250.744 37.568 249.176 36.96C247.608 36.352 246.264 35.488 245.144 34.368C244.056 33.216 243.208 31.84 242.6 30.24C242.024 28.608 241.736 26.784 241.736 24.768C241.736 22.784 241.976 20.992 242.456 19.392C242.968 17.76 243.704 16.368 244.664 15.216C245.624 14.064 246.792 13.184 248.168 12.576C249.544 11.936 251.128 11.616 252.92 11.616C254.136 11.616 255.208 11.76 256.136 12.048C257.064 12.336 257.864 12.656 258.536 13.008V0.960045L264.344 4.57764e-05V36.48ZM283.213 37.248V3.98405H304.573V9.12005H289.261V17.328H302.893V22.368H289.261V32.112H305.725V37.248H283.213ZM309.002 24.816C309.002 22.608 309.322 20.672 309.962 19.008C310.634 17.344 311.514 15.968 312.602 14.88C313.69 13.76 314.938 12.928 316.346 12.384C317.754 11.808 319.194 11.52 320.666 11.52C324.122 11.52 326.81 12.592 328.73 14.736C330.682 16.88 331.658 20.08 331.658 24.336C331.658 24.656 331.642 25.024 331.61 25.44C331.61 25.824 331.594 26.176 331.562 26.496H315.002C315.162 28.512 315.866 30.08 317.114 31.2C318.394 32.288 320.234 32.832 322.634 32.832C324.042 32.832 325.322 32.704 326.474 32.448C327.658 32.192 328.586 31.92 329.258 31.632L330.026 36.384C329.706 36.544 329.258 36.72 328.682 36.912C328.138 37.072 327.498 37.216 326.762 37.344C326.058 37.504 325.29 37.632 324.458 37.728C323.626 37.824 322.778 37.872 321.914 37.872C319.706 37.872 317.786 37.552 316.154 36.912C314.522 36.24 313.178 35.328 312.122 34.176C311.066 32.992 310.282 31.616 309.77 30.048C309.258 28.448 309.002 26.704 309.002 24.816ZM325.85 22.224C325.85 21.424 325.738 20.672 325.514 19.968C325.29 19.232 324.954 18.608 324.506 18.096C324.09 17.552 323.562 17.136 322.922 16.848C322.314 16.528 321.578 16.368 320.714 16.368C319.818 16.368 319.034 16.544 318.362 16.896C317.69 17.216 317.114 17.648 316.634 18.192C316.186 18.736 315.834 19.36 315.578 20.064C315.322 20.768 315.146 21.488 315.05 22.224H325.85ZM349.307 37.248V3.98405H370.331V9.12005H355.355V17.616H368.651V22.752H355.355V37.248H349.307ZM385.68 4.57764e-05C387.024 4.57764e-05 388.208 0.128046 389.232 0.384047C390.256 0.608046 391.024 0.816045 391.536 1.00804L390.432 5.80805C389.888 5.55204 389.248 5.34404 388.512 5.18404C387.808 5.02404 387.04 4.94405 386.208 4.94405C385.28 4.94405 384.496 5.08805 383.856 5.37605C383.216 5.63205 382.704 6.00005 382.32 6.48005C381.936 6.96004 381.664 7.55204 381.504 8.25605C381.344 8.92805 381.264 9.66405 381.264 10.464V12.144H390.384V16.992H381.264V37.248H375.456V10.368C375.456 7.13605 376.304 4.60805 378 2.78404C379.696 0.928045 382.256 4.57764e-05 385.68 4.57764e-05ZM421.718 8.54404C418.294 8.54404 415.67 9.61604 413.846 11.76C412.054 13.872 411.158 16.816 411.158 20.592C411.158 22.384 411.366 24.032 411.782 25.536C412.23 27.008 412.87 28.272 413.702 29.328C414.566 30.384 415.622 31.216 416.87 31.824C418.15 32.4 419.638 32.688 421.334 32.688C422.39 32.688 423.302 32.656 424.07 32.592C424.838 32.496 425.446 32.384 425.894 32.256V20.304H431.942V36.288C431.11 36.608 429.702 36.96 427.718 37.344C425.734 37.728 423.446 37.92 420.854 37.92C418.454 37.92 416.262 37.536 414.278 36.768C412.294 36 410.598 34.88 409.19 33.408C407.814 31.936 406.742 30.128 405.974 27.984C405.206 25.84 404.822 23.376 404.822 20.592C404.822 17.808 405.238 15.344 406.07 13.2C406.934 11.056 408.102 9.24805 409.574 7.77605C411.046 6.27205 412.774 5.13605 414.758 4.36804C416.742 3.60004 418.854 3.21604 421.094 3.21604C422.63 3.21604 423.99 3.32804 425.174 3.55205C426.39 3.74405 427.43 3.96805 428.294 4.22405C429.158 4.48005 429.862 4.75205 430.406 5.04005C430.982 5.32804 431.382 5.53604 431.606 5.66404L429.782 10.608C428.822 10.032 427.622 9.55205 426.182 9.16805C424.774 8.75204 423.286 8.54404 421.718 8.54404ZM443.204 24.048C443.204 26.512 443.732 28.32 444.788 29.472C445.876 30.592 447.268 31.152 448.964 31.152C449.892 31.152 450.756 31.024 451.556 30.768C452.388 30.512 453.06 30.208 453.572 29.856V16.848C453.156 16.752 452.644 16.672 452.036 16.608C451.428 16.512 450.66 16.464 449.732 16.464C447.62 16.464 446.004 17.168 444.884 18.576C443.764 19.952 443.204 21.776 443.204 24.048ZM459.38 34.704C459.38 38.704 458.356 41.632 456.308 43.488C454.292 45.344 451.188 46.272 446.996 46.272C445.46 46.272 443.956 46.144 442.484 45.888C441.044 45.632 439.732 45.296 438.548 44.88L439.604 39.936C440.596 40.352 441.716 40.688 442.964 40.944C444.244 41.2 445.62 41.328 447.092 41.328C449.428 41.328 451.092 40.848 452.084 39.888C453.076 38.928 453.572 37.504 453.572 35.616V34.656C452.996 34.944 452.228 35.232 451.268 35.52C450.34 35.808 449.268 35.952 448.052 35.952C446.452 35.952 444.98 35.696 443.636 35.184C442.324 34.672 441.188 33.92 440.228 32.928C439.3 31.936 438.564 30.704 438.02 29.232C437.508 27.728 437.252 26 437.252 24.048C437.252 22.224 437.524 20.544 438.068 19.008C438.644 17.472 439.46 16.16 440.516 15.072C441.604 13.984 442.916 13.136 444.452 12.528C445.988 11.92 447.732 11.616 449.684 11.616C451.572 11.616 453.364 11.76 455.06 12.048C456.756 12.336 458.196 12.64 459.38 12.96V34.704ZM498.756 3.98405H504.804V37.248H498.756V22.512H484.308V37.248H478.26V3.98405H484.308V17.28H498.756V3.98405ZM512.472 37.248V0.960045L518.28 4.57764e-05V12.432C518.92 12.208 519.656 12.016 520.488 11.856C521.352 11.696 522.2 11.616 523.032 11.616C525.048 11.616 526.712 11.904 528.024 12.48C529.368 13.024 530.44 13.808 531.24 14.832C532.04 15.824 532.6 17.024 532.92 18.432C533.272 19.84 533.448 21.408 533.448 23.136V37.248H527.64V24.048C527.64 22.704 527.544 21.568 527.352 20.64C527.192 19.68 526.904 18.912 526.488 18.336C526.104 17.728 525.576 17.296 524.904 17.04C524.232 16.752 523.4 16.608 522.408 16.608C521.64 16.608 520.856 16.688 520.056 16.848C519.256 17.008 518.664 17.152 518.28 17.28V37.248H512.472ZM551.9 3.98405H557.948V37.248H551.9V3.98405ZM571.484 37.248H565.676V12.144H571.484V37.248ZM572.108 4.80004C572.108 5.88805 571.756 6.75205 571.052 7.39205C570.348 8.03204 569.516 8.35204 568.556 8.35204C567.564 8.35204 566.716 8.03204 566.012 7.39205C565.308 6.75205 564.956 5.88805 564.956 4.80004C564.956 3.68005 565.308 2.80005 566.012 2.16005C566.716 1.52005 567.564 1.20004 568.556 1.20004C569.516 1.20004 570.348 1.52005 571.052 2.16005C571.756 2.80005 572.108 3.68005 572.108 4.80004ZM607.281 26.304C607.281 27.936 607.105 29.456 606.753 30.864C606.401 32.272 605.777 33.504 604.881 34.56C604.017 35.616 602.833 36.448 601.329 37.056C599.857 37.664 597.985 37.968 595.713 37.968C593.601 37.968 591.761 37.68 590.193 37.104C588.657 36.496 587.473 35.856 586.641 35.184L588.801 30.432C589.601 30.976 590.577 31.504 591.729 32.016C592.913 32.496 594.113 32.736 595.329 32.736C597.377 32.736 598.865 32.224 599.793 31.2C600.721 30.176 601.185 28.416 601.185 25.92V3.98405H607.281V26.304ZM611.49 46.176C611.074 46.176 610.498 46.128 609.762 46.032C608.994 45.968 608.322 45.824 607.746 45.6L608.514 40.848C609.218 41.072 610.066 41.184 611.058 41.184C612.402 41.184 613.346 40.784 613.89 39.984C614.434 39.216 614.706 38.048 614.706 36.48V12.144H620.514V36.576C620.514 39.84 619.73 42.256 618.162 43.824C616.626 45.392 614.402 46.176 611.49 46.176ZM621.138 4.80004C621.138 5.88805 620.786 6.75205 620.082 7.39205C619.378 8.03204 618.546 8.35204 617.586 8.35204C616.594 8.35204 615.746 8.03204 615.042 7.39205C614.338 6.75205 613.986 5.88805 613.986 4.80004C613.986 3.68005 614.338 2.80005 615.042 2.16005C615.746 1.52005 616.594 1.20004 617.586 1.20004C618.546 1.20004 619.378 1.52005 620.082 2.16005C620.786 2.80005 621.138 3.68005 621.138 4.80004ZM23.616 92.248C22.784 90.968 21.824 89.624 20.736 88.216C19.648 86.808 18.496 85.448 17.28 84.136C16.096 82.824 14.864 81.576 13.584 80.392C12.304 79.208 11.04 78.184 9.79201 77.32V92.248H3.74401V58.984H9.79201V72.712C10.848 71.656 11.952 70.536 13.104 69.352C14.256 68.136 15.392 66.92 16.512 65.704C17.664 64.456 18.752 63.256 19.776 62.104C20.8 60.952 21.728 59.912 22.56 58.984H29.808C28.752 60.2 27.632 61.464 26.448 62.776C25.264 64.088 24.048 65.416 22.8 66.76C21.552 68.072 20.288 69.384 19.008 70.696C17.76 72.008 16.528 73.256 15.312 74.44C16.656 75.464 18.016 76.664 19.392 78.04C20.8 79.384 22.176 80.84 23.52 82.408C24.864 83.944 26.144 85.56 27.36 87.256C28.608 88.92 29.744 90.584 30.768 92.248H23.616ZM40.5296 76.936C41.2656 76.168 42.0496 75.352 42.8816 74.488C43.7136 73.592 44.5296 72.712 45.3296 71.848C46.1296 70.952 46.8816 70.104 47.5856 69.304C48.3216 68.472 48.9456 67.752 49.4576 67.144H56.3216C54.7216 68.936 53.0256 70.792 51.2336 72.712C49.4736 74.632 47.6976 76.504 45.9056 78.328C46.8656 79.128 47.8736 80.104 48.9296 81.256C49.9856 82.376 51.0096 83.576 52.0016 84.856C52.9936 86.136 53.9216 87.416 54.7856 88.696C55.6496 89.976 56.3696 91.16 56.9456 92.248H50.2256C49.6496 91.256 48.9776 90.216 48.2096 89.128C47.4736 88.04 46.6736 86.984 45.8096 85.96C44.9456 84.936 44.0656 83.976 43.1696 83.08C42.2736 82.152 41.3936 81.368 40.5296 80.728V92.248H34.7216V55.96L40.5296 55V76.936ZM93.6743 87.016V92.248H72.6503V58.984H78.6983V87.016H93.6743ZM106.739 92.728C105.011 92.696 103.571 92.504 102.419 92.152C101.299 91.8 100.403 91.304 99.7309 90.664C99.0589 89.992 98.5789 89.176 98.2909 88.216C98.0349 87.224 97.9069 86.104 97.9069 84.856V55.96L103.715 55V83.752C103.715 84.456 103.763 85.048 103.859 85.528C103.987 86.008 104.195 86.424 104.483 86.776C104.771 87.096 105.155 87.352 105.635 87.544C106.147 87.704 106.787 87.832 107.555 87.928L106.739 92.728ZM130.992 58.984C131.696 60.2 132.48 61.688 133.344 63.448C134.208 65.208 135.088 67.064 135.984 69.016C136.88 70.936 137.76 72.904 138.624 74.92C139.52 76.904 140.336 78.744 141.072 80.44C141.808 78.744 142.608 76.904 143.472 74.92C144.336 72.904 145.216 70.936 146.112 69.016C147.008 67.064 147.888 65.208 148.752 63.448C149.616 61.688 150.4 60.2 151.104 58.984H156.576C156.864 61.416 157.136 64.008 157.392 66.76C157.648 69.48 157.872 72.28 158.064 75.16C158.288 78.008 158.48 80.888 158.64 83.8C158.832 86.68 158.992 89.496 159.12 92.248H153.168C153.04 88.376 152.88 84.392 152.688 80.296C152.528 76.2 152.272 72.232 151.92 68.392C151.568 69.128 151.152 70.008 150.672 71.032C150.192 72.056 149.68 73.176 149.136 74.392C148.592 75.576 148.032 76.808 147.456 78.088C146.912 79.368 146.368 80.616 145.824 81.832C145.312 83.016 144.832 84.136 144.384 85.192C143.936 86.216 143.552 87.096 143.232 87.832H138.72C138.4 87.096 138.016 86.2 137.568 85.144C137.12 84.088 136.624 82.968 136.08 81.784C135.568 80.568 135.024 79.32 134.448 78.04C133.904 76.76 133.36 75.528 132.816 74.344C132.272 73.16 131.76 72.056 131.28 71.032C130.8 69.976 130.384 69.096 130.032 68.392C129.68 72.232 129.408 76.2 129.216 80.296C129.056 84.392 128.912 88.376 128.784 92.248H122.832C122.96 89.496 123.104 86.648 123.264 83.704C123.456 80.76 123.648 77.848 123.84 74.968C124.064 72.056 124.304 69.24 124.56 66.52C124.816 63.8 125.088 61.288 125.376 58.984H130.992ZM180.182 79.048C180.182 76.424 179.846 74.536 179.174 73.384C178.534 72.2 177.318 71.608 175.526 71.608C174.886 71.608 174.182 71.656 173.414 71.752C172.646 71.848 172.07 71.928 171.686 71.992V92.248H165.878V67.96C166.998 67.64 168.454 67.336 170.246 67.048C172.07 66.76 173.99 66.616 176.006 66.616C177.734 66.616 179.142 66.84 180.23 67.288C181.35 67.736 182.278 68.328 183.014 69.064C183.366 68.808 183.814 68.536 184.358 68.248C184.902 67.96 185.51 67.704 186.182 67.48C186.854 67.224 187.558 67.016 188.294 66.856C189.062 66.696 189.83 66.616 190.598 66.616C192.55 66.616 194.15 66.904 195.398 67.48C196.678 68.024 197.67 68.808 198.374 69.832C199.11 70.824 199.606 72.04 199.862 73.48C200.15 74.888 200.294 76.44 200.294 78.136V92.248H194.486V79.048C194.486 76.424 194.166 74.536 193.526 73.384C192.886 72.2 191.654 71.608 189.83 71.608C188.902 71.608 188.022 71.768 187.19 72.088C186.358 72.376 185.734 72.664 185.318 72.952C185.574 73.752 185.75 74.6 185.846 75.496C185.942 76.392 185.99 77.352 185.99 78.376V92.248H180.182V79.048ZM241.316 92.248C240.228 90.424 239.012 88.472 237.668 86.392C236.324 84.28 234.932 82.168 233.492 80.056C232.052 77.912 230.58 75.848 229.076 73.864C227.604 71.848 226.196 70.04 224.852 68.44V92.248H218.9V58.984H223.844C225.124 60.328 226.5 61.928 227.972 63.784C229.444 65.608 230.916 67.512 232.388 69.496C233.892 71.48 235.332 73.48 236.708 75.496C238.116 77.48 239.364 79.336 240.452 81.064V58.984H246.452V92.248H241.316ZM254.144 67.96C255.264 67.64 256.72 67.336 258.512 67.048C260.304 66.76 262.288 66.616 264.464 66.616C266.512 66.616 268.224 66.904 269.6 67.48C270.976 68.024 272.064 68.808 272.864 69.832C273.696 70.824 274.272 72.04 274.592 73.48C274.944 74.888 275.12 76.44 275.12 78.136V92.248H269.312V79.048C269.312 77.704 269.216 76.568 269.024 75.64C268.864 74.68 268.576 73.912 268.16 73.336C267.776 72.728 267.232 72.296 266.528 72.04C265.856 71.752 265.024 71.608 264.032 71.608C263.296 71.608 262.528 71.656 261.728 71.752C260.928 71.848 260.336 71.928 259.952 71.992V92.248H254.144V67.96ZM298.657 75.592C298.657 77.416 298.881 79.08 299.329 80.584C299.777 82.056 300.417 83.32 301.249 84.376C302.113 85.4 303.153 86.2 304.369 86.776C305.585 87.352 306.961 87.64 308.497 87.64C310.001 87.64 311.361 87.352 312.577 86.776C313.793 86.2 314.817 85.4 315.649 84.376C316.513 83.32 317.169 82.056 317.617 80.584C318.065 79.08 318.289 77.416 318.289 75.592C318.289 73.768 318.065 72.12 317.617 70.648C317.169 69.144 316.513 67.88 315.649 66.856C314.817 65.8 313.793 64.984 312.577 64.408C311.361 63.832 310.001 63.544 308.497 63.544C306.961 63.544 305.585 63.832 304.369 64.408C303.153 64.984 302.113 65.8 301.249 66.856C300.417 67.912 299.777 69.176 299.329 70.648C298.881 72.12 298.657 73.768 298.657 75.592ZM324.625 75.592C324.625 78.44 324.193 80.952 323.329 83.128C322.497 85.304 321.345 87.128 319.873 88.6C318.433 90.04 316.737 91.128 314.785 91.864C312.833 92.6 310.753 92.968 308.545 92.968C306.337 92.968 304.241 92.6 302.257 91.864C300.305 91.128 298.593 90.04 297.121 88.6C295.681 87.128 294.529 85.304 293.665 83.128C292.801 80.952 292.369 78.44 292.369 75.592C292.369 72.744 292.801 70.248 293.665 68.104C294.529 65.928 295.697 64.104 297.169 62.632C298.673 61.16 300.401 60.056 302.353 59.32C304.305 58.584 306.369 58.216 308.545 58.216C310.721 58.216 312.785 58.584 314.737 59.32C316.689 60.056 318.385 61.16 319.825 62.632C321.297 64.104 322.465 65.928 323.329 68.104C324.193 70.248 324.625 72.744 324.625 75.592ZM353.676 79.672C353.676 81.656 353.388 83.464 352.812 85.096C352.236 86.728 351.42 88.12 350.364 89.272C349.308 90.424 348.028 91.32 346.524 91.96C345.052 92.6 343.42 92.92 341.628 92.92C339.836 92.92 338.204 92.6 336.732 91.96C335.26 91.32 333.996 90.424 332.94 89.272C331.884 88.12 331.052 86.728 330.444 85.096C329.868 83.464 329.58 81.656 329.58 79.672C329.58 77.688 329.868 75.896 330.444 74.296C331.052 72.664 331.884 71.272 332.94 70.12C334.028 68.968 335.308 68.088 336.78 67.48C338.252 66.84 339.868 66.52 341.628 66.52C343.388 66.52 345.004 66.84 346.476 67.48C347.98 68.088 349.26 68.968 350.316 70.12C351.372 71.272 352.188 72.664 352.764 74.296C353.372 75.896 353.676 77.688 353.676 79.672ZM347.724 79.672C347.724 77.176 347.18 75.208 346.092 73.768C345.036 72.296 343.548 71.56 341.628 71.56C339.708 71.56 338.204 72.296 337.116 73.768C336.06 75.208 335.532 77.176 335.532 79.672C335.532 82.2 336.06 84.2 337.116 85.672C338.204 87.144 339.708 87.88 341.628 87.88C343.548 87.88 345.036 87.144 346.092 85.672C347.18 84.2 347.724 82.2 347.724 79.672ZM380.558 58.648C385.39 58.648 389.086 59.528 391.646 61.288C394.238 63.048 395.534 65.8 395.534 69.544C395.534 71.496 395.182 73.176 394.478 74.584C393.806 75.96 392.814 77.096 391.502 77.992C390.19 78.856 388.59 79.496 386.702 79.912C384.814 80.328 382.654 80.536 380.222 80.536H377.198V92.248H371.15V59.464C372.558 59.144 374.11 58.936 375.806 58.84C377.534 58.712 379.118 58.648 380.558 58.648ZM380.99 63.88C379.454 63.88 378.19 63.928 377.198 64.024V75.352H380.126C383.038 75.352 385.278 74.952 386.846 74.152C388.414 73.32 389.198 71.768 389.198 69.496C389.198 68.408 388.99 67.496 388.574 66.76C388.158 66.024 387.582 65.448 386.846 65.032C386.11 64.616 385.23 64.328 384.206 64.168C383.214 63.976 382.142 63.88 380.99 63.88ZM417.425 79.816C417.425 77.224 416.833 75.208 415.649 73.768C414.497 72.328 412.625 71.608 410.033 71.608C409.489 71.608 408.913 71.64 408.305 71.704C407.729 71.736 407.153 71.832 406.577 71.992V86.344C407.089 86.696 407.761 87.032 408.593 87.352C409.457 87.64 410.369 87.784 411.329 87.784C413.441 87.784 414.977 87.064 415.937 85.624C416.929 84.184 417.425 82.248 417.425 79.816ZM423.377 79.72C423.377 81.64 423.121 83.4 422.609 85C422.129 86.6 421.425 87.976 420.497 89.128C419.569 90.28 418.401 91.176 416.993 91.816C415.617 92.456 414.049 92.776 412.289 92.776C411.105 92.776 410.017 92.632 409.025 92.344C408.033 92.056 407.217 91.736 406.577 91.384V101.128H400.769V67.96C401.953 67.64 403.409 67.336 405.137 67.048C406.865 66.76 408.689 66.616 410.609 66.616C412.593 66.616 414.369 66.92 415.937 67.528C417.505 68.136 418.833 69.016 419.921 70.168C421.041 71.288 421.889 72.664 422.465 74.296C423.073 75.896 423.377 77.704 423.377 79.72ZM445.797 75.592C445.797 77.416 446.021 79.08 446.469 80.584C446.917 82.056 447.557 83.32 448.389 84.376C449.253 85.4 450.293 86.2 451.509 86.776C452.725 87.352 454.101 87.64 455.637 87.64C457.141 87.64 458.501 87.352 459.717 86.776C460.933 86.2 461.957 85.4 462.789 84.376C463.653 83.32 464.309 82.056 464.757 80.584C465.205 79.08 465.429 77.416 465.429 75.592C465.429 73.768 465.205 72.12 464.757 70.648C464.309 69.144 463.653 67.88 462.789 66.856C461.957 65.8 460.933 64.984 459.717 64.408C458.501 63.832 457.141 63.544 455.637 63.544C454.101 63.544 452.725 63.832 451.509 64.408C450.293 64.984 449.253 65.8 448.389 66.856C447.557 67.912 446.917 69.176 446.469 70.648C446.021 72.12 445.797 73.768 445.797 75.592ZM471.765 75.592C471.765 77.992 471.461 80.152 470.853 82.072C470.245 83.992 469.397 85.672 468.309 87.112C467.221 88.52 465.941 89.672 464.469 90.568C463.029 91.464 461.445 92.104 459.717 92.488C459.813 93.16 460.149 93.736 460.725 94.216C461.301 94.696 462.021 95.096 462.885 95.416C463.781 95.736 464.789 95.992 465.909 96.184C467.061 96.408 468.261 96.568 469.509 96.664L468.165 101.224C464.037 100.904 460.757 100.104 458.325 98.824C455.893 97.576 454.341 95.576 453.669 92.824C451.685 92.632 449.829 92.12 448.101 91.288C446.405 90.456 444.917 89.32 443.637 87.88C442.357 86.44 441.349 84.696 440.613 82.648C439.877 80.6 439.509 78.248 439.509 75.592C439.509 72.744 439.941 70.248 440.805 68.104C441.669 65.928 442.837 64.104 444.309 62.632C445.813 61.16 447.541 60.056 449.493 59.32C451.445 58.584 453.509 58.216 455.685 58.216C457.861 58.216 459.925 58.584 461.877 59.32C463.829 60.056 465.525 61.16 466.965 62.632C468.437 64.104 469.605 65.928 470.469 68.104C471.333 70.248 471.765 72.744 471.765 75.592ZM482.672 79.816C482.672 82.248 483.152 84.184 484.112 85.624C485.104 87.064 486.656 87.784 488.768 87.784C489.728 87.784 490.624 87.64 491.456 87.352C492.32 87.032 493.008 86.696 493.52 86.344V71.992C493.104 71.896 492.576 71.816 491.936 71.752C491.328 71.656 490.528 71.608 489.536 71.608C487.392 71.608 485.712 72.344 484.496 73.816C483.28 75.256 482.672 77.256 482.672 79.816ZM476.72 79.72C476.72 77.736 477.008 75.944 477.584 74.344C478.192 72.712 479.04 71.336 480.128 70.216C481.248 69.064 482.592 68.184 484.16 67.576C485.728 66.936 487.504 66.616 489.488 66.616C491.472 66.616 493.328 66.76 495.056 67.048C496.784 67.336 498.208 67.64 499.328 67.96V101.128H493.52V91.384C492.848 91.736 492.016 92.056 491.024 92.344C490.064 92.632 488.992 92.776 487.808 92.776C486.016 92.776 484.432 92.472 483.056 91.864C481.68 91.224 480.528 90.328 479.6 89.176C478.672 88.024 477.952 86.648 477.44 85.048C476.96 83.448 476.72 81.672 476.72 79.72ZM527.365 58.648C532.165 58.648 535.829 59.528 538.357 61.288C540.917 63.048 542.197 65.736 542.197 69.352C542.197 73.864 539.973 76.92 535.525 78.52C536.133 79.256 536.821 80.152 537.589 81.208C538.357 82.264 539.141 83.416 539.941 84.664C540.741 85.88 541.509 87.144 542.245 88.456C542.981 89.736 543.637 91 544.213 92.248H537.445C536.837 91.096 536.181 89.944 535.477 88.792C534.773 87.608 534.053 86.472 533.317 85.384C532.613 84.264 531.909 83.224 531.205 82.264C530.501 81.272 529.845 80.392 529.237 79.624C528.789 79.656 528.405 79.672 528.085 79.672C527.765 79.672 527.461 79.672 527.173 79.672H524.245V92.248H518.197V59.464C519.669 59.144 521.237 58.936 522.901 58.84C524.565 58.712 526.053 58.648 527.365 58.648ZM527.797 63.88C526.517 63.88 525.333 63.928 524.245 64.024V74.776H526.885C528.357 74.776 529.653 74.696 530.773 74.536C531.893 74.376 532.821 74.088 533.557 73.672C534.325 73.256 534.901 72.696 535.285 71.992C535.669 71.288 535.861 70.392 535.861 69.304C535.861 68.28 535.669 67.416 535.285 66.712C534.901 66.008 534.341 65.448 533.605 65.032C532.901 64.616 532.053 64.328 531.061 64.168C530.069 63.976 528.981 63.88 527.797 63.88ZM562.916 72.376C562.436 72.216 561.764 72.056 560.9 71.896C560.068 71.704 559.092 71.608 557.972 71.608C557.332 71.608 556.644 71.672 555.908 71.8C555.204 71.928 554.708 72.04 554.42 72.136V92.248H548.612V68.344C549.732 67.928 551.124 67.544 552.788 67.192C554.484 66.808 556.356 66.616 558.404 66.616C558.788 66.616 559.236 66.648 559.748 66.712C560.26 66.744 560.772 66.808 561.284 66.904C561.796 66.968 562.292 67.064 562.772 67.192C563.252 67.288 563.636 67.384 563.924 67.48L562.916 72.376ZM587.527 87.736C589.703 87.736 591.287 87.368 592.279 86.632C593.271 85.896 593.767 84.856 593.767 83.512C593.767 82.712 593.591 82.024 593.239 81.448C592.919 80.872 592.439 80.36 591.799 79.912C591.191 79.432 590.439 79 589.543 78.616C588.647 78.2 587.623 77.8 586.471 77.416C585.319 77 584.199 76.552 583.111 76.072C582.055 75.56 581.111 74.936 580.279 74.2C579.479 73.464 578.823 72.584 578.311 71.56C577.831 70.536 577.591 69.304 577.591 67.864C577.591 64.856 578.631 62.504 580.711 60.808C582.791 59.08 585.623 58.216 589.207 58.216C591.287 58.216 593.127 58.456 594.727 58.936C596.359 59.384 597.639 59.88 598.567 60.424L596.695 65.32C595.607 64.712 594.407 64.248 593.095 63.928C591.815 63.608 590.487 63.448 589.111 63.448C587.479 63.448 586.199 63.784 585.271 64.456C584.375 65.128 583.927 66.072 583.927 67.288C583.927 68.024 584.071 68.664 584.359 69.208C584.679 69.72 585.111 70.184 585.655 70.6C586.231 71.016 586.887 71.4 587.623 71.752C588.391 72.104 589.223 72.44 590.119 72.76C591.687 73.336 593.079 73.928 594.295 74.536C595.543 75.112 596.583 75.816 597.415 76.648C598.279 77.448 598.935 78.408 599.383 79.528C599.831 80.616 600.055 81.944 600.055 83.512C600.055 86.52 598.983 88.856 596.839 90.52C594.727 92.152 591.623 92.968 587.527 92.968C586.151 92.968 584.887 92.872 583.735 92.68C582.615 92.52 581.607 92.312 580.711 92.056C579.847 91.8 579.095 91.544 578.455 91.288C577.815 91 577.303 90.744 576.919 90.52L578.695 85.576C579.559 86.056 580.727 86.536 582.199 87.016C583.671 87.496 585.447 87.736 587.527 87.736ZM611.385 88.072C612.921 88.072 614.041 87.896 614.745 87.544C615.449 87.16 615.801 86.52 615.801 85.624C615.801 84.792 615.417 84.104 614.649 83.56C613.913 83.016 612.681 82.424 610.953 81.784C609.897 81.4 608.921 81 608.025 80.584C607.161 80.136 606.409 79.624 605.769 79.048C605.129 78.472 604.617 77.784 604.233 76.984C603.881 76.152 603.705 75.144 603.705 73.96C603.705 71.656 604.553 69.848 606.249 68.536C607.945 67.192 610.249 66.52 613.161 66.52C614.633 66.52 616.041 66.664 617.385 66.952C618.729 67.208 619.737 67.464 620.409 67.72L619.353 72.424C618.713 72.136 617.897 71.88 616.905 71.656C615.913 71.4 614.761 71.272 613.449 71.272C612.265 71.272 611.305 71.48 610.569 71.896C609.833 72.28 609.465 72.888 609.465 73.72C609.465 74.136 609.529 74.504 609.657 74.824C609.817 75.144 610.073 75.448 610.425 75.736C610.777 75.992 611.241 76.264 611.817 76.552C612.393 76.808 613.097 77.08 613.929 77.368C615.305 77.88 616.473 78.392 617.433 78.904C618.393 79.384 619.177 79.944 619.785 80.584C620.425 81.192 620.889 81.896 621.177 82.696C621.465 83.496 621.609 84.456 621.609 85.576C621.609 87.976 620.713 89.8 618.921 91.048C617.161 92.264 614.633 92.872 611.337 92.872C609.129 92.872 607.353 92.68 606.009 92.296C604.665 91.944 603.721 91.656 603.177 91.432L604.185 86.584C605.049 86.936 606.073 87.272 607.257 87.592C608.473 87.912 609.849 88.072 611.385 88.072ZM26.928 113.984V119.216H16.704V147.248H10.608V119.216H0.38401V113.984H26.928ZM30.9649 115.52L36.7729 114.56V122.144H45.7009V126.992H36.7729V137.216C36.7729 139.232 37.0929 140.672 37.7329 141.536C38.3729 142.4 39.4609 142.832 40.9969 142.832C42.0529 142.832 42.9809 142.72 43.7809 142.496C44.6129 142.272 45.2689 142.064 45.7489 141.872L46.7089 146.48C46.0369 146.768 45.1569 147.056 44.0689 147.344C42.9809 147.664 41.7009 147.824 40.2289 147.824C38.4369 147.824 36.9329 147.584 35.7169 147.104C34.5329 146.624 33.5889 145.936 32.8849 145.04C32.1809 144.112 31.6849 143.008 31.3969 141.728C31.1089 140.416 30.9649 138.928 30.9649 137.264V115.52ZM75.6225 147.968C73.3505 147.968 71.3985 147.648 69.7665 147.008C68.1345 146.336 66.7745 145.408 65.6865 144.224C64.6305 143.04 63.8465 141.648 63.3345 140.048C62.8225 138.448 62.5665 136.688 62.5665 134.768V113.984H68.6625V134.192C68.6625 135.696 68.8225 136.992 69.1425 138.08C69.4945 139.136 69.9745 140 70.5825 140.672C71.2225 141.344 71.9585 141.84 72.7905 142.16C73.6545 142.48 74.6145 142.64 75.6705 142.64C76.7265 142.64 77.6865 142.48 78.5505 142.16C79.4145 141.84 80.1505 141.344 80.7585 140.672C81.3985 140 81.8785 139.136 82.1985 138.08C82.5505 136.992 82.7265 135.696 82.7265 134.192V113.984H88.8225V134.768C88.8225 136.688 88.5505 138.448 88.0065 140.048C87.4945 141.648 86.6945 143.04 85.6065 144.224C84.5505 145.408 83.1905 146.336 81.5265 147.008C79.8625 147.648 77.8945 147.968 75.6225 147.968ZM116.861 146.48C115.741 146.768 114.285 147.056 112.493 147.344C110.701 147.664 108.733 147.824 106.589 147.824C104.573 147.824 102.877 147.536 101.501 146.96C100.157 146.384 99.0685 145.584 98.2365 144.56C97.4365 143.536 96.8605 142.32 96.5085 140.912C96.1565 139.472 95.9805 137.904 95.9805 136.208V122.144H101.789V135.296C101.789 137.984 102.173 139.904 102.941 141.056C103.741 142.208 105.117 142.784 107.069 142.784C107.773 142.784 108.509 142.752 109.277 142.688C110.077 142.624 110.669 142.544 111.053 142.448V122.144H116.861V146.48ZM145.248 147.248C142.848 142.064 140.528 136.64 138.288 130.976C136.08 125.312 134.016 119.648 132.096 113.984H138.768C139.536 116.224 140.32 118.512 141.12 120.848C141.92 123.184 142.72 125.488 143.52 127.76C144.32 130 145.12 132.176 145.92 134.288C146.72 136.4 147.504 138.336 148.272 140.096C149.008 138.336 149.776 136.416 150.576 134.336C151.376 132.224 152.176 130.032 152.976 127.76C153.808 125.488 154.624 123.184 155.424 120.848C156.224 118.512 156.992 116.224 157.728 113.984H164.208C162.256 119.648 160.176 125.312 157.968 130.976C155.76 136.64 153.456 142.064 151.056 147.248H145.248ZM174.654 147.248C173.054 143.952 171.406 140.176 169.71 135.92C168.046 131.632 166.526 127.04 165.15 122.144H171.342C171.694 123.552 172.094 125.072 172.542 126.704C173.022 128.304 173.518 129.92 174.03 131.552C174.574 133.152 175.118 134.72 175.662 136.256C176.238 137.76 176.766 139.12 177.246 140.336C177.726 139.12 178.238 137.76 178.782 136.256C179.326 134.72 179.854 133.152 180.366 131.552C180.91 129.92 181.422 128.304 181.902 126.704C182.382 125.072 182.798 123.552 183.15 122.144H189.15C187.774 127.04 186.238 131.632 184.542 135.92C182.878 140.176 181.246 143.952 179.646 147.248H174.654ZM226.29 117.728C226.802 119.456 227.346 121.264 227.922 123.152C228.498 125.008 229.09 126.88 229.698 128.768C230.338 130.624 230.962 132.464 231.57 134.288C232.21 136.08 232.818 137.776 233.394 139.376C233.874 137.648 234.338 135.776 234.786 133.76C235.234 131.712 235.682 129.6 236.13 127.424C236.578 125.216 237.01 122.976 237.426 120.704C237.874 118.432 238.29 116.192 238.674 113.984H244.914C243.794 120 242.546 125.792 241.17 131.36C239.794 136.896 238.258 142.192 236.562 147.248H230.802C228.306 140.784 225.89 133.728 223.554 126.08C222.37 129.952 221.17 133.632 219.954 137.12C218.738 140.608 217.522 143.984 216.306 147.248H210.546C208.818 142.192 207.266 136.896 205.89 131.36C204.546 125.792 203.314 120 202.194 113.984H208.674C209.058 116.16 209.458 118.384 209.874 120.656C210.322 122.928 210.77 125.168 211.218 127.376C211.698 129.552 212.178 131.664 212.658 133.712C213.138 135.76 213.618 137.648 214.098 139.376C214.706 137.744 215.314 136.032 215.922 134.24C216.562 132.416 217.186 130.576 217.794 128.72C218.402 126.832 218.978 124.96 219.522 123.104C220.098 121.248 220.626 119.456 221.106 117.728H226.29ZM271.806 117.728C272.318 119.456 272.862 121.264 273.438 123.152C274.014 125.008 274.606 126.88 275.214 128.768C275.854 130.624 276.478 132.464 277.086 134.288C277.726 136.08 278.334 137.776 278.91 139.376C279.39 137.648 279.854 135.776 280.302 133.76C280.75 131.712 281.198 129.6 281.646 127.424C282.094 125.216 282.526 122.976 282.942 120.704C283.39 118.432 283.806 116.192 284.19 113.984H290.43C289.31 120 288.062 125.792 286.686 131.36C285.31 136.896 283.774 142.192 282.078 147.248H276.318C273.822 140.784 271.406 133.728 269.07 126.08C267.886 129.952 266.686 133.632 265.47 137.12C264.254 140.608 263.038 143.984 261.822 147.248H256.062C254.334 142.192 252.782 136.896 251.406 131.36C250.062 125.792 248.83 120 247.71 113.984H254.19C254.574 116.16 254.974 118.384 255.39 120.656C255.838 122.928 256.286 125.168 256.734 127.376C257.214 129.552 257.694 131.664 258.174 133.712C258.654 135.76 259.134 137.648 259.614 139.376C260.222 137.744 260.83 136.032 261.438 134.24C262.078 132.416 262.702 130.576 263.31 128.72C263.918 126.832 264.494 124.96 265.038 123.104C265.614 121.248 266.142 119.456 266.622 117.728H271.806ZM326.472 147.248C325.544 145.36 324.376 143.28 322.968 141.008C321.56 138.736 320.088 136.544 318.552 134.432C317.912 135.264 317.208 136.256 316.44 137.408C315.704 138.56 314.952 139.744 314.184 140.96C313.448 142.144 312.76 143.296 312.12 144.416C311.48 145.536 310.968 146.48 310.584 147.248H303.72C305.16 144.528 306.824 141.744 308.712 138.896C310.6 136.016 312.648 133.008 314.856 129.872L304.2 113.984H311.4L318.744 125.36L325.992 113.984H332.904L322.392 129.824C324.824 133.12 326.968 136.24 328.824 139.184C330.712 142.128 332.296 144.816 333.576 147.248H326.472ZM347.824 130.352L353.152 122.144H359.248L350.992 134C352.72 136.24 354.368 138.512 355.936 140.816C357.536 143.088 358.848 145.232 359.872 147.248H353.584C353.296 146.64 352.912 145.952 352.432 145.184C351.984 144.384 351.488 143.568 350.944 142.736C350.432 141.872 349.888 141.024 349.312 140.192C348.736 139.36 348.176 138.576 347.632 137.84C346.512 139.28 345.408 140.88 344.32 142.64C343.264 144.368 342.384 145.904 341.68 147.248H335.728C336.208 146.288 336.784 145.264 337.456 144.176C338.128 143.088 338.848 141.984 339.616 140.864C340.384 139.712 341.168 138.576 341.968 137.456C342.8 136.304 343.616 135.216 344.416 134.192L336.112 122.144H342.496L347.824 130.352ZM386.881 128.72C388.321 126.32 389.729 123.888 391.105 121.424C392.481 118.96 393.729 116.48 394.849 113.984H401.569C399.777 117.376 397.905 120.752 395.953 124.112C394.033 127.44 391.969 130.8 389.761 134.192V147.248H383.713V134.288C381.505 130.864 379.425 127.472 377.473 124.112C375.521 120.752 373.649 117.376 371.857 113.984H378.961C380.081 116.48 381.313 118.96 382.657 121.424C384.001 123.888 385.409 126.32 386.881 128.72ZM425.483 122.144C422.891 131.68 419.883 140.32 416.459 148.064C415.819 149.504 415.163 150.736 414.491 151.76C413.819 152.784 413.067 153.632 412.235 154.304C411.403 154.976 410.475 155.456 409.451 155.744C408.427 156.064 407.243 156.224 405.899 156.224C405.003 156.224 404.107 156.128 403.211 155.936C402.347 155.744 401.691 155.536 401.243 155.312L402.299 150.656C403.451 151.104 404.587 151.328 405.707 151.328C407.211 151.328 408.379 150.96 409.211 150.224C410.075 149.52 410.827 148.416 411.467 146.912C409.643 143.392 407.883 139.552 406.187 135.392C404.523 131.232 403.035 126.816 401.723 122.144H407.915C408.235 123.488 408.619 124.944 409.067 126.512C409.547 128.08 410.059 129.68 410.603 131.312C411.147 132.912 411.723 134.512 412.331 136.112C412.939 137.712 413.547 139.2 414.155 140.576C415.179 137.728 416.139 134.704 417.035 131.504C417.931 128.272 418.747 125.152 419.483 122.144H425.483ZM463.449 118.448C462.393 119.6 461.113 121.104 459.609 122.96C458.105 124.784 456.553 126.784 454.953 128.96C453.353 131.104 451.769 133.328 450.201 135.632C448.665 137.904 447.305 140.064 446.121 142.112H463.977V147.248H438.825V143.456C439.465 142.272 440.201 140.992 441.033 139.616C441.897 138.208 442.809 136.768 443.769 135.296C444.729 133.824 445.721 132.336 446.745 130.832C447.801 129.328 448.841 127.888 449.865 126.512C450.889 125.104 451.881 123.776 452.841 122.528C453.833 121.248 454.761 120.112 455.625 119.12H439.641V113.984H463.449V118.448ZM486.868 126.224C486.228 126.896 485.38 127.84 484.324 129.056C483.3 130.272 482.196 131.632 481.012 133.136C479.828 134.608 478.628 136.16 477.412 137.792C476.228 139.392 475.156 140.928 474.196 142.4H487.156V147.248H467.188V143.648C467.892 142.368 468.772 140.976 469.828 139.472C470.884 137.968 471.972 136.464 473.092 134.96C474.212 133.424 475.316 131.968 476.404 130.592C477.524 129.216 478.516 128.016 479.38 126.992H467.812V122.144H486.868V126.224ZM4.08001 175.896C5.93601 175.16 7.79201 174.216 9.64801 173.064C11.536 171.912 13.2 170.552 14.64 168.984H18.72V202.248H12.912V176.76C12.048 177.432 10.96 178.088 9.64801 178.728C8.33601 179.368 7.07201 179.896 5.85601 180.312L4.08001 175.896ZM50.1293 177.624C50.1293 178.776 49.8893 179.912 49.4093 181.032C48.9293 182.12 48.3053 183.192 47.5373 184.248C46.8013 185.272 45.9533 186.28 44.9933 187.272C44.0333 188.232 43.0733 189.176 42.1133 190.104C41.6013 190.584 41.0253 191.16 40.3853 191.832C39.7453 192.504 39.1373 193.176 38.5613 193.848C37.9853 194.52 37.4893 195.176 37.0733 195.816C36.6573 196.424 36.4333 196.936 36.4013 197.352H51.1853V202.248H30.0173C29.9853 201.992 29.9693 201.688 29.9693 201.336C29.9693 200.952 29.9693 200.664 29.9693 200.472C29.9693 198.936 30.2093 197.528 30.6893 196.248C31.2013 194.936 31.8573 193.72 32.6573 192.6C33.4573 191.48 34.3533 190.424 35.3453 189.432C36.3373 188.44 37.3293 187.464 38.3213 186.504C39.0893 185.768 39.8253 185.048 40.5293 184.344C41.2333 183.64 41.8413 182.952 42.3533 182.28C42.8973 181.576 43.3293 180.872 43.6493 180.168C43.9693 179.432 44.1293 178.68 44.1293 177.912C44.1293 176.248 43.6493 175.064 42.6893 174.36C41.7293 173.656 40.5613 173.304 39.1853 173.304C38.2893 173.304 37.4573 173.432 36.6893 173.688C35.9213 173.944 35.2333 174.248 34.6253 174.6C34.0493 174.952 33.5373 175.32 33.0893 175.704C32.6413 176.056 32.3053 176.344 32.0813 176.568L29.2013 172.488C30.5453 171.208 32.1133 170.184 33.9053 169.416C35.7293 168.616 37.6813 168.216 39.7613 168.216C43.3133 168.216 45.9213 169.064 47.5853 170.76C49.2813 172.424 50.1293 174.712 50.1293 177.624ZM65.6505 202.968C64.7865 202.968 63.8905 202.904 62.9625 202.776C62.0665 202.68 61.2025 202.536 60.3705 202.344C59.5705 202.184 58.8345 202.008 58.1625 201.816C57.4905 201.592 56.9785 201.384 56.6265 201.192L57.7785 196.248C58.4505 196.568 59.4265 196.936 60.7065 197.352C61.9865 197.736 63.5705 197.928 65.4585 197.928C67.9865 197.928 69.8105 197.448 70.9305 196.488C72.0505 195.496 72.6105 194.184 72.6105 192.552C72.6105 191.496 72.3865 190.616 71.9385 189.912C71.5225 189.208 70.9305 188.648 70.1625 188.232C69.4265 187.784 68.5625 187.48 67.5705 187.32C66.6105 187.128 65.5865 187.032 64.4985 187.032H62.5305V182.328H64.9305C65.6665 182.328 66.4025 182.264 67.1385 182.136C67.9065 181.976 68.5945 181.72 69.2025 181.368C69.8105 180.984 70.3065 180.488 70.6905 179.88C71.0745 179.272 71.2665 178.488 71.2665 177.528C71.2665 176.76 71.1225 176.104 70.8345 175.56C70.5465 175.016 70.1625 174.568 69.6825 174.216C69.2345 173.864 68.7065 173.608 68.0985 173.448C67.4905 173.288 66.8505 173.208 66.1785 173.208C64.7385 173.208 63.4585 173.432 62.3385 173.88C61.2185 174.296 60.2265 174.776 59.3625 175.32L57.2505 171C57.6985 170.712 58.2425 170.408 58.8825 170.088C59.5225 169.768 60.2265 169.464 60.9945 169.176C61.7945 168.888 62.6425 168.664 63.5385 168.504C64.4345 168.312 65.3785 168.216 66.3705 168.216C68.2265 168.216 69.8265 168.44 71.1705 168.888C72.5145 169.336 73.6185 169.976 74.4825 170.808C75.3785 171.608 76.0345 172.568 76.4505 173.688C76.8985 174.776 77.1225 175.976 77.1225 177.288C77.1225 178.824 76.6905 180.2 75.8265 181.416C74.9945 182.632 73.9065 183.56 72.5625 184.2C74.2905 184.808 75.7145 185.816 76.8345 187.224C77.9865 188.632 78.5625 190.44 78.5625 192.648C78.5625 194.12 78.3065 195.496 77.7945 196.776C77.2825 198.024 76.4985 199.112 75.4425 200.04C74.3865 200.936 73.0425 201.656 71.4105 202.2C69.8105 202.712 67.8905 202.968 65.6505 202.968ZM97.7798 176.136C97.0118 177.064 96.2118 178.056 95.3798 179.112C94.5798 180.168 93.7958 181.272 93.0278 182.424C92.2598 183.576 91.5238 184.76 90.8198 185.976C90.1158 187.16 89.4758 188.344 88.8998 189.528H97.7798V176.136ZM103.444 168.984V189.528H107.188V194.28H103.444V202.248H97.7798V194.28H83.1878V190.152C83.8278 188.744 84.6758 187.128 85.7318 185.304C86.8198 183.48 88.0198 181.608 89.3318 179.688C90.6438 177.768 92.0358 175.88 93.5078 174.024C94.9798 172.168 96.4518 170.488 97.9238 168.984H103.444ZM127.269 192.744C127.269 191.688 127.061 190.744 126.645 189.912C126.229 189.08 125.493 188.376 124.437 187.8C123.413 187.224 122.021 186.792 120.261 186.504C118.533 186.216 116.341 186.072 113.685 186.072C114.037 183 114.309 180.088 114.501 177.336C114.693 174.552 114.853 171.768 114.981 168.984H131.973V173.88H119.925C119.893 174.424 119.845 175.048 119.781 175.752C119.749 176.424 119.701 177.112 119.637 177.816C119.605 178.52 119.557 179.192 119.493 179.832C119.429 180.472 119.365 181.016 119.301 181.464C124.037 181.72 127.525 182.808 129.765 184.728C132.037 186.616 133.173 189.208 133.173 192.504C133.173 194.008 132.917 195.4 132.405 196.68C131.893 197.96 131.109 199.064 130.053 199.992C128.997 200.92 127.669 201.656 126.069 202.2C124.469 202.712 122.597 202.968 120.453 202.968C119.589 202.968 118.709 202.904 117.813 202.776C116.917 202.648 116.053 202.488 115.221 202.296C114.421 202.136 113.701 201.96 113.061 201.768C112.421 201.576 111.941 201.4 111.621 201.24L112.725 196.344C113.397 196.664 114.357 197.016 115.605 197.4C116.885 197.752 118.437 197.928 120.261 197.928C121.509 197.928 122.581 197.8 123.477 197.544C124.373 197.256 125.093 196.872 125.637 196.392C126.213 195.912 126.629 195.368 126.885 194.76C127.141 194.12 127.269 193.448 127.269 192.744ZM149.702 186.072C148.774 186.072 147.878 186.152 147.014 186.312C146.15 186.472 145.366 186.712 144.662 187.032C144.63 187.288 144.598 187.576 144.566 187.896C144.566 188.184 144.566 188.472 144.566 188.76C144.566 190.04 144.646 191.256 144.806 192.408C144.998 193.528 145.302 194.52 145.718 195.384C146.166 196.216 146.758 196.888 147.494 197.4C148.262 197.88 149.206 198.12 150.326 198.12C151.254 198.12 152.038 197.928 152.678 197.544C153.35 197.16 153.894 196.664 154.31 196.056C154.726 195.448 155.03 194.792 155.222 194.088C155.414 193.352 155.51 192.648 155.51 191.976C155.51 190.056 155.046 188.6 154.118 187.608C153.19 186.584 151.718 186.072 149.702 186.072ZM150.422 181.464C152.406 181.464 154.086 181.752 155.462 182.328C156.87 182.872 158.006 183.624 158.87 184.584C159.734 185.544 160.358 186.664 160.742 187.944C161.158 189.192 161.366 190.504 161.366 191.88C161.366 193.128 161.142 194.408 160.694 195.72C160.278 197.032 159.606 198.232 158.678 199.32C157.782 200.376 156.646 201.256 155.27 201.96C153.894 202.632 152.262 202.968 150.374 202.968C146.566 202.968 143.654 201.72 141.638 199.224C139.654 196.696 138.662 193.224 138.662 188.808C138.662 185.608 139.126 182.776 140.054 180.312C141.014 177.816 142.358 175.72 144.086 174.024C145.846 172.328 147.958 171.048 150.422 170.184C152.918 169.288 155.718 168.824 158.822 168.792L159.158 173.592C157.43 173.624 155.814 173.816 154.31 174.168C152.806 174.488 151.462 175 150.278 175.704C149.094 176.408 148.07 177.32 147.206 178.44C146.374 179.56 145.734 180.936 145.286 182.568C146.854 181.832 148.566 181.464 150.422 181.464ZM170.84 202.248C171.032 199.816 171.464 197.256 172.136 194.568C172.808 191.88 173.624 189.272 174.584 186.744C175.576 184.184 176.648 181.8 177.8 179.592C178.984 177.352 180.152 175.48 181.304 173.976H165.992V168.984H188.216V173.4C187.16 174.584 186.008 176.2 184.76 178.248C183.512 180.296 182.328 182.616 181.208 185.208C180.088 187.768 179.112 190.52 178.28 193.464C177.48 196.408 176.984 199.336 176.792 202.248H170.84ZM215.689 193.32C215.689 194.696 215.449 195.976 214.969 197.16C214.489 198.344 213.769 199.368 212.809 200.232C211.849 201.096 210.649 201.768 209.209 202.248C207.801 202.728 206.169 202.968 204.313 202.968C202.137 202.968 200.329 202.664 198.889 202.056C197.449 201.448 196.297 200.68 195.433 199.752C194.569 198.824 193.945 197.832 193.561 196.776C193.209 195.688 193.033 194.664 193.033 193.704C193.033 192.744 193.161 191.864 193.417 191.064C193.705 190.232 194.089 189.48 194.569 188.808C195.049 188.104 195.593 187.464 196.201 186.888C196.809 186.312 197.449 185.8 198.121 185.352C196.649 184.328 195.545 183.224 194.809 182.04C194.105 180.824 193.753 179.352 193.753 177.624C193.753 176.376 193.993 175.192 194.473 174.072C194.985 172.92 195.705 171.912 196.633 171.048C197.561 170.184 198.681 169.496 199.993 168.984C201.305 168.472 202.761 168.216 204.361 168.216C206.249 168.216 207.849 168.488 209.161 169.032C210.505 169.576 211.593 170.28 212.425 171.144C213.289 172.008 213.913 172.968 214.297 174.024C214.681 175.08 214.873 176.104 214.873 177.096C214.873 178.856 214.393 180.424 213.433 181.8C212.473 183.144 211.369 184.216 210.121 185.016C212.009 186.04 213.401 187.224 214.297 188.568C215.225 189.912 215.689 191.496 215.689 193.32ZM198.745 193.608C198.745 194.088 198.841 194.6 199.033 195.144C199.225 195.688 199.545 196.184 199.993 196.632C200.441 197.08 201.017 197.464 201.721 197.784C202.425 198.072 203.305 198.216 204.361 198.216C205.321 198.216 206.153 198.088 206.857 197.832C207.561 197.576 208.137 197.24 208.585 196.824C209.033 196.376 209.369 195.88 209.593 195.336C209.817 194.76 209.929 194.184 209.929 193.608C209.929 192.712 209.753 191.928 209.401 191.256C209.049 190.584 208.537 190.008 207.865 189.528C207.225 189.016 206.457 188.584 205.561 188.232C204.665 187.848 203.673 187.512 202.585 187.224C201.433 187.96 200.505 188.856 199.801 189.912C199.097 190.936 198.745 192.168 198.745 193.608ZM209.209 177.192C209.209 176.776 209.113 176.328 208.921 175.848C208.761 175.336 208.473 174.872 208.057 174.456C207.673 174.04 207.177 173.688 206.569 173.4C205.961 173.112 205.225 172.968 204.361 172.968C203.497 172.968 202.745 173.112 202.105 173.4C201.497 173.656 201.001 174.008 200.617 174.456C200.233 174.872 199.945 175.336 199.753 175.848C199.561 176.328 199.465 176.808 199.465 177.288C199.465 178.504 199.913 179.656 200.809 180.744C201.737 181.832 203.273 182.696 205.417 183.336C206.601 182.6 207.529 181.768 208.201 180.84C208.873 179.88 209.209 178.664 209.209 177.192ZM231.786 185.016C232.714 185.016 233.626 184.936 234.522 184.776C235.418 184.584 236.186 184.312 236.826 183.96C236.858 183.608 236.874 183.304 236.874 183.048C236.874 182.792 236.874 182.568 236.874 182.376C236.874 181.096 236.778 179.896 236.586 178.776C236.426 177.624 236.122 176.632 235.674 175.8C235.258 174.936 234.666 174.264 233.898 173.784C233.162 173.272 232.234 173.016 231.114 173.016C230.186 173.016 229.386 173.208 228.714 173.592C228.074 173.976 227.546 174.472 227.13 175.08C226.714 175.688 226.41 176.344 226.218 177.048C226.026 177.752 225.93 178.44 225.93 179.112C225.93 181.064 226.394 182.536 227.322 183.528C228.282 184.52 229.77 185.016 231.786 185.016ZM236.346 188.52C235.578 188.872 234.73 189.144 233.802 189.336C232.874 189.528 231.978 189.624 231.114 189.624C229.13 189.624 227.434 189.368 226.026 188.856C224.65 188.312 223.514 187.576 222.618 186.648C221.754 185.688 221.114 184.584 220.698 183.336C220.282 182.088 220.074 180.744 220.074 179.304C220.074 178.056 220.282 176.792 220.698 175.512C221.114 174.2 221.77 173 222.666 171.912C223.562 170.824 224.698 169.944 226.074 169.272C227.45 168.568 229.082 168.216 230.97 168.216C234.874 168.216 237.818 169.48 239.802 172.008C241.818 174.504 242.826 178.04 242.826 182.616C242.826 189.08 241.162 193.976 237.834 197.304C234.506 200.632 229.402 202.312 222.522 202.344L222.282 197.496C224.202 197.496 225.93 197.336 227.466 197.016C229.034 196.696 230.394 196.184 231.546 195.48C232.73 194.776 233.722 193.864 234.522 192.744C235.322 191.592 235.93 190.184 236.346 188.52ZM270.491 185.592C270.491 191.192 269.467 195.496 267.419 198.504C265.371 201.48 262.539 202.968 258.923 202.968C255.307 202.968 252.475 201.48 250.427 198.504C248.379 195.496 247.355 191.192 247.355 185.592C247.355 182.808 247.611 180.344 248.123 178.2C248.667 176.024 249.435 174.2 250.427 172.728C251.451 171.256 252.667 170.136 254.075 169.368C255.515 168.6 257.131 168.216 258.923 168.216C262.539 168.216 265.371 169.72 267.419 172.728C269.467 175.704 270.491 179.992 270.491 185.592ZM264.491 185.592C264.491 183.864 264.395 182.248 264.203 180.744C264.011 179.24 263.691 177.944 263.243 176.856C262.827 175.736 262.267 174.856 261.563 174.216C260.859 173.576 259.979 173.256 258.923 173.256C257.867 173.256 256.971 173.576 256.235 174.216C255.531 174.856 254.955 175.736 254.507 176.856C254.091 177.944 253.787 179.24 253.595 180.744C253.435 182.248 253.355 183.864 253.355 185.592C253.355 187.32 253.435 188.936 253.595 190.44C253.787 191.944 254.091 193.256 254.507 194.376C254.955 195.464 255.531 196.328 256.235 196.968C256.971 197.608 257.867 197.928 258.923 197.928C259.979 197.928 260.859 197.608 261.563 196.968C262.267 196.328 262.827 195.464 263.243 194.376C263.691 193.256 264.011 191.944 264.203 190.44C264.395 188.936 264.491 187.32 264.491 185.592Z" fill="#2B6243"/>
</svg>
