<svg width="671" height="154" viewBox="0 0 671 154" fill="none" xmlns="http://www.w3.org/2000/svg">
<path d="M0 15.2442C0 6.82505 6.82506 0 15.2442 0H105.962C114.381 0 121.206 6.82506 121.206 15.2442V138.522C121.206 146.941 114.381 153.766 105.962 153.766H15.2442C6.82507 153.766 0 146.941 0 138.522V15.2442Z" fill="#A3BD5B"/>
<path d="M27.2976 78.0709H25.0691L24.524 80.8926H22.8085L23.3536 78.0709H22.071V76.5478H23.6422L24.1071 74.1269H22.071V72.6198H24.3957L24.9408 69.7821H26.6563L26.1112 72.6198H28.3397L28.8848 69.7821H30.6003L30.0552 72.6198H31.3538V74.1269H29.7666L29.3016 76.5478H31.3538V78.0709H29.0131L28.468 80.8926H26.7525L27.2976 78.0709ZM25.3576 76.5478H27.5862L28.0511 74.1269H25.8226L25.3576 76.5478ZM40.7953 80.8926C40.6457 80.4544 40.4907 80.0215 40.3304 79.5939C40.17 79.1664 40.0151 78.7282 39.8654 78.2793H35.1839C35.0343 78.7282 34.8793 79.1718 34.719 79.61C34.5694 80.0375 34.4197 80.465 34.2701 80.8926H32.1698C32.5867 79.7062 32.9821 78.6106 33.3562 77.6059C33.7303 76.6012 34.0937 75.65 34.4464 74.7521C34.8098 73.8543 35.1679 72.9993 35.5206 72.1869C35.8733 71.3746 36.2367 70.573 36.6108 69.7821H38.5187C38.8928 70.573 39.2562 71.3746 39.6089 72.1869C39.9616 72.9993 40.3143 73.8543 40.667 74.7521C41.0304 75.65 41.3992 76.6012 41.7733 77.6059C42.1581 78.6106 42.5589 79.7062 42.9757 80.8926H40.7953ZM37.5247 71.9304C37.2788 72.4969 36.9956 73.1863 36.675 73.9986C36.365 74.8109 36.039 75.6927 35.697 76.644H39.3524C39.0104 75.6927 38.679 74.8056 38.3584 73.9826C38.0377 73.1596 37.7598 72.4755 37.5247 71.9304ZM46.833 81.1331C46.5444 81.1331 46.2452 81.1117 45.9352 81.0689C45.6359 81.0369 45.3474 80.9888 45.0695 80.9246C44.8023 80.8712 44.5564 80.8124 44.332 80.7483C44.1075 80.6735 43.9365 80.604 43.8189 80.5399L44.2037 78.8885C44.4282 78.9954 44.7542 79.1183 45.1817 79.2573C45.6092 79.3855 46.1383 79.4497 46.7689 79.4497C47.6133 79.4497 48.2225 79.2893 48.5966 78.9687C48.9707 78.6373 49.1577 78.1991 49.1577 77.654C49.1577 77.3013 49.0829 77.0074 48.9333 76.7722C48.7943 76.5371 48.5966 76.35 48.3401 76.2111C48.0943 76.0615 47.8057 75.9599 47.4743 75.9065C47.1537 75.8423 46.8117 75.8103 46.4483 75.8103H45.7909V74.2391H46.5925C46.8384 74.2391 47.0842 74.2177 47.33 74.175C47.5866 74.1215 47.8164 74.036 48.0194 73.9184C48.2225 73.7902 48.3882 73.6245 48.5164 73.4214C48.6447 73.2184 48.7088 72.9565 48.7088 72.6358C48.7088 72.3793 48.6607 72.1602 48.5645 71.9785C48.4683 71.7968 48.3401 71.6472 48.1798 71.5296C48.0301 71.412 47.8538 71.3265 47.6507 71.2731C47.4476 71.2196 47.2338 71.1929 47.0094 71.1929C46.5284 71.1929 46.1009 71.2677 45.7268 71.4174C45.3527 71.5563 45.0214 71.7167 44.7328 71.8984L44.0273 70.4554C44.177 70.3592 44.3587 70.2577 44.5725 70.1508C44.7862 70.0439 45.0214 69.9424 45.2779 69.8462C45.5451 69.75 45.8283 69.6752 46.1276 69.6217C46.4269 69.5576 46.7422 69.5255 47.0735 69.5255C47.6934 69.5255 48.2279 69.6004 48.6768 69.75C49.1257 69.8996 49.4944 70.1134 49.783 70.3913C50.0823 70.6585 50.3014 70.9792 50.4403 71.3533C50.59 71.7167 50.6648 72.1175 50.6648 72.5557C50.6648 73.0687 50.5205 73.5283 50.2319 73.9345C49.954 74.3406 49.5906 74.6506 49.1417 74.8644C49.7189 75.0674 50.1945 75.4041 50.5686 75.8744C50.9534 76.3447 51.1458 76.9486 51.1458 77.6861C51.1458 78.1777 51.0603 78.6373 50.8893 79.0649C50.7182 79.4817 50.4564 79.8451 50.1037 80.1551C49.7509 80.4544 49.302 80.6948 48.7569 80.8765C48.2225 81.0476 47.5812 81.1331 46.833 81.1331ZM56.8431 81.0208C56.2552 81.0208 55.662 80.9995 55.0635 80.9567C54.4649 80.9246 53.9412 80.8498 53.4923 80.7323V69.9424C53.7274 69.8996 53.9786 69.8622 54.2458 69.8302C54.513 69.7874 54.7856 69.7553 55.0635 69.734C55.3414 69.7126 55.6139 69.6966 55.8811 69.6859C56.159 69.6752 56.4209 69.6698 56.6667 69.6698C57.3401 69.6698 57.9653 69.7233 58.5425 69.8302C59.1197 69.9264 59.6167 70.092 60.0335 70.3272C60.4611 70.5623 60.7924 70.8723 61.0275 71.2571C61.2627 71.6418 61.3803 72.1175 61.3803 72.6839C61.3803 73.2077 61.252 73.6566 60.9955 74.0307C60.7496 74.4048 60.4023 74.704 59.9534 74.9285C60.6267 75.1529 61.1237 75.4843 61.4444 75.9225C61.765 76.3607 61.9254 76.9165 61.9254 77.5899C61.9254 78.7335 61.5085 79.5939 60.6748 80.1711C59.8411 80.7376 58.5639 81.0208 56.8431 81.0208ZM55.4803 75.8904V79.2733C55.7048 79.2947 55.9452 79.3107 56.2018 79.3214C56.4583 79.3321 56.6934 79.3374 56.9072 79.3374C57.324 79.3374 57.7088 79.3107 58.0615 79.2573C58.4249 79.2038 58.7349 79.113 58.9914 78.9847C59.2586 78.8458 59.467 78.6641 59.6167 78.4396C59.777 78.2152 59.8572 77.9266 59.8572 77.5739C59.8572 76.9432 59.6274 76.505 59.1678 76.2592C58.7082 76.0134 58.0722 75.8904 57.2599 75.8904H55.4803ZM55.4803 74.3032H56.9072C57.6768 74.3032 58.2806 74.1963 58.7189 73.9826C59.1571 73.7581 59.3762 73.3627 59.3762 72.7962C59.3762 72.2618 59.1464 71.8823 58.6868 71.6579C58.2379 71.4334 57.65 71.3212 56.9232 71.3212C56.6133 71.3212 56.3354 71.3265 56.0895 71.3372C55.8544 71.3479 55.6513 71.3639 55.4803 71.3853V74.3032ZM66.0493 79.2252C66.1669 79.2359 66.3219 79.2466 66.5143 79.2573C66.7067 79.2573 66.9685 79.2573 67.2999 79.2573C68.6573 79.2573 69.6673 78.9152 70.33 78.2312C71.0034 77.5364 71.3401 76.5692 71.3401 75.3293C71.3401 74.0681 71.0141 73.1008 70.3621 72.4274C69.7101 71.7541 68.7 71.4174 67.3319 71.4174C66.7334 71.4174 66.3059 71.4334 66.0493 71.4655V79.2252ZM73.4563 75.3293C73.4563 76.2913 73.3067 77.1303 73.0074 77.8464C72.7082 78.5518 72.2806 79.145 71.7248 79.626C71.1797 80.0963 70.5171 80.449 69.7368 80.6842C68.9673 80.9086 68.1122 81.0208 67.1716 81.0208C66.7227 81.0208 66.215 80.9995 65.6485 80.9567C65.082 80.9246 64.5423 80.8498 64.0292 80.7323V69.9424C64.5423 69.8248 65.0874 69.75 65.6646 69.7179C66.2417 69.6859 66.7548 69.6698 67.2037 69.6698C68.1336 69.6698 68.9833 69.7821 69.7528 70.0065C70.5224 70.2203 71.1797 70.5623 71.7248 71.0326C72.2806 71.4922 72.7082 72.0801 73.0074 72.7962C73.3067 73.5016 73.4563 74.346 73.4563 75.3293ZM80.4719 77.7181C80.4719 77.3654 80.4025 77.0501 80.2635 76.7722C80.1246 76.4943 79.8787 76.2592 79.526 76.0668C79.184 75.8744 78.7191 75.7301 78.1312 75.6339C77.554 75.5377 76.8219 75.4896 75.9347 75.4896C76.0523 74.4636 76.1432 73.4909 76.2073 72.5717C76.2714 71.6418 76.3249 70.712 76.3676 69.7821H82.0431V71.4174H78.019C78.0083 71.5991 77.9922 71.8075 77.9709 72.0426C77.9602 72.2671 77.9441 72.4969 77.9228 72.732C77.9121 72.9672 77.8961 73.1916 77.8747 73.4054C77.8533 73.6192 77.8319 73.8009 77.8105 73.9505C79.3924 74.036 80.5574 74.3994 81.3056 75.0407C82.0645 75.6713 82.4439 76.5371 82.4439 77.638C82.4439 78.1403 82.3584 78.6053 82.1874 79.0328C82.0164 79.4603 81.7545 79.8291 81.4018 80.1391C81.0491 80.449 80.6055 80.6948 80.0711 80.8765C79.5367 81.0476 78.9114 81.1331 78.1953 81.1331C77.9067 81.1331 77.6128 81.1117 77.3135 81.0689C77.0143 81.0262 76.7257 80.9727 76.4478 80.9086C76.1806 80.8552 75.9401 80.7964 75.7263 80.7323C75.5126 80.6681 75.3522 80.6093 75.2453 80.5559L75.6141 78.9206C75.8386 79.0275 76.1592 79.145 76.576 79.2733C77.0036 79.3909 77.522 79.4497 78.1312 79.4497C78.548 79.4497 78.9061 79.4069 79.2054 79.3214C79.5046 79.2252 79.7451 79.0969 79.9268 78.9366C80.1192 78.7763 80.2582 78.5946 80.3437 78.3915C80.4292 78.1777 80.4719 77.9533 80.4719 77.7181ZM88.1252 81.0208C87.5373 81.0208 86.9441 80.9995 86.3456 80.9567C85.747 80.9246 85.2233 80.8498 84.7744 80.7323V69.9424C85.0095 69.8996 85.2607 69.8622 85.5279 69.8302C85.7951 69.7874 86.0677 69.7553 86.3456 69.734C86.6235 69.7126 86.896 69.6966 87.1632 69.6859C87.4411 69.6752 87.703 69.6698 87.9488 69.6698C88.6222 69.6698 89.2475 69.7233 89.8246 69.8302C90.4018 69.9264 90.8988 70.092 91.3157 70.3272C91.7432 70.5623 92.0745 70.8723 92.3097 71.2571C92.5448 71.6418 92.6624 72.1175 92.6624 72.6839C92.6624 73.2077 92.5341 73.6566 92.2776 74.0307C92.0318 74.4048 91.6844 74.704 91.2355 74.9285C91.9089 75.1529 92.4059 75.4843 92.7265 75.9225C93.0472 76.3607 93.2075 76.9165 93.2075 77.5899C93.2075 78.7335 92.7906 79.5939 91.957 80.1711C91.1233 80.7376 89.846 81.0208 88.1252 81.0208ZM86.7624 75.8904V79.2733C86.9869 79.2947 87.2274 79.3107 87.4839 79.3214C87.7404 79.3321 87.9756 79.3374 88.1893 79.3374C88.6062 79.3374 88.9909 79.3107 89.3437 79.2573C89.7071 79.2038 90.017 79.113 90.2735 78.9847C90.5408 78.8458 90.7492 78.6641 90.8988 78.4396C91.0591 78.2152 91.1393 77.9266 91.1393 77.5739C91.1393 76.9432 90.9095 76.505 90.4499 76.2592C89.9903 76.0134 89.3543 75.8904 88.542 75.8904H86.7624ZM86.7624 74.3032H88.1893C88.9589 74.3032 89.5628 74.1963 90.001 73.9826C90.4392 73.7581 90.6583 73.3627 90.6583 72.7962C90.6583 72.2618 90.4285 71.8823 89.9689 71.6579C89.52 71.4334 88.9322 71.3212 88.2054 71.3212C87.8954 71.3212 87.6175 71.3265 87.3717 71.3372C87.1365 71.3479 86.9334 71.3639 86.7624 71.3853V74.3032Z" fill="white"/>
<path d="M137.206 15.2442C137.206 6.82505 144.031 0 152.451 0H243.169C251.588 0 258.413 6.82506 258.413 15.2442V138.522C258.413 146.941 251.588 153.766 243.169 153.766H152.451C144.031 153.766 137.206 146.941 137.206 138.522V15.2442Z" fill="#4F976E"/>
<path d="M167.941 78.0709H165.712L165.167 80.8926H163.452L163.997 78.0709H162.714V76.5478H164.285L164.75 74.1269H162.714V72.6198H165.039L165.584 69.7821H167.299L166.754 72.6198H168.983L169.528 69.7821H171.243L170.698 72.6198H171.997V74.1269H170.41L169.945 76.5478H171.997V78.0709H169.656L169.111 80.8926H167.396L167.941 78.0709ZM166.001 76.5478H168.229L168.694 74.1269H166.466L166.001 76.5478ZM178.136 72.1709C177.879 72.4809 177.612 72.8122 177.334 73.1649C177.067 73.5176 176.805 73.8864 176.549 74.2712C176.292 74.6559 176.046 75.0514 175.811 75.4576C175.576 75.853 175.362 76.2485 175.17 76.644H178.136V72.1709ZM180.028 69.7821V76.644H181.278V78.2312H180.028V80.8926H178.136V78.2312H173.262V76.8524C173.476 76.3821 173.759 75.8423 174.112 75.2331C174.475 74.6239 174.876 73.9986 175.314 73.3573C175.752 72.716 176.217 72.0854 176.709 71.4655C177.201 70.8456 177.692 70.2844 178.184 69.7821H180.028ZM183.176 80.8926V69.7821H190.198V71.4975H185.196V74.3353H189.637V76.0508H185.196V80.8926H183.176ZM195.277 75.1369C195.587 75.1369 195.891 75.1102 196.191 75.0568C196.49 74.9926 196.746 74.9018 196.96 74.7842C196.971 74.6666 196.976 74.5651 196.976 74.4796C196.976 74.3941 196.976 74.3193 196.976 74.2551C196.976 73.8276 196.944 73.4268 196.88 73.0527C196.827 72.6679 196.725 72.3366 196.575 72.0587C196.436 71.7701 196.239 71.5456 195.982 71.3853C195.736 71.2143 195.426 71.1288 195.052 71.1288C194.742 71.1288 194.475 71.1929 194.251 71.3212C194.037 71.4494 193.861 71.6151 193.722 71.8182C193.583 72.0213 193.481 72.2404 193.417 72.4755C193.353 72.7107 193.321 72.9405 193.321 73.1649C193.321 73.8169 193.476 74.3086 193.786 74.6399C194.106 74.9712 194.603 75.1369 195.277 75.1369ZM196.8 76.3073C196.543 76.4249 196.26 76.5157 195.95 76.5798C195.64 76.644 195.341 76.676 195.052 76.676C194.39 76.676 193.823 76.5905 193.353 76.4195C192.893 76.2378 192.514 75.992 192.215 75.682C191.926 75.3614 191.712 74.9926 191.573 74.5758C191.434 74.1589 191.365 73.71 191.365 73.2291C191.365 72.8122 191.434 72.39 191.573 71.9625C191.712 71.5243 191.931 71.1235 192.231 70.76C192.53 70.3966 192.909 70.1027 193.369 69.8783C193.829 69.6431 194.374 69.5255 195.004 69.5255C196.308 69.5255 197.292 69.9477 197.954 70.7921C198.628 71.6258 198.964 72.8069 198.964 74.3353C198.964 76.4943 198.408 78.1296 197.297 79.2412C196.185 80.3528 194.48 80.914 192.183 80.9246L192.102 79.3054C192.744 79.3054 193.321 79.2519 193.834 79.145C194.358 79.0382 194.812 78.8671 195.197 78.632C195.592 78.3969 195.923 78.0922 196.191 77.7181C196.458 77.3334 196.661 76.8631 196.8 76.3073ZM202.257 80.8926C202.321 80.0803 202.465 79.2252 202.69 78.3274C202.914 77.4296 203.187 76.5585 203.507 75.7141C203.839 74.859 204.197 74.0627 204.581 73.3252C204.977 72.5771 205.367 71.9518 205.752 71.4494H200.637V69.7821H208.06V71.2571C207.708 71.6525 207.323 72.1923 206.906 72.8763C206.489 73.5604 206.094 74.3353 205.72 75.201C205.346 76.0561 205.02 76.9753 204.742 77.9586C204.474 78.942 204.309 79.9199 204.245 80.8926H202.257ZM213.421 75.4896C213.111 75.4896 212.812 75.5164 212.523 75.5698C212.235 75.6232 211.973 75.7034 211.738 75.8103C211.727 75.8958 211.716 75.992 211.706 76.0989C211.706 76.1951 211.706 76.2913 211.706 76.3875C211.706 76.815 211.732 77.2211 211.786 77.6059C211.85 77.98 211.951 78.3113 212.09 78.5999C212.24 78.8778 212.438 79.1023 212.684 79.2733C212.94 79.4336 213.255 79.5138 213.629 79.5138C213.939 79.5138 214.201 79.4497 214.415 79.3214C214.64 79.1931 214.821 79.0275 214.96 78.8244C215.099 78.6213 215.201 78.4022 215.265 78.1671C215.329 77.9212 215.361 77.6861 215.361 77.4616C215.361 76.8203 215.206 76.334 214.896 76.0027C214.586 75.6606 214.094 75.4896 213.421 75.4896ZM213.662 73.9505C214.324 73.9505 214.885 74.0467 215.345 74.2391C215.815 74.4208 216.195 74.672 216.483 74.9926C216.772 75.3133 216.98 75.6874 217.109 76.1149C217.247 76.5317 217.317 76.97 217.317 77.4296C217.317 77.8464 217.242 78.2739 217.092 78.7122C216.954 79.1504 216.729 79.5512 216.419 79.9146C216.12 80.2673 215.74 80.5612 215.281 80.7964C214.821 81.0208 214.276 81.1331 213.645 81.1331C212.374 81.1331 211.401 80.7162 210.728 79.8825C210.065 79.0382 209.734 77.8785 209.734 76.4035C209.734 75.3347 209.889 74.3887 210.199 73.5657C210.519 72.732 210.968 72.032 211.545 71.4655C212.133 70.899 212.839 70.4715 213.662 70.1829C214.495 69.8836 215.43 69.7286 216.467 69.7179L216.579 71.3212C216.002 71.3319 215.463 71.396 214.96 71.5136C214.458 71.6205 214.009 71.7915 213.613 72.0266C213.218 72.2618 212.876 72.5664 212.587 72.9405C212.309 73.3146 212.096 73.7742 211.946 74.3193C212.47 74.0734 213.042 73.9505 213.662 73.9505ZM219.343 80.8926V69.7821H226.477V71.4975H221.363V74.2391H225.916V75.9225H221.363V79.1771H226.862V80.8926H219.343Z" fill="white"/>
<path d="M274.413 15.2442C274.413 6.82505 281.238 0 289.657 0H380.375C388.794 0 395.619 6.82506 395.619 15.2442V138.522C395.619 146.941 388.794 153.766 380.375 153.766H289.657C281.238 153.766 274.413 146.941 274.413 138.522V15.2442Z" fill="#A6AAF0"/>
<path d="M302.265 78.0709H300.036L299.491 80.8926H297.776L298.321 78.0709H297.038V76.5478H298.609L299.074 74.1269H297.038V72.6198H299.363L299.908 69.7821H301.623L301.078 72.6198H303.307L303.852 69.7821H305.567L305.022 72.6198H306.321V74.1269H304.734L304.269 76.5478H306.321V78.0709H303.98L303.435 80.8926H301.72L302.265 78.0709ZM300.325 76.5478H302.553L303.018 74.1269H300.79L300.325 76.5478ZM315.762 80.8926C315.613 80.4544 315.458 80.0215 315.297 79.5939C315.137 79.1664 314.982 78.7282 314.832 78.2793H310.151C310.001 78.7282 309.846 79.1718 309.686 79.61C309.536 80.0375 309.387 80.465 309.237 80.8926H307.137C307.554 79.7062 307.949 78.6106 308.323 77.6059C308.697 76.6012 309.061 75.65 309.413 74.7521C309.777 73.8543 310.135 72.9993 310.488 72.1869C310.84 71.3746 311.204 70.573 311.578 69.7821H313.486C313.86 70.573 314.223 71.3746 314.576 72.1869C314.929 72.9993 315.281 73.8543 315.634 74.7521C315.997 75.65 316.366 76.6012 316.74 77.6059C317.125 78.6106 317.526 79.7062 317.943 80.8926H315.762ZM312.492 71.9304C312.246 72.4969 311.963 73.1863 311.642 73.9986C311.332 74.8109 311.006 75.6927 310.664 76.644H314.319C313.977 75.6927 313.646 74.8056 313.325 73.9826C313.005 73.1596 312.727 72.4755 312.492 71.9304ZM322.538 75.4896C322.228 75.4896 321.928 75.5164 321.64 75.5698C321.351 75.6232 321.089 75.7034 320.854 75.8103C320.843 75.8958 320.833 75.992 320.822 76.0989C320.822 76.1951 320.822 76.2913 320.822 76.3875C320.822 76.815 320.849 77.2211 320.902 77.6059C320.966 77.98 321.068 78.3113 321.207 78.5999C321.357 78.8778 321.554 79.1023 321.8 79.2733C322.057 79.4336 322.372 79.5138 322.746 79.5138C323.056 79.5138 323.318 79.4497 323.532 79.3214C323.756 79.1931 323.938 79.0275 324.077 78.8244C324.216 78.6213 324.317 78.4022 324.381 78.1671C324.445 77.9212 324.477 77.6861 324.477 77.4616C324.477 76.8203 324.323 76.334 324.013 76.0027C323.703 75.6606 323.211 75.4896 322.538 75.4896ZM322.778 73.9505C323.441 73.9505 324.002 74.0467 324.461 74.2391C324.932 74.4208 325.311 74.672 325.6 74.9926C325.888 75.3133 326.097 75.6874 326.225 76.1149C326.364 76.5317 326.433 76.97 326.433 77.4296C326.433 77.8464 326.359 78.2739 326.209 78.7122C326.07 79.1504 325.846 79.5512 325.536 79.9146C325.236 80.2673 324.857 80.5612 324.397 80.7964C323.938 81.0208 323.393 81.1331 322.762 81.1331C321.49 81.1331 320.517 80.7162 319.844 79.8825C319.181 79.0382 318.85 77.8785 318.85 76.4035C318.85 75.3347 319.005 74.3887 319.315 73.5657C319.636 72.732 320.085 72.032 320.662 71.4655C321.25 70.899 321.955 70.4715 322.778 70.1829C323.612 69.8836 324.547 69.7286 325.584 69.7179L325.696 71.3212C325.119 71.3319 324.579 71.396 324.077 71.5136C323.574 71.6205 323.125 71.7915 322.73 72.0266C322.334 72.2618 321.992 72.5664 321.704 72.9405C321.426 73.3146 321.212 73.7742 321.063 74.3193C321.586 74.0734 322.158 73.9505 322.778 73.9505ZM335.834 80.8926C335.685 80.4544 335.53 80.0215 335.369 79.5939C335.209 79.1664 335.054 78.7282 334.904 78.2793H330.223C330.073 78.7282 329.918 79.1718 329.758 79.61C329.608 80.0375 329.459 80.465 329.309 80.8926H327.209C327.626 79.7062 328.021 78.6106 328.395 77.6059C328.769 76.6012 329.133 75.65 329.485 74.7521C329.849 73.8543 330.207 72.9993 330.56 72.1869C330.912 71.3746 331.276 70.573 331.65 69.7821H333.558C333.932 70.573 334.295 71.3746 334.648 72.1869C335.001 72.9993 335.353 73.8543 335.706 74.7521C336.069 75.65 336.438 76.6012 336.812 77.6059C337.197 78.6106 337.598 79.7062 338.015 80.8926H335.834ZM332.564 71.9304C332.318 72.4969 332.035 73.1863 331.714 73.9986C331.404 74.8109 331.078 75.6927 330.736 76.644H334.391C334.049 75.6927 333.718 74.8056 333.397 73.9826C333.077 73.1596 332.799 72.4755 332.564 71.9304ZM347.264 80.8926C347.114 80.4544 346.959 80.0215 346.799 79.5939C346.638 79.1664 346.483 78.7282 346.334 78.2793H341.652C341.503 78.7282 341.348 79.1718 341.187 79.61C341.038 80.0375 340.888 80.465 340.738 80.8926H338.638C339.055 79.7062 339.451 78.6106 339.825 77.6059C340.199 76.6012 340.562 75.65 340.915 74.7521C341.278 73.8543 341.636 72.9993 341.989 72.1869C342.342 71.3746 342.705 70.573 343.079 69.7821H344.987C345.361 70.573 345.725 71.3746 346.077 72.1869C346.43 72.9993 346.783 73.8543 347.135 74.7521C347.499 75.65 347.868 76.6012 348.242 77.6059C348.626 78.6106 349.027 79.7062 349.444 80.8926H347.264ZM343.993 71.9304C343.747 72.4969 343.464 73.1863 343.143 73.9986C342.833 74.8109 342.507 75.6927 342.165 76.644H345.821C345.479 75.6927 345.147 74.8056 344.827 73.9826C344.506 73.1596 344.228 72.4755 343.993 71.9304ZM350.848 80.8926V69.7821H357.871V71.4975H352.869V74.3353H357.31V76.0508H352.869V80.8926H350.848ZM366.765 75.3293C366.765 77.1998 366.423 78.6373 365.739 79.642C365.055 80.6361 364.109 81.1331 362.901 81.1331C361.694 81.1331 360.748 80.6361 360.064 79.642C359.38 78.6373 359.038 77.1998 359.038 75.3293C359.038 74.3994 359.123 73.5764 359.294 72.8603C359.476 72.1335 359.732 71.5243 360.064 71.0326C360.406 70.5409 360.812 70.1668 361.282 69.9103C361.763 69.6538 362.303 69.5255 362.901 69.5255C364.109 69.5255 365.055 70.0279 365.739 71.0326C366.423 72.0266 366.765 73.4589 366.765 75.3293ZM364.761 75.3293C364.761 74.7521 364.729 74.2124 364.665 73.71C364.601 73.2077 364.494 72.7748 364.344 72.4114C364.205 72.0373 364.018 71.7434 363.783 71.5296C363.548 71.3158 363.254 71.209 362.901 71.209C362.549 71.209 362.249 71.3158 362.004 71.5296C361.768 71.7434 361.576 72.0373 361.426 72.4114C361.287 72.7748 361.186 73.2077 361.122 73.71C361.068 74.2124 361.042 74.7521 361.042 75.3293C361.042 75.9065 361.068 76.4462 361.122 76.9486C361.186 77.4509 361.287 77.8892 361.426 78.2633C361.576 78.6267 361.768 78.9152 362.004 79.129C362.249 79.3428 362.549 79.4497 362.901 79.4497C363.254 79.4497 363.548 79.3428 363.783 79.129C364.018 78.9152 364.205 78.6267 364.344 78.2633C364.494 77.8892 364.601 77.4509 364.665 76.9486C364.729 76.4462 364.761 75.9065 364.761 75.3293Z" fill="white"/>
<path d="M411.619 15.2442C411.619 6.82505 418.444 0 426.863 0H517.581C526.001 0 532.826 6.82506 532.826 15.2442V138.522C532.826 146.941 526.001 153.766 517.581 153.766H426.863C418.444 153.766 411.619 146.941 411.619 138.522V15.2442Z" fill="#EBB6DE"/>
<path d="M439.747 78.0709H437.519L436.974 80.8926H435.258L435.803 78.0709H434.521V76.5478H436.092L436.557 74.1269H434.521V72.6198H436.845L437.39 69.7821H439.106L438.561 72.6198H440.789L441.334 69.7821H443.05L442.505 72.6198H443.803V74.1269H442.216L441.751 76.5478H443.803V78.0709H441.463L440.918 80.8926H439.202L439.747 78.0709ZM437.807 76.5478H440.036L440.501 74.1269H438.272L437.807 76.5478ZM445.87 80.8926V69.7821H453.004V71.4975H447.89V74.2391H452.443V75.9225H447.89V79.1771H453.389V80.8926H445.87ZM458.615 81.0208C458.027 81.0208 457.434 80.9995 456.835 80.9567C456.237 80.9246 455.713 80.8498 455.264 80.7323V69.9424C455.499 69.8996 455.75 69.8622 456.018 69.8302C456.285 69.7874 456.557 69.7553 456.835 69.734C457.113 69.7126 457.386 69.6966 457.653 69.6859C457.931 69.6752 458.193 69.6698 458.438 69.6698C459.112 69.6698 459.737 69.7233 460.314 69.8302C460.891 69.9264 461.388 70.092 461.805 70.3272C462.233 70.5623 462.564 70.8723 462.799 71.2571C463.034 71.6418 463.152 72.1175 463.152 72.6839C463.152 73.2077 463.024 73.6566 462.767 74.0307C462.521 74.4048 462.174 74.704 461.725 74.9285C462.398 75.1529 462.895 75.4843 463.216 75.9225C463.537 76.3607 463.697 76.9165 463.697 77.5899C463.697 78.7335 463.28 79.5939 462.447 80.1711C461.613 80.7376 460.336 81.0208 458.615 81.0208ZM457.252 75.8904V79.2733C457.476 79.2947 457.717 79.3107 457.973 79.3214C458.23 79.3321 458.465 79.3374 458.679 79.3374C459.096 79.3374 459.481 79.3107 459.833 79.2573C460.197 79.2038 460.507 79.113 460.763 78.9847C461.03 78.8458 461.239 78.6641 461.388 78.4396C461.549 78.2152 461.629 77.9266 461.629 77.5739C461.629 76.9432 461.399 76.505 460.939 76.2592C460.48 76.0134 459.844 75.8904 459.032 75.8904H457.252ZM457.252 74.3032H458.679C459.448 74.3032 460.052 74.1963 460.491 73.9826C460.929 73.7581 461.148 73.3627 461.148 72.7962C461.148 72.2618 460.918 71.8823 460.459 71.6579C460.01 71.4334 459.422 71.3212 458.695 71.3212C458.385 71.3212 458.107 71.3265 457.861 71.3372C457.626 71.3479 457.423 71.3639 457.252 71.3853V74.3032ZM469.152 81.0208C468.564 81.0208 467.971 80.9995 467.372 80.9567C466.774 80.9246 466.25 80.8498 465.801 80.7323V69.9424C466.036 69.8996 466.287 69.8622 466.554 69.8302C466.822 69.7874 467.094 69.7553 467.372 69.734C467.65 69.7126 467.923 69.6966 468.19 69.6859C468.468 69.6752 468.73 69.6698 468.975 69.6698C469.649 69.6698 470.274 69.7233 470.851 69.8302C471.428 69.9264 471.925 70.092 472.342 70.3272C472.77 70.5623 473.101 70.8723 473.336 71.2571C473.571 71.6418 473.689 72.1175 473.689 72.6839C473.689 73.2077 473.561 73.6566 473.304 74.0307C473.058 74.4048 472.711 74.704 472.262 74.9285C472.935 75.1529 473.432 75.4843 473.753 75.9225C474.074 76.3607 474.234 76.9165 474.234 77.5899C474.234 78.7335 473.817 79.5939 472.984 80.1711C472.15 80.7376 470.873 81.0208 469.152 81.0208ZM467.789 75.8904V79.2733C468.013 79.2947 468.254 79.3107 468.51 79.3214C468.767 79.3321 469.002 79.3374 469.216 79.3374C469.633 79.3374 470.017 79.3107 470.37 79.2573C470.734 79.2038 471.044 79.113 471.3 78.9847C471.567 78.8458 471.776 78.6641 471.925 78.4396C472.086 78.2152 472.166 77.9266 472.166 77.5739C472.166 76.9432 471.936 76.505 471.476 76.2592C471.017 76.0134 470.381 75.8904 469.569 75.8904H467.789ZM467.789 74.3032H469.216C469.985 74.3032 470.589 74.1963 471.028 73.9826C471.466 73.7581 471.685 73.3627 471.685 72.7962C471.685 72.2618 471.455 71.8823 470.995 71.6579C470.547 71.4334 469.959 71.3212 469.232 71.3212C468.922 71.3212 468.644 71.3265 468.398 71.3372C468.163 71.3479 467.96 71.3639 467.789 71.3853V74.3032ZM479.528 75.4896C479.218 75.4896 478.919 75.5164 478.631 75.5698C478.342 75.6232 478.08 75.7034 477.845 75.8103C477.834 75.8958 477.824 75.992 477.813 76.0989C477.813 76.1951 477.813 76.2913 477.813 76.3875C477.813 76.815 477.84 77.2211 477.893 77.6059C477.957 77.98 478.059 78.3113 478.198 78.5999C478.347 78.8778 478.545 79.1023 478.791 79.2733C479.047 79.4336 479.363 79.5138 479.737 79.5138C480.047 79.5138 480.309 79.4497 480.522 79.3214C480.747 79.1931 480.929 79.0275 481.068 78.8244C481.206 78.6213 481.308 78.4022 481.372 78.1671C481.436 77.9212 481.468 77.6861 481.468 77.4616C481.468 76.8203 481.313 76.334 481.003 76.0027C480.693 75.6606 480.202 75.4896 479.528 75.4896ZM479.769 73.9505C480.432 73.9505 480.993 74.0467 481.452 74.2391C481.923 74.4208 482.302 74.672 482.591 74.9926C482.879 75.3133 483.088 75.6874 483.216 76.1149C483.355 76.5317 483.424 76.97 483.424 77.4296C483.424 77.8464 483.349 78.2739 483.2 78.7122C483.061 79.1504 482.836 79.5512 482.526 79.9146C482.227 80.2673 481.848 80.5612 481.388 80.7964C480.929 81.0208 480.383 81.1331 479.753 81.1331C478.481 81.1331 477.508 80.7162 476.835 79.8825C476.172 79.0382 475.841 77.8785 475.841 76.4035C475.841 75.3347 475.996 74.3887 476.306 73.5657C476.627 72.732 477.075 72.032 477.653 71.4655C478.24 70.899 478.946 70.4715 479.769 70.1829C480.603 69.8836 481.538 69.7286 482.575 69.7179L482.687 71.3212C482.11 71.3319 481.57 71.396 481.068 71.5136C480.565 71.6205 480.116 71.7915 479.721 72.0266C479.325 72.2618 478.983 72.5664 478.695 72.9405C478.417 73.3146 478.203 73.7742 478.053 74.3193C478.577 74.0734 479.149 73.9505 479.769 73.9505ZM487.47 79.2252C487.588 79.2359 487.743 79.2466 487.935 79.2573C488.128 79.2573 488.389 79.2573 488.721 79.2573C490.078 79.2573 491.088 78.9152 491.751 78.2312C492.424 77.5364 492.761 76.5692 492.761 75.3293C492.761 74.0681 492.435 73.1008 491.783 72.4274C491.131 71.7541 490.121 71.4174 488.753 71.4174C488.154 71.4174 487.727 71.4334 487.47 71.4655V79.2252ZM494.877 75.3293C494.877 76.2913 494.728 77.1303 494.428 77.8464C494.129 78.5518 493.702 79.145 493.146 79.626C492.601 80.0963 491.938 80.449 491.158 80.6842C490.388 80.9086 489.533 81.0208 488.593 81.0208C488.144 81.0208 487.636 80.9995 487.069 80.9567C486.503 80.9246 485.963 80.8498 485.45 80.7323V69.9424C485.963 69.8248 486.508 69.75 487.085 69.7179C487.663 69.6859 488.176 69.6698 488.625 69.6698C489.554 69.6698 490.404 69.7821 491.174 70.0065C491.943 70.2203 492.601 70.5623 493.146 71.0326C493.702 71.4922 494.129 72.0801 494.428 72.7962C494.728 73.5016 494.877 74.346 494.877 75.3293ZM497.083 80.8926V69.7821H504.218V71.4975H499.103V74.2391H503.656V75.9225H499.103V79.1771H504.602V80.8926H497.083Z" fill="white"/>
<path d="M548.826 15.2442C548.826 6.82505 555.651 0 564.07 0H654.788C663.207 0 670.032 6.82506 670.032 15.2442V138.522C670.032 146.941 663.207 153.766 654.788 153.766H564.07C555.651 153.766 548.826 146.941 548.826 138.522V15.2442Z" fill="#F69967"/>
<path d="M579.6 78.0709H577.372L576.827 80.8926H575.111L575.656 78.0709H574.374V76.5478H575.945L576.41 74.1269H574.374V72.6198H576.698L577.243 69.7821H578.959L578.414 72.6198H580.642L581.187 69.7821H582.903L582.358 72.6198H583.656V74.1269H582.069L581.604 76.5478H583.656V78.0709H581.316L580.771 80.8926H579.055L579.6 78.0709ZM577.66 76.5478H579.889L580.354 74.1269H578.125L577.66 76.5478ZM585.723 80.8926V69.7821H592.745V71.4975H587.743V74.3353H592.184V76.0508H587.743V80.8926H585.723ZM597.744 75.4896C597.434 75.4896 597.135 75.5164 596.846 75.5698C596.557 75.6232 596.296 75.7034 596.06 75.8103C596.05 75.8958 596.039 75.992 596.028 76.0989C596.028 76.1951 596.028 76.2913 596.028 76.3875C596.028 76.815 596.055 77.2211 596.109 77.6059C596.173 77.98 596.274 78.3113 596.413 78.5999C596.563 78.8778 596.761 79.1023 597.006 79.2733C597.263 79.4336 597.578 79.5138 597.952 79.5138C598.262 79.5138 598.524 79.4497 598.738 79.3214C598.962 79.1931 599.144 79.0275 599.283 78.8244C599.422 78.6213 599.523 78.4022 599.588 78.1671C599.652 77.9212 599.684 77.6861 599.684 77.4616C599.684 76.8203 599.529 76.334 599.219 76.0027C598.909 75.6606 598.417 75.4896 597.744 75.4896ZM597.984 73.9505C598.647 73.9505 599.208 74.0467 599.668 74.2391C600.138 74.4208 600.517 74.672 600.806 74.9926C601.095 75.3133 601.303 75.6874 601.431 76.1149C601.57 76.5317 601.64 76.97 601.64 77.4296C601.64 77.8464 601.565 78.2739 601.415 78.7122C601.276 79.1504 601.052 79.5512 600.742 79.9146C600.443 80.2673 600.063 80.5612 599.604 80.7964C599.144 81.0208 598.599 81.1331 597.968 81.1331C596.696 81.1331 595.724 80.7162 595.05 79.8825C594.388 79.0382 594.056 77.8785 594.056 76.4035C594.056 75.3347 594.211 74.3887 594.521 73.5657C594.842 72.732 595.291 72.032 595.868 71.4655C596.456 70.899 597.161 70.4715 597.984 70.1829C598.818 69.8836 599.753 69.7286 600.79 69.7179L600.902 71.3212C600.325 71.3319 599.785 71.396 599.283 71.5136C598.781 71.6205 598.332 71.7915 597.936 72.0266C597.541 72.2618 597.199 72.5664 596.91 72.9405C596.632 73.3146 596.418 73.7742 596.269 74.3193C596.793 74.0734 597.364 73.9505 597.984 73.9505ZM606.936 75.1369C607.246 75.1369 607.551 75.1102 607.85 75.0568C608.149 74.9926 608.406 74.9018 608.62 74.7842C608.63 74.6666 608.636 74.5651 608.636 74.4796C608.636 74.3941 608.636 74.3193 608.636 74.2551C608.636 73.8276 608.604 73.4268 608.539 73.0527C608.486 72.6679 608.384 72.3366 608.235 72.0587C608.096 71.7701 607.898 71.5456 607.642 71.3853C607.396 71.2143 607.086 71.1288 606.712 71.1288C606.402 71.1288 606.135 71.1929 605.91 71.3212C605.696 71.4494 605.52 71.6151 605.381 71.8182C605.242 72.0213 605.141 72.2404 605.076 72.4755C605.012 72.7107 604.98 72.9405 604.98 73.1649C604.98 73.8169 605.135 74.3086 605.445 74.6399C605.766 74.9712 606.263 75.1369 606.936 75.1369ZM608.459 76.3073C608.203 76.4249 607.92 76.5157 607.61 76.5798C607.3 76.644 607 76.676 606.712 76.676C606.049 76.676 605.483 76.5905 605.012 76.4195C604.553 76.2378 604.173 75.992 603.874 75.682C603.585 75.3614 603.372 74.9926 603.233 74.5758C603.094 74.1589 603.024 73.71 603.024 73.2291C603.024 72.8122 603.094 72.39 603.233 71.9625C603.372 71.5243 603.591 71.1235 603.89 70.76C604.189 70.3966 604.569 70.1027 605.028 69.8783C605.488 69.6431 606.033 69.5255 606.664 69.5255C607.968 69.5255 608.951 69.9477 609.614 70.7921C610.287 71.6258 610.624 72.8069 610.624 74.3353C610.624 76.4943 610.068 78.1296 608.956 79.2412C607.845 80.3528 606.14 80.914 603.842 80.9246L603.762 79.3054C604.403 79.3054 604.98 79.2519 605.493 79.145C606.017 79.0382 606.471 78.8671 606.856 78.632C607.252 78.3969 607.583 78.0922 607.85 77.7181C608.117 77.3334 608.32 76.8631 608.459 76.3073ZM616.048 75.1369C616.358 75.1369 616.663 75.1102 616.962 75.0568C617.262 74.9926 617.518 74.9018 617.732 74.7842C617.743 74.6666 617.748 74.5651 617.748 74.4796C617.748 74.3941 617.748 74.3193 617.748 74.2551C617.748 73.8276 617.716 73.4268 617.652 73.0527C617.598 72.6679 617.497 72.3366 617.347 72.0587C617.208 71.7701 617.01 71.5456 616.754 71.3853C616.508 71.2143 616.198 71.1288 615.824 71.1288C615.514 71.1288 615.247 71.1929 615.022 71.3212C614.809 71.4494 614.632 71.6151 614.493 71.8182C614.354 72.0213 614.253 72.2404 614.189 72.4755C614.125 72.7107 614.092 72.9405 614.092 73.1649C614.092 73.8169 614.247 74.3086 614.557 74.6399C614.878 74.9712 615.375 75.1369 616.048 75.1369ZM617.571 76.3073C617.315 76.4249 617.032 76.5157 616.722 76.5798C616.412 76.644 616.113 76.676 615.824 76.676C615.161 76.676 614.595 76.5905 614.125 76.4195C613.665 76.2378 613.285 75.992 612.986 75.682C612.698 75.3614 612.484 74.9926 612.345 74.5758C612.206 74.1589 612.136 73.71 612.136 73.2291C612.136 72.8122 612.206 72.39 612.345 71.9625C612.484 71.5243 612.703 71.1235 613.002 70.76C613.302 70.3966 613.681 70.1027 614.141 69.8783C614.6 69.6431 615.145 69.5255 615.776 69.5255C617.08 69.5255 618.063 69.9477 618.726 70.7921C619.399 71.6258 619.736 72.8069 619.736 74.3353C619.736 76.4943 619.18 78.1296 618.069 79.2412C616.957 80.3528 615.252 80.914 612.954 80.9246L612.874 79.3054C613.515 79.3054 614.092 79.2519 614.605 79.145C615.129 79.0382 615.583 78.8671 615.968 78.632C616.364 78.3969 616.695 78.0922 616.962 77.7181C617.229 77.3334 617.433 76.8631 617.571 76.3073ZM625.08 75.4896C624.77 75.4896 624.471 75.5164 624.183 75.5698C623.894 75.6232 623.632 75.7034 623.397 75.8103C623.386 75.8958 623.376 75.992 623.365 76.0989C623.365 76.1951 623.365 76.2913 623.365 76.3875C623.365 76.815 623.392 77.2211 623.445 77.6059C623.509 77.98 623.611 78.3113 623.75 78.5999C623.899 78.8778 624.097 79.1023 624.343 79.2733C624.599 79.4336 624.915 79.5138 625.289 79.5138C625.599 79.5138 625.861 79.4497 626.074 79.3214C626.299 79.1931 626.481 79.0275 626.62 78.8244C626.759 78.6213 626.86 78.4022 626.924 78.1671C626.988 77.9212 627.02 77.6861 627.02 77.4616C627.02 76.8203 626.865 76.334 626.555 76.0027C626.245 75.6606 625.754 75.4896 625.08 75.4896ZM625.321 73.9505C625.984 73.9505 626.545 74.0467 627.004 74.2391C627.475 74.4208 627.854 74.672 628.143 74.9926C628.431 75.3133 628.64 75.6874 628.768 76.1149C628.907 76.5317 628.976 76.97 628.976 77.4296C628.976 77.8464 628.902 78.2739 628.752 78.7122C628.613 79.1504 628.388 79.5512 628.079 79.9146C627.779 80.2673 627.4 80.5612 626.94 80.7964C626.481 81.0208 625.936 81.1331 625.305 81.1331C624.033 81.1331 623.06 80.7162 622.387 79.8825C621.724 79.0382 621.393 77.8785 621.393 76.4035C621.393 75.3347 621.548 74.3887 621.858 73.5657C622.179 72.732 622.627 72.032 623.205 71.4655C623.793 70.899 624.498 70.4715 625.321 70.1829C626.155 69.8836 627.09 69.7286 628.127 69.7179L628.239 71.3212C627.662 71.3319 627.122 71.396 626.62 71.5136C626.117 71.6205 625.668 71.7915 625.273 72.0266C624.877 72.2618 624.535 72.5664 624.247 72.9405C623.969 73.3146 623.755 73.7742 623.605 74.3193C624.129 74.0734 624.701 73.9505 625.321 73.9505ZM632.141 80.8926C632.205 80.0803 632.349 79.2252 632.573 78.3274C632.798 77.4296 633.07 76.5585 633.391 75.7141C633.722 74.859 634.08 74.0627 634.465 73.3252C634.861 72.5771 635.251 71.9518 635.636 71.4494H630.521V69.7821H637.944V71.2571C637.592 71.6525 637.207 72.1923 636.79 72.8763C636.373 73.5604 635.978 74.3353 635.604 75.201C635.229 76.0561 634.903 76.9753 634.626 77.9586C634.358 78.942 634.193 79.9199 634.129 80.8926H632.141Z" fill="white"/>
</svg>
