<svg width="636" height="230" viewBox="0 0 636 230" fill="none" xmlns="http://www.w3.org/2000/svg">
<path d="M3.88804 34.6085C3.24804 34.6085 2.73604 34.4645 2.35204 34.1765C1.96804 33.8885 1.74404 33.5045 1.68004 33.0245C1.61604 32.5445 1.71204 32.0005 1.96804 31.3925L14.976 2.20846C15.296 1.44046 15.696 0.89646 16.176 0.57646C16.688 0.25646 17.248 0.0964603 17.856 0.0964603C18.432 0.0964603 18.96 0.25646 19.44 0.57646C19.952 0.89646 20.368 1.44046 20.688 2.20846L33.696 31.3925C33.984 32.0005 34.096 32.5605 34.032 33.0725C33.968 33.5525 33.76 33.9365 33.408 34.2245C33.056 34.4805 32.56 34.6085 31.92 34.6085C31.216 34.6085 30.656 34.4325 30.24 34.0805C29.824 33.7285 29.456 33.1845 29.136 32.4485L25.776 24.6725L28.032 26.0165H7.58404L9.79204 24.6725L6.48004 32.4485C6.16004 33.2165 5.80804 33.7765 5.42404 34.1285C5.04004 34.4485 4.52804 34.6085 3.88804 34.6085ZM17.76 5.95246L10.512 23.1365L9.31204 21.9845H26.256L25.152 23.1365L17.856 5.95246H17.76ZM46.3838 34.7045C44.7518 34.7045 43.2798 34.3845 41.9678 33.7445C40.6878 33.1045 39.6798 32.2405 38.9438 31.1525C38.2078 30.0645 37.8398 28.8325 37.8398 27.4565C37.8398 25.7285 38.2718 24.3685 39.1358 23.3765C40.0318 22.3525 41.4878 21.6325 43.5038 21.2165C45.5518 20.7685 48.3038 20.5445 51.7598 20.5445H54.0158V23.5205H51.8078C49.5038 23.5205 47.6798 23.6325 46.3358 23.8565C44.9918 24.0805 44.0318 24.4645 43.4558 25.0085C42.9118 25.5205 42.6398 26.2405 42.6398 27.1685C42.6398 28.3845 43.0558 29.3765 43.8878 30.1445C44.7198 30.8805 45.8718 31.2485 47.3438 31.2485C48.5278 31.2485 49.5678 30.9765 50.4638 30.4325C51.3598 29.8565 52.0638 29.0885 52.5758 28.1285C53.1198 27.1685 53.3918 26.0645 53.3918 24.8165V19.2965C53.3918 17.4725 53.0078 16.1605 52.2398 15.3605C51.4718 14.5605 50.2078 14.1605 48.4478 14.1605C47.4238 14.1605 46.3518 14.2885 45.2318 14.5445C44.1438 14.8005 43.0078 15.2325 41.8238 15.8405C41.2798 16.0965 40.8158 16.1765 40.4318 16.0805C40.0478 15.9845 39.7438 15.7765 39.5198 15.4565C39.2958 15.1045 39.1678 14.7365 39.1358 14.3525C39.1358 13.9365 39.2318 13.5365 39.4238 13.1525C39.6478 12.7685 40.0158 12.4805 40.5278 12.2885C41.9358 11.6165 43.3278 11.1365 44.7038 10.8485C46.0798 10.5605 47.3758 10.4165 48.5918 10.4165C50.7358 10.4165 52.4958 10.7525 53.8718 11.4245C55.2798 12.0965 56.3198 13.1205 56.9918 14.4965C57.6638 15.8725 57.9998 17.6485 57.9998 19.8245V32.1605C57.9998 32.9285 57.8078 33.5365 57.4238 33.9845C57.0398 34.4005 56.4798 34.6085 55.7438 34.6085C55.0398 34.6085 54.4798 34.4005 54.0638 33.9845C53.6478 33.5365 53.4398 32.9285 53.4398 32.1605V29.0405H53.8718C53.6158 30.2245 53.1358 31.2485 52.4318 32.1125C51.7598 32.9445 50.9118 33.5845 49.8878 34.0325C48.8638 34.4805 47.6958 34.7045 46.3838 34.7045ZM80.5493 34.2725C79.6853 34.2725 79.0133 34.0485 78.5333 33.6005C78.0853 33.1205 77.8613 32.4485 77.8613 31.5845V3.12046C77.8613 2.25646 78.0853 1.60046 78.5333 1.15246C79.0133 0.672459 79.6853 0.432459 80.5493 0.432459H91.9733C94.3093 0.432459 96.2933 0.784459 97.9253 1.48846C99.5893 2.19246 100.853 3.20046 101.717 4.51246C102.613 5.82446 103.061 7.40846 103.061 9.26446C103.061 11.3125 102.453 13.0405 101.237 14.4485C100.021 15.8565 98.3733 16.8005 96.2933 17.2805V16.5605C98.6613 16.8805 100.517 17.7765 101.861 19.2485C103.205 20.6885 103.877 22.5765 103.877 24.9125C103.877 27.9205 102.885 30.2405 100.901 31.8725C98.9173 33.4725 96.1333 34.2725 92.5493 34.2725H80.5493ZM82.6613 30.4325H91.9733C94.3733 30.4325 96.1493 29.9685 97.3013 29.0405C98.4533 28.0805 99.0293 26.6405 99.0293 24.7205C99.0293 22.8005 98.4533 21.3765 97.3013 20.4485C96.1493 19.5205 94.3733 19.0565 91.9733 19.0565H82.6613V30.4325ZM82.6613 15.2165H91.2053C93.5093 15.2165 95.2533 14.7525 96.4373 13.8245C97.6213 12.8965 98.2133 11.5365 98.2133 9.74446C98.2133 7.95246 97.6213 6.59246 96.4373 5.66446C95.2533 4.73646 93.5093 4.27246 91.2053 4.27246H82.6613V15.2165ZM122.628 34.7045C120.58 34.7045 118.804 34.1925 117.3 33.1685C115.796 32.1125 114.788 30.7205 114.276 28.9925L114.804 28.1285V32.1605C114.804 32.9285 114.596 33.5365 114.18 33.9845C113.764 34.4005 113.188 34.6085 112.452 34.6085C111.684 34.6085 111.092 34.4005 110.676 33.9845C110.26 33.5365 110.052 32.9285 110.052 32.1605V2.54446C110.052 1.74446 110.26 1.13646 110.676 0.720458C111.092 0.30446 111.684 0.0964603 112.452 0.0964603C113.22 0.0964603 113.812 0.30446 114.228 0.720458C114.676 1.13646 114.9 1.74446 114.9 2.54446V15.9845H114.324C114.836 14.2885 115.844 12.9445 117.348 11.9525C118.852 10.9285 120.612 10.4165 122.628 10.4165C124.74 10.4165 126.564 10.9125 128.1 11.9045C129.636 12.8965 130.82 14.2885 131.652 16.0805C132.516 17.8725 132.948 20.0325 132.948 22.5605C132.948 25.0245 132.516 27.1845 131.652 29.0405C130.82 30.8645 129.62 32.2725 128.052 33.2645C126.516 34.2245 124.708 34.7045 122.628 34.7045ZM121.428 30.9605C122.772 30.9605 123.94 30.6405 124.932 30.0005C125.924 29.3605 126.692 28.4165 127.236 27.1685C127.78 25.9205 128.052 24.3845 128.052 22.5605C128.052 19.8085 127.444 17.7285 126.228 16.3205C125.044 14.9125 123.444 14.2085 121.428 14.2085C120.116 14.2085 118.948 14.5285 117.924 15.1685C116.932 15.7765 116.164 16.7045 115.62 17.9525C115.076 19.2005 114.804 20.7365 114.804 22.5605C114.804 25.2805 115.412 27.3605 116.628 28.8005C117.844 30.2405 119.444 30.9605 121.428 30.9605ZM166.764 34.7045C163.34 34.7045 160.412 34.0005 157.98 32.5925C155.548 31.1845 153.676 29.1845 152.364 26.5925C151.084 23.9685 150.444 20.8805 150.444 17.3285C150.444 14.6725 150.812 12.2885 151.548 10.1765C152.284 8.03246 153.34 6.20846 154.716 4.70446C156.124 3.16846 157.836 2.00046 159.852 1.20046C161.9 0.400459 164.204 0.000458717 166.764 0.000458717C168.652 0.000458717 170.46 0.256459 172.188 0.76846C173.948 1.28046 175.468 2.01646 176.748 2.97646C177.292 3.32846 177.644 3.76046 177.804 4.27246C177.996 4.75246 178.028 5.21646 177.9 5.66446C177.804 6.11246 177.596 6.49646 177.276 6.81646C176.956 7.10446 176.54 7.26446 176.028 7.29646C175.548 7.32846 175.02 7.15246 174.444 6.76846C173.388 5.96846 172.22 5.37646 170.94 4.99246C169.66 4.60846 168.316 4.41646 166.908 4.41646C164.476 4.41646 162.428 4.92846 160.764 5.95246C159.1 6.94446 157.836 8.40046 156.972 10.3205C156.108 12.2405 155.676 14.5765 155.676 17.3285C155.676 20.0805 156.108 22.4325 156.972 24.3845C157.836 26.3045 159.1 27.7765 160.764 28.8005C162.428 29.7925 164.476 30.2885 166.908 30.2885C168.316 30.2885 169.66 30.0965 170.94 29.7125C172.252 29.2965 173.484 28.6885 174.636 27.8885C175.212 27.5365 175.724 27.3765 176.172 27.4085C176.652 27.4405 177.052 27.6005 177.372 27.8885C177.692 28.1765 177.9 28.5445 177.996 28.9925C178.124 29.4085 178.108 29.8565 177.948 30.3365C177.82 30.7845 177.516 31.1685 177.036 31.4885C175.724 32.5445 174.172 33.3445 172.38 33.8885C170.588 34.4325 168.716 34.7045 166.764 34.7045ZM192.138 34.7045C189.738 34.7045 187.658 34.2085 185.898 33.2165C184.17 32.1925 182.826 30.7685 181.866 28.9445C180.906 27.0885 180.426 24.9125 180.426 22.4165C180.426 20.5605 180.698 18.8965 181.242 17.4245C181.786 15.9205 182.554 14.6565 183.546 13.6325C184.57 12.6085 185.802 11.8245 187.242 11.2805C188.714 10.7045 190.346 10.4165 192.138 10.4165C193.258 10.4165 194.426 10.5925 195.642 10.9445C196.89 11.2645 198.042 11.8085 199.098 12.5765C199.514 12.8325 199.77 13.1525 199.866 13.5365C199.994 13.8885 200.01 14.2565 199.914 14.6405C199.85 15.0245 199.674 15.3605 199.386 15.6485C199.13 15.9045 198.81 16.0645 198.426 16.1285C198.042 16.1605 197.626 16.0485 197.178 15.7925C196.41 15.2485 195.626 14.8645 194.826 14.6405C194.026 14.3845 193.258 14.2565 192.522 14.2565C191.37 14.2565 190.346 14.4485 189.45 14.8325C188.586 15.1845 187.85 15.7125 187.242 16.4165C186.634 17.0885 186.17 17.9365 185.85 18.9605C185.562 19.9845 185.418 21.1525 185.418 22.4645C185.418 25.0885 186.026 27.1525 187.242 28.6565C188.49 30.1285 190.25 30.8645 192.522 30.8645C193.258 30.8645 194.026 30.7525 194.826 30.5285C195.626 30.3045 196.41 29.9205 197.178 29.3765C197.626 29.1205 198.042 29.0245 198.426 29.0885C198.81 29.1525 199.114 29.3285 199.338 29.6165C199.594 29.8725 199.754 30.1925 199.818 30.5765C199.914 30.9285 199.898 31.2965 199.77 31.6805C199.642 32.0645 199.37 32.3845 198.954 32.6405C197.93 33.3765 196.81 33.9045 195.594 34.2245C194.41 34.5445 193.258 34.7045 192.138 34.7045ZM220.096 34.2725C219.232 34.2725 218.56 34.0485 218.08 33.6005C217.632 33.1205 217.408 32.4485 217.408 31.5845V3.12046C217.408 2.25646 217.632 1.60046 218.08 1.15246C218.56 0.672459 219.232 0.432459 220.096 0.432459H229.36C234.928 0.432459 239.216 1.88846 242.224 4.80046C245.264 7.68046 246.784 11.8565 246.784 17.3285C246.784 20.0485 246.4 22.4645 245.632 24.5765C244.864 26.6885 243.728 28.4645 242.224 29.9045C240.752 31.3125 238.944 32.4005 236.8 33.1685C234.656 33.9045 232.176 34.2725 229.36 34.2725H220.096ZM222.4 30.0965H229.072C231.184 30.0965 233.008 29.8405 234.544 29.3285C236.112 28.7845 237.424 27.9845 238.48 26.9285C239.536 25.8725 240.32 24.5445 240.832 22.9445C241.344 21.3445 241.6 19.4725 241.6 17.3285C241.6 13.0725 240.544 9.88846 238.432 7.77646C236.352 5.66446 233.232 4.60846 229.072 4.60846H222.4V30.0965ZM261.855 34.7045C259.807 34.7045 257.999 34.2245 256.431 33.2645C254.895 32.2725 253.695 30.8645 252.831 29.0405C251.967 27.1845 251.535 25.0245 251.535 22.5605C251.535 20.0325 251.967 17.8725 252.831 16.0805C253.695 14.2885 254.895 12.8965 256.431 11.9045C257.999 10.9125 259.807 10.4165 261.855 10.4165C263.903 10.4165 265.663 10.9285 267.135 11.9525C268.639 12.9445 269.647 14.2885 270.159 15.9845H269.631V2.54446C269.631 1.74446 269.839 1.13646 270.255 0.720458C270.671 0.30446 271.263 0.0964603 272.031 0.0964603C272.799 0.0964603 273.391 0.30446 273.807 0.720458C274.255 1.13646 274.479 1.74446 274.479 2.54446V32.1605C274.479 32.9285 274.271 33.5365 273.855 33.9845C273.439 34.4005 272.847 34.6085 272.079 34.6085C271.311 34.6085 270.719 34.4005 270.303 33.9845C269.887 33.5365 269.679 32.9285 269.679 32.1605V27.9365L270.207 28.9925C269.695 30.7205 268.687 32.1125 267.183 33.1685C265.711 34.1925 263.935 34.7045 261.855 34.7045ZM263.103 30.9605C264.415 30.9605 265.567 30.6405 266.559 30.0005C267.551 29.3605 268.319 28.4165 268.863 27.1685C269.439 25.9205 269.727 24.3845 269.727 22.5605C269.727 19.8085 269.119 17.7285 267.903 16.3205C266.687 14.9125 265.087 14.2085 263.103 14.2085C261.759 14.2085 260.591 14.5285 259.599 15.1685C258.607 15.7765 257.823 16.7045 257.247 17.9525C256.703 19.2005 256.431 20.7365 256.431 22.5605C256.431 25.2805 257.039 27.3605 258.255 28.8005C259.471 30.2405 261.087 30.9605 263.103 30.9605ZM297.159 34.2725C296.295 34.2725 295.623 34.0485 295.143 33.6005C294.695 33.1205 294.471 32.4485 294.471 31.5845V3.12046C294.471 2.25646 294.695 1.60046 295.143 1.15246C295.623 0.672459 296.295 0.432459 297.159 0.432459H314.679C315.351 0.432459 315.863 0.608459 316.215 0.960461C316.567 1.28046 316.743 1.76046 316.743 2.40046C316.743 3.07246 316.567 3.58446 316.215 3.93646C315.863 4.28846 315.351 4.46446 314.679 4.46446H299.271V15.0725H313.623C314.327 15.0725 314.839 15.2485 315.159 15.6005C315.511 15.9525 315.687 16.4485 315.687 17.0885C315.687 17.7605 315.511 18.2725 315.159 18.6245C314.839 18.9445 314.327 19.1045 313.623 19.1045H299.271V30.2405H314.679C315.351 30.2405 315.863 30.4165 316.215 30.7685C316.567 31.1205 316.743 31.6165 316.743 32.2565C316.743 32.9285 316.567 33.4405 316.215 33.7925C315.863 34.1125 315.351 34.2725 314.679 34.2725H297.159ZM333.013 34.7045C330.453 34.7045 328.245 34.2245 326.389 33.2645C324.565 32.2725 323.141 30.8805 322.117 29.0885C321.125 27.2645 320.629 25.1045 320.629 22.6085C320.629 20.1765 321.125 18.0485 322.117 16.2245C323.109 14.4005 324.469 12.9765 326.197 11.9525C327.925 10.9285 329.893 10.4165 332.101 10.4165C333.733 10.4165 335.189 10.6885 336.469 11.2325C337.749 11.7445 338.837 12.5125 339.733 13.5365C340.661 14.5285 341.349 15.7445 341.797 17.1845C342.277 18.6245 342.517 20.2405 342.517 22.0325C342.517 22.5765 342.357 22.9925 342.037 23.2805C341.717 23.5365 341.237 23.6645 340.597 23.6645H324.469V20.6885H339.253L338.437 21.3605C338.437 19.7605 338.197 18.4005 337.717 17.2805C337.269 16.1605 336.581 15.3125 335.653 14.7365C334.757 14.1285 333.637 13.8245 332.293 13.8245C330.789 13.8245 329.509 14.1765 328.453 14.8805C327.429 15.5845 326.645 16.5605 326.101 17.8085C325.557 19.0565 325.285 20.5125 325.285 22.1765V22.4645C325.285 25.2805 325.941 27.4085 327.253 28.8485C328.597 30.2565 330.533 30.9605 333.061 30.9605C334.021 30.9605 335.029 30.8325 336.085 30.5765C337.173 30.3205 338.197 29.8885 339.157 29.2805C339.701 28.9605 340.181 28.8165 340.597 28.8485C341.045 28.8805 341.397 29.0245 341.653 29.2805C341.941 29.5365 342.117 29.8565 342.181 30.2405C342.245 30.6245 342.181 31.0245 341.989 31.4405C341.797 31.8245 341.461 32.1765 340.981 32.4965C339.893 33.2325 338.629 33.7925 337.189 34.1765C335.749 34.5285 334.357 34.7045 333.013 34.7045ZM363.626 34.6085C362.794 34.6085 362.138 34.3845 361.658 33.9365C361.21 33.4885 360.986 32.8325 360.986 31.9685V3.12046C360.986 2.25646 361.21 1.60046 361.658 1.15246C362.138 0.672459 362.81 0.432459 363.674 0.432459H380.762C381.466 0.432459 381.978 0.608459 382.298 0.960461C382.65 1.28046 382.826 1.76046 382.826 2.40046C382.826 3.07246 382.65 3.58446 382.298 3.93646C381.978 4.28846 381.466 4.46446 380.762 4.46446H365.978V15.2645H379.802C380.442 15.2645 380.938 15.4405 381.29 15.7925C381.674 16.1125 381.866 16.5925 381.866 17.2325C381.866 17.9045 381.674 18.4165 381.29 18.7685C380.938 19.1205 380.442 19.2965 379.802 19.2965H365.978V31.9685C365.978 33.7285 365.194 34.6085 363.626 34.6085ZM390.876 34.6085C390.108 34.6085 389.5 34.4005 389.052 33.9845C388.636 33.5365 388.428 32.9285 388.428 32.1605V14.5925H385.74C385.132 14.5925 384.652 14.4325 384.3 14.1125C383.948 13.7605 383.772 13.2965 383.772 12.7205C383.772 12.1125 383.948 11.6485 384.3 11.3285C384.652 11.0085 385.132 10.8485 385.74 10.8485H389.82L388.428 12.1445V10.4165C388.428 7.24846 389.212 4.86446 390.78 3.26446C392.348 1.63246 394.636 0.67246 397.644 0.384459L399.132 0.288461C399.676 0.22446 400.108 0.30446 400.428 0.528461C400.748 0.75246 400.956 1.04046 401.052 1.39246C401.148 1.74446 401.148 2.11246 401.052 2.49646C400.988 2.84846 400.828 3.16846 400.572 3.45646C400.316 3.74446 399.996 3.90446 399.612 3.93646L398.7 3.98446C396.812 4.14446 395.436 4.68846 394.572 5.61646C393.708 6.51246 393.276 7.88846 393.276 9.74446V11.6165L392.604 10.8485H397.932C398.604 10.8485 399.1 11.0085 399.42 11.3285C399.772 11.6485 399.948 12.1125 399.948 12.7205C399.948 13.2965 399.772 13.7605 399.42 14.1125C399.1 14.4325 398.604 14.5925 397.932 14.5925H393.276V32.1605C393.276 33.7925 392.476 34.6085 390.876 34.6085ZM432.701 34.7045C429.021 34.7045 425.917 34.0165 423.389 32.6405C420.861 31.2325 418.941 29.2325 417.629 26.6405C416.349 24.0485 415.709 20.9605 415.709 17.3765C415.709 14.6885 416.077 12.2885 416.813 10.1765C417.581 8.03246 418.669 6.20846 420.077 4.70446C421.517 3.16846 423.261 2.00046 425.309 1.20046C427.389 0.400459 429.741 0.000458717 432.365 0.000458717C434.285 0.000458717 436.173 0.256459 438.029 0.76846C439.885 1.24846 441.581 2.04846 443.117 3.16846C443.565 3.48846 443.853 3.85646 443.981 4.27246C444.109 4.68846 444.109 5.12046 443.981 5.56846C443.885 5.98446 443.677 6.35246 443.357 6.67246C443.069 6.99246 442.701 7.18446 442.253 7.24846C441.837 7.31246 441.373 7.18446 440.861 6.86446C439.613 6.00046 438.301 5.37646 436.925 4.99246C435.549 4.57646 434.029 4.36846 432.365 4.36846C429.869 4.36846 427.757 4.88046 426.029 5.90446C424.333 6.92846 423.053 8.41646 422.189 10.3685C421.325 12.2885 420.893 14.6245 420.893 17.3765C420.893 21.6325 421.901 24.8645 423.917 27.0725C425.933 29.2805 428.925 30.3845 432.893 30.3845C434.333 30.3845 435.741 30.2565 437.117 30.0005C438.525 29.7125 439.869 29.3125 441.149 28.8005L440.141 31.2965V20.1125H433.949C433.309 20.1125 432.797 19.9525 432.413 19.6325C432.061 19.2805 431.885 18.8005 431.885 18.1925C431.885 17.5845 432.061 17.1365 432.413 16.8485C432.797 16.5285 433.309 16.3685 433.949 16.3685H442.253C442.925 16.3685 443.437 16.5445 443.789 16.8965C444.141 17.2485 444.317 17.7605 444.317 18.4325V30.5285C444.317 31.1045 444.205 31.6005 443.981 32.0165C443.789 32.4005 443.453 32.6885 442.973 32.8805C441.597 33.4245 439.981 33.8725 438.125 34.2245C436.269 34.5445 434.461 34.7045 432.701 34.7045ZM462.051 43.3445C460.323 43.3445 458.643 43.1685 457.011 42.8165C455.411 42.4645 453.955 41.8885 452.643 41.0885C452.163 40.8325 451.843 40.5125 451.683 40.1285C451.523 39.7765 451.475 39.4085 451.539 39.0245C451.635 38.6405 451.811 38.3045 452.067 38.0165C452.323 37.7285 452.627 37.5365 452.979 37.4405C453.363 37.3445 453.763 37.4085 454.179 37.6325C455.587 38.4005 456.915 38.9125 458.163 39.1685C459.443 39.4565 460.627 39.6005 461.715 39.6005C463.955 39.6005 465.635 39.0245 466.755 37.8725C467.875 36.7525 468.435 35.0885 468.435 32.8805V27.9845H468.867C468.387 29.7445 467.379 31.1365 465.843 32.1605C464.307 33.1845 462.531 33.6965 460.515 33.6965C458.403 33.6965 456.563 33.2165 454.995 32.2565C453.427 31.2645 452.211 29.9045 451.347 28.1765C450.483 26.4165 450.051 24.3685 450.051 22.0325C450.051 20.2725 450.291 18.6885 450.771 17.2805C451.283 15.8725 451.987 14.6565 452.883 13.6325C453.811 12.6085 454.915 11.8245 456.195 11.2805C457.507 10.7045 458.947 10.4165 460.515 10.4165C462.563 10.4165 464.339 10.9285 465.843 11.9525C467.379 12.9765 468.371 14.3685 468.819 16.1285L468.339 16.9445V12.9605C468.339 12.1605 468.547 11.5525 468.963 11.1365C469.411 10.7205 470.003 10.5125 470.739 10.5125C471.507 10.5125 472.099 10.7205 472.515 11.1365C472.931 11.5525 473.139 12.1605 473.139 12.9605V32.3045C473.139 35.9525 472.195 38.7045 470.307 40.5605C468.419 42.4165 465.667 43.3445 462.051 43.3445ZM461.667 29.9045C463.075 29.9045 464.275 29.5845 465.267 28.9445C466.259 28.3045 467.027 27.3925 467.571 26.2085C468.115 25.0245 468.387 23.6325 468.387 22.0325C468.387 19.6325 467.779 17.7285 466.563 16.3205C465.379 14.9125 463.747 14.2085 461.667 14.2085C460.291 14.2085 459.107 14.5285 458.115 15.1685C457.123 15.8085 456.339 16.7205 455.763 17.9045C455.219 19.0565 454.947 20.4325 454.947 22.0325C454.947 24.4645 455.555 26.3845 456.771 27.7925C457.987 29.2005 459.619 29.9045 461.667 29.9045ZM495.623 34.6085C494.823 34.6085 494.199 34.3845 493.751 33.9365C493.335 33.4885 493.127 32.8645 493.127 32.0645V2.64046C493.127 1.80846 493.335 1.18446 493.751 0.76846C494.199 0.32046 494.823 0.0964603 495.623 0.0964603C496.423 0.0964603 497.031 0.32046 497.447 0.76846C497.895 1.18446 498.119 1.80846 498.119 2.64046V15.0245H517.079V2.64046C517.079 1.80846 517.287 1.18446 517.703 0.76846C518.151 0.32046 518.775 0.0964603 519.575 0.0964603C520.375 0.0964603 520.983 0.32046 521.399 0.76846C521.815 1.18446 522.023 1.80846 522.023 2.64046V32.0645C522.023 32.8645 521.815 33.4885 521.399 33.9365C520.983 34.3845 520.375 34.6085 519.575 34.6085C518.775 34.6085 518.151 34.3845 517.703 33.9365C517.287 33.4885 517.079 32.8645 517.079 32.0645V19.2005H498.119V32.0645C498.119 32.8645 497.911 33.4885 497.495 33.9365C497.079 34.3845 496.455 34.6085 495.623 34.6085ZM531.796 34.6085C531.028 34.6085 530.436 34.4005 530.02 33.9845C529.604 33.5365 529.396 32.9285 529.396 32.1605V2.54446C529.396 1.74446 529.604 1.13646 530.02 0.720458C530.436 0.30446 531.028 0.0964603 531.796 0.0964603C532.564 0.0964603 533.156 0.30446 533.572 0.720458C534.02 1.13646 534.244 1.74446 534.244 2.54446V15.8405H533.572C534.276 14.0485 535.38 12.7045 536.884 11.8085C538.388 10.8805 540.116 10.4165 542.068 10.4165C543.924 10.4165 545.46 10.7685 546.676 11.4725C547.924 12.1445 548.852 13.1845 549.46 14.5925C550.068 15.9685 550.372 17.7125 550.372 19.8245V32.1605C550.372 32.9285 550.164 33.5365 549.748 33.9845C549.332 34.4005 548.74 34.6085 547.972 34.6085C547.172 34.6085 546.564 34.4005 546.148 33.9845C545.732 33.5365 545.524 32.9285 545.524 32.1605V20.1125C545.524 18.0965 545.124 16.6245 544.324 15.6965C543.556 14.7685 542.34 14.3045 540.676 14.3045C538.724 14.3045 537.156 14.9125 535.972 16.1285C534.82 17.3445 534.244 18.9765 534.244 21.0245V32.1605C534.244 33.7925 533.428 34.6085 531.796 34.6085ZM572.732 34.6085C571.932 34.6085 571.308 34.3845 570.86 33.9365C570.444 33.4885 570.236 32.8645 570.236 32.0645V2.64046C570.236 1.80846 570.444 1.18446 570.86 0.76846C571.308 0.32046 571.932 0.0964603 572.732 0.0964603C573.532 0.0964603 574.14 0.32046 574.556 0.76846C575.004 1.18446 575.228 1.80846 575.228 2.64046V32.0645C575.228 32.8645 575.02 33.4885 574.604 33.9365C574.188 34.3845 573.564 34.6085 572.732 34.6085ZM584.952 34.5605C584.184 34.5605 583.592 34.3365 583.176 33.8885C582.76 33.4085 582.552 32.7525 582.552 31.9205V13.2005C582.552 12.3685 582.76 11.7285 583.176 11.2805C583.592 10.8325 584.184 10.6085 584.952 10.6085C585.72 10.6085 586.312 10.8325 586.728 11.2805C587.176 11.7285 587.4 12.3685 587.4 13.2005V31.9205C587.4 32.7525 587.192 33.4085 586.776 33.8885C586.36 34.3365 585.752 34.5605 584.952 34.5605ZM584.952 5.61646C583.992 5.61646 583.24 5.37646 582.696 4.89646C582.184 4.41646 581.928 3.74446 581.928 2.88046C581.928 1.98446 582.184 1.31246 582.696 0.864459C583.24 0.384459 583.992 0.14446 584.952 0.14446C585.912 0.14446 586.648 0.384459 587.16 0.864459C587.704 1.31246 587.976 1.98446 587.976 2.88046C587.976 3.74446 587.704 4.41646 587.16 4.89646C586.648 5.37646 585.912 5.61646 584.952 5.61646ZM605.2 34.5605C604.464 34.5925 603.888 34.4005 603.472 33.9845C603.056 33.5685 602.848 33.0405 602.848 32.4005C602.848 31.9205 603.008 31.4885 603.328 31.1045C603.616 30.7205 604.048 30.5125 604.624 30.4805L606.112 30.3845C607.648 30.2565 608.816 29.7445 609.616 28.8485C610.416 27.9205 610.816 26.6405 610.816 25.0085V2.59246C610.816 1.76046 611.024 1.13646 611.44 0.720458C611.856 0.30446 612.464 0.0964603 613.264 0.0964603C614.064 0.0964603 614.672 0.30446 615.088 0.720458C615.536 1.13646 615.76 1.76046 615.76 2.59246V25.0085C615.76 26.9285 615.408 28.5765 614.704 29.9525C614.032 31.2965 613.04 32.3525 611.728 33.1205C610.416 33.8885 608.784 34.3365 606.832 34.4645L605.2 34.5605ZM619.355 43.3925C618.779 43.4245 618.315 43.3285 617.963 43.1045C617.579 42.8805 617.323 42.5925 617.195 42.2405C617.035 41.8885 616.987 41.5205 617.051 41.1365C617.083 40.7845 617.243 40.4645 617.531 40.1765C617.787 39.9205 618.139 39.7765 618.587 39.7445C620.187 39.6485 621.355 39.2165 622.091 38.4485C622.859 37.6805 623.243 36.4645 623.243 34.8005V12.9605C623.243 12.1605 623.451 11.5525 623.867 11.1365C624.315 10.7205 624.923 10.5125 625.691 10.5125C626.491 10.5125 627.083 10.7205 627.467 11.1365C627.883 11.5525 628.091 12.1605 628.091 12.9605V34.4165C628.091 36.4005 627.755 38.0325 627.083 39.3125C626.443 40.6245 625.483 41.6005 624.203 42.2405C622.923 42.8805 621.307 43.2645 619.355 43.3925ZM625.691 5.61646C624.731 5.61646 623.979 5.37646 623.435 4.89646C622.923 4.41646 622.667 3.74446 622.667 2.88046C622.667 1.98446 622.923 1.31246 623.435 0.864459C623.979 0.384459 624.731 0.14446 625.691 0.14446C626.651 0.14446 627.387 0.384459 627.899 0.864459C628.411 1.31246 628.667 1.98446 628.667 2.88046C628.667 3.74446 628.411 4.41646 627.899 4.89646C627.387 5.37646 626.651 5.61646 625.691 5.61646ZM6.57604 99.6085C5.77604 99.6085 5.15204 99.3845 4.70404 98.9365C4.28804 98.4885 4.08004 97.8645 4.08004 97.0645V67.5925C4.08004 66.7605 4.28804 66.1365 4.70404 65.7205C5.15204 65.3045 5.77604 65.0965 6.57604 65.0965C7.37604 65.0965 7.98404 65.3045 8.40004 65.7205C8.84804 66.1365 9.07204 66.7605 9.07204 67.5925V80.6485H9.16804L23.904 66.3925C24.384 65.9445 24.832 65.6245 25.248 65.4325C25.696 65.2085 26.192 65.0965 26.736 65.0965C27.472 65.0965 28 65.2885 28.32 65.6725C28.672 66.0245 28.816 66.4565 28.752 66.9685C28.688 67.4805 28.416 67.9765 27.936 68.4565L12.624 83.0485L12.72 80.6005L28.656 95.9605C29.232 96.5045 29.536 97.0645 29.568 97.6405C29.6 98.2165 29.424 98.6965 29.04 99.0805C28.656 99.4325 28.112 99.6085 27.408 99.6085C26.768 99.6085 26.256 99.4805 25.872 99.2245C25.488 98.9685 25.04 98.6005 24.528 98.1205L9.16804 83.4805H9.07204V97.0645C9.07204 97.8645 8.86404 98.4885 8.44804 98.9365C8.03204 99.3845 7.40804 99.6085 6.57604 99.6085ZM37.6395 99.6085C36.8715 99.6085 36.2795 99.4005 35.8635 98.9845C35.4475 98.5365 35.2395 97.9285 35.2395 97.1605V67.5445C35.2395 66.7445 35.4475 66.1365 35.8635 65.7205C36.2795 65.3045 36.8715 65.0965 37.6395 65.0965C38.4075 65.0965 38.9995 65.3045 39.4155 65.7205C39.8635 66.1365 40.0875 66.7445 40.0875 67.5445V86.0725H40.1835L49.1595 77.1445C49.6715 76.6325 50.1355 76.2325 50.5515 75.9445C50.9675 75.6565 51.5115 75.5125 52.1835 75.5125C52.8555 75.5125 53.3675 75.6885 53.7195 76.0405C54.0715 76.3925 54.2475 76.8245 54.2475 77.3365C54.2475 77.8165 54.0075 78.3125 53.5275 78.8245L44.0235 88.2325V85.9765L54.3915 96.2965C54.9035 96.8085 55.1435 97.3205 55.1115 97.8325C55.0795 98.3445 54.8715 98.7765 54.4875 99.1285C54.1035 99.4485 53.6235 99.6085 53.0475 99.6085C52.3115 99.6085 51.7195 99.4645 51.2715 99.1765C50.8555 98.8885 50.3595 98.4565 49.7835 97.8805L40.1835 88.5685H40.0875V97.1605C40.0875 98.7925 39.2715 99.6085 37.6395 99.6085ZM75.7178 99.2725C74.9178 99.2725 74.2938 99.0485 73.8458 98.6005C73.3978 98.1525 73.1738 97.5285 73.1738 96.7285V67.7845C73.1738 66.9525 73.3818 66.3285 73.7978 65.9125C74.2458 65.4645 74.8698 65.2405 75.6698 65.2405C76.4698 65.2405 77.0778 65.4645 77.4938 65.9125C77.9418 66.3285 78.1658 66.9525 78.1658 67.7845V95.0005H93.0458C93.7498 95.0005 94.2938 95.1925 94.6778 95.5765C95.0618 95.9285 95.2538 96.4405 95.2538 97.1125C95.2538 97.7845 95.0618 98.3125 94.6778 98.6965C94.2938 99.0805 93.7498 99.2725 93.0458 99.2725H75.7178ZM106.666 99.7045C104.17 99.7045 102.282 98.9845 101.002 97.5445C99.7542 96.0725 99.1302 93.9605 99.1302 91.2085V67.5445C99.1302 66.7445 99.3382 66.1365 99.7542 65.7205C100.17 65.3045 100.762 65.0965 101.53 65.0965C102.298 65.0965 102.89 65.3045 103.306 65.7205C103.754 66.1365 103.978 66.7445 103.978 67.5445V90.9205C103.978 92.5205 104.298 93.7205 104.938 94.5205C105.61 95.2885 106.57 95.6725 107.818 95.6725C108.106 95.6725 108.362 95.6725 108.586 95.6725C108.81 95.6405 109.034 95.6085 109.258 95.5765C109.642 95.5445 109.914 95.6565 110.074 95.9125C110.234 96.1365 110.314 96.6165 110.314 97.3525C110.314 98.0245 110.17 98.5525 109.882 98.9365C109.594 99.2885 109.13 99.5125 108.49 99.6085C108.202 99.6405 107.898 99.6565 107.578 99.6565C107.258 99.6885 106.954 99.7045 106.666 99.7045ZM129.386 99.6085C128.65 99.6085 128.074 99.4005 127.658 98.9845C127.274 98.5685 127.082 97.9925 127.082 97.2565V67.4485C127.082 66.6805 127.29 66.1045 127.706 65.7205C128.122 65.3045 128.682 65.0965 129.386 65.0965C130.058 65.0965 130.57 65.2245 130.922 65.4805C131.306 65.7045 131.658 66.1205 131.978 66.7285L144.554 90.2005H143.066L155.594 66.7285C155.914 66.1205 156.25 65.7045 156.602 65.4805C156.954 65.2245 157.466 65.0965 158.138 65.0965C158.842 65.0965 159.386 65.3045 159.77 65.7205C160.154 66.1045 160.346 66.6805 160.346 67.4485V97.2565C160.346 97.9925 160.154 98.5685 159.77 98.9845C159.418 99.4005 158.874 99.6085 158.138 99.6085C157.402 99.6085 156.842 99.4005 156.458 98.9845C156.074 98.5685 155.882 97.9925 155.882 97.2565V72.4885H156.938L145.802 93.0805C145.546 93.5605 145.274 93.9125 144.986 94.1365C144.698 94.3605 144.298 94.4725 143.786 94.4725C143.274 94.4725 142.858 94.3605 142.538 94.1365C142.218 93.8805 141.93 93.5285 141.674 93.0805L130.442 72.4405H131.594V97.2565C131.594 97.9925 131.402 98.5685 131.018 98.9845C130.666 99.4005 130.122 99.6085 129.386 99.6085ZM170.298 99.6085C169.53 99.6085 168.938 99.4005 168.522 98.9845C168.106 98.5365 167.898 97.9285 167.898 97.1605V77.9605C167.898 77.1605 168.106 76.5525 168.522 76.1365C168.938 75.7205 169.514 75.5125 170.25 75.5125C171.018 75.5125 171.594 75.7205 171.978 76.1365C172.394 76.5525 172.602 77.1605 172.602 77.9605V81.8965L172.074 80.8405C172.714 79.1445 173.706 77.8165 175.05 76.8565C176.394 75.8965 178.01 75.4165 179.898 75.4165C181.85 75.4165 183.434 75.8805 184.65 76.8085C185.866 77.7365 186.698 79.1605 187.146 81.0805H186.474C187.082 79.3205 188.122 77.9445 189.594 76.9525C191.066 75.9285 192.778 75.4165 194.73 75.4165C196.522 75.4165 197.994 75.7685 199.146 76.4725C200.298 77.1445 201.162 78.1845 201.738 79.5925C202.314 80.9685 202.602 82.7125 202.602 84.8245V97.1605C202.602 97.9285 202.378 98.5365 201.93 98.9845C201.514 99.4005 200.922 99.6085 200.154 99.6085C199.386 99.6085 198.794 99.4005 198.378 98.9845C197.962 98.5365 197.754 97.9285 197.754 97.1605V85.0645C197.754 83.0805 197.402 81.6245 196.698 80.6965C196.026 79.7685 194.906 79.3045 193.338 79.3045C191.578 79.3045 190.186 79.9125 189.162 81.1285C188.138 82.3445 187.626 84.0245 187.626 86.1685V97.1605C187.626 97.9285 187.418 98.5365 187.002 98.9845C186.586 99.4005 185.994 99.6085 185.226 99.6085C184.458 99.6085 183.85 99.4005 183.402 98.9845C182.986 98.5365 182.778 97.9285 182.778 97.1605V85.0645C182.778 83.0805 182.442 81.6245 181.77 80.6965C181.098 79.7685 179.978 79.3045 178.41 79.3045C176.65 79.3045 175.258 79.9125 174.234 81.1285C173.242 82.3445 172.746 84.0245 172.746 86.1685V97.1605C172.746 98.7925 171.93 99.6085 170.298 99.6085ZM224.916 99.6085C224.18 99.6085 223.604 99.4005 223.188 98.9845C222.772 98.5685 222.564 97.9765 222.564 97.2085V67.5925C222.564 66.7925 222.756 66.1845 223.14 65.7685C223.556 65.3205 224.1 65.0965 224.772 65.0965C225.348 65.0965 225.78 65.2085 226.068 65.4325C226.388 65.6245 226.756 65.9925 227.172 66.5365L246.948 92.6005H245.748V67.4485C245.748 66.7125 245.94 66.1365 246.324 65.7205C246.74 65.3045 247.316 65.0965 248.052 65.0965C248.82 65.0965 249.396 65.3045 249.78 65.7205C250.164 66.1365 250.356 66.7125 250.356 67.4485V97.2565C250.356 97.9925 250.164 98.5685 249.78 98.9845C249.428 99.4005 248.948 99.6085 248.34 99.6085C247.764 99.6085 247.284 99.4965 246.9 99.2725C246.548 99.0485 246.164 98.6645 245.748 98.1205L226.068 72.1045H227.172V97.2085C227.172 97.9765 226.98 98.5685 226.596 98.9845C226.212 99.4005 225.652 99.6085 224.916 99.6085ZM260.108 99.6085C259.34 99.6085 258.748 99.4005 258.332 98.9845C257.916 98.5365 257.708 97.9285 257.708 97.1605V77.9605C257.708 77.1605 257.916 76.5525 258.332 76.1365C258.748 75.7205 259.324 75.5125 260.06 75.5125C260.828 75.5125 261.404 75.7205 261.788 76.1365C262.204 76.5525 262.412 77.1605 262.412 77.9605V81.7045L261.884 80.8405C262.588 79.0485 263.692 77.7045 265.196 76.8085C266.7 75.8805 268.428 75.4165 270.38 75.4165C272.236 75.4165 273.772 75.7685 274.988 76.4725C276.236 77.1445 277.164 78.1845 277.772 79.5925C278.38 80.9685 278.684 82.7125 278.684 84.8245V97.1605C278.684 97.9285 278.476 98.5365 278.06 98.9845C277.644 99.4005 277.052 99.6085 276.284 99.6085C275.484 99.6085 274.876 99.4005 274.46 98.9845C274.044 98.5365 273.836 97.9285 273.836 97.1605V85.1125C273.836 83.0965 273.436 81.6245 272.636 80.6965C271.868 79.7685 270.652 79.3045 268.988 79.3045C267.036 79.3045 265.468 79.9125 264.284 81.1285C263.132 82.3445 262.556 83.9765 262.556 86.0245V97.1605C262.556 98.7925 261.74 99.6085 260.108 99.6085ZM313.237 99.7045C310.037 99.7045 307.237 99.0005 304.837 97.5925C302.469 96.1525 300.629 94.1365 299.317 91.5445C298.037 88.9205 297.397 85.8485 297.397 82.3285C297.397 79.6725 297.765 77.2885 298.501 75.1765C299.237 73.0325 300.293 71.2085 301.669 69.7045C303.045 68.1685 304.709 67.0005 306.661 66.2005C308.613 65.4005 310.805 65.0005 313.237 65.0005C316.469 65.0005 319.269 65.7045 321.637 67.1125C324.005 68.5205 325.829 70.5205 327.109 73.1125C328.421 75.7045 329.077 78.7605 329.077 82.2805C329.077 84.9365 328.709 87.3365 327.973 89.4805C327.237 91.6245 326.165 93.4645 324.757 95.0005C323.381 96.5365 321.717 97.7045 319.765 98.5045C317.813 99.3045 315.637 99.7045 313.237 99.7045ZM313.237 95.3845C315.477 95.3845 317.381 94.8725 318.949 93.8485C320.549 92.8245 321.765 91.3365 322.597 89.3845C323.461 87.4325 323.893 85.0805 323.893 82.3285C323.893 78.2005 322.965 75.0005 321.109 72.7285C319.253 70.4565 316.629 69.3205 313.237 69.3205C310.997 69.3205 309.077 69.8325 307.477 70.8565C305.909 71.8485 304.693 73.3205 303.829 75.2725C302.997 77.2245 302.581 79.5765 302.581 82.3285C302.581 86.4245 303.509 89.6245 305.365 91.9285C307.253 94.2325 309.877 95.3845 313.237 95.3845ZM345.416 99.7045C343.048 99.7045 341 99.2085 339.272 98.2165C337.576 97.2245 336.248 95.8165 335.288 93.9925C334.328 92.1685 333.848 90.0245 333.848 87.5605C333.848 85.6725 334.12 83.9925 334.664 82.5205C335.208 81.0485 335.976 79.7845 336.968 78.7285C337.992 77.6405 339.208 76.8245 340.616 76.2805C342.056 75.7045 343.656 75.4165 345.416 75.4165C347.752 75.4165 349.768 75.9125 351.464 76.9045C353.192 77.8965 354.536 79.3045 355.496 81.1285C356.456 82.9205 356.936 85.0645 356.936 87.5605C356.936 89.4165 356.664 91.0965 356.12 92.6005C355.576 94.1045 354.792 95.3845 353.768 96.4405C352.776 97.4965 351.56 98.3125 350.12 98.8885C348.712 99.4325 347.144 99.7045 345.416 99.7045ZM345.416 95.9605C346.728 95.9605 347.88 95.6405 348.872 95.0005C349.864 94.3605 350.632 93.4165 351.176 92.1685C351.752 90.9205 352.04 89.3845 352.04 87.5605C352.04 84.8085 351.432 82.7285 350.216 81.3205C349 79.9125 347.4 79.2085 345.416 79.2085C344.072 79.2085 342.904 79.5285 341.912 80.1685C340.92 80.7765 340.136 81.7045 339.56 82.9525C339.016 84.2005 338.744 85.7365 338.744 87.5605C338.744 90.2805 339.352 92.3605 340.568 93.8005C341.784 95.2405 343.4 95.9605 345.416 95.9605ZM378.06 99.6085C377.26 99.6085 376.636 99.3845 376.188 98.9365C375.772 98.4885 375.564 97.8645 375.564 97.0645V67.9765C375.564 67.1445 375.788 66.5205 376.236 66.1045C376.684 65.6565 377.308 65.4325 378.108 65.4325H389.58C393.228 65.4325 396.044 66.3445 398.028 68.1685C400.012 69.9605 401.004 72.4885 401.004 75.7525C401.004 79.0485 400.012 81.6085 398.028 83.4325C396.044 85.2245 393.228 86.1205 389.58 86.1205H380.556V97.0645C380.556 97.8645 380.348 98.4885 379.932 98.9365C379.516 99.3845 378.892 99.6085 378.06 99.6085ZM380.556 82.1365H388.86C391.26 82.1365 393.068 81.6085 394.284 80.5525C395.532 79.4645 396.156 77.8645 396.156 75.7525C396.156 73.6725 395.532 72.1045 394.284 71.0485C393.068 69.9605 391.26 69.4165 388.86 69.4165H380.556V82.1365ZM407.765 108.248C406.997 108.248 406.405 108.04 405.989 107.624C405.573 107.208 405.365 106.6 405.365 105.8V77.9605C405.365 77.1605 405.573 76.5525 405.989 76.1365C406.405 75.7205 406.981 75.5125 407.717 75.5125C408.485 75.5125 409.077 75.7205 409.493 76.1365C409.909 76.5525 410.117 77.1605 410.117 77.9605V82.1365L409.589 81.1285C410.101 79.4005 411.109 78.0245 412.613 77.0005C414.117 75.9445 415.893 75.4165 417.941 75.4165C420.021 75.4165 421.829 75.9125 423.365 76.9045C424.933 77.8965 426.133 79.2885 426.965 81.0805C427.829 82.8725 428.261 85.0325 428.261 87.5605C428.261 90.0245 427.829 92.1845 426.965 94.0405C426.133 95.8645 424.949 97.2725 423.413 98.2645C421.877 99.2245 420.053 99.7045 417.941 99.7045C415.925 99.7045 414.165 99.1925 412.661 98.1685C411.157 97.1445 410.149 95.7845 409.637 94.0885H410.213V105.8C410.213 106.6 409.989 107.208 409.541 107.624C409.125 108.04 408.533 108.248 407.765 108.248ZM416.741 95.9605C418.085 95.9605 419.253 95.6405 420.245 95.0005C421.237 94.3605 422.005 93.4165 422.549 92.1685C423.093 90.9205 423.365 89.3845 423.365 87.5605C423.365 84.8085 422.757 82.7285 421.541 81.3205C420.357 79.9125 418.757 79.2085 416.741 79.2085C415.429 79.2085 414.261 79.5285 413.237 80.1685C412.245 80.7765 411.477 81.7045 410.933 82.9525C410.389 84.2005 410.117 85.7365 410.117 87.5605C410.117 90.2805 410.725 92.3605 411.941 93.8005C413.157 95.2405 414.757 95.9605 416.741 95.9605ZM473.836 105.224C474.22 105.8 474.38 106.328 474.316 106.808C474.252 107.288 474.044 107.688 473.692 108.008C473.372 108.36 472.956 108.568 472.444 108.632C471.964 108.728 471.468 108.68 470.956 108.488C470.476 108.296 470.06 107.912 469.708 107.336L466.54 102.2C466.06 101.4 465.404 100.776 464.572 100.328C463.74 99.9125 462.732 99.7045 461.548 99.7045L465.484 98.1205C466.988 98.1205 468.172 98.3925 469.036 98.9365C469.932 99.4485 470.812 100.392 471.676 101.768L473.836 105.224ZM461.596 99.7045C458.396 99.7045 455.596 99.0005 453.196 97.5925C450.828 96.1525 448.988 94.1365 447.676 91.5445C446.396 88.9205 445.756 85.8485 445.756 82.3285C445.756 79.6725 446.124 77.2885 446.86 75.1765C447.596 73.0325 448.652 71.2085 450.028 69.7045C451.404 68.1685 453.068 67.0005 455.02 66.2005C456.972 65.4005 459.164 65.0005 461.596 65.0005C464.828 65.0005 467.628 65.7045 469.996 67.1125C472.364 68.5205 474.188 70.5205 475.468 73.1125C476.78 75.7045 477.436 78.7605 477.436 82.2805C477.436 84.9365 477.068 87.3365 476.332 89.4805C475.596 91.6245 474.524 93.4645 473.116 95.0005C471.74 96.5365 470.076 97.7045 468.124 98.5045C466.172 99.3045 463.996 99.7045 461.596 99.7045ZM461.596 95.3845C463.836 95.3845 465.74 94.8725 467.308 93.8485C468.908 92.8245 470.124 91.3365 470.956 89.3845C471.82 87.4325 472.252 85.0805 472.252 82.3285C472.252 78.2005 471.324 75.0005 469.468 72.7285C467.612 70.4565 464.988 69.3205 461.596 69.3205C459.356 69.3205 457.436 69.8325 455.836 70.8565C454.268 71.8485 453.052 73.3205 452.188 75.2725C451.356 77.2245 450.94 79.5765 450.94 82.3285C450.94 86.4245 451.868 89.6245 453.724 91.9285C455.612 94.2325 458.236 95.3845 461.596 95.3845ZM502.703 108.248C501.935 108.248 501.343 108.04 500.927 107.624C500.511 107.208 500.303 106.6 500.303 105.8V94.0885H500.831C500.319 95.7845 499.311 97.1445 497.807 98.1685C496.335 99.1925 494.575 99.7045 492.527 99.7045C490.479 99.7045 488.671 99.2245 487.103 98.2645C485.567 97.2725 484.367 95.8645 483.503 94.0405C482.639 92.1845 482.207 90.0245 482.207 87.5605C482.207 85.0325 482.639 82.8725 483.503 81.0805C484.367 79.2885 485.567 77.8965 487.103 76.9045C488.671 75.9125 490.479 75.4165 492.527 75.4165C494.607 75.4165 496.383 75.9445 497.855 77.0005C499.359 78.0245 500.367 79.4005 500.879 81.1285L500.351 82.1365V77.9605C500.351 77.1605 500.559 76.5525 500.975 76.1365C501.391 75.7205 501.983 75.5125 502.751 75.5125C503.519 75.5125 504.111 75.7205 504.527 76.1365C504.943 76.5525 505.151 77.1605 505.151 77.9605V105.8C505.151 106.6 504.927 107.208 504.479 107.624C504.063 108.04 503.471 108.248 502.703 108.248ZM493.775 95.9605C495.087 95.9605 496.239 95.6405 497.231 95.0005C498.223 94.3605 498.991 93.4165 499.535 92.1685C500.111 90.9205 500.399 89.3845 500.399 87.5605C500.399 84.8085 499.791 82.7285 498.575 81.3205C497.359 79.9125 495.759 79.2085 493.775 79.2085C492.431 79.2085 491.263 79.5285 490.271 80.1685C489.279 80.7765 488.495 81.7045 487.919 82.9525C487.375 84.2005 487.103 85.7365 487.103 87.5605C487.103 90.2805 487.711 92.3605 488.927 93.8005C490.143 95.2405 491.759 95.9605 493.775 95.9605ZM527.639 99.6085C526.839 99.6085 526.215 99.3845 525.767 98.9365C525.351 98.4885 525.143 97.8645 525.143 97.0645V67.9765C525.143 67.1445 525.367 66.5205 525.815 66.1045C526.263 65.6565 526.887 65.4325 527.687 65.4325H539.159C542.807 65.4325 545.623 66.2965 547.607 68.0245C549.591 69.7525 550.583 72.2005 550.583 75.3685C550.583 77.4165 550.135 79.1765 549.239 80.6485C548.343 82.1205 547.031 83.2405 545.303 84.0085C543.607 84.7765 541.559 85.1605 539.159 85.1605L539.591 84.4885H540.839C542.119 84.4885 543.223 84.8085 544.151 85.4485C545.111 86.0885 545.975 87.1125 546.743 88.5205L550.871 96.2005C551.191 96.7765 551.335 97.3365 551.303 97.8805C551.303 98.3925 551.111 98.8085 550.727 99.1285C550.375 99.4485 549.863 99.6085 549.191 99.6085C548.487 99.6085 547.911 99.4645 547.463 99.1765C547.047 98.8565 546.663 98.3925 546.311 97.7845L541.271 88.4725C540.599 87.2245 539.831 86.3925 538.967 85.9765C538.103 85.5285 536.967 85.3045 535.559 85.3045H530.135V97.0645C530.135 97.8645 529.927 98.4885 529.511 98.9365C529.095 99.3845 528.471 99.6085 527.639 99.6085ZM530.135 81.5605H538.343C540.775 81.5605 542.615 81.0485 543.863 80.0245C545.111 79.0005 545.735 77.4805 545.735 75.4645C545.735 73.4805 545.111 71.9765 543.863 70.9525C542.615 69.9285 540.775 69.4165 538.343 69.4165H530.135V81.5605ZM559.547 99.6085C558.747 99.6085 558.139 99.4005 557.723 98.9845C557.307 98.5365 557.099 97.9285 557.099 97.1605V77.9605C557.099 77.1605 557.307 76.5525 557.723 76.1365C558.139 75.7205 558.715 75.5125 559.451 75.5125C560.219 75.5125 560.795 75.7205 561.179 76.1365C561.595 76.5525 561.803 77.1605 561.803 77.9605V81.4645H561.323C561.835 79.5445 562.779 78.0885 564.155 77.0965C565.531 76.1045 567.291 75.5285 569.435 75.3685C570.011 75.3365 570.459 75.4805 570.779 75.8005C571.131 76.1205 571.323 76.6165 571.355 77.2885C571.419 77.9605 571.275 78.5045 570.923 78.9205C570.571 79.3045 570.027 79.5285 569.291 79.5925L568.379 79.6885C566.299 79.8805 564.715 80.5365 563.627 81.6565C562.539 82.7765 561.995 84.3125 561.995 86.2645V97.1605C561.995 97.9285 561.787 98.5365 561.371 98.9845C560.987 99.4005 560.379 99.6085 559.547 99.6085ZM599.469 99.7045C597.997 99.7045 596.557 99.5925 595.149 99.3685C593.741 99.1445 592.413 98.8085 591.165 98.3605C589.917 97.8805 588.797 97.3045 587.805 96.6325C587.325 96.2805 586.989 95.8805 586.797 95.4325C586.637 94.9845 586.589 94.5525 586.653 94.1365C586.749 93.6885 586.941 93.3045 587.229 92.9845C587.517 92.6645 587.869 92.4725 588.285 92.4085C588.701 92.3125 589.165 92.4405 589.677 92.7925C591.117 93.7205 592.637 94.4085 594.237 94.8565C595.837 95.2725 597.581 95.4805 599.469 95.4805C602.189 95.4805 604.189 95.0005 605.469 94.0405C606.781 93.0485 607.437 91.7685 607.437 90.2005C607.437 88.9205 606.973 87.9125 606.045 87.1765C605.117 86.4085 603.565 85.8005 601.389 85.3525L596.253 84.2965C593.213 83.6565 590.941 82.6005 589.437 81.1285C587.965 79.6565 587.229 77.6725 587.229 75.1765C587.229 73.6725 587.533 72.2965 588.141 71.0485C588.781 69.8005 589.661 68.7285 590.781 67.8325C591.901 66.9045 593.245 66.2005 594.813 65.7205C596.381 65.2405 598.093 65.0005 599.949 65.0005C601.933 65.0005 603.789 65.2565 605.517 65.7685C607.277 66.2805 608.845 67.0645 610.221 68.1205C610.637 68.4085 610.909 68.7765 611.037 69.2245C611.197 69.6405 611.229 70.0565 611.133 70.4725C611.069 70.8885 610.893 71.2405 610.605 71.5285C610.317 71.8165 609.949 71.9925 609.501 72.0565C609.053 72.0885 608.557 71.9285 608.013 71.5765C606.765 70.7445 605.485 70.1525 604.173 69.8005C602.893 69.4165 601.469 69.2245 599.901 69.2245C598.333 69.2245 596.957 69.4645 595.773 69.9445C594.621 70.4245 593.725 71.0965 593.085 71.9605C592.477 72.8245 592.173 73.8485 592.173 75.0325C592.173 76.3765 592.605 77.4485 593.469 78.2485C594.333 79.0485 595.773 79.6565 597.789 80.0725L602.877 81.1285C606.077 81.8005 608.461 82.8405 610.029 84.2485C611.597 85.6565 612.381 87.5285 612.381 89.8645C612.381 91.3685 612.077 92.7285 611.469 93.9445C610.861 95.1285 609.997 96.1525 608.877 97.0165C607.757 97.8805 606.397 98.5525 604.797 99.0325C603.229 99.4805 601.453 99.7045 599.469 99.7045ZM625.682 99.7045C624.274 99.7045 622.818 99.5445 621.314 99.2245C619.842 98.9045 618.482 98.3605 617.234 97.5925C616.818 97.3045 616.53 96.9845 616.37 96.6325C616.21 96.2805 616.146 95.9285 616.178 95.5765C616.242 95.1925 616.386 94.8725 616.61 94.6165C616.866 94.3285 617.17 94.1525 617.522 94.0885C617.906 94.0245 618.306 94.1045 618.722 94.3285C619.97 95.0325 621.17 95.5285 622.322 95.8165C623.474 96.0725 624.61 96.2005 625.73 96.2005C627.426 96.2005 628.706 95.8965 629.57 95.2885C630.434 94.6805 630.866 93.8645 630.866 92.8405C630.866 92.0085 630.578 91.3685 630.002 90.9205C629.426 90.4405 628.562 90.0725 627.41 89.8165L622.85 88.9045C620.866 88.4885 619.362 87.7525 618.338 86.6965C617.314 85.6405 616.802 84.2965 616.802 82.6645C616.802 81.1925 617.202 79.9125 618.002 78.8245C618.802 77.7365 619.922 76.9045 621.362 76.3285C622.802 75.7205 624.466 75.4165 626.354 75.4165C627.762 75.4165 629.09 75.5925 630.338 75.9445C631.586 76.2965 632.738 76.8245 633.794 77.5285C634.21 77.7525 634.482 78.0565 634.61 78.4405C634.738 78.7925 634.754 79.1445 634.658 79.4965C634.594 79.8485 634.434 80.1685 634.178 80.4565C633.922 80.7125 633.602 80.8725 633.218 80.9365C632.866 80.9685 632.466 80.8725 632.018 80.6485C631.058 80.0405 630.098 79.6085 629.138 79.3525C628.21 79.0965 627.282 78.9685 626.354 78.9685C624.658 78.9685 623.378 79.2885 622.514 79.9285C621.682 80.5365 621.266 81.3685 621.266 82.4245C621.266 83.2245 621.522 83.8805 622.034 84.3925C622.546 84.9045 623.346 85.2725 624.434 85.4965L628.994 86.4085C631.074 86.8245 632.642 87.5285 633.698 88.5205C634.786 89.5125 635.33 90.8565 635.33 92.5525C635.33 94.7605 634.45 96.5045 632.69 97.7845C630.93 99.0645 628.594 99.7045 625.682 99.7045ZM14.832 164.608C14.032 164.608 13.408 164.384 12.96 163.936C12.544 163.488 12.336 162.864 12.336 162.064V134.608H2.16004C1.48804 134.608 0.960043 134.432 0.576043 134.08C0.192043 133.696 4.29675e-05 133.168 4.29675e-05 132.496C4.29675e-05 131.824 0.192043 131.312 0.576043 130.96C0.960043 130.608 1.48804 130.432 2.16004 130.432H27.456C28.16 130.432 28.704 130.608 29.088 130.96C29.472 131.312 29.664 131.824 29.664 132.496C29.664 133.168 29.472 133.696 29.088 134.08C28.704 134.432 28.16 134.608 27.456 134.608H17.28V162.064C17.28 162.864 17.072 163.488 16.656 163.936C16.272 164.384 15.664 164.608 14.832 164.608ZM41.2392 164.704C39.3192 164.704 37.7032 164.368 36.3912 163.696C35.0792 163.024 34.1032 162.032 33.4632 160.72C32.8232 159.408 32.5032 157.808 32.5032 155.92V144.592H29.6232C28.9832 144.592 28.4872 144.432 28.1352 144.112C27.7832 143.76 27.6072 143.296 27.6072 142.72C27.6072 142.112 27.7832 141.648 28.1352 141.328C28.4872 141.008 28.9832 140.848 29.6232 140.848H32.5032V135.904C32.5032 135.104 32.7112 134.496 33.1272 134.08C33.5752 133.664 34.1832 133.456 34.9512 133.456C35.7192 133.456 36.3112 133.664 36.7272 134.08C37.1432 134.496 37.3512 135.104 37.3512 135.904V140.848H42.9672C43.6072 140.848 44.1032 141.008 44.4552 141.328C44.8072 141.648 44.9832 142.112 44.9832 142.72C44.9832 143.296 44.8072 143.76 44.4552 144.112C44.1032 144.432 43.6072 144.592 42.9672 144.592H37.3512V155.536C37.3512 157.232 37.7032 158.512 38.4072 159.376C39.1432 160.24 40.3272 160.672 41.9592 160.672C42.5352 160.672 43.0312 160.624 43.4472 160.528C43.8952 160.4 44.2632 160.32 44.5512 160.288C44.9032 160.288 45.1912 160.416 45.4152 160.672C45.6392 160.896 45.7512 161.344 45.7512 162.016C45.7512 162.496 45.6552 162.944 45.4632 163.36C45.3032 163.776 44.9992 164.048 44.5512 164.176C44.1672 164.304 43.6392 164.416 42.9672 164.512C42.3272 164.64 41.7512 164.704 41.2392 164.704ZM75.6507 164.704C73.3787 164.704 71.3787 164.416 69.6507 163.84C67.9227 163.232 66.4667 162.336 65.2827 161.152C64.1307 159.968 63.2507 158.496 62.6427 156.736C62.0347 154.976 61.7307 152.944 61.7307 150.64V132.592C61.7307 131.76 61.9387 131.136 62.3547 130.72C62.8027 130.304 63.4267 130.096 64.2267 130.096C65.0267 130.096 65.6347 130.304 66.0507 130.72C66.4987 131.136 66.7227 131.76 66.7227 132.592V150.544C66.7227 153.84 67.4747 156.304 68.9787 157.936C70.5147 159.568 72.7387 160.384 75.6507 160.384C78.5947 160.384 80.8187 159.568 82.3227 157.936C83.8267 156.304 84.5787 153.84 84.5787 150.544V132.592C84.5787 131.76 84.7867 131.136 85.2027 130.72C85.6507 130.304 86.2587 130.096 87.0267 130.096C87.8267 130.096 88.4347 130.304 88.8507 130.72C89.2667 131.136 89.4747 131.76 89.4747 132.592V150.64C89.4747 153.712 88.9467 156.304 87.8907 158.416C86.8667 160.496 85.3307 162.064 83.2827 163.12C81.2347 164.176 78.6907 164.704 75.6507 164.704ZM104.998 164.704C103.11 164.704 101.526 164.352 100.246 163.648C98.9978 162.944 98.0538 161.904 97.4138 160.528C96.8058 159.12 96.5018 157.36 96.5018 155.248V142.96C96.5018 142.128 96.7098 141.52 97.1258 141.136C97.5418 140.72 98.1338 140.512 98.9018 140.512C99.6698 140.512 100.262 140.72 100.678 141.136C101.126 141.52 101.35 142.128 101.35 142.96V155.296C101.35 157.184 101.734 158.576 102.502 159.472C103.27 160.368 104.486 160.816 106.15 160.816C107.974 160.816 109.446 160.208 110.566 158.992C111.718 157.744 112.294 156.112 112.294 154.096V142.96C112.294 142.128 112.502 141.52 112.918 141.136C113.334 140.72 113.942 140.512 114.742 140.512C115.51 140.512 116.102 140.72 116.518 141.136C116.934 141.52 117.142 142.128 117.142 142.96V162.16C117.142 163.792 116.358 164.608 114.79 164.608C114.054 164.608 113.478 164.4 113.062 163.984C112.646 163.536 112.438 162.928 112.438 162.16V158.08L113.062 159.136C112.422 160.928 111.398 162.304 109.99 163.264C108.582 164.224 106.918 164.704 104.998 164.704ZM150.022 164.608C149.318 164.608 148.726 164.448 148.246 164.128C147.798 163.776 147.43 163.264 147.142 162.592L134.23 133.36C133.974 132.688 133.91 132.112 134.038 131.632C134.166 131.152 134.422 130.784 134.806 130.528C135.222 130.24 135.718 130.096 136.294 130.096C137.03 130.096 137.59 130.256 137.974 130.576C138.358 130.896 138.678 131.376 138.934 132.016L151.03 160.048H149.254L161.254 131.968C161.542 131.36 161.878 130.896 162.262 130.576C162.678 130.256 163.238 130.096 163.942 130.096C164.518 130.096 164.982 130.24 165.334 130.528C165.718 130.784 165.958 131.152 166.054 131.632C166.15 132.112 166.054 132.688 165.766 133.36L152.902 162.592C152.614 163.264 152.246 163.776 151.798 164.128C151.35 164.448 150.758 164.608 150.022 164.608ZM177.905 164.608C177.233 164.608 176.641 164.432 176.129 164.08C175.649 163.728 175.249 163.184 174.929 162.448L166.913 143.824C166.657 143.248 166.561 142.704 166.625 142.192C166.689 141.68 166.929 141.28 167.345 140.992C167.761 140.672 168.321 140.512 169.025 140.512C169.633 140.512 170.113 140.656 170.465 140.944C170.817 141.232 171.137 141.728 171.425 142.432L178.673 160.288H177.329L184.721 142.432C185.009 141.728 185.329 141.232 185.681 140.944C186.065 140.656 186.593 140.512 187.265 140.512C187.841 140.512 188.289 140.672 188.609 140.992C188.961 141.28 189.169 141.68 189.233 142.192C189.329 142.672 189.249 143.2 188.993 143.776L180.881 162.448C180.593 163.184 180.193 163.728 179.681 164.08C179.169 164.432 178.577 164.608 177.905 164.608ZM218.331 164.608C217.627 164.608 217.051 164.432 216.603 164.08C216.187 163.728 215.835 163.184 215.547 162.448L205.227 133.024C204.939 132.192 204.987 131.504 205.371 130.96C205.787 130.384 206.459 130.096 207.387 130.096C208.091 130.096 208.635 130.256 209.019 130.576C209.435 130.896 209.755 131.408 209.979 132.112L219.339 159.664H217.563L227.163 132.208C227.451 131.504 227.787 130.976 228.171 130.624C228.555 130.272 229.067 130.096 229.707 130.096C230.347 130.096 230.843 130.272 231.195 130.624C231.579 130.976 231.915 131.52 232.203 132.256L241.611 159.664H240.027L249.483 132.112C249.707 131.44 250.011 130.944 250.395 130.624C250.811 130.272 251.355 130.096 252.027 130.096C252.859 130.096 253.467 130.384 253.851 130.96C254.267 131.504 254.315 132.192 253.995 133.024L243.627 162.496C243.339 163.2 242.987 163.728 242.571 164.08C242.155 164.432 241.595 164.608 240.891 164.608C240.155 164.608 239.579 164.432 239.163 164.08C238.747 163.728 238.411 163.184 238.155 162.448L229.083 136.48H230.139L220.971 162.496C220.715 163.2 220.379 163.728 219.963 164.08C219.579 164.432 219.035 164.608 218.331 164.608ZM271.487 164.608C270.783 164.608 270.207 164.432 269.759 164.08C269.343 163.728 268.991 163.184 268.703 162.448L258.383 133.024C258.095 132.192 258.143 131.504 258.527 130.96C258.943 130.384 259.615 130.096 260.543 130.096C261.247 130.096 261.791 130.256 262.175 130.576C262.591 130.896 262.911 131.408 263.135 132.112L272.495 159.664H270.719L280.319 132.208C280.607 131.504 280.943 130.976 281.327 130.624C281.711 130.272 282.223 130.096 282.863 130.096C283.503 130.096 283.999 130.272 284.351 130.624C284.735 130.976 285.071 131.52 285.359 132.256L294.767 159.664H293.183L302.639 132.112C302.863 131.44 303.167 130.944 303.551 130.624C303.967 130.272 304.511 130.096 305.183 130.096C306.015 130.096 306.623 130.384 307.007 130.96C307.423 131.504 307.471 132.192 307.151 133.024L296.783 162.496C296.495 163.2 296.143 163.728 295.727 164.08C295.311 164.432 294.751 164.608 294.047 164.608C293.311 164.608 292.735 164.432 292.319 164.08C291.903 163.728 291.567 163.184 291.311 162.448L282.239 136.48H283.295L274.127 162.496C273.871 163.2 273.535 163.728 273.119 164.08C272.735 164.432 272.191 164.608 271.487 164.608ZM326.212 164.608C325.572 164.608 325.044 164.448 324.628 164.128C324.212 163.776 323.972 163.344 323.908 162.832C323.844 162.288 324.02 161.744 324.436 161.2L335.764 145.984V148L325.06 133.6C324.644 133.024 324.452 132.464 324.484 131.92C324.548 131.376 324.788 130.944 325.204 130.624C325.62 130.272 326.132 130.096 326.74 130.096C327.252 130.096 327.7 130.224 328.084 130.48C328.5 130.704 328.916 131.104 329.332 131.68L338.644 144.448H337.108L346.324 131.68C346.74 131.104 347.14 130.704 347.524 130.48C347.94 130.224 348.42 130.096 348.964 130.096C349.604 130.096 350.132 130.272 350.548 130.624C350.964 130.944 351.188 131.376 351.22 131.92C351.284 132.432 351.092 132.992 350.644 133.6L339.94 148V145.984L351.22 161.2C351.636 161.744 351.812 162.288 351.748 162.832C351.716 163.344 351.492 163.776 351.076 164.128C350.66 164.448 350.116 164.608 349.444 164.608C348.964 164.608 348.516 164.48 348.1 164.224C347.684 163.968 347.252 163.568 346.804 163.024L336.916 149.488H338.74L328.9 163.024C328.484 163.568 328.052 163.968 327.604 164.224C327.188 164.48 326.724 164.608 326.212 164.608ZM356.681 164.56C356.105 164.56 355.625 164.4 355.241 164.08C354.889 163.728 354.697 163.296 354.665 162.784C354.665 162.272 354.889 161.712 355.337 161.104L363.449 150.976V153.376L355.865 143.92C355.353 143.344 355.113 142.8 355.145 142.288C355.177 141.744 355.385 141.312 355.769 140.992C356.153 140.672 356.617 140.512 357.161 140.512C357.769 140.512 358.265 140.624 358.649 140.848C359.065 141.04 359.449 141.376 359.801 141.856L366.185 149.968H364.457L370.889 141.856C371.241 141.376 371.609 141.04 371.993 140.848C372.409 140.624 372.905 140.512 373.481 140.512C374.057 140.512 374.521 140.688 374.873 141.04C375.257 141.36 375.449 141.792 375.449 142.336C375.481 142.848 375.257 143.392 374.777 143.968L367.193 153.28V151.12L375.305 161.104C375.785 161.68 376.009 162.24 375.977 162.784C375.977 163.296 375.785 163.728 375.401 164.08C375.017 164.4 374.537 164.56 373.961 164.56C373.385 164.56 372.889 164.448 372.473 164.224C372.089 164 371.705 163.664 371.321 163.216L364.457 154.576H366.089L359.273 163.216C358.921 163.632 358.537 163.968 358.121 164.224C357.737 164.448 357.257 164.56 356.681 164.56ZM405.297 164.608C404.497 164.608 403.873 164.384 403.425 163.936C403.009 163.488 402.801 162.848 402.801 162.016V146.8L403.905 149.968L392.049 133.504C391.697 133.024 391.537 132.528 391.569 132.016C391.601 131.472 391.809 131.024 392.193 130.672C392.609 130.288 393.153 130.096 393.825 130.096C394.337 130.096 394.801 130.224 395.217 130.48C395.665 130.736 396.081 131.136 396.465 131.68L405.969 144.88H404.817L414.321 131.68C414.737 131.104 415.137 130.704 415.521 130.48C415.905 130.224 416.385 130.096 416.961 130.096C417.633 130.096 418.145 130.272 418.497 130.624C418.881 130.944 419.073 131.376 419.073 131.92C419.105 132.432 418.913 132.976 418.497 133.552L406.737 149.968L407.745 146.8V162.016C407.745 163.744 406.929 164.608 405.297 164.608ZM425.322 173.248C424.746 173.248 424.266 173.088 423.882 172.768C423.53 172.48 423.322 172.08 423.258 171.568C423.226 171.088 423.322 170.56 423.546 169.984L426.81 162.64V164.704L417.834 143.824C417.61 143.248 417.53 142.704 417.594 142.192C417.658 141.68 417.898 141.28 418.314 140.992C418.73 140.672 419.29 140.512 419.994 140.512C420.602 140.512 421.082 140.656 421.434 140.944C421.786 141.232 422.106 141.728 422.394 142.432L429.642 160.336H428.298L435.642 142.432C435.93 141.696 436.266 141.2 436.65 140.944C437.034 140.656 437.562 140.512 438.234 140.512C438.81 140.512 439.258 140.672 439.578 140.992C439.93 141.28 440.138 141.68 440.202 142.192C440.298 142.672 440.218 143.2 439.962 143.776L427.962 171.376C427.642 172.112 427.274 172.608 426.858 172.864C426.474 173.12 425.962 173.248 425.322 173.248ZM458.548 164.272C457.908 164.272 457.38 164.144 456.964 163.888C456.58 163.632 456.308 163.28 456.148 162.832C456.02 162.352 456.02 161.84 456.148 161.296C456.308 160.72 456.612 160.128 457.06 159.52L476.26 132.928V134.608H458.164C457.428 134.608 456.868 134.432 456.484 134.08C456.1 133.696 455.908 133.168 455.908 132.496C455.908 131.824 456.1 131.312 456.484 130.96C456.868 130.608 457.428 130.432 458.164 130.432H478.564C479.204 130.432 479.732 130.56 480.148 130.816C480.564 131.072 480.836 131.424 480.964 131.872C481.124 132.32 481.124 132.832 480.964 133.408C480.836 133.984 480.548 134.576 480.1 135.184L460.852 161.776V160.096H479.668C480.404 160.096 480.964 160.272 481.348 160.624C481.732 160.976 481.924 161.488 481.924 162.16C481.924 162.832 481.732 163.36 481.348 163.744C480.964 164.096 480.404 164.272 479.668 164.272H458.548ZM485.87 164.272C485.358 164.272 484.942 164.16 484.622 163.936C484.302 163.68 484.078 163.36 483.95 162.976C483.854 162.56 483.854 162.128 483.95 161.68C484.078 161.2 484.334 160.752 484.718 160.336L497.774 143.392V144.592H485.582C484.974 144.592 484.51 144.432 484.19 144.112C483.87 143.76 483.71 143.296 483.71 142.72C483.71 142.112 483.87 141.648 484.19 141.328C484.51 141.008 484.974 140.848 485.582 140.848H500.078C500.686 140.848 501.166 140.976 501.518 141.232C501.902 141.488 502.142 141.808 502.238 142.192C502.366 142.576 502.382 142.992 502.286 143.44C502.19 143.888 501.95 144.32 501.566 144.736L488.318 161.872V160.576H501.134C502.414 160.576 503.054 161.184 503.054 162.4C503.054 162.976 502.878 163.44 502.526 163.792C502.206 164.112 501.742 164.272 501.134 164.272H485.87ZM7.58404 229.272C6.91204 229.272 6.38404 229.08 6.00004 228.696C5.61604 228.312 5.42404 227.8 5.42404 227.16C5.42404 226.488 5.61604 225.976 6.00004 225.624C6.38404 225.272 6.91204 225.096 7.58404 225.096H13.44V199.56H15.936L8.92804 204.024C8.41604 204.312 7.93604 204.424 7.48804 204.36C7.07204 204.296 6.70404 204.12 6.38404 203.832C6.09604 203.544 5.88804 203.192 5.76004 202.776C5.66404 202.36 5.69604 201.928 5.85604 201.48C6.04804 201.032 6.38404 200.664 6.86404 200.376L13.488 196.2C14.032 195.88 14.544 195.624 15.024 195.432C15.536 195.208 16.016 195.096 16.464 195.096C17.008 195.096 17.456 195.256 17.808 195.576C18.192 195.864 18.384 196.36 18.384 197.064V225.096H23.76C24.464 225.096 25.008 225.272 25.392 225.624C25.776 225.976 25.968 226.488 25.968 227.16C25.968 227.832 25.776 228.36 25.392 228.744C25.008 229.096 24.464 229.272 23.76 229.272H7.58404ZM35.2133 229.272C34.3493 229.272 33.7253 229.08 33.3413 228.696C32.9573 228.28 32.7653 227.72 32.7653 227.016C32.7653 226.568 32.8773 226.136 33.1013 225.72C33.3253 225.304 33.6453 224.872 34.0613 224.424L44.2853 213.48C45.8533 211.816 46.9733 210.296 47.6453 208.92C48.3493 207.512 48.7013 206.104 48.7013 204.696C48.7013 202.904 48.1573 201.544 47.0693 200.616C45.9813 199.688 44.3813 199.224 42.2693 199.224C40.9893 199.224 39.7573 199.416 38.5733 199.8C37.3893 200.184 36.2053 200.808 35.0213 201.672C34.5413 201.992 34.0933 202.136 33.6773 202.104C33.2613 202.072 32.8933 201.912 32.5733 201.624C32.2853 201.336 32.0933 200.984 31.9973 200.568C31.9013 200.152 31.9173 199.72 32.0453 199.272C32.1733 198.824 32.4773 198.44 32.9573 198.12C34.2693 197.128 35.7893 196.36 37.5173 195.816C39.2453 195.272 41.0053 195 42.7973 195C45.1333 195 47.1013 195.368 48.7013 196.104C50.3333 196.808 51.5653 197.848 52.3973 199.224C53.2293 200.6 53.6453 202.28 53.6453 204.264C53.6453 205.608 53.4213 206.92 52.9733 208.2C52.5573 209.48 51.9013 210.792 51.0053 212.136C50.1413 213.448 49.0053 214.84 47.5973 216.312L37.9013 226.488V225.096H53.1653C53.8693 225.096 54.4133 225.272 54.7973 225.624C55.1813 225.976 55.3733 226.488 55.3733 227.16C55.3733 227.832 55.1813 228.36 54.7973 228.744C54.4133 229.096 53.8693 229.272 53.1653 229.272H35.2133ZM71.5785 229.704C69.7865 229.704 67.9625 229.464 66.1065 228.984C64.2505 228.472 62.6345 227.72 61.2585 226.728C60.7465 226.408 60.3945 226.024 60.2025 225.576C60.0425 225.096 60.0105 224.664 60.1065 224.28C60.2025 223.864 60.3945 223.512 60.6825 223.224C61.0025 222.936 61.3865 222.776 61.8345 222.744C62.2825 222.68 62.7785 222.808 63.3225 223.128C64.6985 223.96 66.0425 224.568 67.3545 224.952C68.6665 225.304 70.0265 225.48 71.4345 225.48C72.9705 225.48 74.2665 225.256 75.3225 224.808C76.3785 224.36 77.1625 223.704 77.6745 222.84C78.2185 221.976 78.4905 220.936 78.4905 219.72C78.4905 217.896 77.8825 216.536 76.6665 215.64C75.4825 214.712 73.7545 214.248 71.4825 214.248H68.2185C67.4825 214.248 66.9225 214.072 66.5385 213.72C66.1545 213.336 65.9625 212.808 65.9625 212.136C65.9625 211.496 66.1545 211 66.5385 210.648C66.9225 210.264 67.4825 210.072 68.2185 210.072H71.0025C72.3785 210.072 73.5465 209.848 74.5065 209.4C75.4665 208.92 76.2025 208.264 76.7145 207.432C77.2585 206.568 77.5305 205.528 77.5305 204.312C77.5305 202.68 76.9865 201.432 75.8985 200.568C74.8425 199.672 73.2905 199.224 71.2425 199.224C69.9305 199.224 68.6825 199.4 67.4985 199.752C66.3465 200.104 65.1465 200.728 63.8985 201.624C63.4185 201.944 62.9545 202.088 62.5065 202.056C62.0905 201.992 61.7225 201.832 61.4025 201.576C61.1145 201.288 60.9065 200.936 60.7785 200.52C60.6825 200.104 60.7145 199.672 60.8745 199.224C61.0345 198.776 61.3545 198.392 61.8345 198.072C63.1785 197.08 64.6985 196.328 66.3945 195.816C68.0905 195.272 69.8345 195 71.6265 195C73.8665 195 75.7865 195.352 77.3865 196.056C79.0185 196.76 80.2505 197.768 81.0825 199.08C81.9465 200.392 82.3785 201.96 82.3785 203.784C82.3785 205.16 82.1225 206.408 81.6105 207.528C81.0985 208.648 80.3625 209.608 79.4025 210.408C78.4745 211.176 77.3385 211.72 75.9945 212.04V211.512C78.3305 211.896 80.1385 212.856 81.4185 214.392C82.6985 215.896 83.3385 217.784 83.3385 220.056C83.3385 222.04 82.8585 223.768 81.8985 225.24C80.9705 226.68 79.6265 227.784 77.8665 228.552C76.1065 229.32 74.0105 229.704 71.5785 229.704ZM106.456 229.608C105.688 229.608 105.08 229.4 104.632 228.984C104.184 228.536 103.96 227.928 103.96 227.16V222.408H91.0958C90.2958 222.408 89.6558 222.232 89.1758 221.88C88.6958 221.528 88.4558 220.984 88.4558 220.248C88.4558 219.832 88.5518 219.384 88.7438 218.904C88.9678 218.424 89.3518 217.8 89.8958 217.032L103.864 196.728C104.216 196.184 104.616 195.784 105.064 195.528C105.512 195.24 106.024 195.096 106.6 195.096C107.272 195.096 107.816 195.304 108.232 195.72C108.68 196.104 108.904 196.712 108.904 197.544V218.232H111.928C112.696 218.232 113.256 218.408 113.608 218.76C113.992 219.112 114.184 219.624 114.184 220.296C114.184 221 113.992 221.528 113.608 221.88C113.256 222.232 112.696 222.408 111.928 222.408H108.904V227.16C108.904 227.928 108.68 228.536 108.232 228.984C107.816 229.4 107.224 229.608 106.456 229.608ZM103.96 218.232V201.288H105.256L92.7278 219.576V218.232H103.96ZM130.197 229.704C128.437 229.704 126.661 229.464 124.869 228.984C123.077 228.472 121.445 227.688 119.973 226.632C119.493 226.344 119.173 225.976 119.013 225.528C118.853 225.08 118.821 224.648 118.917 224.232C119.013 223.784 119.205 223.416 119.493 223.128C119.813 222.84 120.197 222.68 120.645 222.648C121.093 222.584 121.573 222.712 122.085 223.032C123.333 223.832 124.613 224.44 125.925 224.856C127.269 225.272 128.661 225.48 130.101 225.48C131.573 225.48 132.837 225.208 133.893 224.664C134.949 224.12 135.749 223.368 136.293 222.408C136.869 221.416 137.157 220.264 137.157 218.952C137.157 216.936 136.565 215.288 135.381 214.008C134.197 212.728 132.549 212.088 130.437 212.088C129.221 212.088 128.085 212.312 127.029 212.76C125.973 213.176 124.965 213.88 124.005 214.872C123.781 215.128 123.477 215.368 123.093 215.592C122.741 215.784 122.341 215.88 121.893 215.88C121.221 215.88 120.709 215.704 120.357 215.352C120.005 215 119.829 214.52 119.829 213.912V197.64C119.829 196.936 120.021 196.392 120.405 196.008C120.789 195.624 121.333 195.432 122.037 195.432H138.117C138.821 195.432 139.365 195.608 139.749 195.96C140.133 196.312 140.325 196.824 140.325 197.496C140.325 198.168 140.133 198.696 139.749 199.08C139.365 199.432 138.821 199.608 138.117 199.608H124.677V211.8H123.333C124.197 210.584 125.333 209.64 126.741 208.968C128.181 208.296 129.765 207.96 131.493 207.96C133.637 207.96 135.493 208.408 137.061 209.304C138.629 210.2 139.845 211.464 140.709 213.096C141.573 214.696 142.005 216.568 142.005 218.712C142.005 220.888 141.525 222.808 140.565 224.472C139.605 226.104 138.245 227.384 136.485 228.312C134.725 229.24 132.629 229.704 130.197 229.704ZM159.65 229.704C156.93 229.704 154.61 229.048 152.69 227.736C150.802 226.424 149.346 224.536 148.322 222.072C147.33 219.576 146.834 216.584 146.834 213.096C146.834 210.184 147.154 207.608 147.794 205.368C148.434 203.128 149.362 201.24 150.578 199.704C151.794 198.168 153.266 197 154.994 196.2C156.754 195.4 158.738 195 160.946 195C162.386 195 163.858 195.256 165.362 195.768C166.866 196.248 168.242 196.984 169.49 197.976C169.906 198.264 170.162 198.632 170.258 199.08C170.386 199.496 170.402 199.912 170.306 200.328C170.21 200.712 170.018 201.048 169.73 201.336C169.442 201.624 169.074 201.8 168.626 201.864C168.21 201.896 167.762 201.752 167.282 201.432C166.194 200.632 165.106 200.072 164.018 199.752C162.962 199.4 161.906 199.224 160.85 199.224C158.866 199.224 157.186 199.704 155.81 200.664C154.434 201.624 153.394 203.064 152.69 204.984C151.986 206.904 151.634 209.288 151.634 212.136V216.216H151.106C151.33 214.488 151.858 213 152.69 211.752C153.554 210.472 154.658 209.496 156.002 208.824C157.346 208.152 158.834 207.816 160.466 207.816C162.45 207.816 164.194 208.28 165.698 209.208C167.234 210.136 168.434 211.416 169.298 213.048C170.162 214.648 170.594 216.488 170.594 218.568C170.594 220.712 170.13 222.632 169.202 224.328C168.274 226.024 166.978 227.352 165.314 228.312C163.682 229.24 161.794 229.704 159.65 229.704ZM159.362 225.672C160.674 225.672 161.826 225.384 162.818 224.808C163.81 224.232 164.578 223.432 165.122 222.408C165.666 221.352 165.938 220.136 165.938 218.76C165.938 217.384 165.666 216.184 165.122 215.16C164.578 214.136 163.81 213.336 162.818 212.76C161.826 212.152 160.674 211.848 159.362 211.848C158.05 211.848 156.898 212.152 155.906 212.76C154.946 213.336 154.178 214.136 153.602 215.16C153.058 216.184 152.786 217.384 152.786 218.76C152.786 220.136 153.058 221.352 153.602 222.408C154.178 223.432 154.946 224.232 155.906 224.808C156.898 225.384 158.05 225.672 159.362 225.672ZM180.992 229.608C180.416 229.608 179.92 229.48 179.504 229.224C179.12 228.936 178.88 228.552 178.784 228.072C178.72 227.56 178.832 227 179.12 226.392L194.144 197.736V199.608H177.632C176.928 199.608 176.384 199.432 176 199.08C175.616 198.696 175.424 198.184 175.424 197.544C175.424 196.872 175.616 196.36 176 196.008C176.384 195.624 176.928 195.432 177.632 195.432H196.496C197.2 195.432 197.76 195.624 198.176 196.008C198.624 196.36 198.848 196.872 198.848 197.544C198.848 198.12 198.768 198.616 198.608 199.032C198.48 199.448 198.288 199.912 198.032 200.424L183.776 227.976C183.488 228.552 183.12 228.968 182.672 229.224C182.224 229.48 181.664 229.608 180.992 229.608ZM216.013 229.704C213.453 229.704 211.245 229.336 209.389 228.6C207.565 227.864 206.157 226.792 205.165 225.384C204.205 223.944 203.725 222.232 203.725 220.248C203.725 218.648 204.045 217.24 204.685 216.024C205.325 214.776 206.221 213.768 207.373 213C208.525 212.232 209.853 211.752 211.357 211.56V212.424C209.277 211.976 207.613 211 206.365 209.496C205.149 207.96 204.541 206.136 204.541 204.024C204.541 202.136 205.005 200.52 205.933 199.176C206.893 197.8 208.237 196.76 209.965 196.056C211.693 195.352 213.709 195 216.013 195C218.349 195 220.381 195.352 222.109 196.056C223.837 196.76 225.165 197.8 226.093 199.176C227.053 200.52 227.533 202.136 227.533 204.024C227.533 205.432 227.245 206.728 226.669 207.912C226.125 209.064 225.341 210.04 224.317 210.84C223.293 211.608 222.093 212.12 220.717 212.376V211.56C222.989 211.88 224.813 212.824 226.189 214.392C227.597 215.928 228.301 217.88 228.301 220.248C228.301 222.232 227.805 223.944 226.813 225.384C225.853 226.792 224.461 227.864 222.637 228.6C220.813 229.336 218.605 229.704 216.013 229.704ZM216.013 225.768C218.541 225.768 220.445 225.288 221.725 224.328C223.005 223.336 223.645 221.864 223.645 219.912C223.645 217.96 223.005 216.504 221.725 215.544C220.445 214.584 218.541 214.104 216.013 214.104C213.517 214.104 211.613 214.584 210.301 215.544C209.021 216.504 208.381 217.96 208.381 219.912C208.381 221.864 209.021 223.336 210.301 224.328C211.613 225.288 213.517 225.768 216.013 225.768ZM216.013 210.168C217.453 210.168 218.669 209.944 219.661 209.496C220.685 209.016 221.469 208.36 222.013 207.528C222.557 206.664 222.829 205.656 222.829 204.504C222.829 202.776 222.221 201.416 221.005 200.424C219.821 199.432 218.157 198.936 216.013 198.936C213.869 198.936 212.205 199.432 211.021 200.424C209.837 201.416 209.245 202.776 209.245 204.504C209.245 206.264 209.837 207.656 211.021 208.68C212.205 209.672 213.869 210.168 216.013 210.168ZM242.298 229.704C240.89 229.704 239.418 229.464 237.882 228.984C236.378 228.472 235.002 227.72 233.754 226.728C233.338 226.44 233.066 226.088 232.938 225.672C232.842 225.224 232.842 224.808 232.938 224.424C233.034 224.008 233.226 223.656 233.514 223.368C233.802 223.048 234.154 222.872 234.57 222.84C235.018 222.776 235.482 222.904 235.962 223.224C237.05 224.024 238.122 224.6 239.178 224.952C240.266 225.304 241.338 225.48 242.394 225.48C244.378 225.48 246.058 225 247.434 224.04C248.81 223.08 249.85 221.64 250.554 219.72C251.258 217.8 251.61 215.416 251.61 212.568V208.488H252.138C251.914 210.184 251.37 211.672 250.506 212.952C249.674 214.232 248.586 215.208 247.242 215.88C245.898 216.552 244.41 216.888 242.778 216.888C240.826 216.888 239.082 216.424 237.546 215.496C236.01 214.568 234.81 213.288 233.946 211.656C233.082 210.024 232.65 208.184 232.65 206.136C232.65 203.96 233.114 202.04 234.042 200.376C234.97 198.68 236.25 197.368 237.882 196.44C239.546 195.48 241.45 195 243.594 195C246.346 195 248.666 195.656 250.554 196.968C252.442 198.248 253.882 200.136 254.874 202.632C255.898 205.128 256.41 208.12 256.41 211.608C256.41 214.52 256.09 217.096 255.45 219.336C254.81 221.576 253.882 223.464 252.666 225C251.45 226.536 249.962 227.704 248.202 228.504C246.474 229.304 244.506 229.704 242.298 229.704ZM243.93 212.808C245.21 212.808 246.346 212.52 247.338 211.944C248.33 211.368 249.098 210.552 249.642 209.496C250.218 208.44 250.506 207.24 250.506 205.896C250.506 204.52 250.218 203.32 249.642 202.296C249.098 201.24 248.33 200.424 247.338 199.848C246.346 199.272 245.21 198.984 243.93 198.984C242.618 198.984 241.466 199.272 240.474 199.848C239.514 200.424 238.746 201.24 238.17 202.296C237.626 203.32 237.354 204.52 237.354 205.896C237.354 207.24 237.626 208.44 238.17 209.496C238.746 210.552 239.514 211.368 240.474 211.944C241.466 212.52 242.618 212.808 243.93 212.808ZM273.575 229.704C269.639 229.704 266.631 228.216 264.551 225.24C262.503 222.232 261.479 217.928 261.479 212.328C261.479 208.52 261.943 205.336 262.871 202.776C263.799 200.216 265.159 198.28 266.951 196.968C268.743 195.656 270.951 195 273.575 195C277.543 195 280.551 196.472 282.599 199.416C284.647 202.328 285.671 206.616 285.671 212.28C285.671 216.024 285.207 219.192 284.279 221.784C283.351 224.376 281.991 226.344 280.199 227.688C278.407 229.032 276.199 229.704 273.575 229.704ZM273.575 225.576C276.039 225.576 277.847 224.504 278.999 222.36C280.183 220.184 280.775 216.824 280.775 212.28C280.775 207.704 280.183 204.376 278.999 202.296C277.847 200.184 276.039 199.128 273.575 199.128C271.143 199.128 269.335 200.184 268.151 202.296C266.967 204.376 266.375 207.704 266.375 212.28C266.375 216.824 266.967 220.184 268.151 222.36C269.335 224.504 271.143 225.576 273.575 225.576Z" fill="#93AD49"/>
</svg>
