<svg width="668" height="194" viewBox="0 0 668 194" fill="none" xmlns="http://www.w3.org/2000/svg">
<path d="M0 18.303C0 8.19453 8.19451 0 18.303 0H193.708C203.816 0 212.011 8.19451 212.011 18.303V175.403C212.011 185.512 203.816 193.706 193.708 193.706H18.3029C8.1945 193.706 0 185.512 0 175.403V18.303Z" fill="#969ADA"/>
<path d="M41.7459 103.51H36.9757L35.8089 109.55H32.1369L33.3037 103.51H30.5582V100.25H33.9214L34.9166 95.0676H30.5582V91.8417H35.5344L36.7012 85.7674H40.3732L39.2064 91.8417H43.9766L45.1434 85.7674H48.8154L47.6486 91.8417H50.4284V95.0676H47.0309L46.0357 100.25H50.4284V103.51H45.418L44.2511 109.55H40.5791L41.7459 103.51ZM37.5934 100.25H42.3636L43.3589 95.0676H38.5887L37.5934 100.25ZM61.8528 97.2296C62.5163 97.2296 63.1683 97.1724 63.8089 97.058C64.4495 96.9208 64.9986 96.7263 65.4562 96.4746C65.4791 96.223 65.4905 96.0056 65.4905 95.8226C65.4905 95.6396 65.4905 95.4794 65.4905 95.3421C65.4905 94.427 65.4219 93.569 65.2846 92.7683C65.1702 91.9447 64.9529 91.2354 64.6326 90.6406C64.3351 90.0228 63.9119 89.5424 63.3628 89.1992C62.8366 88.8331 62.1731 88.6501 61.3724 88.6501C60.7089 88.6501 60.1369 88.7874 59.6565 89.0619C59.1989 89.3365 58.8214 89.6911 58.524 90.1258C58.2265 90.5605 58.0092 91.0295 57.8719 91.5328C57.7346 92.0362 57.666 92.5281 57.666 93.0085C57.666 94.4041 57.9977 95.4565 58.6612 96.1658C59.3476 96.875 60.4114 97.2296 61.8528 97.2296ZM65.113 99.7348C64.5639 99.9865 63.9576 100.181 63.2942 100.318C62.6307 100.456 61.9901 100.524 61.3724 100.524C59.9539 100.524 58.7413 100.341 57.7346 99.9751C56.7509 99.5861 55.9387 99.0599 55.2981 98.3964C54.6803 97.7101 54.2228 96.9208 53.9253 96.0285C53.6279 95.1362 53.4792 94.1753 53.4792 93.1458C53.4792 92.2535 53.6279 91.3498 53.9253 90.4347C54.2228 89.4966 54.6918 88.6387 55.3324 87.8608C55.973 87.0829 56.7852 86.4538 57.769 85.9733C58.7527 85.47 59.9196 85.2183 61.2694 85.2183C64.0606 85.2183 66.1654 86.122 67.5839 87.9294C69.0253 89.714 69.746 92.2421 69.746 95.5137C69.746 100.135 68.5563 103.636 66.1769 106.015C63.7975 108.394 60.1483 109.596 55.2294 109.618L55.0578 106.152C56.4306 106.152 57.666 106.038 58.7642 105.809C59.8852 105.58 60.8576 105.214 61.6812 104.711C62.5277 104.208 63.237 103.556 63.8089 102.755C64.3809 101.931 64.8156 100.925 65.113 99.7348ZM81.1862 97.9846C80.5227 97.9846 79.8821 98.0418 79.2644 98.1562C78.6467 98.2706 78.0861 98.4422 77.5828 98.671C77.5599 98.854 77.537 99.0599 77.5142 99.2887C77.5142 99.4946 77.5142 99.7005 77.5142 99.9064C77.5142 100.822 77.5714 101.691 77.6858 102.515C77.823 103.315 78.0404 104.025 78.3378 104.642C78.6581 105.237 79.0814 105.718 79.6076 106.084C80.1567 106.427 80.8316 106.598 81.6323 106.598C82.2958 106.598 82.8563 106.461 83.3139 106.187C83.7944 105.912 84.1833 105.557 84.4807 105.123C84.7781 104.688 84.9955 104.219 85.1328 103.716C85.27 103.19 85.3387 102.686 85.3387 102.206C85.3387 100.833 85.0069 99.792 84.3435 99.0828C83.68 98.3507 82.6276 97.9846 81.1862 97.9846ZM81.701 94.6901C83.1194 94.6901 84.3206 94.896 85.3044 95.3078C86.311 95.6968 87.1232 96.2344 87.7409 96.9208C88.3587 97.6071 88.8048 98.4079 89.0793 99.323C89.3768 100.215 89.5255 101.153 89.5255 102.137C89.5255 103.029 89.3653 103.945 89.045 104.883C88.7476 105.821 88.2671 106.679 87.6037 107.456C86.9631 108.211 86.1509 108.841 85.1671 109.344C84.1833 109.824 83.0165 110.065 81.6666 110.065C78.9441 110.065 76.8621 109.172 75.4208 107.388C74.0023 105.58 73.293 103.098 73.293 99.9408C73.293 97.6529 73.6248 95.6281 74.2883 93.8665C74.9746 92.0819 75.9355 90.5834 77.171 89.3708C78.4293 88.1582 79.9393 87.2431 81.701 86.6254C83.4855 85.9848 85.4874 85.653 87.7066 85.6301L87.9468 89.0619C86.7114 89.0848 85.556 89.2221 84.4807 89.4738C83.4054 89.7025 82.4445 90.0686 81.598 90.5719C80.7515 91.0753 80.0194 91.7273 79.4017 92.5281C78.8068 93.3288 78.3492 94.3126 78.0289 95.4794C79.15 94.9532 80.374 94.6901 81.701 94.6901ZM100.863 97.2296C101.526 97.2296 102.178 97.1724 102.819 97.058C103.459 96.9208 104.009 96.7263 104.466 96.4746C104.489 96.223 104.5 96.0056 104.5 95.8226C104.5 95.6396 104.5 95.4794 104.5 95.3421C104.5 94.427 104.432 93.569 104.295 92.7683C104.18 91.9447 103.963 91.2354 103.643 90.6406C103.345 90.0228 102.922 89.5424 102.373 89.1992C101.847 88.8331 101.183 88.6501 100.382 88.6501C99.7188 88.6501 99.1469 88.7874 98.6664 89.0619C98.2088 89.3365 97.8313 89.6911 97.5339 90.1258C97.2365 90.5605 97.0191 91.0295 96.8819 91.5328C96.7446 92.0362 96.676 92.5281 96.676 93.0085C96.676 94.4041 97.0077 95.4565 97.6712 96.1658C98.3575 96.875 99.4214 97.2296 100.863 97.2296ZM104.123 99.7348C103.574 99.9865 102.968 100.181 102.304 100.318C101.641 100.456 101 100.524 100.382 100.524C98.9638 100.524 97.7513 100.341 96.7446 99.9751C95.7608 99.5861 94.9486 99.0599 94.308 98.3964C93.6903 97.7101 93.2327 96.9208 92.9353 96.0285C92.6379 95.1362 92.4892 94.1753 92.4892 93.1458C92.4892 92.2535 92.6379 91.3498 92.9353 90.4347C93.2327 89.4966 93.7017 88.6387 94.3423 87.8608C94.9829 87.0829 95.7951 86.4538 96.7789 85.9733C97.7627 85.47 98.9295 85.2183 100.279 85.2183C103.071 85.2183 105.175 86.122 106.594 87.9294C108.035 89.714 108.756 92.2421 108.756 95.5137C108.756 100.135 107.566 103.636 105.187 106.015C102.807 108.394 99.1583 109.596 94.2394 109.618L94.0678 106.152C95.4405 106.152 96.676 106.038 97.7741 105.809C98.8952 105.58 99.8675 105.214 100.691 104.711C101.538 104.208 102.247 103.556 102.819 102.755C103.391 101.931 103.826 100.925 104.123 99.7348ZM129.153 109.55C128.833 108.612 128.501 107.685 128.158 106.77C127.815 105.855 127.483 104.917 127.163 103.956H117.142C116.822 104.917 116.49 105.866 116.147 106.804C115.826 107.72 115.506 108.635 115.186 109.55H110.69C111.582 107.01 112.429 104.665 113.23 102.515C114.03 100.364 114.808 98.3278 115.563 96.406C116.341 94.4842 117.108 92.6539 117.863 90.9151C118.618 89.1763 119.395 87.4604 120.196 85.7674H124.28C125.081 87.4604 125.859 89.1763 126.614 90.9151C127.369 92.6539 128.124 94.4842 128.879 96.406C129.656 98.3278 130.446 100.364 131.247 102.515C132.07 104.665 132.928 107.01 133.82 109.55H129.153ZM122.152 90.366C121.626 91.5786 121.02 93.0543 120.333 94.793C119.67 96.5318 118.972 98.4193 118.24 100.456H126.065C125.332 98.4193 124.623 96.5204 123.937 94.7587C123.25 92.9971 122.656 91.5328 122.152 90.366ZM141.151 105.981C141.402 106.004 141.734 106.026 142.146 106.049C142.558 106.049 143.118 106.049 143.827 106.049C146.733 106.049 148.895 105.317 150.313 103.853C151.755 102.366 152.475 100.295 152.475 97.6414C152.475 94.9418 151.778 92.8712 150.382 91.4299C148.986 89.9885 146.824 89.2678 143.896 89.2678C142.615 89.2678 141.7 89.3022 141.151 89.3708V105.981ZM157.005 97.6414C157.005 99.7005 156.685 101.497 156.045 103.029C155.404 104.539 154.489 105.809 153.299 106.839C152.132 107.845 150.714 108.6 149.044 109.104C147.396 109.584 145.566 109.824 143.553 109.824C142.592 109.824 141.505 109.779 140.293 109.687C139.08 109.618 137.925 109.458 136.826 109.207V86.1106C137.925 85.8589 139.091 85.6988 140.327 85.6301C141.562 85.5615 142.661 85.5272 143.621 85.5272C145.612 85.5272 147.431 85.7674 149.078 86.2479C150.725 86.7054 152.132 87.4375 153.299 88.4442C154.489 89.428 155.404 90.6863 156.045 92.2192C156.685 93.7292 157.005 95.5366 157.005 97.6414ZM176.944 109.55C176.623 108.612 176.292 107.685 175.948 106.77C175.605 105.855 175.274 104.917 174.953 103.956H164.932C164.612 104.917 164.28 105.866 163.937 106.804C163.617 107.72 163.297 108.635 162.976 109.55H158.481C159.373 107.01 160.219 104.665 161.02 102.515C161.821 100.364 162.599 98.3278 163.354 96.406C164.132 94.4842 164.898 92.6539 165.653 90.9151C166.408 89.1763 167.186 87.4604 167.987 85.7674H172.071C172.871 87.4604 173.649 89.1763 174.404 90.9151C175.159 92.6539 175.914 94.4842 176.669 96.406C177.447 98.3278 178.236 100.364 179.037 102.515C179.861 104.665 180.719 107.01 181.611 109.55H176.944ZM169.943 90.366C169.417 91.5786 168.81 93.0543 168.124 94.793C167.46 96.5318 166.763 98.4193 166.031 100.456H173.855C173.123 98.4193 172.414 96.5204 171.727 94.7587C171.041 92.9971 170.446 91.5328 169.943 90.366Z" fill="white"/>
<path d="M227.987 18.303C227.987 8.19453 236.181 0 246.29 0H421.69C431.799 0 439.993 8.19451 439.993 18.303V175.403C439.993 185.512 431.799 193.706 421.69 193.706H246.29C236.181 193.706 227.987 185.512 227.987 175.403V18.303Z" fill="#EA86D1"/>
<path d="M271.258 103.51H266.488L265.321 109.55H261.649L262.816 103.51H260.07V100.25H263.433L264.429 95.0676H260.07V91.8417H265.046L266.213 85.7674H269.885L268.718 91.8417H273.489L274.655 85.7674H278.328L277.161 91.8417H279.94V95.0676H276.543L275.548 100.25H279.94V103.51H274.93L273.763 109.55H270.091L271.258 103.51ZM267.106 100.25H271.876L272.871 95.0676H268.101L267.106 100.25ZM284.364 109.55V85.7674H299.636V89.4394H288.688V95.3078H298.434V98.9112H288.688V105.878H300.459V109.55H284.364ZM320.761 109.55C320.441 108.612 320.109 107.685 319.766 106.77C319.423 105.855 319.091 104.917 318.771 103.956H308.75C308.43 104.917 308.098 105.866 307.755 106.804C307.434 107.72 307.114 108.635 306.794 109.55H302.298C303.19 107.01 304.037 104.665 304.838 102.515C305.638 100.364 306.416 98.3278 307.171 96.406C307.949 94.4842 308.716 92.6539 309.471 90.9151C310.226 89.1763 311.003 87.4604 311.804 85.7674H315.888C316.689 87.4604 317.467 89.1763 318.222 90.9151C318.977 92.6539 319.732 94.4842 320.487 96.406C321.265 98.3278 322.054 100.364 322.855 102.515C323.678 104.665 324.536 107.01 325.428 109.55H320.761ZM313.76 90.366C313.234 91.5786 312.628 93.0543 311.942 94.793C311.278 96.5318 310.58 98.4193 309.848 100.456H317.673C316.94 98.4193 316.231 96.5204 315.545 94.7587C314.859 92.9971 314.264 91.5328 313.76 90.366ZM343.432 103.167C343.432 104.15 343.26 105.066 342.917 105.912C342.574 106.759 342.059 107.491 341.372 108.108C340.686 108.726 339.828 109.207 338.799 109.55C337.792 109.893 336.625 110.065 335.298 110.065C333.742 110.065 332.45 109.847 331.42 109.413C330.391 108.978 329.567 108.429 328.949 107.765C328.332 107.102 327.885 106.393 327.611 105.638C327.359 104.86 327.233 104.128 327.233 103.441C327.233 102.755 327.325 102.126 327.508 101.554C327.714 100.959 327.988 100.421 328.332 99.9408C328.675 99.4374 329.064 98.9798 329.498 98.568C329.933 98.1562 330.391 97.7902 330.871 97.4699C329.819 96.7377 329.029 95.9484 328.503 95.1019C328 94.2325 327.748 93.1801 327.748 91.9447C327.748 91.0524 327.92 90.2059 328.263 89.4051C328.629 88.5815 329.144 87.8608 329.807 87.2431C330.471 86.6254 331.271 86.1335 332.21 85.7674C333.148 85.4013 334.189 85.2183 335.332 85.2183C336.682 85.2183 337.826 85.4128 338.764 85.8017C339.725 86.1907 340.503 86.694 341.098 87.3117C341.716 87.9294 342.162 88.6158 342.436 89.3708C342.711 90.1258 342.848 90.8579 342.848 91.5672C342.848 92.8255 342.505 93.9465 341.819 94.9303C341.132 95.8912 340.343 96.6577 339.451 97.2296C340.8 97.9617 341.796 98.8083 342.436 99.7692C343.1 100.73 343.432 101.863 343.432 103.167ZM331.317 103.373C331.317 103.716 331.386 104.082 331.523 104.471C331.66 104.86 331.889 105.214 332.21 105.535C332.53 105.855 332.942 106.129 333.445 106.358C333.948 106.564 334.577 106.667 335.332 106.667C336.019 106.667 336.614 106.576 337.117 106.393C337.62 106.21 338.032 105.969 338.352 105.672C338.673 105.352 338.913 104.997 339.073 104.608C339.233 104.196 339.313 103.784 339.313 103.373C339.313 102.732 339.188 102.171 338.936 101.691C338.684 101.211 338.318 100.799 337.838 100.456C337.38 100.089 336.831 99.7806 336.19 99.5289C335.55 99.2544 334.841 99.0142 334.063 98.8083C333.239 99.3345 332.576 99.9751 332.072 100.73C331.569 101.462 331.317 102.343 331.317 103.373ZM338.799 91.6358C338.799 91.3384 338.73 91.0181 338.593 90.6749C338.478 90.3088 338.272 89.9771 337.975 89.6797C337.7 89.3822 337.346 89.1306 336.911 88.9247C336.476 88.7188 335.95 88.6158 335.332 88.6158C334.715 88.6158 334.177 88.7188 333.72 88.9247C333.285 89.1077 332.93 89.3594 332.656 89.6797C332.381 89.9771 332.175 90.3088 332.038 90.6749C331.901 91.0181 331.832 91.3612 331.832 91.7044C331.832 92.5738 332.152 93.3974 332.793 94.1753C333.456 94.9532 334.555 95.5709 336.087 96.0285C336.934 95.5023 337.597 94.9074 338.078 94.244C338.558 93.5576 338.799 92.6882 338.799 91.6358ZM354.769 97.9846C354.105 97.9846 353.465 98.0418 352.847 98.1562C352.229 98.2706 351.669 98.4422 351.165 98.671C351.143 98.854 351.12 99.0599 351.097 99.2887C351.097 99.4946 351.097 99.7005 351.097 99.9064C351.097 100.822 351.154 101.691 351.268 102.515C351.406 103.315 351.623 104.025 351.92 104.642C352.241 105.237 352.664 105.718 353.19 106.084C353.739 106.427 354.414 106.598 355.215 106.598C355.878 106.598 356.439 106.461 356.897 106.187C357.377 105.912 357.766 105.557 358.063 105.123C358.361 104.688 358.578 104.219 358.715 103.716C358.853 103.19 358.921 102.686 358.921 102.206C358.921 100.833 358.59 99.792 357.926 99.0828C357.263 98.3507 356.21 97.9846 354.769 97.9846ZM355.284 94.6901C356.702 94.6901 357.903 94.896 358.887 95.3078C359.894 95.6968 360.706 96.2344 361.324 96.9208C361.941 97.6071 362.387 98.4079 362.662 99.323C362.959 100.215 363.108 101.153 363.108 102.137C363.108 103.029 362.948 103.945 362.628 104.883C362.33 105.821 361.85 106.679 361.186 107.456C360.546 108.211 359.733 108.841 358.75 109.344C357.766 109.824 356.599 110.065 355.249 110.065C352.527 110.065 350.445 109.172 349.003 107.388C347.585 105.58 346.876 103.098 346.876 99.9408C346.876 97.6529 347.207 95.6281 347.871 93.8665C348.557 92.0819 349.518 90.5834 350.754 89.3708C352.012 88.1582 353.522 87.2431 355.284 86.6254C357.068 85.9848 359.07 85.653 361.289 85.6301L361.529 89.0619C360.294 89.0848 359.139 89.2221 358.063 89.4738C356.988 89.7025 356.027 90.0686 355.181 90.5719C354.334 91.0753 353.602 91.7273 352.984 92.5281C352.389 93.3288 351.932 94.3126 351.612 95.4794C352.733 94.9532 353.957 94.6901 355.284 94.6901ZM371.769 105.981C372.02 106.004 372.352 106.026 372.764 106.049C373.176 106.049 373.736 106.049 374.445 106.049C377.351 106.049 379.513 105.317 380.931 103.853C382.373 102.366 383.094 100.295 383.094 97.6414C383.094 94.9418 382.396 92.8712 381 91.4299C379.605 89.9885 377.442 89.2678 374.514 89.2678C373.233 89.2678 372.318 89.3022 371.769 89.3708V105.981ZM387.623 97.6414C387.623 99.7005 387.303 101.497 386.663 103.029C386.022 104.539 385.107 105.809 383.917 106.839C382.75 107.845 381.332 108.6 379.662 109.104C378.014 109.584 376.184 109.824 374.171 109.824C373.21 109.824 372.123 109.779 370.911 109.687C369.698 109.618 368.543 109.458 367.444 109.207V86.1106C368.543 85.8589 369.709 85.6988 370.945 85.6301C372.18 85.5615 373.279 85.5272 374.239 85.5272C376.23 85.5272 378.049 85.7674 379.696 86.2479C381.343 86.7054 382.75 87.4375 383.917 88.4442C385.107 89.428 386.022 90.6863 386.663 92.2192C387.303 93.7292 387.623 95.5366 387.623 97.6414ZM392.585 90.7092C393.912 90.183 395.239 89.5081 396.566 88.6844C397.916 87.8608 399.106 86.8885 400.135 85.7674H403.052V109.55H398.9V91.3269C398.282 91.8074 397.504 92.2764 396.566 92.734C395.628 93.1915 394.725 93.569 393.855 93.8665L392.585 90.7092Z" fill="white"/>
<path d="M455.969 18.303C455.969 8.19453 464.164 0 474.272 0H649.677C659.785 0 667.98 8.19451 667.98 18.303V175.403C667.98 185.512 659.785 193.706 649.677 193.706H474.272C464.163 193.706 455.969 185.512 455.969 175.403V18.303Z" fill="#ED7D41"/>
<path d="M498.477 103.51H493.707L492.54 109.55H488.868L490.035 103.51H487.29V100.25H490.653L491.648 95.0676H487.29V91.8417H492.266L493.433 85.7674H497.105L495.938 91.8417H500.708L501.875 85.7674H505.547L504.38 91.8417H507.16V95.0676H503.762L502.767 100.25H507.16V103.51H502.15L500.983 109.55H497.311L498.477 103.51ZM494.325 100.25H499.095L500.09 95.0676H495.32L494.325 100.25ZM511.583 109.55V85.7674H526.855V89.4394H515.908V95.3078H525.654V98.9112H515.908V105.878H527.679V109.55H511.583ZM536.016 105.981C536.267 106.004 536.599 106.026 537.011 106.049C537.423 106.049 537.983 106.049 538.693 106.049C541.598 106.049 543.76 105.317 545.179 103.853C546.62 102.366 547.341 100.295 547.341 97.6414C547.341 94.9418 546.643 92.8712 545.247 91.4299C543.852 89.9885 541.69 89.2678 538.761 89.2678C537.48 89.2678 536.565 89.3022 536.016 89.3708V105.981ZM551.871 97.6414C551.871 99.7005 551.55 101.497 550.91 103.029C550.269 104.539 549.354 105.809 548.164 106.839C546.998 107.845 545.579 108.6 543.909 109.104C542.262 109.584 540.431 109.824 538.418 109.824C537.457 109.824 536.37 109.779 535.158 109.687C533.945 109.618 532.79 109.458 531.692 109.207V86.1106C532.79 85.8589 533.957 85.6988 535.192 85.6301C536.428 85.5615 537.526 85.5272 538.487 85.5272C540.477 85.5272 542.296 85.7674 543.943 86.2479C545.591 86.7054 546.998 87.4375 548.164 88.4442C549.354 89.428 550.269 90.6863 550.91 92.2192C551.55 93.7292 551.871 95.5366 551.871 97.6414ZM559.029 109.55C559.166 107.811 559.475 105.981 559.956 104.059C560.436 102.137 561.019 100.272 561.706 98.4651C562.415 96.6348 563.181 94.9303 564.005 93.3517C564.852 91.7502 565.687 90.4118 566.51 89.3365H555.563V85.7674H571.452V88.9247C570.697 89.7712 569.873 90.9266 568.981 92.3908C568.089 93.855 567.242 95.5137 566.442 97.3669C565.641 99.1972 564.943 101.165 564.348 103.27C563.776 105.374 563.422 107.468 563.284 109.55H559.029ZM580.421 105.981C580.673 106.004 581.005 106.026 581.417 106.049C581.828 106.049 582.389 106.049 583.098 106.049C586.004 106.049 588.166 105.317 589.584 103.853C591.026 102.366 591.746 100.295 591.746 97.6414C591.746 94.9418 591.049 92.8712 589.653 91.4299C588.257 89.9885 586.095 89.2678 583.167 89.2678C581.886 89.2678 580.971 89.3022 580.421 89.3708V105.981ZM596.276 97.6414C596.276 99.7005 595.956 101.497 595.315 103.029C594.675 104.539 593.76 105.809 592.57 106.839C591.403 107.845 589.985 108.6 588.315 109.104C586.667 109.584 584.837 109.824 582.824 109.824C581.863 109.824 580.776 109.779 579.563 109.687C578.351 109.618 577.196 109.458 576.097 109.207V86.1106C577.196 85.8589 578.362 85.6988 579.598 85.6301C580.833 85.5615 581.931 85.5272 582.892 85.5272C584.883 85.5272 586.702 85.7674 588.349 86.2479C589.996 86.7054 591.403 87.4375 592.57 88.4442C593.76 89.428 594.675 90.6863 595.315 92.2192C595.956 93.7292 596.276 95.5366 596.276 97.6414ZM609.715 90.8808C609.166 91.5443 608.594 92.2535 607.999 93.0085C607.427 93.7635 606.866 94.5528 606.317 95.3765C605.768 96.2001 605.242 97.0466 604.739 97.916C604.235 98.7625 603.778 99.609 603.366 100.456H609.715V90.8808ZM613.764 85.7674V100.456H616.441V103.853H613.764V109.55H609.715V103.853H599.282V100.902C599.74 99.895 600.346 98.7396 601.101 97.4355C601.879 96.1315 602.737 94.793 603.675 93.4203C604.613 92.0476 605.608 90.6978 606.661 89.3708C607.713 88.0438 608.765 86.8427 609.818 85.7674H613.764ZM620.743 90.7092C622.07 90.183 623.397 89.5081 624.724 88.6844C626.074 87.8608 627.264 86.8885 628.293 85.7674H631.21V109.55H627.058V91.3269C626.44 91.8074 625.662 92.2764 624.724 92.734C623.786 93.1915 622.882 93.569 622.013 93.8665L620.743 90.7092Z" fill="white"/>
</svg>
