<svg width="640" height="203" viewBox="0 0 640 203" fill="none" xmlns="http://www.w3.org/2000/svg">
<path d="M25.632 37.248C25.28 36.096 24.88 34.912 24.432 33.696C24.016 32.48 23.6 31.264 23.184 30.048H10.224C9.80802 31.264 9.37602 32.48 8.92802 33.696C8.51202 34.912 8.12802 36.096 7.77602 37.248H1.95652e-05C1.24802 33.664 2.43202 30.352 3.55202 27.312C4.67202 24.272 5.76002 21.408 6.81602 18.72C7.90402 16.032 8.96002 13.488 9.98402 11.088C11.04 8.65604 12.128 6.28804 13.248 3.98405H20.4C21.488 6.28804 22.56 8.65604 23.616 11.088C24.672 13.488 25.728 16.032 26.784 18.72C27.872 21.408 28.976 24.272 30.096 27.312C31.216 30.352 32.4 33.664 33.648 37.248H25.632ZM16.656 11.52C16.496 12 16.256 12.656 15.936 13.488C15.616 14.32 15.248 15.28 14.832 16.368C14.416 17.456 13.952 18.656 13.44 19.968C12.96 21.28 12.464 22.656 11.952 24.096H21.408C20.896 22.656 20.4 21.28 19.92 19.968C19.44 18.656 18.976 17.456 18.528 16.368C18.112 15.28 17.744 14.32 17.424 13.488C17.104 12.656 16.848 12 16.656 11.52ZM46.6061 32.256C47.3101 32.256 47.9821 32.24 48.6221 32.208C49.2621 32.176 49.7741 32.128 50.1581 32.064V26.64C49.8701 26.576 49.4381 26.512 48.8621 26.448C48.2861 26.384 47.7581 26.352 47.2781 26.352C46.6061 26.352 45.9661 26.4 45.3581 26.496C44.7821 26.56 44.2701 26.704 43.8221 26.928C43.3741 27.152 43.0221 27.456 42.7661 27.84C42.5101 28.224 42.3821 28.704 42.3821 29.28C42.3821 30.4 42.7501 31.184 43.4861 31.632C44.2541 32.048 45.2941 32.256 46.6061 32.256ZM46.0301 11.328C48.1421 11.328 49.9021 11.568 51.3101 12.048C52.7181 12.528 53.8381 13.216 54.6701 14.112C55.5341 15.008 56.1421 16.096 56.4941 17.376C56.8461 18.656 57.0221 20.08 57.0221 21.648V36.528C55.9981 36.752 54.5741 37.008 52.7501 37.296C50.9261 37.616 48.7181 37.776 46.1261 37.776C44.4941 37.776 43.0061 37.632 41.6621 37.344C40.3501 37.056 39.2141 36.592 38.2541 35.952C37.2941 35.28 36.5581 34.416 36.0461 33.36C35.5341 32.304 35.2781 31.008 35.2781 29.472C35.2781 28 35.5661 26.752 36.1421 25.728C36.7501 24.704 37.5501 23.888 38.5421 23.28C39.5341 22.672 40.6701 22.24 41.9501 21.984C43.2301 21.696 44.5581 21.552 45.9341 21.552C46.8621 21.552 47.6781 21.6 48.3821 21.696C49.1181 21.76 49.7101 21.856 50.1581 21.984V21.312C50.1581 20.096 49.7901 19.12 49.0541 18.384C48.3181 17.648 47.0381 17.28 45.2141 17.28C43.9981 17.28 42.7981 17.376 41.6141 17.568C40.4301 17.728 39.4061 17.968 38.5421 18.288L37.6301 12.528C38.0461 12.4 38.5581 12.272 39.1661 12.144C39.8061 11.984 40.4941 11.856 41.2301 11.76C41.9661 11.632 42.7341 11.536 43.5341 11.472C44.3661 11.376 45.1981 11.328 46.0301 11.328ZM86.5886 37.68C84.7646 37.68 82.9406 37.616 81.1166 37.488C79.3246 37.392 77.4526 37.136 75.5006 36.72V4.46405C77.0366 4.17605 78.7166 3.96805 80.5406 3.84004C82.3646 3.68005 84.0606 3.60005 85.6286 3.60005C87.7406 3.60005 89.6766 3.76005 91.4366 4.08004C93.2286 4.36804 94.7646 4.88004 96.0446 5.61604C97.3246 6.35205 98.3166 7.32804 99.0206 8.54404C99.7566 9.72804 100.125 11.2 100.125 12.96C100.125 15.616 98.8446 17.712 96.2846 19.248C98.3966 20.048 99.8366 21.136 100.605 22.512C101.373 23.888 101.757 25.44 101.757 27.168C101.757 30.656 100.477 33.28 97.9166 35.04C95.3886 36.8 91.6126 37.68 86.5886 37.68ZM82.7966 22.752V31.344C83.3406 31.408 83.9326 31.456 84.5726 31.488C85.2126 31.52 85.9166 31.536 86.6846 31.536C88.9246 31.536 90.7326 31.216 92.1086 30.576C93.4846 29.936 94.1726 28.752 94.1726 27.024C94.1726 25.488 93.5966 24.4 92.4446 23.76C91.2926 23.088 89.6446 22.752 87.5006 22.752H82.7966ZM82.7966 17.04H86.4446C88.7486 17.04 90.3966 16.752 91.3886 16.176C92.3806 15.568 92.8766 14.608 92.8766 13.296C92.8766 11.952 92.3646 11.008 91.3406 10.464C90.3166 9.92004 88.8126 9.64804 86.8286 9.64804C86.1886 9.64804 85.5006 9.66405 84.7646 9.69605C84.0286 9.69605 83.3726 9.72805 82.7966 9.79205V17.04ZM123.447 24.432C123.447 19.824 121.751 17.52 118.359 17.52C117.623 17.52 116.887 17.616 116.151 17.808C115.447 18 114.871 18.24 114.423 18.528V31.536C114.775 31.6 115.223 31.664 115.767 31.728C116.311 31.76 116.903 31.776 117.543 31.776C119.495 31.776 120.967 31.104 121.959 29.76C122.951 28.416 123.447 26.64 123.447 24.432ZM130.743 24.624C130.743 26.64 130.439 28.464 129.831 30.096C129.255 31.728 128.407 33.12 127.287 34.272C126.167 35.424 124.791 36.32 123.159 36.96C121.527 37.568 119.671 37.872 117.591 37.872C116.727 37.872 115.815 37.824 114.855 37.728C113.927 37.664 112.999 37.568 112.071 37.44C111.175 37.312 110.311 37.168 109.479 37.008C108.647 36.816 107.911 36.624 107.271 36.432V1.15205L114.423 4.57764e-05V12.576C115.223 12.224 116.055 11.952 116.919 11.76C117.783 11.568 118.711 11.472 119.703 11.472C121.495 11.472 123.079 11.792 124.455 12.432C125.831 13.04 126.983 13.92 127.911 15.072C128.839 16.224 129.543 17.616 130.023 19.248C130.503 20.848 130.743 22.64 130.743 24.624ZM163.419 37.92C158.011 37.92 153.883 36.416 151.035 33.408C148.219 30.4 146.811 26.128 146.811 20.592C146.811 17.84 147.243 15.392 148.107 13.248C148.971 11.072 150.155 9.24805 151.659 7.77605C153.163 6.27205 154.955 5.13605 157.035 4.36804C159.115 3.60004 161.371 3.21604 163.803 3.21604C165.211 3.21604 166.491 3.32804 167.643 3.55205C168.795 3.74405 169.803 3.98405 170.667 4.27205C171.531 4.52805 172.251 4.80005 172.827 5.08805C173.403 5.37605 173.819 5.60005 174.075 5.76005L171.915 11.808C170.891 11.264 169.691 10.8 168.315 10.416C166.971 10.032 165.435 9.84004 163.707 9.84004C162.555 9.84004 161.419 10.032 160.299 10.416C159.211 10.8 158.235 11.424 157.371 12.288C156.539 13.12 155.867 14.208 155.355 15.552C154.843 16.896 154.587 18.528 154.587 20.448C154.587 21.984 154.747 23.424 155.067 24.768C155.419 26.08 155.963 27.216 156.699 28.176C157.467 29.136 158.459 29.904 159.675 30.48C160.891 31.024 162.363 31.296 164.091 31.296C165.179 31.296 166.155 31.232 167.019 31.104C167.883 30.976 168.651 30.832 169.323 30.672C169.995 30.48 170.587 30.272 171.099 30.048C171.611 29.824 172.075 29.616 172.491 29.424L174.555 35.424C173.499 36.064 172.011 36.64 170.091 37.152C168.171 37.664 165.947 37.92 163.419 37.92ZM177.133 24.624C177.133 22.8 177.421 21.088 177.997 19.488C178.605 17.856 179.469 16.448 180.589 15.264C181.709 14.048 183.069 13.088 184.669 12.384C186.269 11.68 188.093 11.328 190.141 11.328C191.485 11.328 192.717 11.456 193.837 11.712C194.957 11.936 196.045 12.272 197.101 12.72L195.613 18.432C194.941 18.176 194.205 17.952 193.405 17.76C192.605 17.568 191.709 17.472 190.717 17.472C188.605 17.472 187.021 18.128 185.965 19.44C184.941 20.752 184.429 22.48 184.429 24.624C184.429 26.896 184.909 28.656 185.869 29.904C186.861 31.152 188.573 31.776 191.005 31.776C191.869 31.776 192.797 31.696 193.789 31.536C194.781 31.376 195.693 31.12 196.525 30.768L197.533 36.624C196.701 36.976 195.661 37.28 194.413 37.536C193.165 37.792 191.789 37.92 190.285 37.92C187.981 37.92 185.997 37.584 184.333 36.912C182.669 36.208 181.293 35.264 180.205 34.08C179.149 32.896 178.365 31.504 177.853 29.904C177.373 28.272 177.133 26.512 177.133 24.624ZM221.832 31.152C222.184 31.184 222.584 31.216 223.032 31.248C223.512 31.248 224.072 31.248 224.712 31.248C228.456 31.248 231.224 30.304 233.016 28.416C234.84 26.528 235.752 23.92 235.752 20.592C235.752 17.104 234.888 14.464 233.16 12.672C231.432 10.88 228.696 9.98405 224.952 9.98405C224.44 9.98405 223.912 10 223.368 10.032C222.824 10.032 222.312 10.064 221.832 10.128V31.152ZM243.48 20.592C243.48 23.472 243.032 25.984 242.136 28.128C241.24 30.272 239.96 32.048 238.296 33.456C236.664 34.864 234.664 35.92 232.296 36.624C229.928 37.328 227.272 37.68 224.328 37.68C222.984 37.68 221.416 37.616 219.624 37.488C217.832 37.392 216.072 37.168 214.344 36.816V4.41605C216.072 4.09605 217.864 3.88805 219.72 3.79205C221.608 3.66405 223.224 3.60005 224.568 3.60005C227.416 3.60005 229.992 3.92004 232.296 4.56004C234.632 5.20005 236.632 6.20805 238.296 7.58405C239.96 8.96004 241.24 10.72 242.136 12.864C243.032 15.008 243.48 17.584 243.48 20.592ZM255.351 24.432C255.351 26.64 255.847 28.416 256.839 29.76C257.831 31.104 259.303 31.776 261.255 31.776C261.895 31.776 262.487 31.76 263.031 31.728C263.575 31.664 264.023 31.6 264.375 31.536V18.528C263.927 18.24 263.335 18 262.599 17.808C261.895 17.616 261.175 17.52 260.439 17.52C257.047 17.52 255.351 19.824 255.351 24.432ZM271.527 36.432C270.887 36.624 270.151 36.816 269.319 37.008C268.487 37.168 267.607 37.312 266.679 37.44C265.783 37.568 264.855 37.664 263.895 37.728C262.967 37.824 262.071 37.872 261.207 37.872C259.127 37.872 257.271 37.568 255.639 36.96C254.007 36.352 252.631 35.488 251.511 34.368C250.391 33.216 249.527 31.84 248.919 30.24C248.343 28.608 248.055 26.784 248.055 24.768C248.055 22.72 248.311 20.88 248.823 19.248C249.335 17.584 250.071 16.176 251.031 15.024C251.991 13.872 253.159 12.992 254.535 12.384C255.943 11.776 257.543 11.472 259.335 11.472C260.327 11.472 261.207 11.568 261.975 11.76C262.775 11.952 263.575 12.224 264.375 12.576V1.15205L271.527 4.57764e-05V36.432ZM290.235 37.248V3.98405H312.699V10.272H297.723V16.8H311.019V22.944H297.723V30.96H313.803V37.248H290.235ZM317.102 24.816C317.102 22.576 317.438 20.624 318.11 18.96C318.814 17.264 319.726 15.856 320.846 14.736C321.966 13.616 323.246 12.768 324.686 12.192C326.158 11.616 327.662 11.328 329.198 11.328C332.782 11.328 335.614 12.432 337.694 14.64C339.774 16.816 340.814 20.032 340.814 24.288C340.814 24.704 340.798 25.168 340.766 25.68C340.734 26.16 340.702 26.592 340.67 26.976H324.446C324.606 28.448 325.294 29.616 326.51 30.48C327.726 31.344 329.358 31.776 331.406 31.776C332.718 31.776 333.998 31.664 335.246 31.44C336.526 31.184 337.566 30.88 338.366 30.528L339.326 36.336C338.942 36.528 338.43 36.72 337.79 36.912C337.15 37.104 336.43 37.264 335.63 37.392C334.862 37.552 334.03 37.68 333.134 37.776C332.238 37.872 331.342 37.92 330.446 37.92C328.174 37.92 326.19 37.584 324.494 36.912C322.83 36.24 321.438 35.328 320.318 34.176C319.23 32.992 318.414 31.6 317.87 30C317.358 28.4 317.102 26.672 317.102 24.816ZM333.902 22.08C333.87 21.472 333.758 20.88 333.566 20.304C333.406 19.728 333.134 19.216 332.75 18.768C332.398 18.32 331.934 17.952 331.358 17.664C330.814 17.376 330.126 17.232 329.294 17.232C328.494 17.232 327.806 17.376 327.23 17.664C326.654 17.92 326.174 18.272 325.79 18.72C325.406 19.168 325.102 19.696 324.878 20.304C324.686 20.88 324.542 21.472 324.446 22.08H333.902ZM358.344 37.248V3.98405H380.616V10.272H365.832V17.232H378.984V23.52H365.832V37.248H358.344ZM396.371 4.57764e-05C397.715 4.57764e-05 398.947 0.144046 400.067 0.432046C401.187 0.688045 402.051 0.944044 402.659 1.20004L401.267 6.91205C400.627 6.62405 399.923 6.41605 399.155 6.28804C398.419 6.12805 397.731 6.04805 397.091 6.04805C396.227 6.04805 395.491 6.17605 394.883 6.43205C394.307 6.65604 393.843 6.97604 393.491 7.39205C393.171 7.80805 392.931 8.30405 392.771 8.88005C392.643 9.45605 392.579 10.08 392.579 10.752V12H401.411V17.952H392.579V37.248H385.427V10.656C385.427 7.39205 386.339 4.80005 388.163 2.88005C390.019 0.960046 392.755 4.57764e-05 396.371 4.57764e-05ZM433.912 9.74405C430.424 9.74405 427.896 10.72 426.328 12.672C424.792 14.592 424.024 17.232 424.024 20.592C424.024 22.224 424.216 23.712 424.6 25.056C424.984 26.368 425.56 27.504 426.328 28.464C427.096 29.424 428.056 30.176 429.208 30.72C430.36 31.232 431.704 31.488 433.24 31.488C434.072 31.488 434.776 31.472 435.352 31.44C435.96 31.408 436.488 31.344 436.936 31.248V19.68H444.424V36.144C443.528 36.496 442.088 36.864 440.104 37.248C438.12 37.664 435.672 37.872 432.76 37.872C430.264 37.872 427.992 37.488 425.944 36.72C423.928 35.952 422.2 34.832 420.76 33.36C419.32 31.888 418.2 30.08 417.4 27.936C416.632 25.792 416.248 23.344 416.248 20.592C416.248 17.808 416.68 15.344 417.544 13.2C418.408 11.056 419.592 9.24805 421.096 7.77605C422.6 6.27205 424.36 5.13605 426.376 4.36804C428.424 3.60004 430.6 3.21604 432.904 3.21604C434.472 3.21604 435.88 3.32804 437.128 3.55205C438.408 3.74405 439.496 3.98405 440.392 4.27205C441.32 4.52805 442.072 4.80005 442.648 5.08805C443.256 5.37605 443.688 5.60005 443.944 5.76005L441.784 11.76C440.76 11.216 439.576 10.752 438.232 10.368C436.92 9.95205 435.48 9.74405 433.912 9.74405ZM457.007 23.808C457.007 27.808 458.623 29.808 461.855 29.808C462.591 29.808 463.279 29.712 463.919 29.52C464.559 29.328 465.103 29.104 465.551 28.848V17.424C465.199 17.36 464.783 17.312 464.303 17.28C463.823 17.216 463.263 17.184 462.623 17.184C460.735 17.184 459.327 17.808 458.399 19.056C457.471 20.304 457.007 21.888 457.007 23.808ZM472.703 34.08C472.703 38.208 471.647 41.264 469.535 43.248C467.455 45.264 464.223 46.272 459.839 46.272C458.303 46.272 456.767 46.128 455.231 45.84C453.695 45.584 452.271 45.232 450.959 44.784L452.207 38.784C453.327 39.232 454.495 39.584 455.711 39.84C456.959 40.096 458.367 40.224 459.935 40.224C461.983 40.224 463.423 39.776 464.255 38.88C465.119 37.984 465.551 36.832 465.551 35.424V34.512C464.783 34.864 463.983 35.136 463.151 35.328C462.351 35.488 461.471 35.568 460.511 35.568C457.023 35.568 454.351 34.544 452.495 32.496C450.639 30.416 449.711 27.52 449.711 23.808C449.711 21.952 449.999 20.272 450.575 18.768C451.151 17.232 451.983 15.92 453.071 14.832C454.191 13.744 455.551 12.912 457.151 12.336C458.751 11.728 460.559 11.424 462.575 11.424C463.439 11.424 464.319 11.472 465.215 11.568C466.143 11.632 467.055 11.728 467.951 11.856C468.847 11.984 469.695 12.144 470.495 12.336C471.327 12.496 472.063 12.672 472.703 12.864V34.08ZM511.487 3.98405H518.975V37.248H511.487V23.136H498.911V37.248H491.423V3.98405H498.911V16.704H511.487V3.98405ZM526.193 37.248V1.15205L533.345 4.57764e-05V12.096C533.825 11.936 534.433 11.792 535.169 11.664C535.937 11.504 536.673 11.424 537.377 11.424C539.425 11.424 541.121 11.712 542.465 12.288C543.841 12.832 544.929 13.616 545.729 14.64C546.561 15.664 547.137 16.88 547.457 18.288C547.809 19.696 547.985 21.264 547.985 22.992V37.248H540.833V23.856C540.833 21.552 540.529 19.92 539.921 18.96C539.345 18 538.257 17.52 536.657 17.52C536.017 17.52 535.409 17.584 534.833 17.712C534.289 17.808 533.793 17.92 533.345 18.048V37.248H526.193ZM566.469 3.98405H573.957V37.248H566.469V3.98405ZM588.329 37.248H581.177V12H588.329V37.248ZM589.001 4.70405C589.001 6.01605 588.569 7.05605 587.705 7.82405C586.873 8.56005 585.881 8.92805 584.729 8.92805C583.577 8.92805 582.569 8.56005 581.705 7.82405C580.873 7.05605 580.457 6.01605 580.457 4.70405C580.457 3.39205 580.873 2.36804 581.705 1.63204C582.569 0.864045 583.577 0.480045 584.729 0.480045C585.881 0.480045 586.873 0.864045 587.705 1.63204C588.569 2.36804 589.001 3.39205 589.001 4.70405ZM625.255 26.064C625.255 27.696 625.063 29.232 624.679 30.672C624.327 32.112 623.687 33.376 622.759 34.464C621.863 35.52 620.631 36.368 619.063 37.008C617.527 37.616 615.575 37.92 613.207 37.92C611.031 37.92 609.159 37.664 607.591 37.152C606.023 36.608 604.727 35.984 603.703 35.28L606.199 29.472C607.127 30.016 608.119 30.496 609.175 30.912C610.231 31.328 611.383 31.536 612.631 31.536C614.455 31.536 615.767 31.088 616.567 30.192C617.367 29.296 617.767 27.792 617.767 25.68V3.98405H625.255V26.064ZM629.637 46.128C629.189 46.128 628.533 46.08 627.669 45.984C626.773 45.888 625.941 45.712 625.173 45.456L626.133 39.648C626.613 39.808 627.061 39.92 627.477 39.984C627.861 40.048 628.357 40.08 628.965 40.08C630.085 40.08 630.869 39.744 631.317 39.072C631.765 38.4 631.989 37.424 631.989 36.144V12H639.141V36.336C639.141 39.664 638.325 42.128 636.693 43.728C635.061 45.328 632.709 46.128 629.637 46.128ZM639.813 4.70405C639.813 6.01605 639.381 7.05605 638.517 7.82405C637.685 8.56005 636.693 8.92805 635.541 8.92805C634.389 8.92805 633.381 8.56005 632.517 7.82405C631.685 7.05605 631.269 6.01605 631.269 4.70405C631.269 3.39205 631.685 2.36804 632.517 1.63204C633.381 0.864045 634.389 0.480045 635.541 0.480045C636.693 0.480045 637.685 0.864045 638.517 1.63204C639.381 2.36804 639.813 3.39205 639.813 4.70405ZM22.992 92.248C22.32 91.16 21.52 89.992 20.592 88.744C19.696 87.464 18.704 86.2 17.616 84.952C16.56 83.672 15.456 82.456 14.304 81.304C13.152 80.12 12 79.08 10.848 78.184V92.248H3.36002V58.984H10.848V71.56C12.8 69.512 14.752 67.384 16.704 65.176C18.688 62.936 20.528 60.872 22.224 58.984H31.104C28.832 61.672 26.544 64.264 24.24 66.76C21.968 69.256 19.568 71.768 17.04 74.296C19.696 76.504 22.256 79.128 24.72 82.168C27.216 85.208 29.6 88.568 31.872 92.248H22.992ZM42.8445 76.12C43.5485 75.352 44.2685 74.552 45.0045 73.72C45.7725 72.888 46.5085 72.072 47.2125 71.272C47.9165 70.44 48.5725 69.656 49.1805 68.92C49.8205 68.184 50.3645 67.544 50.8125 67H59.3085C57.6125 68.952 55.9485 70.824 54.3165 72.616C52.7165 74.376 50.9565 76.2 49.0365 78.088C49.9965 78.952 50.9885 79.992 52.0125 81.208C53.0365 82.392 54.0285 83.624 54.9885 84.904C55.9485 86.184 56.8285 87.464 57.6285 88.744C58.4285 90.024 59.1005 91.192 59.6445 92.248H51.4365C50.9245 91.416 50.3325 90.504 49.6605 89.512C49.0205 88.488 48.3325 87.48 47.5965 86.488C46.8605 85.464 46.0765 84.488 45.2445 83.56C44.4445 82.632 43.6445 81.848 42.8445 81.208V92.248H35.6925V56.152L42.8445 55V76.12ZM97.7246 85.816V92.248H75.5006V58.984H82.9886V85.816H97.7246ZM112.148 92.728C110.068 92.696 108.372 92.472 107.06 92.056C105.78 91.64 104.756 91.064 103.988 90.328C103.252 89.56 102.74 88.648 102.452 87.592C102.196 86.504 102.068 85.288 102.068 83.944V56.152L109.22 55V82.504C109.22 83.144 109.268 83.72 109.364 84.232C109.46 84.744 109.636 85.176 109.892 85.528C110.18 85.88 110.58 86.168 111.092 86.392C111.604 86.616 112.292 86.76 113.156 86.824L112.148 92.728ZM138.098 58.984C138.674 60.04 139.33 61.352 140.066 62.92C140.834 64.456 141.618 66.136 142.418 67.96C143.25 69.752 144.066 71.592 144.866 73.48C145.666 75.368 146.418 77.144 147.122 78.808C147.826 77.144 148.578 75.368 149.378 73.48C150.178 71.592 150.978 69.752 151.778 67.96C152.61 66.136 153.394 64.456 154.13 62.92C154.898 61.352 155.57 60.04 156.146 58.984H162.962C163.282 61.192 163.57 63.672 163.826 66.424C164.114 69.144 164.354 71.992 164.546 74.968C164.77 77.912 164.962 80.872 165.122 83.848C165.314 86.824 165.474 89.624 165.602 92.248H158.306C158.21 89.016 158.082 85.496 157.922 81.688C157.762 77.88 157.522 74.04 157.202 70.168C156.626 71.512 155.986 73 155.282 74.632C154.578 76.264 153.874 77.896 153.17 79.528C152.498 81.16 151.842 82.728 151.202 84.232C150.562 85.704 150.018 86.968 149.57 88.024H144.338C143.89 86.968 143.346 85.704 142.706 84.232C142.066 82.728 141.394 81.16 140.69 79.528C140.018 77.896 139.33 76.264 138.626 74.632C137.922 73 137.282 71.512 136.706 70.168C136.386 74.04 136.146 77.88 135.986 81.688C135.826 85.496 135.698 89.016 135.602 92.248H128.306C128.434 89.624 128.578 86.824 128.738 83.848C128.93 80.872 129.122 77.912 129.314 74.968C129.538 71.992 129.778 69.144 130.034 66.424C130.322 63.672 130.626 61.192 130.946 58.984H138.098ZM185.736 78.856C185.736 76.552 185.432 74.92 184.824 73.96C184.248 73 183.24 72.52 181.8 72.52C181.352 72.52 180.888 72.552 180.408 72.616C179.928 72.648 179.464 72.696 179.016 72.76V92.248H171.864V67.864C172.472 67.704 173.176 67.544 173.976 67.384C174.808 67.192 175.672 67.032 176.568 66.904C177.496 66.744 178.44 66.632 179.4 66.568C180.36 66.472 181.304 66.424 182.232 66.424C184.056 66.424 185.528 66.664 186.648 67.144C187.8 67.592 188.744 68.136 189.48 68.776C190.504 68.04 191.672 67.464 192.984 67.048C194.328 66.632 195.56 66.424 196.68 66.424C198.696 66.424 200.344 66.712 201.624 67.288C202.936 67.832 203.976 68.616 204.744 69.64C205.512 70.664 206.04 71.88 206.328 73.288C206.616 74.696 206.76 76.264 206.76 77.992V92.248H199.608V78.856C199.608 76.552 199.304 74.92 198.696 73.96C198.12 73 197.112 72.52 195.672 72.52C195.288 72.52 194.744 72.616 194.04 72.808C193.368 73 192.808 73.24 192.36 73.528C192.584 74.264 192.728 75.048 192.792 75.88C192.856 76.68 192.888 77.544 192.888 78.472V92.248H185.736V78.856ZM247.586 92.248C245.442 88.44 243.122 84.68 240.626 80.968C238.13 77.256 235.474 73.752 232.658 70.456V92.248H225.266V58.984H231.362C232.418 60.04 233.586 61.336 234.866 62.872C236.146 64.408 237.442 66.056 238.754 67.816C240.098 69.544 241.426 71.352 242.738 73.24C244.05 75.096 245.282 76.888 246.434 78.616V58.984H253.874V92.248H247.586ZM261.068 67.864C262.284 67.512 263.852 67.192 265.772 66.904C267.692 66.584 269.708 66.424 271.82 66.424C273.964 66.424 275.74 66.712 277.148 67.288C278.588 67.832 279.724 68.616 280.556 69.64C281.388 70.664 281.98 71.88 282.332 73.288C282.684 74.696 282.86 76.264 282.86 77.992V92.248H275.708V78.856C275.708 76.552 275.404 74.92 274.796 73.96C274.188 73 273.052 72.52 271.388 72.52C270.876 72.52 270.332 72.552 269.756 72.616C269.18 72.648 268.668 72.696 268.22 72.76V92.248H261.068V67.864ZM307.632 75.592C307.632 77.224 307.824 78.696 308.208 80.008C308.624 81.32 309.2 82.456 309.936 83.416C310.704 84.344 311.632 85.064 312.72 85.576C313.808 86.088 315.056 86.344 316.464 86.344C317.84 86.344 319.072 86.088 320.16 85.576C321.28 85.064 322.208 84.344 322.944 83.416C323.712 82.456 324.288 81.32 324.672 80.008C325.088 78.696 325.296 77.224 325.296 75.592C325.296 73.96 325.088 72.488 324.672 71.176C324.288 69.832 323.712 68.696 322.944 67.768C322.208 66.808 321.28 66.072 320.16 65.56C319.072 65.048 317.84 64.792 316.464 64.792C315.056 64.792 313.808 65.064 312.72 65.608C311.632 66.12 310.704 66.856 309.936 67.816C309.2 68.744 308.624 69.88 308.208 71.224C307.824 72.536 307.632 73.992 307.632 75.592ZM333.024 75.592C333.024 78.44 332.592 80.952 331.728 83.128C330.896 85.272 329.744 87.08 328.272 88.552C326.8 89.992 325.04 91.08 322.992 91.816C320.976 92.552 318.8 92.92 316.464 92.92C314.192 92.92 312.048 92.552 310.032 91.816C308.016 91.08 306.256 89.992 304.752 88.552C303.248 87.08 302.064 85.272 301.2 83.128C300.336 80.952 299.904 78.44 299.904 75.592C299.904 72.744 300.352 70.248 301.248 68.104C302.144 65.928 303.344 64.104 304.848 62.632C306.384 61.16 308.144 60.056 310.128 59.32C312.144 58.584 314.256 58.216 316.464 58.216C318.736 58.216 320.88 58.584 322.896 59.32C324.912 60.056 326.672 61.16 328.176 62.632C329.68 64.104 330.864 65.928 331.728 68.104C332.592 70.248 333.024 72.744 333.024 75.592ZM362.402 79.576C362.402 81.56 362.114 83.384 361.538 85.048C360.962 86.68 360.13 88.088 359.042 89.272C357.954 90.424 356.642 91.32 355.106 91.96C353.602 92.6 351.906 92.92 350.018 92.92C348.162 92.92 346.466 92.6 344.93 91.96C343.426 91.32 342.13 90.424 341.042 89.272C339.954 88.088 339.106 86.68 338.498 85.048C337.89 83.384 337.586 81.56 337.586 79.576C337.586 77.592 337.89 75.784 338.498 74.152C339.138 72.52 340.002 71.128 341.09 69.976C342.21 68.824 343.522 67.928 345.026 67.288C346.562 66.648 348.226 66.328 350.018 66.328C351.842 66.328 353.506 66.648 355.01 67.288C356.546 67.928 357.858 68.824 358.946 69.976C360.034 71.128 360.882 72.52 361.49 74.152C362.098 75.784 362.402 77.592 362.402 79.576ZM355.106 79.576C355.106 77.368 354.658 75.64 353.762 74.392C352.898 73.112 351.65 72.472 350.018 72.472C348.386 72.472 347.122 73.112 346.226 74.392C345.33 75.64 344.882 77.368 344.882 79.576C344.882 81.784 345.33 83.544 346.226 84.856C347.122 86.136 348.386 86.776 350.018 86.776C351.65 86.776 352.898 86.136 353.762 84.856C354.658 83.544 355.106 81.784 355.106 79.576ZM389.938 58.6C394.898 58.6 398.706 59.48 401.362 61.24C404.018 62.968 405.346 65.816 405.346 69.784C405.346 73.784 404.002 76.68 401.314 78.472C398.626 80.232 394.786 81.112 389.794 81.112H387.442V92.248H379.954V59.464C381.586 59.144 383.314 58.92 385.138 58.792C386.962 58.664 388.562 58.6 389.938 58.6ZM390.418 64.984C389.874 64.984 389.33 65 388.786 65.032C388.274 65.064 387.826 65.096 387.442 65.128V74.728H389.794C392.386 74.728 394.338 74.376 395.65 73.672C396.962 72.968 397.618 71.656 397.618 69.736C397.618 68.808 397.442 68.04 397.09 67.432C396.77 66.824 396.29 66.344 395.65 65.992C395.042 65.608 394.29 65.352 393.394 65.224C392.498 65.064 391.506 64.984 390.418 64.984ZM426.54 79.816C426.54 77.608 426.044 75.848 425.052 74.536C424.06 73.192 422.588 72.52 420.636 72.52C419.996 72.52 419.404 72.552 418.86 72.616C418.316 72.648 417.868 72.696 417.516 72.76V85.672C417.964 85.96 418.54 86.2 419.244 86.392C419.98 86.584 420.716 86.68 421.452 86.68C424.844 86.68 426.54 84.392 426.54 79.816ZM433.836 79.624C433.836 81.576 433.596 83.352 433.116 84.952C432.636 86.552 431.932 87.928 431.004 89.08C430.076 90.232 428.924 91.128 427.548 91.768C426.172 92.408 424.588 92.728 422.796 92.728C421.804 92.728 420.876 92.632 420.012 92.44C419.148 92.248 418.316 91.976 417.516 91.624V101.128H410.364V67.864C411.004 67.672 411.74 67.496 412.572 67.336C413.404 67.144 414.268 66.984 415.164 66.856C416.092 66.728 417.02 66.632 417.948 66.568C418.908 66.472 419.82 66.424 420.684 66.424C422.764 66.424 424.62 66.744 426.252 67.384C427.884 67.992 429.26 68.872 430.38 70.024C431.5 71.144 432.348 72.52 432.924 74.152C433.532 75.784 433.836 77.608 433.836 79.624ZM457.632 75.592C457.632 77.224 457.824 78.696 458.208 80.008C458.624 81.32 459.2 82.456 459.936 83.416C460.704 84.344 461.632 85.064 462.72 85.576C463.808 86.088 465.056 86.344 466.464 86.344C467.84 86.344 469.072 86.088 470.16 85.576C471.28 85.064 472.208 84.344 472.944 83.416C473.712 82.456 474.288 81.32 474.672 80.008C475.088 78.696 475.296 77.224 475.296 75.592C475.296 73.96 475.088 72.488 474.672 71.176C474.288 69.832 473.712 68.696 472.944 67.768C472.208 66.808 471.28 66.072 470.16 65.56C469.072 65.048 467.84 64.792 466.464 64.792C465.056 64.792 463.808 65.064 462.72 65.608C461.632 66.12 460.704 66.856 459.936 67.816C459.2 68.744 458.624 69.88 458.208 71.224C457.824 72.536 457.632 73.992 457.632 75.592ZM483.024 75.592C483.024 77.928 482.736 80.04 482.16 81.928C481.584 83.784 480.768 85.416 479.712 86.824C478.688 88.232 477.456 89.4 476.016 90.328C474.576 91.256 472.992 91.928 471.264 92.344C471.424 92.984 471.776 93.496 472.32 93.88C472.864 94.296 473.552 94.632 474.384 94.888C475.216 95.144 476.176 95.336 477.264 95.464C478.384 95.592 479.584 95.704 480.864 95.8L479.328 101.272C476.832 101.176 474.688 100.92 472.896 100.504C471.136 100.12 469.632 99.576 468.384 98.872C467.168 98.168 466.192 97.304 465.456 96.28C464.752 95.256 464.208 94.072 463.824 92.728C461.84 92.472 460 91.928 458.304 91.096C456.608 90.232 455.136 89.08 453.888 87.64C452.64 86.2 451.664 84.472 450.96 82.456C450.256 80.44 449.904 78.152 449.904 75.592C449.904 72.744 450.352 70.248 451.248 68.104C452.144 65.928 453.344 64.104 454.848 62.632C456.384 61.16 458.144 60.056 460.128 59.32C462.144 58.584 464.256 58.216 466.464 58.216C468.736 58.216 470.88 58.584 472.896 59.32C474.912 60.056 476.672 61.16 478.176 62.632C479.68 64.104 480.864 65.928 481.728 68.104C482.592 70.248 483.024 72.744 483.024 75.592ZM494.882 79.816C494.882 84.392 496.578 86.68 499.97 86.68C500.706 86.68 501.426 86.584 502.13 86.392C502.866 86.2 503.458 85.96 503.906 85.672V72.76C503.554 72.696 503.106 72.648 502.562 72.616C502.018 72.552 501.426 72.52 500.786 72.52C498.834 72.52 497.362 73.192 496.37 74.536C495.378 75.848 494.882 77.608 494.882 79.816ZM487.586 79.624C487.586 77.672 487.874 75.896 488.45 74.296C489.058 72.664 489.922 71.272 491.042 70.12C492.162 68.936 493.538 68.024 495.17 67.384C496.802 66.744 498.658 66.424 500.738 66.424C501.602 66.424 502.498 66.472 503.426 66.568C504.386 66.632 505.314 66.728 506.21 66.856C507.138 66.984 508.018 67.144 508.85 67.336C509.682 67.496 510.418 67.672 511.058 67.864V101.128H503.906V91.624C503.106 91.976 502.274 92.248 501.41 92.44C500.546 92.632 499.618 92.728 498.626 92.728C495.042 92.728 492.306 91.56 490.418 89.224C488.53 86.856 487.586 83.656 487.586 79.624ZM539.51 58.6C544.502 58.6 548.326 59.496 550.982 61.288C553.638 63.048 554.966 65.8 554.966 69.544C554.966 71.88 554.422 73.784 553.334 75.256C552.278 76.696 550.742 77.832 548.726 78.664C549.398 79.496 550.102 80.456 550.838 81.544C551.574 82.6 552.294 83.72 552.998 84.904C553.734 86.056 554.438 87.272 555.11 88.552C555.782 89.8 556.406 91.032 556.982 92.248H548.582C547.974 91.16 547.35 90.056 546.71 88.936C546.102 87.816 545.462 86.728 544.79 85.672C544.15 84.616 543.51 83.624 542.87 82.696C542.23 81.736 541.59 80.872 540.95 80.104H537.254V92.248H529.766V59.464C531.398 59.144 533.078 58.92 534.806 58.792C536.566 58.664 538.134 58.6 539.51 58.6ZM539.942 64.984C539.398 64.984 538.902 65 538.454 65.032C538.038 65.064 537.638 65.096 537.254 65.128V74.152H539.366C542.182 74.152 544.198 73.8 545.414 73.096C546.63 72.392 547.238 71.192 547.238 69.496C547.238 67.864 546.614 66.712 545.366 66.04C544.15 65.336 542.342 64.984 539.942 64.984ZM576.518 73.336C575.878 73.176 575.126 73.016 574.262 72.856C573.398 72.664 572.47 72.568 571.478 72.568C571.03 72.568 570.486 72.616 569.846 72.712C569.238 72.776 568.774 72.856 568.454 72.952V92.248H561.302V68.344C562.582 67.896 564.086 67.48 565.814 67.096C567.574 66.68 569.526 66.472 571.67 66.472C572.054 66.472 572.518 66.504 573.062 66.568C573.606 66.6 574.15 66.664 574.694 66.76C575.238 66.824 575.782 66.92 576.326 67.048C576.87 67.144 577.334 67.272 577.718 67.432L576.518 73.336ZM602.635 86.536C603.691 86.536 604.555 86.456 605.227 86.296C605.931 86.104 606.491 85.864 606.907 85.576C607.323 85.256 607.611 84.888 607.771 84.472C607.931 84.056 608.011 83.592 608.011 83.08C608.011 81.992 607.499 81.096 606.475 80.392C605.451 79.656 603.691 78.872 601.195 78.04C600.107 77.656 599.019 77.224 597.931 76.744C596.843 76.232 595.867 75.608 595.003 74.872C594.139 74.104 593.435 73.192 592.891 72.136C592.347 71.048 592.075 69.736 592.075 68.2C592.075 66.664 592.363 65.288 592.939 64.072C593.515 62.824 594.331 61.768 595.387 60.904C596.443 60.04 597.723 59.384 599.227 58.936C600.731 58.456 602.427 58.216 604.315 58.216C606.555 58.216 608.491 58.456 610.123 58.936C611.755 59.416 613.099 59.944 614.155 60.52L611.995 66.424C611.067 65.944 610.027 65.528 608.875 65.176C607.755 64.792 606.395 64.6 604.795 64.6C603.003 64.6 601.707 64.856 600.907 65.368C600.139 65.848 599.755 66.6 599.755 67.624C599.755 68.232 599.899 68.744 600.187 69.16C600.475 69.576 600.875 69.96 601.387 70.312C601.931 70.632 602.539 70.936 603.211 71.224C603.915 71.48 604.683 71.752 605.515 72.04C607.243 72.68 608.747 73.32 610.027 73.96C611.307 74.568 612.363 75.288 613.195 76.12C614.059 76.952 614.699 77.928 615.115 79.048C615.531 80.168 615.739 81.528 615.739 83.128C615.739 86.232 614.651 88.648 612.475 90.376C610.299 92.072 607.019 92.92 602.635 92.92C601.163 92.92 599.835 92.824 598.651 92.632C597.467 92.472 596.411 92.264 595.483 92.008C594.587 91.752 593.803 91.48 593.131 91.192C592.491 90.904 591.947 90.632 591.499 90.376L593.611 84.424C594.603 84.968 595.819 85.464 597.259 85.912C598.731 86.328 600.523 86.536 602.635 86.536ZM628.269 87.112C629.581 87.112 630.509 86.984 631.053 86.728C631.597 86.472 631.869 85.976 631.869 85.24C631.869 84.664 631.517 84.168 630.813 83.752C630.109 83.304 629.037 82.808 627.597 82.264C626.477 81.848 625.453 81.416 624.525 80.968C623.629 80.52 622.861 79.992 622.221 79.384C621.581 78.744 621.085 77.992 620.733 77.128C620.381 76.264 620.205 75.224 620.205 74.008C620.205 71.64 621.085 69.768 622.845 68.392C624.605 67.016 627.021 66.328 630.093 66.328C631.629 66.328 633.101 66.472 634.509 66.76C635.917 67.016 637.037 67.304 637.869 67.624L636.621 73.192C635.789 72.904 634.877 72.648 633.885 72.424C632.925 72.2 631.837 72.088 630.621 72.088C628.381 72.088 627.261 72.712 627.261 73.96C627.261 74.248 627.309 74.504 627.405 74.728C627.501 74.952 627.693 75.176 627.981 75.4C628.269 75.592 628.653 75.816 629.133 76.072C629.645 76.296 630.285 76.552 631.053 76.84C632.621 77.416 633.917 77.992 634.941 78.568C635.965 79.112 636.765 79.72 637.341 80.392C637.949 81.032 638.365 81.752 638.589 82.552C638.845 83.352 638.973 84.28 638.973 85.336C638.973 87.832 638.029 89.72 636.141 91C634.285 92.28 631.645 92.92 628.221 92.92C625.981 92.92 624.109 92.728 622.605 92.344C621.133 91.96 620.109 91.64 619.533 91.384L620.733 85.576C621.949 86.056 623.197 86.44 624.477 86.728C625.757 86.984 627.021 87.112 628.269 87.112ZM28.032 113.984V120.368H18V147.248H10.512V120.368H0.48002V113.984H28.032ZM32.1244 115.712L39.2764 114.56V122H47.8684V127.952H39.2764V136.832C39.2764 138.336 39.5324 139.536 40.0444 140.432C40.5884 141.328 41.6604 141.776 43.2604 141.776C44.0284 141.776 44.8124 141.712 45.6124 141.584C46.4444 141.424 47.1964 141.216 47.8684 140.96L48.8764 146.528C48.0124 146.88 47.0524 147.184 45.9964 147.44C44.9404 147.696 43.6444 147.824 42.1084 147.824C40.1564 147.824 38.5404 147.568 37.2604 147.056C35.9804 146.512 34.9564 145.776 34.1884 144.848C33.4204 143.888 32.8764 142.736 32.5564 141.392C32.2684 140.048 32.1244 138.56 32.1244 136.928V115.712ZM78.7118 147.92C76.3758 147.92 74.3598 147.6 72.6638 146.96C70.9678 146.288 69.5598 145.376 68.4398 144.224C67.3518 143.04 66.5358 141.648 65.9918 140.048C65.4798 138.416 65.2238 136.624 65.2238 134.672V113.984H72.7118V134.048C72.7118 135.392 72.8558 136.544 73.1438 137.504C73.4638 138.432 73.8798 139.2 74.3918 139.808C74.9358 140.384 75.5758 140.8 76.3118 141.056C77.0798 141.312 77.9118 141.44 78.8078 141.44C80.6318 141.44 82.1038 140.88 83.2238 139.76C84.3758 138.64 84.9518 136.736 84.9518 134.048V113.984H92.4398V134.672C92.4398 136.624 92.1678 138.416 91.6238 140.048C91.0798 141.68 90.2478 143.088 89.1278 144.272C88.0078 145.424 86.5838 146.32 84.8558 146.96C83.1278 147.6 81.0798 147.92 78.7118 147.92ZM120.713 146.384C119.497 146.736 117.929 147.056 116.009 147.344C114.089 147.664 112.073 147.824 109.961 147.824C107.817 147.824 106.025 147.536 104.585 146.96C103.177 146.384 102.057 145.584 101.225 144.56C100.393 143.504 99.8013 142.256 99.4493 140.816C99.0973 139.376 98.9213 137.792 98.9213 136.064V122H106.073V135.2C106.073 137.504 106.377 139.168 106.985 140.192C107.593 141.216 108.729 141.728 110.393 141.728C110.905 141.728 111.449 141.712 112.025 141.68C112.601 141.616 113.113 141.552 113.561 141.488V122H120.713V146.384ZM149.326 147.248C148.014 144.464 146.718 141.568 145.438 138.56C144.158 135.552 142.942 132.576 141.79 129.632C140.638 126.688 139.566 123.872 138.574 121.184C137.614 118.496 136.782 116.096 136.078 113.984H144.334C144.974 115.904 145.662 117.984 146.398 120.224C147.166 122.432 147.934 124.64 148.702 126.848C149.502 129.056 150.27 131.168 151.006 133.184C151.742 135.2 152.43 136.944 153.07 138.416C153.678 136.944 154.35 135.2 155.086 133.184C155.854 131.168 156.622 129.056 157.39 126.848C158.19 124.64 158.958 122.432 159.694 120.224C160.462 117.984 161.166 115.904 161.806 113.984H169.774C169.038 116.096 168.19 118.496 167.23 121.184C166.27 123.872 165.214 126.688 164.062 129.632C162.91 132.576 161.694 135.552 160.414 138.56C159.134 141.568 157.838 144.464 156.526 147.248H149.326ZM180.463 147.248C178.831 144.048 177.167 140.304 175.471 136.016C173.807 131.728 172.223 127.056 170.719 122H178.303C178.623 123.248 178.991 124.608 179.407 126.08C179.855 127.52 180.303 128.992 180.751 130.496C181.231 131.968 181.695 133.408 182.143 134.816C182.623 136.224 183.087 137.504 183.535 138.656C183.951 137.504 184.399 136.224 184.879 134.816C185.359 133.408 185.823 131.968 186.271 130.496C186.751 128.992 187.199 127.52 187.615 126.08C188.063 124.608 188.447 123.248 188.767 122H196.159C194.655 127.056 193.055 131.728 191.359 136.016C189.695 140.304 188.047 144.048 186.415 147.248H180.463ZM234.321 117.536C234.705 118.848 235.121 120.336 235.569 122C236.049 123.632 236.545 125.328 237.057 127.088C237.601 128.848 238.145 130.608 238.689 132.368C239.233 134.128 239.761 135.76 240.273 137.264C240.689 135.632 241.105 133.856 241.521 131.936C241.969 130.016 242.385 128.032 242.769 125.984C243.153 123.936 243.521 121.904 243.873 119.888C244.257 117.84 244.609 115.872 244.929 113.984H252.705C251.585 119.552 250.289 125.2 248.817 130.928C247.377 136.656 245.809 142.096 244.113 147.248H237.249C236.129 144.176 235.041 140.96 233.985 137.6C232.929 134.208 231.889 130.816 230.865 127.424C229.841 130.816 228.817 134.208 227.793 137.6C226.769 140.96 225.697 144.176 224.577 147.248H217.713C216.017 142.096 214.433 136.656 212.961 130.928C211.521 125.2 210.241 119.552 209.121 113.984H217.233C217.553 115.872 217.905 117.84 218.289 119.888C218.673 121.904 219.073 123.936 219.489 125.984C219.905 128.032 220.321 130.016 220.737 131.936C221.185 133.856 221.633 135.632 222.081 137.264C222.657 135.696 223.217 134.032 223.761 132.272C224.305 130.512 224.833 128.752 225.345 126.992C225.857 125.232 226.321 123.536 226.737 121.904C227.185 120.272 227.585 118.816 227.937 117.536H234.321ZM281.149 117.536C281.533 118.848 281.949 120.336 282.397 122C282.877 123.632 283.373 125.328 283.885 127.088C284.429 128.848 284.973 130.608 285.517 132.368C286.061 134.128 286.589 135.76 287.101 137.264C287.517 135.632 287.933 133.856 288.349 131.936C288.797 130.016 289.213 128.032 289.597 125.984C289.981 123.936 290.349 121.904 290.701 119.888C291.085 117.84 291.437 115.872 291.757 113.984H299.533C298.413 119.552 297.117 125.2 295.645 130.928C294.205 136.656 292.637 142.096 290.941 147.248H284.077C282.957 144.176 281.869 140.96 280.813 137.6C279.757 134.208 278.717 130.816 277.693 127.424C276.669 130.816 275.645 134.208 274.621 137.6C273.597 140.96 272.525 144.176 271.405 147.248H264.541C262.845 142.096 261.261 136.656 259.789 130.928C258.349 125.2 257.069 119.552 255.949 113.984H264.061C264.381 115.872 264.733 117.84 265.117 119.888C265.501 121.904 265.901 123.936 266.317 125.984C266.733 128.032 267.149 130.016 267.565 131.936C268.013 133.856 268.461 135.632 268.909 137.264C269.485 135.696 270.045 134.032 270.589 132.272C271.133 130.512 271.661 128.752 272.173 126.992C272.685 125.232 273.149 123.536 273.565 121.904C274.013 120.272 274.413 118.816 274.765 117.536H281.149ZM334.98 147.248C334.052 145.392 333.028 143.52 331.908 141.632C330.82 139.712 329.556 137.76 328.116 135.776C327.668 136.352 327.092 137.152 326.388 138.176C325.716 139.2 325.028 140.288 324.324 141.44C323.652 142.592 323.012 143.696 322.404 144.752C321.796 145.808 321.348 146.64 321.06 147.248H312.516C313.924 144.656 315.556 141.936 317.412 139.088C319.3 136.24 321.396 133.216 323.7 130.016L312.996 113.984H322.068L328.548 124.352L334.884 113.984H343.428L332.868 130.112C335.556 133.6 337.812 136.832 339.636 139.808C341.46 142.752 342.9 145.232 343.956 147.248H334.98ZM358.99 129.68L363.982 122H371.374L362.734 134.144C364.654 136.544 366.398 138.88 367.966 141.152C369.534 143.424 370.782 145.456 371.71 147.248H364.03C363.774 146.768 363.454 146.176 363.07 145.472C362.686 144.736 362.254 143.984 361.774 143.216C361.294 142.416 360.782 141.632 360.238 140.864C359.726 140.064 359.214 139.344 358.702 138.704C358.222 139.312 357.726 139.984 357.214 140.72C356.734 141.456 356.27 142.208 355.822 142.976C355.374 143.712 354.926 144.448 354.478 145.184C354.062 145.92 353.694 146.608 353.374 147.248H346.078C346.462 146.448 346.99 145.504 347.662 144.416C348.334 143.328 349.054 142.208 349.822 141.056C350.622 139.872 351.454 138.704 352.318 137.552C353.182 136.368 354.03 135.264 354.862 134.24C353.422 132.224 351.982 130.192 350.542 128.144C349.102 126.064 347.678 124.016 346.27 122H353.998L358.99 129.68ZM399.74 127.664C401.084 125.392 402.364 123.12 403.58 120.848C404.796 118.576 405.916 116.288 406.94 113.984H415.196C413.372 117.568 411.484 121.04 409.532 124.4C407.58 127.76 405.516 131.136 403.34 134.528V147.248H395.852V134.624C393.676 131.232 391.596 127.84 389.612 124.448C387.66 121.056 385.772 117.568 383.948 113.984H392.636C393.66 116.288 394.764 118.576 395.948 120.848C397.132 123.12 398.396 125.392 399.74 127.664ZM440.749 122C439.309 126.864 437.805 131.424 436.237 135.68C434.669 139.936 432.957 144.064 431.101 148.064C430.429 149.504 429.757 150.72 429.085 151.712C428.413 152.736 427.677 153.568 426.877 154.208C426.077 154.88 425.165 155.36 424.141 155.648C423.149 155.968 421.981 156.128 420.637 156.128C419.517 156.128 418.477 156.016 417.517 155.792C416.589 155.6 415.821 155.376 415.213 155.12L416.461 149.408C417.197 149.664 417.853 149.84 418.429 149.936C419.005 150.032 419.613 150.08 420.253 150.08C421.533 150.08 422.509 149.728 423.181 149.024C423.885 148.352 424.477 147.408 424.957 146.192C423.325 142.992 421.693 139.408 420.061 135.44C418.429 131.44 416.893 126.96 415.453 122H423.037C423.357 123.248 423.725 124.608 424.141 126.08C424.589 127.52 425.053 128.992 425.533 130.496C426.013 131.968 426.493 133.408 426.973 134.816C427.485 136.224 427.965 137.504 428.413 138.656C428.829 137.504 429.261 136.224 429.709 134.816C430.157 133.408 430.589 131.968 431.005 130.496C431.453 128.992 431.869 127.52 432.253 126.08C432.669 124.608 433.037 123.248 433.357 122H440.749ZM480.066 119.168C479.042 120.224 477.826 121.6 476.418 123.296C475.01 124.96 473.554 126.784 472.05 128.768C470.546 130.752 469.058 132.8 467.586 134.912C466.114 137.024 464.802 139.04 463.65 140.96H480.594V147.248H454.434V142.784C455.33 141.152 456.418 139.344 457.698 137.36C459.01 135.344 460.37 133.328 461.778 131.312C463.186 129.264 464.61 127.296 466.05 125.408C467.522 123.488 468.882 121.776 470.13 120.272H455.202V113.984H480.066V119.168ZM504.887 126.8C504.311 127.44 503.527 128.304 502.535 129.392C501.575 130.48 500.535 131.68 499.415 132.992C498.295 134.304 497.159 135.68 496.007 137.12C494.887 138.56 493.863 139.952 492.935 141.296H505.127V147.248H484.247V143.024C484.919 141.872 485.719 140.64 486.647 139.328C487.607 137.984 488.599 136.64 489.623 135.296C490.679 133.952 491.719 132.656 492.743 131.408C493.767 130.128 494.711 128.976 495.575 127.952H484.823V122H504.887V126.8ZM2.88002 175.896C3.80802 175.512 4.76802 175.08 5.76002 174.6C6.78402 174.088 7.77602 173.544 8.73602 172.968C9.69602 172.36 10.608 171.736 11.472 171.096C12.368 170.424 13.168 169.72 13.872 168.984H18.864V202.248H11.712V178.296C10.752 178.936 9.68002 179.528 8.49602 180.072C7.31202 180.584 6.16002 181.032 5.04002 181.416L2.88002 175.896ZM50.6093 177.72C50.6093 178.936 50.3693 180.104 49.8893 181.224C49.4093 182.344 48.7853 183.432 48.0173 184.488C47.2493 185.512 46.3853 186.504 45.4253 187.464C44.4653 188.424 43.5213 189.336 42.5933 190.2C42.1133 190.648 41.5853 191.16 41.0093 191.736C40.4653 192.28 39.9373 192.84 39.4253 193.416C38.9133 193.992 38.4493 194.536 38.0333 195.048C37.6493 195.528 37.4093 195.928 37.3133 196.248H51.6173V202.248H29.4413C29.3773 201.896 29.3453 201.448 29.3453 200.904C29.3453 200.36 29.3453 199.976 29.3453 199.752C29.3453 198.216 29.5853 196.808 30.0653 195.528C30.5773 194.248 31.2333 193.064 32.0333 191.976C32.8333 190.856 33.7293 189.816 34.7213 188.856C35.7453 187.896 36.7533 186.936 37.7453 185.976C38.5133 185.24 39.2333 184.552 39.9053 183.912C40.5773 183.24 41.1693 182.6 41.6813 181.992C42.1933 181.352 42.5933 180.728 42.8813 180.12C43.1693 179.48 43.3133 178.84 43.3133 178.2C43.3133 176.792 42.9133 175.8 42.1133 175.224C41.3133 174.648 40.3213 174.36 39.1373 174.36C38.2733 174.36 37.4573 174.504 36.6893 174.792C35.9533 175.048 35.2653 175.368 34.6253 175.752C34.0173 176.104 33.4893 176.472 33.0413 176.856C32.5933 177.208 32.2573 177.496 32.0333 177.72L28.4813 172.728C29.8893 171.416 31.5213 170.344 33.3773 169.512C35.2653 168.648 37.2813 168.216 39.4253 168.216C41.3773 168.216 43.0573 168.44 44.4653 168.888C45.8733 169.336 47.0253 169.976 47.9213 170.808C48.8493 171.608 49.5213 172.6 49.9373 173.784C50.3853 174.936 50.6093 176.248 50.6093 177.72ZM65.0265 202.968C64.1625 202.968 63.2505 202.904 62.2905 202.776C61.3305 202.68 60.4025 202.536 59.5065 202.344C58.6105 202.152 57.7945 201.944 57.0585 201.72C56.3225 201.496 55.7465 201.288 55.3305 201.096L56.7225 195.144C57.5545 195.496 58.6105 195.88 59.8905 196.296C61.2025 196.68 62.8185 196.872 64.7385 196.872C66.9465 196.872 68.5625 196.456 69.5865 195.624C70.6105 194.792 71.1225 193.672 71.1225 192.264C71.1225 191.4 70.9305 190.68 70.5465 190.104C70.1945 189.496 69.6985 189.016 69.0585 188.664C68.4185 188.28 67.6505 188.024 66.7545 187.896C65.8905 187.736 64.9625 187.656 63.9705 187.656H61.1865V181.896H64.3545C65.0585 181.896 65.7305 181.832 66.3705 181.704C67.0425 181.576 67.6345 181.368 68.1465 181.08C68.6585 180.76 69.0585 180.344 69.3465 179.832C69.6665 179.288 69.8265 178.616 69.8265 177.816C69.8265 177.208 69.6985 176.68 69.4425 176.232C69.1865 175.784 68.8505 175.416 68.4345 175.128C68.0505 174.84 67.5865 174.632 67.0425 174.504C66.5305 174.344 66.0025 174.264 65.4585 174.264C64.0825 174.264 62.8025 174.472 61.6185 174.888C60.4665 175.304 59.4105 175.816 58.4505 176.424L55.9065 171.192C56.4185 170.872 57.0105 170.536 57.6825 170.184C58.3865 169.832 59.1545 169.512 59.9865 169.224C60.8185 168.936 61.6985 168.696 62.6265 168.504C63.5865 168.312 64.5945 168.216 65.6505 168.216C67.6025 168.216 69.2825 168.456 70.6905 168.936C72.1305 169.384 73.3145 170.04 74.2425 170.904C75.1705 171.736 75.8585 172.728 76.3065 173.88C76.7545 175 76.9785 176.232 76.9785 177.576C76.9785 178.888 76.6105 180.168 75.8745 181.416C75.1385 182.632 74.1465 183.56 72.8985 184.2C74.6265 184.904 75.9545 185.96 76.8825 187.368C77.8425 188.744 78.3225 190.408 78.3225 192.36C78.3225 193.896 78.0665 195.32 77.5545 196.632C77.0425 197.912 76.2425 199.032 75.1545 199.992C74.0665 200.92 72.6745 201.656 70.9785 202.2C69.3145 202.712 67.3305 202.968 65.0265 202.968ZM96.6758 177.72C95.4278 179.352 94.0998 181.128 92.6918 183.048C91.2838 184.968 90.0998 186.936 89.1398 188.952H96.6758V177.72ZM103.684 168.984V188.952H107.236V194.808H103.684V202.248H96.6758V194.808H82.3238V189.576C83.0278 188.168 83.9078 186.584 84.9638 184.824C86.0198 183.032 87.1878 181.208 88.4678 179.352C89.7798 177.464 91.1558 175.624 92.5958 173.832C94.0358 172.04 95.4758 170.424 96.9158 168.984H103.684ZM125.925 192.456C125.925 191.528 125.717 190.712 125.301 190.008C124.885 189.272 124.165 188.664 123.141 188.184C122.117 187.704 120.741 187.336 119.013 187.08C117.285 186.824 115.109 186.696 112.485 186.696C112.837 183.72 113.125 180.696 113.349 177.624C113.573 174.552 113.749 171.672 113.877 168.984H131.877V174.984H119.877C119.813 176.136 119.733 177.256 119.637 178.344C119.573 179.4 119.493 180.328 119.397 181.128C124.069 181.448 127.509 182.552 129.717 184.44C131.957 186.296 133.077 188.888 133.077 192.216C133.077 193.752 132.805 195.176 132.261 196.488C131.717 197.8 130.901 198.936 129.813 199.896C128.725 200.856 127.349 201.608 125.685 202.152C124.053 202.696 122.133 202.968 119.925 202.968C119.061 202.968 118.149 202.904 117.189 202.776C116.261 202.68 115.349 202.536 114.453 202.344C113.589 202.184 112.805 202.008 112.101 201.816C111.397 201.624 110.853 201.432 110.469 201.24L111.765 195.336C112.565 195.688 113.621 196.04 114.933 196.392C116.245 196.712 117.813 196.872 119.637 196.872C121.845 196.872 123.445 196.44 124.437 195.576C125.429 194.68 125.925 193.64 125.925 192.456ZM149.078 186.6C148.374 186.6 147.622 186.664 146.822 186.792C146.022 186.92 145.398 187.096 144.95 187.32C144.95 187.448 144.934 187.64 144.902 187.896C144.902 188.152 144.902 188.376 144.902 188.568C144.902 189.72 144.982 190.808 145.142 191.832C145.302 192.856 145.574 193.752 145.958 194.52C146.342 195.288 146.854 195.896 147.494 196.344C148.134 196.76 148.934 196.968 149.894 196.968C150.694 196.968 151.366 196.808 151.91 196.488C152.486 196.136 152.95 195.704 153.302 195.192C153.686 194.68 153.958 194.12 154.118 193.512C154.31 192.872 154.406 192.264 154.406 191.688C154.406 190.056 153.99 188.808 153.158 187.944C152.358 187.048 150.998 186.6 149.078 186.6ZM149.99 181.032C152.07 181.032 153.83 181.32 155.27 181.896C156.742 182.44 157.942 183.192 158.87 184.152C159.798 185.112 160.47 186.232 160.886 187.512C161.302 188.792 161.51 190.152 161.51 191.592C161.51 192.872 161.27 194.184 160.79 195.528C160.342 196.872 159.638 198.088 158.678 199.176C157.75 200.264 156.55 201.16 155.078 201.864C153.638 202.568 151.926 202.92 149.942 202.92C145.942 202.92 142.902 201.656 140.822 199.128C138.742 196.6 137.702 193.112 137.702 188.664C137.702 185.464 138.198 182.632 139.19 180.168C140.182 177.704 141.59 175.64 143.414 173.976C145.27 172.28 147.494 171 150.086 170.136C152.71 169.24 155.654 168.776 158.918 168.744C158.982 169.736 159.046 170.712 159.11 171.672C159.174 172.6 159.238 173.576 159.302 174.6C157.67 174.632 156.134 174.792 154.694 175.08C153.286 175.336 151.99 175.752 150.806 176.328C149.654 176.904 148.646 177.656 147.782 178.584C146.918 179.48 146.246 180.584 145.766 181.896C146.47 181.576 147.19 181.352 147.926 181.224C148.662 181.096 149.35 181.032 149.99 181.032ZM170.024 202.248C170.216 199.912 170.616 197.48 171.224 194.952C171.832 192.424 172.568 189.944 173.432 187.512C174.328 185.08 175.32 182.792 176.408 180.648C177.496 178.472 178.6 176.6 179.72 175.032H165.272V168.936H188.552V174.12C187.528 175.24 186.392 176.792 185.144 178.776C183.928 180.76 182.76 183.016 181.64 185.544C180.552 188.04 179.592 190.728 178.76 193.608C177.96 196.488 177.464 199.368 177.272 202.248H170.024ZM215.929 192.984C215.929 194.424 215.673 195.752 215.161 196.968C214.681 198.152 213.945 199.192 212.953 200.088C211.961 200.984 210.713 201.688 209.209 202.2C207.737 202.68 206.025 202.92 204.073 202.92C201.833 202.92 199.961 202.616 198.457 202.008C196.985 201.368 195.785 200.584 194.857 199.656C193.961 198.728 193.321 197.72 192.937 196.632C192.553 195.512 192.361 194.488 192.361 193.56C192.361 192.6 192.489 191.72 192.745 190.92C193.001 190.12 193.353 189.4 193.801 188.76C194.249 188.088 194.745 187.48 195.289 186.936C195.865 186.392 196.473 185.88 197.113 185.4C195.737 184.28 194.713 183.176 194.041 182.088C193.401 181 193.081 179.608 193.081 177.912C193.081 176.632 193.337 175.4 193.849 174.216C194.393 173.032 195.145 172.008 196.105 171.144C197.065 170.248 198.217 169.544 199.561 169.032C200.937 168.488 202.457 168.216 204.121 168.216C206.073 168.216 207.737 168.504 209.113 169.08C210.521 169.624 211.673 170.328 212.569 171.192C213.465 172.056 214.105 173.032 214.489 174.12C214.905 175.176 215.113 176.232 215.113 177.288C215.113 178.824 214.697 180.264 213.865 181.608C213.065 182.92 212.057 183.96 210.841 184.728C212.665 185.912 213.961 187.16 214.729 188.472C215.529 189.752 215.929 191.256 215.929 192.984ZM199.321 193.272C199.321 193.656 199.401 194.088 199.561 194.568C199.753 195.016 200.041 195.432 200.425 195.816C200.809 196.2 201.305 196.52 201.913 196.776C202.521 197.032 203.257 197.16 204.121 197.16C205.785 197.16 207.001 196.76 207.769 195.96C208.537 195.16 208.921 194.264 208.921 193.272C208.921 192.536 208.745 191.88 208.393 191.304C208.073 190.728 207.625 190.232 207.049 189.816C206.473 189.368 205.785 188.984 204.985 188.664C204.217 188.312 203.385 187.992 202.489 187.704C201.593 188.376 200.841 189.16 200.233 190.056C199.625 190.952 199.321 192.024 199.321 193.272ZM208.201 177.48C208.201 177.128 208.121 176.76 207.961 176.376C207.833 175.96 207.593 175.576 207.241 175.224C206.921 174.872 206.505 174.584 205.993 174.36C205.481 174.104 204.857 173.976 204.121 173.976C203.417 173.976 202.809 174.088 202.297 174.312C201.785 174.536 201.353 174.84 201.001 175.224C200.681 175.576 200.441 175.96 200.281 176.376C200.121 176.792 200.041 177.192 200.041 177.576C200.041 178.6 200.409 179.56 201.145 180.456C201.913 181.352 203.209 182.12 205.033 182.76C206.057 182.12 206.841 181.384 207.385 180.552C207.929 179.72 208.201 178.696 208.201 177.48ZM231.642 184.392C232.378 184.392 233.146 184.328 233.946 184.2C234.746 184.04 235.338 183.832 235.722 183.576V183.144C235.722 183.016 235.722 182.888 235.722 182.76C235.754 182.632 235.77 182.52 235.77 182.424C235.738 181.272 235.642 180.2 235.482 179.208C235.322 178.184 235.05 177.304 234.666 176.568C234.282 175.8 233.754 175.208 233.082 174.792C232.442 174.344 231.642 174.12 230.682 174.12C229.914 174.12 229.242 174.28 228.666 174.6C228.09 174.92 227.626 175.336 227.274 175.848C226.922 176.36 226.65 176.92 226.458 177.528C226.298 178.136 226.218 178.728 226.218 179.304C226.218 181.032 226.634 182.312 227.466 183.144C228.33 183.976 229.722 184.392 231.642 184.392ZM235.146 189.048C234.474 189.368 233.722 189.608 232.89 189.768C232.09 189.896 231.402 189.96 230.826 189.96C228.746 189.96 226.97 189.72 225.498 189.24C224.026 188.728 222.81 188.024 221.85 187.128C220.922 186.2 220.234 185.096 219.786 183.816C219.338 182.536 219.114 181.128 219.114 179.592C219.114 178.312 219.322 177 219.738 175.656C220.186 174.312 220.874 173.096 221.802 172.008C222.73 170.888 223.898 169.976 225.306 169.272C226.746 168.536 228.474 168.168 230.49 168.168C234.618 168.168 237.722 169.448 239.802 172.008C241.914 174.536 242.97 178.184 242.97 182.952C242.97 186.088 242.554 188.856 241.722 191.256C240.922 193.656 239.658 195.672 237.93 197.304C236.234 198.936 234.058 200.184 231.402 201.048C228.746 201.88 225.594 202.312 221.946 202.344C221.914 201.32 221.866 200.328 221.802 199.368C221.738 198.408 221.674 197.416 221.61 196.392C223.434 196.36 225.082 196.232 226.554 196.008C228.026 195.752 229.322 195.352 230.442 194.808C231.562 194.232 232.506 193.48 233.274 192.552C234.074 191.624 234.698 190.456 235.146 189.048ZM270.683 185.544C270.683 191.144 269.611 195.448 267.467 198.456C265.355 201.432 262.427 202.92 258.683 202.92C254.939 202.92 251.995 201.432 249.851 198.456C247.739 195.448 246.683 191.144 246.683 185.544C246.683 182.76 246.955 180.296 247.499 178.152C248.075 176.008 248.891 174.2 249.947 172.728C251.003 171.256 252.267 170.136 253.739 169.368C255.211 168.6 256.859 168.216 258.683 168.216C262.427 168.216 265.355 169.72 267.467 172.728C269.611 175.704 270.683 179.976 270.683 185.544ZM263.387 185.544C263.387 183.88 263.307 182.376 263.147 181.032C262.987 179.656 262.731 178.472 262.379 177.48C262.027 176.488 261.547 175.72 260.939 175.176C260.331 174.632 259.579 174.36 258.683 174.36C257.787 174.36 257.035 174.632 256.427 175.176C255.851 175.72 255.371 176.488 254.987 177.48C254.635 178.472 254.379 179.656 254.219 181.032C254.059 182.376 253.979 183.88 253.979 185.544C253.979 187.208 254.059 188.728 254.219 190.104C254.379 191.48 254.635 192.664 254.987 193.656C255.371 194.648 255.851 195.416 256.427 195.96C257.035 196.504 257.787 196.776 258.683 196.776C259.579 196.776 260.331 196.504 260.939 195.96C261.547 195.416 262.027 194.648 262.379 193.656C262.731 192.664 262.987 191.48 263.147 190.104C263.307 188.728 263.387 187.208 263.387 185.544Z" fill="#93AD49"/>
</svg>
