<svg width="669" height="230" viewBox="0 0 669 230" fill="none" xmlns="http://www.w3.org/2000/svg">
<rect x="0.00012207" width="669" height="229.303" rx="21.7521" fill="#2B6243"/>
<path d="M529.445 168.868C531.383 168.868 533.233 168.826 534.995 168.741C536.757 168.656 538.166 168.528 539.224 168.358V153.955C538.431 153.785 537.241 153.615 535.656 153.445C534.07 153.275 532.616 153.19 531.295 153.19C529.445 153.19 527.683 153.317 526.009 153.572C524.423 153.742 523.014 154.125 521.78 154.719C520.547 155.314 519.578 156.122 518.873 157.141C518.168 158.161 517.816 159.436 517.816 160.965C517.816 163.939 518.829 166.021 520.855 167.211C522.97 168.316 525.833 168.868 529.445 168.868ZM527.859 113.293C533.673 113.293 538.519 113.93 542.395 115.205C546.271 116.48 549.355 118.307 551.645 120.686C554.024 123.065 555.698 125.955 556.667 129.354C557.636 132.753 558.12 136.534 558.12 140.698V180.213C555.301 180.807 551.381 181.487 546.359 182.252C541.338 183.102 535.259 183.527 528.123 183.527C523.63 183.527 519.534 183.144 515.834 182.379C512.222 181.615 509.094 180.383 506.452 178.683C503.809 176.898 501.782 174.604 500.373 171.8C498.963 168.996 498.259 165.554 498.259 161.475C498.259 157.566 499.051 154.252 500.637 151.533C502.311 148.813 504.513 146.647 507.244 145.032C509.975 143.417 513.103 142.27 516.627 141.59C520.151 140.826 523.807 140.443 527.595 140.443C530.15 140.443 532.396 140.571 534.334 140.826C536.36 140.996 537.99 141.25 539.224 141.59V139.806C539.224 136.577 538.21 133.985 536.184 132.03C534.158 130.076 530.634 129.099 525.613 129.099C522.265 129.099 518.961 129.354 515.702 129.864C512.442 130.288 509.623 130.926 507.244 131.776L504.734 116.48C505.879 116.14 507.288 115.8 508.962 115.46C510.724 115.035 512.618 114.695 514.645 114.44C516.671 114.1 518.785 113.845 520.988 113.675C523.278 113.42 525.569 113.293 527.859 113.293Z" fill="#3A3A3A"/>
<path d="M447.337 139.296C449.275 137.257 451.257 135.132 453.284 132.923C455.398 130.713 457.424 128.547 459.362 126.422C461.3 124.213 463.106 122.131 464.78 120.176C466.542 118.222 468.04 116.522 469.273 115.078H492.663C487.994 120.261 483.413 125.232 478.92 129.991C474.515 134.665 469.67 139.509 464.384 144.522C467.027 146.817 469.758 149.578 472.577 152.808C475.396 155.952 478.127 159.223 480.77 162.622C483.413 166.022 485.835 169.421 488.038 172.82C490.24 176.219 492.09 179.32 493.588 182.125H470.991C469.582 179.915 467.952 177.493 466.102 174.859C464.34 172.14 462.446 169.463 460.419 166.829C458.393 164.11 456.235 161.518 453.944 159.053C451.742 156.589 449.54 154.507 447.337 152.808V182.125H427.647V86.2704L447.337 83.2112V139.296Z" fill="#3A3A3A"/>
<path d="M410.422 183.399C404.695 183.314 400.026 182.72 396.414 181.615C392.89 180.51 390.071 178.981 387.957 177.026C385.931 174.987 384.521 172.565 383.728 169.761C383.024 166.871 382.671 163.642 382.671 160.073V86.2704L402.361 83.2112V156.249C402.361 157.949 402.493 159.478 402.757 160.838C403.022 162.198 403.506 163.345 404.211 164.279C405.004 165.214 406.105 165.979 407.514 166.574C408.924 167.169 410.818 167.551 413.197 167.721L410.422 183.399Z" fill="#3A3A3A"/>
<path d="M302.196 149.111C302.196 143.162 303.121 137.979 304.971 133.56C306.909 129.056 309.42 125.317 312.503 122.343C315.587 119.369 319.11 117.117 323.075 115.587C327.127 114.058 331.268 113.293 335.496 113.293C345.363 113.293 353.16 116.225 358.886 122.088C364.612 127.867 367.476 136.407 367.476 147.709C367.476 148.813 367.432 150.046 367.343 151.405C367.255 152.68 367.167 153.827 367.079 154.847H322.414C322.855 158.756 324.749 161.857 328.096 164.152C331.444 166.446 335.937 167.593 341.575 167.593C345.187 167.593 348.711 167.296 352.147 166.701C355.671 166.021 358.534 165.214 360.736 164.279L363.379 179.703C362.322 180.213 360.912 180.722 359.15 181.232C357.389 181.742 355.406 182.167 353.204 182.507C351.09 182.932 348.799 183.272 346.332 183.527C343.866 183.782 341.399 183.909 338.932 183.909C332.677 183.909 327.215 183.017 322.546 181.232C317.965 179.448 314.133 177.026 311.05 173.967C308.054 170.823 305.808 167.126 304.31 162.877C302.901 158.628 302.196 154.04 302.196 149.111ZM348.447 141.845C348.359 140.231 348.05 138.659 347.522 137.129C347.081 135.6 346.332 134.24 345.275 133.05C344.306 131.861 343.029 130.883 341.443 130.118C339.945 129.354 338.051 128.971 335.761 128.971C333.558 128.971 331.664 129.354 330.079 130.118C328.493 130.798 327.171 131.733 326.114 132.923C325.057 134.112 324.22 135.515 323.603 137.129C323.075 138.659 322.678 140.231 322.414 141.845H348.447Z" fill="#3A3A3A"/>
<path d="M292.933 131.903C291.171 131.478 289.1 131.053 286.722 130.628C284.343 130.118 281.788 129.863 279.057 129.863C277.824 129.863 276.326 129.991 274.564 130.246C272.891 130.416 271.613 130.628 270.732 130.883V182.124H251.043V118.646C254.566 117.457 258.707 116.352 263.464 115.332C268.31 114.228 273.683 113.675 279.586 113.675C280.643 113.675 281.92 113.76 283.418 113.93C284.916 114.015 286.413 114.185 287.911 114.44C289.409 114.61 290.906 114.865 292.404 115.205C293.902 115.46 295.179 115.8 296.236 116.225L292.933 131.903Z" fill="#3A3A3A"/>
<path d="M204.561 168.868C206.499 168.868 208.349 168.826 210.111 168.741C211.873 168.656 213.283 168.528 214.34 168.358V153.955C213.547 153.785 212.358 153.615 210.772 153.445C209.186 153.275 207.732 153.19 206.411 153.19C204.561 153.19 202.799 153.317 201.125 153.572C199.539 153.742 198.13 154.125 196.897 154.719C195.663 155.314 194.694 156.122 193.989 157.141C193.285 158.161 192.932 159.436 192.932 160.965C192.932 163.939 193.945 166.021 195.972 167.211C198.086 168.316 200.949 168.868 204.561 168.868ZM202.975 113.293C208.79 113.293 213.635 113.93 217.511 115.205C221.387 116.48 224.471 118.307 226.761 120.686C229.14 123.065 230.814 125.955 231.783 129.354C232.752 132.753 233.236 136.534 233.236 140.698V180.213C230.417 180.807 226.497 181.487 221.476 182.252C216.454 183.102 210.375 183.527 203.24 183.527C198.747 183.527 194.65 183.144 190.95 182.379C187.338 181.615 184.211 180.383 181.568 178.683C178.925 176.898 176.899 174.604 175.489 171.8C174.08 168.996 173.375 165.554 173.375 161.475C173.375 157.566 174.168 154.252 175.753 151.533C177.427 148.813 179.63 146.647 182.361 145.032C185.092 143.417 188.219 142.27 191.743 141.59C195.267 140.826 198.923 140.443 202.711 140.443C205.266 140.443 207.512 140.571 209.45 140.826C211.477 140.996 213.106 141.25 214.34 141.59V139.806C214.34 136.577 213.327 133.985 211.3 132.03C209.274 130.076 205.75 129.099 200.729 129.099C197.381 129.099 194.077 129.354 190.818 129.864C187.558 130.288 184.739 130.926 182.361 131.776L179.85 116.48C180.995 116.14 182.405 115.8 184.079 115.46C185.84 115.035 187.735 114.695 189.761 114.44C191.787 114.1 193.901 113.845 196.104 113.675C198.394 113.42 200.685 113.293 202.975 113.293Z" fill="#3A3A3A"/>
<path d="M121.203 98.3793L140.892 95.3201V115.077H164.546V130.883H140.892V154.464C140.892 158.458 141.597 161.645 143.007 164.024C144.504 166.404 147.456 167.593 151.86 167.593C153.975 167.593 156.133 167.423 158.336 167.083C160.626 166.658 162.696 166.106 164.546 165.426L167.321 180.212C164.943 181.147 162.3 181.954 159.393 182.634C156.485 183.314 152.918 183.654 148.689 183.654C143.315 183.654 138.866 182.974 135.342 181.614C131.818 180.17 128.999 178.215 126.885 175.751C124.771 173.202 123.273 170.143 122.392 166.574C121.599 163.004 121.203 159.053 121.203 154.719V98.3793Z" fill="#3A3A3A"/>
<rect x="431.537" y="33.3618" width="11.2074" height="45.3573" fill="#3A3A3A"/>
<path d="M451.515 38.5321C451.515 35.6766 453.829 33.3618 456.685 33.3618H462.722V78.7192H451.515V38.5321Z" fill="#3A3A3A"/>
<path d="M416.73 89.5298C413.874 89.5298 411.56 87.215 411.56 84.3595V78.7192H462.724V84.3595C462.724 87.215 460.409 89.5298 457.554 89.5298H416.73Z" fill="#3A3A3A"/>
<path d="M411.56 33.3618H417.597C420.452 33.3618 422.767 35.6766 422.767 38.5321V78.7192H411.56V33.3618Z" fill="#3A3A3A"/>
<path d="M111.677 103.428C112.714 105.049 140.738 111.911 140.738 111.911C140.738 111.911 141.079 23.5523 137.597 21.7034C134.115 19.8545 119.219 40.9365 113.728 56.265C107.487 73.6888 110.639 101.808 111.677 103.428Z" fill="#3A3A3A"/>
<path d="M663.48 5.05444L4.56147 221.351" stroke="white" stroke-width="9.06336" stroke-linecap="round"/>
</svg>
