<svg width="41" height="41" viewBox="0 0 41 41" fill="none" xmlns="http://www.w3.org/2000/svg">
<path d="M20.5 0C31.8218 0 41 8.73045 41 19.5C41 30.2696 31.8218 39 20.5 39C9.17816 39 0 30.2696 0 19.5C0 8.73045 9.17816 0 20.5 0ZM7.66797 11.75C7.88211 22.155 13.3474 28.4169 22.3555 28.417H22.8779V22.4639C26.1587 22.7969 28.6057 25.2502 29.6045 28.417H34.335C33.0517 23.6796 29.7241 21.0602 27.6562 20.0596C29.7225 18.822 32.6472 15.8214 33.3359 11.75H29.0322C28.1294 15.0608 25.4433 18.0615 22.877 18.3467V11.75H18.5039V23.2979C15.8432 22.6315 12.3727 19.3928 12.2305 11.75H7.66797Z" fill="#ED7D41"/>
</svg>
