<svg width="40" height="40" viewBox="0 0 40 40" fill="none" xmlns="http://www.w3.org/2000/svg">
<rect width="40" height="40" rx="20" fill="white"/>
<path d="M20.0001 0C8.96009 0 9.15527e-05 8.96 9.15527e-05 20C9.15527e-05 31.04 8.96009 40 20.0001 40C31.0401 40 40.0001 31.04 40.0001 20C40.0001 8.96 31.0401 0 20.0001 0ZM29.2801 13.6C28.9801 16.76 27.6801 24.44 27.0201 27.98C26.7401 29.48 26.1801 29.98 25.6601 30.04C24.5001 30.14 23.6201 29.28 22.5001 28.54C20.7401 27.38 19.7401 26.66 18.0401 25.54C16.0601 24.24 17.3401 23.52 18.4801 22.36C18.7801 22.06 23.9001 17.4 24.0001 16.98C24.014 16.9164 24.0121 16.8503 23.9947 16.7876C23.9773 16.7249 23.9448 16.6673 23.9001 16.62C23.7801 16.52 23.6201 16.56 23.4801 16.58C23.3001 16.62 20.5001 18.48 15.0401 22.16C14.2401 22.7 13.5201 22.98 12.8801 22.96C12.1601 22.94 10.8001 22.56 9.78009 22.22C8.52009 21.82 7.54009 21.6 7.62009 20.9C7.66009 20.54 8.16009 20.18 9.10009 19.8C14.9401 17.26 18.8201 15.58 20.7601 14.78C26.3201 12.46 27.4601 12.06 28.2201 12.06C28.3801 12.06 28.7601 12.1 29.0001 12.3C29.2001 12.46 29.2601 12.68 29.2801 12.84C29.2601 12.96 29.3001 13.32 29.2801 13.6Z" fill="#ED7D41"/>
</svg>
