<svg width="402" height="439" viewBox="0 0 402 439" fill="none" xmlns="http://www.w3.org/2000/svg">
<ellipse cx="27.0198" cy="35.9451" rx="27.0198" ry="35.9451" transform="matrix(-0.989649 0.143511 0.143511 0.989649 221.254 108.307)" fill="#F53232"/>
<ellipse cx="104.852" cy="104.94" rx="104.852" ry="104.94" transform="matrix(-0.41846 -0.908235 -0.908235 0.41846 278.316 208.555)" fill="#EEE5D2"/>
<ellipse cx="104.073" cy="104.25" rx="104.073" ry="104.25" transform="matrix(-0.430079 -0.902792 -0.902792 0.430079 277.754 207.553)" fill="#EEE3D1"/>
<ellipse cx="103.295" cy="103.56" rx="103.295" ry="103.56" transform="matrix(-0.441626 -0.897199 -0.897199 0.441626 277.176 206.55)" fill="#EEE2CF"/>
<ellipse cx="102.517" cy="102.87" rx="102.517" ry="102.87" transform="matrix(-0.453101 -0.891459 -0.891459 0.453101 276.605 205.548)" fill="#EEE0CE"/>
<ellipse cx="101.738" cy="102.18" rx="101.738" ry="102.18" transform="matrix(-0.464501 -0.885572 -0.885572 0.464501 276.043 204.544)" fill="#EEDECC"/>
<ellipse cx="100.96" cy="101.49" rx="100.96" ry="101.49" transform="matrix(-0.475825 -0.87954 -0.87954 0.475825 275.469 203.542)" fill="#EEDCCA"/>
<ellipse cx="100.182" cy="100.8" rx="100.182" ry="100.8" transform="matrix(-0.487071 -0.873363 -0.873363 0.487071 274.891 202.539)" fill="#EEDAC9"/>
<ellipse cx="99.4035" cy="100.11" rx="99.4035" ry="100.11" transform="matrix(-0.498236 -0.867041 -0.867041 0.498236 274.328 201.538)" fill="#EFD9C7"/>
<ellipse cx="98.6252" cy="99.4205" rx="98.6252" ry="99.4205" transform="matrix(-0.509319 -0.860578 -0.860578 0.509319 273.754 200.534)" fill="#EFD7C6"/>
<ellipse cx="97.8468" cy="98.7305" rx="97.8468" ry="98.7305" transform="matrix(-0.520319 -0.853972 -0.853972 0.520319 273.18 199.532)" fill="#EFD5C4"/>
<ellipse cx="97.0686" cy="98.0406" rx="97.0686" ry="98.0406" transform="matrix(-0.531233 -0.847226 -0.847226 0.531233 272.613 198.53)" fill="#EFD3C2"/>
<ellipse cx="96.2902" cy="97.3507" rx="96.2902" ry="97.3507" transform="matrix(-0.542059 -0.84034 -0.84034 0.542059 272.039 197.527)" fill="#EFD1C1"/>
<ellipse cx="95.5119" cy="96.6607" rx="95.5119" ry="96.6607" transform="matrix(-0.552796 -0.833317 -0.833317 0.552796 271.473 196.523)" fill="#EFD0BF"/>
<ellipse cx="94.7336" cy="95.9707" rx="94.7336" ry="95.9707" transform="matrix(-0.563442 -0.826155 -0.826155 0.563442 270.902 195.521)" fill="#EFCEBE"/>
<ellipse cx="93.9553" cy="95.2808" rx="93.9553" ry="95.2808" transform="matrix(-0.573996 -0.818858 -0.818858 0.573996 270.328 194.521)" fill="#EFCCBC"/>
<ellipse cx="93.177" cy="94.5909" rx="93.177" ry="94.5909" transform="matrix(-0.584454 -0.811427 -0.811427 0.584454 269.762 193.518)" fill="#EFCABA"/>
<ellipse cx="92.3986" cy="93.9009" rx="92.3986" ry="93.9009" transform="matrix(-0.594817 -0.803861 -0.803861 0.594817 269.188 192.516)" fill="#EFC8B9"/>
<ellipse cx="91.6203" cy="93.211" rx="91.6203" ry="93.211" transform="matrix(-0.605082 -0.796163 -0.796163 0.605082 268.621 191.513)" fill="#EFC7B7"/>
<ellipse cx="90.842" cy="92.521" rx="90.842" ry="92.521" transform="matrix(-0.615247 -0.788334 -0.788334 0.615247 268.047 190.511)" fill="#EFC5B5"/>
<ellipse cx="90.0637" cy="91.8311" rx="90.0637" ry="91.8311" transform="matrix(-0.625311 -0.780376 -0.780376 0.625311 267.477 189.507)" fill="#EFC3B4"/>
<ellipse cx="89.2854" cy="91.1411" rx="89.2854" ry="91.1411" transform="matrix(-0.635272 -0.772289 -0.772289 0.635272 266.902 188.505)" fill="#EFC1B2"/>
<ellipse cx="88.5071" cy="90.4512" rx="88.5071" ry="90.4512" transform="matrix(-0.645128 -0.764075 -0.764075 0.645128 266.336 187.504)" fill="#F0C0B1"/>
<ellipse cx="87.7287" cy="89.7612" rx="87.7287" ry="89.7612" transform="matrix(-0.654878 -0.755734 -0.755734 0.654878 265.766 186.5)" fill="#F0BEAF"/>
<ellipse cx="86.9504" cy="89.0713" rx="86.9504" ry="89.0713" transform="matrix(-0.664521 -0.74727 -0.74727 0.664521 265.191 185.498)" fill="#F0BCAD"/>
<ellipse cx="86.1721" cy="88.3813" rx="86.1721" ry="88.3813" transform="matrix(-0.674053 -0.738683 -0.738683 0.674053 264.625 184.494)" fill="#F0BAAC"/>
<ellipse cx="85.3938" cy="87.6914" rx="85.3938" ry="87.6914" transform="matrix(-0.683475 -0.729974 -0.729974 0.683475 264.055 183.493)" fill="#F0B8AA"/>
<ellipse cx="84.6155" cy="87.0014" rx="84.6155" ry="87.0014" transform="matrix(-0.692785 -0.721144 -0.721144 0.692785 263.48 182.49)" fill="#F0B7A9"/>
<ellipse cx="83.8371" cy="86.3114" rx="83.8371" ry="86.3114" transform="matrix(-0.70198 -0.712196 -0.712196 0.70198 262.914 181.487)" fill="#F0B5A7"/>
<ellipse cx="83.0588" cy="85.6215" rx="83.0588" ry="85.6215" transform="matrix(-0.71106 -0.703131 -0.703131 0.71106 262.34 180.485)" fill="#F0B3A5"/>
<ellipse cx="82.2805" cy="84.9316" rx="82.2805" ry="84.9316" transform="matrix(-0.720023 -0.69395 -0.69395 0.720023 261.77 179.483)" fill="#F0B1A4"/>
<ellipse cx="81.5022" cy="84.2416" rx="81.5022" ry="84.2416" transform="matrix(-0.728867 -0.684655 -0.684655 0.728867 261.203 178.48)" fill="#F0AFA2"/>
<ellipse cx="80.7238" cy="83.5517" rx="80.7238" ry="83.5517" transform="matrix(-0.737591 -0.675247 -0.675247 0.737591 260.633 177.477)" fill="#F0AEA1"/>
<ellipse cx="79.9455" cy="82.8617" rx="79.9455" ry="82.8617" transform="matrix(-0.746194 -0.665728 -0.665728 0.746194 260.059 176.476)" fill="#F0AC9F"/>
<ellipse cx="79.1672" cy="82.1718" rx="79.1672" ry="82.1718" transform="matrix(-0.754674 -0.6561 -0.6561 0.754674 259.488 175.473)" fill="#F0AA9D"/>
<ellipse cx="78.3889" cy="81.4818" rx="78.3889" ry="81.4818" transform="matrix(-0.76303 -0.646363 -0.646363 0.76303 258.918 174.471)" fill="#F0A89C"/>
<ellipse cx="77.6106" cy="80.7919" rx="77.6106" ry="80.7919" transform="matrix(-0.77126 -0.63652 -0.63652 0.77126 258.34 173.469)" fill="#F0A69A"/>
<ellipse cx="76.8322" cy="80.1019" rx="76.8322" ry="80.1019" transform="matrix(-0.779363 -0.626572 -0.626572 0.779363 257.773 172.467)" fill="#F1A599"/>
<ellipse cx="76.0539" cy="79.412" rx="76.0539" ry="79.412" transform="matrix(-0.787338 -0.616521 -0.616521 0.787338 257.207 171.463)" fill="#F1A397"/>
<ellipse cx="75.2756" cy="78.722" rx="75.2756" ry="78.722" transform="matrix(-0.795184 -0.606369 -0.606369 0.795184 256.637 170.461)" fill="#F1A195"/>
<ellipse cx="74.4973" cy="78.032" rx="74.4973" ry="78.032" transform="matrix(-0.802898 -0.596116 -0.596116 0.802898 256.066 169.459)" fill="#F19F94"/>
<ellipse cx="73.719" cy="77.3421" rx="73.719" ry="77.3421" transform="matrix(-0.81048 -0.585766 -0.585766 0.81048 255.492 168.456)" fill="#F19D92"/>
<ellipse cx="72.9407" cy="76.6521" rx="72.9407" ry="76.6521" transform="matrix(-0.817929 -0.575319 -0.575319 0.817929 254.918 167.454)" fill="#F19C91"/>
<ellipse cx="72.1623" cy="75.9622" rx="72.1623" ry="75.9622" transform="matrix(-0.825243 -0.564778 -0.564778 0.825243 254.355 166.451)" fill="#F19A8F"/>
<ellipse cx="71.384" cy="75.2723" rx="71.384" ry="75.2723" transform="matrix(-0.832421 -0.554143 -0.554143 0.832421 253.781 165.448)" fill="#F1988D"/>
<ellipse cx="70.6057" cy="74.5823" rx="70.6057" ry="74.5823" transform="matrix(-0.839463 -0.543417 -0.543417 0.839463 253.211 164.445)" fill="#F1968C"/>
<ellipse cx="69.8274" cy="73.8924" rx="69.8274" ry="73.8924" transform="matrix(-0.846366 -0.532602 -0.532602 0.846366 252.637 163.445)" fill="#F1948A"/>
<ellipse cx="69.0491" cy="73.2024" rx="69.0491" ry="73.2024" transform="matrix(-0.853129 -0.521699 -0.521699 0.853129 252.07 162.441)" fill="#F19388"/>
<ellipse cx="68.2708" cy="72.5125" rx="68.2708" ry="72.5125" transform="matrix(-0.859753 -0.510711 -0.510711 0.859753 251.504 161.439)" fill="#F19187"/>
<ellipse cx="67.4924" cy="71.8225" rx="67.4924" ry="71.8225" transform="matrix(-0.866234 -0.499638 -0.499638 0.866234 250.926 160.437)" fill="#F18F85"/>
<ellipse cx="66.7141" cy="71.1326" rx="66.7141" ry="71.1326" transform="matrix(-0.872574 -0.488483 -0.488483 0.872574 250.355 159.434)" fill="#F18D84"/>
<ellipse cx="65.9358" cy="70.4426" rx="65.9358" ry="70.4426" transform="matrix(-0.878769 -0.477247 -0.477247 0.878769 249.785 158.432)" fill="#F28B82"/>
<ellipse cx="65.1575" cy="69.7527" rx="65.1575" ry="69.7527" transform="matrix(-0.88482 -0.465933 -0.465933 0.88482 249.215 157.43)" fill="#F28A80"/>
<ellipse cx="64.3791" cy="69.0627" rx="64.3791" ry="69.0627" transform="matrix(-0.890725 -0.454542 -0.454542 0.890725 248.645 156.427)" fill="#F2887F"/>
<ellipse cx="63.6008" cy="68.3727" rx="63.6008" ry="68.3727" transform="matrix(-0.896484 -0.443077 -0.443077 0.896484 248.074 155.425)" fill="#F2867D"/>
<ellipse cx="62.8225" cy="67.6828" rx="62.8225" ry="67.6828" transform="matrix(-0.902095 -0.431538 -0.431538 0.902095 247.5 154.421)" fill="#F2847C"/>
<ellipse cx="62.0442" cy="66.9929" rx="62.0442" ry="66.9929" transform="matrix(-0.907557 -0.419929 -0.419929 0.907557 246.938 153.42)" fill="#F2827A"/>
<ellipse cx="61.2659" cy="66.3029" rx="61.2659" ry="66.3029" transform="matrix(-0.91287 -0.40825 -0.40825 0.91287 246.363 152.416)" fill="#F28178"/>
<ellipse cx="60.4875" cy="65.6129" rx="60.4875" ry="65.6129" transform="matrix(-0.918033 -0.396504 -0.396504 0.918033 245.793 151.415)" fill="#F27F77"/>
<ellipse cx="59.7092" cy="64.923" rx="59.7092" ry="64.923" transform="matrix(-0.923045 -0.384693 -0.384693 0.923045 245.219 150.412)" fill="#F27D75"/>
<ellipse cx="58.9309" cy="64.2331" rx="58.9309" ry="64.2331" transform="matrix(-0.927904 -0.372818 -0.372818 0.927904 244.652 149.409)" fill="#F27B74"/>
<ellipse cx="58.1526" cy="63.5431" rx="58.1526" ry="63.5431" transform="matrix(-0.932611 -0.360882 -0.360882 0.932611 244.078 148.406)" fill="#F27972"/>
<ellipse cx="57.3742" cy="62.8531" rx="57.3742" ry="62.8531" transform="matrix(-0.937165 -0.348887 -0.348887 0.937165 243.512 147.405)" fill="#F27870"/>
<ellipse cx="56.5959" cy="62.1632" rx="56.5959" ry="62.1632" transform="matrix(-0.941564 -0.336834 -0.336834 0.941564 242.941 146.401)" fill="#F2766F"/>
<ellipse cx="55.8176" cy="61.4732" rx="55.8176" ry="61.4732" transform="matrix(-0.945808 -0.324726 -0.324726 0.945808 242.367 145.398)" fill="#F2746D"/>
<ellipse cx="55.0393" cy="60.7833" rx="55.0393" ry="60.7833" transform="matrix(-0.949897 -0.312565 -0.312565 0.949897 241.797 144.396)" fill="#F2726C"/>
<ellipse cx="54.261" cy="60.0933" rx="54.261" ry="60.0933" transform="matrix(-0.953829 -0.300352 -0.300352 0.953829 241.227 143.395)" fill="#F3716A"/>
<ellipse cx="53.4827" cy="59.4034" rx="53.4827" ry="59.4034" transform="matrix(-0.957604 -0.288089 -0.288089 0.957604 240.656 142.393)" fill="#F36F68"/>
<ellipse cx="52.7044" cy="58.7135" rx="52.7044" ry="58.7135" transform="matrix(-0.961221 -0.275779 -0.275779 0.961221 240.09 141.389)" fill="#F36D67"/>
<ellipse cx="51.926" cy="58.0235" rx="51.926" ry="58.0235" transform="matrix(-0.96468 -0.263424 -0.263424 0.96468 239.516 140.387)" fill="#F36B65"/>
<ellipse cx="51.1477" cy="57.3336" rx="51.1477" ry="57.3336" transform="matrix(-0.967981 -0.251025 -0.251025 0.967981 238.945 139.384)" fill="#F36964"/>
<ellipse cx="50.3694" cy="56.6436" rx="50.3694" ry="56.6436" transform="matrix(-0.971122 -0.238585 -0.238585 0.971122 238.371 138.383)" fill="#F36862"/>
<ellipse cx="49.5911" cy="55.9537" rx="49.5911" ry="55.9537" transform="matrix(-0.974103 -0.226106 -0.226106 0.974103 237.801 137.38)" fill="#F36660"/>
<ellipse cx="48.8128" cy="55.2637" rx="48.8128" ry="55.2637" transform="matrix(-0.976924 -0.213589 -0.213589 0.976924 237.23 136.377)" fill="#F3645F"/>
<ellipse cx="48.0344" cy="54.5738" rx="48.0344" ry="54.5738" transform="matrix(-0.979584 -0.201037 -0.201037 0.979584 236.664 135.374)" fill="#F3625D"/>
<ellipse cx="47.2561" cy="53.8838" rx="47.2561" ry="53.8838" transform="matrix(-0.982082 -0.188452 -0.188452 0.982082 236.09 134.371)" fill="#F3605B"/>
<ellipse cx="46.4778" cy="53.1938" rx="46.4778" ry="53.1938" transform="matrix(-0.984419 -0.175837 -0.175837 0.984419 235.52 133.369)" fill="#F35F5A"/>
<ellipse cx="45.6995" cy="52.5039" rx="45.6995" ry="52.5039" transform="matrix(-0.986594 -0.163192 -0.163192 0.986594 234.949 132.365)" fill="#F35D58"/>
<ellipse cx="44.9211" cy="51.8139" rx="44.9211" ry="51.8139" transform="matrix(-0.988607 -0.15052 -0.15052 0.988607 234.379 131.363)" fill="#F35B57"/>
<ellipse cx="44.1428" cy="51.124" rx="44.1428" ry="51.124" transform="matrix(-0.990457 -0.137824 -0.137824 0.990457 233.805 130.36)" fill="#F35955"/>
<ellipse cx="43.3645" cy="50.434" rx="43.3645" ry="50.434" transform="matrix(-0.992144 -0.125105 -0.125105 0.992144 233.234 129.359)" fill="#F45753"/>
<ellipse cx="42.5862" cy="49.7441" rx="42.5862" ry="49.7441" transform="matrix(-0.993667 -0.112365 -0.112365 0.993667 232.668 128.356)" fill="#F45652"/>
<ellipse cx="41.8079" cy="49.0542" rx="41.8079" ry="49.0542" transform="matrix(-0.995027 -0.0996068 -0.0996068 0.995027 232.098 127.353)" fill="#F45450"/>
<ellipse cx="41.0296" cy="48.3642" rx="41.0296" ry="48.3642" transform="matrix(-0.996223 -0.0868322 -0.0868322 0.996223 231.527 126.352)" fill="#F4524F"/>
<ellipse cx="40.2513" cy="47.6743" rx="40.2513" ry="47.6743" transform="matrix(-0.997255 -0.0740433 -0.0740433 0.997255 230.953 125.349)" fill="#F4504D"/>
<ellipse cx="39.4729" cy="46.9843" rx="39.4729" ry="46.9843" transform="matrix(-0.998123 -0.0612423 -0.0612423 0.998123 230.387 124.347)" fill="#F44E4B"/>
<ellipse cx="38.6946" cy="46.2944" rx="38.6946" ry="46.2944" transform="matrix(-0.998827 -0.0484311 -0.0484311 0.998827 229.812 123.343)" fill="#F44D4A"/>
<ellipse cx="37.9163" cy="45.6044" rx="37.9163" ry="45.6044" transform="matrix(-0.999366 -0.0356119 -0.0356119 0.999366 229.242 122.342)" fill="#F44B48"/>
<ellipse cx="37.138" cy="44.9144" rx="37.138" ry="44.9144" transform="matrix(-0.99974 -0.022787 -0.022787 0.99974 228.668 121.338)" fill="#F44947"/>
<ellipse cx="36.3596" cy="44.2245" rx="36.3596" ry="44.2245" transform="matrix(-0.99995 -0.00995822 -0.00995822 0.99995 228.102 120.336)" fill="#F44745"/>
<ellipse cx="35.5813" cy="43.5345" rx="35.5813" ry="43.5345" transform="matrix(-0.999996 0.00287215 0.00287215 0.999996 227.527 119.332)" fill="#F44543"/>
<ellipse cx="34.803" cy="42.8446" rx="34.803" ry="42.8446" transform="matrix(-0.999877 0.0157021 0.0157021 0.999877 226.957 118.331)" fill="#F44442"/>
<ellipse cx="34.0247" cy="42.1546" rx="34.0247" ry="42.1546" transform="matrix(-0.999593 0.0285294 0.0285294 0.999593 226.391 117.328)" fill="#F44240"/>
<ellipse cx="33.2464" cy="41.4647" rx="33.2464" ry="41.4647" transform="matrix(-0.999145 0.041352 0.041352 0.999145 225.812 116.326)" fill="#F4403F"/>
<ellipse cx="32.4681" cy="40.7748" rx="32.4681" ry="40.7748" transform="matrix(-0.998532 0.0541679 0.0541679 0.998532 225.25 115.324)" fill="#F43E3D"/>
<ellipse cx="31.6897" cy="40.0848" rx="31.6897" ry="40.0848" transform="matrix(-0.997755 0.0669747 0.0669747 0.997755 224.68 114.321)" fill="#F53C3B"/>
<ellipse cx="30.9114" cy="39.3948" rx="30.9114" ry="39.3948" transform="matrix(-0.996813 0.0797706 0.0797706 0.996813 224.102 113.318)" fill="#F53B3A"/>
<ellipse cx="30.1331" cy="38.7049" rx="30.1331" ry="38.7049" transform="matrix(-0.995708 0.0925534 0.0925534 0.995708 223.535 112.316)" fill="#F53938"/>
<ellipse cx="29.3548" cy="38.0149" rx="29.3548" ry="38.0149" transform="matrix(-0.994438 0.105321 0.105321 0.994438 222.965 111.313)" fill="#F53737"/>
<ellipse cx="28.5764" cy="37.325" rx="28.5764" ry="37.325" transform="matrix(-0.993005 0.118071 0.118071 0.993005 222.395 110.311)" fill="#F53535"/>
<ellipse cx="27.7981" cy="36.635" rx="27.7981" ry="36.635" transform="matrix(-0.991409 0.130802 0.130802 0.991409 221.828 109.308)" fill="#F53333"/>
<path d="M166.625 113.228C170.08 112.469 170.974 109.286 174.46 108.679C176.665 108.294 178.296 107.754 180.186 108.955C183.698 111.188 180.922 116.132 178.432 119.467C175.912 122.845 172.642 122.639 168.702 124.135C164.866 125.593 162.227 128.983 158.608 127.05C155.877 125.591 155.194 123.238 154.627 120.195C154.01 116.881 153.7 113.918 156.254 111.72C159.356 109.05 162.627 114.106 166.625 113.228Z" fill="#78470F"/>
<path d="M137.323 189.995C134.545 191.055 131.576 193.228 131.368 196.548C131.214 199.002 133.762 199.862 134.037 202.258C134.382 205.26 132.629 207.516 131.825 210.515L128.189 224.087C126.096 231.897 123.245 237.586 122.427 245.588C121.467 254.989 121.76 262.602 124.752 271.008C128.309 281.003 134.574 286.194 141.948 292.615C151.014 300.509 159.222 305.158 170.65 307.578C178.634 309.269 185.024 309.049 193.292 308.037C202.303 306.935 209.091 304.7 217.815 301.202C225.847 297.981 232.032 295.42 239.296 290.046C246.151 284.976 250.922 280.175 256.417 273.166C262.141 265.867 266.597 259.918 269.685 250.872C272.265 243.315 273.192 237.554 274.095 231.112C274.313 229.564 274.703 226.433 274.254 225.021C273.665 223.166 271.069 224.838 269.649 223.787C268.631 223.033 270.346 220.397 267.378 220.988C264.41 221.578 245.232 235.101 231.879 240.742C222.272 244.8 214.928 248.488 204.958 249.651C193.05 251.041 183.233 250.892 172.859 245.169C162.255 239.319 150.217 218.861 150.217 218.861C150.217 218.861 145.147 209.804 144.699 203.713C144.397 199.618 147.903 195.459 145.847 192.279C143.979 189.39 140.482 188.791 137.323 189.995Z" fill="#E8E9FF"/>
<path d="M292.162 52.1324C270.15 72.9075 241.896 136.002 264.395 159.707C286.895 183.411 351.626 158.749 373.639 137.974C395.651 117.199 395.257 81.1411 372.758 57.4367C350.259 33.7322 314.175 31.3574 292.162 52.1324Z" fill="#E8E9FF"/>
<path d="M377.299 69.3791L371.192 64.9936L360.086 66.8906L363.148 58.8511L360.274 53.4959L347.763 48.5338L350.645 45.1185L341.956 37.4158L353.936 44.5564L348.36 37.9923L346.725 26.5793L341.091 19.6076L348.901 24.1197L352.885 37.2194L360.287 38.8783L360.414 27.9994L363.293 27.5076L369.565 44.81L376.73 47.762L382.078 46.8486L397.059 48.4656L392.179 52.6398L382.184 59.3579L397.455 65.9364L402.442 74.2714L388.756 69.9278L389.456 74.8191L400.083 84.2788L404.836 90.9834L396.792 84.8408L386.808 79.8648L389.735 91.4747L381.986 84.4467L377.299 69.3791Z" fill="#E8E9FF"/>
<path d="M311.547 334.183C311.984 325.716 314.738 321.441 318.377 314.031C322.353 305.935 325.903 302.175 331.359 295.052C338.319 285.965 341.692 280.138 350.729 273.069C356.6 268.476 359.972 265.644 367.124 263.126C375.456 260.193 380.93 259.801 390.05 260.72C398.633 261.585 403.822 262.723 411.555 267.063C418.943 271.21 421.938 275.404 427.902 281.467C433.719 287.381 436.911 290.852 441.688 297.588C449.015 307.922 453.06 314.288 456.438 326.206C458.414 333.18 458.645 337.25 459.307 344.354C460.078 352.635 463.796 358.681 459.677 365.507C458.347 367.713 457.513 369.061 455.328 370.444C452.227 372.405 448.783 369.921 445.816 372.065C444.379 373.104 443.684 373.907 442.826 375.459C440.495 379.674 445.906 383.822 443.974 388.255C442.795 390.962 441.364 392.119 439.013 393.885C435.165 396.775 428.951 393.295 427.074 397.752C426.294 399.604 426.647 402.993 426.647 402.993C426.647 402.993 426.065 404.673 423.452 406.618C420.84 408.564 405.681 408.41 394.208 407.021C383.292 405.699 377.023 404.284 366.618 400.111C354.731 395.342 348.014 391.709 338.188 383.281C329.081 375.469 323.804 370.393 318.428 359.84C313.643 350.449 311.026 344.264 311.547 334.183Z" fill="#E8E9FF"/>
<path d="M338.635 286.223L340.368 298.395L338.006 297.682L335.914 286.106C335.914 286.106 333.621 282.723 332.182 280.537C329.87 277.025 327.903 275.335 326.382 271.473C324.168 265.85 325.061 262.27 325.185 256.429C325.326 249.847 325.247 245.918 327.467 239.889C330.538 231.551 334.119 227.257 341.298 222.119C345.79 218.904 354.18 215.983 354.18 215.983C354.18 215.983 359.488 229.606 359.907 238.517C360.17 244.123 359.751 247.271 358.723 252.679C357.594 258.617 356.644 261.935 354.121 267.328C351.175 273.625 349.286 277.322 344.189 281.993C342.183 283.831 338.635 286.223 338.635 286.223Z" fill="#E8E9FF"/>
<path d="M306.758 291.155C304.639 291.772 303.091 294.353 301.346 292.772C299.863 291.429 300.938 289.763 301.16 287.894C301.394 285.919 301.144 284.364 302.587 283.069C305.096 280.818 307.899 285.279 311.435 285.848C315.273 286.465 317.404 285.386 321.251 285.83C325.765 286.351 328.192 287.639 332.651 288.728C337.053 289.804 344.602 287.091 343.94 291.376C343.605 293.541 343.714 295.402 340.319 295.485C336.924 295.569 331.568 292.61 325.845 291.551C319.896 290.45 316.273 288.913 310.535 290.073C309.022 290.379 308.231 290.726 306.758 291.155Z" fill="#E8E9FF"/>
</svg>
