<svg width="270" height="275" viewBox="0 0 270 275" fill="none" xmlns="http://www.w3.org/2000/svg">
<path d="M119.392 61.4982C129.586 62.3646 134.894 65.8072 144.022 70.4289C153.995 75.4785 158.735 79.8443 167.634 86.6098C178.986 95.2407 186.196 99.4816 195.257 110.493C201.144 117.647 204.759 121.765 208.235 130.353C212.286 140.36 213.104 146.87 212.579 157.653C212.086 167.8 211.049 173.909 206.328 182.906C201.818 191.501 196.972 194.882 190.071 201.709C183.339 208.368 179.374 212.013 171.589 217.403C159.646 225.673 152.259 230.211 138.165 233.729C129.916 235.788 125.044 235.894 116.556 236.388C106.662 236.963 99.6389 241.126 91.1812 235.959C88.4485 234.29 86.7769 233.245 84.9781 230.596C82.426 226.837 85.1899 222.852 82.428 219.244C81.0896 217.496 80.0811 216.639 78.1634 215.557C72.9542 212.619 68.3174 218.868 62.8724 216.395C59.5467 214.884 58.0665 213.139 55.7969 210.277C52.0825 205.593 55.8673 198.364 50.3966 195.953C48.1232 194.952 44.0763 195.231 44.0763 195.231C44.0763 195.231 42.0227 194.472 39.5209 191.293C37.0191 188.113 36.2425 170.135 37.1822 156.58C38.0764 143.683 39.377 136.304 43.7283 124.13C48.6992 110.222 52.6354 102.402 62.1315 91.0907C70.9327 80.607 76.693 74.5541 89.0226 68.6086C99.9942 63.3179 107.255 60.4668 119.392 61.4982Z" fill="#F69967"/>
<path d="M178.697 95.6047L164.193 97.1619L164.899 94.3888L178.665 92.3811C178.665 92.3811 182.581 89.8004 185.114 88.1829C189.185 85.5834 191.089 83.3191 195.63 81.6731C202.24 79.277 206.596 80.4832 213.617 80.8712C221.528 81.3085 226.241 81.3752 233.621 84.2576C243.827 88.2433 249.211 92.6681 255.834 101.396C259.98 106.858 264.019 116.931 264.019 116.931C264.019 116.931 247.999 122.67 237.327 122.801C230.613 122.883 226.806 122.256 220.247 120.815C213.046 119.232 209.002 117.969 202.367 114.754C194.618 111 190.061 108.607 184.128 102.368C181.794 99.9132 178.697 95.6047 178.697 95.6047Z" fill="#F69967"/>
<path d="M170.753 57.5851C169.877 55.0458 166.68 53.1029 168.467 51.0975C169.986 49.3933 172.055 50.7368 174.313 51.0764C176.699 51.4354 178.55 51.2028 180.196 52.9678C183.059 56.0372 177.88 59.1791 177.422 63.3511C176.924 67.8794 178.355 70.4521 178.066 74.9984C177.727 80.3327 176.335 83.159 175.309 88.4047C174.297 93.583 178.034 102.651 172.846 101.689C170.226 101.203 167.999 101.256 167.683 97.2249C167.367 93.1936 170.58 86.9605 171.489 80.2141C172.433 73.2007 174.048 68.9659 172.291 62.1107C171.828 60.3024 171.362 59.3497 170.753 57.5851Z" fill="#F69967"/>
</svg>
