<svg width="273" height="277" viewBox="0 0 273 277" fill="none" xmlns="http://www.w3.org/2000/svg">
<path d="M68.4273 173.148C94.863 199.077 173.328 230.639 201.244 202.016C229.16 173.393 195.957 95.4242 169.522 69.4946C143.086 43.565 99.025 45.7485 71.1086 74.3715C43.1922 102.995 41.9917 147.218 68.4273 173.148Z" fill="#EA86D1"/>
<path d="M85.4929 68.2586L80.4199 75.9307L83.263 89.4185L73.2904 86.0542L66.8794 89.8206L61.4038 105.348L57.0926 101.986L48.0863 112.972L56.2502 97.99L48.4889 105.116L34.6139 107.654L26.3571 114.87L31.5045 105.109L47.3306 99.6212L49.0092 90.4946L35.7041 90.8525L34.967 87.3557L55.8228 78.8725L59.0933 69.9735L57.7244 63.4794L58.9943 45.0891L64.3274 50.8582L73.0117 62.759L80.3332 43.7808L90.2872 37.2912L85.623 54.2271L91.5694 53.1397L102.632 39.7029L110.604 33.5758L103.475 43.6993L97.8627 56.1392L111.917 52.0126L103.691 61.8178L85.4929 68.2586Z" fill="#EA86D1"/>
</svg>
