<svg width="40" height="40" viewBox="0 0 40 40" fill="none" xmlns="http://www.w3.org/2000/svg">
<rect width="40" height="40" rx="20" fill="#FEFEFE"/>
<path d="M15.7351 12.3966L22.6516 19.4241C22.8032 19.5774 22.8883 19.7844 22.8883 20.0001C22.8883 20.2158 22.8032 20.4227 22.6516 20.5761L15.7366 27.6036C15.5849 27.7579 15.5 27.9655 15.5 28.1818C15.5 28.3981 15.5849 28.6058 15.7366 28.7601C15.8106 28.8361 15.8991 28.8964 15.9969 28.9377C16.0947 28.9789 16.1997 29.0001 16.3058 29.0001C16.4119 29.0001 16.5169 28.9789 16.6147 28.9377C16.7125 28.8964 16.801 28.8361 16.8751 28.7601L23.7901 21.7341C24.2444 21.2713 24.499 20.6486 24.499 20.0001C24.499 19.3515 24.2444 18.7289 23.7901 18.2661L16.8751 11.2401C16.801 11.1639 16.7124 11.1033 16.6144 11.0619C16.5165 11.0206 16.4113 10.9993 16.3051 10.9993C16.1988 10.9993 16.0936 11.0206 15.9957 11.0619C15.8978 11.1033 15.8091 11.1639 15.7351 11.2401C15.5834 11.3944 15.4985 11.602 15.4985 11.8183C15.4985 12.0346 15.5834 12.2423 15.7351 12.3966Z" fill="#93AD49"/>
</svg>
