<svg width="1390" height="772" viewBox="0 0 1390 772" fill="none" xmlns="http://www.w3.org/2000/svg">
<path d="M1178.02 648.983C1190.58 640.149 1199.75 639.301 1214.38 636.213C1230.36 632.84 1239.69 633.701 1255.94 633.524C1276.67 633.299 1288.75 631.601 1308.92 636.591C1322.03 639.832 1329.84 641.477 1341.41 648.863C1354.9 657.468 1361.58 664.836 1370.45 678.866C1378.81 692.07 1382.98 700.74 1385.43 716.614C1387.77 731.781 1385.13 740.736 1383.15 756.011C1381.21 770.912 1379.83 779.341 1375.56 793.676C1369.01 815.667 1364.45 828.545 1351.23 846.672C1343.49 857.281 1337.95 862.155 1328.56 871.034C1317.61 881.384 1313.14 893.438 1298.81 895.19C1294.17 895.756 1291.32 896.073 1286.91 894.501C1280.65 892.271 1280.34 884.585 1273.97 882.749C1270.89 881.86 1268.96 881.766 1265.79 882.276C1257.18 883.662 1257.31 896.009 1248.83 898.206C1243.65 899.549 1240.41 898.801 1235.26 897.421C1226.84 895.162 1224.86 882.415 1216.41 884.716C1212.9 885.672 1208.46 889.961 1208.46 889.961C1208.46 889.961 1205.42 891.007 1199.72 889.455C1194.03 887.903 1177.32 866.116 1166.49 848.206C1156.18 831.164 1151.19 820.645 1145.52 801.146C1139.04 778.871 1136.72 765.235 1137.76 741.81C1138.73 720.1 1140.08 706.905 1149.12 687.452C1157.16 670.141 1163.06 659.501 1178.02 648.983Z" fill="#DDE7C1"/>
<path d="M1276.66 634.035L1261.24 650.103L1259.62 645.939L1273.79 630.025C1273.79 630.025 1276.05 622.978 1277.56 618.485C1279.99 611.264 1280.2 606.572 1284.01 600.089C1289.55 590.652 1295.66 587.925 1304.12 581.58C1313.66 574.429 1319.18 569.927 1330.26 566.359C1345.58 561.425 1355.7 561.734 1371.04 566.232C1380.64 569.047 1394.18 577.747 1394.18 577.747C1394.18 577.747 1380.68 600.532 1368.45 611.081C1360.75 617.718 1355.79 620.638 1346.93 625.213C1337.2 630.236 1331.41 632.587 1320.9 635.013C1308.63 637.846 1301.25 639.281 1288.9 637.231C1284.04 636.424 1276.66 634.035 1276.66 634.035Z" fill="#DDE7C1"/>
<path d="M1234.03 594.092C1230.78 591.761 1225.37 592.436 1225.67 588.182C1225.93 584.567 1229.51 584.238 1232.42 582.467C1235.5 580.595 1237.44 578.502 1240.9 579.113C1246.91 580.176 1243.68 589.155 1246.82 594.833C1250.22 600.995 1254.14 602.829 1257.81 608.81C1262.11 615.829 1262.98 620.728 1266.41 628.303C1269.79 635.781 1282.09 643.514 1275.24 647.357C1271.78 649.298 1269.25 651.531 1265.34 646.783C1261.43 642.036 1259.66 631.094 1254.78 621.751C1249.7 612.037 1247.85 605.156 1239.79 598.27C1237.66 596.454 1236.28 595.713 1234.03 594.092Z" fill="#DDE7C1"/>
<path d="M456.451 574.837C472.199 563.762 483.697 562.699 502.038 558.828C522.078 554.599 533.77 555.678 554.143 555.457C580.133 555.175 595.271 553.046 620.561 559.301C636.992 563.365 646.778 565.427 661.292 574.686C678.203 585.474 686.569 594.71 697.697 612.299C708.17 628.853 713.401 639.721 716.47 659.621C719.403 678.636 716.099 689.862 713.612 709.012C711.186 727.692 709.451 738.259 704.098 756.23C695.886 783.799 690.17 799.943 673.597 822.668C663.897 835.968 656.945 842.078 645.173 853.209C631.45 866.185 625.849 881.296 607.879 883.492C602.073 884.202 598.496 884.599 592.964 882.629C585.116 879.834 584.733 870.198 576.747 867.896C572.878 866.781 570.468 866.663 566.493 867.303C555.695 869.04 555.857 884.519 545.228 887.274C538.737 888.957 534.665 888.02 528.216 886.29C517.661 883.458 515.182 867.477 504.586 870.362C500.182 871.561 494.618 876.937 494.618 876.937C494.618 876.937 490.801 878.249 483.665 876.303C476.529 874.358 455.578 847.044 441.997 824.591C429.074 803.227 422.824 790.04 415.715 765.595C407.594 737.669 404.683 720.575 405.99 691.209C407.202 663.992 408.887 647.45 420.223 623.063C430.31 601.361 437.702 588.022 456.451 574.837Z" fill="#DDE7C1"/>
<path d="M580.119 556.099L560.788 576.242L558.755 571.021L576.517 551.071C576.517 551.071 579.355 542.237 581.247 536.604C584.288 527.552 584.554 521.669 589.329 513.542C596.279 501.711 603.93 498.293 614.545 490.339C626.507 481.374 633.42 475.73 647.308 471.257C666.512 465.071 679.202 465.459 698.437 471.097C710.476 474.626 727.444 485.533 727.444 485.533C727.444 485.533 710.526 514.098 695.183 527.323C685.53 535.643 679.315 539.303 668.209 545.039C656.014 551.336 648.753 554.283 635.58 557.324C620.197 560.876 610.945 562.675 595.457 560.105C589.363 559.094 580.119 556.099 580.119 556.099Z" fill="#DDE7C1"/>
<path d="M526.669 506.025C522.598 503.102 515.817 503.948 516.199 498.615C516.524 494.083 521.008 493.671 524.658 491.451C528.517 489.103 530.947 486.48 535.282 487.246C542.82 488.579 538.769 499.835 542.704 506.953C546.975 514.678 551.888 516.977 556.481 524.476C561.872 533.274 562.967 539.416 567.263 548.912C571.505 558.287 586.925 567.982 578.337 572.799C573.998 575.232 570.826 578.032 565.923 572.081C561.019 566.129 558.808 552.412 552.688 540.698C546.326 528.521 544 519.895 533.892 511.262C531.225 508.985 529.498 508.056 526.669 506.025Z" fill="#DDE7C1"/>
<path d="M139.861 737.714C137.535 802.645 189.462 941.659 259.578 943.972C329.693 946.285 391.446 811.021 393.773 746.09C396.099 681.159 341.144 626.647 271.028 624.334C200.913 622.021 142.187 672.783 139.861 737.714Z" fill="#DDE7C1"/>
<path d="M295.97 635.742L280.027 638.245L265.913 657.886L258.474 640.983L246.01 637.131L219.41 648.405L218.667 638.842L193.777 640.167L222.849 633.022L204.433 631.395L184.731 616.418L165.611 614.256L184.349 609.379L210.183 623.394L223.995 614.772L207.791 597.954L211.451 592.862L247.116 609.852L262.517 603.562L269.312 594.106L294.645 573.995L293.479 587.731L288.331 613.063L321.585 600.099L341.77 605.32L314.306 619.312L322.75 625.731L353.249 624.17L370.62 627.252L349.067 629.989L326.308 637.434L348.282 650.764L325.845 651.705L295.97 635.742Z" fill="#DDE7C1"/>
<path d="M1351.96 85.8602C1405.66 132.097 1333.4 349.769 1099.34 621.597C865.275 893.424 650.707 1008.85 597.011 962.611C543.315 916.375 648.213 706.518 882.276 434.69C1116.34 162.863 1298.26 39.6237 1351.96 85.8602Z" fill="#DDE7C1"/>
<path d="M1098.39 620.911C1302.89 383.423 1395.93 129.8 1349.02 89.4046C1302.11 49.009 1087.54 197.992 883.046 435.481C678.55 672.969 553.119 918.838 600.032 959.233C646.945 999.629 893.898 858.4 1098.39 620.911Z" fill="#FDF8F3"/>
<path d="M1097.45 620.231C1301.94 382.742 1392.99 133.35 1346.08 92.9539C1299.17 52.5583 1088.31 198.787 883.815 436.276C679.319 673.765 556.141 915.465 603.054 955.86C649.967 996.256 892.954 857.72 1097.45 620.231Z" fill="#FAF1E7"/>
<path d="M1096.51 619.544C1301 382.055 1390.06 136.892 1343.15 96.4965C1296.23 56.1009 1089.08 199.576 884.588 437.064C680.092 674.553 559.166 912.085 606.079 952.481C652.992 992.876 892.013 857.032 1096.51 619.544Z" fill="#F8E9DA"/>
<path d="M1095.55 618.862C1300.05 381.374 1387.11 140.44 1340.19 100.045C1293.28 59.6492 1089.84 200.37 885.345 437.859C680.85 675.347 562.176 908.711 609.089 949.107C656.002 989.502 891.057 856.351 1095.55 618.862Z" fill="#F5E2CE"/>
<path d="M1094.62 618.174C1299.11 380.685 1384.18 143.982 1337.26 103.586C1290.35 63.1907 1090.62 201.157 886.122 438.646C681.627 676.135 565.205 905.33 612.118 945.726C659.031 986.122 890.12 855.663 1094.62 618.174Z" fill="#F3DBC2"/>
<path d="M1093.67 617.491C1298.16 380.002 1381.23 147.528 1334.32 107.133C1287.41 66.737 1091.38 201.949 886.888 439.438C682.392 676.927 568.222 901.955 615.135 942.35C662.049 982.746 889.171 854.979 1093.67 617.491Z" fill="#F0D4B6"/>
<path d="M1092.72 616.804C1297.22 379.316 1378.29 151.072 1331.38 110.676C1284.47 70.2807 1092.15 202.739 887.657 440.228C683.161 677.716 571.244 898.576 618.157 938.972C665.07 979.367 888.227 854.293 1092.72 616.804Z" fill="#EECDA9"/>
<path d="M1091.78 616.124C1296.27 378.635 1375.35 154.621 1328.44 114.226C1281.53 73.83 1092.92 203.534 888.426 441.023C683.93 678.511 574.265 895.203 621.178 935.599C668.091 975.994 887.282 853.612 1091.78 616.124Z" fill="#EBC69D"/>
<path d="M1090.83 615.439C1295.33 377.951 1372.42 158.167 1325.5 117.771C1278.59 77.3754 1093.69 204.325 889.195 441.814C684.7 679.303 577.287 891.826 624.2 932.222C671.113 972.617 886.337 852.928 1090.83 615.439Z" fill="#E9BE91"/>
<path d="M1089.88 614.756C1294.38 377.267 1369.47 161.713 1322.56 121.317C1275.64 80.9217 1094.45 205.118 889.956 442.606C685.461 680.095 580.3 888.45 627.213 928.846C674.126 969.242 885.385 852.245 1089.88 614.756Z" fill="#E6B785"/>
<path d="M1088.93 614.07C1293.43 376.581 1366.53 165.256 1319.61 124.861C1272.7 84.4651 1095.22 205.907 890.722 443.396C686.226 680.884 583.318 885.072 630.231 925.467C677.144 965.863 884.436 851.558 1088.93 614.07Z" fill="#E4B078"/>
<path d="M1087.99 613.382C1292.49 375.894 1363.59 168.799 1316.68 128.403C1269.76 88.0078 1095.99 206.695 891.495 444.184C686.999 681.673 586.343 881.692 633.256 922.087C680.169 962.483 883.496 850.871 1087.99 613.382Z" fill="#E1A96C"/>
<path d="M1087.05 612.699C1291.54 375.21 1360.65 172.345 1313.74 131.95C1266.83 91.5541 1096.76 207.488 892.264 444.976C687.768 682.465 589.365 878.316 636.278 918.712C683.191 959.107 882.551 850.188 1087.05 612.699Z" fill="#DFA260"/>
<path d="M1086.11 612.014C1290.6 374.525 1357.72 175.89 1310.8 135.494C1263.89 95.0986 1097.53 208.278 893.037 445.767C688.541 683.255 592.39 874.938 639.303 915.334C686.216 955.729 881.61 849.502 1086.11 612.014Z" fill="#DC9A54"/>
<path d="M1085.16 611.333C1289.65 373.844 1354.77 179.439 1307.86 139.044C1260.95 98.6479 1098.3 209.073 893.802 446.562C689.307 684.051 595.408 871.565 642.321 911.961C689.234 952.357 880.662 848.822 1085.16 611.333Z" fill="#DA9347"/>
<path d="M1304.93 142.588C1351.84 182.984 1288.71 373.159 1084.22 610.648C879.721 848.136 692.259 948.979 645.346 908.583C598.433 868.188 690.08 684.841 894.575 447.352C1099.07 209.863 1258.01 102.192 1304.93 142.588Z" fill="#D78C3B"/>
<ellipse cx="772.466" cy="725.926" rx="79.468" ry="24.0466" transform="rotate(-91.3126 772.466 725.926)" fill="#9F3F00"/>
<ellipse cx="913.337" cy="579.815" rx="79.468" ry="24.0466" transform="rotate(-91.3126 913.337 579.815)" fill="#9F3F00"/>
<ellipse cx="1047.73" cy="428.112" rx="79.468" ry="24.0466" transform="rotate(-91.3126 1047.73 428.112)" fill="#9F3F00"/>
<ellipse cx="1179.96" cy="274.551" rx="79.468" ry="24.0466" transform="rotate(-91.3126 1179.96 274.551)" fill="#9F3F00"/>
<path d="M882.861 703.714C880.535 768.645 932.462 907.659 1002.58 909.972C1072.69 912.285 1134.45 777.021 1136.77 712.09C1139.1 647.159 1084.14 592.647 1014.03 590.334C943.913 588.021 885.187 638.783 882.861 703.714Z" fill="#DDE7C1"/>
<path d="M1038.97 606.345L1023.03 608.848L1008.91 628.488L1001.47 611.585L989.01 607.734L962.41 619.008L961.667 609.444L936.777 610.77L965.849 603.625L947.433 601.998L927.731 587.02L908.611 584.858L927.349 579.981L953.183 593.996L966.995 585.374L950.791 568.557L954.451 563.465L990.116 580.454L1005.52 574.165L1012.31 564.708L1037.65 544.598L1036.48 558.333L1031.33 583.665L1064.58 570.701L1084.77 575.923L1057.31 589.914L1065.75 596.333L1096.25 594.772L1113.62 597.854L1092.07 600.592L1069.31 608.037L1091.28 621.367L1068.85 622.307L1038.97 606.345Z" fill="#DDE7C1"/>
</svg>
