<svg width="1167" height="1030" viewBox="0 0 1167 1030" fill="none" xmlns="http://www.w3.org/2000/svg">
<path d="M784.28 67.0616C645.591 35.0421 517.757 49.5067 443.735 84.3614C449.02 166.785 499.036 287.013 595.744 393.647C652.682 365.078 702.311 320.442 737.115 261.462C773.155 200.39 788.148 132.84 784.28 67.0616ZM598.657 185.608C581.765 175.64 576.184 153.888 586.134 137.027C596.121 120.102 617.84 114.504 634.734 124.473C651.627 134.442 657.256 156.179 647.269 173.103C637.319 189.965 615.549 195.576 598.657 185.608Z" fill="#FFDEF7"/>
<path d="M1450.14 683.994C1451.89 676.181 1456.08 669.082 1462.09 663.743L1541.45 593.28C1553.12 582.906 1557.33 566.505 1552.14 551.776C1546.89 537.059 1533.26 527.005 1517.68 526.316L1300.88 516.824C1254.29 409.98 1194.99 325.17 1128.9 258.823C1136.89 242.47 1144.47 219.983 1141.3 197.558C1136.24 162.396 994.563 125.881 922.106 114.06C888.315 98.4781 854.303 86.0973 820.758 76.4718C822.67 145.496 805.89 215.924 768.224 279.753C731.83 341.426 680.639 389.07 621.831 420.81C658.557 457.266 701.059 491.535 749.419 521.312C749.606 525.267 750.368 529.264 751.848 533.129L786.215 623.399C793.525 642.584 814.651 652.615 834.139 646.167L849.728 640.966C861.311 637.12 870.397 627.952 874.111 616.301C877.875 604.636 875.776 591.903 868.578 582.014L866.576 579.252C973.404 620.372 1100.96 640.185 1249.9 624.286L1356.69 799.128C1364.82 812.429 1380.22 819.505 1395.66 816.95C1411.04 814.407 1423.38 802.761 1426.8 787.558L1450.14 683.994Z" fill="#FFDEF7"/>
<path d="M209.712 623.562C151.43 672.281 71.1234 826.073 123.906 888.854C176.688 951.634 342.572 899.629 400.854 850.91C459.136 802.191 463.594 711.803 410.812 649.022C358.029 586.242 267.994 574.843 209.712 623.562Z" fill="#FFDEF7"/>
<path d="M420.384 679.625L405.749 667.717L377.639 670.792L386.525 651.114L380.134 637.265L349.543 622.945L357.279 614.824L336.675 594.216L365.607 613.913L352.63 596.627L350.258 567.79L337.196 549.474L356.081 561.957L364.082 595.375L382.374 600.648L384.335 573.415L391.623 572.617L404.72 616.909L422.225 625.386L435.759 623.906L473.044 630.219L460.188 639.939L434.137 655.259L471.397 674.045L482.631 695.679L449.002 682.73L450.018 695.089L475.21 720.392L486.105 737.905L466.881 721.303L442.622 707.329L448.202 736.856L429.85 718.079L420.384 679.625Z" fill="#FFDEF7"/>
<path d="M857.489 793.484C878.88 837.133 962.211 910.492 1009.28 887.263C1056.34 864.033 1049.32 753.011 1027.93 709.362C1006.54 665.712 951.042 649.159 903.977 672.388C856.912 695.618 836.099 749.834 857.489 793.484Z" fill="#FFDEF7"/>
<path d="M924.456 671.105L914.824 678.385L912.448 696.323L901.574 687.8L891.993 689.661L878.428 706.488L874.561 700.442L858.612 710.104L875.265 695.128L862.544 700.556L844.26 697.633L830.886 702.958L841.523 693.125L863.511 693.248L869.578 682.685L852.952 677.313L853.568 672.663L883.091 671.277L891.029 661.691L892.172 653.054L901.781 630.845L905.862 640.317L911.41 658.843L928.767 638.551L943.924 634.869L930.749 653.794L938.585 655.047L958.151 643.249L970.697 639.149L957.448 648.564L945.064 661.51L964.265 662.544L949.797 671.086L924.456 671.105Z" fill="#FFDEF7"/>
<path d="M744.836 609.497C768.609 647.956 781.486 752.263 735.43 780.732C689.375 809.202 601.828 751.054 578.054 712.596C554.28 674.137 572.343 619.881 618.399 591.411C664.454 562.941 721.062 571.039 744.836 609.497Z" fill="#FFDEF7"/>
<path d="M735.04 780.089C764.685 761.764 759.715 634.213 744.412 609.458C729.109 584.703 648.066 573.11 618.421 591.435C588.776 609.761 562.916 687.438 578.218 712.193C593.521 736.948 705.395 798.415 735.04 780.089Z" fill="#FFDEF7"/>
<path d="M734.641 779.478C764.286 761.153 759.283 634.206 743.98 609.451C728.678 584.696 648.08 573.167 618.435 591.492C588.79 609.818 563.073 687.067 578.375 711.822C593.678 736.577 704.996 797.804 734.641 779.478Z" fill="#FFDEF7"/>
<path d="M734.266 778.834C763.911 760.509 758.875 634.166 743.572 609.411C728.27 584.656 648.118 573.191 618.473 591.516C588.828 609.841 563.253 686.663 578.555 711.418C593.858 736.173 704.621 797.159 734.266 778.834Z" fill="#FFDEF7"/>
<path d="M733.868 778.203C763.513 759.878 758.443 634.139 743.14 609.384C727.838 584.629 648.133 573.228 618.488 591.553C588.843 609.879 563.409 686.273 578.712 711.028C594.015 735.783 704.223 796.529 733.868 778.203Z" fill="#FFDEF7"/>
<path d="M733.489 777.547C763.134 759.222 758.031 634.088 742.728 609.333C727.426 584.578 648.167 573.24 618.522 591.565C588.877 609.891 563.586 685.857 578.888 710.612C594.191 735.367 703.844 795.873 733.489 777.547Z" fill="#FFDEF7"/>
<path d="M733.086 776.95C762.731 758.624 757.595 634.094 742.293 609.339C726.99 584.584 648.177 573.31 618.532 591.636C588.887 609.961 563.739 685.5 579.041 710.255C594.344 735.01 703.441 795.275 733.086 776.95Z" fill="#FFDEF7"/>
<path d="M732.696 776.293C762.341 757.968 757.171 634.041 741.869 609.286C726.566 584.531 648.199 573.321 618.554 591.647C588.909 609.972 563.903 685.084 579.206 709.839C594.508 734.594 703.051 794.618 732.696 776.293Z" fill="#FFDEF7"/>
<path d="M732.305 775.663C761.95 757.338 756.748 634.016 741.445 609.261C726.142 584.506 648.221 573.36 618.576 591.685C588.931 610.01 564.068 684.695 579.37 709.449C594.673 734.205 702.66 793.989 732.305 775.663Z" fill="#FFDEF7"/>
<path d="M731.93 775.023C761.575 756.698 756.339 633.98 741.037 609.225C725.734 584.47 648.259 573.387 618.614 591.713C588.969 610.038 564.248 684.295 579.55 709.05C594.853 733.805 702.285 793.348 731.93 775.023Z" fill="#FFDEF7"/>
<path d="M731.528 774.402C761.172 756.077 755.904 633.963 740.601 609.208C725.299 584.453 648.27 573.434 618.625 591.76C588.98 610.085 564.401 683.914 579.703 708.669C595.006 733.424 701.883 792.728 731.528 774.402Z" fill="#FFDEF7"/>
<path d="M731.152 773.743C760.797 755.418 755.496 633.908 740.193 609.153C724.89 584.398 648.308 573.443 618.663 591.769C589.018 610.094 564.581 683.496 579.883 708.251C595.186 733.006 701.507 792.069 731.152 773.743Z" fill="#FFDEF7"/>
<path d="M730.766 773.103C760.411 754.778 755.076 633.872 739.773 609.117C724.47 584.362 648.334 573.471 618.689 591.796C589.044 610.122 564.749 683.096 580.052 707.851C595.354 732.606 701.121 791.428 730.766 773.103Z" fill="#FFDEF7"/>
<path d="M730.367 772.472C760.012 754.147 754.644 633.845 739.341 609.09C724.039 584.335 648.348 573.508 618.703 591.834C589.058 610.159 564.906 682.705 580.209 707.46C595.511 732.215 700.722 790.798 730.367 772.472Z" fill="#FFDEF7"/>
<path d="M729.973 771.857C759.618 753.532 754.216 633.835 738.914 609.08C723.611 584.325 648.366 573.561 618.721 591.887C589.076 610.212 565.067 682.331 580.369 707.086C595.672 731.841 700.328 790.183 729.973 771.857Z" fill="#FFDEF7"/>
<path d="M729.598 771.212C759.243 752.887 753.808 633.794 738.505 609.039C723.203 584.284 648.404 573.584 618.759 591.909C589.114 610.235 565.247 681.926 580.549 706.681C595.852 731.436 699.953 789.538 729.598 771.212Z" fill="#FFDEF7"/>
<path d="M729.199 770.584C758.844 752.258 753.376 633.769 738.074 609.014C722.771 584.259 648.419 573.623 618.774 591.949C589.129 610.274 565.403 681.538 580.706 706.293C596.009 731.048 699.554 788.909 729.199 770.584Z" fill="#FFDEF7"/>
<path d="M728.808 769.958C758.453 751.632 752.952 633.747 737.65 608.992C722.347 584.237 648.441 573.665 618.796 591.991C589.151 610.316 565.568 681.152 580.871 705.907C596.173 730.662 699.163 788.283 728.808 769.958Z" fill="#FFDEF7"/>
<path d="M728.418 769.339C758.063 751.014 752.529 633.733 737.226 608.978C721.923 584.223 648.463 573.714 618.818 592.04C589.173 610.365 565.733 680.774 581.035 705.529C596.338 730.284 698.773 787.664 728.418 769.339Z" fill="#FFDEF7"/>
<path d="M728.035 768.683C757.68 750.358 752.113 633.681 736.81 608.926C721.507 584.171 648.493 573.726 618.848 592.052C589.203 610.377 565.905 680.358 581.208 705.113C596.51 729.868 698.39 787.008 728.035 768.683Z" fill="#FFDEF7"/>
<path d="M727.656 768.026C757.301 749.701 751.7 633.628 736.398 608.873C721.095 584.118 648.527 573.737 618.882 592.063C589.237 610.388 566.081 679.942 581.384 704.697C596.686 729.452 698.011 786.351 727.656 768.026Z" fill="#FFDEF7"/>
<path d="M727.261 767.419C756.906 749.093 751.273 633.625 735.97 608.87C720.667 584.115 648.545 573.798 618.9 592.123C589.255 610.449 566.242 679.575 581.544 704.33C596.847 729.085 697.616 785.744 727.261 767.419Z" fill="#FFDEF7"/>
<path d="M726.859 766.773C756.504 748.447 750.837 633.583 735.534 608.828C720.232 584.073 648.556 573.82 618.911 592.145C589.266 610.471 566.395 679.169 581.697 703.924C597 728.679 697.214 785.098 726.859 766.773Z" fill="#FFDEF7"/>
<path d="M726.472 766.133C756.117 747.808 750.417 633.548 735.115 608.793C719.812 584.038 648.582 573.848 618.937 592.174C589.292 610.499 566.563 678.77 581.866 703.525C597.168 728.28 696.827 784.459 726.472 766.133Z" fill="#FFDEF7"/>
<path d="M726.093 765.487C755.738 747.162 750.005 633.505 734.702 608.75C719.4 583.995 648.616 573.87 618.971 592.195C589.326 610.521 566.739 678.364 582.042 703.119C597.345 727.874 696.448 783.812 726.093 765.487Z" fill="#DFB1B7"/>
<path d="M725.71 764.863C755.355 746.538 749.589 633.486 734.286 608.731C718.984 583.976 648.646 573.914 619.001 592.24C589.356 610.565 566.912 677.981 582.214 702.736C597.517 727.491 696.065 783.189 725.71 764.863Z" fill="#DFAFB6"/>
<path d="M725.312 764.228C754.957 745.903 749.157 633.454 733.855 608.699C718.552 583.944 648.66 573.947 619.015 592.272C589.37 610.597 567.068 677.586 582.371 702.341C597.674 727.096 695.667 782.553 725.312 764.228Z" fill="#E0AEB5"/>
<path d="M724.917 763.608C754.562 745.283 748.73 633.439 733.427 608.684C718.124 583.929 648.679 573.995 619.034 592.32C589.389 610.646 567.229 677.206 582.532 701.961C597.834 726.716 695.272 781.933 724.917 763.608Z" fill="#E0ACB3"/>
<path d="M724.53 762.974C754.175 744.648 748.31 633.408 733.007 608.653C717.704 583.898 648.705 574.028 619.06 592.354C589.415 610.679 567.398 676.812 582.7 701.567C598.003 726.322 694.886 781.299 724.53 762.974Z" fill="#E0AAB2"/>
<path d="M724.148 762.318C753.793 743.992 747.894 633.356 732.591 608.601C717.288 583.846 648.735 574.04 619.09 592.365C589.445 610.691 567.57 676.397 582.872 701.152C598.175 725.907 694.503 780.643 724.148 762.318Z" fill="#E0A9B1"/>
<path d="M723.753 761.688C753.398 743.363 747.466 633.331 732.163 608.576C716.861 583.821 648.753 574.078 619.108 592.404C589.463 610.729 567.731 676.008 583.033 700.763C598.336 725.518 694.108 780.013 723.753 761.688Z" fill="#E1A7AF"/>
<path d="M723.37 761.042C753.015 742.716 747.05 633.289 731.747 608.534C716.445 583.779 648.783 574.1 619.138 592.425C589.493 610.751 567.903 675.602 583.205 700.357C598.508 725.112 693.725 779.367 723.37 761.042Z" fill="#E1A5AE"/>
<path d="M722.98 760.401C752.625 742.076 746.626 633.253 731.323 608.498C716.021 583.743 648.805 574.128 619.16 592.453C589.515 610.778 568.067 675.202 583.37 699.957C598.673 724.712 693.335 778.727 722.98 760.401Z" fill="#E1A4AC"/>
<path d="M722.601 759.772C752.246 741.446 746.214 633.227 730.911 608.472C715.609 583.717 648.839 574.166 619.194 592.491C589.549 610.817 568.244 674.813 583.546 699.568C598.849 724.322 692.956 778.097 722.601 759.772Z" fill="#E1A2AB"/>
<path d="M722.202 759.137C751.847 740.812 745.782 633.197 730.479 608.442C715.177 583.687 648.853 574.199 619.209 592.525C589.564 610.85 568.4 674.418 583.703 699.173C599.006 723.928 692.557 777.463 722.202 759.137Z" fill="#E2A0AA"/>
<path d="M721.811 758.519C751.456 740.194 745.358 633.183 730.056 608.428C714.753 583.673 648.876 574.249 619.231 592.575C589.586 610.9 568.565 674.041 583.868 698.796C599.17 723.551 692.166 776.845 721.811 758.519Z" fill="#E29FA8"/>
<path d="M721.436 757.864C751.081 739.539 744.95 633.132 729.647 608.377C714.345 583.622 648.914 574.262 619.269 592.588C589.624 610.913 568.745 673.626 584.048 698.381C599.35 723.136 691.791 776.19 721.436 757.864Z" fill="#E29DA7"/>
<path d="M721.034 757.259C750.679 738.934 744.514 633.131 729.212 608.376C713.909 583.621 648.924 574.325 619.279 592.65C589.634 610.976 568.898 673.261 584.201 698.016C599.503 722.771 691.389 775.585 721.034 757.259Z" fill="#E39BA5"/>
<path d="M720.643 756.607C750.288 738.282 744.091 633.083 728.788 608.328C713.485 583.573 648.946 574.341 619.301 592.666C589.656 610.992 569.062 672.85 584.365 697.605C599.668 722.36 690.998 774.933 720.643 756.607Z" fill="#E39AA4"/>
<path d="M720.26 755.973C749.905 737.647 743.674 633.053 728.372 608.298C713.069 583.543 648.976 574.374 619.331 592.7C589.686 611.025 569.235 672.456 584.537 697.211C599.84 721.966 690.616 774.298 720.26 755.973Z" fill="#E398A3"/>
<path d="M719.858 755.343C749.503 737.018 743.239 633.027 727.936 608.272C712.634 583.517 648.987 574.413 619.342 592.738C589.697 611.063 569.388 672.066 584.69 696.821C599.993 721.576 690.213 773.668 719.858 755.343Z" fill="#E396A1"/>
<path d="M719.479 754.697C749.124 736.371 742.827 632.985 727.524 608.23C712.222 583.475 649.021 574.434 619.376 592.76C589.731 611.085 569.564 671.661 584.867 696.416C600.169 721.171 689.834 773.022 719.479 754.697Z" fill="#E495A0"/>
<path d="M719.092 754.053C748.737 735.727 742.407 632.945 727.104 608.19C711.802 583.435 649.047 574.458 619.402 592.783C589.757 611.109 569.732 671.257 585.035 696.012C600.338 720.767 689.447 772.378 719.092 754.053Z" fill="#E4939E"/>
<path d="M718.713 753.423C748.358 735.098 741.995 632.919 726.692 608.164C711.39 583.409 649.081 574.496 619.436 592.822C589.791 611.147 569.909 670.868 585.211 695.623C600.514 720.378 689.068 771.748 718.713 753.423Z" fill="#E4919D"/>
<path d="M718.311 752.781C747.956 734.455 741.559 632.881 726.257 608.126C710.954 583.371 649.091 574.522 619.446 592.847C589.801 611.173 570.061 670.466 585.364 695.221C600.667 719.976 688.666 771.106 718.311 752.781Z" fill="#E4909C"/>
<path d="M717.932 752.157C747.577 733.831 741.147 632.861 725.844 608.106C710.542 583.352 649.125 574.566 619.48 592.891C589.835 611.217 570.238 670.082 585.54 694.837C600.843 719.592 688.287 770.482 717.932 752.157Z" fill="#E58E9A"/>
<path d="M717.53 751.528C747.175 733.203 740.711 632.837 725.409 608.082C710.106 583.327 649.136 574.605 619.491 592.931C589.846 611.256 570.391 669.694 585.693 694.449C600.996 719.204 687.885 769.854 717.53 751.528Z" fill="#E58C99"/>
<path d="M717.155 750.872C746.8 732.547 740.303 632.785 725.001 608.03C709.698 583.275 649.174 574.617 619.529 592.943C589.884 611.268 570.571 669.278 585.873 694.033C601.176 718.788 687.51 769.198 717.155 750.872Z" fill="#E58B97"/>
<path d="M716.756 750.263C746.401 731.938 739.872 632.78 724.569 608.025C709.266 583.27 649.188 574.676 619.543 593.002C589.898 611.327 570.727 668.91 586.03 693.665C601.333 718.42 687.111 768.589 716.756 750.263Z" fill="#E58996"/>
<path d="M716.362 749.626C746.007 731.3 739.444 632.747 724.141 607.992C708.839 583.237 649.206 574.707 619.561 593.032C589.916 611.357 570.888 668.513 586.191 693.268C601.493 718.023 686.717 767.951 716.362 749.626Z" fill="#E68795"/>
<path d="M715.983 748.982C745.628 730.656 739.032 632.707 723.729 607.952C708.426 583.197 649.24 574.73 619.595 593.056C589.95 611.381 571.064 668.109 586.367 692.864C601.67 717.619 686.338 767.307 715.983 748.982Z" fill="#E68693"/>
<path d="M715.588 748.348C745.233 730.023 738.604 632.677 723.301 607.922C707.999 583.167 649.258 574.765 619.613 593.09C589.968 611.415 571.225 667.716 586.528 692.471C601.83 717.226 685.943 766.673 715.588 748.348Z" fill="#E68492"/>
<path d="M715.201 747.733C744.846 729.408 738.184 632.666 722.881 607.911C707.579 583.156 649.285 574.818 619.64 593.143C589.995 611.468 571.393 667.341 586.696 692.096C601.999 716.851 685.556 766.059 715.201 747.733Z" fill="#E68390"/>
<path d="M714.811 747.082C744.456 728.757 737.76 632.619 722.458 607.864C707.155 583.109 649.307 574.834 619.662 593.16C590.017 611.485 571.558 666.93 586.861 691.685C602.163 716.44 685.166 765.407 714.811 747.082Z" fill="#E7818F"/>
<path d="M714.424 746.443C744.069 728.117 737.34 632.584 722.038 607.829C706.735 583.074 649.333 574.863 619.688 593.188C590.043 611.514 571.726 666.531 587.029 691.286C602.332 716.041 684.779 764.768 714.424 746.443Z" fill="#E77F8E"/>
<path d="M714.037 745.807C743.682 727.482 736.92 632.553 721.618 607.798C706.315 583.043 649.359 574.895 619.714 593.221C590.069 611.546 571.895 666.136 587.197 690.891C602.5 715.646 684.392 764.133 714.037 745.807Z" fill="#E77E8C"/>
<path d="M713.639 745.181C743.284 726.856 736.489 632.531 721.186 607.776C705.883 583.021 649.373 574.938 619.728 593.263C590.083 611.588 572.052 665.751 587.354 690.506C602.657 715.261 683.994 763.507 713.639 745.181Z" fill="#E77C8B"/>
<path d="M713.26 744.537C742.905 726.212 736.076 632.491 720.774 607.736C705.471 582.981 649.407 574.961 619.762 593.287C590.117 611.612 572.228 665.347 587.53 690.102C602.833 714.857 683.615 762.863 713.26 744.537Z" fill="#E87A89"/>
<path d="M712.869 743.913C742.514 725.588 735.653 632.471 720.35 607.716C705.047 582.961 649.429 575.005 619.785 593.331C590.14 611.656 572.392 664.964 587.695 689.719C602.998 714.474 683.224 762.239 712.869 743.913Z" fill="#E87988"/>
<path d="M712.486 743.258C742.131 724.933 735.237 632.42 719.934 607.666C704.631 582.911 649.46 575.018 619.815 593.344C590.17 611.669 572.565 664.549 587.867 689.304C603.17 714.059 682.841 761.584 712.486 743.258Z" fill="#E87787"/>
<path d="M712.099 742.617C741.744 724.292 734.817 632.383 719.514 607.628C704.211 582.873 649.486 575.045 619.841 593.37C590.196 611.696 572.733 664.148 588.036 688.903C603.338 713.658 682.454 760.943 712.099 742.617Z" fill="#E87585"/>
<path d="M711.697 742.028C741.342 723.702 734.381 632.398 719.078 607.643C703.776 582.888 649.496 575.123 619.851 593.449C590.206 611.774 572.886 663.799 588.189 688.554C603.491 713.309 682.052 760.353 711.697 742.028Z" fill="#E97484"/>
<path d="M711.306 741.367C740.951 723.041 733.957 632.341 718.654 607.586C703.352 582.831 649.518 575.13 619.873 593.456C590.228 611.781 573.051 663.379 588.353 688.134C603.656 712.889 681.661 759.692 711.306 741.367Z" fill="#E97282"/>
<path d="M710.923 740.743C740.568 722.418 733.541 632.321 718.239 607.566C702.936 582.811 649.548 575.175 619.903 593.5C590.258 611.825 573.223 662.995 588.526 687.75C603.828 712.505 681.278 759.068 710.923 740.743Z" fill="#E97081"/>
<path d="M710.537 740.097C740.182 721.771 733.121 632.279 717.819 607.524C702.516 582.769 649.574 575.196 619.929 593.522C590.285 611.847 573.391 662.589 588.694 687.344C603.997 712.099 680.892 758.422 710.537 740.097Z" fill="#E96F80"/>
<path d="M710.142 739.461C739.787 721.136 732.693 632.248 717.391 607.493C702.088 582.738 649.593 575.229 619.948 593.554C590.303 611.88 573.552 662.194 588.855 686.949C604.157 711.704 680.497 757.787 710.142 739.461Z" fill="#EA6D7E"/>
<path d="M709.74 738.837C739.385 720.511 732.258 632.227 716.955 607.472C701.653 582.717 649.603 575.272 619.958 593.597C590.313 611.923 573.705 661.81 589.007 686.565C604.31 711.32 680.095 757.162 709.74 738.837Z" fill="#EA6B7D"/>
<path d="M709.372 738.187C739.017 719.862 731.857 632.182 716.555 607.427C701.252 582.672 649.649 575.291 620.004 593.616C590.359 611.941 573.893 661.401 589.195 686.156C604.498 710.911 679.727 756.513 709.372 738.187Z" fill="#EA6A7B"/>
<path d="M708.986 737.547C738.631 719.222 731.437 632.146 716.135 607.391C700.832 582.636 649.675 575.318 620.03 593.644C590.385 611.969 574.061 661.001 589.364 685.756C604.666 710.511 679.341 755.872 708.986 737.547Z" fill="#EB687A"/>
<path d="M708.587 736.932C738.232 718.607 731.006 632.135 715.703 607.38C700.401 582.625 649.689 575.371 620.044 593.697C590.399 612.022 574.218 660.627 589.521 685.382C604.823 710.137 678.942 755.258 708.587 736.932Z" fill="#EB6679"/>
<path d="M708.204 736.271C737.849 717.946 730.59 632.079 715.287 607.324C699.985 582.569 649.719 575.378 620.074 593.704C590.429 612.029 574.39 660.206 589.693 684.961C604.996 709.716 678.559 754.597 708.204 736.271Z" fill="#EB6577"/>
<path d="M707.814 735.647C737.459 717.321 730.166 632.058 714.863 607.303C699.561 582.548 649.742 575.421 620.097 593.747C590.452 612.072 574.555 659.822 589.857 684.577C605.16 709.332 678.169 753.972 707.814 735.647Z" fill="#EB6376"/>
<path d="M707.415 735.023C737.06 716.697 729.734 632.038 714.432 607.283C699.129 582.528 649.756 575.466 620.111 593.791C590.466 612.116 574.712 659.438 590.014 684.193C605.317 708.948 677.77 753.348 707.415 735.023Z" fill="#EC6174"/>
<path d="M707.028 734.38C736.673 716.054 729.314 631.999 714.012 607.244C698.709 582.489 649.782 575.49 620.137 593.816C590.492 612.141 574.88 659.036 590.183 683.791C605.485 708.546 677.383 752.705 707.028 734.38Z" fill="#EC6073"/>
<path d="M706.642 733.748C736.287 715.423 728.894 631.972 713.592 607.217C698.289 582.462 649.808 575.527 620.163 593.852C590.518 612.177 575.049 658.644 590.351 683.399C605.654 708.154 676.997 752.073 706.642 733.748Z" fill="#EC5E72"/>
<path d="M706.259 733.102C735.904 714.776 728.478 631.93 713.176 607.175C697.873 582.42 649.838 575.548 620.193 593.874C590.548 612.199 575.221 658.239 590.523 682.993C605.826 707.748 676.614 751.427 706.259 733.102Z" fill="#EC5C70"/>
<path d="M705.876 732.455C735.521 714.129 728.062 631.886 712.76 607.131C697.457 582.376 649.868 575.569 620.223 593.894C590.578 612.22 575.393 657.832 590.696 682.587C605.998 707.342 676.231 750.78 705.876 732.455Z" fill="#ED5B6F"/>
<path d="M705.477 731.846C735.122 713.521 727.631 631.882 712.328 607.127C697.025 582.372 649.883 575.629 620.238 593.954C590.593 612.28 575.55 657.464 590.853 682.219C606.155 706.974 675.832 750.172 705.477 731.846Z" fill="#ED596E"/>
<path d="M705.087 731.2C734.732 712.875 727.207 631.84 711.904 607.085C696.601 582.33 649.905 575.651 620.26 593.976C590.615 612.301 575.714 657.058 591.017 681.813C606.32 706.568 675.442 749.526 705.087 731.2Z" fill="#ED576C"/>
<path d="M704.7 730.577C734.345 712.252 726.787 631.822 711.484 607.067C696.182 582.312 649.931 575.696 620.286 594.021C590.641 612.346 575.883 656.676 591.186 681.431C606.488 706.186 675.055 748.903 704.7 730.577Z" fill="#ED566B"/>
<path d="M704.309 729.937C733.954 711.612 726.363 631.785 711.06 607.03C695.758 582.275 649.953 575.723 620.308 594.049C590.663 612.374 576.047 656.276 591.35 681.031C606.653 705.786 674.664 748.262 704.309 729.937Z" fill="#EE5469"/>
<path d="M703.919 729.317C733.564 710.992 725.939 631.77 710.636 607.015C695.334 582.26 649.975 575.771 620.33 594.097C590.685 612.422 576.212 655.896 591.515 680.651C606.817 705.406 674.274 747.643 703.919 729.317Z" fill="#EE5268"/>
<path d="M703.536 728.646C733.181 710.32 725.523 631.702 710.22 606.947C694.918 582.192 650.005 575.768 620.36 594.093C590.716 612.418 576.384 655.465 591.687 680.22C606.99 704.975 673.891 746.971 703.536 728.646Z" fill="#EE5167"/>
<path d="M703.153 728.031C732.798 709.705 725.107 631.691 709.804 606.936C694.502 582.181 650.035 575.821 620.39 594.146C590.746 612.471 576.557 655.091 591.859 679.846C607.162 704.601 673.508 746.356 703.153 728.031Z" fill="#EE4F65"/>
<path d="M702.754 727.397C732.399 709.072 724.675 631.662 709.373 606.907C694.07 582.152 650.05 575.855 620.405 594.18C590.76 612.506 576.713 654.697 592.016 679.452C607.319 704.207 673.109 745.723 702.754 727.397Z" fill="#EF4D64"/>
<path d="M702.368 726.75C732.013 708.425 724.255 631.619 708.953 606.864C693.65 582.109 650.076 575.876 620.431 594.201C590.786 612.527 576.882 654.291 592.185 679.046C607.487 703.801 672.723 745.075 702.368 726.75Z" fill="#EF4C62"/>
<path d="M701.977 726.11C731.622 707.784 723.832 631.583 708.529 606.828C693.226 582.073 650.098 575.903 620.453 594.229C590.808 612.554 577.046 653.891 592.349 678.646C607.652 703.401 672.332 744.435 701.977 726.11Z" fill="#EF4A61"/>
<path d="M701.594 725.501C731.239 707.175 723.415 631.578 708.113 606.823C692.81 582.068 650.128 575.962 620.483 594.288C590.838 612.613 577.219 653.522 592.521 678.277C607.824 703.032 671.949 743.826 701.594 725.501Z" fill="#EF4860"/>
<path d="M701.196 724.876C730.841 706.55 722.984 631.557 707.681 606.802C692.379 582.047 650.143 576.005 620.498 594.331C590.853 612.656 577.376 653.138 592.678 677.893C607.981 702.648 671.551 743.201 701.196 724.876Z" fill="#F0475E"/>
<path d="M700.817 724.211C730.462 705.886 722.572 631.496 707.269 606.741C691.966 581.986 650.177 576.008 620.532 594.334C590.887 612.659 577.552 652.713 592.854 677.468C608.157 702.223 671.172 742.536 700.817 724.211Z" fill="#F0455D"/>
<path d="M700.426 723.587C730.071 705.262 722.148 631.477 706.845 606.722C691.543 581.967 650.199 576.053 620.554 594.378C590.909 612.703 577.716 652.33 593.019 677.085C608.322 701.84 670.781 741.913 700.426 723.587Z" fill="#F0435B"/>
<path d="M700.035 722.942C729.68 704.617 721.724 631.436 706.421 606.681C691.119 581.926 650.221 576.075 620.576 594.401C590.931 612.726 577.881 651.925 593.183 676.68C608.486 701.435 670.39 741.267 700.035 722.942Z" fill="#F0425A"/>
<path d="M699.637 722.315C729.282 703.99 721.292 631.413 705.99 606.658C690.687 581.903 650.235 576.117 620.59 594.442C590.945 612.767 578.038 651.539 593.34 676.294C608.643 701.049 669.992 740.641 699.637 722.315Z" fill="#F14059"/>
<path d="M699.258 721.697C728.903 703.372 720.88 631.399 705.578 606.644C690.275 581.889 650.269 576.167 620.624 594.492C590.979 612.817 578.214 651.161 593.516 675.916C608.819 700.671 669.613 740.023 699.258 721.697Z" fill="#F13E57"/>
<path d="M698.863 721.045C728.508 702.72 720.452 631.351 705.15 606.596C689.847 581.841 650.288 576.182 620.643 594.508C590.998 612.833 578.375 650.749 593.677 675.504C608.98 700.259 669.218 739.371 698.863 721.045Z" fill="#F13D56"/>
<path d="M698.484 720.4C728.129 702.075 720.04 631.31 704.738 606.555C689.435 581.8 650.321 576.205 620.677 594.53C591.032 612.856 578.551 650.345 593.853 675.1C609.156 699.855 668.839 738.726 698.484 720.4Z" fill="#F13B54"/>
<path d="M698.09 719.762C727.735 701.436 719.612 631.276 704.31 606.521C689.007 581.766 650.34 576.235 620.695 594.56C591.05 612.885 578.711 649.947 594.014 674.702C609.317 699.457 668.445 738.087 698.09 719.762Z" fill="#F23953"/>
<path d="M697.715 719.116C727.36 700.79 719.204 631.234 703.902 606.479C688.599 581.724 650.378 576.256 620.733 594.582C591.088 612.907 578.892 649.541 594.194 674.296C609.497 699.051 668.07 737.441 697.715 719.116Z" fill="#F23852"/>
<path d="M697.312 718.481C726.957 700.156 718.769 631.203 703.466 606.448C688.163 581.693 650.388 576.29 620.743 594.615C591.098 612.941 579.044 649.147 594.347 673.902C609.65 698.657 667.667 736.806 697.312 718.481Z" fill="#F23650"/>
<path d="M696.926 717.866C726.571 699.541 718.349 631.193 703.046 606.438C687.744 581.683 650.414 576.343 620.769 594.668C591.124 612.993 579.213 648.772 594.515 673.527C609.818 698.282 667.281 736.192 696.926 717.866Z" fill="#F2344F"/>
<path d="M696.535 717.235C726.18 698.909 717.925 631.165 702.622 606.41C687.32 581.655 650.436 576.379 620.791 594.704C591.147 613.03 579.377 648.381 594.68 673.136C609.983 697.891 666.89 735.56 696.535 717.235Z" fill="#F3334D"/>
<path d="M702.206 606.365C717.509 631.12 725.797 698.26 696.152 716.585C666.507 734.911 610.155 697.482 594.852 672.727C579.55 647.972 591.177 613.049 620.821 594.723C650.466 576.398 686.904 581.61 702.206 606.365Z" fill="#F3314C"/>
<path d="M605.663 607.93L617.172 603.292L633.323 609.748L632.509 596.631L639.519 589.485L661.149 586.05L658.373 579.966L675.456 571.161L653.587 578.053L665.335 569.958L673.373 553.273L685.408 544.582L671.22 548.859L658.755 567.327L646.576 567.434L651.647 550.985L647.46 549.311L629.444 573.377L617.002 575.51L609.226 572.402L585.418 569.991L590.898 577.867L603.006 591.234L576.352 596.214L564.652 607.171L587.789 605.049L584.344 612.2L563.433 623.028L552.881 631.601L568.218 624.941L585.972 620.667L575.852 637.23L591.165 629.138L605.663 607.93Z" fill="#4D772D"/>
<ellipse cx="4.93556" cy="11.3127" rx="4.93556" ry="11.3127" transform="matrix(0.703949 -0.71025 0.734978 0.678091 596.117 693.556)" fill="#730212"/>
<ellipse cx="4.93556" cy="11.3127" rx="4.93556" ry="11.3127" transform="matrix(0.703949 -0.71025 0.734978 0.678091 634.977 725.805)" fill="#730212"/>
<ellipse cx="4.93556" cy="11.3127" rx="4.93556" ry="11.3127" transform="matrix(0.703949 -0.71025 0.734978 0.678091 670.906 725.252)" fill="#730212"/>
<ellipse cx="4.93556" cy="11.3127" rx="4.93556" ry="11.3127" transform="matrix(0.703949 -0.71025 0.734978 0.678091 635.188 696.825)" fill="#730212"/>
<ellipse cx="4.93556" cy="11.3127" rx="4.93556" ry="11.3127" transform="matrix(0.703949 -0.71025 0.734978 0.678091 604.141 665.48)" fill="#730212"/>
<ellipse cx="4.93556" cy="11.3127" rx="4.93556" ry="11.3127" transform="matrix(-0.950025 0.312174 0.277989 0.960584 728.215 614.319)" fill="#730212"/>
<ellipse cx="4.93556" cy="11.3127" rx="4.93556" ry="11.3127" transform="matrix(-0.950025 0.312174 0.277989 0.960584 739.688 663.501)" fill="#730212"/>
<ellipse cx="4.93556" cy="11.3127" rx="4.93556" ry="11.3127" transform="matrix(-0.950025 0.312174 0.277989 0.960584 723.137 695.385)" fill="#730212"/>
<ellipse cx="4.93556" cy="11.3127" rx="4.93556" ry="11.3127" transform="matrix(-0.950025 0.312174 0.277989 0.960584 713.656 650.713)" fill="#730212"/>
<ellipse cx="4.93556" cy="11.3127" rx="4.93556" ry="11.3127" transform="matrix(-0.950025 0.312174 0.277989 0.960584 699.488 608.958)" fill="#730212"/>
<ellipse cx="4.95695" cy="11.2566" rx="4.95695" ry="11.2566" transform="matrix(-0.848395 0.529363 0.529926 0.848044 679.074 666.879)" fill="#730212"/>
<ellipse cx="4.95695" cy="11.2566" rx="4.95695" ry="11.2566" transform="matrix(-0.848395 0.529363 0.529926 0.848044 654.098 630.675)" fill="#730212"/>
</svg>
