<svg width="145" height="72" viewBox="0 0 145 72" fill="none" xmlns="http://www.w3.org/2000/svg">
<path d="M43.0157 59.6492C44.4452 59.6492 45.5301 59.5726 46.2704 59.4194V54.2884C46.0152 54.2118 45.645 54.1352 45.16 54.0586C44.675 53.982 44.1389 53.9437 43.5518 53.9437C43.0412 53.9437 42.5179 53.982 41.9818 54.0586C41.4713 54.1352 40.999 54.2756 40.565 54.4798C40.1566 54.684 39.8247 54.9776 39.5694 55.3605C39.3142 55.7179 39.1865 56.1774 39.1865 56.739C39.1865 57.8367 39.5312 58.6025 40.2204 59.0365C40.9096 59.4449 41.8414 59.6492 43.0157 59.6492ZM42.6328 42.3797C44.1644 42.3797 45.4536 42.5712 46.5002 42.9541C47.5468 43.337 48.3765 43.8731 48.9891 44.5624C49.6273 45.2516 50.0741 46.094 50.3293 47.0896C50.6101 48.0596 50.7505 49.1318 50.7505 50.3061V62.4444C50.0358 62.5976 48.9508 62.7763 47.4958 62.9805C46.0662 63.2103 44.4452 63.3251 42.6328 63.3251C41.433 63.3251 40.3353 63.2103 39.3397 62.9805C38.3441 62.7508 37.489 62.3806 36.7742 61.8701C36.0849 61.3595 35.5361 60.6958 35.1276 59.8789C34.7447 59.062 34.5533 58.0537 34.5533 56.8539C34.5533 55.7051 34.7703 54.7351 35.2042 53.9437C35.6637 53.1524 36.2764 52.5142 37.0422 52.0292C37.808 51.5186 38.6887 51.1612 39.6843 50.957C40.7054 50.7273 41.7648 50.6124 42.8625 50.6124C43.3731 50.6124 43.9091 50.6507 44.4707 50.7273C45.0324 50.7783 45.6323 50.8804 46.2704 51.0336V50.2678C46.2704 49.7317 46.2066 49.2211 46.079 48.7361C45.9513 48.2511 45.7216 47.8299 45.3897 47.4725C45.0834 47.0896 44.6622 46.796 44.1261 46.5918C43.6156 46.3876 42.9646 46.2855 42.1733 46.2855C41.1011 46.2855 40.1183 46.3621 39.2248 46.5152C38.3314 46.6684 37.6038 46.8471 37.0422 47.0513L36.4678 43.2987C37.055 43.0945 37.9102 42.8903 39.0334 42.6861C40.1566 42.4819 41.3564 42.3797 42.6328 42.3797ZM67.8354 47.0513C67.4525 46.9237 66.9164 46.796 66.2271 46.6684C65.5634 46.5152 64.7848 46.4386 63.8914 46.4386C63.3808 46.4386 62.832 46.4897 62.2448 46.5918C61.6832 46.6939 61.2875 46.7833 61.0578 46.8598V62.9039H56.4245V43.8348C57.318 43.503 58.4285 43.1966 59.7559 42.9158C61.1089 42.6095 62.6022 42.4563 64.236 42.4563C64.5423 42.4563 64.8997 42.4819 65.3081 42.5329C65.7166 42.5584 66.125 42.6095 66.5335 42.6861C66.9419 42.7371 67.3376 42.8137 67.7205 42.9158C68.1034 42.9924 68.4097 43.069 68.6395 43.1456L67.8354 47.0513ZM70.7578 52.9865C70.7578 51.2251 71.0131 49.6806 71.5236 48.3532C72.0597 47.0258 72.7617 45.9281 73.6296 45.0601C74.4976 44.1667 75.4932 43.503 76.6164 43.069C77.7396 42.6095 78.8883 42.3797 80.0626 42.3797C82.8196 42.3797 84.9639 43.2349 86.4955 44.9453C88.0527 46.6556 88.8313 49.2084 88.8313 52.6035C88.8313 52.8588 88.8186 53.1524 88.793 53.4842C88.793 53.7906 88.7803 54.0714 88.7547 54.3267H75.5442C75.6718 55.9349 76.2335 57.1858 77.229 58.0792C78.2501 58.9472 79.718 59.3811 81.6325 59.3811C82.7558 59.3811 83.7769 59.279 84.6958 59.0748C85.6404 58.8706 86.3807 58.6536 86.9167 58.4238L87.5294 62.2147C87.2741 62.3423 86.9167 62.4827 86.4573 62.6359C86.0233 62.7635 85.5127 62.8784 84.9256 62.9805C84.364 63.1082 83.7513 63.2103 83.0876 63.2868C82.4239 63.3634 81.7474 63.4017 81.0582 63.4017C79.2968 63.4017 77.7651 63.1464 76.4632 62.6359C75.1613 62.0998 74.0891 61.3723 73.2467 60.4533C72.4043 59.5088 71.7789 58.4111 71.3704 57.1602C70.962 55.8838 70.7578 54.4926 70.7578 52.9865ZM84.1981 50.9187C84.1981 50.2805 84.1087 49.6806 83.93 49.119C83.7513 48.5319 83.4833 48.0341 83.1259 47.6257C82.794 47.1917 82.3728 46.8598 81.8623 46.6301C81.3773 46.3748 80.7901 46.2472 80.1009 46.2472C79.3861 46.2472 78.7607 46.3876 78.2246 46.6684C77.6885 46.9237 77.229 47.2683 76.8461 47.7022C76.4887 48.1362 76.2079 48.634 76.0037 49.1956C75.7995 49.7572 75.6591 50.3316 75.5825 50.9187H84.1981ZM100.713 63.2868C99.3342 63.2613 98.1855 63.1082 97.2665 62.8273C96.373 62.5465 95.6583 62.1509 95.1222 61.6403C94.5861 61.1042 94.2032 60.4533 93.9734 59.6875C93.7692 58.8961 93.6671 58.0026 93.6671 57.0071V33.9556L98.3004 33.1898V56.1264C98.3004 56.688 98.3386 57.1602 98.4152 57.5431C98.5173 57.9261 98.6833 58.2579 98.913 58.5387C99.1428 58.794 99.4491 58.9982 99.832 59.1514C100.24 59.279 100.751 59.3811 101.364 59.4577L100.713 63.2868ZM109.745 50.689C110.332 50.0763 110.957 49.4254 111.621 48.7361C112.285 48.0213 112.936 47.3193 113.574 46.6301C114.212 45.9153 114.812 45.2388 115.374 44.6006C115.961 43.9369 116.458 43.3626 116.867 42.8775H122.343C121.066 44.3071 119.713 45.7877 118.284 47.3193C116.88 48.851 115.463 50.3444 114.033 51.7994C114.799 52.4376 115.603 53.2162 116.446 54.1352C117.288 55.0287 118.105 55.986 118.896 57.0071C119.688 58.0282 120.428 59.0493 121.117 60.0704C121.806 61.0915 122.381 62.036 122.84 62.9039H117.48C117.02 62.1126 116.484 61.2829 115.871 60.415C115.284 59.5471 114.646 58.7046 113.957 57.8878C113.268 57.0709 112.565 56.305 111.851 55.5903C111.136 54.85 110.434 54.2245 109.745 53.714V62.9039H105.111V33.9556L109.745 33.1898V50.689ZM133.247 59.6492C134.677 59.6492 135.762 59.5726 136.502 59.4194V54.2884C136.247 54.2118 135.877 54.1352 135.392 54.0586C134.907 53.982 134.37 53.9437 133.783 53.9437C133.273 53.9437 132.749 53.982 132.213 54.0586C131.703 54.1352 131.231 54.2756 130.797 54.4798C130.388 54.684 130.056 54.9776 129.801 55.3605C129.546 55.7179 129.418 56.1774 129.418 56.739C129.418 57.8367 129.763 58.6025 130.452 59.0365C131.141 59.4449 132.073 59.6492 133.247 59.6492ZM132.864 42.3797C134.396 42.3797 135.685 42.5712 136.732 42.9541C137.778 43.337 138.608 43.8731 139.221 44.5624C139.859 45.2516 140.306 46.094 140.561 47.0896C140.842 48.0596 140.982 49.1318 140.982 50.3061V62.4444C140.267 62.5976 139.182 62.7763 137.727 62.9805C136.298 63.2103 134.677 63.3251 132.864 63.3251C131.665 63.3251 130.567 63.2103 129.571 62.9805C128.576 62.7508 127.721 62.3806 127.006 61.8701C126.316 61.3595 125.768 60.6958 125.359 59.8789C124.976 59.062 124.785 58.0537 124.785 56.8539C124.785 55.7051 125.002 54.7351 125.436 53.9437C125.895 53.1524 126.508 52.5142 127.274 52.0292C128.04 51.5186 128.92 51.1612 129.916 50.957C130.937 50.7273 131.996 50.6124 133.094 50.6124C133.605 50.6124 134.141 50.6507 134.702 50.7273C135.264 50.7783 135.864 50.8804 136.502 51.0336V50.2678C136.502 49.7317 136.438 49.2211 136.311 48.7361C136.183 48.2511 135.953 47.8299 135.621 47.4725C135.315 47.0896 134.894 46.796 134.358 46.5918C133.847 46.3876 133.196 46.2855 132.405 46.2855C131.333 46.2855 130.35 46.3621 129.456 46.5152C128.563 46.6684 127.835 46.8471 127.274 47.0513L126.699 43.2987C127.287 43.0945 128.142 42.8903 129.265 42.6861C130.388 42.4819 131.588 42.3797 132.864 42.3797Z" fill="#252432"/>
<path d="M27.3012 63.1338H22.1822V44.3643C22.1822 38.9379 18.7696 40.9517 17.0633 39.2453C15.4741 37.6562 15.3569 35.3271 15.3569 32.4201V11.9442H18.7696V27.3011C18.7696 29.0074 20.4759 29.0074 20.4759 27.3011V11.9442H23.8885V27.3011C23.8885 29.0074 25.6582 29.0074 25.6582 27.4157V11.9442H29.0075V27.4157C29.0075 29.0074 30.7138 29.0074 30.7138 27.3011V11.9442H34.1265V32.4545C34.1265 34.9795 34.1265 37.539 32.4201 39.2453C30.813 40.8525 27.3012 39.3255 27.3012 44.3643V63.1338Z" fill="#329632"/>
<path d="M52.0428 7.98854C50.3365 14.5042 39.2454 17.3733 24.8822 19.7399C10.2379 21.6391 0 20.2756 0 13.9607C0 7.64572 9.66593 3.80767 24.8822 1.16326C40.0985 -1.48114 54.0786 0.214704 52.0428 7.98854Z" fill="#F48E28"/>
</svg>
