<svg width="400" height="550" viewBox="0 0 400 550" fill="none" xmlns="http://www.w3.org/2000/svg">
<rect width="400" height="550" rx="40" fill="#2B6243"/>
<path d="M55.6179 364.423C72.1244 377.482 102.564 363.51 102.564 363.51L137.439 351.31L319.394 234.28L343.976 202.187C343.976 202.187 365.19 182.903 364.999 166.027C364.807 149.261 356.047 141.182 342.196 139.827C328.345 138.471 304.201 143.894 304.201 143.894C304.201 143.894 297.166 120.93 283.698 111.302C283.342 111.053 283.369 109.31 283.014 109.089C279.674 106.931 276.444 105.907 271.955 106.267C267.438 106.627 263.359 107.54 259.91 108.729C256.926 109.753 254.353 112.935 252.108 114.29C243.732 119.298 240.255 123.559 240.255 123.559L201.795 114.069L185.726 101.149C185.726 101.149 179.266 98.7694 171.054 100.927C163.69 102.864 159.721 106.156 157.805 107.733C156.984 108.425 148.169 145.692 148.169 145.692L86.4684 154.268C86.4684 154.268 81.1031 156.537 76.6412 163.758C72.1792 170.979 70.5915 183.401 70.5915 183.401L77.9825 227.004L45.1063 245.513C45.1063 245.513 40.7539 249.801 37.6059 258.378C34.4852 266.954 34.9506 273.871 35.1422 277.578C35.3064 280.428 60.0799 303.861 60.0799 303.861L44.8873 342.733C44.8873 342.761 45.3253 356.317 55.6179 364.423Z" fill="#4F976E"/>
<path d="M174.64 200.302C127.912 228.854 122.766 273.508 124.573 302.862C126.379 332.216 133.962 353.021 133.962 353.021C133.962 353.021 189.394 343.974 244.854 305.13C300.314 266.287 319.53 234.193 319.53 234.193C319.53 234.193 297.056 206.416 264.536 190.37C228.457 172.552 193.856 188.544 174.64 200.302Z" fill="#4F976E"/>
<path d="M283.152 109.002C283.152 109.002 268.342 155.15 295.306 167.046C330.454 182.567 342.307 139.739 342.307 139.739C342.307 139.739 326.238 137.72 316.794 133.044C300.151 124.8 283.152 109.002 283.152 109.002Z" fill="#4F976E"/>
<path d="M185.18 101.09C185.18 101.09 185.864 144.057 222.244 149.203C258.624 154.348 259.993 108.643 259.993 108.643C259.993 108.643 248.797 114.149 229.745 114.149C213.758 114.149 207.982 107.952 200.509 104.881C190.846 100.897 185.18 101.09 185.18 101.09Z" fill="#4F976E"/>
<path d="M86.6914 154.018C86.6914 154.018 116.365 192.28 150.993 168.266C180.228 147.986 157.891 107.814 157.891 107.814C157.891 107.814 139.085 132.327 129.258 137.694C110.616 147.848 86.6914 154.018 86.6914 154.018Z" fill="#4F976E"/>
<path d="M70.9621 181.16C70.9621 181.16 113.83 208.771 98.1992 236.632C82.5687 264.464 45.1211 245.43 45.1211 245.43C45.1211 245.43 65.5147 231.347 69.5934 221.387C73.6722 211.427 67.5678 193.527 70.9621 181.16Z" fill="#4F976E"/>
<path d="M77.8975 303.193C79.0198 320.762 52.686 337.887 45.0487 342.674C43.3515 331.635 48.8537 319.655 47.485 307.98C46.0889 296.194 34.3728 287.23 35.2762 277.491C45.514 277.989 76.4193 280.175 77.8975 303.193Z" fill="#4F976E"/>
<path d="M190.771 174.49C192.304 178.778 197.971 178.363 205.28 176.509C212.287 174.739 216.284 173.715 216.284 169.427C216.284 163.838 208.017 162.593 202.789 163.866C197.533 165.138 188.773 168.929 190.771 174.49Z" fill="#4F976E"/>
<path d="M180.566 180.05C182.071 186.884 154.56 196.346 137.534 219.475C110.762 255.884 117.277 282.665 110.023 284.187C103.152 285.626 101.181 257.074 110.434 235.605C119.686 214.135 135.7 196.761 147.799 188.129C162.28 177.782 179.06 173.272 180.566 180.05Z" fill="#4F976E"/>
<path d="M182.615 177.303C177.506 177.303 172.615 177.959 167.944 179.273C163.273 180.441 158.382 182.412 153.273 185.186L145.828 164.821C151.229 161.755 157.36 159.347 164.221 157.595C171.229 155.697 178.382 154.748 185.681 154.748C194.44 154.748 201.666 155.989 207.359 158.471C213.052 160.807 217.578 163.799 220.935 167.449C224.293 171.098 226.629 175.113 227.943 179.492C229.256 183.872 229.913 188.105 229.913 192.193C229.913 197.156 228.964 201.608 227.067 205.55C225.315 209.492 223.052 213.141 220.279 216.499C217.505 219.856 214.512 223.068 211.301 226.133C208.089 229.053 205.096 232.119 202.323 235.33C199.549 238.396 197.213 241.68 195.316 245.184C193.564 248.688 192.688 252.629 192.688 257.009C192.688 257.739 192.688 258.614 192.688 259.636C192.688 260.512 192.761 261.388 192.907 262.264L170.134 262.264C169.842 260.804 169.623 259.271 169.477 257.666C169.331 255.914 169.258 254.308 169.258 252.848C169.258 248.031 170.061 243.724 171.667 239.929C173.272 236.133 175.316 232.63 177.798 229.418C180.279 226.206 182.907 223.214 185.681 220.44C188.6 217.666 191.301 214.893 193.783 212.119C196.265 209.346 198.308 206.499 199.914 203.579C201.52 200.66 202.323 197.448 202.323 193.944C202.323 189.127 200.644 185.186 197.286 182.12C194.075 178.908 189.184 177.303 182.615 177.303ZM199.695 295.548C199.695 300.657 198.016 304.818 194.659 308.029C191.301 311.241 187.141 312.847 182.177 312.847C177.36 312.847 173.199 311.241 169.696 308.029C166.338 304.818 164.659 300.657 164.659 295.548C164.659 290.438 166.338 286.278 169.696 283.066C173.199 279.709 177.36 278.03 182.177 278.03C187.141 278.03 191.301 279.709 194.659 283.066C198.016 286.278 199.695 290.438 199.695 295.548Z" fill="#2B6243"/>
</svg>
