<svg width="820" height="550" viewBox="0 0 820 550" fill="none" xmlns="http://www.w3.org/2000/svg">
<g clip-path="url(#clip0_2793_24912)">
<rect width="820" height="550" rx="40" fill="#A3BD5B"/>
<path d="M754.485 694.986L800.413 662.723L687.231 501.603C654.509 455.023 697.271 450.8 702.291 425.399C706.967 401.742 693.973 381.01 676.444 356.056L552.973 180.289L522.354 201.798L614.957 333.623C625.247 348.27 609.937 359.024 599.648 344.377L507.045 212.552L476.426 234.061L569.029 365.886C579.319 380.533 563.441 391.687 553.843 378.023L460.548 245.215L430.498 266.324L523.792 399.133C533.391 412.796 518.081 423.551 507.792 408.903L415.189 277.078L384.57 298.587L508.249 474.649C523.475 496.325 538.909 518.295 564.507 522.188C588.618 525.855 610.919 490.613 641.303 533.867L754.485 694.986Z" fill="#DDE7C1"/>
<path d="M199.948 377.583C254.547 422.76 371.359 377.485 514.497 307.273C657.341 231.278 740.975 155.048 702.895 100.84C664.815 46.6315 554.948 74.6065 402.479 147.81C250.01 221.014 134.805 323.683 199.948 377.583Z" fill="#DDE7C1"/>
</g>
<defs>
<clipPath id="clip0_2793_24912">
<rect width="820" height="550" rx="40" fill="white"/>
</clipPath>
</defs>
</svg>
