<svg width="400" height="550" viewBox="0 0 400 550" fill="none" xmlns="http://www.w3.org/2000/svg">
<rect width="400" height="550" rx="40" fill="#EA86D1"/>
<path d="M270.639 129.591C270.114 127.436 269.44 125.474 268.722 123.729C268.146 122.33 267.538 121.073 266.952 119.974C266.096 118.367 265.283 117.098 264.674 116.22L231.169 116.22L231.169 116.219L228.958 116.219C226.832 116.219 225.103 114.49 225.103 112.364C225.103 110.238 226.832 108.509 228.958 108.509L246.244 108.509L246.244 101L228.958 101C222.692 101 217.594 106.098 217.594 112.364C217.594 118.14 221.926 122.919 227.51 123.633C227.51 123.634 227.51 123.635 227.51 123.637C227.871 130.53 229.273 136.701 231.688 142.015C234.081 147.276 237.468 151.73 241.761 155.246C249.207 161.351 257.25 162.948 260.361 163.354C261.01 163.437 261.41 163.464 261.483 163.469L261.598 163.477L263.751 163.477C264.577 162.227 265.338 160.976 266.031 159.722C266.73 158.473 267.361 157.221 267.929 155.967C271.883 147.251 272.797 138.413 270.639 129.591ZM258.121 136.198L252.259 136.198L252.259 130.335L258.121 130.335L258.121 136.198Z" fill="#FFDEF7"/>
<path d="M337.633 143.878C337.33 145.112 336.962 146.391 336.522 147.7C336.231 148.559 335.904 149.447 335.528 150.359L335.528 150.361C334.727 152.316 333.723 154.373 332.467 156.464C329.556 161.312 325.283 166.349 319.02 170.746C317.984 171.475 316.895 172.183 315.746 172.871C314.66 173.522 313.523 174.156 312.334 174.764C312.52 175.673 312.617 176.611 312.617 177.572C312.617 184.08 308.18 189.574 302.172 191.187C300.928 185.22 295.64 180.738 289.305 180.738L273.938 180.738L273.938 183.191C273.938 190.451 279.823 196.336 287.083 196.336C279.823 196.336 273.938 202.222 273.938 209.482L273.938 211.935L289.305 211.935C296.498 211.935 302.337 206.158 302.446 198.991C302.446 198.991 302.447 198.991 302.447 198.991C323.483 197.009 339.999 179.245 339.999 157.698C339.999 152.854 339.165 148.203 337.633 143.878Z" fill="#FFDEF7"/>
<path d="M303.387 116.505C304.013 117.729 304.644 119.088 305.242 120.572C305.765 121.864 306.263 123.253 306.714 124.73C306.942 125.476 307.157 126.247 307.357 127.038C309.245 134.5 309.983 145.015 305.272 157.05C304.826 158.192 304.331 159.346 303.783 160.512C303.252 161.639 302.674 162.775 302.043 163.924C304.729 164.62 307.107 166.087 308.922 168.077C310.083 167.483 311.199 166.86 312.273 166.204C313.362 165.541 314.408 164.848 315.407 164.119C322.038 159.301 326.689 153.103 329.295 145.599C329.447 145.158 329.59 144.72 329.723 144.287C330.348 142.252 330.761 140.315 331.029 138.56C331.397 136.144 331.49 134.074 331.487 132.562C324.834 123.854 314.814 117.847 303.387 116.505Z" fill="#FFDEF7"/>
<path d="M300.094 128.884C299.621 127.014 299.047 125.292 298.434 123.732C297.891 122.35 297.315 121.094 296.749 119.977C295.981 118.458 295.227 117.199 294.592 116.223L273.475 116.223C274.079 117.339 274.7 118.596 275.3 119.977C275.808 121.141 276.299 122.395 276.755 123.732C277.155 124.906 277.526 126.143 277.853 127.442C279.653 134.556 280.374 144.538 276.044 155.97C275.578 157.204 275.05 158.458 274.459 159.725C273.883 160.961 273.245 162.215 272.539 163.479L293.605 163.479C294.401 162.23 295.135 160.979 295.806 159.725C296.479 158.476 297.087 157.224 297.635 155.97C301.555 147.014 302.384 137.942 300.094 128.884Z" fill="#FFDEF7"/>
<path d="M113.038 129.591C112.512 127.436 111.839 125.474 111.12 123.729C110.545 122.33 109.937 121.073 109.351 119.974C108.495 118.367 107.681 117.098 107.073 116.22L73.5678 116.22L73.5678 116.219L71.3565 116.219C69.2309 116.219 67.5015 114.49 67.5015 112.364C67.5015 110.238 69.2309 108.509 71.3565 108.509L88.642 108.509L88.642 101L71.3567 101C65.0903 101 59.9922 106.098 59.9922 112.364C59.9922 118.14 64.3241 122.919 69.9089 123.633C69.9089 123.634 69.9089 123.635 69.9089 123.637C70.2694 130.53 71.6711 136.701 74.0866 142.015C76.4797 147.276 79.8663 151.73 84.1592 155.246C91.6059 161.351 99.6486 162.948 102.76 163.354C103.408 163.437 103.809 163.464 103.881 163.469L103.997 163.477L106.149 163.477C106.975 162.227 107.736 160.976 108.43 159.722C109.128 158.473 109.759 157.221 110.327 155.967C114.282 147.251 115.195 138.413 113.038 129.591ZM100.52 136.198L94.6574 136.198L94.6574 130.335L100.52 130.335L100.52 136.198Z" fill="#FFDEF7"/>
<path d="M180.036 143.878C179.733 145.112 179.365 146.391 178.924 147.7C178.634 148.559 178.306 149.447 177.93 150.359L177.93 150.361C177.129 152.316 176.126 154.373 174.869 156.464C171.958 161.312 167.685 166.349 161.422 170.746C160.386 171.475 159.297 172.183 158.148 172.871C157.062 173.522 155.925 174.156 154.737 174.764C154.922 175.673 155.019 176.611 155.019 177.572C155.019 184.08 150.582 189.574 144.575 191.187C143.33 185.22 138.043 180.738 131.707 180.738L116.34 180.738L116.34 183.191C116.34 190.451 122.225 196.336 129.486 196.336C122.225 196.336 116.34 202.222 116.34 209.482L116.34 211.935L131.708 211.935C138.9 211.935 144.74 206.158 144.848 198.991C144.849 198.991 144.849 198.991 144.849 198.991C165.885 197.009 182.401 179.245 182.401 157.698C182.401 152.854 181.568 148.203 180.036 143.878Z" fill="#FFDEF7"/>
<path d="M145.789 116.505C146.415 117.729 147.046 119.088 147.644 120.572C148.167 121.864 148.666 123.253 149.116 124.73C149.344 125.476 149.559 126.247 149.76 127.038C151.647 134.5 152.385 145.015 147.674 157.05C147.229 158.192 146.733 159.346 146.185 160.512C145.654 161.639 145.076 162.775 144.445 163.924C147.131 164.62 149.509 166.087 151.324 168.077C152.485 167.483 153.602 166.86 154.676 166.204C155.765 165.541 156.811 164.848 157.81 164.119C164.44 159.301 169.091 153.103 171.697 145.599C171.85 145.158 171.993 144.72 172.125 144.287C172.751 142.252 173.164 140.315 173.432 138.56C173.8 136.144 173.892 134.074 173.89 132.562C167.236 123.854 157.216 117.847 145.789 116.505Z" fill="#FFDEF7"/>
<path d="M142.484 128.884C142.011 127.014 141.438 125.292 140.825 123.732C140.282 122.35 139.706 121.094 139.14 119.977C138.372 118.458 137.618 117.199 136.982 116.223L115.866 116.223C116.469 117.339 117.09 118.596 117.691 119.977C118.199 121.141 118.69 122.395 119.145 123.732C119.546 124.906 119.916 126.143 120.244 127.442C122.044 134.556 122.765 144.538 118.434 155.97C117.968 157.204 117.44 158.458 116.85 159.725C116.274 160.961 115.636 162.215 114.93 163.479L135.996 163.479C136.792 162.23 137.525 160.979 138.196 159.725C138.87 158.476 139.478 157.224 140.026 155.97C143.946 147.014 144.775 137.942 142.484 128.884Z" fill="#FFDEF7"/>
<path d="M129.357 284.526C129.882 282.371 130.556 280.409 131.274 278.664C131.85 277.265 132.458 276.008 133.044 274.909C133.9 273.302 134.714 272.033 135.322 271.154L168.827 271.154L168.827 271.154L171.038 271.154C173.164 271.154 174.893 269.424 174.893 267.299C174.893 265.173 173.164 263.444 171.038 263.444L153.753 263.444L153.753 255.935L171.038 255.935C177.304 255.935 182.402 261.033 182.402 267.299C182.402 273.074 178.07 277.854 172.486 278.568C172.486 278.569 172.486 278.57 172.486 278.571C172.125 285.465 170.723 291.635 168.308 296.949C165.915 302.211 162.528 306.664 158.235 310.181C150.789 316.286 142.746 317.883 139.635 318.288C138.986 318.371 138.586 318.399 138.513 318.404L138.398 318.411L136.245 318.411C135.419 317.162 134.658 315.91 133.965 314.656C133.266 313.407 132.636 312.156 132.067 310.902C128.113 302.186 127.199 293.347 129.357 284.526ZM141.875 291.132L147.737 291.132L147.737 285.27L141.875 285.27L141.875 291.132Z" fill="#FFDEF7"/>
<path d="M62.3706 298.81C62.6735 300.044 63.0414 301.323 63.482 302.632C63.7725 303.49 64.1003 304.379 64.4758 305.29L64.4758 305.293C65.277 307.247 66.2806 309.305 67.5371 311.395C70.4482 316.244 74.7211 321.28 80.9839 325.678C82.0203 326.406 83.109 327.115 84.2579 327.803C85.3442 328.454 86.4808 329.087 87.6696 329.696C87.4844 330.604 87.3868 331.543 87.3868 332.504C87.3868 339.012 91.8244 344.506 97.8314 346.118C99.0758 340.152 104.364 335.67 110.699 335.67L126.066 335.67L126.066 338.122C126.066 345.382 120.181 351.268 112.921 351.268C120.181 351.268 126.066 357.154 126.066 364.414L126.066 366.866L110.699 366.866C103.506 366.866 97.6667 361.089 97.5582 353.923C97.5577 353.923 97.557 353.923 97.557 353.923C76.5208 351.941 60.0051 334.176 60.0051 312.629C60.0051 307.786 60.8387 303.135 62.3706 298.81Z" fill="#FFDEF7"/>
<path d="M96.6091 271.438C95.9832 272.662 95.3526 274.022 94.7542 275.506C94.2311 276.798 93.7329 278.187 93.2822 279.664C93.0544 280.409 92.8393 281.18 92.6389 281.972C90.7515 289.433 90.0132 299.949 94.7241 311.984C95.1697 313.125 95.6653 314.279 96.2134 315.446C96.7442 316.572 97.3222 317.709 97.9531 318.858C95.2672 319.554 92.8892 321.02 91.0745 323.01C89.9131 322.417 88.7966 321.794 87.7227 321.138C86.6338 320.474 85.5876 319.781 84.5888 319.053C77.9581 314.234 73.3073 308.037 70.7014 300.532C70.5487 300.092 70.4059 299.654 70.2735 299.22C69.6476 297.186 69.2347 295.248 68.9667 293.493C68.5988 291.078 68.5061 289.008 68.5087 287.496C75.1622 278.787 85.1822 272.78 96.6091 271.438Z" fill="#FFDEF7"/>
<path d="M99.9102 283.815C100.383 281.946 100.957 280.223 101.57 278.664C102.113 277.282 102.689 276.026 103.255 274.909C104.023 273.39 104.776 272.131 105.412 271.154L126.528 271.154C125.925 272.271 125.304 273.527 124.704 274.909C124.196 276.073 123.705 277.327 123.249 278.664C122.849 279.838 122.478 281.074 122.151 282.373C120.351 289.487 119.63 299.47 123.96 310.902C124.426 312.136 124.954 313.39 125.545 314.656C126.121 315.893 126.759 317.147 127.465 318.411L106.399 318.411C105.602 317.162 104.869 315.91 104.198 314.656C103.525 313.407 102.917 312.156 102.369 310.902C98.4486 301.945 97.62 292.874 99.9102 283.815Z" fill="#FFDEF7"/>
<path d="M286.955 284.526C287.48 282.371 288.153 280.409 288.872 278.664C289.447 277.265 290.056 276.008 290.642 274.909C291.498 273.302 292.311 272.033 292.919 271.154L326.424 271.154L326.424 271.154L328.636 271.154C330.761 271.154 332.491 269.424 332.491 267.299C332.491 265.173 330.761 263.444 328.636 263.444L311.35 263.444L311.35 255.935L328.635 255.935C334.902 255.935 340 261.033 340 267.299C340 273.074 335.668 277.854 330.083 278.568C330.083 278.569 330.083 278.57 330.083 278.571C329.723 285.465 328.321 291.635 325.906 296.949C323.513 302.211 320.126 306.664 315.833 310.181C308.386 316.286 300.344 317.883 297.232 318.288C296.584 318.371 296.184 318.399 296.111 318.404L295.996 318.411L293.843 318.411C293.017 317.162 292.256 315.91 291.562 314.656C290.864 313.407 290.233 312.156 289.665 310.902C285.711 302.186 284.797 293.347 286.955 284.526ZM299.472 291.132L305.335 291.132L305.335 285.27L299.472 285.27L299.472 291.132Z" fill="#FFDEF7"/>
<path d="M219.96 298.81C220.263 300.044 220.631 301.323 221.072 302.632C221.362 303.49 221.69 304.379 222.066 305.29L222.066 305.293C222.867 307.247 223.87 309.305 225.127 311.395C228.038 316.244 232.311 321.28 238.574 325.678C239.61 326.406 240.699 327.115 241.848 327.803C242.934 328.454 244.071 329.087 245.259 329.696C245.074 330.604 244.977 331.543 244.977 332.504C244.977 339.012 249.414 344.506 255.421 346.118C256.666 340.152 261.954 335.67 268.289 335.67L283.656 335.67L283.656 338.122C283.656 345.382 277.771 351.268 270.51 351.268C277.771 351.268 283.656 357.154 283.656 364.414L283.656 366.866L268.289 366.866C261.096 366.866 255.257 361.089 255.148 353.923C255.148 353.923 255.147 353.923 255.147 353.923C234.111 351.941 217.595 334.176 217.595 312.629C217.595 307.786 218.429 303.135 219.96 298.81Z" fill="#FFDEF7"/>
<path d="M254.211 271.438C253.585 272.662 252.954 274.022 252.356 275.506C251.833 276.798 251.334 278.187 250.884 279.664C250.656 280.409 250.441 281.18 250.24 281.972C248.353 289.433 247.615 299.949 252.326 311.984C252.771 313.125 253.267 314.279 253.815 315.446C254.346 316.572 254.924 317.709 255.555 318.858C252.869 319.554 250.491 321.02 248.676 323.01C247.515 322.417 246.398 321.794 245.324 321.138C244.235 320.474 243.189 319.781 242.19 319.053C235.56 314.234 230.909 308.037 228.303 300.532C228.15 300.092 228.007 299.654 227.875 299.22C227.249 297.186 226.836 295.248 226.568 293.493C226.2 291.078 226.108 289.008 226.11 287.496C232.764 278.787 242.784 272.78 254.211 271.438Z" fill="#FFDEF7"/>
<path d="M257.516 283.815C257.989 281.946 258.562 280.223 259.175 278.664C259.718 277.282 260.294 276.026 260.86 274.909C261.628 273.39 262.382 272.131 263.018 271.154L284.134 271.154C283.531 272.271 282.91 273.527 282.309 274.909C281.801 276.073 281.31 277.327 280.855 278.664C280.454 279.838 280.084 281.074 279.756 282.373C277.956 289.487 277.235 299.47 281.566 310.902C282.032 312.136 282.56 313.39 283.15 314.656C283.726 315.893 284.364 317.147 285.07 318.411L264.004 318.411C263.208 317.162 262.475 315.91 261.804 314.656C261.13 313.407 260.522 312.156 259.974 310.902C256.054 301.945 255.225 292.874 257.516 283.815Z" fill="#FFDEF7"/>
</svg>
