<svg width="74" height="97" viewBox="0 0 74 97" fill="none" xmlns="http://www.w3.org/2000/svg">
<path d="M48.6539 72.3901C49.7156 71.2319 50.8014 70.0254 51.9113 68.7707C53.0695 67.516 54.1794 66.2854 55.2411 65.079C56.3028 63.8243 57.2921 62.6419 58.209 61.532C59.1742 60.422 59.9946 59.4569 60.6702 58.6365H73.4827C70.925 61.5802 68.4156 64.4033 65.9544 67.1058C63.5415 69.76 60.8873 72.5107 57.9918 75.3579C59.4396 76.6609 60.9356 78.2293 62.4799 80.0631C64.0241 81.8487 65.5201 83.7066 66.9679 85.6369C68.4156 87.5673 69.7427 89.4976 70.9492 91.4279C72.1556 93.3582 73.169 95.1197 73.9894 96.7122H61.6112C60.8391 95.4575 59.9463 94.0821 58.9329 92.5861C57.9677 91.0418 56.9302 89.5217 55.8202 88.0257C54.7103 86.4814 53.528 85.0096 52.2733 83.6101C51.0668 82.2106 49.8603 81.0283 48.6539 80.0631V96.7122H37.8682V42.277L48.6539 40.5397V72.3901Z" fill="white"/>
<path d="M40.0028 12.2306H46.1421V37.9888H40.0028V12.2306Z" fill="white"/>
<path d="M50.9465 14.8091C50.9465 13.385 52.1009 12.2306 53.5249 12.2306H57.0857V37.9888H50.9465V14.8091Z" fill="white"/>
<path d="M31.6345 44.1281C30.2105 44.1281 29.056 42.9737 29.056 41.5496V37.9889H57.0831V41.5496C57.0831 42.9737 55.9286 44.1281 54.5046 44.1281H31.6345Z" fill="white"/>
<path d="M29.056 12.2306H32.6168C34.0409 12.2306 35.1953 13.385 35.1953 14.8091V37.9888L29.056 37.9889V12.2306Z" fill="white"/>
<path d="M0.362988 50.4033C0.931207 51.3238 17.6659 54.6043 17.6659 54.6043C17.6659 54.6043 17.851 1.11457 15.9437 0.0646025C14.0365 -0.985365 5.87683 10.987 2.86897 19.6919C-0.550077 29.5869 -0.205233 49.4829 0.362988 50.4033Z" fill="white"/>
<path d="M6.87898 48.3929L17.6407 46.6594V57.8545H30.5691V66.8105H17.6407V80.1723C17.6407 82.4354 18.0259 84.2411 18.7963 85.5893C19.6148 86.9375 21.2279 87.6116 23.6354 87.6116C24.791 87.6116 25.9707 87.5153 27.1745 87.3227C28.4264 87.082 29.558 86.769 30.5691 86.3838L32.0859 94.762C30.7858 95.2917 29.3413 95.7491 27.7523 96.1343C26.1633 96.5195 24.2132 96.7121 21.902 96.7121C18.9648 96.7121 16.5332 96.3269 14.6072 95.5565C12.6811 94.7379 11.1403 93.6305 9.9847 92.2341C8.82908 90.7896 8.01052 89.0561 7.52901 87.0338C7.09566 85.0115 6.87898 82.7725 6.87898 80.3168V48.3929Z" fill="white"/>
</svg>
