<svg width="349" height="364" viewBox="0 0 349 364" fill="none" xmlns="http://www.w3.org/2000/svg">
<path d="M340.979 3.27863L346.306 0L348.355 9.42606V22.5406L344.667 45.0812L338.929 68.0316L333.192 81.556V87.2936L329.094 96.7196L322.536 108.195L314.75 126.227L309.832 136.883L304.094 142.62L299.176 154.096L297.127 169.669L294.668 173.358H290.16L286.471 169.669L290.16 149.588L294.668 140.571L299.176 126.227L304.094 118.441L306.963 111.883L314.75 90.982L326.635 62.294L333.192 38.9337L336.47 20.9013L340.979 3.27863Z" fill="#4F976E"/>
<path d="M245.49 3.27863L250.818 0L252.867 9.42606V22.5406L249.179 45.0812L243.441 68.0316L237.704 81.556V87.2936L233.605 96.7196L227.048 108.195L219.261 126.227L214.343 136.883L208.606 142.62L203.688 154.096L201.639 169.669L199.18 173.358H194.671L190.983 169.669L194.671 149.588L199.18 140.571L203.688 126.227L208.606 118.441L211.474 111.883L219.261 90.982L231.146 62.294L237.704 38.9337L240.982 20.9013L245.49 3.27863Z" fill="#4F976E"/>
<path d="M149.998 3.27863L155.326 0L157.375 9.42606V22.5406L153.687 45.0812L147.949 68.0316L142.211 81.556V87.2936L138.113 96.7196L131.556 108.195L123.769 126.227L118.851 136.883L113.113 142.62L108.196 154.096L106.146 169.669L103.687 173.358H99.1793L95.4908 169.669L99.1793 149.588L103.687 140.571L108.196 126.227L113.113 118.441L115.982 111.883L123.769 90.982L135.654 62.294L142.211 38.9337L145.49 20.9013L149.998 3.27863Z" fill="#4F976E"/>
<path d="M54.5098 3.27863L59.8376 0L61.8867 9.42606V22.5406L58.1983 45.0812L52.4607 68.0316L46.723 81.556V87.2936L42.6248 96.7196L36.0675 108.195L28.2808 126.227L23.3628 136.883L17.6252 142.62L12.7073 154.096L10.6581 169.669L8.19913 173.358H3.69101L0.00255585 169.669L3.69101 149.588L8.19913 140.571L12.7073 126.227L17.6252 118.441L20.494 111.883L28.2808 90.982L40.1658 62.294L46.723 38.9337L50.0017 20.9013L54.5098 3.27863Z" fill="#4F976E"/>
<path d="M340.979 193.029L346.306 189.75L348.355 199.176V212.291L344.667 234.831L338.929 257.782L333.192 271.306V277.044L329.094 286.47L322.536 297.945L314.75 315.977L309.832 326.633L304.094 332.37L299.176 343.846L297.127 359.419L294.668 363.108H290.16L286.471 359.419L290.16 339.338L294.668 330.321L299.176 315.977L304.094 308.191L306.963 301.633L314.75 280.732L326.635 252.044L333.192 228.684L336.47 210.651L340.979 193.029Z" fill="#4F976E"/>
<path d="M245.49 193.029L250.818 189.75L252.867 199.176V212.291L249.179 234.831L243.441 257.782L237.704 271.306V277.044L233.605 286.47L227.048 297.945L219.261 315.977L214.343 326.633L208.606 332.37L203.688 343.846L201.639 359.419L199.18 363.108H194.671L190.983 359.419L194.671 339.338L199.18 330.321L203.688 315.977L208.606 308.191L211.474 301.633L219.261 280.732L231.146 252.044L237.704 228.684L240.982 210.651L245.49 193.029Z" fill="#4F976E"/>
<path d="M149.998 193.029L155.326 189.75L157.375 199.176V212.291L153.687 234.831L147.949 257.782L142.211 271.306V277.044L138.113 286.47L131.556 297.945L123.769 315.977L118.851 326.633L113.113 332.37L108.196 343.846L106.146 359.419L103.687 363.108H99.1793L95.4908 359.419L99.1793 339.338L103.687 330.321L108.196 315.977L113.113 308.191L115.982 301.633L123.769 280.732L135.654 252.044L142.211 228.684L145.49 210.651L149.998 193.029Z" fill="#4F976E"/>
<path d="M54.5098 193.029L59.8376 189.75L61.8867 199.176V212.291L58.1983 234.831L52.4607 257.782L46.723 271.306V277.044L42.6248 286.47L36.0675 297.945L28.2808 315.977L23.3628 326.633L17.6252 332.37L12.7073 343.846L10.6581 359.419L8.19913 363.108H3.69101L0.00255585 359.419L3.69101 339.338L8.19913 330.321L12.7073 315.977L17.6252 308.191L20.494 301.633L28.2808 280.732L40.1658 252.044L46.723 228.684L50.0017 210.651L54.5098 193.029Z" fill="#4F976E"/>
</svg>
