<svg width="408" height="384" viewBox="0 0 408 384" fill="none" xmlns="http://www.w3.org/2000/svg">
<path d="M280.396 257.314C242.593 297.711 126.318 348.94 81.3762 306.884C36.4343 264.829 79.8442 145.414 117.647 105.017C155.45 64.6195 222.528 65.964 267.47 108.02C312.412 150.075 318.199 216.917 280.396 257.314Z" fill="#FFC6A7"/>
<path d="M81.9957 306.221C110.924 333.291 255.98 282.828 280.313 256.825C304.646 230.822 296.361 135.128 267.433 108.058C238.504 80.9873 142.471 79.0625 118.139 105.065C93.8056 131.068 53.0676 279.15 81.9957 306.221Z" fill="#FFC6A7"/>
<path d="M82.619 305.558C111.547 332.628 255.902 282.34 280.235 256.337C304.567 230.335 296.328 135.167 267.399 108.097C238.471 81.0263 142.967 79.1121 118.634 105.115C94.301 131.118 53.6909 278.488 82.619 305.558Z" fill="#FFC6A7"/>
<path d="M83.2424 304.895C112.17 331.965 255.823 281.852 280.156 255.849C304.489 229.846 296.294 135.205 267.366 108.135C238.438 81.0643 143.462 79.1606 119.129 105.163C94.7964 131.166 54.3143 277.824 83.2424 304.895Z" fill="#FFC6A7"/>
<path d="M83.8697 304.232C112.798 331.302 255.748 281.364 280.081 255.361C304.414 229.358 296.265 135.244 267.337 108.174C238.409 81.1033 143.961 79.2102 119.629 105.213C95.2957 131.216 54.9416 277.162 83.8697 304.232Z" fill="#FFC6A7"/>
<path d="M84.4969 303.57C113.425 330.641 255.673 280.877 280.006 254.874C304.339 228.871 296.236 135.284 267.308 108.214C238.38 81.1432 144.461 79.2607 120.128 105.264C95.795 131.266 55.5688 276.5 84.4969 303.57Z" fill="#FFC6A7"/>
<path d="M85.1241 302.907C114.052 329.977 255.598 280.388 279.931 254.386C304.264 228.383 296.207 135.322 267.278 108.252C238.35 81.1812 144.96 79.3093 120.627 105.312C96.2943 131.315 56.196 275.836 85.1241 302.907Z" fill="#FFC6A7"/>
<path d="M85.7436 302.242C114.672 329.312 255.516 279.899 279.848 253.896C304.181 227.893 296.169 135.359 267.241 108.289C238.313 81.2182 145.452 79.3569 121.119 105.36C96.7858 131.363 56.8155 275.172 85.7436 302.242Z" fill="#FFC6A7"/>
<path d="M86.3669 301.58C115.295 328.651 255.437 279.412 279.77 253.409C304.103 227.406 296.136 135.399 267.208 108.329C238.28 81.2582 145.947 79.4075 121.614 105.41C97.2812 131.413 57.4388 274.51 86.3669 301.58Z" fill="#FFC6A7"/>
<path d="M86.9981 300.919C115.926 327.989 255.366 278.925 279.699 252.922C304.032 226.92 296.111 135.439 267.183 108.368C238.255 81.2981 146.45 79.458 122.117 105.461C97.7844 131.464 58.07 273.848 86.9981 300.919Z" fill="#FFC6A7"/>
<path d="M87.6214 300.254C116.55 327.325 255.287 278.435 279.62 252.433C303.953 226.43 296.078 135.476 267.15 108.405C238.222 81.3351 146.946 79.5056 122.613 105.508C98.2797 131.511 58.6933 273.184 87.6214 300.254Z" fill="#FFC6A7"/>
<path d="M88.2487 299.593C117.177 326.663 255.212 277.949 279.545 251.946C303.878 225.943 296.048 135.516 267.12 108.445C238.192 81.3751 147.445 79.5562 123.112 105.559C98.779 131.562 59.3206 272.522 88.2487 299.593Z" fill="#FFC6A7"/>
<path d="M88.8759 298.929C117.804 325.999 255.137 277.46 279.47 251.457C303.803 225.454 296.019 135.554 267.091 108.483C238.163 81.4131 147.944 79.6048 123.611 105.608C99.2783 131.61 59.9478 271.859 88.8759 298.929Z" fill="#FFC6A7"/>
<path d="M89.4993 298.266C118.427 325.337 255.059 276.972 279.391 250.969C303.724 224.967 295.986 135.593 267.058 108.522C238.13 81.452 148.439 79.6543 124.107 105.657C99.7737 131.66 60.5712 271.196 89.4993 298.266Z" fill="#FFC6A7"/>
<path d="M90.1265 297.603C119.055 324.673 254.984 276.484 279.317 250.481C303.649 224.478 295.957 135.631 267.029 108.56C238.101 81.49 148.939 79.7029 124.606 105.706C100.273 131.709 61.1984 270.533 90.1265 297.603Z" fill="#FFC6A7"/>
<path d="M90.7499 296.941C119.678 324.012 254.905 275.997 279.238 249.994C303.571 223.991 295.924 135.671 266.995 108.6C238.067 81.53 149.434 79.7535 125.101 105.756C100.768 131.759 61.8218 269.871 90.7499 296.941Z" fill="#FFC6A7"/>
<path d="M91.3732 296.277C120.301 323.347 254.826 275.507 279.159 249.504C303.492 223.502 295.89 135.708 266.962 108.637C238.034 81.567 149.93 79.8011 125.597 105.804C101.264 131.807 62.4451 269.206 91.3732 296.277Z" fill="#FFC6A7"/>
<path d="M91.9966 295.614C120.925 322.684 254.747 275.019 279.08 249.017C303.413 223.014 295.857 135.747 266.929 108.676C238.001 81.606 150.425 79.8506 126.092 105.853C101.759 131.856 63.0685 268.544 91.9966 295.614Z" fill="#FFC6A7"/>
<path d="M92.6239 294.951C121.552 322.022 254.672 274.532 279.005 248.529C303.338 222.526 295.828 135.786 266.9 108.715C237.972 81.6449 150.924 79.9002 126.591 105.903C102.258 131.906 63.6957 267.881 92.6239 294.951Z" fill="#FFC6A7"/>
<path d="M93.2511 294.289C122.179 321.359 254.598 274.044 278.93 248.041C303.263 222.038 295.799 135.825 266.871 108.754C237.942 81.6839 151.424 79.9498 127.091 105.953C102.758 131.955 64.323 267.218 93.2511 294.289Z" fill="#FFC6A7"/>
<path d="M93.8745 293.624C122.803 320.695 254.519 273.554 278.852 247.551C303.185 221.549 295.766 135.862 266.837 108.791C237.909 81.7209 151.919 79.9974 127.586 106C103.253 132.003 64.9464 266.554 93.8745 293.624Z" fill="#FFC6A7"/>
<path d="M94.5017 292.962C123.43 320.032 254.444 273.066 278.777 247.064C303.11 221.061 295.736 135.901 266.808 108.83C237.88 81.7599 152.418 80.0469 128.085 106.05C103.752 132.053 65.5736 265.891 94.5017 292.962Z" fill="#FFC6A7"/>
<path d="M95.1212 292.299C124.049 319.369 254.361 272.579 278.694 246.576C303.027 220.573 295.699 135.94 266.771 108.869C237.843 81.7989 152.91 80.0965 128.577 106.099C104.244 132.102 66.1931 265.229 95.1212 292.299Z" fill="#FFC6A7"/>
<path d="M95.7523 291.636C124.68 318.707 254.29 272.091 278.623 246.088C302.956 220.085 295.674 135.978 266.746 108.908C237.818 81.8378 153.413 80.1461 129.08 106.149C104.747 132.152 66.8242 264.566 95.7523 291.636Z" fill="#FFC6A7"/>
<path d="M96.3757 290.974C125.304 318.044 254.211 271.603 278.544 245.601C302.877 219.598 295.641 136.017 266.712 108.947C237.784 81.8768 153.908 80.1956 129.575 106.198C105.243 132.201 67.4476 263.903 96.3757 290.974Z" fill="#DFB1B7"/>
<path d="M97.0068 290.312C125.935 317.382 254.14 271.117 278.473 245.114C302.806 219.111 295.615 136.057 266.687 108.987C237.759 81.9168 154.411 80.2462 130.079 106.249C105.746 132.252 68.0787 263.242 97.0068 290.312Z" fill="#DFAFB6"/>
<path d="M97.6302 289.649C126.558 316.719 254.062 270.628 278.395 244.625C302.727 218.622 295.582 136.095 266.654 109.025C237.726 81.9547 154.907 80.2948 130.574 106.298C106.241 132.3 68.702 262.578 97.6302 289.649Z" fill="#E0AEB5"/>
<path d="M98.2535 288.986C127.182 316.056 253.983 270.14 278.316 244.137C302.649 218.135 295.549 136.134 266.621 109.064C237.693 81.9937 155.402 80.3443 131.069 106.347C106.736 132.35 69.3254 261.916 98.2535 288.986Z" fill="#E0ACB3"/>
<path d="M98.873 288.322C127.801 315.393 253.9 269.651 278.233 243.649C302.566 217.646 295.512 136.172 266.584 109.102C237.656 82.0317 155.894 80.3929 131.561 106.396C107.228 132.399 69.9448 261.252 98.873 288.322Z" fill="#E0AAB2"/>
<path d="M99.5042 287.659C128.432 314.729 253.829 269.163 278.162 243.16C302.495 217.157 295.486 136.21 266.558 109.14C237.63 82.0697 156.397 80.4415 132.064 106.444C107.731 132.447 70.576 260.588 99.5042 287.659Z" fill="#E0A9B1"/>
<path d="M100.127 286.996C129.056 314.066 253.75 268.675 278.083 242.672C302.416 216.669 295.453 136.249 266.525 109.179C237.597 82.1087 156.892 80.4911 132.559 106.494C108.227 132.497 71.1994 259.926 100.127 286.996Z" fill="#E1A7AF"/>
<path d="M100.755 286.335C129.683 313.405 253.676 268.188 278.008 242.185C302.341 216.183 295.424 136.289 266.496 109.219C237.568 82.1486 157.392 80.5416 133.059 106.544C108.726 132.547 71.8266 259.264 100.755 286.335Z" fill="#E1A5AE"/>
<path d="M101.378 285.671C130.306 312.741 253.597 267.699 277.93 241.697C302.263 215.694 295.391 136.327 266.463 109.257C237.535 82.1866 157.887 80.5902 133.554 106.593C109.221 132.596 72.4499 258.601 101.378 285.671Z" fill="#E1A4AC"/>
<path d="M102.001 285.008C130.93 312.079 253.518 267.212 277.851 241.209C302.184 215.206 295.358 136.366 266.43 109.296C237.501 82.2256 158.382 80.6397 134.05 106.643C109.717 132.645 73.0733 257.938 102.001 285.008Z" fill="#E1A2AB"/>
<path d="M102.629 284.344C131.557 311.414 253.443 266.722 277.776 240.719C302.109 214.716 295.328 136.403 266.4 109.333C237.472 82.2626 158.882 80.6874 134.549 106.69C110.216 132.693 73.7006 257.273 102.629 284.344Z" fill="#E2A0AA"/>
<path d="M103.252 283.679C132.18 310.75 253.364 266.232 277.697 240.23C302.03 214.227 295.295 136.44 266.367 109.37C237.439 82.2996 159.377 80.735 135.044 106.738C110.711 132.741 74.3239 256.609 103.252 283.679Z" fill="#E29FA8"/>
<path d="M103.879 283.019C132.807 310.089 253.289 265.747 277.622 239.744C301.955 213.741 295.266 136.481 266.338 109.411C237.41 82.3405 159.876 80.7865 135.543 106.789C111.211 132.792 74.9512 255.948 103.879 283.019Z" fill="#E29DA7"/>
<path d="M104.507 282.357C133.435 309.427 253.215 265.26 277.548 239.257C301.88 213.254 295.237 136.521 266.309 109.451C237.38 82.3805 160.376 80.837 136.043 106.84C111.71 132.843 75.5784 255.287 104.507 282.357Z" fill="#E39BA5"/>
<path d="M105.13 281.692C134.058 308.763 253.136 264.77 277.469 238.767C301.802 212.765 295.203 136.558 266.275 109.488C237.347 82.4175 160.871 80.8846 136.538 106.887C112.205 132.89 76.2018 254.622 105.13 281.692Z" fill="#E39AA4"/>
<path d="M105.757 281.031C134.685 308.101 253.061 264.283 277.394 238.281C301.727 212.278 295.174 136.598 266.246 109.528C237.318 82.4574 161.37 80.9352 137.037 106.938C112.705 132.941 76.829 253.96 105.757 281.031Z" fill="#E398A3"/>
<path d="M106.377 280.366C135.305 307.436 252.978 263.794 277.311 237.791C301.644 211.788 295.137 136.635 266.209 109.565C237.281 82.4945 161.862 80.9828 137.529 106.986C113.196 132.988 77.4485 253.296 106.377 280.366Z" fill="#E396A1"/>
<path d="M107.008 279.704C135.936 306.775 252.907 263.307 277.24 237.304C301.573 211.301 295.112 136.675 266.184 109.605C237.256 82.5344 162.365 81.0333 138.032 107.036C113.699 133.039 78.0797 252.634 107.008 279.704Z" fill="#E495A0"/>
<path d="M107.631 279.041C136.559 306.111 252.829 262.818 277.161 236.816C301.494 210.813 295.079 136.713 266.15 109.643C237.222 82.5724 162.86 81.0819 138.528 107.085C114.195 133.088 78.703 251.971 107.631 279.041Z" fill="#E4939E"/>
<path d="M108.254 278.378C137.183 305.449 252.75 262.331 277.083 236.328C301.416 210.325 295.045 136.752 266.117 109.682C237.189 82.6114 163.356 81.1315 139.023 107.134C114.69 133.137 79.3263 251.308 108.254 278.378Z" fill="#E4919D"/>
<path d="M108.882 277.715C137.81 304.785 252.675 261.842 277.008 235.839C301.341 209.836 295.016 136.79 266.088 109.72C237.16 82.6494 163.855 81.1801 139.522 107.183C115.189 133.186 79.9536 250.644 108.882 277.715Z" fill="#E4909C"/>
<path d="M109.509 277.053C138.437 304.123 252.6 261.355 276.933 235.352C301.266 209.349 294.987 136.83 266.059 109.76C237.131 82.6893 164.354 81.2306 140.022 107.233C115.689 133.236 80.5809 249.983 109.509 277.053Z" fill="#E58E9A"/>
<path d="M110.132 276.388C139.06 303.459 252.521 260.865 276.854 234.863C301.187 208.86 294.954 136.867 266.026 109.797C237.097 82.7263 164.85 81.2782 140.517 107.281C116.184 133.284 81.2042 249.318 110.132 276.388Z" fill="#E58C99"/>
<path d="M110.76 275.728C139.688 302.798 252.446 260.38 276.779 234.377C301.112 208.374 294.924 136.908 265.996 109.838C237.068 82.7672 165.349 81.3297 141.016 107.333C116.683 133.335 81.8315 248.657 110.76 275.728Z" fill="#E58B97"/>
<path d="M111.379 275.063C140.307 302.134 252.364 259.89 276.697 233.887C301.029 207.884 294.887 136.945 265.959 109.875C237.031 82.8043 165.841 81.3773 141.508 107.38C117.175 133.383 82.4509 247.993 111.379 275.063Z" fill="#E58996"/>
<path d="M112.006 274.399C140.934 301.469 252.289 259.4 276.622 233.397C300.955 207.395 294.858 136.982 265.93 109.912C237.002 82.8413 166.34 81.425 142.007 107.428C117.674 133.431 83.0781 247.328 112.006 274.399Z" fill="#E68795"/>
<path d="M112.634 273.737C141.562 300.807 252.214 258.914 276.547 232.911C300.88 206.908 294.829 137.022 265.901 109.952C236.973 82.8812 166.839 81.4755 142.506 107.478C118.173 133.481 83.7054 246.667 112.634 273.737Z" fill="#E68693"/>
<path d="M113.265 273.074C142.193 300.145 252.143 258.426 276.476 232.423C300.809 206.42 294.803 137.061 265.875 109.991C236.947 82.9202 167.342 81.5251 143.009 107.528C118.677 133.531 84.3366 246.004 113.265 273.074Z" fill="#E68492"/>
<path d="M113.888 272.413C142.816 299.483 252.064 257.939 276.397 231.936C300.73 205.933 294.77 137.101 265.842 110.03C236.914 82.9601 167.838 81.5756 143.505 107.578C119.172 133.581 84.9599 245.342 113.888 272.413Z" fill="#E68390"/>
<path d="M114.507 271.75C143.436 298.821 251.981 257.451 276.314 231.449C300.647 205.446 294.733 137.14 265.805 110.069C236.877 82.9991 168.329 81.6252 143.996 107.628C119.663 133.631 85.5794 244.68 114.507 271.75Z" fill="#E7818F"/>
<path d="M115.131 271.086C144.059 298.156 251.903 256.962 276.236 230.959C300.568 204.956 294.7 137.177 265.772 110.106C236.844 83.0361 168.825 81.6728 144.492 107.676C120.159 133.678 86.2027 244.015 115.131 271.086Z" fill="#E77F8E"/>
<path d="M115.762 270.423C144.69 297.493 251.832 256.474 276.165 230.471C300.497 204.468 294.675 137.216 265.746 110.145C236.818 83.0751 169.328 81.7223 144.995 107.725C120.662 133.728 86.8339 243.353 115.762 270.423Z" fill="#E77E8C"/>
<path d="M116.385 269.76C145.313 296.831 251.753 255.986 276.086 229.983C300.419 203.981 294.641 137.255 265.713 110.184C236.785 83.1141 169.823 81.7719 145.49 107.775C121.157 133.777 87.4572 242.69 116.385 269.76Z" fill="#E77C8B"/>
<path d="M117.009 269.098C145.937 296.168 251.674 255.498 276.007 229.496C300.34 203.493 294.608 137.294 265.68 110.223C236.752 83.153 170.319 81.8215 145.986 107.824C121.653 133.827 88.0805 242.027 117.009 269.098Z" fill="#E87A89"/>
<path d="M117.636 268.433C146.564 295.504 251.599 255.009 275.932 229.006C300.265 203.003 294.579 137.331 265.651 110.26C236.723 83.19 170.818 81.8691 146.485 107.872C122.152 133.875 88.7078 241.363 117.636 268.433Z" fill="#E87988"/>
<path d="M118.259 267.773C147.187 294.843 251.521 254.523 275.853 228.52C300.186 202.517 294.546 137.372 265.618 110.301C236.69 83.231 171.313 81.9206 146.98 107.923C122.647 133.926 89.3312 240.702 118.259 267.773Z" fill="#E87787"/>
<path d="M118.887 267.108C147.815 294.178 251.446 254.033 275.779 228.03C300.111 202.028 294.517 137.409 265.588 110.338C236.66 83.268 171.813 81.9682 147.48 107.971C123.147 133.974 89.9584 240.038 118.887 267.108Z" fill="#E87585"/>
<path d="M119.51 266.446C148.438 293.517 251.367 253.546 275.7 227.544C300.033 201.541 294.483 137.449 265.555 110.378C236.627 83.3079 172.308 82.0187 147.975 108.022C123.642 134.024 90.5818 239.376 119.51 266.446Z" fill="#E97484"/>
<path d="M120.137 265.781C149.065 292.851 251.292 253.056 275.625 227.053C299.958 201.05 294.454 137.485 265.526 110.414C236.598 83.344 172.807 82.0654 148.474 108.068C124.141 134.071 91.209 238.71 120.137 265.781Z" fill="#E97282"/>
<path d="M120.764 265.12C149.692 292.191 251.217 252.57 275.55 226.567C299.883 200.564 294.425 137.526 265.497 110.455C236.569 83.3849 173.307 82.1169 148.974 108.12C124.641 134.123 91.8363 238.05 120.764 265.12Z" fill="#E97081"/>
<path d="M121.388 264.457C150.316 291.527 251.138 252.081 275.471 226.079C299.804 200.076 294.392 137.564 265.463 110.493C236.535 83.4229 173.802 82.1655 149.469 108.168C125.136 134.171 92.4596 237.386 121.388 264.457Z" fill="#E96F80"/>
<path d="M122.011 263.793C150.939 290.863 251.06 251.593 275.392 225.59C299.725 199.587 294.358 137.602 265.43 110.531C236.502 83.4609 174.297 82.2141 149.964 108.217C125.632 134.22 93.083 236.723 122.011 263.793Z" fill="#EA6D7E"/>
<path d="M122.634 263.13C151.563 290.201 250.981 251.105 275.314 225.102C299.647 199.099 294.325 137.641 265.397 110.57C236.469 83.4999 174.793 82.2636 150.46 108.266C126.127 134.269 93.7063 236.06 122.634 263.13Z" fill="#EA6B7D"/>
<path d="M123.262 262.468C152.19 289.538 250.906 250.617 275.239 224.614C299.572 198.612 294.296 137.679 265.368 110.609C236.44 83.5388 175.292 82.3132 150.959 108.316C126.626 134.319 94.3335 235.397 123.262 262.468Z" fill="#EA6A7B"/>
<path d="M123.889 261.807C152.817 288.877 250.831 250.131 275.164 224.129C299.497 198.126 294.267 137.72 265.339 110.65C236.41 83.5797 175.791 82.3647 151.458 108.368C127.125 134.37 94.9608 234.737 123.889 261.807Z" fill="#EB687A"/>
<path d="M124.512 261.143C153.44 288.213 250.752 249.642 275.085 223.639C299.418 197.636 294.234 137.757 265.305 110.687C236.377 83.6168 176.287 82.4123 151.954 108.415C127.621 134.418 95.5842 234.072 124.512 261.143Z" fill="#EB6679"/>
<path d="M125.14 260.478C154.068 287.548 250.677 249.152 275.01 223.149C299.343 197.146 294.204 137.794 265.276 110.724C236.348 83.6538 176.786 82.4599 152.453 108.463C128.12 134.466 96.2114 233.408 125.14 260.478Z" fill="#EB6577"/>
<path d="M125.767 259.816C154.695 286.887 250.602 248.665 274.935 222.662C299.268 196.66 294.175 137.834 265.247 110.764C236.319 83.6937 177.285 82.5105 152.952 108.513C128.619 134.516 96.8387 232.746 125.767 259.816Z" fill="#EB6376"/>
<path d="M126.386 259.153C155.314 286.223 250.52 248.177 274.853 222.174C299.186 196.171 294.138 137.872 265.21 110.802C236.282 83.7317 177.777 82.5591 153.444 108.562C129.111 134.565 97.4581 232.082 126.386 259.153Z" fill="#EC6174"/>
<path d="M127.01 258.488C155.938 285.559 250.441 247.687 274.774 221.684C299.107 195.681 294.105 137.909 265.177 110.839C236.249 83.7687 178.272 82.6067 153.939 108.609C129.606 134.612 98.0815 231.418 127.01 258.488Z" fill="#EC6073"/>
<path d="M127.637 257.827C156.565 284.897 250.366 247.2 274.699 221.197C299.032 195.195 294.075 137.949 265.147 110.879C236.219 83.8087 178.771 82.6572 154.439 108.66C130.106 134.663 98.7087 230.756 127.637 257.827Z" fill="#EC5E72"/>
<path d="M128.264 257.165C157.192 284.235 250.291 246.713 274.624 220.711C298.957 194.708 294.046 137.989 265.118 110.919C236.19 83.8486 179.271 82.7078 154.938 108.711C130.605 134.713 99.336 230.095 128.264 257.165Z" fill="#EC5C70"/>
<path d="M128.891 256.5C157.819 283.571 250.216 246.224 274.549 220.221C298.882 194.218 294.017 138.026 265.089 110.956C236.161 83.8856 179.77 82.7554 155.437 108.758C131.104 134.761 99.9632 229.43 128.891 256.5Z" fill="#ED5B6F"/>
<path d="M129.519 255.839C158.447 282.909 250.141 245.737 274.474 219.734C298.807 193.731 293.988 138.066 265.06 110.996C236.131 83.9256 180.269 82.8059 155.936 108.809C131.603 134.812 100.59 228.768 129.519 255.839Z" fill="#ED596E"/>
<path d="M130.142 255.173C159.07 282.243 250.063 245.246 274.396 219.243C298.728 193.241 293.954 138.102 265.026 111.032C236.098 83.9616 180.765 82.8525 156.432 108.855C132.099 134.858 101.214 228.103 130.142 255.173Z" fill="#ED576C"/>
<path d="M130.765 254.513C159.693 281.583 249.984 244.761 274.317 218.758C298.65 192.755 293.921 138.143 264.993 111.073C236.065 84.0026 181.26 82.9041 156.927 108.907C132.594 134.91 101.837 227.442 130.765 254.513Z" fill="#ED566B"/>
<path d="M131.389 253.849C160.317 280.919 249.905 244.272 274.238 218.269C298.571 192.266 293.888 138.181 264.96 111.111C236.032 84.0405 181.755 82.9527 157.423 108.955C133.09 134.958 102.461 226.779 131.389 253.849Z" fill="#EE5469"/>
<path d="M132.012 253.187C160.94 280.258 249.826 243.785 274.159 217.782C298.492 191.779 293.855 138.221 264.927 111.151C235.999 84.0805 182.251 83.0032 157.918 109.006C133.585 135.009 103.084 226.117 132.012 253.187Z" fill="#EE5268"/>
<path d="M132.643 252.523C161.571 279.593 249.755 243.295 274.088 217.293C298.421 191.29 293.83 138.258 264.901 111.188C235.973 84.1175 182.754 83.0508 158.421 109.054C134.088 135.056 103.715 225.452 132.643 252.523Z" fill="#EE5167"/>
<path d="M133.266 251.861C162.195 278.931 249.677 242.809 274.01 216.806C298.342 190.803 293.796 138.298 264.868 111.228C235.94 84.1574 183.249 83.1013 158.917 109.104C134.584 135.107 104.338 224.791 133.266 251.861Z" fill="#EE4F65"/>
<path d="M133.894 251.199C162.822 278.27 249.602 242.322 273.935 216.319C298.268 190.316 293.767 138.338 264.839 111.268C235.911 84.1974 183.749 83.1519 159.416 109.155C135.083 135.157 104.966 224.129 133.894 251.199Z" fill="#EF4D64"/>
<path d="M134.517 250.535C163.445 277.605 249.523 241.832 273.856 215.829C298.189 189.827 293.734 138.375 264.806 111.305C235.878 84.2344 184.244 83.1995 159.911 109.202C135.578 135.205 105.589 223.465 134.517 250.535Z" fill="#EF4C62"/>
<path d="M135.14 249.871C164.069 276.942 249.444 241.343 273.777 215.341C298.11 189.338 293.701 138.413 264.773 111.343C235.845 84.2724 184.739 83.2481 160.407 109.251C136.074 135.254 106.212 222.801 135.14 249.871Z" fill="#EF4A61"/>
<path d="M135.772 249.21C164.7 276.28 249.373 240.857 273.706 214.854C298.039 188.851 293.675 138.453 264.747 111.383C235.819 84.3124 185.243 83.2986 160.91 109.301C136.577 135.304 106.844 222.139 135.772 249.21Z" fill="#EF4860"/>
<path d="M136.391 248.545C165.319 275.615 249.291 240.367 273.623 214.364C297.956 188.361 293.638 138.49 264.71 111.42C235.782 84.3494 185.734 83.3462 161.401 109.349C137.068 135.352 107.463 221.475 136.391 248.545Z" fill="#F0475E"/>
<path d="M137.022 247.882C165.95 274.953 249.22 239.879 273.552 213.877C297.885 187.874 293.613 138.529 264.685 111.459C235.757 84.3883 186.237 83.3958 161.904 109.399C137.572 135.401 108.094 220.812 137.022 247.882Z" fill="#F0455D"/>
<path d="M137.642 247.22C166.57 274.29 249.137 239.392 273.47 213.389C297.803 187.386 293.576 138.568 264.648 111.498C235.72 84.4273 186.729 83.4454 162.396 109.448C138.063 135.451 108.714 220.15 137.642 247.22Z" fill="#F0435B"/>
<path d="M138.269 246.557C167.197 273.628 249.062 238.904 273.395 212.901C297.728 186.898 293.547 138.607 264.618 111.537C235.69 84.4663 187.228 83.4949 162.895 109.498C138.562 135.501 109.341 219.487 138.269 246.557Z" fill="#F0425A"/>
<path d="M138.896 245.893C167.824 272.963 248.987 238.414 273.32 212.411C297.653 186.409 293.517 138.644 264.589 111.574C235.661 84.5033 187.727 83.5425 163.395 109.545C139.062 135.548 109.968 218.822 138.896 245.893Z" fill="#F14059"/>
<path d="M139.52 245.231C168.448 272.301 248.908 237.927 273.241 211.925C297.574 185.922 293.484 138.684 264.556 111.614C235.628 84.5432 188.223 83.5931 163.89 109.596C139.557 135.599 110.591 218.161 139.52 245.231Z" fill="#F13E57"/>
<path d="M140.143 244.567C169.071 271.638 248.83 237.439 273.162 211.436C297.495 185.433 293.451 138.722 264.523 111.652C235.595 84.5812 188.718 83.6417 164.385 109.644C140.052 135.647 111.215 217.497 140.143 244.567Z" fill="#F13D56"/>
<path d="M140.774 243.907C169.702 270.977 248.759 236.953 273.092 210.95C297.424 184.947 293.426 138.763 264.497 111.693C235.569 84.6222 189.221 83.6932 164.889 109.696C140.556 135.699 111.846 216.836 140.774 243.907Z" fill="#F13B54"/>
<path d="M141.397 243.242C170.325 270.313 248.68 236.463 273.013 210.46C297.346 184.458 293.392 138.8 264.464 111.73C235.536 84.6592 189.717 83.7408 165.384 109.744C141.051 135.746 112.469 216.172 141.397 243.242Z" fill="#F23953"/>
<path d="M142.021 242.58C170.949 269.65 248.601 235.975 272.934 209.973C297.267 183.97 293.359 138.839 264.431 111.768C235.503 84.6981 190.212 83.7904 165.879 109.793C141.546 135.796 113.093 215.509 142.021 242.58Z" fill="#F23852"/>
<path d="M142.644 241.915C171.572 268.985 248.522 235.486 272.855 209.483C297.188 183.48 293.326 138.876 264.398 111.805C235.47 84.7352 190.708 83.838 166.375 109.841C142.042 135.844 113.716 214.845 142.644 241.915Z" fill="#F23650"/>
<path d="M143.271 241.254C172.199 268.325 248.447 235 272.78 208.997C297.113 182.994 293.297 138.917 264.369 111.846C235.441 84.7761 191.207 83.8895 166.874 109.892C142.541 135.895 114.343 214.184 143.271 241.254Z" fill="#F2344F"/>
<path d="M143.899 240.59C172.827 267.66 248.373 234.51 272.705 208.508C297.038 182.505 293.268 138.954 264.339 111.883C235.411 84.8131 191.706 83.9371 167.373 109.94C143.04 135.943 114.97 213.52 143.899 240.59Z" fill="#F3334D"/>
<path d="M272.627 208.022C248.294 234.025 173.45 267 144.522 239.929C115.594 212.859 143.536 135.994 167.869 109.991C192.202 83.9886 235.378 84.854 264.306 111.924C293.234 138.995 296.96 182.019 272.627 208.022Z" fill="#F3314C"/>
<path d="M245.083 99.4092L253.471 110.789L250.365 131.318L265.201 125.785L275.27 131.198L284.974 154.442L291.217 149.165L305.873 165.382L292.137 143.083L304.557 153.517L325.846 156.738L339.027 167.288L330.338 152.752L305.823 145.154L302.457 131.423L322.685 131.373L323.49 126.051L291.072 114.145L285.309 100.83L286.805 90.9458L283.229 63.1841L275.651 72.1479L263.535 90.5355L250.72 62.1536L235.029 52.7796L243.627 78.1903L234.503 76.8097L216.506 56.9763L203.856 48.0625L215.585 63.0588L225.219 81.6266L203.515 76.0092L216.881 90.4753L245.083 99.4092Z" fill="#4D772D"/>
<ellipse cx="142.612" cy="133.529" rx="5.63496" ry="13.7743" transform="rotate(28.5753 142.612 133.529)" fill="#730212"/>
<ellipse cx="115.947" cy="188.802" rx="5.63496" ry="13.7743" transform="rotate(28.5753 115.947 188.802)" fill="#730212"/>
<ellipse cx="126.147" cy="229.215" rx="5.63496" ry="13.7743" transform="rotate(28.5753 126.147 229.215)" fill="#730212"/>
<ellipse cx="149.283" cy="178.838" rx="5.63496" ry="13.7743" transform="rotate(28.5753 149.283 178.838)" fill="#730212"/>
<ellipse cx="176.99" cy="132.733" rx="5.63496" ry="13.7743" transform="rotate(28.5753 176.99 132.733)" fill="#730212"/>
<ellipse cx="5.63496" cy="13.7743" rx="5.63496" ry="13.7743" transform="matrix(-0.535467 -0.844556 -0.844556 0.535467 270.396 240.218)" fill="#730212"/>
<ellipse cx="5.63496" cy="13.7743" rx="5.63496" ry="13.7743" transform="matrix(-0.535467 -0.844556 -0.844556 0.535467 217.017 270.482)" fill="#730212"/>
<ellipse cx="5.63496" cy="13.7743" rx="5.63496" ry="13.7743" transform="matrix(-0.535467 -0.844556 -0.844556 0.535467 176.017 262.982)" fill="#730212"/>
<ellipse cx="5.63496" cy="13.7743" rx="5.63496" ry="13.7743" transform="matrix(-0.535467 -0.844556 -0.844556 0.535467 224.751 236.561)" fill="#730212"/>
<ellipse cx="5.63496" cy="13.7743" rx="5.63496" ry="13.7743" transform="matrix(-0.535467 -0.844556 -0.844556 0.535467 268.912 205.859)" fill="#730212"/>
<ellipse cx="5.63496" cy="13.7743" rx="5.63496" ry="13.7743" transform="matrix(-0.733232 -0.679978 -0.679978 0.733232 197.013 203.14)" fill="#730212"/>
<ellipse cx="5.63496" cy="13.7743" rx="5.63496" ry="13.7743" transform="matrix(-0.733232 -0.679978 -0.679978 0.733232 231.88 162.185)" fill="#730212"/>
</svg>
