<svg width="260" height="278" viewBox="0 0 260 278" fill="none" xmlns="http://www.w3.org/2000/svg">
<ellipse cx="54.1123" cy="140.324" rx="31.0378" ry="41.2903" transform="rotate(-15.7512 54.1123 140.324)" fill="#F53232"/>
<ellipse cx="122.081" cy="121.981" rx="120.444" ry="120.545" transform="rotate(-89.2649 122.081 121.981)" fill="#EEE5D2"/>
<ellipse cx="122.91" cy="123.114" rx="119.55" ry="119.753" transform="rotate(-88.5297 122.91 123.114)" fill="#EEE3D1"/>
<ellipse cx="123.684" cy="124.246" rx="118.656" ry="118.96" transform="rotate(-87.7946 123.684 124.246)" fill="#EEE2CF"/>
<ellipse cx="124.432" cy="125.372" rx="117.762" ry="118.168" transform="rotate(-87.0595 124.432 125.372)" fill="#EEE0CE"/>
<ellipse cx="125.145" cy="126.492" rx="116.868" ry="117.375" transform="rotate(-86.3243 125.145 126.492)" fill="#EEDECC"/>
<ellipse cx="125.793" cy="127.623" rx="115.974" ry="116.583" transform="rotate(-85.5892 125.793 127.623)" fill="#EEDCCA"/>
<ellipse cx="126.434" cy="128.725" rx="115.079" ry="115.79" transform="rotate(-84.854 126.434 128.725)" fill="#EEDAC9"/>
<ellipse cx="126.983" cy="129.846" rx="114.185" ry="114.997" transform="rotate(-84.1189 126.983 129.846)" fill="#EFD9C7"/>
<ellipse cx="127.537" cy="130.942" rx="113.291" ry="114.205" transform="rotate(-83.3838 127.537 130.942)" fill="#EFD7C6"/>
<ellipse cx="128.018" cy="132.044" rx="112.397" ry="113.412" transform="rotate(-82.6486 128.018 132.044)" fill="#EFD5C4"/>
<ellipse cx="128.486" cy="133.134" rx="111.503" ry="112.62" transform="rotate(-81.9135 128.486 133.134)" fill="#EFD3C2"/>
<ellipse cx="128.893" cy="134.214" rx="110.609" ry="111.827" transform="rotate(-81.1784 128.893 134.214)" fill="#EFD1C1"/>
<ellipse cx="129.256" cy="135.295" rx="109.715" ry="111.035" transform="rotate(-80.4432 129.256 135.295)" fill="#EFD0BF"/>
<ellipse cx="129.594" cy="136.361" rx="108.821" ry="110.242" transform="rotate(-79.7081 129.594 136.361)" fill="#EFCEBE"/>
<ellipse cx="129.893" cy="137.411" rx="107.927" ry="109.45" transform="rotate(-78.973 129.893 137.411)" fill="#EFCCBC"/>
<ellipse cx="130.147" cy="138.454" rx="107.033" ry="108.657" transform="rotate(-78.2378 130.147 138.454)" fill="#EFCABA"/>
<ellipse cx="130.363" cy="139.493" rx="106.139" ry="107.865" transform="rotate(-77.5027 130.363 139.493)" fill="#EFC8B9"/>
<ellipse cx="130.519" cy="140.518" rx="105.245" ry="107.072" transform="rotate(-76.7676 130.519 140.518)" fill="#EFC7B7"/>
<ellipse cx="130.656" cy="141.525" rx="104.351" ry="106.279" transform="rotate(-76.0324 130.656 141.525)" fill="#EFC5B5"/>
<ellipse cx="130.763" cy="142.521" rx="103.457" ry="105.487" transform="rotate(-75.2973 130.763 142.521)" fill="#EFC3B4"/>
<ellipse cx="130.824" cy="143.503" rx="102.563" ry="104.694" transform="rotate(-74.5621 130.824 143.503)" fill="#EFC1B2"/>
<ellipse cx="130.843" cy="144.476" rx="101.669" ry="103.902" transform="rotate(-73.827 130.843 144.476)" fill="#F0C0B1"/>
<ellipse cx="130.813" cy="145.434" rx="100.774" ry="103.109" transform="rotate(-73.0919 130.813 145.434)" fill="#F0BEAF"/>
<ellipse cx="130.773" cy="146.367" rx="99.8805" ry="102.317" transform="rotate(-72.3567 130.773 146.367)" fill="#F0BCAD"/>
<ellipse cx="130.68" cy="147.298" rx="98.9864" ry="101.524" transform="rotate(-71.6216 130.68 147.298)" fill="#F0BAAC"/>
<ellipse cx="130.544" cy="148.203" rx="98.0923" ry="100.732" transform="rotate(-70.8865 130.544 148.203)" fill="#F0B8AA"/>
<ellipse cx="130.395" cy="149.099" rx="97.1983" ry="99.9391" transform="rotate(-70.1513 130.395 149.099)" fill="#F0B7A9"/>
<ellipse cx="130.183" cy="149.975" rx="96.3042" ry="99.1464" transform="rotate(-69.4162 130.183 149.975)" fill="#F0B5A7"/>
<ellipse cx="129.963" cy="150.822" rx="95.4102" ry="98.354" transform="rotate(-68.681 129.963 150.822)" fill="#F0B3A5"/>
<ellipse cx="129.689" cy="151.662" rx="94.5161" ry="97.5614" transform="rotate(-67.9459 129.689 151.662)" fill="#F0B1A4"/>
<ellipse cx="129.389" cy="152.485" rx="93.622" ry="96.7688" transform="rotate(-67.2107 129.389 152.485)" fill="#F0AFA2"/>
<ellipse cx="129.046" cy="153.283" rx="92.728" ry="95.9763" transform="rotate(-66.4756 129.046 153.283)" fill="#F0AEA1"/>
<ellipse cx="128.674" cy="154.059" rx="91.8339" ry="95.1837" transform="rotate(-65.7405 128.674 154.059)" fill="#F0AC9F"/>
<ellipse cx="128.273" cy="154.819" rx="90.9399" ry="94.3912" transform="rotate(-65.0053 128.273 154.819)" fill="#F0AA9D"/>
<ellipse cx="127.84" cy="155.554" rx="90.0458" ry="93.5986" transform="rotate(-64.2702 127.84 155.554)" fill="#F0A89C"/>
<ellipse cx="127.37" cy="156.268" rx="89.1517" ry="92.8061" transform="rotate(-63.5351 127.37 156.268)" fill="#F0A69A"/>
<ellipse cx="126.864" cy="156.966" rx="88.2576" ry="92.0135" transform="rotate(-62.7999 126.864 156.966)" fill="#F1A599"/>
<ellipse cx="126.34" cy="157.632" rx="87.3636" ry="91.221" transform="rotate(-62.0648 126.34 157.632)" fill="#F1A397"/>
<ellipse cx="125.761" cy="158.288" rx="86.4696" ry="90.4285" transform="rotate(-61.3297 125.761 158.288)" fill="#F1A195"/>
<ellipse cx="125.175" cy="158.906" rx="85.5755" ry="89.6359" transform="rotate(-60.5945 125.175 158.906)" fill="#F19F94"/>
<ellipse cx="124.571" cy="159.506" rx="84.6814" ry="88.8434" transform="rotate(-59.8594 124.571 159.506)" fill="#F19D92"/>
<ellipse cx="123.926" cy="160.078" rx="83.7873" ry="88.0507" transform="rotate(-59.1243 123.926 160.078)" fill="#F19C91"/>
<ellipse cx="123.217" cy="160.634" rx="82.8933" ry="87.2582" transform="rotate(-58.3891 123.217 160.634)" fill="#F19A8F"/>
<ellipse cx="122.527" cy="161.158" rx="81.9993" ry="86.4657" transform="rotate(-57.654 122.527 161.158)" fill="#F1988D"/>
<ellipse cx="121.789" cy="161.659" rx="81.1052" ry="85.6732" transform="rotate(-56.9189 121.789 161.659)" fill="#F1968C"/>
<ellipse cx="121.032" cy="162.13" rx="80.2111" ry="84.8806" transform="rotate(-56.1837 121.032 162.13)" fill="#F1948A"/>
<ellipse cx="120.225" cy="162.577" rx="79.3171" ry="84.088" transform="rotate(-55.4486 120.225 162.577)" fill="#F19388"/>
<ellipse cx="119.415" cy="163.004" rx="78.423" ry="83.2955" transform="rotate(-54.7134 119.415 163.004)" fill="#F19187"/>
<ellipse cx="118.568" cy="163.395" rx="77.5289" ry="82.5029" transform="rotate(-53.9783 118.568 163.395)" fill="#F18F85"/>
<ellipse cx="117.712" cy="163.758" rx="76.6349" ry="81.7104" transform="rotate(-53.2432 117.712 163.758)" fill="#F18D84"/>
<ellipse cx="116.823" cy="164.095" rx="75.7408" ry="80.9178" transform="rotate(-52.508 116.823 164.095)" fill="#F28B82"/>
<ellipse cx="115.906" cy="164.405" rx="74.8468" ry="80.1253" transform="rotate(-51.7729 115.906 164.405)" fill="#F28A80"/>
<ellipse cx="114.958" cy="164.686" rx="73.9527" ry="79.3327" transform="rotate(-51.0378 114.958 164.686)" fill="#F2887F"/>
<ellipse cx="113.998" cy="164.939" rx="73.0586" ry="78.5402" transform="rotate(-50.3026 113.998 164.939)" fill="#F2867D"/>
<ellipse cx="113.009" cy="165.162" rx="72.1646" ry="77.7477" transform="rotate(-49.5675 113.009 165.162)" fill="#F2847C"/>
<ellipse cx="112.006" cy="165.358" rx="71.2705" ry="76.9551" transform="rotate(-48.8324 112.006 165.358)" fill="#F2827A"/>
<ellipse cx="110.981" cy="165.517" rx="70.3765" ry="76.1625" transform="rotate(-48.0972 110.981 165.517)" fill="#F28178"/>
<ellipse cx="109.956" cy="165.644" rx="69.4824" ry="75.37" transform="rotate(-47.3621 109.956 165.644)" fill="#F27F77"/>
<ellipse cx="108.875" cy="165.75" rx="68.5883" ry="74.5774" transform="rotate(-46.6269 108.875 165.75)" fill="#F27D75"/>
<ellipse cx="107.779" cy="165.826" rx="67.6943" ry="73.7849" transform="rotate(-45.8918 107.779 165.826)" fill="#F27B74"/>
<ellipse cx="106.68" cy="165.862" rx="66.8002" ry="72.9923" transform="rotate(-45.1567 106.68 165.862)" fill="#F27972"/>
<ellipse cx="105.547" cy="165.872" rx="65.9061" ry="72.1998" transform="rotate(-44.4215 105.547 165.872)" fill="#F27870"/>
<ellipse cx="104.412" cy="165.851" rx="65.0121" ry="71.4072" transform="rotate(-43.6864 104.412 165.851)" fill="#F2766F"/>
<ellipse cx="103.245" cy="165.798" rx="64.118" ry="70.6147" transform="rotate(-42.9513 103.245 165.798)" fill="#F2746D"/>
<ellipse cx="102.08" cy="165.712" rx="63.224" ry="69.8221" transform="rotate(-42.2161 102.08 165.712)" fill="#F2726C"/>
<ellipse cx="100.896" cy="165.588" rx="62.3299" ry="69.0296" transform="rotate(-41.481 100.896 165.588)" fill="#F3716A"/>
<ellipse cx="99.6809" cy="165.441" rx="61.4359" ry="68.237" transform="rotate(-40.7459 99.6809 165.441)" fill="#F36F68"/>
<ellipse cx="98.4474" cy="165.264" rx="60.5418" ry="67.4445" transform="rotate(-40.0107 98.4474 165.264)" fill="#F36D67"/>
<ellipse cx="97.2235" cy="165.044" rx="59.6477" ry="66.6519" transform="rotate(-39.2756 97.2235 165.044)" fill="#F36B65"/>
<ellipse cx="95.9784" cy="164.792" rx="58.7537" ry="65.8594" transform="rotate(-38.5404 95.9784 164.792)" fill="#F36964"/>
<ellipse cx="94.7245" cy="164.509" rx="57.8596" ry="65.0668" transform="rotate(-37.8053 94.7245 164.509)" fill="#F36862"/>
<ellipse cx="93.4585" cy="164.192" rx="56.9656" ry="64.2743" transform="rotate(-37.0702 93.4585 164.192)" fill="#F36660"/>
<ellipse cx="92.1654" cy="163.843" rx="56.0715" ry="63.4817" transform="rotate(-36.335 92.1654 163.843)" fill="#F3645F"/>
<ellipse cx="90.8654" cy="163.466" rx="55.1774" ry="62.6892" transform="rotate(-35.5999 90.8654 163.466)" fill="#F3625D"/>
<ellipse cx="89.5708" cy="163.051" rx="54.2834" ry="61.8966" transform="rotate(-34.8648 89.5708 163.051)" fill="#F3605B"/>
<ellipse cx="88.2471" cy="162.605" rx="53.3893" ry="61.1041" transform="rotate(-34.1296 88.2471 162.605)" fill="#F35F5A"/>
<ellipse cx="86.9379" cy="162.117" rx="52.4953" ry="60.3116" transform="rotate(-33.3945 86.9379 162.117)" fill="#F35D58"/>
<ellipse cx="85.6047" cy="161.594" rx="51.6012" ry="59.519" transform="rotate(-32.6593 85.6047 161.594)" fill="#F35B57"/>
<ellipse cx="84.2717" cy="161.044" rx="50.7071" ry="58.7264" transform="rotate(-31.9242 84.2717 161.044)" fill="#F35955"/>
<ellipse cx="82.912" cy="160.465" rx="49.8131" ry="57.9339" transform="rotate(-31.1891 82.912 160.465)" fill="#F45753"/>
<ellipse cx="81.5576" cy="159.843" rx="48.919" ry="57.1413" transform="rotate(-30.4539 81.5576 159.843)" fill="#F45652"/>
<ellipse cx="80.1935" cy="159.192" rx="48.025" ry="56.3488" transform="rotate(-29.7188 80.1935 159.192)" fill="#F45450"/>
<ellipse cx="78.8398" cy="158.508" rx="47.1309" ry="55.5562" transform="rotate(-28.9836 78.8398 158.508)" fill="#F4524F"/>
<ellipse cx="77.47" cy="157.783" rx="46.2368" ry="54.7637" transform="rotate(-28.2485 77.47 157.783)" fill="#F4504D"/>
<ellipse cx="76.104" cy="157.027" rx="45.3428" ry="53.9711" transform="rotate(-27.5134 76.104 157.027)" fill="#F44E4B"/>
<ellipse cx="74.723" cy="156.238" rx="44.4487" ry="53.1786" transform="rotate(-26.7782 74.723 156.238)" fill="#F44D4A"/>
<ellipse cx="73.3471" cy="155.411" rx="43.5546" ry="52.386" transform="rotate(-26.0431 73.3471 155.411)" fill="#F44B48"/>
<ellipse cx="71.9574" cy="154.554" rx="42.6606" ry="51.5935" transform="rotate(-25.308 71.9574 154.554)" fill="#F44947"/>
<ellipse cx="70.5743" cy="153.665" rx="41.7665" ry="50.8009" transform="rotate(-24.5728 70.5743 153.665)" fill="#F44745"/>
<ellipse cx="69.1942" cy="152.737" rx="40.8725" ry="50.0084" transform="rotate(-23.8377 69.1942 152.737)" fill="#F44543"/>
<ellipse cx="67.814" cy="151.773" rx="39.9784" ry="49.2158" transform="rotate(-23.1025 67.814 151.773)" fill="#F44442"/>
<ellipse cx="66.4303" cy="150.783" rx="39.0843" ry="48.4233" transform="rotate(-22.3674 66.4303 150.783)" fill="#F44240"/>
<ellipse cx="65.0634" cy="149.752" rx="38.1903" ry="47.6308" transform="rotate(-21.6323 65.0634 149.752)" fill="#F4403F"/>
<ellipse cx="63.6748" cy="148.697" rx="37.2962" ry="46.8382" transform="rotate(-20.8972 63.6748 148.697)" fill="#F43E3D"/>
<ellipse cx="62.2806" cy="147.602" rx="36.4022" ry="46.0456" transform="rotate(-20.162 62.2806 147.602)" fill="#F53C3B"/>
<ellipse cx="60.9324" cy="146.462" rx="35.5081" ry="45.2531" transform="rotate(-19.4269 60.9324 146.462)" fill="#F53B3A"/>
<ellipse cx="59.5487" cy="145.305" rx="34.6141" ry="44.4605" transform="rotate(-18.6918 59.5487 145.305)" fill="#F53938"/>
<ellipse cx="58.1808" cy="144.106" rx="33.72" ry="43.668" transform="rotate(-17.9566 58.1808 144.106)" fill="#F53737"/>
<ellipse cx="56.8256" cy="142.879" rx="32.8259" ry="42.8754" transform="rotate(-17.2215 56.8256 142.879)" fill="#F53535"/>
<ellipse cx="55.4562" cy="141.618" rx="31.9319" ry="42.0829" transform="rotate(-16.4863 55.4562 141.618)" fill="#F53333"/>
<path d="M72.6609 88.6445C68.6799 89.4631 66.2549 86.5404 62.3133 87.5314C59.8191 88.1585 57.8548 88.3537 56.4334 90.497C53.7911 94.4815 59.0145 98.3723 63.1854 100.709C67.4089 103.076 70.7437 101.331 75.5775 101.061C80.2833 100.798 84.6373 103.123 87.5317 99.4032C89.7157 96.5966 89.3333 93.8077 88.5057 90.349C87.6049 86.5841 86.5462 83.3292 82.8385 82.216C78.336 80.864 77.2656 87.6977 72.6609 88.6445Z" fill="#78470F"/>
</svg>
