<svg width="259" height="278" viewBox="0 0 259 278" fill="none" xmlns="http://www.w3.org/2000/svg">
<ellipse cx="31.0356" cy="41.3517" rx="31.0356" ry="41.3517" transform="matrix(0.96232 -0.271921 0.271002 0.962579 13.0286 109.186)" fill="#F53232"/>
<ellipse cx="120.639" cy="120.52" rx="120.639" ry="120.52" transform="matrix(0.0128067 -0.999918 0.999917 0.0128536 1.21518e-05 241.258)" fill="#EEE5D2"/>
<ellipse cx="119.743" cy="119.728" rx="119.743" ry="119.728" transform="matrix(0.0256114 -0.999672 0.99967 0.0257051 0.128918 239.94)" fill="#EEE3D1"/>
<ellipse cx="118.848" cy="118.936" rx="118.848" ry="118.936" transform="matrix(0.0384121 -0.999262 0.999257 0.0385525 0.246045 238.622)" fill="#EEE2CF"/>
<ellipse cx="117.952" cy="118.144" rx="117.952" ry="118.144" transform="matrix(0.0512062 -0.998688 0.998679 0.0513932 0.378857 237.301)" fill="#EEE0CE"/>
<ellipse cx="117.056" cy="117.352" rx="117.056" ry="117.352" transform="matrix(0.0639922 -0.99795 0.997935 0.0642255 0.519421 235.976)" fill="#EEDECC"/>
<ellipse cx="116.16" cy="116.56" rx="116.16" ry="116.56" transform="matrix(0.0767677 -0.997049 0.997027 0.077047 0.636609 234.667)" fill="#EEDCCA"/>
<ellipse cx="115.264" cy="115.768" rx="115.264" ry="115.768" transform="matrix(0.0895307 -0.995984 0.995955 0.0898558 0.788892 233.333)" fill="#EEDAC9"/>
<ellipse cx="114.368" cy="114.976" rx="114.368" ry="114.976" transform="matrix(0.102279 -0.994756 0.994718 0.10265 0.890454 232.023)" fill="#EFD9C7"/>
<ellipse cx="113.472" cy="114.184" rx="113.472" ry="114.184" transform="matrix(0.115011 -0.993364 0.993316 0.115426 1.03883 230.693)" fill="#EFD7C6"/>
<ellipse cx="112.576" cy="113.392" rx="112.576" ry="113.392" transform="matrix(0.127724 -0.99181 0.99175 0.128184 1.15602 229.377)" fill="#EFD5C4"/>
<ellipse cx="111.68" cy="112.601" rx="111.68" ry="112.601" transform="matrix(0.140416 -0.990093 0.990021 0.14092 1.30055 228.055)" fill="#EFD3C2"/>
<ellipse cx="110.784" cy="111.809" rx="110.784" ry="111.809" transform="matrix(0.153086 -0.988213 0.988128 0.153633 1.42549 226.732)" fill="#EFD1C1"/>
<ellipse cx="109.887" cy="111.017" rx="109.887" ry="111.017" transform="matrix(0.16573 -0.986171 0.986072 0.16632 1.54658 225.417)" fill="#EFD0BF"/>
<ellipse cx="108.991" cy="110.226" rx="108.991" ry="110.226" transform="matrix(0.178348 -0.983968 0.983853 0.17898 1.68324 224.098)" fill="#EFCEBE"/>
<ellipse cx="108.095" cy="109.434" rx="108.095" ry="109.434" transform="matrix(0.190936 -0.981602 0.981471 0.191609 1.81996 222.77)" fill="#EFCCBC"/>
<ellipse cx="107.198" cy="108.643" rx="107.198" ry="108.643" transform="matrix(0.203493 -0.979076 0.978928 0.204207 1.95271 221.448)" fill="#EFCABA"/>
<ellipse cx="106.302" cy="107.851" rx="106.302" ry="107.851" transform="matrix(0.216017 -0.97639 0.976222 0.216771 2.08552 220.131)" fill="#EFC8B9"/>
<ellipse cx="105.405" cy="107.06" rx="105.405" ry="107.06" transform="matrix(0.228506 -0.973542 0.973356 0.229299 2.19874 218.813)" fill="#EFC7B7"/>
<ellipse cx="104.509" cy="106.269" rx="104.509" ry="106.269" transform="matrix(0.240958 -0.970536 0.970329 0.241789 2.33156 217.489)" fill="#EFC5B5"/>
<ellipse cx="103.612" cy="105.477" rx="103.612" ry="105.477" transform="matrix(0.25337 -0.967369 0.967142 0.254238 2.47218 216.167)" fill="#EFC3B4"/>
<ellipse cx="102.716" cy="104.686" rx="102.716" ry="104.686" transform="matrix(0.265742 -0.964044 0.963795 0.266645 2.60493 214.844)" fill="#EFC1B2"/>
<ellipse cx="101.819" cy="103.895" rx="101.819" ry="103.895" transform="matrix(0.278069 -0.960561 0.960289 0.279008 2.73384 213.526)" fill="#F0C0B1"/>
<ellipse cx="100.922" cy="103.104" rx="100.922" ry="103.104" transform="matrix(0.290352 -0.95692 0.956624 0.291325 2.85096 212.208)" fill="#F0BEAF"/>
<ellipse cx="100.026" cy="102.313" rx="100.026" ry="102.313" transform="matrix(0.302587 -0.953122 0.952802 0.303593 2.9955 210.879)" fill="#F0BCAD"/>
<ellipse cx="99.1289" cy="101.522" rx="99.1289" ry="101.522" transform="matrix(0.314773 -0.949167 0.948822 0.315811 3.12434 209.565)" fill="#F0BAAC"/>
<ellipse cx="98.2321" cy="100.73" rx="98.2321" ry="100.73" transform="matrix(0.326907 -0.945056 0.944686 0.327976 3.24543 208.241)" fill="#F0B8AA"/>
<ellipse cx="97.3354" cy="99.9394" rx="97.3354" ry="99.9394" transform="matrix(0.338989 -0.94079 0.940394 0.340087 3.3899 206.925)" fill="#F0B7A9"/>
<ellipse cx="96.4385" cy="99.1483" rx="96.4385" ry="99.1483" transform="matrix(0.351015 -0.93637 0.935947 0.352141 3.50709 205.606)" fill="#F0B5A7"/>
<ellipse cx="95.5418" cy="98.3574" rx="95.5418" ry="98.3574" transform="matrix(0.362984 -0.931796 0.931346 0.364137 3.65162 204.277)" fill="#F0B3A5"/>
<ellipse cx="94.6449" cy="97.5663" rx="94.6449" ry="97.5663" transform="matrix(0.374894 -0.927068 0.926591 0.376072 3.77656 202.958)" fill="#F0B1A4"/>
<ellipse cx="93.7481" cy="96.7753" rx="93.7481" ry="96.7753" transform="matrix(0.386742 -0.922188 0.921683 0.387945 3.90937 201.642)" fill="#F0AFA2"/>
<ellipse cx="92.8513" cy="95.9844" rx="92.8513" ry="95.9844" transform="matrix(0.398527 -0.917157 0.916623 0.399753 4.03431 200.32)" fill="#F0AEA1"/>
<ellipse cx="91.9544" cy="95.1934" rx="91.9544" ry="95.1934" transform="matrix(0.410247 -0.911975 0.911412 0.411495 4.16322 198.997)" fill="#F0AC9F"/>
<ellipse cx="91.0576" cy="94.4024" rx="91.0576" ry="94.4024" transform="matrix(0.4219 -0.906643 0.906051 0.423169 4.29597 197.678)" fill="#F0AA9D"/>
<ellipse cx="90.1607" cy="93.6115" rx="90.1607" ry="93.6115" transform="matrix(0.433485 -0.901161 0.900541 0.434772 4.42878 196.356)" fill="#F0A89C"/>
<ellipse cx="89.2639" cy="92.8206" rx="89.2639" ry="92.8206" transform="matrix(0.444998 -0.895532 0.894882 0.446303 4.55769 195.033)" fill="#F0A69A"/>
<ellipse cx="88.367" cy="92.0296" rx="88.367" ry="92.0296" transform="matrix(0.456439 -0.889755 0.889076 0.45776 4.68263 193.718)" fill="#F1A599"/>
<ellipse cx="87.4702" cy="91.2387" rx="87.4702" ry="91.2387" transform="matrix(0.467805 -0.883832 0.883123 0.469142 4.81935 192.392)" fill="#F1A397"/>
<ellipse cx="86.5734" cy="90.4478" rx="86.5734" ry="90.4478" transform="matrix(0.479095 -0.877763 0.877025 0.480445 4.93257 191.081)" fill="#F1A195"/>
<ellipse cx="85.6765" cy="89.6568" rx="85.6765" ry="89.6568" transform="matrix(0.490307 -0.87155 0.870783 0.491669 5.06929 189.753)" fill="#F19F94"/>
<ellipse cx="84.7797" cy="88.8659" rx="84.7797" ry="88.8659" transform="matrix(0.501438 -0.865194 0.864397 0.50281 5.21766 188.433)" fill="#F19D92"/>
<ellipse cx="83.8828" cy="88.0749" rx="83.8828" ry="88.0749" transform="matrix(0.512487 -0.858695 0.857869 0.513869 5.35438 187.108)" fill="#F19C91"/>
<ellipse cx="82.9861" cy="87.284" rx="82.9861" ry="87.284" transform="matrix(0.523453 -0.852055 0.8512 0.524842 5.45588 185.793)" fill="#F19A8F"/>
<ellipse cx="82.0893" cy="86.4931" rx="82.0893" ry="86.4931" transform="matrix(0.534333 -0.845274 0.84439 0.535729 5.60432 184.47)" fill="#F1988D"/>
<ellipse cx="81.1925" cy="85.7021" rx="81.1925" ry="85.7021" transform="matrix(0.545126 -0.838354 0.837442 0.546526 5.73323 183.151)" fill="#F1968C"/>
<ellipse cx="80.2957" cy="84.9111" rx="80.2957" ry="84.9111" transform="matrix(0.55583 -0.831296 0.830356 0.557234 5.86989 181.827)" fill="#F1948A"/>
<ellipse cx="79.399" cy="84.1201" rx="79.399" ry="84.1201" transform="matrix(0.566443 -0.824101 0.823133 0.567848 5.98317 180.506)" fill="#F19388"/>
<ellipse cx="78.5023" cy="83.3291" rx="78.5023" ry="83.3291" transform="matrix(0.576963 -0.81677 0.815775 0.578369 6.11982 179.191)" fill="#F19187"/>
<ellipse cx="77.6056" cy="82.538" rx="77.6056" ry="82.538" transform="matrix(0.587389 -0.809305 0.808283 0.588794 6.24482 177.869)" fill="#F18F85"/>
<ellipse cx="76.709" cy="81.747" rx="76.709" ry="81.747" transform="matrix(0.597718 -0.801706 0.800658 0.599122 6.38539 176.545)" fill="#F18D84"/>
<ellipse cx="75.8123" cy="80.9559" rx="75.8123" ry="80.9559" transform="matrix(0.60795 -0.793975 0.792901 0.60935 6.5182 175.224)" fill="#F28B82"/>
<ellipse cx="74.9157" cy="80.1648" rx="74.9157" ry="80.1648" transform="matrix(0.618082 -0.786113 0.785014 0.619478 6.64705 173.903)" fill="#F28A80"/>
<ellipse cx="74.0191" cy="79.3737" rx="74.0191" ry="79.3737" transform="matrix(0.628113 -0.778122 0.776998 0.629502 6.76814 172.583)" fill="#F2887F"/>
<ellipse cx="73.1226" cy="78.5825" rx="73.1226" ry="78.5825" transform="matrix(0.638041 -0.770002 0.768855 0.639423 6.90095 171.263)" fill="#F2867D"/>
<ellipse cx="72.2261" cy="77.7914" rx="72.2261" ry="77.7914" transform="matrix(0.647865 -0.761755 0.760585 0.649238 7.02589 169.943)" fill="#F2847C"/>
<ellipse cx="71.3296" cy="77.0001" rx="71.3296" ry="77.0001" transform="matrix(0.657583 -0.753382 0.75219 0.658946 7.1587 168.625)" fill="#F2827A"/>
<ellipse cx="70.4332" cy="76.2089" rx="70.4332" ry="76.2089" transform="matrix(0.667193 -0.744885 0.743672 0.668544 7.29146 167.301)" fill="#F28178"/>
<ellipse cx="69.5367" cy="75.4176" rx="69.5367" ry="75.4176" transform="matrix(0.676693 -0.736265 0.735032 0.678033 7.4438 165.974)" fill="#F27F77"/>
<ellipse cx="68.6404" cy="74.6263" rx="68.6404" ry="74.6263" transform="matrix(0.686082 -0.727524 0.726271 0.687408 7.56093 164.657)" fill="#F27D75"/>
<ellipse cx="67.7441" cy="73.835" rx="67.7441" ry="73.835" transform="matrix(0.69536 -0.718662 0.717391 0.696671 7.68202 163.341)" fill="#F27B74"/>
<ellipse cx="66.8478" cy="73.0436" rx="66.8478" ry="73.0436" transform="matrix(0.704523 -0.709682 0.708393 0.705818 7.81868 162.016)" fill="#F27972"/>
<ellipse cx="65.9515" cy="72.2522" rx="65.9515" ry="72.2522" transform="matrix(0.71357 -0.700584 0.699279 0.714849 7.93977 160.695)" fill="#F27870"/>
<ellipse cx="65.0553" cy="71.4607" rx="65.0553" ry="71.4607" transform="matrix(0.7225 -0.69137 0.690051 0.723761 8.07643 159.377)" fill="#F2766F"/>
<ellipse cx="64.1592" cy="70.6692" rx="64.1592" ry="70.6692" transform="matrix(0.731312 -0.682043 0.680709 0.732554 8.19752 158.056)" fill="#F2746D"/>
<ellipse cx="63.2631" cy="69.8777" rx="63.2631" ry="69.8777" transform="matrix(0.740004 -0.672602 0.671255 0.741226 8.33815 156.736)" fill="#F2726C"/>
<ellipse cx="62.367" cy="69.0861" rx="62.367" ry="69.0861" transform="matrix(0.748575 -0.663051 0.661692 0.749776 8.4748 155.41)" fill="#F3716A"/>
<ellipse cx="61.471" cy="68.2945" rx="61.471" ry="68.2945" transform="matrix(0.757022 -0.653389 0.65202 0.758202 8.5959 154.093)" fill="#F36F68"/>
<ellipse cx="60.575" cy="67.5029" rx="60.575" ry="67.5029" transform="matrix(0.765345 -0.64362 0.642242 0.766502 8.71302 152.778)" fill="#F36D67"/>
<ellipse cx="59.6791" cy="66.7112" rx="59.6791" ry="66.7112" transform="matrix(0.773543 -0.633744 0.632358 0.774677 8.85365 151.453)" fill="#F36B65"/>
<ellipse cx="58.7832" cy="65.9194" rx="58.7832" ry="65.9194" transform="matrix(0.781613 -0.623763 0.62237 0.782723 8.9864 150.13)" fill="#F36964"/>
<ellipse cx="57.8874" cy="65.1276" rx="57.8874" ry="65.1276" transform="matrix(0.789555 -0.613679 0.612281 0.79064 9.12312 148.807)" fill="#F36862"/>
<ellipse cx="56.9916" cy="64.3358" rx="56.9916" ry="64.3358" transform="matrix(0.797368 -0.603494 0.602091 0.798427 9.25978 147.485)" fill="#F36660"/>
<ellipse cx="56.0959" cy="63.5439" rx="56.0959" ry="63.5439" transform="matrix(0.805049 -0.593208 0.591803 0.806082 9.38087 146.163)" fill="#F3645F"/>
<ellipse cx="55.2002" cy="62.752" rx="55.2002" ry="62.752" transform="matrix(0.812598 -0.582825 0.581418 0.813605 9.50587 144.848)" fill="#F3625D"/>
<ellipse cx="54.3046" cy="61.96" rx="54.3046" ry="61.96" transform="matrix(0.820013 -0.572344 0.570938 0.820993 9.64644 143.527)" fill="#F3605B"/>
<ellipse cx="53.409" cy="61.168" rx="53.409" ry="61.168" transform="matrix(0.827294 -0.561769 0.560365 0.828246 9.76753 142.209)" fill="#F35F5A"/>
<ellipse cx="52.5135" cy="60.3759" rx="52.5135" ry="60.3759" transform="matrix(0.834438 -0.551102 0.549699 0.835362 9.912 140.884)" fill="#F35D58"/>
<ellipse cx="51.618" cy="59.5838" rx="51.618" ry="59.5838" transform="matrix(0.841446 -0.540342 0.538944 0.842341 10.0409 139.558)" fill="#F35B57"/>
<ellipse cx="50.7226" cy="58.7916" rx="50.7226" ry="58.7916" transform="matrix(0.848314 -0.529493 0.528101 0.849181 10.1776 138.237)" fill="#F35955"/>
<ellipse cx="49.8272" cy="57.9994" rx="49.8272" ry="57.9994" transform="matrix(0.855043 -0.518556 0.517172 0.855882 10.2948 136.923)" fill="#F45753"/>
<ellipse cx="48.9319" cy="57.2071" rx="48.9319" ry="57.2071" transform="matrix(0.861632 -0.507534 0.506158 0.862441 10.4237 135.599)" fill="#F45652"/>
<ellipse cx="48.0366" cy="56.4148" rx="48.0366" ry="56.4148" transform="matrix(0.868078 -0.496426 0.49506 0.868858 10.5486 134.28)" fill="#F45450"/>
<ellipse cx="47.1414" cy="55.6225" rx="47.1414" ry="55.6225" transform="matrix(0.874382 -0.485237 0.483882 0.875133 10.6892 132.962)" fill="#F4524F"/>
<ellipse cx="46.2462" cy="54.8301" rx="46.2462" ry="54.8301" transform="matrix(0.880542 -0.473967 0.472625 0.881263 10.8181 131.638)" fill="#F4504D"/>
<ellipse cx="45.3511" cy="54.0376" rx="45.3511" ry="54.0376" transform="matrix(0.886557 -0.462619 0.461291 0.887248 10.9548 130.317)" fill="#F44E4B"/>
<ellipse cx="44.456" cy="53.2451" rx="44.456" ry="53.2451" transform="matrix(0.892425 -0.451194 0.449882 0.893088 11.0797 128.997)" fill="#F44D4A"/>
<ellipse cx="43.561" cy="52.4525" rx="43.561" ry="52.4525" transform="matrix(0.898147 -0.439694 0.438399 0.89878 11.2125 127.673)" fill="#F44B48"/>
<ellipse cx="42.666" cy="51.6599" rx="42.666" ry="51.6599" transform="matrix(0.903721 -0.428122 0.426845 0.904324 11.3336 126.354)" fill="#F44947"/>
<ellipse cx="41.7711" cy="50.8672" rx="41.7711" ry="50.8672" transform="matrix(0.909146 -0.416478 0.415221 0.90972 11.4625 125.036)" fill="#F44745"/>
<ellipse cx="40.8762" cy="50.0745" rx="40.8762" ry="50.0745" transform="matrix(0.914421 -0.404765 0.403529 0.914966 11.5953 123.713)" fill="#F44543"/>
<ellipse cx="39.9814" cy="49.2818" rx="39.9814" ry="49.2818" transform="matrix(0.919545 -0.392984 0.391771 0.920062 11.728 122.388)" fill="#F44442"/>
<ellipse cx="39.0866" cy="48.489" rx="39.0866" ry="48.489" transform="matrix(0.924517 -0.381139 0.37995 0.925007 11.8569 121.072)" fill="#F44240"/>
<ellipse cx="38.1919" cy="47.6961" rx="38.1919" ry="47.6961" transform="matrix(0.929338 -0.369231 0.368067 0.929799 12.0014 119.748)" fill="#F4403F"/>
<ellipse cx="37.2972" cy="46.9032" rx="37.2972" ry="46.9032" transform="matrix(0.934005 -0.357261 0.356123 0.934439 12.1225 118.435)" fill="#F43E3D"/>
<ellipse cx="36.4025" cy="46.1103" rx="36.4025" ry="46.1103" transform="matrix(0.938518 -0.345231 0.344121 0.938925 12.2357 117.114)" fill="#F53C3B"/>
<ellipse cx="35.5079" cy="45.3173" rx="35.5079" ry="45.3173" transform="matrix(0.942876 -0.333145 0.332064 0.943257 12.392 115.783)" fill="#F53B3A"/>
<ellipse cx="34.6134" cy="44.5243" rx="34.6134" ry="44.5243" transform="matrix(0.947078 -0.321002 0.319952 0.947434 12.5091 114.467)" fill="#F53938"/>
<ellipse cx="33.7189" cy="43.7312" rx="33.7189" ry="43.7312" transform="matrix(0.951125 -0.308807 0.307787 0.951455 12.638 113.144)" fill="#F53737"/>
<ellipse cx="32.8244" cy="42.9381" rx="32.8244" ry="42.9381" transform="matrix(0.955014 -0.29656 0.295573 0.95532 12.7747 111.825)" fill="#F53535"/>
<ellipse cx="31.93" cy="42.1449" rx="31.93" ry="42.1449" transform="matrix(0.958746 -0.284264 0.28331 0.959028 12.8919 110.506)" fill="#F53333"/>
<path d="M72.6458 88.788C68.6656 89.6079 66.2412 86.6804 62.3004 87.673C59.8067 88.3011 57.8428 88.4967 56.4217 90.6435C53.78 94.6344 59.0023 98.5315 63.1723 100.872C67.3949 103.243 70.729 101.495 75.5619 101.225C80.2666 100.961 84.6197 103.29 87.5136 99.5641C89.6971 96.7529 89.3147 93.9595 88.4874 90.4952C87.5867 86.7242 86.5283 83.4641 82.8213 82.349C78.3198 80.9949 77.2496 87.8396 72.6458 88.788Z" fill="#78470F"/>
</svg>
