<svg width="40" height="40" viewBox="0 0 40 40" fill="none" xmlns="http://www.w3.org/2000/svg">
<rect width="40" height="40" rx="20" fill="white"/>
<path d="M15.736 12.3963L22.6525 19.4238C22.8042 19.5772 22.8893 19.7841 22.8893 19.9998C22.8893 20.2155 22.8042 20.4225 22.6525 20.5758L15.7375 27.6033C15.5859 27.7576 15.501 27.9653 15.501 28.1816C15.501 28.3979 15.5859 28.6056 15.7375 28.7598C15.8116 28.8358 15.9001 28.8962 15.9979 28.9374C16.0957 28.9786 16.2007 28.9999 16.3068 28.9999C16.4129 28.9999 16.5179 28.9786 16.6157 28.9374C16.7134 28.8962 16.802 28.8358 16.876 28.7598L23.791 21.7338C24.2454 21.2711 24.5 20.6484 24.5 19.9998C24.5 19.3513 24.2454 18.7286 23.791 18.2658L16.876 11.2398C16.8019 11.1636 16.7133 11.1031 16.6154 11.0617C16.5175 11.0203 16.4123 10.999 16.306 10.999C16.1997 10.999 16.0945 11.0203 15.9966 11.0617C15.8987 11.1031 15.8101 11.1636 15.736 11.2398C15.5844 11.3941 15.4995 11.6018 15.4995 11.8181C15.4995 12.0344 15.5844 12.2421 15.736 12.3963Z" fill="#3A3A3A"/>
</svg>
