<svg width="635" height="376" viewBox="0 0 635 376" fill="none" xmlns="http://www.w3.org/2000/svg">
<path d="M17.8678 222.406C24.0314 217.924 28.697 217.277 36.0887 215.433C44.1646 213.417 48.9605 213.568 57.2669 213.045C67.8636 212.377 73.9894 211.253 84.4552 213.045C91.2548 214.209 95.2959 214.768 101.436 217.917C108.59 221.585 112.221 224.858 117.177 231.195C121.84 237.159 124.231 241.11 125.953 248.486C127.598 255.533 126.515 259.803 125.953 267.018C125.405 274.056 124.946 278.046 123.187 284.882C120.487 295.37 118.536 301.531 112.311 310.388C108.668 315.572 105.976 318.007 101.436 322.424C96.1436 327.574 94.2151 333.346 86.9355 334.556C84.5834 334.947 83.1334 335.174 80.8301 334.556C77.5622 333.681 77.1784 330.086 73.8661 329.398C72.261 329.065 71.2753 329.073 69.6686 329.398C65.3041 330.281 65.7356 336.067 61.4644 337.327C58.8557 338.097 57.1724 337.834 54.5004 337.327C50.1274 336.496 48.7386 330.573 44.4837 331.882C42.7155 332.425 40.5724 334.556 40.5724 334.556C40.5724 334.556 39.046 335.13 36.0887 334.556C33.1314 333.983 23.939 324.222 17.8678 316.12C12.091 308.41 9.22983 303.613 5.75231 294.626C1.77955 284.358 0.188418 278.028 0.0284638 267.018C-0.119785 256.814 0.176992 250.591 4.22595 241.225C7.82893 232.891 10.5299 227.743 17.8678 222.406Z" fill="#4F976E"/>
<path d="M62.2621 203.459L54.8513 211.41L53.8984 209.502L60.6741 201.657C60.6741 201.657 61.6232 198.292 62.2621 196.144C63.2889 192.693 63.2588 190.488 65.0147 187.345C67.571 182.77 70.6117 181.327 74.7547 178.122C79.4235 174.511 82.1103 172.25 87.6708 170.277C95.3597 167.548 100.546 167.419 108.527 169.111C113.522 170.17 120.702 173.881 120.702 173.881C120.702 173.881 114.474 184.93 108.527 190.208C104.785 193.528 102.336 195.031 97.9401 197.417C93.1137 200.035 90.2207 201.295 84.9182 202.717C78.7261 204.378 74.9941 205.251 68.6143 204.626C66.1043 204.379 62.2621 203.459 62.2621 203.459Z" fill="#4F976E"/>
<path d="M39.271 185.891C37.541 184.886 34.7944 185.349 34.8245 183.346C34.85 181.644 36.6696 181.393 38.1064 180.484C39.6254 179.523 40.5546 178.489 42.3412 178.682C45.4482 179.017 44.0615 183.314 45.8349 185.891C47.7597 188.687 49.8182 189.441 51.8694 192.145C54.2762 195.319 54.8682 197.592 56.8453 201.051C58.797 204.465 65.3173 207.757 61.927 209.744C60.2143 210.748 58.9863 211.863 56.8453 209.744C54.7043 207.624 53.4783 202.542 50.7049 198.294C47.8217 193.878 46.6689 190.702 42.3412 187.693C41.1997 186.899 40.4731 186.589 39.271 185.891Z" fill="#4F976E"/>
<path d="M334.465 54.4063C340.629 49.9237 345.295 49.2773 352.686 47.4328C360.762 45.4175 365.558 45.5682 373.865 45.0446C384.461 44.3766 390.587 43.2528 401.053 45.0446C407.852 46.2087 411.894 46.768 418.034 49.9165C425.188 53.585 428.819 56.858 433.774 63.1949C438.438 69.1587 440.829 73.1098 442.551 80.4855C444.196 87.5329 443.113 91.8026 442.551 99.018C442.002 106.056 441.544 110.046 439.784 116.882C437.085 127.37 435.134 133.531 428.909 142.388C425.266 147.572 422.574 150.007 418.034 154.424C412.741 159.574 410.813 165.346 403.533 166.556C401.181 166.947 399.731 167.174 397.428 166.556C394.16 165.681 393.776 162.086 390.464 161.398C388.859 161.065 387.873 161.073 386.266 161.398C381.902 162.281 382.333 168.067 378.062 169.327C375.453 170.097 373.77 169.834 371.098 169.327C366.725 168.496 365.336 162.573 361.081 163.882C359.313 164.425 357.17 166.556 357.17 166.556C357.17 166.556 355.644 167.13 352.686 166.556C349.729 165.983 340.537 156.222 334.465 148.12C328.689 140.41 325.827 135.613 322.35 126.626C318.377 116.358 316.786 110.028 316.626 99.018C316.478 88.8136 316.775 82.5909 320.824 73.2254C324.427 64.8914 327.128 59.743 334.465 54.4063Z" fill="#4F976E"/>
<path d="M378.86 35.4594L371.449 43.4105L370.496 41.5022L377.272 33.6572C377.272 33.6572 378.221 30.2918 378.86 28.1444C379.887 24.6933 379.856 22.4877 381.612 19.3452C384.169 14.7703 387.209 13.3265 391.352 10.1219C396.021 6.51067 398.708 4.25026 404.268 2.27685C411.957 -0.451939 417.144 -0.581475 425.125 1.11069C430.12 2.16979 437.3 5.88135 437.3 5.88135C437.3 5.88135 431.072 16.93 425.125 22.2076C421.383 25.5282 418.934 27.0313 414.538 29.4166C409.711 32.0355 406.818 33.2949 401.516 34.7173C395.324 36.3783 391.592 37.2515 385.212 36.6256C382.702 36.3793 378.86 35.4594 378.86 35.4594Z" fill="#4F976E"/>
<path d="M355.869 17.8906C354.139 16.8856 351.392 17.3487 351.422 15.3462C351.448 13.6444 353.267 13.3931 354.704 12.4838C356.223 11.5225 357.152 10.4889 358.939 10.6816C362.046 11.0167 360.659 15.314 362.433 17.8906C364.357 20.6871 366.416 21.4406 368.467 24.1454C370.874 27.3191 371.466 29.5922 373.443 33.0507C375.395 36.4646 381.915 39.7566 378.525 41.7439C376.812 42.7478 375.584 43.8635 373.443 41.7439C371.302 39.6242 370.076 34.5423 367.303 30.2943C364.419 25.8781 363.267 22.7025 358.939 19.6928C357.797 18.899 357.071 18.5889 355.869 17.8906Z" fill="#4F976E"/>
<path d="M364.898 225.215C341.147 243.851 307.331 303.982 327.498 329.605C347.665 355.229 414.178 336.64 437.929 318.005C461.68 299.369 464.585 263.49 444.418 237.867C424.251 212.244 388.649 206.579 364.898 225.215Z" fill="#4F976E"/>
<path d="M447.835 250.154L442.174 245.235L430.975 246.104L434.75 238.393L432.387 232.807L420.421 226.729L423.595 223.598L415.674 215.145L426.913 223.34L421.978 216.305L421.398 204.81L416.443 197.364L423.783 202.564L426.54 215.951L433.736 218.277L434.857 207.475L437.76 207.25L442.404 225.023L449.247 228.614L454.639 228.195L469.362 231.174L464.136 234.877L453.601 240.64L468.158 248.577L472.346 257.319L459.157 251.748L459.406 256.675L469.089 267.051L473.195 274.151L465.771 267.308L456.315 261.448L458.16 273.256L451.11 265.561L447.835 250.154Z" fill="#4F976E"/>
<path d="M519.239 46.1145C495.402 64.6398 461.308 124.614 481.356 150.33C501.405 176.047 568.002 157.767 591.839 139.242C615.676 120.717 618.748 84.8519 598.7 59.1354C578.652 33.4189 543.076 27.5893 519.239 46.1145Z" fill="#4F976E"/>
<path d="M602.06 71.4374L596.422 66.4926L585.219 67.3095L589.03 59.6158L586.692 54.0185L574.755 47.8851L577.943 44.7687L570.061 36.2797L581.262 44.5267L576.36 37.4684L575.834 25.9712L570.913 18.5022L578.229 23.7366L580.924 37.1356L588.109 39.4956L589.28 28.6986L592.184 28.4869L596.745 46.2817L603.572 49.9038L608.966 49.5105L623.675 52.5578L618.432 56.2361L607.87 61.95L622.39 69.955L626.538 78.7163L613.375 73.0842L613.601 78.0116L623.236 88.4327L627.309 95.5515L619.917 88.6747L610.488 82.7704L612.278 94.5875L605.264 86.8593L602.06 71.4374Z" fill="#4F976E"/>
<path d="M199.509 20.2019C201.714 18.018 204.98 16.1699 207.977 17.5167C210.192 18.512 209.77 21.3689 211.737 22.7511C214.202 24.4829 216.98 23.844 219.971 24.4675L233.504 27.2886C241.293 28.9122 247.576 28.8158 254.945 31.7581C263.602 35.2148 270.119 39.0457 276.087 45.8474C283.182 53.9352 284.833 62.3932 287.048 72.4936C289.771 84.9114 290.054 94.9892 286.907 107.132C284.708 115.615 281.573 121.671 276.882 129.169C271.769 137.341 266.691 142.841 259.617 149.619C253.104 155.859 248.018 160.626 239.978 165.123C232.391 169.367 225.999 171.727 217.344 173.757C208.331 175.871 201.08 177.393 191.755 176.152C183.963 175.116 178.502 173.324 172.457 171.193C171.005 170.68 168.089 169.597 167.062 168.506C165.712 167.074 168.369 165.351 168.104 163.492C167.914 162.16 164.821 162.584 166.704 159.999C168.587 157.414 189.234 145.233 200.311 134.992C208.281 127.624 214.885 122.265 220.493 113.198C227.19 102.368 231.58 92.8366 231.356 80.17C231.128 67.2228 218.794 46.0848 218.794 46.0848C218.794 46.0848 213.215 36.9763 208.099 33.7048C204.66 31.5057 199.412 32.9458 197.58 29.4818C195.915 26.335 197.002 22.6846 199.509 20.2019Z" fill="#4F976E"/>
<path d="M504.754 183.511C507.09 181.197 510.55 179.239 513.725 180.666C516.072 181.721 515.625 184.747 517.709 186.212C520.32 188.046 523.263 187.369 526.432 188.03L540.768 191.019C549.02 192.739 555.676 192.637 563.483 195.754C572.654 199.416 579.559 203.474 585.881 210.68C593.398 219.248 595.147 228.209 597.493 238.909C600.378 252.065 600.678 262.741 597.344 275.605C595.014 284.592 591.693 291.008 586.723 298.951C581.307 307.608 575.927 313.436 568.433 320.616C561.533 327.227 556.145 332.277 547.627 337.041C539.589 341.537 532.817 344.037 523.649 346.188C514.1 348.428 506.419 350.04 496.539 348.726C488.284 347.628 482.499 345.73 476.095 343.471C474.556 342.929 471.467 341.781 470.379 340.625C468.949 339.108 471.764 337.283 471.483 335.313C471.282 333.902 468.005 334.352 470 331.613C471.995 328.874 493.868 315.969 505.604 305.12C514.047 297.315 521.043 291.637 526.984 282.031C534.08 270.558 538.73 260.46 538.493 247.042C538.251 233.325 525.185 210.931 525.185 210.931C525.185 210.931 519.275 201.282 513.854 197.816C510.211 195.486 504.651 197.012 502.71 193.342C500.946 190.008 502.098 186.141 504.754 183.511Z" fill="#4F976E"/>
<ellipse cx="232.681" cy="276.091" rx="81.8877" ry="76.5212" fill="#2B6243"/>
<ellipse cx="232.686" cy="275.742" rx="81.3301" ry="76.0001" fill="#2B6243"/>
<ellipse cx="232.687" cy="275.393" rx="80.7725" ry="75.479" fill="#2B6243"/>
<ellipse cx="232.689" cy="274.693" rx="79.6573" ry="74.4369" fill="#2B6243"/>
<ellipse cx="232.69" cy="274.344" rx="79.0997" ry="73.9159" fill="#2B6243"/>
<ellipse cx="232.69" cy="273.994" rx="78.5421" ry="73.3948" fill="#2B6243"/>
<ellipse cx="232.688" cy="273.645" rx="77.9845" ry="72.8737" fill="#2B6243"/>
<ellipse cx="232.685" cy="273.294" rx="77.4269" ry="72.3527" fill="#2B6243"/>
<ellipse cx="232.686" cy="272.945" rx="76.8693" ry="71.8317" fill="#2B6243"/>
<ellipse cx="232.691" cy="272.596" rx="76.3117" ry="71.3106" fill="#2B6243"/>
<ellipse cx="232.692" cy="272.247" rx="75.7541" ry="70.7895" fill="#F2AEA9"/>
<ellipse cx="232.696" cy="271.895" rx="75.1965" ry="70.2685" fill="#F0A7A1"/>
<ellipse cx="232.694" cy="271.546" rx="74.6389" ry="69.7474" fill="#EF9F9A"/>
<ellipse cx="232.695" cy="271.197" rx="74.0813" ry="69.2264" fill="#EE9892"/>
<ellipse cx="232.696" cy="270.848" rx="73.5237" ry="68.7053" fill="#ED918A"/>
<ellipse cx="232.7" cy="270.499" rx="72.9661" ry="68.1842" fill="#EC8982"/>
<ellipse cx="232.705" cy="270.15" rx="72.4085" ry="67.6632" fill="#EA827A"/>
<ellipse cx="232.699" cy="269.798" rx="71.8509" ry="67.1421" fill="#E97A73"/>
<ellipse cx="232.7" cy="269.449" rx="71.2933" ry="66.6211" fill="#E8736B"/>
<ellipse cx="232.704" cy="269.098" rx="70.7357" ry="66.1" fill="#E76C63"/>
<ellipse cx="232.702" cy="268.751" rx="70.1781" ry="65.579" fill="#E6645B"/>
<ellipse cx="232.703" cy="268.402" rx="69.6205" ry="65.0579" fill="#E45D53"/>
<ellipse cx="232.7" cy="268.051" rx="69.0629" ry="64.5368" fill="#E3564C"/>
<ellipse cx="232.701" cy="267.701" rx="68.5053" ry="64.0158" fill="#E24E44"/>
<ellipse cx="232.706" cy="267.352" rx="67.9477" ry="63.4947" fill="#E1473C"/>
<ellipse cx="232.706" cy="267.003" rx="67.3901" ry="62.9737" fill="#E04034"/>
<ellipse cx="232.711" cy="266.654" rx="66.8325" ry="62.4526" fill="#DE382C"/>
<ellipse cx="232.708" cy="266.303" rx="66.2749" ry="61.9316" fill="#DD3125"/>
<ellipse cx="232.709" cy="265.955" rx="65.7173" ry="61.4105" fill="#DC2A1D"/>
<ellipse cx="232.71" cy="265.604" rx="65.1597" ry="60.8895" fill="#DB2215"/>
<path d="M297.317 265.255C297.317 298.596 268.394 325.624 232.715 325.624C197.037 325.624 168.113 298.596 168.113 265.255C168.113 231.915 197.037 204.887 232.715 204.887C268.394 204.887 297.317 231.915 297.317 265.255Z" fill="#DD3125"/>
<ellipse cx="22.0998" cy="10.1832" rx="22.0998" ry="10.1832" transform="matrix(0.881589 0.47203 -0.422302 0.906461 194.535 254.248)" fill="#D91B0D"/>
<ellipse cx="21.6106" cy="9.95777" rx="21.6106" ry="9.95777" transform="matrix(0.881589 0.47203 -0.422302 0.906461 194.914 254.6)" fill="#DB2213"/>
<ellipse cx="21.1215" cy="9.73238" rx="21.1215" ry="9.73238" transform="matrix(0.881589 0.47203 -0.422302 0.906461 195.301 254.951)" fill="#DC2819"/>
<ellipse cx="20.6323" cy="9.50698" rx="20.6323" ry="9.50698" transform="matrix(0.881589 0.47203 -0.422302 0.906461 195.68 255.303)" fill="#DD2F1F"/>
<ellipse cx="20.1432" cy="9.28159" rx="20.1432" ry="9.28159" transform="matrix(0.881589 0.47203 -0.422302 0.906461 196.059 255.654)" fill="#DF3626"/>
<ellipse cx="19.654" cy="9.0562" rx="19.654" ry="9.0562" transform="matrix(0.881589 0.47203 -0.422302 0.906461 196.438 256.006)" fill="#E03D2C"/>
<ellipse cx="19.1649" cy="8.83081" rx="19.1649" ry="8.83081" transform="matrix(0.881589 0.47203 -0.422302 0.906461 196.82 256.357)" fill="#E14332"/>
<ellipse cx="18.6757" cy="8.60542" rx="18.6757" ry="8.60542" transform="matrix(0.881589 0.47203 -0.422302 0.906461 197.199 256.709)" fill="#E24A38"/>
<ellipse cx="18.1866" cy="8.38002" rx="18.1866" ry="8.38002" transform="matrix(0.881589 0.47203 -0.422302 0.906461 197.578 257.061)" fill="#E4513E"/>
<ellipse cx="17.6974" cy="8.15463" rx="17.6974" ry="8.15463" transform="matrix(0.881589 0.47203 -0.422302 0.906461 197.957 257.412)" fill="#E55844"/>
<ellipse cx="17.2083" cy="7.92924" rx="17.2083" ry="7.92924" transform="matrix(0.881589 0.47203 -0.422302 0.906461 198.34 257.764)" fill="#E65F4A"/>
<ellipse cx="16.7191" cy="7.70385" rx="16.7191" ry="7.70385" transform="matrix(0.881589 0.47203 -0.422302 0.906461 198.723 258.115)" fill="#E76550"/>
<ellipse cx="16.23" cy="7.47846" rx="16.23" ry="7.47846" transform="matrix(0.881589 0.47203 -0.422302 0.906461 199.102 258.467)" fill="#E96C56"/>
<ellipse cx="15.7408" cy="7.25306" rx="15.7408" ry="7.25306" transform="matrix(0.881589 0.47203 -0.422302 0.906461 199.48 258.818)" fill="#EA735C"/>
<ellipse cx="15.2517" cy="7.02767" rx="15.2517" ry="7.02767" transform="matrix(0.881589 0.47203 -0.422302 0.906461 199.863 259.17)" fill="#EB7A62"/>
<ellipse cx="14.7625" cy="6.80228" rx="14.7625" ry="6.80228" transform="matrix(0.881589 0.47203 -0.422302 0.906461 200.238 259.521)" fill="#EC8068"/>
<ellipse cx="14.2734" cy="6.57689" rx="14.2734" ry="6.57689" transform="matrix(0.881589 0.47203 -0.422302 0.906461 200.625 259.873)" fill="#EE876F"/>
<ellipse cx="13.7842" cy="6.3515" rx="13.7842" ry="6.3515" transform="matrix(0.881589 0.47203 -0.422302 0.906461 201.004 260.225)" fill="#EF8E75"/>
<ellipse cx="13.2951" cy="6.1261" rx="13.2951" ry="6.1261" transform="matrix(0.881589 0.47203 -0.422302 0.906461 201.383 260.576)" fill="#F0957B"/>
<ellipse cx="12.8059" cy="5.90071" rx="12.8059" ry="5.90071" transform="matrix(0.881589 0.47203 -0.422302 0.906461 201.766 260.926)" fill="#F19B81"/>
<ellipse cx="12.3167" cy="5.67532" rx="12.3167" ry="5.67532" transform="matrix(0.881589 0.47203 -0.422302 0.906461 202.145 261.279)" fill="#F3A287"/>
<ellipse cx="11.8276" cy="5.44993" rx="11.8276" ry="5.44993" transform="matrix(0.881589 0.47203 -0.422302 0.906461 202.523 261.631)" fill="#F4A98D"/>
<path d="M224.633 202.888C224.014 198.747 221.357 199.344 221.819 196.703C222.312 193.889 224.395 191.996 227.065 192C229.126 192.003 230.903 192.75 231.644 194.811C232.066 195.985 231.644 198.032 231.644 198.032C231.644 198.032 231.534 205.572 231.644 210.402C231.93 222.902 234.887 241.276 234.267 242.298C233.647 243.32 230.66 245.34 228.305 244.547C226.119 243.811 224.395 242.707 224.633 239.64C224.872 236.573 225.253 207.028 224.633 202.888Z" fill="#4D772D"/>
<path d="M257.488 217.26C259.93 217.459 263.688 216.237 263.688 216.237L256.963 215.164C256.963 215.164 252.748 213.071 250.191 213.937C247.654 214.796 245.326 219.049 245.326 219.049L237.266 229.732C237.266 229.732 236.131 235.846 233.308 237.553C230.696 239.132 228.567 238.197 225.629 237.553C223.979 237.191 223.097 236.777 221.528 236.122C215.728 233.699 213.932 229.371 208.221 226.716C204.904 225.174 202.992 224.141 199.398 223.7C193.759 223.009 190.801 226.301 185.138 226.716C182.072 226.941 180.279 226.049 177.269 226.716C173.338 227.588 166.157 231.726 168.112 231.726C170.068 231.726 172.801 229.494 175.981 228.71C180.905 227.495 183.863 227.774 188.906 228.096C193.039 228.36 198.492 228.71 199.398 229.732C200.305 230.754 201.068 232.646 199.398 232.952C197.729 233.259 193.13 230.343 188.906 229.732C184.993 229.166 182.647 228.8 178.795 229.732C174.611 230.745 172.746 232.974 168.971 234.997C168.112 235.457 173.135 234.33 175.6 233.259C179.19 231.698 181.304 231.134 185.138 231.726C191.037 232.637 194.98 233.266 199.398 237.553C201.757 239.841 201.991 242.169 204.263 244.556C207.945 248.424 211.414 248.553 215.709 251.61C218.806 253.814 220.092 255.797 223.388 257.642C228.349 260.418 234.357 261.986 237.266 261.475C240.175 260.964 241.11 259.164 243.085 257.028C245.059 254.892 243.856 252.364 245.326 250.383C250.449 243.479 258.965 248.566 265.166 242.767C269.491 238.723 270.667 235.131 273.417 229.732C275.161 226.307 276.743 224.528 277.375 220.685C277.796 218.129 279.01 215.953 277.375 214.039C276.88 213.459 276.569 213.02 275.849 212.864C274.828 212.642 272.988 213.021 273.417 214.039C273.807 214.967 275.007 213.569 275.849 214.039C277.468 214.942 276.154 217.12 275.849 219.049C275.214 223.07 273.56 225.387 270.985 228.096C268.409 230.806 262.921 233.326 257.488 236.122C252.844 238.511 245.326 241.591 245.326 241.591C245.326 241.591 242.798 242.869 242.321 241.591C241.845 240.313 246.28 231.726 246.28 231.726C246.28 231.726 247.949 221.4 249.809 219.049C251.669 216.697 251.685 216.588 253.386 216.237C255.001 215.904 255.848 217.126 257.488 217.26Z" fill="#4D772D"/>
</svg>
