<svg width="402" height="347" viewBox="0 0 402 347" fill="none" xmlns="http://www.w3.org/2000/svg">
<path d="M131.741 267.699C140.738 279.899 170.931 298.015 184.733 288.575C198.536 279.135 190.722 245.715 181.725 233.515C172.727 221.315 154.244 219.077 140.442 228.517C126.639 237.956 122.743 255.499 131.741 267.699Z" fill="#4F976E"/>
<path d="M146.879 227.097L144.181 229.797L144.327 235.374L140.44 233.329L137.486 234.378L134.017 240.181L132.483 238.537L127.896 242.281L132.44 236.885L128.667 239.178L122.704 239.21L118.718 241.504L121.607 237.977L128.607 236.906L130.006 233.386L124.448 232.591L124.41 231.145L133.731 229.235L135.774 225.918L135.704 223.233L137.644 215.992L139.418 218.668L142.114 224.024L146.615 216.976L151.251 215.092L148.011 221.513L150.566 221.499L156.197 216.924L159.981 215.044L156.24 218.576L152.952 223.139L159.111 222.485L154.939 225.813L146.879 227.097Z" fill="#4F976E"/>
<path d="M358.192 238.649C360.36 239.171 362.724 240.469 363.036 242.81C363.267 244.54 361.363 245.362 361.264 247.086C361.139 249.247 362.581 250.704 363.332 252.768L366.731 262.105C368.687 267.479 371.124 271.283 372.116 276.899C373.282 283.496 373.41 288.928 371.517 295.145C369.265 302.538 364.728 306.744 359.401 311.914C352.852 318.271 346.808 322.252 338.205 324.917C332.195 326.779 327.312 327.151 320.961 327.117C314.038 327.08 308.76 326.055 301.946 324.293C295.672 322.67 290.838 321.363 285.051 318.148C279.59 315.114 275.73 312.1 271.216 307.577C266.515 302.867 262.843 299.01 260.071 292.842C257.755 287.688 256.782 283.673 255.796 279.173C255.559 278.091 255.117 275.9 255.394 274.86C255.757 273.494 257.814 274.467 258.849 273.602C259.59 272.983 258.16 271.252 260.451 271.426C262.741 271.6 277.989 279.617 288.432 282.517C295.945 284.604 301.715 286.616 309.371 286.617C318.516 286.618 325.994 285.699 333.641 280.776C341.457 275.743 349.692 260.217 349.692 260.217C349.692 260.217 353.141 253.365 353.201 249.002C353.242 246.069 350.377 243.406 351.798 240.977C353.089 238.77 355.729 238.055 358.192 238.649Z" fill="#4F976E"/>
<path d="M7.48599 66.8979C18.2299 66.4891 24.2082 69.3964 34.3231 73.0415C45.3744 77.024 50.8803 80.9671 61.032 86.8776C73.9828 94.4178 82.0478 97.9127 92.9159 108.231C99.9767 114.934 104.277 118.763 109.008 127.273C114.521 137.187 116.212 143.872 117.053 155.185C117.845 165.832 117.549 172.337 113.784 182.327C110.186 191.873 105.568 196.022 99.249 204.031C93.0856 211.842 89.4191 216.154 81.994 222.778C70.6027 232.94 63.4827 238.624 49.236 244.107C40.8977 247.316 35.8309 248.054 27.0422 249.662C16.7971 251.536 10.0082 256.781 0.522218 252.481C-2.54281 251.092 -4.42056 250.218 -6.63765 247.686C-9.78323 244.094 -7.41362 239.583 -10.7585 236.176C-12.3794 234.525 -13.5417 233.76 -15.6809 232.879C-21.492 230.486 -25.5234 237.6 -31.5207 235.721C-35.1836 234.574 -36.9519 232.944 -39.6874 230.252C-44.1643 225.845 -41.1476 217.818 -47.1634 216.008C-49.6634 215.256 -53.8481 216.069 -53.8481 216.069C-53.8481 216.069 -56.0876 215.541 -59.1061 212.547C-62.1246 209.553 -65.2489 190.903 -66.0137 176.645C-66.7414 163.079 -66.3348 155.215 -63.3638 141.959C-59.9698 126.814 -56.8712 118.152 -48.4234 105.132C-40.5939 93.0651 -35.3654 86.0109 -23.2717 78.2229C-12.5101 71.2927 -5.30473 67.3846 7.48599 66.8979Z" fill="#4F976E"/>
<path d="M73.7315 94.8393L58.8047 98.3305L59.184 95.3474L73.2827 91.4815C73.2827 91.4815 77.0353 88.2857 79.4687 86.2727C83.3795 83.0376 85.0742 80.4309 89.598 78.1298C96.1838 74.7798 100.882 75.4771 108.254 74.978C116.561 74.4156 121.485 73.8786 129.554 75.9347C140.711 78.7777 146.895 82.6996 154.926 90.9491C159.953 96.1123 165.463 106.098 165.463 106.098C165.463 106.098 149.494 114.146 138.38 115.656C131.388 116.606 127.337 116.442 120.311 115.783C112.597 115.06 108.216 114.263 100.882 111.764C92.3182 108.846 87.2569 106.937 80.2661 101.194C77.5158 98.9341 73.7315 94.8393 73.7315 94.8393Z" fill="#4F976E"/>
<path d="M60.5345 56.1976C59.294 53.662 55.7098 52.0472 57.3156 49.7257C58.6803 47.7528 61.0113 48.8876 63.4094 48.9511C65.9447 49.0183 67.845 48.5376 69.789 50.1664C73.1698 52.9991 68.1732 56.9425 68.2321 61.3527C68.2959 66.1395 70.119 68.6385 70.4031 73.4172C70.7364 79.0242 69.6478 82.151 69.2539 87.754C68.8651 93.2849 73.9296 102.261 68.3952 101.926C65.5993 101.756 63.2841 102.098 62.4358 97.9346C61.5875 93.7708 64.1355 86.8566 64.2148 79.7035C64.2974 72.2673 65.4361 67.6429 62.7215 60.7195C62.0054 58.8932 61.3966 57.9596 60.5345 56.1976Z" fill="#4F976E"/>
<ellipse cx="216" cy="130.793" rx="27.0198" ry="35.9451" transform="rotate(8.25107 216 130.793)" fill="#F53232"/>
<ellipse cx="276.542" cy="140.274" rx="104.852" ry="104.94" transform="rotate(-65.2626 276.542 140.274)" fill="#EEE5D2"/>
<ellipse cx="276.794" cy="141.468" rx="104.073" ry="104.25" transform="rotate(-64.5275 276.794 141.468)" fill="#EEE3D1"/>
<ellipse cx="277.028" cy="142.645" rx="103.295" ry="103.56" transform="rotate(-63.7923 277.028 142.645)" fill="#EEE2CF"/>
<ellipse cx="277.222" cy="143.805" rx="102.517" ry="102.87" transform="rotate(-63.0572 277.222 143.805)" fill="#EEE0CE"/>
<ellipse cx="277.375" cy="144.946" rx="101.738" ry="102.18" transform="rotate(-62.322 277.375 144.946)" fill="#EEDECC"/>
<ellipse cx="277.507" cy="146.071" rx="100.96" ry="101.49" transform="rotate(-61.5869 277.507 146.071)" fill="#EEDCCA"/>
<ellipse cx="277.612" cy="147.177" rx="100.182" ry="100.8" transform="rotate(-60.8518 277.612 147.177)" fill="#EEDAC9"/>
<ellipse cx="277.67" cy="148.266" rx="99.4035" ry="100.11" transform="rotate(-60.1166 277.67 148.266)" fill="#EFD9C7"/>
<ellipse cx="277.709" cy="149.332" rx="98.6252" ry="99.4205" transform="rotate(-59.3815 277.709 149.332)" fill="#EFD7C6"/>
<ellipse cx="277.717" cy="150.381" rx="97.8468" ry="98.7305" transform="rotate(-58.6464 277.717 150.381)" fill="#EFD5C4"/>
<ellipse cx="277.687" cy="151.41" rx="97.0686" ry="98.0406" transform="rotate(-57.9112 277.687 151.41)" fill="#EFD3C2"/>
<ellipse cx="277.635" cy="152.417" rx="96.2902" ry="97.3507" transform="rotate(-57.1761 277.635 152.417)" fill="#EFD1C1"/>
<ellipse cx="277.547" cy="153.402" rx="95.5119" ry="96.6607" transform="rotate(-56.441 277.547 153.402)" fill="#EFD0BF"/>
<ellipse cx="277.433" cy="154.367" rx="94.7336" ry="95.9707" transform="rotate(-55.7058 277.433 154.367)" fill="#EFCEBE"/>
<ellipse cx="277.295" cy="155.311" rx="93.9553" ry="95.2808" transform="rotate(-54.9707 277.295 155.311)" fill="#EFCCBC"/>
<ellipse cx="277.121" cy="156.231" rx="93.177" ry="94.5909" transform="rotate(-54.2355 277.121 156.231)" fill="#EFCABA"/>
<ellipse cx="276.928" cy="157.13" rx="92.3986" ry="93.9009" transform="rotate(-53.5004 276.928 157.13)" fill="#EFC8B9"/>
<ellipse cx="276.7" cy="158.004" rx="91.6203" ry="93.211" transform="rotate(-52.7653 276.7 158.004)" fill="#EFC7B7"/>
<ellipse cx="276.453" cy="158.856" rx="90.842" ry="92.521" transform="rotate(-52.0301 276.453 158.856)" fill="#EFC5B5"/>
<ellipse cx="276.176" cy="159.682" rx="90.0637" ry="91.8311" transform="rotate(-51.295 276.176 159.682)" fill="#EFC3B4"/>
<ellipse cx="275.877" cy="160.486" rx="89.2854" ry="91.1411" transform="rotate(-50.5599 275.877 160.486)" fill="#EFC1B2"/>
<ellipse cx="275.546" cy="161.267" rx="88.5071" ry="90.4512" transform="rotate(-49.8247 275.546 161.267)" fill="#F0C0B1"/>
<ellipse cx="275.193" cy="162.019" rx="87.7287" ry="89.7612" transform="rotate(-49.0896 275.193 162.019)" fill="#F0BEAF"/>
<ellipse cx="274.821" cy="162.748" rx="86.9504" ry="89.0713" transform="rotate(-48.3545 274.821 162.748)" fill="#F0BCAD"/>
<ellipse cx="274.417" cy="163.45" rx="86.1721" ry="88.3813" transform="rotate(-47.6193 274.417 163.45)" fill="#F0BAAC"/>
<ellipse cx="273.994" cy="164.129" rx="85.3938" ry="87.6914" transform="rotate(-46.8842 273.994 164.129)" fill="#F0B8AA"/>
<ellipse cx="273.552" cy="164.78" rx="84.6155" ry="87.0014" transform="rotate(-46.149 273.552 164.78)" fill="#F0B7A9"/>
<ellipse cx="273.08" cy="165.404" rx="83.8371" ry="86.3114" transform="rotate(-45.4139 273.08 165.404)" fill="#F0B5A7"/>
<ellipse cx="272.595" cy="166.002" rx="83.0588" ry="85.6215" transform="rotate(-44.6788 272.595 166.002)" fill="#F0B3A5"/>
<ellipse cx="272.084" cy="166.574" rx="82.2805" ry="84.9316" transform="rotate(-43.9436 272.084 166.574)" fill="#F0B1A4"/>
<ellipse cx="271.549" cy="167.117" rx="81.5022" ry="84.2416" transform="rotate(-43.2085 271.549 167.117)" fill="#F0AFA2"/>
<ellipse cx="270.998" cy="167.631" rx="80.7238" ry="83.5517" transform="rotate(-42.4734 270.998 167.631)" fill="#F0AEA1"/>
<ellipse cx="270.432" cy="168.121" rx="79.9455" ry="82.8617" transform="rotate(-41.7382 270.432 168.121)" fill="#F0AC9F"/>
<ellipse cx="269.842" cy="168.58" rx="79.1672" ry="82.1718" transform="rotate(-41.0031 269.842 168.58)" fill="#F0AA9D"/>
<ellipse cx="269.234" cy="169.012" rx="78.3889" ry="81.4818" transform="rotate(-40.2679 269.234 169.012)" fill="#F0A89C"/>
<ellipse cx="268.616" cy="169.416" rx="77.6106" ry="80.7919" transform="rotate(-39.5328 268.616 169.416)" fill="#F0A69A"/>
<ellipse cx="267.968" cy="169.79" rx="76.8322" ry="80.1019" transform="rotate(-38.7977 267.968 169.79)" fill="#F1A599"/>
<ellipse cx="267.304" cy="170.134" rx="76.0539" ry="79.412" transform="rotate(-38.0625 267.304 170.134)" fill="#F1A397"/>
<ellipse cx="266.628" cy="170.451" rx="75.2756" ry="78.722" transform="rotate(-37.3274 266.628 170.451)" fill="#F1A195"/>
<ellipse cx="265.935" cy="170.738" rx="74.4973" ry="78.032" transform="rotate(-36.5923 265.935 170.738)" fill="#F19F94"/>
<ellipse cx="265.232" cy="170.994" rx="73.719" ry="77.3421" transform="rotate(-35.8571 265.232 170.994)" fill="#F19D92"/>
<ellipse cx="264.514" cy="171.222" rx="72.9407" ry="76.6521" transform="rotate(-35.122 264.514 171.222)" fill="#F19C91"/>
<ellipse cx="263.77" cy="171.419" rx="72.1623" ry="75.9622" transform="rotate(-34.3869 263.77 171.419)" fill="#F19A8F"/>
<ellipse cx="263.024" cy="171.586" rx="71.384" ry="75.2723" transform="rotate(-33.6517 263.024 171.586)" fill="#F1988D"/>
<ellipse cx="262.261" cy="171.722" rx="70.6057" ry="74.5823" transform="rotate(-32.9166 262.261 171.722)" fill="#F1968C"/>
<ellipse cx="261.49" cy="171.831" rx="69.8274" ry="73.8924" transform="rotate(-32.1814 261.49 171.831)" fill="#F1948A"/>
<ellipse cx="260.699" cy="171.906" rx="69.0491" ry="73.2024" transform="rotate(-31.4463 260.699 171.906)" fill="#F19388"/>
<ellipse cx="259.897" cy="171.952" rx="68.2708" ry="72.5125" transform="rotate(-30.7112 259.897 171.952)" fill="#F19187"/>
<ellipse cx="259.096" cy="171.966" rx="67.4924" ry="71.8225" transform="rotate(-29.976 259.096 171.966)" fill="#F18F85"/>
<ellipse cx="258.276" cy="171.949" rx="66.7141" ry="71.1326" transform="rotate(-29.2409 258.276 171.949)" fill="#F18D84"/>
<ellipse cx="257.448" cy="171.903" rx="65.9358" ry="70.4426" transform="rotate(-28.5058 257.448 171.903)" fill="#F28B82"/>
<ellipse cx="256.61" cy="171.825" rx="65.1575" ry="69.7527" transform="rotate(-27.7706 256.61 171.825)" fill="#F28A80"/>
<ellipse cx="255.763" cy="171.716" rx="64.3791" ry="69.0627" transform="rotate(-27.0355 255.763 171.716)" fill="#F2887F"/>
<ellipse cx="254.909" cy="171.576" rx="63.6008" ry="68.3727" transform="rotate(-26.3004 254.909 171.576)" fill="#F2867D"/>
<ellipse cx="254.051" cy="171.403" rx="62.8225" ry="67.6828" transform="rotate(-25.5652 254.051 171.403)" fill="#F2847C"/>
<ellipse cx="253.175" cy="171.202" rx="62.0442" ry="66.9929" transform="rotate(-24.8301 253.175 171.202)" fill="#F2827A"/>
<ellipse cx="252.305" cy="170.966" rx="61.2659" ry="66.3029" transform="rotate(-24.0949 252.305 170.966)" fill="#F28178"/>
<ellipse cx="251.424" cy="170.702" rx="60.4875" ry="65.6129" transform="rotate(-23.3598 251.424 170.702)" fill="#F27F77"/>
<ellipse cx="250.543" cy="170.405" rx="59.7092" ry="64.923" transform="rotate(-22.6247 250.543 170.405)" fill="#F27D75"/>
<ellipse cx="249.649" cy="170.077" rx="58.9309" ry="64.2331" transform="rotate(-21.8895 249.649 170.077)" fill="#F27B74"/>
<ellipse cx="248.759" cy="169.717" rx="58.1526" ry="63.5431" transform="rotate(-21.1544 248.759 169.717)" fill="#F27972"/>
<ellipse cx="247.858" cy="169.328" rx="57.3742" ry="62.8531" transform="rotate(-20.4193 247.858 169.328)" fill="#F27870"/>
<ellipse cx="246.958" cy="168.905" rx="56.5959" ry="62.1632" transform="rotate(-19.6841 246.958 168.905)" fill="#F2766F"/>
<ellipse cx="246.059" cy="168.451" rx="55.8176" ry="61.4732" transform="rotate(-18.949 246.059 168.451)" fill="#F2746D"/>
<ellipse cx="245.155" cy="167.966" rx="55.0393" ry="60.7833" transform="rotate(-18.2139 245.155 167.966)" fill="#F2726C"/>
<ellipse cx="244.25" cy="167.452" rx="54.261" ry="60.0933" transform="rotate(-17.4787 244.25 167.452)" fill="#F3716A"/>
<ellipse cx="243.344" cy="166.906" rx="53.4827" ry="59.4034" transform="rotate(-16.7436 243.344 166.906)" fill="#F36F68"/>
<ellipse cx="242.435" cy="166.327" rx="52.7044" ry="58.7135" transform="rotate(-16.0084 242.435 166.327)" fill="#F36D67"/>
<ellipse cx="241.533" cy="165.718" rx="51.926" ry="58.0235" transform="rotate(-15.2733 241.533 165.718)" fill="#F36B65"/>
<ellipse cx="240.629" cy="165.078" rx="51.1477" ry="57.3336" transform="rotate(-14.5382 240.629 165.078)" fill="#F36964"/>
<ellipse cx="239.73" cy="164.409" rx="50.3694" ry="56.6436" transform="rotate(-13.803 239.73 164.409)" fill="#F36862"/>
<ellipse cx="238.829" cy="163.708" rx="49.5911" ry="55.9537" transform="rotate(-13.0679 238.829 163.708)" fill="#F36660"/>
<ellipse cx="237.931" cy="162.976" rx="48.8128" ry="55.2637" transform="rotate(-12.3328 237.931 162.976)" fill="#F3645F"/>
<ellipse cx="237.033" cy="162.213" rx="48.0344" ry="54.5738" transform="rotate(-11.5976 237.033 162.213)" fill="#F3625D"/>
<ellipse cx="236.146" cy="161.42" rx="47.2561" ry="53.8838" transform="rotate(-10.8625 236.146 161.42)" fill="#F3605B"/>
<ellipse cx="235.259" cy="160.598" rx="46.4778" ry="53.1938" transform="rotate(-10.1273 235.259 160.598)" fill="#F35F5A"/>
<ellipse cx="234.378" cy="159.744" rx="45.6995" ry="52.5039" transform="rotate(-9.39221 234.378 159.744)" fill="#F35D58"/>
<ellipse cx="233.501" cy="158.861" rx="44.9211" ry="51.8139" transform="rotate(-8.65708 233.501 158.861)" fill="#F35B57"/>
<ellipse cx="232.635" cy="157.949" rx="44.1428" ry="51.124" transform="rotate(-7.92194 232.635 157.949)" fill="#F35955"/>
<ellipse cx="231.771" cy="157.008" rx="43.3645" ry="50.434" transform="rotate(-7.1868 231.771 157.008)" fill="#F45753"/>
<ellipse cx="230.91" cy="156.036" rx="42.5862" ry="49.7441" transform="rotate(-6.45166 230.91 156.036)" fill="#F45652"/>
<ellipse cx="230.06" cy="155.035" rx="41.8079" ry="49.0542" transform="rotate(-5.71653 230.06 155.035)" fill="#F45450"/>
<ellipse cx="229.219" cy="154.007" rx="41.0296" ry="48.3642" transform="rotate(-4.98139 229.219 154.007)" fill="#F4524F"/>
<ellipse cx="228.389" cy="152.948" rx="40.2513" ry="47.6743" transform="rotate(-4.24626 228.389 152.948)" fill="#F4504D"/>
<ellipse cx="227.561" cy="151.862" rx="39.4729" ry="46.9843" transform="rotate(-3.51112 227.561 151.862)" fill="#F44E4B"/>
<ellipse cx="226.751" cy="150.745" rx="38.6946" ry="46.2944" transform="rotate(-2.77598 226.751 150.745)" fill="#F44D4A"/>
<ellipse cx="225.946" cy="149.603" rx="37.9163" ry="45.6044" transform="rotate(-2.04085 225.946 149.603)" fill="#F44B48"/>
<ellipse cx="225.156" cy="148.431" rx="37.138" ry="44.9144" transform="rotate(-1.30571 225.156 148.431)" fill="#F44947"/>
<ellipse cx="224.369" cy="147.232" rx="36.3596" ry="44.2245" transform="rotate(-0.570573 224.369 147.232)" fill="#F44745"/>
<ellipse cx="223.601" cy="146.005" rx="35.5813" ry="43.5345" transform="rotate(0.164562 223.601 146.005)" fill="#F44543"/>
<ellipse cx="222.841" cy="144.753" rx="34.803" ry="42.8446" transform="rotate(0.899699 222.841 144.753)" fill="#F44442"/>
<ellipse cx="222.089" cy="143.472" rx="34.0247" ry="42.1546" transform="rotate(1.63484 222.089 143.472)" fill="#F44240"/>
<ellipse cx="221.363" cy="142.166" rx="33.2464" ry="41.4647" transform="rotate(2.36997 221.363 142.166)" fill="#F4403F"/>
<ellipse cx="220.634" cy="140.834" rx="32.4681" ry="40.7748" transform="rotate(3.10511 220.634 140.834)" fill="#F43E3D"/>
<ellipse cx="219.926" cy="139.475" rx="31.6897" ry="40.0848" transform="rotate(3.84024 219.926 139.475)" fill="#F53C3B"/>
<ellipse cx="219.241" cy="138.09" rx="30.9114" ry="39.3948" transform="rotate(4.57538 219.241 138.09)" fill="#F53B3A"/>
<ellipse cx="218.558" cy="136.68" rx="30.1331" ry="38.7049" transform="rotate(5.31052 218.558 136.68)" fill="#F53938"/>
<ellipse cx="217.895" cy="135.245" rx="29.3548" ry="38.0149" transform="rotate(6.04566 217.895 135.245)" fill="#F53737"/>
<ellipse cx="217.247" cy="133.785" rx="28.5764" ry="37.325" transform="rotate(6.78079 217.247 133.785)" fill="#F53535"/>
<ellipse cx="216.611" cy="132.3" rx="27.7981" ry="36.635" transform="rotate(7.51593 216.611 132.3)" fill="#F53333"/>
<path d="M249.047 96.2642C245.591 95.5055 244.698 92.3224 241.212 91.7147C239.007 91.3302 237.375 90.7899 235.486 91.9911C231.974 94.2241 234.75 99.168 237.239 102.504C239.76 105.881 243.03 105.675 246.97 107.172C250.805 108.629 253.445 112.019 257.064 110.086C259.795 108.628 260.478 106.274 261.045 103.231C261.661 99.9175 261.972 96.9541 259.418 94.7558C256.316 92.0863 253.045 97.1419 249.047 96.2642Z" fill="#78470F"/>
</svg>
