<svg width="402" height="480" viewBox="0 0 402 480" fill="none" xmlns="http://www.w3.org/2000/svg">
<path d="M256.28 273.624C258.444 261.897 263.059 256.297 269.48 246.447C276.497 235.684 282.124 230.9 291.019 221.679C302.368 209.915 308.128 202.235 321.993 193.541C331.002 187.892 336.212 184.377 346.619 181.779C358.745 178.752 366.429 178.899 378.943 181.331C390.72 183.619 397.726 185.859 407.682 192.876C417.194 199.581 420.588 205.796 427.768 214.986C434.771 223.951 438.573 229.185 443.977 239.162C452.269 254.469 456.724 263.838 459.232 280.848C460.699 290.803 460.272 296.495 459.888 306.463C459.439 318.084 463.499 326.967 456.517 335.945C454.261 338.846 452.854 340.616 449.561 342.264C444.89 344.601 440.556 340.709 436.037 343.317C433.847 344.58 432.733 345.61 431.255 347.661C427.24 353.232 434.002 359.687 430.502 365.611C428.364 369.229 426.162 370.659 422.568 372.819C416.686 376.353 408.684 370.724 405.255 376.689C403.83 379.168 403.698 383.928 403.698 383.928C403.698 383.928 402.58 386.192 398.59 388.568C394.6 390.945 373.548 388.813 357.849 385.43C342.912 382.21 334.454 379.449 320.751 372.325C305.097 364.187 296.424 358.281 284.308 345.311C273.08 333.29 266.673 325.559 261.135 310.195C256.208 296.523 253.705 287.585 256.28 273.624Z" fill="#DDE7C1"/>
<path d="M302.757 210.315L302.932 227.471L299.778 226.181L298.995 209.809C298.995 209.809 296.428 204.811 294.829 201.588C292.258 196.408 289.833 193.808 288.428 188.241C286.382 180.138 288.281 175.268 289.528 167.157C290.933 158.017 291.544 152.539 295.74 144.43C301.542 133.217 307.31 127.694 318.236 121.454C325.075 117.548 337.277 114.545 337.277 114.545C337.277 114.545 342.157 134.172 341.102 146.624C340.438 154.458 339.277 158.786 336.854 166.181C334.194 174.301 332.263 178.797 327.764 185.982C322.51 194.372 319.204 199.276 311.258 205.133C308.131 207.436 302.757 210.315 302.757 210.315Z" fill="#DDE7C1"/>
<path d="M257.537 213.144C254.477 213.735 251.85 217.13 249.714 214.71C247.899 212.653 249.699 210.47 250.351 207.898C251.039 205.179 250.978 202.985 253.222 201.365C257.125 198.55 260.202 205.112 265.015 206.35C270.239 207.695 273.401 206.463 278.669 207.567C284.851 208.863 287.989 210.962 293.99 213.042C299.913 215.095 310.91 212.275 309.201 218.154C308.338 221.125 308.148 223.727 303.412 223.414C298.675 223.101 291.771 218.307 284.007 216.109C275.936 213.824 271.181 211.228 262.988 212.116C260.828 212.351 259.664 212.733 257.537 213.144Z" fill="#DDE7C1"/>
<path d="M67.8176 236.02C32.3668 241.409 -37.7033 283.807 -31.7768 322.068C-25.8503 360.329 53.8287 379.964 89.2795 374.576C124.73 369.187 148.664 333.802 142.738 295.541C136.811 257.28 103.268 230.632 67.8176 236.02Z" fill="#DDE7C1"/>
<path d="M139.104 310.251L136.114 301.862L124.018 296.219L132.422 290.454L133.234 283.3L124.396 270.03L129.506 268.647L126.238 255.285L133.091 270.319L132.087 260.165L138.191 247.946L137.406 237.356L141.97 247.018L137.015 262.464L143.105 269.071L150.566 258.561L153.702 260.024L148.141 281.106L153.13 288.814L158.954 291.53L172.455 303.209L164.886 303.983L150.621 303.786L161.058 320.492L160.293 331.973L149.893 318.512L147.277 323.749L151.247 340.129L151.354 349.865L147.662 338.457L141.294 326.877L136.316 340.159L133.508 328.088L139.104 310.251Z" fill="#DDE7C1"/>
<path d="M263.501 65.2995C247.699 40.9229 155.475 59.676 32.4176 142.175C-90.6402 224.675 -149.211 307.016 -133.409 331.393C-117.607 355.769 -26.7618 323.215 96.296 240.715C219.354 158.216 279.303 89.6761 263.501 65.2995Z" fill="#DDE7C1"/>
<path d="M32.6429 142.601C140.155 70.5232 248.096 45.0347 261.902 66.3319C275.708 87.6291 203.53 168.285 96.017 240.363C-11.4956 312.44 -118.069 351.621 -131.875 330.324C-145.68 309.027 -74.8696 214.678 32.6429 142.601Z" fill="#FDF8F3"/>
<path d="M32.872 143.016C140.385 70.9388 246.501 46.0573 260.307 67.3545C274.113 88.6517 203.254 167.923 95.7418 240C-11.7708 312.078 -116.53 350.543 -130.336 329.246C-144.142 307.949 -74.6405 215.094 32.872 143.016Z" fill="#FAF1E7"/>
<path d="M33.0973 143.447C140.61 71.3692 244.901 47.0946 258.707 68.3918C272.513 89.689 202.975 167.575 95.4627 239.653C-12.0499 311.73 -114.996 349.479 -128.802 328.182C-142.608 306.885 -74.4153 215.524 33.0973 143.447Z" fill="#F8E9DA"/>
<path d="M33.3147 143.863C140.827 71.7857 243.295 48.1181 257.1 69.4153C270.906 90.7125 202.688 167.214 95.1758 239.291C-12.3368 311.369 -113.469 348.402 -127.275 327.105C-141.081 305.808 -74.1978 215.941 33.3147 143.863Z" fill="#F5E2CE"/>
<path d="M33.5517 144.29C141.064 72.2122 241.707 49.1515 255.513 70.4487C269.319 91.7459 202.421 166.862 94.9084 238.94C-12.6042 311.017 -111.923 347.335 -125.729 326.037C-139.535 304.74 -73.9609 216.367 33.5517 144.29Z" fill="#F3DBC2"/>
<path d="M33.7691 144.714C141.282 72.6366 240.1 50.1829 253.906 71.4801C267.712 92.7773 202.134 166.509 94.6215 238.586C-12.8911 310.664 -110.396 346.265 -124.202 324.968C-138.008 303.671 -73.7435 216.792 33.7691 144.714Z" fill="#F0D4B6"/>
<path d="M33.9943 145.139C141.507 73.061 238.501 51.2143 252.307 72.5115C266.112 93.8087 201.855 166.155 94.3423 238.233C-13.1702 310.31 -108.862 345.196 -122.668 323.898C-136.473 302.601 -73.5182 217.216 33.9943 145.139Z" fill="#EECDA9"/>
<path d="M34.2196 145.559C141.732 73.4816 236.901 52.2418 250.707 73.539C264.513 94.8362 201.576 165.798 94.0632 237.875C-13.4493 309.953 -107.327 344.122 -121.133 322.825C-134.939 301.528 -73.293 217.637 34.2196 145.559Z" fill="#EBC69D"/>
<path d="M34.4487 145.983C141.961 73.9051 235.306 53.2722 249.112 74.5694C262.918 95.8666 201.301 165.443 93.788 237.521C-13.7245 309.598 -105.789 343.052 -119.595 321.754C-133.401 300.457 -73.0638 218.06 34.4487 145.983Z" fill="#E9BE91"/>
<path d="M34.6779 146.405C142.19 74.3275 233.711 54.3017 247.517 75.5989C261.323 96.8961 201.025 165.087 93.5129 237.165C-13.9997 309.243 -104.25 341.98 -118.056 320.683C-131.862 299.386 -72.8347 218.483 34.6779 146.405Z" fill="#E6B785"/>
<path d="M34.8992 146.833C142.412 74.7549 232.108 55.336 245.914 76.6332C259.719 97.9304 200.742 164.737 93.2299 236.814C-14.2827 308.892 -102.72 340.914 -116.526 319.616C-130.332 298.319 -72.6133 218.91 34.8992 146.833Z" fill="#E4B078"/>
<path d="M35.1284 147.255C142.641 75.1775 230.512 56.3656 244.318 77.6628C258.124 98.96 200.467 164.381 92.9547 236.459C-14.5579 308.537 -101.181 339.842 -114.987 318.545C-128.793 297.248 -72.3842 219.333 35.1284 147.255Z" fill="#E1A96C"/>
<path d="M35.3536 147.669C142.866 75.5912 228.913 57.3862 242.719 78.6834C256.525 99.9806 200.188 164.017 92.6756 236.095C-14.837 308.172 -99.6469 338.762 -113.453 317.465C-127.259 296.168 -72.1589 219.746 35.3536 147.669Z" fill="#DFA260"/>
<path d="M35.5749 148.098C143.087 76.0205 227.31 58.4225 241.116 79.7197C254.922 101.017 199.905 163.668 92.3926 235.746C-15.12 307.824 -98.1163 337.697 -111.922 316.4C-125.728 295.103 -71.9376 220.176 35.5749 148.098Z" fill="#DC9A54"/>
<path d="M35.8002 148.508C143.313 76.4303 225.711 59.4393 239.517 80.7365C253.323 102.034 199.626 163.3 92.1135 235.378C-15.3991 307.455 -96.5818 336.613 -110.388 315.316C-124.194 294.019 -71.7123 220.585 35.8002 148.508Z" fill="#DA9347"/>
<path d="M237.917 81.7678C224.111 60.4706 143.538 76.8547 36.0254 148.932C-71.4871 221.01 -122.659 292.949 -108.853 314.247C-95.0474 335.544 -15.6782 307.102 91.8344 235.024C199.347 162.947 251.723 103.065 237.917 81.7678Z" fill="#D78C3B"/>
<ellipse cx="32.7129" cy="9.89123" rx="32.7129" ry="9.89123" transform="matrix(0.981684 0.144751 0.155903 -0.995529 -61.4688 276.303)" fill="#9F3F00"/>
<ellipse cx="32.7129" cy="9.89123" rx="32.7129" ry="9.89123" transform="matrix(0.981684 0.144751 0.155903 -0.995529 5.50781 225.772)" fill="#9F3F00"/>
<ellipse cx="32.7129" cy="9.89123" rx="32.7129" ry="9.89123" transform="matrix(0.981684 0.144751 0.155903 -0.995529 74.3867 178.181)" fill="#9F3F00"/>
<ellipse cx="32.7129" cy="9.89123" rx="32.7129" ry="9.89123" transform="matrix(0.981684 0.144751 0.155903 -0.995529 143.906 131.578)" fill="#9F3F00"/>
<path d="M-24.8252 93.1244C-45.4088 114.895 -69.7761 178.838 -46.2067 200.997C-22.6373 223.155 39.9434 195.137 60.527 173.367C81.1106 151.597 78.6901 115.985 55.1207 93.8269C31.5514 71.6686 -4.24166 71.354 -24.8252 93.1244Z" fill="#DDE7C1"/>
<path d="M60.274 105.382L53.9922 101.392L43.1234 103.892L45.6969 95.7751L42.5548 90.6448L29.9121 86.4458L32.5679 82.9084L23.5473 75.7858L35.7882 82.1676L29.9082 75.9948L27.6496 64.8083L21.6889 58.236L29.6615 62.2551L34.3363 74.9762L41.7442 76.1986L41.2571 65.4407L44.0749 64.7925L51.2472 81.5379L58.4946 84.0515L63.7277 82.8477L78.6236 83.6018L74.0358 88.0018L64.5375 95.2037L79.9988 100.845L85.3964 108.801L71.6268 105.279L72.5948 110.073L83.6288 118.823L88.7037 125.181L80.4084 119.564L70.2617 115.209L73.8087 126.517L65.7546 120.008L60.274 105.382Z" fill="#DDE7C1"/>
</svg>
