<svg width="668" height="314" viewBox="0 0 668 314" fill="none" xmlns="http://www.w3.org/2000/svg">
<rect width="324.701" height="313.32" rx="34.8193" fill="#969ADA"/>
<ellipse cx="73.3705" cy="77.125" rx="35.8634" ry="33.9902" fill="#A6AAF0"/>
<ellipse cx="163.189" cy="77.125" rx="35.8634" ry="33.9902" fill="#A6AAF0"/>
<ellipse cx="252.999" cy="77.125" rx="35.8634" ry="33.9902" fill="#A6AAF0"/>
<ellipse cx="73.3705" cy="157.701" rx="35.8634" ry="33.9902" fill="#A6AAF0"/>
<ellipse cx="163.189" cy="157.701" rx="35.8634" ry="33.9902" fill="#A6AAF0"/>
<ellipse cx="252.999" cy="157.701" rx="35.8634" ry="33.9902" fill="#A6AAF0"/>
<ellipse cx="73.3705" cy="238.279" rx="35.8634" ry="33.9902" fill="#A6AAF0"/>
<ellipse cx="163.189" cy="238.279" rx="35.8634" ry="33.9902" fill="#A6AAF0"/>
<ellipse cx="252.999" cy="238.279" rx="35.8634" ry="33.9902" fill="#A6AAF0"/>
<ellipse cx="23.0471" cy="29.7366" rx="23.0471" ry="29.7366" transform="matrix(1.00064 0.137526 -0.149611 0.977828 92.0143 117.073)" fill="#F53232"/>
<ellipse cx="86.5053" cy="89.7394" rx="86.5053" ry="89.7394" transform="matrix(0.437439 -0.899837 0.915983 0.399987 42.798 199.018)" fill="#EEE5D2"/>
<ellipse cx="85.8647" cy="89.1478" rx="85.8647" ry="89.1478" transform="matrix(0.449576 -0.894428 0.910508 0.411099 43.2922 198.198)" fill="#EEE3D1"/>
<ellipse cx="85.2252" cy="88.5553" rx="85.2252" ry="88.5553" transform="matrix(0.461633 -0.88886 0.904894 0.422149 43.7814 197.378)" fill="#EEE2CF"/>
<ellipse cx="84.5867" cy="87.9618" rx="84.5867" ry="87.9618" transform="matrix(0.473607 -0.883135 0.89914 0.433135 44.2727 196.558)" fill="#EEE0CE"/>
<ellipse cx="83.9491" cy="87.3674" rx="83.9491" ry="87.3674" transform="matrix(0.485497 -0.877255 0.893249 0.444056 44.7668 195.739)" fill="#EEDECC"/>
<ellipse cx="83.3125" cy="86.7721" rx="83.3125" ry="86.7721" transform="matrix(0.497299 -0.871221 0.887219 0.45491 45.2595 194.92)" fill="#EEDCCA"/>
<ellipse cx="82.6768" cy="86.1758" rx="82.6768" ry="86.1758" transform="matrix(0.509012 -0.865034 0.881053 0.465695 45.7509 194.1)" fill="#EEDAC9"/>
<ellipse cx="82.0419" cy="85.5787" rx="82.0419" ry="85.5787" transform="matrix(0.520633 -0.858695 0.87475 0.476411 46.2443 193.281)" fill="#EFD9C7"/>
<ellipse cx="81.4079" cy="84.9807" rx="81.4079" ry="84.9807" transform="matrix(0.532159 -0.852205 0.868313 0.487056 46.7334 192.463)" fill="#EFD7C6"/>
<ellipse cx="80.7748" cy="84.3819" rx="80.7748" ry="84.3819" transform="matrix(0.54359 -0.845567 0.86174 0.497628 47.2268 191.641)" fill="#EFD5C4"/>
<ellipse cx="80.1424" cy="83.7823" rx="80.1424" ry="83.7823" transform="matrix(0.554921 -0.83878 0.855034 0.508126 47.7209 190.821)" fill="#EFD3C2"/>
<ellipse cx="79.5108" cy="83.1819" rx="79.5108" ry="83.1819" transform="matrix(0.566152 -0.831848 0.848195 0.518548 48.2108 190.002)" fill="#EFD1C1"/>
<ellipse cx="78.88" cy="82.5808" rx="78.88" ry="82.5808" transform="matrix(0.577279 -0.824771 0.841223 0.528894 48.705 189.184)" fill="#EFD0BF"/>
<ellipse cx="78.2498" cy="81.979" rx="78.2498" ry="81.979" transform="matrix(0.588302 -0.817552 0.83412 0.539161 49.1984 188.365)" fill="#EFCEBE"/>
<ellipse cx="77.6204" cy="81.3764" rx="77.6204" ry="81.3764" transform="matrix(0.599217 -0.81019 0.826887 0.549349 49.6882 187.546)" fill="#EFCCBC"/>
<ellipse cx="76.9916" cy="80.7733" rx="76.9916" ry="80.7733" transform="matrix(0.610023 -0.802689 0.819523 0.559455 50.1816 186.723)" fill="#EFCABA"/>
<ellipse cx="76.3634" cy="80.1694" rx="76.3634" ry="80.1694" transform="matrix(0.620718 -0.79505 0.812031 0.569479 50.6759 185.906)" fill="#EFC8B9"/>
<ellipse cx="75.7358" cy="79.5649" rx="75.7358" ry="79.5649" transform="matrix(0.631299 -0.787274 0.80441 0.579418 51.1664 185.087)" fill="#EFC7B7"/>
<ellipse cx="75.1087" cy="78.9599" rx="75.1087" ry="78.9599" transform="matrix(0.641766 -0.779363 0.796663 0.589272 51.6556 184.268)" fill="#EFC5B5"/>
<ellipse cx="74.4822" cy="78.3543" rx="74.4822" ry="78.3543" transform="matrix(0.652115 -0.771319 0.788789 0.599039 52.149 183.448)" fill="#EFC3B4"/>
<ellipse cx="73.8561" cy="77.7482" rx="73.8561" ry="77.7482" transform="matrix(0.662345 -0.763144 0.78079 0.608718 52.6431 182.628)" fill="#EFC1B2"/>
<ellipse cx="73.2305" cy="77.1416" rx="73.2305" ry="77.1416" transform="matrix(0.672454 -0.754839 0.772666 0.618307 53.1331 181.808)" fill="#F0C0B1"/>
<ellipse cx="72.6053" cy="76.5345" rx="72.6053" ry="76.5345" transform="matrix(0.68244 -0.746407 0.764418 0.627805 53.6228 180.991)" fill="#F0BEAF"/>
<ellipse cx="71.9805" cy="75.927" rx="71.9805" ry="75.927" transform="matrix(0.692302 -0.737849 0.756048 0.63721 54.1206 180.172)" fill="#F0BCAD"/>
<ellipse cx="71.3561" cy="75.3191" rx="71.3561" ry="75.3191" transform="matrix(0.702038 -0.729166 0.747556 0.646521 54.6097 179.35)" fill="#F0BAAC"/>
<ellipse cx="70.7319" cy="74.7107" rx="70.7319" ry="74.7107" transform="matrix(0.711646 -0.720362 0.738944 0.655737 55.1002 178.532)" fill="#F0B8AA"/>
<ellipse cx="70.1081" cy="74.1021" rx="70.1081" ry="74.1021" transform="matrix(0.721124 -0.711437 0.730212 0.664856 55.5974 177.712)" fill="#F0B7A9"/>
<ellipse cx="69.4845" cy="73.493" rx="69.4845" ry="73.493" transform="matrix(0.730472 -0.702394 0.721361 0.673876 56.0872 176.892)" fill="#F0B5A7"/>
<ellipse cx="68.8613" cy="72.8838" rx="68.8613" ry="72.8838" transform="matrix(0.739687 -0.693235 0.712392 0.682797 56.5778 176.073)" fill="#F0B3A5"/>
<ellipse cx="68.2381" cy="72.2742" rx="68.2381" ry="72.2742" transform="matrix(0.748767 -0.683961 0.703307 0.691616 57.0719 175.254)" fill="#F0B1A4"/>
<ellipse cx="67.615" cy="71.6643" rx="67.615" ry="71.6643" transform="matrix(0.757712 -0.674575 0.694106 0.700333 57.5653 174.433)" fill="#F0AFA2"/>
<ellipse cx="66.9922" cy="71.0544" rx="66.9922" ry="71.0544" transform="matrix(0.76652 -0.665079 0.68479 0.708946 58.0546 173.615)" fill="#F0AEA1"/>
<ellipse cx="66.3695" cy="70.4442" rx="66.3695" ry="70.4442" transform="matrix(0.77519 -0.655474 0.675361 0.717453 58.5486 172.794)" fill="#F0AC9F"/>
<ellipse cx="65.7468" cy="69.8338" rx="65.7468" ry="69.8338" transform="matrix(0.78372 -0.645764 0.66582 0.725854 59.0392 171.975)" fill="#F0AA9D"/>
<ellipse cx="65.1241" cy="69.2234" rx="65.1241" ry="69.2234" transform="matrix(0.792108 -0.635948 0.656168 0.734146 59.532 171.156)" fill="#F0A89C"/>
<ellipse cx="64.5015" cy="68.6128" rx="64.5015" ry="68.6128" transform="matrix(0.800355 -0.626031 0.646405 0.742329 60.0239 170.337)" fill="#F0A69A"/>
<ellipse cx="63.8788" cy="68.0021" rx="63.8788" ry="68.0021" transform="matrix(0.808457 -0.616014 0.636534 0.7504 60.516 169.517)" fill="#F1A599"/>
<ellipse cx="63.2561" cy="67.3915" rx="63.2561" ry="67.3915" transform="matrix(0.816415 -0.605899 0.626555 0.758359 61.0057 168.697)" fill="#F1A397"/>
<ellipse cx="62.6333" cy="66.7809" rx="62.6333" ry="66.7809" transform="matrix(0.824227 -0.595688 0.616469 0.766204 61.4985 167.879)" fill="#F1A195"/>
<ellipse cx="62.0103" cy="66.1702" rx="62.0103" ry="66.1702" transform="matrix(0.831892 -0.585383 0.606279 0.773934 61.9934 167.059)" fill="#F19F94"/>
<ellipse cx="61.3873" cy="65.5596" rx="61.3873" ry="65.5596" transform="matrix(0.839409 -0.574987 0.595984 0.781547 62.4832 166.24)" fill="#F19D92"/>
<ellipse cx="60.764" cy="64.949" rx="60.764" ry="64.949" transform="matrix(0.846777 -0.564501 0.585587 0.789042 62.9767 165.422)" fill="#F19C91"/>
<ellipse cx="60.1406" cy="64.3386" rx="60.1406" ry="64.3386" transform="matrix(0.853995 -0.553928 0.575088 0.796418 63.4686 164.6)" fill="#F19A8F"/>
<ellipse cx="59.5169" cy="63.7283" rx="59.5169" ry="63.7283" transform="matrix(0.861061 -0.543269 0.564489 0.803672 63.9607 163.78)" fill="#F1988D"/>
<ellipse cx="58.8931" cy="63.1181" rx="58.8931" ry="63.1181" transform="matrix(0.867976 -0.532528 0.553791 0.810804 64.4528 162.962)" fill="#F1968C"/>
<ellipse cx="58.2688" cy="62.5081" rx="58.2688" ry="62.5081" transform="matrix(0.874738 -0.521706 0.542996 0.817813 64.9475 162.144)" fill="#F1948A"/>
<ellipse cx="57.6443" cy="61.8983" rx="57.6443" ry="61.8983" transform="matrix(0.881347 -0.510804 0.532105 0.824696 65.4396 161.323)" fill="#F19388"/>
<ellipse cx="57.0195" cy="61.2888" rx="57.0195" ry="61.2888" transform="matrix(0.887801 -0.499826 0.521119 0.831454 65.9294 160.504)" fill="#F19187"/>
<ellipse cx="56.3943" cy="60.6795" rx="56.3943" ry="60.6795" transform="matrix(0.8941 -0.488774 0.51004 0.838083 66.4229 159.682)" fill="#F18F85"/>
<ellipse cx="55.7687" cy="60.0705" rx="55.7687" ry="60.0705" transform="matrix(0.900243 -0.477649 0.49887 0.844583 66.9135 158.864)" fill="#F18D84"/>
<ellipse cx="55.1427" cy="59.4617" rx="55.1427" ry="59.4617" transform="matrix(0.906229 -0.466454 0.487609 0.850953 67.4032 158.044)" fill="#F28B82"/>
<ellipse cx="54.5163" cy="58.8533" rx="54.5163" ry="58.8533" transform="matrix(0.912059 -0.455191 0.47626 0.857191 67.896 157.225)" fill="#F28A80"/>
<ellipse cx="53.8895" cy="58.2452" rx="53.8895" ry="58.2452" transform="matrix(0.917731 -0.443862 0.464823 0.863296 68.3909 156.407)" fill="#F2887F"/>
<ellipse cx="53.2622" cy="57.6375" rx="53.2622" ry="57.6375" transform="matrix(0.923244 -0.43247 0.453301 0.869267 68.88 155.588)" fill="#F2867D"/>
<ellipse cx="52.6344" cy="57.0302" rx="52.6344" ry="57.0302" transform="matrix(0.928599 -0.421015 0.441696 0.875101 69.3741 154.767)" fill="#F2847C"/>
<ellipse cx="52.0061" cy="56.4233" rx="52.0061" ry="56.4233" transform="matrix(0.933795 -0.409501 0.430007 0.880799 69.8683 153.946)" fill="#F2827A"/>
<ellipse cx="51.3772" cy="55.8168" rx="51.3772" ry="55.8168" transform="matrix(0.938831 -0.39793 0.418239 0.886358 70.3589 153.129)" fill="#F28178"/>
<ellipse cx="50.7478" cy="55.2108" rx="50.7478" ry="55.2108" transform="matrix(0.943707 -0.386304 0.406391 0.891778 70.8508 152.31)" fill="#F27F77"/>
<ellipse cx="50.1179" cy="54.6052" rx="50.1179" ry="54.6052" transform="matrix(0.948422 -0.374624 0.394466 0.897057 71.3472 151.49)" fill="#F27D75"/>
<ellipse cx="49.4874" cy="54.0001" rx="49.4874" ry="54.0001" transform="matrix(0.952976 -0.362893 0.382465 0.902194 71.8385 150.67)" fill="#F27B74"/>
<ellipse cx="48.8563" cy="53.3956" rx="48.8563" ry="53.3956" transform="matrix(0.95737 -0.351113 0.37039 0.907188 72.3254 149.851)" fill="#F27972"/>
<ellipse cx="48.2245" cy="52.7915" rx="48.2245" ry="52.7915" transform="matrix(0.961602 -0.339287 0.358244 0.912036 72.8218 149.031)" fill="#F27870"/>
<ellipse cx="47.5922" cy="52.1879" rx="47.5922" ry="52.1879" transform="matrix(0.965672 -0.327415 0.346027 0.916739 73.3159 148.212)" fill="#F2766F"/>
<ellipse cx="46.9592" cy="51.5849" rx="46.9592" ry="51.5849" transform="matrix(0.96958 -0.315501 0.333742 0.921296 73.8044 147.394)" fill="#F2746D"/>
<ellipse cx="46.3256" cy="50.9825" rx="46.3256" ry="50.9825" transform="matrix(0.973327 -0.303546 0.321391 0.925704 74.2949 146.572)" fill="#F2726C"/>
<ellipse cx="45.6913" cy="50.3807" rx="45.6913" ry="50.3807" transform="matrix(0.976911 -0.291552 0.308974 0.929963 74.7869 145.752)" fill="#F3716A"/>
<ellipse cx="45.0564" cy="49.7795" rx="45.0564" ry="49.7795" transform="matrix(0.980332 -0.279522 0.296496 0.934071 75.2789 144.935)" fill="#F36F68"/>
<ellipse cx="44.4207" cy="49.1788" rx="44.4207" ry="49.1788" transform="matrix(0.983591 -0.267458 0.283956 0.938028 75.7731 144.115)" fill="#F36D67"/>
<ellipse cx="43.7844" cy="48.5788" rx="43.7844" ry="48.5788" transform="matrix(0.986688 -0.25536 0.271358 0.941832 76.2644 143.297)" fill="#F36B65"/>
<ellipse cx="43.1474" cy="47.9794" rx="43.1474" ry="47.9794" transform="matrix(0.989622 -0.243233 0.258703 0.945482 76.755 142.477)" fill="#F36964"/>
<ellipse cx="42.5096" cy="47.3807" rx="42.5096" ry="47.3807" transform="matrix(0.992393 -0.231076 0.245993 0.948978 77.2498 141.656)" fill="#F36862"/>
<ellipse cx="41.8712" cy="46.7826" rx="41.8712" ry="46.7826" transform="matrix(0.995002 -0.218893 0.233231 0.952318 77.7433 140.837)" fill="#F36660"/>
<ellipse cx="41.232" cy="46.1851" rx="41.232" ry="46.1851" transform="matrix(0.997447 -0.206686 0.220418 0.955502 78.2332 140.018)" fill="#F3645F"/>
<ellipse cx="40.5921" cy="45.5883" rx="40.5921" ry="45.5883" transform="matrix(0.999731 -0.194456 0.207557 0.958527 78.7273 139.197)" fill="#F3625D"/>
<ellipse cx="39.9515" cy="44.9922" rx="39.9515" ry="44.9922" transform="matrix(1.00185 -0.182205 0.194649 0.961394 79.2179 138.379)" fill="#F3605B"/>
<ellipse cx="39.3101" cy="44.3968" rx="39.3101" ry="44.3968" transform="matrix(1.00381 -0.169935 0.181698 0.964101 79.7119 137.56)" fill="#F35F5A"/>
<ellipse cx="38.6681" cy="43.8021" rx="38.6681" ry="43.8021" transform="matrix(1.00561 -0.157649 0.168704 0.966648 80.1997 136.741)" fill="#F35D58"/>
<ellipse cx="38.0252" cy="43.208" rx="38.0252" ry="43.208" transform="matrix(1.00724 -0.145347 0.155671 0.969033 80.6981 135.919)" fill="#F35B57"/>
<ellipse cx="37.3817" cy="42.6147" rx="37.3817" ry="42.6147" transform="matrix(1.00871 -0.133033 0.1426 0.971256 81.1887 135.1)" fill="#F35955"/>
<ellipse cx="36.7374" cy="42.0221" rx="36.7374" ry="42.0221" transform="matrix(1.01002 -0.120707 0.129494 0.973316 81.6779 134.283)" fill="#F45753"/>
<ellipse cx="36.0924" cy="41.4301" rx="36.0924" ry="41.4301" transform="matrix(1.01117 -0.108372 0.116355 0.975212 82.172 133.463)" fill="#F45652"/>
<ellipse cx="35.4467" cy="40.8389" rx="35.4467" ry="40.8389" transform="matrix(1.01216 -0.0960294 0.103186 0.976944 82.6626 132.641)" fill="#F45450"/>
<ellipse cx="34.8002" cy="40.2484" rx="34.8002" ry="40.2484" transform="matrix(1.01298 -0.0836814 0.0899885 0.97851 83.1525 131.823)" fill="#F4524F"/>
<ellipse cx="34.153" cy="39.6586" rx="34.153" ry="39.6586" transform="matrix(1.01365 -0.0713295 0.0767651 0.97991 83.6473 131.003)" fill="#F4504D"/>
<ellipse cx="33.5051" cy="39.0694" rx="33.5051" ry="39.0694" transform="matrix(1.01415 -0.0589756 0.0635181 0.981144 84.1407 130.185)" fill="#F44E4B"/>
<ellipse cx="32.8565" cy="38.481" rx="32.8565" ry="38.481" transform="matrix(1.01449 -0.0466215 0.05025 0.98221 84.6306 129.366)" fill="#F44D4A"/>
<ellipse cx="32.2071" cy="37.8933" rx="32.2071" ry="37.8933" transform="matrix(1.01468 -0.0342691 0.0369633 0.983108 85.1248 128.545)" fill="#F44B48"/>
<ellipse cx="31.5571" cy="37.3063" rx="31.5571" ry="37.3063" transform="matrix(1.0147 -0.02192 0.0236604 0.983838 85.6182 127.726)" fill="#F44947"/>
<ellipse cx="30.9064" cy="36.72" rx="30.9064" ry="36.72" transform="matrix(1.01457 -0.00957602 0.0103436 0.9844 86.108 126.906)" fill="#F44745"/>
<ellipse cx="30.255" cy="36.1344" rx="30.255" ry="36.1344" transform="matrix(1.01427 0.00276101 -0.00298434 0.984791 86.5972 126.086)" fill="#F44543"/>
<ellipse cx="29.6029" cy="35.5495" rx="29.6029" ry="35.5495" transform="matrix(1.01382 0.0150895 -0.0163211 0.985014 87.0956 125.269)" fill="#F44442"/>
<ellipse cx="28.9501" cy="34.9652" rx="28.9501" ry="34.9652" transform="matrix(1.01321 0.0274075 -0.0296642 0.985065 87.5856 124.448)" fill="#F44240"/>
<ellipse cx="28.2967" cy="34.3817" rx="28.2967" ry="34.3817" transform="matrix(1.01244 0.0397135 -0.0430109 0.984947 88.076 123.628)" fill="#F4403F"/>
<ellipse cx="27.6426" cy="33.7988" rx="27.6426" ry="33.7988" transform="matrix(1.01151 0.0520058 -0.0563589 0.984657 88.5696 122.808)" fill="#F43E3D"/>
<ellipse cx="26.9879" cy="33.2166" rx="26.9879" ry="33.2166" transform="matrix(1.01042 0.0642826 -0.0697054 0.984196 89.0637 121.99)" fill="#F53C3B"/>
<ellipse cx="26.3326" cy="32.635" rx="26.3326" ry="32.635" transform="matrix(1.00918 0.0765423 -0.083048 0.983564 89.5564 121.17)" fill="#F53B3A"/>
<ellipse cx="25.6766" cy="32.0541" rx="25.6766" ry="32.0541" transform="matrix(1.00778 0.0887832 -0.0963842 0.98276 90.0435 120.351)" fill="#F53938"/>
<ellipse cx="25.0201" cy="31.4738" rx="25.0201" ry="31.4738" transform="matrix(1.00623 0.101004 -0.109711 0.981785 90.5367 119.533)" fill="#F53737"/>
<ellipse cx="24.363" cy="30.8941" rx="24.363" ry="30.8941" transform="matrix(1.00452 0.113202 -0.123026 0.980638 91.0295 118.713)" fill="#F53535"/>
<ellipse cx="23.7053" cy="30.315" rx="23.7053" ry="30.315" transform="matrix(1.00266 0.125377 -0.136327 0.979319 91.5229 117.893)" fill="#F53333"/>
<path d="M126.559 120.388C123.579 119.768 122.808 117.166 119.802 116.669C117.9 116.355 116.493 115.913 114.864 116.895C111.834 118.72 114.229 122.761 116.376 125.488C118.55 128.249 121.37 128.08 124.768 129.303C128.076 130.495 130.352 133.266 133.473 131.686C135.828 130.494 136.418 128.57 136.906 126.082C137.438 123.374 137.706 120.952 135.503 119.155C132.828 116.973 130.007 121.105 126.559 120.388Z" fill="#78470F"/>
<rect x="341.845" width="326.155" height="313.539" rx="38.8557" fill="#ED7D41"/>
<ellipse cx="415.206" cy="158.077" rx="36.0257" ry="34.6322" fill="#F69967"/>
<ellipse cx="505.43" cy="158.077" rx="36.0257" ry="34.6322" fill="#F69967"/>
<ellipse cx="595.647" cy="158.077" rx="36.0257" ry="34.6322" fill="#F69967"/>
<ellipse cx="415.206" cy="240.174" rx="36.0257" ry="34.6322" fill="#F69967"/>
<ellipse cx="505.43" cy="240.174" rx="36.0257" ry="34.6322" fill="#F69967"/>
<ellipse cx="595.647" cy="240.174" rx="36.0257" ry="34.6322" fill="#F69967"/>
<path d="M387.681 88.1973V59.5929H406.998V65H394.12V70.6136H405.553V75.897H394.12V82.7901H407.947V88.1973H387.681ZM412.3 88.1973V66.486H418.45V83.1616H424.105V66.486H430.255V83.1616H435.869V66.486H442.019V88.1973H412.3ZM457.016 83.9045C458.145 83.9045 459.025 83.6982 459.658 83.2854C460.319 82.8451 460.649 82.1434 460.649 81.1803C460.649 80.685 460.539 80.2722 460.319 79.942C460.098 79.5843 459.796 79.3091 459.411 79.1165C459.025 78.8964 458.571 78.745 458.048 78.6625C457.553 78.5799 457.016 78.5386 456.439 78.5386C456.026 78.5386 455.572 78.5662 455.077 78.6212C454.581 78.6762 454.21 78.7313 453.962 78.7863V83.7394C454.292 83.7945 454.733 83.8357 455.283 83.8633C455.833 83.8908 456.411 83.9045 457.016 83.9045ZM453.962 74.2046C454.347 74.0946 454.843 74.012 455.448 73.957C456.081 73.8744 456.796 73.8332 457.594 73.8332C458.888 73.8332 460.085 73.9845 461.185 74.2872C462.314 74.5899 463.29 75.0577 464.116 75.6906C464.942 76.296 465.588 77.0802 466.056 78.0433C466.524 78.9789 466.758 80.0796 466.758 81.3454C466.758 82.6112 466.538 83.7119 466.097 84.6475C465.657 85.5556 465.024 86.3123 464.199 86.9177C463.373 87.4956 462.382 87.9221 461.227 88.1973C460.098 88.5 458.833 88.6513 457.429 88.6513C455.613 88.6513 453.948 88.555 452.435 88.3624C450.921 88.1973 449.38 87.9221 447.812 87.5368V66.486H453.962V74.2046ZM487.176 83.6569C487.562 83.7119 488.071 83.767 488.704 83.822C489.364 83.8495 489.97 83.8633 490.52 83.8633C491.896 83.8633 492.969 83.6982 493.739 83.368C494.51 83.0102 494.895 82.3773 494.895 81.4692C494.895 80.5887 494.537 79.9833 493.822 79.6531C493.134 79.2954 492.116 79.1165 490.768 79.1165H487.176V83.6569ZM490.644 74.9889C491.662 74.9889 492.487 74.8651 493.12 74.6174C493.753 74.3422 494.07 73.7644 494.07 72.8838C494.07 72.0583 493.712 71.4942 492.996 71.1915C492.281 70.8888 491.345 70.7374 490.19 70.7374C489.804 70.7374 489.295 70.765 488.662 70.82C488.057 70.8475 487.562 70.8888 487.176 70.9438V74.9889H490.644ZM490.437 88.61C489.667 88.61 488.841 88.5825 487.961 88.5275C487.08 88.4724 486.213 88.3899 485.36 88.2798C484.507 88.1973 483.696 88.101 482.925 87.9909C482.182 87.8533 481.549 87.7295 481.026 87.6194V66.8162C481.549 66.7061 482.182 66.6098 482.925 66.5273C483.696 66.4172 484.507 66.3209 485.36 66.2383C486.213 66.1558 487.08 66.1007 487.961 66.0732C488.841 66.0182 489.667 65.9907 490.437 65.9907C492.226 65.9907 493.726 66.1695 494.936 66.5273C496.175 66.885 497.165 67.3528 497.908 67.9307C498.679 68.5085 499.229 69.1552 499.559 69.8706C499.89 70.5861 500.055 71.3015 500.055 72.017C500.055 72.9801 499.821 73.8607 499.353 74.6587C498.885 75.4567 498.294 76.0345 497.578 76.3923C497.963 76.5574 498.349 76.7913 498.734 77.094C499.147 77.3967 499.518 77.7681 499.848 78.2084C500.178 78.6212 500.44 79.1303 500.633 79.7356C500.853 80.3135 500.963 80.9877 500.963 81.7582C500.963 82.6387 500.784 83.4918 500.426 84.3173C500.096 85.1428 499.518 85.872 498.693 86.5049C497.867 87.1378 496.78 87.6469 495.432 88.0322C494.083 88.4174 492.419 88.61 490.437 88.61ZM511.845 74.0808C512.451 73.5029 513.084 72.87 513.744 72.1821C514.432 71.4942 515.093 70.82 515.725 70.1596C516.358 69.4716 516.964 68.8112 517.542 68.1783C518.119 67.5454 518.629 66.9813 519.069 66.486H526.54C525.989 67.0639 525.302 67.7793 524.476 68.6323C523.678 69.4854 522.825 70.3797 521.917 71.3153C521.009 72.2234 520.087 73.1315 519.151 74.0395C518.243 74.9476 517.376 75.7594 516.551 76.4748C517.376 77.1077 518.257 77.892 519.193 78.8276C520.128 79.7632 521.036 80.7676 521.917 81.8407C522.825 82.9139 523.678 84.0009 524.476 85.1016C525.302 86.2022 526.003 87.2342 526.581 88.1973H519.564C519.069 87.4543 518.505 86.6838 517.872 85.8858C517.239 85.0603 516.578 84.2623 515.891 83.4918C515.203 82.6938 514.501 81.9508 513.785 81.2629C513.098 80.5749 512.451 79.9833 511.845 79.488V88.1973H505.695V66.486H511.845V74.0808ZM550.164 66.486C548.926 70.6686 547.633 74.5899 546.284 78.2497C544.936 81.9095 543.464 85.4593 541.868 88.899C541.29 90.1372 540.712 91.1829 540.134 92.036C539.556 92.9165 538.923 93.632 538.235 94.1823C537.548 94.7602 536.763 95.1729 535.883 95.4206C535.03 95.6958 534.025 95.8334 532.87 95.8334C531.906 95.8334 531.012 95.7371 530.187 95.5444C529.389 95.3793 528.728 95.1867 528.205 94.9666L529.279 90.0547C529.911 90.2748 530.476 90.4262 530.971 90.5087C531.466 90.5913 531.989 90.6326 532.539 90.6326C533.64 90.6326 534.479 90.3299 535.057 89.7245C535.663 89.1466 536.172 88.3349 536.584 87.2892C535.181 84.5374 533.778 81.4555 532.374 78.0433C530.971 74.6036 529.65 70.7512 528.412 66.486H534.933C535.209 67.5592 535.525 68.7287 535.883 69.9945C536.268 71.2327 536.667 72.4986 537.08 73.7919C537.492 75.0577 537.905 76.296 538.318 77.5067C538.758 78.7175 539.171 79.8182 539.556 80.8088C539.914 79.8182 540.286 78.7175 540.671 77.5067C541.056 76.296 541.427 75.0577 541.785 73.7919C542.17 72.4986 542.528 71.2327 542.858 69.9945C543.216 68.7287 543.533 67.5592 543.808 66.486H550.164ZM552.429 77.3416C552.429 75.7731 552.677 74.3009 553.172 72.9251C553.695 71.5217 554.438 70.3109 555.401 69.2928C556.364 68.2471 557.534 67.4216 558.91 66.8162C560.286 66.2108 561.854 65.9081 563.615 65.9081C564.771 65.9081 565.83 66.0182 566.793 66.2383C567.757 66.431 568.692 66.7199 569.6 67.1051L568.321 72.017C567.743 71.7969 567.11 71.6042 566.422 71.4391C565.734 71.274 564.964 71.1915 564.11 71.1915C562.294 71.1915 560.932 71.7556 560.024 72.8838C559.144 74.012 558.703 75.498 558.703 77.3416C558.703 79.2954 559.116 80.8088 559.942 81.882C560.795 82.9552 562.267 83.4918 564.358 83.4918C565.101 83.4918 565.899 83.423 566.752 83.2854C567.605 83.1478 568.389 82.9277 569.105 82.625L569.972 87.6607C569.256 87.9634 568.362 88.2248 567.289 88.4449C566.216 88.6651 565.032 88.7751 563.739 88.7751C561.758 88.7751 560.052 88.4862 558.621 87.9083C557.19 87.3029 556.007 86.4912 555.071 85.473C554.163 84.4549 553.489 83.2579 553.048 81.882C552.636 80.4786 552.429 78.9652 552.429 77.3416ZM592.797 88.1973H586.647V79.6118H580.249V88.1973H574.099V66.486H580.249V74.5761H586.647V66.486H592.797V88.1973ZM618.875 77.3004C618.875 79.0064 618.627 80.5749 618.132 82.0058C617.636 83.4092 616.921 84.62 615.985 85.6381C615.05 86.6288 613.921 87.3993 612.601 87.9496C611.307 88.5 609.849 88.7751 608.225 88.7751C606.629 88.7751 605.171 88.5 603.85 87.9496C602.557 87.3993 601.442 86.6288 600.507 85.6381C599.571 84.62 598.842 83.4092 598.319 82.0058C597.796 80.5749 597.535 79.0064 597.535 77.3004C597.535 75.5943 597.796 74.0395 598.319 72.6361C598.869 71.2327 599.612 70.0357 600.548 69.0451C601.511 68.0545 602.639 67.284 603.933 66.7336C605.253 66.1833 606.684 65.9081 608.225 65.9081C609.794 65.9081 611.225 66.1833 612.518 66.7336C613.839 67.284 614.967 68.0545 615.903 69.0451C616.838 70.0357 617.568 71.2327 618.09 72.6361C618.613 74.0395 618.875 75.5943 618.875 77.3004ZM612.601 77.3004C612.601 75.4016 612.215 73.9157 611.445 72.8425C610.702 71.7418 609.629 71.1915 608.225 71.1915C606.822 71.1915 605.735 71.7418 604.965 72.8425C604.194 73.9157 603.809 75.4016 603.809 77.3004C603.809 79.1991 604.194 80.7125 604.965 81.8407C605.735 82.9414 606.822 83.4918 608.225 83.4918C609.629 83.4918 610.702 82.9414 611.445 81.8407C612.215 80.7125 612.601 79.1991 612.601 77.3004Z" fill="white"/>
</svg>
