<svg width="669" height="234" viewBox="0 0 669 234" fill="none" xmlns="http://www.w3.org/2000/svg">
<rect width="669" height="233.465" rx="22.1469" fill="#ECECEC"/>
<path d="M523.813 176.551C525.752 176.551 527.602 176.507 529.364 176.421C531.125 176.334 532.535 176.205 533.592 176.031V161.366C532.799 161.193 531.61 161.02 530.024 160.847C528.439 160.674 526.985 160.588 525.663 160.588C523.813 160.588 522.052 160.718 520.378 160.977C518.792 161.15 517.382 161.539 516.149 162.145C514.916 162.751 513.947 163.573 513.242 164.611C512.537 165.649 512.185 166.947 512.185 168.504C512.185 171.532 513.198 173.652 515.224 174.863C517.338 175.988 520.201 176.551 523.813 176.551ZM522.228 119.967C528.042 119.967 532.887 120.616 536.764 121.913C540.64 123.211 543.723 125.071 546.014 127.494C548.392 129.917 550.066 132.858 551.035 136.319C552.004 139.78 552.489 143.63 552.489 147.869V188.101C549.67 188.707 545.75 189.399 540.728 190.177C535.706 191.043 529.628 191.475 522.492 191.475C517.999 191.475 513.903 191.086 510.202 190.307C506.591 189.529 503.463 188.274 500.82 186.544C498.177 184.727 496.151 182.391 494.742 179.536C493.332 176.68 492.627 173.176 492.627 169.023C492.627 165.044 493.42 161.669 495.006 158.901C496.68 156.132 498.882 153.926 501.613 152.282C504.344 150.638 507.471 149.47 510.995 148.778C514.519 147.999 518.175 147.61 521.963 147.61C524.518 147.61 526.765 147.74 528.703 147.999C530.729 148.172 532.359 148.432 533.592 148.778V146.961C533.592 143.673 532.579 141.034 530.553 139.044C528.527 137.054 525.003 136.059 519.981 136.059C516.634 136.059 513.33 136.319 510.07 136.838C506.811 137.271 503.992 137.92 501.613 138.785L499.102 123.211C500.248 122.865 501.657 122.519 503.331 122.173C505.093 121.74 506.987 121.394 509.013 121.135C511.039 120.789 513.154 120.529 515.356 120.356C517.647 120.097 519.937 119.967 522.228 119.967Z" fill="#3A3A3A"/>
<path d="M441.707 146.441C443.646 144.365 445.628 142.202 447.654 139.952C449.768 137.703 451.795 135.496 453.733 133.333C455.671 131.084 457.477 128.964 459.151 126.974C460.913 124.984 462.41 123.254 463.644 121.783H487.033C482.364 127.061 477.783 132.122 473.29 136.967C468.885 141.726 464.04 146.657 458.754 151.762C461.397 154.098 464.128 156.91 466.947 160.198C469.766 163.399 472.497 166.73 475.14 170.191C477.783 173.651 480.206 177.112 482.408 180.573C484.611 184.034 486.461 187.192 487.958 190.047H465.361C463.952 187.797 462.322 185.332 460.472 182.65C458.71 179.881 456.816 177.156 454.79 174.473C452.764 171.705 450.605 169.066 448.315 166.557C446.112 164.048 443.91 161.928 441.707 160.198V190.047H422.018V92.4528L441.707 89.3381V146.441Z" fill="#3A3A3A"/>
<path d="M404.79 191.345C399.063 191.258 394.394 190.653 390.782 189.528C387.258 188.403 384.439 186.846 382.325 184.856C380.299 182.779 378.889 180.313 378.096 177.458C377.392 174.517 377.039 171.229 377.039 167.595V92.4528L396.729 89.3381V163.702C396.729 165.432 396.861 166.989 397.125 168.374C397.39 169.758 397.874 170.926 398.579 171.878C399.372 172.83 400.473 173.608 401.882 174.214C403.292 174.819 405.186 175.209 407.565 175.382L404.79 191.345Z" fill="#3A3A3A"/>
<path d="M296.564 156.435C296.564 150.378 297.489 145.101 299.339 140.602C301.277 136.016 303.788 132.209 306.871 129.181C309.955 126.153 313.479 123.86 317.443 122.303C321.495 120.745 325.636 119.967 329.865 119.967C339.731 119.967 347.528 122.952 353.254 128.922C358.98 134.805 361.844 143.5 361.844 155.007C361.844 156.132 361.8 157.387 361.711 158.771C361.623 160.069 361.535 161.237 361.447 162.275H316.782C317.223 166.255 319.117 169.413 322.464 171.749C325.812 174.085 330.305 175.253 335.943 175.253C339.555 175.253 343.079 174.95 346.515 174.344C350.039 173.652 352.902 172.83 355.104 171.879L357.747 187.582C356.69 188.101 355.28 188.62 353.518 189.139C351.757 189.658 349.774 190.091 347.572 190.437C345.458 190.87 343.167 191.216 340.7 191.475C338.234 191.735 335.767 191.865 333.3 191.865C327.045 191.865 321.583 190.956 316.914 189.139C312.333 187.322 308.501 184.856 305.418 181.742C302.422 178.541 300.176 174.777 298.678 170.451C297.269 166.125 296.564 161.453 296.564 156.435ZM342.815 149.037C342.727 147.394 342.418 145.793 341.89 144.236C341.449 142.678 340.7 141.294 339.643 140.083C338.674 138.871 337.397 137.876 335.811 137.098C334.313 136.319 332.419 135.93 330.129 135.93C327.926 135.93 326.032 136.319 324.447 137.098C322.861 137.79 321.539 138.742 320.482 139.953C319.425 141.164 318.588 142.592 317.971 144.236C317.443 145.793 317.046 147.394 316.782 149.037H342.815Z" fill="#3A3A3A"/>
<path d="M287.299 138.914C285.537 138.482 283.467 138.049 281.088 137.617C278.709 137.097 276.155 136.838 273.424 136.838C272.19 136.838 270.693 136.968 268.931 137.227C267.257 137.4 265.979 137.617 265.098 137.876V190.047H245.409V125.417C248.933 124.206 253.073 123.081 257.83 122.043C262.676 120.918 268.05 120.356 273.952 120.356C275.009 120.356 276.287 120.442 277.784 120.616C279.282 120.702 280.78 120.875 282.277 121.135C283.775 121.308 285.273 121.567 286.77 121.913C288.268 122.173 289.545 122.519 290.602 122.952L287.299 138.914Z" fill="#3A3A3A"/>
<path d="M198.93 176.551C200.868 176.551 202.718 176.507 204.48 176.421C206.242 176.334 207.651 176.205 208.708 176.031V161.366C207.916 161.193 206.726 161.02 205.14 160.847C203.555 160.674 202.101 160.588 200.78 160.588C198.93 160.588 197.168 160.718 195.494 160.977C193.908 161.15 192.499 161.539 191.265 162.145C190.032 162.751 189.063 163.573 188.358 164.611C187.653 165.649 187.301 166.947 187.301 168.504C187.301 171.532 188.314 173.652 190.34 174.863C192.455 175.988 195.318 176.551 198.93 176.551ZM197.344 119.967C203.158 119.967 208.004 120.616 211.88 121.913C215.756 123.211 218.839 125.071 221.13 127.494C223.509 129.917 225.182 132.858 226.152 136.319C227.121 139.78 227.605 143.63 227.605 147.869V188.101C224.786 188.707 220.866 189.399 215.844 190.177C210.823 191.043 204.744 191.475 197.608 191.475C193.115 191.475 189.019 191.086 185.319 190.307C181.707 189.529 178.579 188.274 175.936 186.544C173.294 184.727 171.267 182.391 169.858 179.536C168.448 176.68 167.743 173.176 167.743 169.023C167.743 165.044 168.536 161.669 170.122 158.901C171.796 156.132 173.998 153.926 176.729 152.282C179.46 150.638 182.588 149.47 186.112 148.778C189.635 147.999 193.291 147.61 197.08 147.61C199.634 147.61 201.881 147.74 203.819 147.999C205.845 148.172 207.475 148.432 208.708 148.778V146.961C208.708 143.673 207.695 141.034 205.669 139.044C203.643 137.054 200.119 136.059 195.097 136.059C191.75 136.059 188.446 136.319 185.187 136.838C181.927 137.271 179.108 137.92 176.729 138.785L174.219 123.211C175.364 122.865 176.773 122.519 178.447 122.173C180.209 121.74 182.103 121.394 184.129 121.135C186.156 120.789 188.27 120.529 190.472 120.356C192.763 120.097 195.053 119.967 197.344 119.967Z" fill="#3A3A3A"/>
<path d="M115.57 104.781L135.26 101.667V121.783H158.914V137.875H135.26V161.884C135.26 165.951 135.964 169.195 137.374 171.618C138.872 174.04 141.823 175.252 146.228 175.252C148.342 175.252 150.5 175.079 152.703 174.733C154.993 174.3 157.063 173.738 158.914 173.045L161.689 188.1C159.31 189.052 156.667 189.873 153.76 190.566C150.853 191.258 147.285 191.604 143.056 191.604C137.682 191.604 133.233 190.912 129.709 189.527C126.186 188.057 123.367 186.067 121.252 183.558C119.138 180.962 117.64 177.847 116.759 174.213C115.966 170.58 115.57 166.556 115.57 162.144V104.781Z" fill="#3A3A3A"/>
<rect x="425.907" y="38.5847" width="11.2074" height="46.1806" fill="#3A3A3A"/>
<path d="M445.882 43.8488C445.882 40.9415 448.239 38.5847 451.146 38.5847H457.089V84.7653H445.882V43.8488Z" fill="#3A3A3A"/>
<path d="M411.192 95.7725C408.285 95.7725 405.928 93.4156 405.928 90.5084V84.7657H457.092V90.5084C457.092 93.4156 454.736 95.7725 451.828 95.7725H411.192Z" fill="#3A3A3A"/>
<path d="M405.928 38.5847H411.872C414.779 38.5847 417.136 40.9415 417.136 43.8488V84.7653H405.928V38.5847Z" fill="#3A3A3A"/>
<path d="M367.608 101.612C368.645 103.262 396.669 110.248 396.669 110.248C396.669 110.248 397.01 20.2859 393.528 18.4035C390.046 16.5211 375.151 37.9857 369.66 53.5923C363.418 71.3324 366.571 99.9617 367.608 101.612Z" fill="#3A3A3A"/>
</svg>
