<svg width="669" height="169" viewBox="0 0 669 169" fill="none" xmlns="http://www.w3.org/2000/svg">
<rect width="669" height="168.53" rx="17.5857" fill="#2B6243"/>
<path d="M348.605 108.768C349.889 107.391 351.201 105.957 352.542 104.466C353.942 102.974 355.284 101.511 356.567 100.077C357.85 98.5858 359.046 97.1803 360.154 95.8609C361.32 94.5415 362.312 93.3942 363.128 92.419H378.614C375.522 95.9183 372.489 99.2742 369.515 102.487C366.599 105.642 363.391 108.912 359.891 112.296C361.641 113.845 363.449 115.71 365.315 117.889C367.182 120.012 368.99 122.221 370.74 124.515C372.489 126.81 374.093 129.104 375.551 131.399C377.01 133.694 378.234 135.788 379.226 137.681H364.266C363.332 136.189 362.253 134.554 361.029 132.776C359.862 130.94 358.608 129.133 357.267 127.355C355.925 125.519 354.496 123.769 352.98 122.106C351.522 120.442 350.063 119.037 348.605 117.889V137.681H335.57V72.9719L348.605 70.9067V108.768Z" fill="white"/>
<path d="M338.147 37.2554H345.567V67.8749H338.147V37.2554Z" fill="white"/>
<path d="M351.375 40.3205C351.375 38.6277 352.77 37.2554 354.491 37.2554H358.795V67.8749H351.375V40.3205Z" fill="white"/>
<path d="M328.033 75.1726C326.311 75.1726 324.916 73.8003 324.916 72.1074V67.8746H358.79V72.1074C358.79 73.8003 357.394 75.1726 355.673 75.1726H328.033Z" fill="white"/>
<path d="M324.916 37.2554H329.22C330.941 37.2554 332.336 38.6277 332.336 40.3205V67.8749L324.916 67.8746V37.2554Z" fill="white"/>
<path d="M290.239 82.631C290.926 83.7252 311.152 87.6249 311.152 87.6249C311.152 87.6249 311.375 24.04 309.07 22.7919C306.765 21.5438 296.903 35.7757 293.268 46.1235C289.136 57.8859 289.553 81.5369 290.239 82.631Z" fill="white"/>
<path d="M298.115 80.2412L311.121 78.1807V91.4885H326.747V102.135H311.121V118.018C311.121 120.709 311.587 122.855 312.518 124.458C313.507 126.06 315.457 126.862 318.367 126.862C319.763 126.862 321.189 126.747 322.644 126.518C324.157 126.232 325.525 125.86 326.747 125.402L328.58 135.362C327.009 135.991 325.263 136.535 323.342 136.993C321.422 137.451 319.065 137.68 316.272 137.68C312.722 137.68 309.783 137.222 307.455 136.306C305.127 135.333 303.265 134.017 301.868 132.357C300.472 130.639 299.482 128.579 298.901 126.175C298.377 123.771 298.115 121.109 298.115 118.19V80.2412Z" fill="white"/>
</svg>
