<svg width="669" height="383" viewBox="0 0 669 383" fill="none" xmlns="http://www.w3.org/2000/svg">
<rect width="669" height="382.831" rx="17.9828" fill="#D9D9D9"/>
<path d="M0 17.9828C0 8.05118 8.05118 0 17.9828 0H219.997V191.416H0V17.9828Z" fill="#93AD49"/>
<path d="M0 191.416H219.997V382.831H17.9828C8.05118 382.831 0 374.78 0 364.848V191.416Z" fill="#969ADA"/>
<path d="M447.502 191.416H669V364.848C669 374.78 660.949 382.831 651.017 382.831H447.502V191.416Z" fill="#ED7D41"/>
<path d="M219.997 191.416H447.502V382.831H219.997V191.416Z" fill="#EA86D1"/>
<path d="M219.997 0H447.502V191.416H219.997V0Z" fill="#F1F1F1"/>
<path d="M669 17.9828C669 8.05118 660.949 0 651.017 0H447.502V191.416H669V17.9828Z" fill="#2B6243"/>
<path d="M125.341 124.676C126.634 123.26 127.957 121.785 129.309 120.251C130.719 118.717 132.071 117.213 133.365 115.738C134.658 114.204 135.863 112.759 136.98 111.402C138.156 110.045 139.155 108.865 139.978 107.862H155.585C152.469 111.461 149.412 114.912 146.415 118.216C143.475 121.461 140.242 124.824 136.715 128.305C138.479 129.898 140.301 131.815 142.182 134.057C144.063 136.24 145.885 138.512 147.649 140.872C149.412 143.232 151.029 145.592 152.499 147.952C153.968 150.312 155.203 152.465 156.202 154.412H141.124C140.184 152.878 139.096 151.197 137.862 149.368C136.686 147.48 135.422 145.621 134.07 143.792C132.718 141.904 131.278 140.105 129.75 138.394C128.28 136.683 126.81 135.237 125.341 134.057V154.412H112.203V87.8608L125.341 85.7368V124.676Z" fill="white"/>
<path d="M114.8 51.1272H122.278V82.6186H114.8V51.1272Z" fill="white"/>
<path d="M128.132 54.2796C128.132 52.5385 129.538 51.1272 131.273 51.1272H135.61V82.6186H128.132V54.2796Z" fill="white"/>
<path d="M104.606 90.1241C102.872 90.1241 101.465 88.7127 101.465 86.9717V82.6183H135.605V86.9717C135.605 88.7127 134.199 90.1241 132.464 90.1241H104.606Z" fill="white"/>
<path d="M101.465 51.1272H105.803C107.537 51.1272 108.944 52.5385 108.944 54.2796V82.6186L101.465 82.6183V51.1272Z" fill="white"/>
<path d="M66.5163 97.7949C67.2084 98.9202 87.5929 102.931 87.5929 102.931C87.5929 102.931 87.8184 37.5355 85.4951 36.2518C83.1719 34.9682 73.2327 49.6054 69.5688 60.2478C65.4041 72.3451 65.8241 96.6696 66.5163 97.7949Z" fill="white"/>
<path d="M74.4536 95.3375L87.5624 93.2183V106.905H103.311V117.855H87.5624V134.19C87.5624 136.957 88.0316 139.165 88.97 140.813C89.9671 142.461 91.932 143.286 94.8646 143.286C96.2723 143.286 97.7092 143.168 99.1755 142.932C100.7 142.638 102.079 142.255 103.311 141.784L105.158 152.027C103.574 152.675 101.815 153.234 99.8794 153.705C97.9438 154.176 95.5684 154.412 92.7531 154.412C89.1753 154.412 86.2134 153.941 83.8673 152.999C81.5212 151.998 79.6443 150.644 78.2367 148.937C76.829 147.171 75.8319 145.052 75.2454 142.579C74.7175 140.107 74.4536 137.369 74.4536 134.367V95.3375Z" fill="white"/>
<path d="M125.341 310.817C126.634 309.401 127.957 307.926 129.309 306.392C130.719 304.858 132.071 303.354 133.365 301.879C134.658 300.345 135.863 298.899 136.98 297.542C138.156 296.185 139.155 295.005 139.978 294.002H155.585C152.469 297.601 149.412 301.053 146.415 304.357C143.475 307.602 140.242 310.965 136.715 314.445C138.479 316.038 140.301 317.956 142.182 320.198C144.063 322.381 145.885 324.652 147.649 327.012C149.412 329.372 151.029 331.732 152.499 334.092C153.968 336.452 155.203 338.606 156.202 340.553H141.124C140.184 339.019 139.096 337.337 137.862 335.508C136.686 333.62 135.422 331.762 134.07 329.933C132.718 328.045 131.278 326.245 129.75 324.534C128.28 322.823 126.81 321.378 125.341 320.198V340.553H112.203V274.001L125.341 271.877V310.817Z" fill="white"/>
<path d="M114.8 237.268H122.278V268.759H114.8V237.268Z" fill="white"/>
<path d="M128.132 240.42C128.132 238.679 129.538 237.268 131.273 237.268H135.61V268.759H128.132V240.42Z" fill="white"/>
<path d="M104.606 276.265C102.872 276.265 101.465 274.853 101.465 273.112V268.759H135.605V273.112C135.605 274.853 134.199 276.265 132.464 276.265H104.606Z" fill="white"/>
<path d="M101.465 237.268H105.803C107.537 237.268 108.944 238.679 108.944 240.42V268.759L101.465 268.759V237.268Z" fill="white"/>
<path d="M66.5163 283.936C67.2084 285.061 87.5929 289.072 87.5929 289.072C87.5929 289.072 87.8184 223.676 85.4951 222.392C83.1719 221.109 73.2327 235.746 69.5688 246.388C65.4041 258.486 65.8241 282.81 66.5163 283.936Z" fill="white"/>
<path d="M74.4536 281.478L87.5624 279.358V293.045H103.311V303.995H87.5624V320.331C87.5624 323.097 88.0316 325.305 88.97 326.953C89.9671 328.602 91.932 329.426 94.8646 329.426C96.2723 329.426 97.7092 329.308 99.1755 329.072C100.7 328.778 102.079 328.396 103.311 327.925L105.158 338.168C103.574 338.815 101.815 339.374 99.8794 339.845C97.9438 340.316 95.5684 340.552 92.7531 340.552C89.1753 340.552 86.2134 340.081 83.8673 339.139C81.5212 338.138 79.6443 336.784 78.2367 335.077C76.829 333.311 75.8319 331.192 75.2454 328.719C74.7175 326.247 74.4536 323.509 74.4536 320.507V281.478Z" fill="white"/>
<path d="M575.095 124.676C576.389 123.26 577.711 121.785 579.063 120.251C580.474 118.717 581.826 117.213 583.119 115.738C584.412 114.204 585.617 112.759 586.734 111.402C587.91 110.045 588.909 108.865 589.732 107.862H605.339C602.224 111.461 599.167 114.912 596.169 118.216C593.23 121.461 589.997 124.824 586.47 128.305C588.233 129.898 590.056 131.815 591.937 134.057C593.818 136.24 595.64 138.512 597.403 140.872C599.167 143.232 600.784 145.592 602.253 147.952C603.723 150.312 604.957 152.465 605.956 154.412H590.879C589.938 152.878 588.851 151.197 587.616 149.368C586.44 147.48 585.177 145.621 583.825 143.792C582.473 141.904 581.032 140.105 579.504 138.394C578.034 136.683 576.565 135.237 575.095 134.057V154.412H561.957V87.8608L575.095 85.7368V124.676Z" fill="white"/>
<path d="M564.555 51.1272H572.033V82.6186H564.555V51.1272Z" fill="white"/>
<path d="M577.886 54.2796C577.886 52.5385 579.293 51.1272 581.027 51.1272H585.365V82.6186H577.886V54.2796Z" fill="white"/>
<path d="M554.361 90.1241C552.626 90.1241 551.22 88.7127 551.22 86.9717V82.6183H585.36V86.9717C585.36 88.7127 583.953 90.1241 582.219 90.1241H554.361Z" fill="white"/>
<path d="M551.22 51.1272H555.557C557.292 51.1272 558.698 52.5385 558.698 54.2796V82.6186L551.22 82.6183V51.1272Z" fill="white"/>
<path d="M516.271 97.7949C516.963 98.9202 537.347 102.931 537.347 102.931C537.347 102.931 537.573 37.5355 535.25 36.2518C532.926 34.9682 522.987 49.6054 519.323 60.2478C515.159 72.3451 515.579 96.6696 516.271 97.7949Z" fill="white"/>
<path d="M524.208 95.3375L537.317 93.2183V106.905H553.065V117.855H537.317V134.19C537.317 136.957 537.786 139.165 538.725 140.813C539.722 142.461 541.687 143.286 544.619 143.286C546.027 143.286 547.464 143.168 548.93 142.932C550.455 142.638 551.833 142.255 553.065 141.784L554.913 152.027C553.329 152.675 551.57 153.234 549.634 153.705C547.698 154.176 545.323 154.412 542.508 154.412C538.93 154.412 535.968 153.941 533.622 152.999C531.276 151.998 529.399 150.644 527.991 148.937C526.584 147.171 525.587 145.052 525 142.579C524.472 140.107 524.208 137.369 524.208 134.367V95.3375Z" fill="white"/>
<path d="M575.095 310.817C576.389 309.401 577.711 307.926 579.063 306.392C580.474 304.858 581.826 303.354 583.119 301.879C584.412 300.345 585.617 298.899 586.734 297.542C587.91 296.185 588.909 295.005 589.732 294.002H605.339C602.224 297.601 599.167 301.053 596.169 304.357C593.23 307.602 589.997 310.965 586.47 314.445C588.233 316.038 590.056 317.956 591.937 320.198C593.818 322.381 595.64 324.652 597.403 327.012C599.167 329.372 600.784 331.732 602.253 334.092C603.723 336.452 604.957 338.606 605.956 340.553H590.879C589.938 339.019 588.851 337.337 587.616 335.508C586.44 333.62 585.177 331.762 583.825 329.933C582.473 328.045 581.032 326.245 579.504 324.534C578.034 322.823 576.565 321.378 575.095 320.198V340.553H561.957V274.001L575.095 271.877V310.817Z" fill="white"/>
<path d="M564.555 237.268H572.033V268.759H564.555V237.268Z" fill="white"/>
<path d="M577.886 240.42C577.886 238.679 579.293 237.268 581.027 237.268H585.365V268.759H577.886V240.42Z" fill="white"/>
<path d="M554.361 276.265C552.626 276.265 551.22 274.853 551.22 273.112V268.759H585.36V273.112C585.36 274.853 583.953 276.265 582.219 276.265H554.361Z" fill="white"/>
<path d="M551.22 237.268H555.557C557.292 237.268 558.698 238.679 558.698 240.42V268.759L551.22 268.759V237.268Z" fill="white"/>
<path d="M516.271 283.936C516.963 285.061 537.347 289.072 537.347 289.072C537.347 289.072 537.573 223.676 535.25 222.392C532.926 221.109 522.987 235.746 519.323 246.388C515.159 258.486 515.579 282.81 516.271 283.936Z" fill="white"/>
<path d="M524.208 281.478L537.317 279.358V293.045H553.065V303.995H537.317V320.331C537.317 323.097 537.786 325.305 538.725 326.953C539.722 328.602 541.687 329.426 544.619 329.426C546.027 329.426 547.464 329.308 548.93 329.072C550.455 328.778 551.833 328.396 553.065 327.925L554.913 338.168C553.329 338.815 551.57 339.374 549.634 339.845C547.698 340.316 545.323 340.552 542.508 340.552C538.93 340.552 535.968 340.081 533.622 339.139C531.276 338.138 529.399 336.784 527.991 335.077C526.584 333.311 525.587 331.192 525 328.719C524.472 326.247 524.208 323.509 524.208 320.507V281.478Z" fill="white"/>
<path d="M350.593 127.691C351.886 126.275 353.209 124.8 354.561 123.266C355.971 121.732 357.323 120.228 358.617 118.753C359.91 117.219 361.115 115.773 362.232 114.416C363.407 113.059 364.407 111.879 365.23 110.876H380.837C377.721 114.475 374.664 117.927 371.666 121.231C368.727 124.476 365.494 127.839 361.967 131.32C363.731 132.912 365.553 134.83 367.434 137.072C369.315 139.255 371.137 141.526 372.901 143.886C374.664 146.246 376.281 148.606 377.751 150.966C379.22 153.326 380.455 155.48 381.454 157.427H366.376C365.435 155.893 364.348 154.211 363.114 152.382C361.938 150.494 360.674 148.636 359.322 146.807C357.97 144.919 356.53 143.119 355.001 141.408C353.532 139.697 352.062 138.252 350.593 137.072V157.427H337.455V90.8754L350.593 88.7514V127.691Z" fill="#3A3A3A"/>
<path d="M340.052 54.1418H347.53V85.6332H340.052V54.1418Z" fill="#3A3A3A"/>
<path d="M353.384 57.2942C353.384 55.5532 354.79 54.1418 356.525 54.1418H360.862V85.6332H353.384V57.2942Z" fill="#3A3A3A"/>
<path d="M329.858 93.1387C328.124 93.1387 326.717 91.7273 326.717 89.9863V85.633H360.857V89.9863C360.857 91.7273 359.451 93.1387 357.716 93.1387H329.858Z" fill="#3A3A3A"/>
<path d="M326.717 54.1418H331.055C332.789 54.1418 334.196 55.5532 334.196 57.2942V85.6332L326.717 85.633V54.1418Z" fill="#3A3A3A"/>
<path d="M291.768 100.81C292.46 101.935 312.845 105.946 312.845 105.946C312.845 105.946 313.07 40.5502 310.747 39.2665C308.424 37.9828 298.485 52.62 294.821 63.2625C290.656 75.3598 291.076 99.6843 291.768 100.81Z" fill="#3A3A3A"/>
<path d="M299.706 98.3517L312.814 96.2324V109.919H328.562V120.869H312.814V137.205C312.814 139.971 313.284 142.179 314.222 143.827C315.219 145.476 317.184 146.3 320.117 146.3C321.524 146.3 322.961 146.182 324.427 145.947C325.952 145.652 327.331 145.27 328.562 144.799L330.41 155.042C328.826 155.689 327.067 156.248 325.131 156.719C323.196 157.19 320.82 157.426 318.005 157.426C314.427 157.426 311.465 156.955 309.119 156.013C306.773 155.012 304.896 153.658 303.489 151.951C302.081 150.185 301.084 148.066 300.497 145.593C299.97 143.121 299.706 140.383 299.706 137.381V98.3517Z" fill="#3A3A3A"/>
<path d="M350.593 313.831C351.886 312.415 353.209 310.94 354.561 309.406C355.971 307.872 357.323 306.368 358.617 304.893C359.91 303.359 361.115 301.913 362.232 300.556C363.407 299.199 364.407 298.019 365.23 297.016H380.837C377.721 300.615 374.664 304.067 371.666 307.371C368.727 310.616 365.494 313.979 361.967 317.46C363.731 319.053 365.553 320.97 367.434 323.212C369.315 325.395 371.137 327.667 372.901 330.027C374.664 332.386 376.281 334.746 377.751 337.106C379.22 339.466 380.455 341.62 381.454 343.567H366.376C365.435 342.033 364.348 340.351 363.114 338.522C361.938 336.634 360.674 334.776 359.322 332.947C357.97 331.059 356.53 329.26 355.001 327.549C353.532 325.838 352.062 324.392 350.593 323.212V343.567H337.455V277.016L350.593 274.892V313.831Z" fill="white"/>
<path d="M340.052 240.282H347.53V271.773H340.052V240.282Z" fill="white"/>
<path d="M353.384 243.434C353.384 241.693 354.79 240.282 356.525 240.282H360.862V271.773H353.384V243.434Z" fill="white"/>
<path d="M329.858 279.279C328.124 279.279 326.717 277.867 326.717 276.126V271.773H360.857V276.126C360.857 277.867 359.451 279.279 357.716 279.279H329.858Z" fill="white"/>
<path d="M326.717 240.282H331.055C332.789 240.282 334.196 241.693 334.196 243.434V271.773L326.717 271.773V240.282Z" fill="white"/>
<path d="M291.768 286.95C292.46 288.075 312.845 292.086 312.845 292.086C312.845 292.086 313.07 226.69 310.747 225.407C308.424 224.123 298.485 238.76 294.821 249.403C290.656 261.5 291.076 285.824 291.768 286.95Z" fill="white"/>
<path d="M299.706 284.492L312.814 282.373V296.059H328.562V307.009H312.814V323.345C312.814 326.112 313.284 328.319 314.222 329.967C315.219 331.616 317.184 332.44 320.117 332.44C321.524 332.44 322.961 332.322 324.427 332.087C325.952 331.792 327.331 331.41 328.562 330.939L330.41 341.182C328.826 341.829 327.067 342.389 325.131 342.859C323.196 343.33 320.82 343.566 318.005 343.566C314.427 343.566 311.465 343.095 309.119 342.153C306.773 341.152 304.896 339.798 303.489 338.091C302.081 336.325 301.084 334.206 300.497 331.733C299.97 329.261 299.706 326.524 299.706 323.521V284.492Z" fill="white"/>
</svg>
