<svg width="32" height="32" viewBox="0 0 32 32" fill="none" xmlns="http://www.w3.org/2000/svg">
<path d="M16.0001 0C7.16812 0 0.00012207 7.168 0.00012207 16C0.00012207 24.832 7.16812 32 16.0001 32C24.8321 32 32.0001 24.832 32.0001 16C32.0001 7.168 24.8321 0 16.0001 0ZM23.4241 10.88C23.1841 13.408 22.1441 19.552 21.6161 22.384C21.3921 23.584 20.9441 23.984 20.5281 24.032C19.6001 24.112 18.8961 23.424 18.0001 22.832C16.5921 21.904 15.7921 21.328 14.4321 20.432C12.8481 19.392 13.8721 18.816 14.7841 17.888C15.0241 17.648 19.1201 13.92 19.2001 13.584C19.2112 13.5331 19.2098 13.4803 19.1958 13.4301C19.1819 13.3799 19.1559 13.3339 19.1201 13.296C19.0241 13.216 18.8961 13.248 18.7841 13.264C18.6401 13.296 16.4001 14.784 12.0321 17.728C11.3921 18.16 10.8161 18.384 10.3041 18.368C9.72812 18.352 8.64012 18.048 7.82412 17.776C6.81612 17.456 6.03212 17.28 6.09612 16.72C6.12812 16.432 6.52812 16.144 7.28012 15.84C11.9521 13.808 15.0561 12.464 16.6081 11.824C21.0561 9.968 21.9681 9.648 22.5761 9.648C22.7041 9.648 23.0081 9.68 23.2001 9.84C23.3601 9.968 23.4081 10.144 23.4241 10.272C23.4081 10.368 23.4401 10.656 23.4241 10.88Z" fill="#F48E28"/>
</svg>
