<svg width="296" height="296" viewBox="0 0 296 296" fill="none" xmlns="http://www.w3.org/2000/svg">
<circle cx="147.557" cy="147.556" r="144.791" transform="rotate(1.10511 147.557 147.556)" fill="#969ADA"/>
<circle cx="147.563" cy="147.559" r="144.063" transform="rotate(1.10511 147.563 147.559)" fill="#969ADA"/>
<circle cx="147.565" cy="147.555" r="143.336" transform="rotate(1.10511 147.565 147.555)" fill="#969ADA"/>
<circle cx="147.558" cy="147.556" r="142.609" transform="rotate(1.10511 147.558 147.556)" fill="#969ADA"/>
<circle cx="147.556" cy="147.555" r="141.882" transform="rotate(1.10511 147.556 147.555)" fill="#969ADA"/>
<circle cx="147.57" cy="147.557" r="141.154" transform="rotate(1.10511 147.57 147.557)" fill="#969ADA"/>
<circle cx="147.56" cy="147.554" r="140.427" transform="rotate(1.10511 147.56 147.554)" fill="#969ADA"/>
<circle cx="147.554" cy="147.553" r="139.7" transform="rotate(1.10511 147.554 147.553)" fill="#969ADA"/>
<circle cx="147.567" cy="147.559" r="138.972" transform="rotate(1.10511 147.567 147.559)" fill="#969ADA"/>
<circle cx="147.561" cy="147.556" r="138.245" transform="rotate(1.10511 147.561 147.556)" fill="#969ADA"/>
<circle cx="147.559" cy="147.554" r="137.518" transform="rotate(1.10511 147.559 147.554)" fill="#969ADA"/>
<circle cx="147.556" cy="147.555" r="136.79" transform="rotate(1.10511 147.556 147.555)" fill="#969ADA"/>
<circle cx="147.562" cy="147.555" r="136.063" transform="rotate(1.10511 147.562 147.555)" fill="#969ADA"/>
<circle cx="147.552" cy="147.554" r="135.336" transform="rotate(1.10511 147.552 147.554)" fill="#969ADA"/>
<circle cx="147.565" cy="147.559" r="134.609" transform="rotate(1.10511 147.565 147.559)" fill="#969ADA"/>
<circle cx="147.575" cy="147.558" r="133.881" transform="rotate(1.10511 147.575 147.558)" fill="#969ADA"/>
<circle cx="147.561" cy="147.554" r="133.154" transform="rotate(1.10511 147.561 147.554)" fill="#969ADA"/>
<circle cx="147.567" cy="147.555" r="132.427" transform="rotate(1.10511 147.567 147.555)" fill="#969ADA"/>
<circle cx="147.572" cy="147.557" r="131.699" transform="rotate(1.10511 147.572 147.557)" fill="#969ADA"/>
<circle cx="147.562" cy="147.555" r="130.972" transform="rotate(1.10511 147.562 147.555)" fill="#969ADA"/>
<circle cx="147.564" cy="147.555" r="130.245" transform="rotate(1.10511 147.564 147.555)" fill="#969ADA"/>
<circle cx="147.57" cy="147.556" r="129.517" transform="rotate(1.10511 147.57 147.556)" fill="#EF9354"/>
<circle cx="147.563" cy="147.556" r="128.79" transform="rotate(1.10511 147.563 147.556)" fill="#969ADA"/>
<circle cx="147.569" cy="147.558" r="128.063" transform="rotate(1.10511 147.569 147.558)" fill="#969ADA"/>
<circle cx="147.567" cy="147.56" r="127.335" transform="rotate(1.10511 147.567 147.56)" fill="#EE9555"/>
<circle cx="147.561" cy="147.553" r="126.608" transform="rotate(1.10511 147.561 147.553)" fill="#EE9655"/>
<circle cx="147.566" cy="147.557" r="125.881" transform="rotate(1.10511 147.566 147.557)" fill="#969ADA"/>
<circle cx="147.564" cy="147.558" r="125.154" transform="rotate(1.10511 147.564 147.558)" fill="#969ADA"/>
<circle cx="147.558" cy="147.552" r="124.426" transform="rotate(1.10511 147.558 147.552)" fill="#ED9857"/>
<circle cx="147.564" cy="147.555" r="123.699" transform="rotate(1.10511 147.564 147.555)" fill="#EC9957"/>
<circle cx="147.561" cy="147.558" r="122.972" transform="rotate(1.10511 147.561 147.558)" fill="#EC9958"/>
<circle cx="147.551" cy="147.55" r="122.244" transform="rotate(1.10511 147.551 147.55)" fill="#EC9A58"/>
<circle cx="147.565" cy="147.555" r="121.517" transform="rotate(1.10511 147.565 147.555)" fill="#969ADA"/>
<circle cx="147.57" cy="147.559" r="120.79" transform="rotate(1.10511 147.57 147.559)" fill="#969ADA"/>
<circle cx="147.564" cy="147.557" r="120.062" transform="rotate(1.10511 147.564 147.557)" fill="#EB9C59"/>
<circle cx="147.566" cy="147.555" r="119.335" transform="rotate(1.10511 147.566 147.555)" fill="#EB9D5A"/>
<circle cx="147.568" cy="147.557" r="118.608" transform="rotate(1.10511 147.568 147.557)" fill="#EA9D5A"/>
<circle cx="147.562" cy="147.559" r="117.88" transform="rotate(1.10511 147.562 147.559)" fill="#EA9E5B"/>
<circle cx="147.575" cy="147.557" r="117.153" transform="rotate(1.10511 147.575 147.557)" fill="#EA9F5B"/>
<circle cx="147.573" cy="147.557" r="116.426" transform="rotate(1.10511 147.573 147.557)" fill="#E99F5C"/>
<circle cx="147.567" cy="147.558" r="115.699" transform="rotate(1.10511 147.567 147.558)" fill="#E9A05C"/>
<circle cx="147.572" cy="147.559" r="114.971" transform="rotate(1.10511 147.572 147.559)" fill="#969ADA"/>
<circle cx="147.566" cy="147.558" r="114.244" transform="rotate(1.10511 147.566 147.558)" fill="#969ADA"/>
<circle cx="147.572" cy="147.562" r="113.517" transform="rotate(1.10511 147.572 147.562)" fill="#E8A25E"/>
<circle cx="147.57" cy="147.56" r="112.789" transform="rotate(1.10511 147.57 147.56)" fill="#969ADA"/>
<circle cx="147.564" cy="147.555" r="112.062" transform="rotate(1.10511 147.564 147.555)" fill="#969ADA"/>
<circle cx="147.557" cy="147.556" r="111.335" transform="rotate(1.10511 147.557 147.556)" fill="#E7A45F"/>
<circle cx="147.571" cy="147.558" r="110.607" transform="rotate(1.10511 147.571 147.558)" fill="#E7A55F"/>
<circle cx="147.557" cy="147.556" r="109.88" transform="rotate(1.10511 147.557 147.556)" fill="#E7A560"/>
<circle cx="147.566" cy="147.554" r="109.153" transform="rotate(1.10511 147.566 147.554)" fill="#969ADA"/>
<circle cx="147.56" cy="147.558" r="108.426" transform="rotate(1.10511 147.56 147.558)" fill="#969ADA"/>
<circle cx="147.566" cy="147.562" r="107.698" transform="rotate(1.10511 147.566 147.562)" fill="#969ADA"/>
<circle cx="147.572" cy="147.558" r="106.971" transform="rotate(1.10511 147.572 147.558)" fill="#E6A862"/>
<circle cx="147.573" cy="147.561" r="106.244" transform="rotate(1.10511 147.573 147.561)" fill="#E5A962"/>
<circle cx="147.567" cy="147.557" r="105.516" transform="rotate(1.10511 147.567 147.557)" fill="#E5A963"/>
<circle cx="147.561" cy="147.555" r="104.789" transform="rotate(1.10511 147.561 147.555)" fill="#969ADA"/>
<circle cx="147.563" cy="147.555" r="104.062" transform="rotate(1.10511 147.563 147.555)" fill="#969ADA"/>
<circle cx="147.564" cy="147.553" r="103.334" transform="rotate(1.10511 147.564 147.553)" fill="#969ADA"/>
<circle cx="147.566" cy="147.557" r="102.607" transform="rotate(1.10511 147.566 147.557)" fill="#E4AC64"/>
<circle cx="147.564" cy="147.56" r="101.88" transform="rotate(1.10511 147.564 147.56)" fill="#969ADA"/>
<circle cx="147.558" cy="147.554" r="101.152" transform="rotate(1.10511 147.558 147.554)" fill="#969ADA"/>
<circle cx="147.559" cy="147.558" r="100.425" transform="rotate(1.10511 147.559 147.558)" fill="#E3AE66"/>
<circle cx="147.553" cy="147.553" r="99.6979" transform="rotate(1.10511 147.553 147.553)" fill="#E3AF66"/>
<circle cx="147.555" cy="147.554" r="98.9705" transform="rotate(1.10511 147.555 147.554)" fill="#E2AF67"/>
<circle cx="147.572" cy="147.558" r="98.2433" transform="rotate(1.10511 147.572 147.558)" fill="#E2B067"/>
<circle cx="147.555" cy="147.556" r="97.516" transform="rotate(1.10511 147.555 147.556)" fill="#E2B168"/>
<circle cx="147.56" cy="147.558" r="96.7887" transform="rotate(1.10511 147.56 147.558)" fill="#E1B168"/>
<circle cx="147.566" cy="147.56" r="96.0613" transform="rotate(1.10511 147.566 147.56)" fill="#E1B269"/>
<circle cx="147.567" cy="147.557" r="95.334" transform="rotate(1.10511 147.567 147.557)" fill="#969ADA"/>
<circle cx="147.569" cy="147.558" r="94.6067" transform="rotate(1.10511 147.569 147.558)" fill="#969ADA"/>
<circle cx="147.571" cy="147.558" r="93.8794" transform="rotate(1.10511 147.571 147.558)" fill="#E0B46A"/>
<circle cx="147.561" cy="147.555" r="93.1521" transform="rotate(1.10511 147.561 147.555)" fill="#E0B56A"/>
<circle cx="147.566" cy="147.558" r="92.4248" transform="rotate(1.10511 147.566 147.558)" fill="#E0B56B"/>
<circle cx="147.568" cy="147.556" r="91.6975" transform="rotate(1.10511 147.568 147.556)" fill="#DFB66B"/>
<circle cx="148.775" cy="147.578" r="130.221" transform="rotate(1.10511 148.775 147.578)" fill="#DFB76C"/>
<circle cx="147.564" cy="147.558" r="90.2429" transform="rotate(1.10511 147.564 147.558)" fill="#DFB76C"/>
<circle cx="147.565" cy="147.555" r="89.5156" transform="rotate(1.10511 147.565 147.555)" fill="#DEB86D"/>
<circle cx="147.567" cy="147.556" r="88.7883" transform="rotate(1.10511 147.567 147.556)" fill="#DEB96D"/>
<circle cx="147.565" cy="147.555" r="88.061" transform="rotate(1.10511 147.565 147.555)" fill="#DEBA6E"/>
<circle cx="147.559" cy="147.554" r="87.3337" transform="rotate(1.10511 147.559 147.554)" fill="#DEBA6E"/>
<circle cx="147.564" cy="147.558" r="86.6064" transform="rotate(1.10511 147.564 147.558)" fill="#DDBB6E"/>
<circle cx="147.566" cy="147.558" r="85.8791" transform="rotate(1.10511 147.566 147.558)" fill="#DDBC6F"/>
<circle cx="147.564" cy="147.558" r="85.1518" transform="rotate(1.10511 147.564 147.558)" fill="#DDBC6F"/>
<circle cx="147.554" cy="147.554" r="84.4245" transform="rotate(1.10511 147.554 147.554)" fill="#DCBD70"/>
<circle cx="147.556" cy="147.554" r="83.6972" transform="rotate(1.10511 147.556 147.554)" fill="#DCBE70"/>
<circle cx="147.561" cy="147.558" r="82.9698" transform="rotate(1.10511 147.561 147.558)" fill="#DCBE71"/>
<circle cx="147.563" cy="147.555" r="82.2426" transform="rotate(1.10511 147.563 147.555)" fill="#DBBF71"/>
<circle cx="147.561" cy="147.554" r="81.5152" transform="rotate(1.10511 147.561 147.554)" fill="#DBC072"/>
<circle cx="147.559" cy="147.557" r="80.7879" transform="rotate(1.10511 147.559 147.557)" fill="#DBC072"/>
<circle cx="147.56" cy="147.555" r="80.0606" transform="rotate(1.10511 147.56 147.555)" fill="#DBC173"/>
<circle cx="147.554" cy="147.556" r="79.3333" transform="rotate(1.10511 147.554 147.556)" fill="#DAC273"/>
<circle cx="147.556" cy="147.555" r="78.606" transform="rotate(1.10511 147.556 147.555)" fill="#DAC273"/>
<circle cx="147.573" cy="147.559" r="77.8787" transform="rotate(1.10511 147.573 147.559)" fill="#DAC374"/>
<circle cx="147.563" cy="147.555" r="77.1514" transform="rotate(1.10511 147.563 147.555)" fill="#D9C474"/>
<circle cx="147.561" cy="147.554" r="76.4241" transform="rotate(1.10511 147.561 147.554)" fill="#D9C475"/>
<circle cx="147.563" cy="147.557" r="75.6968" transform="rotate(1.10511 147.563 147.557)" fill="#D9C575"/>
<circle cx="147.557" cy="147.557" r="74.9695" transform="rotate(1.10511 147.557 147.557)" fill="#D8C676"/>
<circle cx="147.558" cy="147.553" r="74.2422" transform="rotate(1.10511 147.558 147.553)" fill="#D8C676"/>
<circle cx="147.564" cy="147.555" r="73.5149" transform="rotate(1.10511 147.564 147.555)" fill="#D8C777"/>
<g filter="url(#filter0_f_1913_7076)">
<circle cx="147.552" cy="147.551" r="120.715" transform="rotate(1.10511 147.552 147.551)" fill="#78470E"/>
</g>
<g filter="url(#filter1_f_1913_7076)">
<circle cx="147.548" cy="147.551" r="120.715" transform="rotate(1.10511 147.548 147.551)" fill="#78470E"/>
</g>
<circle cx="147.558" cy="147.554" r="72.7876" transform="rotate(1.10511 147.558 147.554)" fill="#D8C877"/>
<circle cx="147.563" cy="147.555" r="72.0603" transform="rotate(1.10511 147.563 147.555)" fill="#D7C878"/>
<circle cx="147.569" cy="147.557" r="71.333" transform="rotate(1.10511 147.569 147.557)" fill="#D7C978"/>
<g filter="url(#filter2_f_1913_7076)">
<circle cx="148.736" cy="149.314" r="102.111" transform="rotate(1.10511 148.736 149.314)" fill="#B4AF2A"/>
</g>
<g filter="url(#filter3_f_1913_7076)">
<circle cx="147.064" cy="147.043" r="37.4412" transform="rotate(1.10511 147.064 147.043)" fill="#DFB76C"/>
</g>
<ellipse cx="5.52489" cy="8.21468" rx="5.52489" ry="8.21468" transform="matrix(-0.842678 0.538418 0.538418 0.842678 103.238 76.5723)" fill="#291808"/>
<ellipse cx="5.52489" cy="8.21468" rx="5.52489" ry="8.21468" transform="matrix(-0.842678 0.538418 0.538418 0.842678 124.484 76.9805)" fill="#291808"/>
<ellipse cx="5.52489" cy="8.21469" rx="5.52489" ry="8.21469" transform="matrix(-0.66813 0.744044 0.744044 0.66813 100.145 99.9326)" fill="#291808"/>
<ellipse cx="5.52489" cy="8.21468" rx="5.52489" ry="8.21468" transform="matrix(-0.761421 -0.648258 -0.648258 0.761421 190.469 74.9307)" fill="#291808"/>
<ellipse cx="5.52489" cy="8.21469" rx="5.52489" ry="8.21469" transform="matrix(-0.999969 -0.00792094 -0.00792094 0.999969 144.871 60.9785)" fill="#291808"/>
<ellipse cx="5.52489" cy="8.21468" rx="5.52489" ry="8.21468" transform="matrix(-0.761421 -0.648258 -0.648258 0.761421 196.285 95.3643)" fill="#291808"/>
<ellipse cx="5.52489" cy="8.21468" rx="5.52489" ry="8.21468" transform="matrix(-0.761421 -0.648258 -0.648258 0.761421 221.117 102.846)" fill="#291808"/>
<ellipse cx="5.52489" cy="8.21469" rx="5.52489" ry="8.21469" transform="matrix(-0.906975 -0.421184 -0.421184 0.906975 167.207 78.8027)" fill="#291808"/>
<ellipse cx="5.52489" cy="8.21468" rx="5.52489" ry="8.21468" transform="matrix(0.153518 -0.988146 -0.988146 -0.153518 236.812 156.914)" fill="#291808"/>
<ellipse cx="5.52489" cy="8.21468" rx="5.52489" ry="8.21468" transform="matrix(0.153518 -0.988146 -0.988146 -0.153518 222.449 172.579)" fill="#291808"/>
<ellipse cx="5.52489" cy="8.21469" rx="5.52489" ry="8.21469" transform="matrix(-0.116153 -0.993231 -0.993231 0.116153 221.34 139.139)" fill="#291808"/>
<ellipse cx="5.52489" cy="8.21469" rx="5.52489" ry="8.21469" transform="matrix(0.989819 -0.14233 -0.14233 -0.989819 180.348 223.42)" fill="#291808"/>
<ellipse cx="5.52489" cy="8.21469" rx="5.52489" ry="8.21469" transform="matrix(0.667322 -0.744769 -0.744769 -0.667322 220.973 198.442)" fill="#291808"/>
<ellipse cx="5.52489" cy="8.21469" rx="5.52489" ry="8.21469" transform="matrix(0.989819 -0.14233 -0.14233 -0.989819 161.168 214.271)" fill="#291808"/>
<ellipse cx="5.52489" cy="8.21469" rx="5.52489" ry="8.21469" transform="matrix(0.915776 -0.401688 -0.401688 -0.915776 192.812 203.414)" fill="#291808"/>
<ellipse cx="5.52489" cy="8.21469" rx="5.52489" ry="8.21469" transform="matrix(0.853537 0.521031 0.521031 -0.853537 99.9375 215.847)" fill="#291808"/>
<ellipse cx="5.52489" cy="8.21469" rx="5.52489" ry="8.21469" transform="matrix(0.853537 0.521031 0.521031 -0.853537 90.9844 196.572)" fill="#291808"/>
<ellipse cx="5.52489" cy="8.21469" rx="5.52489" ry="8.21469" transform="matrix(0.961739 0.273966 0.273966 -0.961739 122.293 208.374)" fill="#291808"/>
<ellipse cx="5.52489" cy="8.21469" rx="5.52489" ry="8.21469" transform="matrix(-0.248485 0.968636 0.968636 0.248485 60.1992 138.184)" fill="#291808"/>
<ellipse cx="5.52489" cy="8.21469" rx="5.52489" ry="8.21469" transform="matrix(0.431593 0.902069 0.902069 -0.431593 67.6602 185.278)" fill="#291808"/>
<ellipse cx="5.52489" cy="8.21469" rx="5.52489" ry="8.21469" transform="matrix(-0.248485 0.968636 0.968636 0.248485 76.0078 123.985)" fill="#291808"/>
<ellipse cx="5.52489" cy="8.21469" rx="5.52489" ry="8.21469" transform="matrix(0.0194274 0.999811 0.999811 -0.0194274 73.8711 157.374)" fill="#291808"/>
<defs>
<filter id="filter0_f_1913_7076" x="15.8057" y="15.8057" width="263.494" height="263.492" filterUnits="userSpaceOnUse" color-interpolation-filters="sRGB">
<feFlood flood-opacity="0" result="BackgroundImageFix"/>
<feBlend mode="normal" in="SourceGraphic" in2="BackgroundImageFix" result="shape"/>
<feGaussianBlur stdDeviation="5.51511" result="effect1_foregroundBlur_1913_7076"/>
</filter>
<filter id="filter1_f_1913_7076" x="15.8018" y="15.8057" width="263.494" height="263.492" filterUnits="userSpaceOnUse" color-interpolation-filters="sRGB">
<feFlood flood-opacity="0" result="BackgroundImageFix"/>
<feBlend mode="normal" in="SourceGraphic" in2="BackgroundImageFix" result="shape"/>
<feGaussianBlur stdDeviation="5.51511" result="effect1_foregroundBlur_1913_7076"/>
</filter>
<filter id="filter2_f_1913_7076" x="37.2948" y="37.8729" width="222.883" height="222.882" filterUnits="userSpaceOnUse" color-interpolation-filters="sRGB">
<feFlood flood-opacity="0" result="BackgroundImageFix"/>
<feBlend mode="normal" in="SourceGraphic" in2="BackgroundImageFix" result="shape"/>
<feGaussianBlur stdDeviation="4.66511" result="effect1_foregroundBlur_1913_7076"/>
</filter>
<filter id="filter3_f_1913_7076" x="102.288" y="102.269" width="89.5482" height="89.5482" filterUnits="userSpaceOnUse" color-interpolation-filters="sRGB">
<feFlood flood-opacity="0" result="BackgroundImageFix"/>
<feBlend mode="normal" in="SourceGraphic" in2="BackgroundImageFix" result="shape"/>
<feGaussianBlur stdDeviation="3.66635" result="effect1_foregroundBlur_1913_7076"/>
</filter>
</defs>
</svg>
