<svg width="669" height="373" viewBox="0 0 669 373" fill="none" xmlns="http://www.w3.org/2000/svg">
<rect x="2.98987" width="666.01" height="372.232" rx="17.5857" fill="#D9D9D9"/>
<path d="M0 17.5857C0 7.87341 7.87341 0 17.5857 0H337.116V186.116H0V17.5857Z" fill="#93AD49"/>
<path d="M259.329 116.489C260.276 116.489 261.18 116.468 262.042 116.427C262.903 116.385 263.592 116.323 264.108 116.24V109.214C263.721 109.131 263.14 109.048 262.365 108.965C261.59 108.882 260.879 108.841 260.233 108.841C259.329 108.841 258.468 108.903 257.65 109.027C256.875 109.11 256.186 109.297 255.583 109.587C254.98 109.877 254.507 110.271 254.162 110.768C253.818 111.266 253.645 111.888 253.645 112.634C253.645 114.085 254.141 115.1 255.131 115.68C256.164 116.219 257.564 116.489 259.329 116.489ZM258.554 89.3789C261.396 89.3789 263.764 89.6898 265.658 90.3116C267.553 90.9334 269.06 91.8246 270.18 92.9853C271.342 94.1459 272.16 95.5553 272.634 97.2134C273.107 98.8715 273.344 100.716 273.344 102.747V122.023C271.966 122.313 270.05 122.644 267.596 123.018C265.142 123.432 262.171 123.639 258.683 123.639C256.487 123.639 254.485 123.453 252.677 123.08C250.911 122.707 249.383 122.106 248.091 121.277C246.799 120.406 245.809 119.287 245.12 117.919C244.431 116.551 244.087 114.872 244.087 112.882C244.087 110.976 244.474 109.359 245.249 108.033C246.067 106.706 247.144 105.649 248.479 104.861C249.813 104.074 251.342 103.514 253.064 103.183C254.786 102.809 256.573 102.623 258.425 102.623C259.673 102.623 260.771 102.685 261.719 102.809C262.709 102.892 263.506 103.017 264.108 103.183V102.312C264.108 100.737 263.613 99.4726 262.623 98.5192C261.633 97.5658 259.91 97.0891 257.456 97.0891C255.82 97.0891 254.205 97.2134 252.612 97.4621C251.019 97.6694 249.641 97.9803 248.479 98.3948L247.251 90.9334C247.811 90.7676 248.5 90.6018 249.318 90.4359C250.179 90.2287 251.105 90.0629 252.095 89.9385C253.086 89.7727 254.119 89.6483 255.196 89.5654C256.315 89.4411 257.434 89.3789 258.554 89.3789Z" fill="white"/>
<path d="M219.2 102.064C220.147 101.069 221.116 100.033 222.107 98.9548C223.14 97.877 224.13 96.82 225.077 95.7836C226.025 94.7059 226.907 93.6903 227.726 92.7369C228.587 91.7835 229.319 90.9544 229.921 90.2497H241.353C239.071 92.7783 236.832 95.2033 234.636 97.5246C232.483 99.8045 230.115 102.167 227.532 104.613C228.823 105.732 230.158 107.079 231.536 108.655C232.914 110.188 234.249 111.784 235.54 113.442C236.832 115.1 238.016 116.759 239.093 118.417C240.169 120.075 241.073 121.588 241.805 122.956H230.761C230.072 121.878 229.276 120.697 228.371 119.412C227.51 118.085 226.585 116.779 225.594 115.494C224.604 114.168 223.549 112.903 222.429 111.701C221.353 110.499 220.277 109.484 219.2 108.655V122.956H209.577V76.1974L219.2 74.7051V102.064Z" fill="white"/>
<path d="M201.156 123.577C198.357 123.536 196.075 123.246 194.31 122.707C192.588 122.168 191.21 121.422 190.176 120.469C189.186 119.474 188.497 118.292 188.11 116.924C187.765 115.515 187.593 113.94 187.593 112.199V76.1974L197.216 74.7051V110.333C197.216 111.162 197.281 111.909 197.41 112.572C197.539 113.235 197.776 113.795 198.121 114.251C198.508 114.707 199.046 115.08 199.735 115.37C200.424 115.66 201.35 115.847 202.512 115.93L201.156 123.577Z" fill="white"/>
<path d="M148.261 106.851C148.261 103.949 148.713 101.421 149.617 99.2653C150.565 97.0683 151.792 95.2444 153.299 93.7936C154.806 92.3428 156.528 91.2443 158.466 90.4981C160.446 89.752 162.47 89.3789 164.537 89.3789C169.359 89.3789 173.17 90.809 175.968 93.6692C178.767 96.488 180.167 100.654 180.167 106.167C180.167 106.706 180.145 107.307 180.102 107.97C180.059 108.592 180.016 109.152 179.973 109.649H158.143C158.358 111.556 159.284 113.069 160.92 114.188C162.556 115.307 164.752 115.867 167.508 115.867C169.273 115.867 170.995 115.722 172.675 115.432C174.397 115.1 175.796 114.706 176.873 114.25L178.164 121.774C177.648 122.023 176.959 122.271 176.098 122.52C175.237 122.769 174.268 122.976 173.191 123.142C172.158 123.349 171.038 123.515 169.833 123.639C168.627 123.764 167.422 123.826 166.216 123.826C163.159 123.826 160.489 123.391 158.207 122.52C155.968 121.65 154.095 120.468 152.588 118.976C151.124 117.442 150.026 115.639 149.294 113.566C148.605 111.494 148.261 109.255 148.261 106.851ZM170.866 103.307C170.823 102.519 170.672 101.752 170.414 101.006C170.199 100.26 169.833 99.5969 169.316 99.0166C168.842 98.4363 168.218 97.9596 167.443 97.5865C166.711 97.2134 165.785 97.0269 164.666 97.0269C163.589 97.0269 162.664 97.2134 161.889 97.5865C161.114 97.9181 160.468 98.3741 159.951 98.9544C159.434 99.5348 159.025 100.219 158.724 101.006C158.466 101.752 158.272 102.519 158.143 103.307H170.866Z" fill="white"/>
<path d="M143.732 98.4575C142.871 98.2502 141.859 98.0429 140.696 97.8357C139.534 97.587 138.285 97.4626 136.95 97.4626C136.348 97.4626 135.616 97.5248 134.755 97.6491C133.936 97.732 133.312 97.8357 132.882 97.96V122.956H123.258V91.9909C124.98 91.4106 127.004 90.8717 129.329 90.3742C131.697 89.8354 134.324 89.5659 137.209 89.5659C137.725 89.5659 138.35 89.6074 139.082 89.6903C139.814 89.7317 140.546 89.8146 141.278 89.939C142.01 90.0219 142.742 90.1462 143.474 90.3121C144.206 90.4364 144.83 90.6022 145.347 90.8095L143.732 98.4575Z" fill="white"/>
<path d="M100.541 116.489C101.488 116.489 102.392 116.468 103.253 116.427C104.114 116.385 104.803 116.323 105.32 116.24V109.214C104.933 109.131 104.351 109.048 103.576 108.965C102.801 108.882 102.091 108.841 101.445 108.841C100.541 108.841 99.6795 108.903 98.8614 109.027C98.0864 109.11 97.3975 109.297 96.7947 109.587C96.1919 109.877 95.7183 110.271 95.3738 110.768C95.0293 111.266 94.8571 111.888 94.8571 112.634C94.8571 114.085 95.3523 115.1 96.3426 115.68C97.376 116.219 98.7753 116.489 100.541 116.489ZM99.7657 89.3789C102.607 89.3789 104.976 89.6898 106.87 90.3116C108.765 90.9334 110.272 91.8246 111.391 92.9853C112.554 94.1459 113.372 95.5553 113.845 97.2134C114.319 98.8715 114.556 100.716 114.556 102.747V122.023C113.178 122.313 111.262 122.644 108.808 123.018C106.353 123.432 103.382 123.639 99.8948 123.639C97.6989 123.639 95.6967 123.453 93.8883 123.08C92.123 122.707 90.5944 122.106 89.3027 121.277C88.011 120.406 87.0206 119.287 86.3317 117.919C85.6428 116.551 85.2983 114.872 85.2983 112.882C85.2983 110.976 85.6859 109.359 86.4609 108.033C87.279 106.706 88.3554 105.649 89.6902 104.861C91.025 104.074 92.5535 103.514 94.2758 103.183C95.9981 102.809 97.785 102.623 99.6365 102.623C100.885 102.623 101.983 102.685 102.93 102.809C103.921 102.892 104.717 103.017 105.32 103.183V102.312C105.32 100.737 104.825 99.4726 103.835 98.5192C102.844 97.5658 101.122 97.0891 98.6677 97.0891C97.0315 97.0891 95.4169 97.2134 93.8237 97.4621C92.2306 97.6694 90.8528 97.9803 89.6902 98.3948L88.4631 90.9334C89.0228 90.7676 89.7117 90.6018 90.5298 90.4359C91.391 90.2287 92.3167 90.0629 93.307 89.9385C94.2974 89.7727 95.3307 89.6483 96.4072 89.5654C97.5267 89.4411 98.6462 89.3789 99.7657 89.3789Z" fill="white"/>
<path d="M59.7993 82.1041L69.4227 80.6118V90.2495H80.9836V97.9597H69.4227V109.463C69.4227 111.411 69.7671 112.965 70.456 114.126C71.188 115.287 72.6304 115.867 74.7833 115.867C75.8167 115.867 76.8716 115.784 77.948 115.618C79.0675 115.411 80.0794 115.142 80.9836 114.81L82.3399 122.023C81.1774 122.479 79.8856 122.873 78.4647 123.204C77.0438 123.536 75.3 123.702 73.2333 123.702C70.6067 123.702 68.4323 123.37 66.71 122.707C64.9877 122.002 63.6099 121.049 62.5765 119.847C61.5431 118.603 60.8112 117.111 60.3806 115.37C59.9931 113.629 59.7993 111.701 59.7993 109.587V82.1041Z" fill="white"/>
<rect x="211.478" y="50.3887" width="5.47765" height="22.1256" fill="white"/>
<path d="M221.24 52.9108C221.24 51.5178 222.369 50.3887 223.762 50.3887H226.718V72.5143H221.24V52.9108Z" fill="white"/>
<path d="M204.236 77.7876C202.843 77.7876 201.714 76.6584 201.714 75.2655V72.5141H226.72V75.2655C226.72 76.6584 225.591 77.7876 224.198 77.7876H204.236Z" fill="white"/>
<path d="M201.714 50.3887H204.669C206.062 50.3887 207.191 51.5178 207.191 52.9108V72.5143H201.714V50.3887Z" fill="white"/>
<path d="M182.983 80.5857C183.49 81.3763 197.187 84.7235 197.187 84.7235C197.187 84.7235 197.353 41.6216 195.652 40.7197C193.95 39.8178 186.67 50.1018 183.986 57.5791C180.935 66.0785 182.476 79.7951 182.983 80.5857Z" fill="white"/>
<path d="M0 186.116H221.256V372.232H17.5857C7.87341 372.232 0 364.358 0 354.646V186.116Z" fill="#969ADA"/>
<path d="M448.492 186.116H669V354.646C669 364.358 661.127 372.232 651.414 372.232H448.492V186.116Z" fill="#ED7D41"/>
<path d="M221.256 186.116H448.492V372.232H221.256V186.116Z" fill="#EA86D1"/>
<path d="M669 17.5857C669 7.87341 661.127 0 651.414 0H337.116V186.116H669V17.5857Z" fill="#2B6243"/>
<path d="M597.192 114.291C598.14 114.291 599.044 114.27 599.905 114.228C600.766 114.187 601.455 114.125 601.972 114.042V107.016C601.584 106.933 601.003 106.85 600.228 106.767C599.453 106.684 598.742 106.643 598.097 106.643C597.192 106.643 596.331 106.705 595.513 106.829C594.738 106.912 594.049 107.099 593.446 107.389C592.843 107.679 592.37 108.073 592.025 108.57C591.681 109.068 591.509 109.689 591.509 110.435C591.509 111.886 592.004 112.902 592.994 113.482C594.028 114.021 595.427 114.291 597.192 114.291ZM596.417 87.1807C599.259 87.1807 601.627 87.4916 603.522 88.1133C605.416 88.7351 606.923 89.6264 608.043 90.787C609.205 91.9477 610.023 93.3571 610.497 95.0152C610.971 96.6733 611.208 98.5179 611.208 100.549V119.824C609.83 120.115 607.914 120.446 605.459 120.819C603.005 121.234 600.034 121.441 596.546 121.441C594.351 121.441 592.348 121.255 590.54 120.881C588.775 120.508 587.246 119.907 585.954 119.078C584.663 118.208 583.672 117.089 582.983 115.721C582.294 114.353 581.95 112.674 581.95 110.684C581.95 108.777 582.337 107.161 583.113 105.834C583.931 104.508 585.007 103.451 586.342 102.663C587.677 101.876 589.205 101.316 590.927 100.984C592.65 100.611 594.437 100.425 596.288 100.425C597.537 100.425 598.635 100.487 599.582 100.611C600.572 100.694 601.369 100.819 601.972 100.984V100.114C601.972 98.5386 601.477 97.2743 600.486 96.3209C599.496 95.3675 597.774 94.8908 595.319 94.8908C593.683 94.8908 592.068 95.0152 590.475 95.2639C588.882 95.4712 587.504 95.782 586.342 96.1966L585.115 88.7351C585.674 88.5693 586.363 88.4035 587.181 88.2377C588.043 88.0304 588.968 87.8646 589.959 87.7403C590.949 87.5745 591.982 87.4501 593.059 87.3672C594.178 87.2428 595.298 87.1807 596.417 87.1807Z" fill="white"/>
<path d="M557.063 99.8654C558.011 98.8706 558.979 97.8343 559.97 96.7565C561.003 95.6787 561.993 94.6217 562.941 93.5854C563.888 92.5076 564.771 91.4921 565.589 90.5386C566.45 89.5852 567.182 88.7562 567.785 88.0515H579.216C576.934 90.5801 574.695 93.0051 572.499 95.3264C570.347 97.6063 567.978 99.9691 565.395 102.415C566.687 103.534 568.021 104.881 569.399 106.456C570.777 107.99 572.112 109.586 573.404 111.244C574.695 112.902 575.879 114.56 576.956 116.218C578.032 117.877 578.937 119.39 579.668 120.757H568.624C567.935 119.68 567.139 118.498 566.235 117.213C565.373 115.887 564.448 114.581 563.457 113.296C562.467 111.97 561.412 110.705 560.293 109.503C559.216 108.301 558.14 107.285 557.063 106.456V120.757H547.44V73.9991L557.063 72.5068V99.8654Z" fill="white"/>
<path d="M539.019 121.379C536.221 121.338 533.939 121.048 532.173 120.509C530.451 119.97 529.073 119.224 528.04 118.27C527.049 117.275 526.361 116.094 525.973 114.726C525.629 113.317 525.456 111.742 525.456 110.001V73.9991L535.08 72.5068V108.135C535.08 108.964 535.144 109.71 535.273 110.374C535.403 111.037 535.639 111.596 535.984 112.052C536.371 112.508 536.91 112.882 537.599 113.172C538.287 113.462 539.213 113.648 540.376 113.731L539.019 121.379Z" fill="white"/>
<path d="M486.125 104.653C486.125 101.751 486.577 99.2226 487.481 97.0671C488.428 94.8701 489.655 93.0462 491.162 91.5954C492.669 90.1445 494.392 89.046 496.329 88.2999C498.31 87.5537 500.333 87.1807 502.4 87.1807C507.223 87.1807 511.033 88.6108 513.832 91.471C516.631 94.2898 518.03 98.4557 518.03 103.969C518.03 104.508 518.009 105.109 517.966 105.772C517.922 106.394 517.879 106.953 517.836 107.451H496.006C496.221 109.358 497.147 110.871 498.783 111.99C500.42 113.109 502.616 113.669 505.371 113.669C507.137 113.669 508.859 113.524 510.538 113.234C512.26 112.902 513.66 112.508 514.736 112.052L516.028 119.576C515.511 119.824 514.822 120.073 513.961 120.322C513.1 120.571 512.131 120.778 511.055 120.944C510.021 121.151 508.902 121.317 507.696 121.441C506.491 121.565 505.285 121.628 504.079 121.628C501.022 121.628 498.353 121.192 496.071 120.322C493.832 119.451 491.959 118.27 490.452 116.778C488.988 115.244 487.89 113.441 487.158 111.368C486.469 109.296 486.125 107.057 486.125 104.653ZM508.73 101.109C508.687 100.321 508.536 99.5542 508.278 98.8081C508.062 98.0619 507.696 97.3987 507.18 96.8184C506.706 96.238 506.082 95.7613 505.307 95.3882C504.575 95.0152 503.649 94.8286 502.529 94.8286C501.453 94.8286 500.527 95.0152 499.752 95.3882C498.977 95.7199 498.331 96.1758 497.815 96.7562C497.298 97.3365 496.889 98.0205 496.587 98.8081C496.329 99.5542 496.135 100.321 496.006 101.109H508.73Z" fill="white"/>
<path d="M481.595 96.2592C480.734 96.052 479.722 95.8447 478.56 95.6374C477.397 95.3887 476.149 95.2644 474.814 95.2644C474.211 95.2644 473.479 95.3265 472.618 95.4509C471.8 95.5338 471.176 95.6374 470.745 95.7618V120.758H461.122V89.7926C462.844 89.2123 464.868 88.6734 467.193 88.176C469.561 87.6371 472.187 87.3677 475.072 87.3677C475.589 87.3677 476.213 87.4091 476.945 87.492C477.677 87.5335 478.409 87.6164 479.141 87.7407C479.873 87.8237 480.605 87.948 481.337 88.1138C482.069 88.2382 482.693 88.404 483.21 88.6112L481.595 96.2592Z" fill="white"/>
<path d="M438.404 114.291C439.351 114.291 440.256 114.27 441.117 114.228C441.978 114.187 442.667 114.125 443.184 114.042V107.016C442.796 106.933 442.215 106.85 441.44 106.767C440.665 106.684 439.954 106.643 439.308 106.643C438.404 106.643 437.543 106.705 436.725 106.829C435.95 106.912 435.261 107.099 434.658 107.389C434.055 107.679 433.582 108.073 433.237 108.57C432.893 109.068 432.721 109.689 432.721 110.435C432.721 111.886 433.216 112.902 434.206 113.482C435.239 114.021 436.639 114.291 438.404 114.291ZM437.629 87.1807C440.471 87.1807 442.839 87.4916 444.734 88.1133C446.628 88.7351 448.135 89.6264 449.255 90.787C450.417 91.9477 451.235 93.3571 451.709 95.0152C452.183 96.6733 452.419 98.5179 452.419 100.549V119.824C451.042 120.115 449.126 120.446 446.671 120.819C444.217 121.234 441.246 121.441 437.758 121.441C435.562 121.441 433.56 121.255 431.752 120.881C429.986 120.508 428.458 119.907 427.166 119.078C425.874 118.208 424.884 117.089 424.195 115.721C423.506 114.353 423.162 112.674 423.162 110.684C423.162 108.777 423.549 107.161 424.324 105.834C425.143 104.508 426.219 103.451 427.554 102.663C428.889 101.876 430.417 101.316 432.139 100.984C433.862 100.611 435.649 100.425 437.5 100.425C438.749 100.425 439.847 100.487 440.794 100.611C441.784 100.694 442.581 100.819 443.184 100.984V100.114C443.184 98.5386 442.688 97.2743 441.698 96.3209C440.708 95.3675 438.985 94.8908 436.531 94.8908C434.895 94.8908 433.28 95.0152 431.687 95.2639C430.094 95.4712 428.716 95.782 427.554 96.1966L426.327 88.7351C426.886 88.5693 427.575 88.4035 428.393 88.2377C429.254 88.0304 430.18 87.8646 431.171 87.7403C432.161 87.5745 433.194 87.4501 434.271 87.3672C435.39 87.2428 436.51 87.1807 437.629 87.1807Z" fill="white"/>
<path d="M397.663 79.9059L407.286 78.4136V88.0513H418.847V95.7614H407.286V107.264C407.286 109.213 407.63 110.767 408.319 111.928C409.051 113.089 410.494 113.669 412.647 113.669C413.68 113.669 414.735 113.586 415.811 113.42C416.931 113.213 417.943 112.943 418.847 112.612L420.203 119.825C419.041 120.281 417.749 120.674 416.328 121.006C414.907 121.338 413.163 121.503 411.097 121.503C408.47 121.503 406.296 121.172 404.573 120.509C402.851 119.804 401.473 118.85 400.44 117.648C399.406 116.405 398.674 114.912 398.244 113.171C397.856 111.43 397.663 109.503 397.663 107.389V79.9059Z" fill="white"/>
<rect x="549.341" y="48.1904" width="5.47765" height="22.1256" fill="white"/>
<path d="M559.103 50.7125C559.103 49.3196 560.232 48.1904 561.625 48.1904H564.581V70.316H559.103V50.7125Z" fill="white"/>
<path d="M542.099 75.5894C540.706 75.5894 539.577 74.4602 539.577 73.0673V70.3159H564.584V73.0673C564.584 74.4602 563.454 75.5894 562.061 75.5894H542.099Z" fill="white"/>
<path d="M539.577 48.1904H542.532C543.925 48.1904 545.055 49.3196 545.055 50.7125V70.316H539.577V48.1904Z" fill="white"/>
<path d="M520.846 78.3875C521.353 79.1781 535.05 82.5252 535.05 82.5252C535.05 82.5252 535.217 39.4234 533.515 38.5215C531.813 37.6196 524.533 47.9035 521.849 55.3808C518.799 63.8803 520.339 77.5968 520.846 78.3875Z" fill="white"/>
<path d="M620.209 292.407C620.829 292.407 621.421 292.394 621.985 292.367C622.548 292.34 622.999 292.299 623.338 292.245V287.646C623.084 287.591 622.703 287.537 622.196 287.483C621.689 287.428 621.224 287.401 620.801 287.401C620.209 287.401 619.645 287.442 619.11 287.523C618.603 287.578 618.152 287.7 617.757 287.89C617.363 288.08 617.053 288.337 616.827 288.663C616.602 288.989 616.489 289.396 616.489 289.884C616.489 290.834 616.813 291.498 617.461 291.878C618.138 292.231 619.054 292.407 620.209 292.407ZM619.702 274.662C621.562 274.662 623.112 274.866 624.352 275.273C625.592 275.68 626.579 276.263 627.312 277.023C628.073 277.782 628.608 278.705 628.918 279.79C629.228 280.876 629.383 282.083 629.383 283.413V296.03C628.481 296.22 627.227 296.437 625.62 296.681C624.014 296.952 622.069 297.088 619.786 297.088C618.349 297.088 617.038 296.966 615.855 296.722C614.699 296.477 613.699 296.084 612.853 295.541C612.008 294.972 611.359 294.239 610.908 293.344C610.457 292.448 610.232 291.349 610.232 290.047C610.232 288.799 610.486 287.74 610.993 286.872C611.528 286.004 612.233 285.312 613.107 284.796C613.98 284.281 614.981 283.915 616.108 283.698C617.236 283.453 618.405 283.331 619.617 283.331C620.435 283.331 621.153 283.372 621.773 283.453C622.422 283.508 622.943 283.589 623.338 283.698V283.128C623.338 282.097 623.013 281.269 622.365 280.645C621.717 280.021 620.59 279.709 618.983 279.709C617.912 279.709 616.855 279.79 615.812 279.953C614.77 280.089 613.868 280.292 613.107 280.564L612.303 275.68C612.67 275.571 613.121 275.463 613.656 275.354C614.22 275.218 614.826 275.11 615.474 275.028C616.122 274.92 616.799 274.838 617.503 274.784C618.236 274.703 618.969 274.662 619.702 274.662Z" fill="white"/>
<path d="M593.941 282.965C594.562 282.314 595.196 281.636 595.844 280.93C596.52 280.225 597.169 279.533 597.789 278.855C598.409 278.149 598.986 277.484 599.522 276.86C600.086 276.236 600.565 275.693 600.959 275.232H608.442C606.948 276.887 605.483 278.475 604.046 279.994C602.636 281.486 601.086 283.033 599.395 284.634C600.241 285.367 601.114 286.248 602.016 287.279C602.918 288.283 603.792 289.328 604.637 290.413C605.483 291.499 606.258 292.584 606.963 293.669C607.667 294.755 608.259 295.745 608.738 296.641H601.509C601.058 295.935 600.537 295.162 599.945 294.321C599.381 293.452 598.775 292.598 598.127 291.757C597.479 290.888 596.788 290.061 596.055 289.274C595.351 288.487 594.646 287.822 593.941 287.279V296.641H587.642V266.034L593.941 265.057V282.965Z" fill="white"/>
<path d="M582.131 297.048C580.299 297.02 578.805 296.831 577.65 296.478C576.523 296.125 575.621 295.637 574.944 295.013C574.296 294.361 573.845 293.588 573.591 292.693C573.366 291.77 573.253 290.739 573.253 289.599V266.034L579.552 265.057V288.378C579.552 288.921 579.595 289.409 579.679 289.844C579.764 290.278 579.919 290.644 580.144 290.943C580.398 291.241 580.75 291.485 581.201 291.675C581.652 291.865 582.258 291.987 583.019 292.041L582.131 297.048Z" fill="white"/>
<path d="M547.507 286.099C547.507 284.2 547.803 282.544 548.395 281.133C549.015 279.695 549.818 278.502 550.805 277.552C551.791 276.602 552.919 275.883 554.187 275.395C555.483 274.906 556.808 274.662 558.161 274.662C561.318 274.662 563.812 275.598 565.644 277.47C567.476 279.316 568.392 282.042 568.392 285.651C568.392 286.004 568.378 286.397 568.35 286.832C568.321 287.239 568.293 287.605 568.265 287.93H553.976C554.117 289.179 554.722 290.169 555.793 290.902C556.864 291.634 558.302 292 560.106 292C561.261 292 562.389 291.905 563.488 291.716C564.615 291.498 565.531 291.241 566.236 290.942L567.081 295.867C566.743 296.03 566.292 296.193 565.728 296.355C565.165 296.518 564.531 296.654 563.826 296.762C563.15 296.898 562.417 297.007 561.628 297.088C560.838 297.169 560.049 297.21 559.26 297.21C557.259 297.21 555.512 296.925 554.018 296.355C552.552 295.786 551.326 295.012 550.34 294.035C549.382 293.032 548.663 291.851 548.184 290.495C547.733 289.138 547.507 287.673 547.507 286.099ZM562.304 283.779C562.276 283.263 562.177 282.761 562.008 282.273C561.867 281.785 561.628 281.351 561.289 280.971C560.979 280.591 560.571 280.279 560.063 280.035C559.584 279.79 558.978 279.668 558.245 279.668C557.541 279.668 556.935 279.79 556.428 280.035C555.92 280.252 555.498 280.55 555.159 280.93C554.821 281.31 554.553 281.758 554.356 282.273C554.187 282.761 554.06 283.263 553.976 283.779H562.304Z" fill="white"/>
<path d="M544.543 280.604C543.979 280.469 543.317 280.333 542.556 280.197C541.795 280.035 540.978 279.953 540.104 279.953C539.709 279.953 539.23 279.994 538.667 280.075C538.131 280.129 537.722 280.197 537.441 280.279V296.64H531.141V276.371C532.269 275.992 533.593 275.639 535.115 275.313C536.665 274.961 538.385 274.784 540.273 274.784C540.611 274.784 541.02 274.811 541.499 274.866C541.978 274.893 542.457 274.947 542.936 275.028C543.416 275.083 543.895 275.164 544.374 275.273C544.853 275.354 545.262 275.463 545.6 275.598L544.543 280.604Z" fill="white"/>
<path d="M516.272 292.407C516.892 292.407 517.484 292.394 518.047 292.367C518.611 292.34 519.062 292.299 519.4 292.245V287.646C519.147 287.591 518.766 287.537 518.259 287.483C517.752 287.428 517.287 287.401 516.864 287.401C516.272 287.401 515.708 287.442 515.173 287.523C514.665 287.578 514.214 287.7 513.82 287.89C513.425 288.08 513.115 288.337 512.89 288.663C512.664 288.989 512.552 289.396 512.552 289.884C512.552 290.834 512.876 291.498 513.524 291.878C514.2 292.231 515.116 292.407 516.272 292.407ZM515.765 274.662C517.625 274.662 519.175 274.866 520.415 275.273C521.655 275.68 522.641 276.263 523.374 277.023C524.135 277.782 524.671 278.705 524.981 279.79C525.291 280.876 525.446 282.083 525.446 283.413V296.03C524.544 296.22 523.29 296.437 521.683 296.681C520.077 296.952 518.132 297.088 515.849 297.088C514.412 297.088 513.101 296.966 511.917 296.722C510.762 296.477 509.761 296.084 508.916 295.541C508.07 294.972 507.422 294.239 506.971 293.344C506.52 292.448 506.295 291.349 506.295 290.047C506.295 288.799 506.548 287.74 507.056 286.872C507.591 286.004 508.296 285.312 509.169 284.796C510.043 284.281 511.044 283.915 512.171 283.698C513.298 283.453 514.468 283.331 515.68 283.331C516.497 283.331 517.216 283.372 517.836 283.453C518.484 283.508 519.006 283.589 519.4 283.698V283.128C519.4 282.097 519.076 281.269 518.428 280.645C517.78 280.021 516.652 279.709 515.046 279.709C513.975 279.709 512.918 279.79 511.875 279.953C510.832 280.089 509.93 280.292 509.169 280.564L508.366 275.68C508.733 275.571 509.184 275.463 509.719 275.354C510.283 275.218 510.889 275.11 511.537 275.028C512.185 274.92 512.862 274.838 513.566 274.784C514.299 274.703 515.032 274.662 515.765 274.662Z" fill="white"/>
<path d="M489.603 269.9L495.902 268.923V275.232H503.47V280.279H495.902V287.808C495.902 289.084 496.128 290.101 496.579 290.861C497.058 291.621 498.002 292 499.411 292C500.088 292 500.778 291.946 501.483 291.838C502.216 291.702 502.878 291.526 503.47 291.309L504.358 296.03C503.597 296.328 502.751 296.586 501.821 296.803C500.891 297.02 499.75 297.129 498.397 297.129C496.677 297.129 495.254 296.912 494.127 296.477C492.999 296.016 492.098 295.392 491.421 294.605C490.745 293.791 490.266 292.814 489.984 291.675C489.73 290.535 489.603 289.273 489.603 287.89V269.9Z" fill="white"/>
<rect x="588.888" y="249.14" width="3.58551" height="14.4828" fill="white"/>
<path d="M595.278 250.791C595.278 249.879 596.017 249.14 596.929 249.14H598.864V263.623H595.278V250.791Z" fill="white"/>
<path d="M584.147 267.075C583.236 267.075 582.497 266.336 582.497 265.424V263.623H598.865V265.424C598.865 266.336 598.126 267.075 597.214 267.075H584.147Z" fill="white"/>
<path d="M582.497 249.14H584.431C585.343 249.14 586.082 249.879 586.082 250.791V263.623H582.497V249.14Z" fill="white"/>
<path d="M570.236 268.906C570.568 269.424 579.533 271.615 579.533 271.615C579.533 271.615 579.643 243.401 578.529 242.811C577.415 242.221 572.649 248.952 570.893 253.847C568.896 259.41 569.904 268.389 570.236 268.906Z" fill="white"/>
<path d="M395.964 292.407C396.584 292.407 397.176 292.394 397.739 292.367C398.303 292.34 398.754 292.299 399.092 292.245V287.646C398.838 287.591 398.458 287.537 397.951 287.483C397.443 287.428 396.978 287.401 396.556 287.401C395.964 287.401 395.4 287.442 394.864 287.523C394.357 287.578 393.906 287.7 393.512 287.89C393.117 288.08 392.807 288.337 392.582 288.663C392.356 288.989 392.243 289.396 392.243 289.884C392.243 290.834 392.567 291.498 393.216 291.878C393.892 292.231 394.808 292.407 395.964 292.407ZM395.456 274.662C397.316 274.662 398.867 274.866 400.107 275.273C401.347 275.68 402.333 276.263 403.066 277.023C403.827 277.782 404.363 278.705 404.673 279.79C404.983 280.876 405.138 282.083 405.138 283.413V296.03C404.236 296.22 402.982 296.437 401.375 296.681C399.769 296.952 397.824 297.088 395.541 297.088C394.103 297.088 392.793 296.966 391.609 296.722C390.454 296.477 389.453 296.084 388.608 295.541C387.762 294.972 387.114 294.239 386.663 293.344C386.212 292.448 385.986 291.349 385.986 290.047C385.986 288.799 386.24 287.74 386.747 286.872C387.283 286.004 387.988 285.312 388.861 284.796C389.735 284.281 390.735 283.915 391.863 283.698C392.99 283.453 394.16 283.331 395.372 283.331C396.189 283.331 396.908 283.372 397.528 283.453C398.176 283.508 398.698 283.589 399.092 283.698V283.128C399.092 282.097 398.768 281.269 398.12 280.645C397.471 280.021 396.344 279.709 394.738 279.709C393.667 279.709 392.61 279.79 391.567 279.953C390.524 280.089 389.622 280.292 388.861 280.564L388.058 275.68C388.424 275.571 388.875 275.463 389.411 275.354C389.975 275.218 390.58 275.11 391.229 275.028C391.877 274.92 392.553 274.838 393.258 274.784C393.991 274.703 394.724 274.662 395.456 274.662Z" fill="white"/>
<path d="M369.696 282.965C370.316 282.314 370.95 281.636 371.598 280.93C372.275 280.225 372.923 279.533 373.543 278.855C374.163 278.149 374.741 277.484 375.276 276.86C375.84 276.236 376.319 275.693 376.714 275.232H384.197C382.703 276.887 381.237 278.475 379.8 279.994C378.391 281.486 376.841 283.033 375.15 284.634C375.995 285.367 376.869 286.248 377.771 287.279C378.673 288.283 379.546 289.328 380.392 290.413C381.237 291.499 382.012 292.584 382.717 293.669C383.422 294.755 384.014 295.745 384.493 296.641H377.263C376.813 295.935 376.291 295.162 375.699 294.321C375.136 293.452 374.53 292.598 373.881 291.757C373.233 290.888 372.543 290.061 371.81 289.274C371.105 288.487 370.401 287.822 369.696 287.279V296.641H363.397V266.034L369.696 265.057V282.965Z" fill="white"/>
<path d="M357.886 297.048C356.054 297.02 354.56 296.831 353.404 296.478C352.277 296.125 351.375 295.637 350.699 295.013C350.05 294.361 349.599 293.588 349.346 292.693C349.12 291.77 349.008 290.739 349.008 289.599V266.034L355.307 265.057V288.378C355.307 288.921 355.349 289.409 355.434 289.844C355.518 290.278 355.673 290.644 355.899 290.943C356.152 291.241 356.505 291.485 356.956 291.675C357.406 291.865 358.012 291.987 358.773 292.041L357.886 297.048Z" fill="white"/>
<path d="M323.262 286.099C323.262 284.2 323.558 282.544 324.15 281.133C324.77 279.695 325.573 278.502 326.559 277.552C327.546 276.602 328.673 275.883 329.941 275.395C331.238 274.906 332.563 274.662 333.915 274.662C337.072 274.662 339.566 275.598 341.398 277.47C343.23 279.316 344.146 282.042 344.146 285.651C344.146 286.004 344.132 286.397 344.104 286.832C344.076 287.239 344.048 287.605 344.019 287.93H329.73C329.871 289.179 330.477 290.169 331.548 290.902C332.619 291.634 334.056 292 335.86 292C337.016 292 338.143 291.905 339.242 291.716C340.37 291.498 341.286 291.241 341.99 290.942L342.836 295.867C342.498 296.03 342.047 296.193 341.483 296.355C340.919 296.518 340.285 296.654 339.58 296.762C338.904 296.898 338.171 297.007 337.382 297.088C336.593 297.169 335.804 297.21 335.015 297.21C333.014 297.21 331.266 296.925 329.772 296.355C328.307 295.786 327.081 295.012 326.094 294.035C325.136 293.032 324.417 291.851 323.938 290.495C323.487 289.138 323.262 287.673 323.262 286.099ZM338.059 283.779C338.03 283.263 337.932 282.761 337.763 282.273C337.622 281.785 337.382 281.351 337.044 280.971C336.734 280.591 336.325 280.279 335.818 280.035C335.339 279.79 334.733 279.668 334 279.668C333.295 279.668 332.689 279.79 332.182 280.035C331.675 280.252 331.252 280.55 330.914 280.93C330.576 281.31 330.308 281.758 330.111 282.273C329.941 282.761 329.815 283.263 329.73 283.779H338.059Z" fill="white"/>
<path d="M320.298 280.604C319.734 280.469 319.072 280.333 318.311 280.197C317.55 280.035 316.732 279.953 315.859 279.953C315.464 279.953 314.985 279.994 314.421 280.075C313.886 280.129 313.477 280.197 313.195 280.279V296.64H306.896V276.371C308.023 275.992 309.348 275.639 310.87 275.313C312.42 274.961 314.139 274.784 316.028 274.784C316.366 274.784 316.775 274.811 317.254 274.866C317.733 274.893 318.212 274.947 318.691 275.028C319.17 275.083 319.649 275.164 320.128 275.273C320.608 275.354 321.016 275.463 321.354 275.598L320.298 280.604Z" fill="white"/>
<path d="M292.027 292.407C292.647 292.407 293.238 292.394 293.802 292.367C294.366 292.34 294.817 292.299 295.155 292.245V287.646C294.901 287.591 294.521 287.537 294.013 287.483C293.506 287.428 293.041 287.401 292.618 287.401C292.027 287.401 291.463 287.442 290.927 287.523C290.42 287.578 289.969 287.7 289.574 287.89C289.18 288.08 288.87 288.337 288.644 288.663C288.419 288.989 288.306 289.396 288.306 289.884C288.306 290.834 288.63 291.498 289.279 291.878C289.955 292.231 290.871 292.407 292.027 292.407ZM291.519 274.662C293.379 274.662 294.929 274.866 296.17 275.273C297.41 275.68 298.396 276.263 299.129 277.023C299.89 277.782 300.425 278.705 300.735 279.79C301.045 280.876 301.2 282.083 301.2 283.413V296.03C300.299 296.22 299.044 296.437 297.438 296.681C295.831 296.952 293.887 297.088 291.604 297.088C290.166 297.088 288.856 296.966 287.672 296.722C286.517 296.477 285.516 296.084 284.67 295.541C283.825 294.972 283.177 294.239 282.726 293.344C282.275 292.448 282.049 291.349 282.049 290.047C282.049 288.799 282.303 287.74 282.81 286.872C283.346 286.004 284.05 285.312 284.924 284.796C285.798 284.281 286.798 283.915 287.926 283.698C289.053 283.453 290.223 283.331 291.435 283.331C292.252 283.331 292.971 283.372 293.591 283.453C294.239 283.508 294.76 283.589 295.155 283.698V283.128C295.155 282.097 294.831 281.269 294.183 280.645C293.534 280.021 292.407 279.709 290.8 279.709C289.73 279.709 288.673 279.79 287.63 279.953C286.587 280.089 285.685 280.292 284.924 280.564L284.121 275.68C284.487 275.571 284.938 275.463 285.474 275.354C286.037 275.218 286.643 275.11 287.292 275.028C287.94 274.92 288.616 274.838 289.321 274.784C290.054 274.703 290.786 274.662 291.519 274.662Z" fill="white"/>
<path d="M265.358 269.9L271.657 268.923V275.232H279.224V280.279H271.657V287.808C271.657 289.084 271.882 290.101 272.333 290.861C272.812 291.621 273.757 292 275.166 292C275.842 292 276.533 291.946 277.237 291.838C277.97 291.702 278.633 291.526 279.224 291.309L280.112 296.03C279.351 296.328 278.506 296.586 277.576 296.803C276.646 297.02 275.504 297.129 274.151 297.129C272.432 297.129 271.009 296.912 269.881 296.477C268.754 296.016 267.852 295.392 267.176 294.605C266.499 293.791 266.02 292.814 265.738 291.675C265.485 290.535 265.358 289.273 265.358 287.89V269.9Z" fill="white"/>
<rect x="364.641" y="249.14" width="3.58551" height="14.4828" fill="white"/>
<path d="M371.032 250.791C371.032 249.879 371.771 249.14 372.683 249.14H374.617V263.623H371.032V250.791Z" fill="white"/>
<path d="M359.901 267.075C358.989 267.075 358.25 266.336 358.25 265.424V263.623H374.618V265.424C374.618 266.336 373.879 267.075 372.967 267.075H359.901Z" fill="white"/>
<path d="M358.25 249.14H360.184C361.096 249.14 361.835 249.879 361.835 250.791V263.623H358.25V249.14Z" fill="white"/>
<path d="M345.991 268.906C346.323 269.424 355.288 271.615 355.288 271.615C355.288 271.615 355.397 243.401 354.283 242.811C353.169 242.221 348.404 248.952 346.647 253.847C344.651 259.41 345.659 268.389 345.991 268.906Z" fill="white"/>
<path d="M173.959 291.675C174.579 291.675 175.171 291.661 175.735 291.634C176.298 291.607 176.749 291.566 177.088 291.512V286.913C176.834 286.858 176.453 286.804 175.946 286.75C175.439 286.696 174.974 286.668 174.551 286.668C173.959 286.668 173.395 286.709 172.86 286.79C172.353 286.845 171.902 286.967 171.507 287.157C171.113 287.347 170.803 287.605 170.577 287.93C170.352 288.256 170.239 288.663 170.239 289.151C170.239 290.101 170.563 290.766 171.211 291.145C171.888 291.498 172.804 291.675 173.959 291.675ZM173.452 273.929C175.312 273.929 176.862 274.133 178.102 274.54C179.342 274.947 180.329 275.53 181.062 276.29C181.823 277.05 182.358 277.972 182.668 279.057C182.978 280.143 183.133 281.35 183.133 282.68V295.297C182.231 295.487 180.977 295.704 179.37 295.948C177.764 296.219 175.819 296.355 173.536 296.355C172.099 296.355 170.788 296.233 169.605 295.989C168.449 295.745 167.449 295.351 166.603 294.808C165.758 294.239 165.109 293.506 164.658 292.611C164.207 291.715 163.982 290.616 163.982 289.314C163.982 288.066 164.236 287.008 164.743 286.139C165.278 285.271 165.983 284.579 166.857 284.064C167.73 283.548 168.731 283.182 169.858 282.965C170.986 282.72 172.155 282.598 173.367 282.598C174.185 282.598 174.903 282.639 175.523 282.72C176.172 282.775 176.693 282.856 177.088 282.965V282.395C177.088 281.364 176.763 280.536 176.115 279.912C175.467 279.288 174.34 278.976 172.733 278.976C171.662 278.976 170.605 279.057 169.562 279.22C168.52 279.356 167.618 279.559 166.857 279.831L166.053 274.947C166.42 274.838 166.871 274.73 167.406 274.621C167.97 274.485 168.576 274.377 169.224 274.296C169.872 274.187 170.549 274.106 171.253 274.051C171.986 273.97 172.719 273.929 173.452 273.929Z" fill="white"/>
<path d="M147.691 282.232C148.312 281.581 148.946 280.903 149.594 280.197C150.27 279.492 150.919 278.8 151.539 278.122C152.159 277.416 152.736 276.751 153.272 276.127C153.836 275.503 154.315 274.961 154.709 274.499H162.192C160.698 276.154 159.233 277.742 157.796 279.261C156.386 280.754 154.836 282.3 153.145 283.901C153.991 284.634 154.864 285.516 155.766 286.547C156.668 287.551 157.542 288.595 158.387 289.681C159.233 290.766 160.008 291.851 160.713 292.937C161.417 294.022 162.009 295.012 162.488 295.908H155.259C154.808 295.202 154.287 294.429 153.695 293.588C153.131 292.719 152.525 291.865 151.877 291.024C151.229 290.155 150.538 289.328 149.805 288.541C149.101 287.754 148.396 287.089 147.691 286.547V295.908H141.392V265.301L147.691 264.324V282.232Z" fill="white"/>
<path d="M135.881 296.315C134.049 296.288 132.556 296.098 131.4 295.745C130.273 295.392 129.371 294.904 128.694 294.28C128.046 293.628 127.595 292.855 127.342 291.96C127.116 291.037 127.003 290.006 127.003 288.867V265.301L133.302 264.324V287.645C133.302 288.188 133.345 288.677 133.429 289.111C133.514 289.545 133.669 289.911 133.894 290.21C134.148 290.508 134.5 290.752 134.951 290.942C135.402 291.132 136.008 291.254 136.769 291.309L135.881 296.315Z" fill="white"/>
<path d="M101.257 285.366C101.257 283.467 101.553 281.811 102.145 280.401C102.765 278.962 103.568 277.769 104.555 276.819C105.541 275.869 106.669 275.15 107.937 274.662C109.233 274.173 110.558 273.929 111.911 273.929C115.068 273.929 117.562 274.865 119.394 276.738C121.226 278.583 122.142 281.31 122.142 284.918C122.142 285.271 122.128 285.664 122.1 286.099C122.071 286.506 122.043 286.872 122.015 287.198H107.726C107.867 288.446 108.472 289.436 109.543 290.169C110.614 290.901 112.052 291.268 113.856 291.268C115.011 291.268 116.139 291.173 117.238 290.983C118.365 290.766 119.281 290.508 119.986 290.209L120.831 295.134C120.493 295.297 120.042 295.46 119.478 295.622C118.915 295.785 118.281 295.921 117.576 296.029C116.9 296.165 116.167 296.274 115.378 296.355C114.588 296.436 113.799 296.477 113.01 296.477C111.009 296.477 109.262 296.192 107.768 295.622C106.302 295.053 105.076 294.279 104.09 293.303C103.132 292.299 102.413 291.118 101.934 289.762C101.483 288.405 101.257 286.94 101.257 285.366ZM116.054 283.046C116.026 282.531 115.927 282.029 115.758 281.54C115.617 281.052 115.378 280.618 115.039 280.238C114.729 279.858 114.321 279.546 113.813 279.302C113.334 279.057 112.728 278.935 111.995 278.935C111.291 278.935 110.685 279.057 110.178 279.302C109.67 279.519 109.248 279.817 108.909 280.197C108.571 280.577 108.303 281.025 108.106 281.54C107.937 282.029 107.81 282.531 107.726 283.046H116.054Z" fill="white"/>
<path d="M98.2932 279.872C97.7295 279.736 97.0672 279.601 96.3062 279.465C95.5452 279.302 94.7279 279.221 93.8542 279.221C93.4596 279.221 92.9805 279.261 92.4168 279.343C91.8813 279.397 91.4726 279.465 91.1908 279.546V295.908H84.8916V275.639C86.019 275.259 87.3436 274.906 88.8656 274.581C90.4157 274.228 92.1349 274.052 94.0233 274.052C94.3615 274.052 94.7701 274.079 95.2493 274.133C95.7284 274.16 96.2075 274.215 96.6867 274.296C97.1658 274.35 97.6449 274.432 98.1241 274.54C98.6032 274.622 99.0119 274.73 99.3501 274.866L98.2932 279.872Z" fill="white"/>
<path d="M70.0221 291.675C70.6422 291.675 71.234 291.661 71.7977 291.634C72.3614 291.607 72.8123 291.566 73.1506 291.512V286.913C72.8969 286.858 72.5164 286.804 72.0091 286.75C71.5018 286.696 71.0367 286.668 70.614 286.668C70.0221 286.668 69.4584 286.709 68.9229 286.79C68.4156 286.845 67.9647 286.967 67.5701 287.157C67.1755 287.347 66.8655 287.605 66.64 287.93C66.4145 288.256 66.3018 288.663 66.3018 289.151C66.3018 290.101 66.6259 290.766 67.2742 291.145C67.9506 291.498 68.8666 291.675 70.0221 291.675ZM69.5148 273.929C71.375 273.929 72.9251 274.133 74.1652 274.54C75.4053 274.947 76.3917 275.53 77.1245 276.29C77.8855 277.05 78.421 277.972 78.731 279.057C79.041 280.143 79.1961 281.35 79.1961 282.68V295.297C78.2942 295.487 77.04 295.704 75.4335 295.948C73.827 296.219 71.8823 296.355 69.5994 296.355C68.162 296.355 66.8514 296.233 65.6677 295.989C64.5121 295.745 63.5116 295.351 62.666 294.808C61.8205 294.239 61.1723 293.506 60.7213 292.611C60.2704 291.715 60.0449 290.616 60.0449 289.314C60.0449 288.066 60.2986 287.008 60.8059 286.139C61.3414 285.271 62.046 284.579 62.9197 284.064C63.7934 283.548 64.794 283.182 65.9213 282.965C67.0487 282.72 68.2183 282.598 69.4302 282.598C70.2476 282.598 70.9663 282.639 71.5863 282.72C72.2346 282.775 72.756 282.856 73.1506 282.965V282.395C73.1506 281.364 72.8264 280.536 72.1782 279.912C71.53 279.288 70.4026 278.976 68.7961 278.976C67.7251 278.976 66.6682 279.057 65.6254 279.22C64.5826 279.356 63.6807 279.559 62.9197 279.831L62.1165 274.947C62.4829 274.838 62.9338 274.73 63.4693 274.621C64.033 274.485 64.6389 274.377 65.2872 274.296C65.9354 274.187 66.6118 274.106 67.3164 274.051C68.0492 273.97 68.782 273.929 69.5148 273.929Z" fill="white"/>
<path d="M43.3535 269.167L49.6527 268.19V274.499H57.2201V279.546H49.6527V287.075C49.6527 288.351 49.8781 289.368 50.3291 290.128C50.8082 290.888 51.7524 291.268 53.1616 291.268C53.838 291.268 54.5285 291.213 55.2331 291.105C55.9659 290.969 56.6283 290.793 57.2201 290.576L58.1079 295.297C57.347 295.595 56.5014 295.853 55.5713 296.07C54.6413 296.287 53.4998 296.396 52.147 296.396C50.4277 296.396 49.0044 296.179 47.8771 295.745C46.7497 295.283 45.8478 294.659 45.1714 293.872C44.495 293.058 44.0158 292.082 43.734 290.942C43.4803 289.802 43.3535 288.541 43.3535 287.157V269.167Z" fill="white"/>
<rect x="142.637" y="248.407" width="3.58551" height="14.4828" fill="white"/>
<path d="M149.028 250.058C149.028 249.146 149.767 248.407 150.679 248.407H152.613V262.89H149.028V250.058Z" fill="white"/>
<path d="M137.897 266.342C136.985 266.342 136.246 265.603 136.246 264.691V262.89H152.614V264.691C152.614 265.603 151.875 266.342 150.964 266.342H137.897Z" fill="white"/>
<path d="M136.246 248.407H138.18C139.092 248.407 139.831 249.146 139.831 250.058V262.89H136.246V248.407Z" fill="white"/>
<path d="M123.987 268.173C124.318 268.691 133.284 270.882 133.284 270.882C133.284 270.882 133.393 242.669 132.279 242.078C131.165 241.488 126.4 248.219 124.643 253.114C122.646 258.677 123.655 267.656 123.987 268.173Z" fill="white"/>
</svg>
