<svg width="166" height="73" viewBox="0 0 166 73" fill="none" xmlns="http://www.w3.org/2000/svg">
<path d="M60.2007 39.6013V43.5798H52.4262V64.8958H47.7907V43.5798H40.0162V39.6013H60.2007ZM68.744 61.7933C70.1066 61.7933 71.1408 61.7203 71.8465 61.5743V56.6833C71.6031 56.6103 71.2503 56.5373 70.788 56.4643C70.3256 56.3913 69.8146 56.3548 69.255 56.3548C68.7683 56.3548 68.2695 56.3913 67.7585 56.4643C67.2718 56.5373 66.8216 56.6711 66.408 56.8658C66.0186 57.0605 65.7023 57.3403 65.459 57.7053C65.2156 58.046 65.094 58.484 65.094 59.0193C65.094 60.0656 65.4225 60.7956 66.0795 61.2093C66.7365 61.5986 67.6246 61.7933 68.744 61.7933ZM68.379 45.3318C69.839 45.3318 71.0678 45.5143 72.0655 45.8793C73.0631 46.2443 73.854 46.7553 74.438 47.4123C75.0463 48.0693 75.4721 48.8723 75.7155 49.8213C75.9831 50.746 76.117 51.768 76.117 52.8873V64.4578C75.4356 64.6038 74.4015 64.7741 73.0145 64.9688C71.6518 65.1878 70.1066 65.2973 68.379 65.2973C67.2353 65.2973 66.189 65.1878 65.24 64.9688C64.291 64.7498 63.4758 64.397 62.7945 63.9103C62.1375 63.4236 61.6143 62.791 61.225 62.0123C60.86 61.2336 60.6775 60.2725 60.6775 59.1288C60.6775 58.0338 60.8843 57.1091 61.298 56.3548C61.736 55.6005 62.32 54.9921 63.05 54.5298C63.78 54.0431 64.6195 53.7025 65.5685 53.5078C66.5418 53.2888 67.5516 53.1793 68.598 53.1793C69.0846 53.1793 69.5956 53.2158 70.131 53.2888C70.6663 53.3375 71.2381 53.4348 71.8465 53.5808V52.8508C71.8465 52.3398 71.7856 51.8531 71.664 51.3908C71.5423 50.9285 71.3233 50.527 71.007 50.1863C70.715 49.8213 70.3135 49.5415 69.8025 49.3468C69.3158 49.1521 68.6953 49.0548 67.941 49.0548C66.919 49.0548 65.9821 49.1278 65.1305 49.2738C64.2788 49.4198 63.5853 49.5901 63.05 49.7848L62.5025 46.2078C63.0621 46.0131 63.8773 45.8185 64.948 45.6238C66.0186 45.4291 67.1623 45.3318 68.379 45.3318ZM92.4025 49.7848C92.0375 49.6631 91.5265 49.5415 90.8695 49.4198C90.2368 49.2738 89.4947 49.2008 88.643 49.2008C88.1563 49.2008 87.6332 49.2495 87.0735 49.3468C86.5382 49.4441 86.161 49.5293 85.942 49.6023V64.8958H81.5255V46.7188C82.3772 46.4025 83.4357 46.1105 84.701 45.8428C85.9907 45.5508 87.4142 45.4048 88.9715 45.4048C89.2635 45.4048 89.6042 45.4291 89.9935 45.4778C90.3828 45.5021 90.7722 45.5508 91.1615 45.6238C91.5508 45.6725 91.928 45.7455 92.293 45.8428C92.658 45.9158 92.95 45.9888 93.169 46.0618L92.4025 49.7848ZM95.1882 55.4423C95.1882 53.7633 95.4315 52.2911 95.9182 51.0258C96.4292 49.7605 97.0984 48.7141 97.9257 47.8868C98.753 47.0351 99.702 46.4025 100.773 45.9888C101.843 45.5508 102.938 45.3318 104.058 45.3318C106.686 45.3318 108.73 46.147 110.19 47.7773C111.674 49.4076 112.416 51.841 112.416 55.0773C112.416 55.3206 112.404 55.6005 112.38 55.9168C112.38 56.2088 112.368 56.4765 112.343 56.7198H99.7507C99.8724 58.2528 100.408 59.4451 101.357 60.2968C102.33 61.1241 103.729 61.5378 105.554 61.5378C106.625 61.5378 107.598 61.4405 108.474 61.2458C109.375 61.0511 110.08 60.8443 110.591 60.6253L111.175 64.2388C110.932 64.3605 110.591 64.4943 110.153 64.6403C109.74 64.762 109.253 64.8715 108.693 64.9688C108.158 65.0905 107.574 65.1878 106.941 65.2608C106.309 65.3338 105.664 65.3703 105.007 65.3703C103.328 65.3703 101.868 65.127 100.627 64.6403C99.3857 64.1293 98.3637 63.4358 97.5607 62.5598C96.7577 61.6595 96.1615 60.6131 95.7722 59.4208C95.3829 58.2041 95.1882 56.878 95.1882 55.4423ZM108 53.4713C108 52.863 107.915 52.2911 107.744 51.7558C107.574 51.1961 107.318 50.7216 106.978 50.3323C106.661 49.9186 106.26 49.6023 105.773 49.3833C105.311 49.14 104.751 49.0183 104.094 49.0183C103.413 49.0183 102.817 49.1521 102.306 49.4198C101.795 49.6631 101.357 49.9916 100.992 50.4053C100.651 50.819 100.383 51.2935 100.189 51.8288C99.994 52.3641 99.8602 52.9116 99.7872 53.4713H108ZM123.742 65.2608C122.428 65.2365 121.333 65.0905 120.457 64.8228C119.605 64.5551 118.924 64.178 118.413 63.6913C117.902 63.1803 117.537 62.5598 117.318 61.8298C117.123 61.0755 117.026 60.2238 117.026 59.2748V37.3018L121.442 36.5718V58.4353C121.442 58.9706 121.479 59.4208 121.552 59.7858C121.649 60.1508 121.807 60.4671 122.026 60.7348C122.245 60.9781 122.537 61.1728 122.902 61.3188C123.292 61.4405 123.778 61.5378 124.362 61.6108L123.742 65.2608ZM132.351 53.2523C132.911 52.6683 133.507 52.0478 134.14 51.3908C134.772 50.7095 135.393 50.0403 136.001 49.3833C136.61 48.702 137.181 48.0571 137.717 47.4488C138.276 46.8161 138.751 46.2686 139.14 45.8063H144.36C143.143 47.169 141.853 48.5803 140.491 50.0403C139.152 51.5003 137.802 52.9238 136.439 54.3108C137.169 54.9191 137.936 55.6613 138.739 56.5373C139.542 57.389 140.32 58.3015 141.075 59.2748C141.829 60.2481 142.535 61.2215 143.192 62.1948C143.849 63.1681 144.396 64.0685 144.834 64.8958H139.724C139.286 64.1415 138.775 63.3506 138.191 62.5233C137.632 61.696 137.023 60.893 136.366 60.1143C135.709 59.3356 135.04 58.6056 134.359 57.9243C133.677 57.2186 133.008 56.6225 132.351 56.1358V64.8958H127.935V37.3018L132.351 36.5718V53.2523ZM154.754 61.7933C156.117 61.7933 157.151 61.7203 157.857 61.5743V56.6833C157.613 56.6103 157.261 56.5373 156.798 56.4643C156.336 56.3913 155.825 56.3548 155.265 56.3548C154.779 56.3548 154.28 56.3913 153.769 56.4643C153.282 56.5373 152.832 56.6711 152.418 56.8658C152.029 57.0605 151.713 57.3403 151.469 57.7053C151.226 58.046 151.104 58.484 151.104 59.0193C151.104 60.0656 151.433 60.7956 152.09 61.2093C152.747 61.5986 153.635 61.7933 154.754 61.7933ZM154.389 45.3318C155.849 45.3318 157.078 45.5143 158.076 45.8793C159.073 46.2443 159.864 46.7553 160.448 47.4123C161.057 48.0693 161.482 48.8723 161.726 49.8213C161.993 50.746 162.127 51.768 162.127 52.8873V64.4578C161.446 64.6038 160.412 64.7741 159.025 64.9688C157.662 65.1878 156.117 65.2973 154.389 65.2973C153.246 65.2973 152.199 65.1878 151.25 64.9688C150.301 64.7498 149.486 64.397 148.805 63.9103C148.148 63.4236 147.625 62.791 147.235 62.0123C146.87 61.2336 146.688 60.2725 146.688 59.1288C146.688 58.0338 146.895 57.1091 147.308 56.3548C147.746 55.6005 148.33 54.9921 149.06 54.5298C149.79 54.0431 150.63 53.7025 151.579 53.5078C152.552 53.2888 153.562 53.1793 154.608 53.1793C155.095 53.1793 155.606 53.2158 156.141 53.2888C156.677 53.3375 157.248 53.4348 157.857 53.5808V52.8508C157.857 52.3398 157.796 51.8531 157.674 51.3908C157.553 50.9285 157.334 50.527 157.017 50.1863C156.725 49.8213 156.324 49.5415 155.813 49.3468C155.326 49.1521 154.706 49.0548 153.951 49.0548C152.929 49.0548 151.992 49.1278 151.141 49.2738C150.289 49.4198 149.596 49.5901 149.06 49.7848L148.513 46.2078C149.072 46.0131 149.888 45.8185 150.958 45.6238C152.029 45.4291 153.173 45.3318 154.389 45.3318Z" fill="#252432"/>
<path d="M27.7728 64.2245H22.5654V45.1307C22.5654 39.6105 19.0938 41.6591 17.358 39.9233C15.7415 38.3067 15.6222 35.9373 15.6222 32.9801V12.1505H19.0938V27.7727C19.0938 29.5085 20.8296 29.5085 20.8296 27.7727V12.1505H24.3012V27.7727C24.3012 29.5085 26.1015 29.5085 26.1015 27.8893V12.1505H29.5086V27.8893C29.5086 29.5085 31.2444 29.5085 31.2444 27.7727V12.1505H34.716V33.0151C34.716 35.5838 34.716 38.1875 32.9802 39.9233C31.3454 41.5582 27.7728 40.0048 27.7728 45.1307V64.2245Z" fill="#329632"/>
<path d="M52.9418 8.12655C51.2061 14.7548 39.9234 17.6734 25.3121 20.0809C10.4148 22.0129 0 20.6259 0 14.2018C0 7.7778 9.83291 3.87345 25.3121 1.18336C40.7913 -1.50673 55.0128 0.218413 52.9418 8.12655Z" fill="#F48E28"/>
</svg>
