<svg width="537" height="729" viewBox="0 0 537 729" fill="none" xmlns="http://www.w3.org/2000/svg">
<path d="M159.782 82.3029C173.425 83.4624 180.528 88.0697 192.744 94.2549C206.091 101.013 212.435 106.855 224.344 115.91C239.537 127.46 249.185 133.136 261.312 147.873C269.191 157.447 274.029 162.958 278.681 174.451C284.102 187.843 285.197 196.556 284.495 210.986C283.835 224.567 282.447 232.743 276.129 244.783C270.093 256.286 263.607 260.81 254.372 269.947C245.363 278.859 240.056 283.737 229.638 290.951C213.654 302.018 203.768 308.091 184.906 312.799C173.866 315.554 167.347 315.696 155.987 316.357C142.746 317.128 133.347 322.699 122.028 315.784C118.371 313.549 116.134 312.152 113.726 308.606C110.311 303.575 114.01 298.243 110.313 293.414C108.522 291.075 107.172 289.927 104.606 288.48C97.6346 284.548 91.4292 292.911 84.1421 289.601C79.6913 287.579 77.7104 285.244 74.6731 281.414C69.7021 275.145 74.7673 265.47 67.4458 262.244C64.4033 260.904 58.9874 261.278 58.9874 261.278C58.9874 261.278 56.239 260.262 52.8909 256.007C49.5427 251.752 48.5034 227.691 49.761 209.551C50.9576 192.291 52.6983 182.415 58.5216 166.123C65.1741 147.51 70.442 137.045 83.1506 121.907C94.9293 107.876 102.638 99.7756 119.139 91.8187C133.822 84.7382 143.539 80.9226 159.782 82.3029Z" fill="#4F976E"/>
<path d="M239.15 127.948L219.739 130.032L220.684 126.321L239.107 123.634C239.107 123.634 244.349 120.18 247.738 118.015C253.186 114.536 255.735 111.506 261.812 109.303C270.658 106.096 276.488 107.711 285.883 108.23C296.471 108.815 302.778 108.905 312.656 112.762C326.314 118.096 333.519 124.018 342.383 135.698C347.932 143.008 353.337 156.489 353.337 156.489C353.337 156.489 331.898 164.17 317.615 164.344C308.629 164.454 303.534 163.616 294.757 161.687C285.119 159.569 279.707 157.878 270.827 153.575C260.458 148.551 254.358 145.349 246.418 136.999C243.295 133.714 239.15 127.948 239.15 127.948Z" fill="#4F976E"/>
<path d="M228.517 77.0658C227.345 73.6674 223.067 71.0672 225.458 68.3835C227.491 66.1028 230.26 67.9007 233.281 68.3552C236.475 68.8356 238.952 68.5244 241.155 70.8865C244.987 74.9943 238.056 79.199 237.442 84.7825C236.776 90.8426 238.691 94.2857 238.304 100.37C237.851 107.509 235.987 111.291 234.615 118.312C233.261 125.242 238.262 137.377 231.319 136.09C227.811 135.44 224.832 135.511 224.409 130.116C223.986 124.721 228.286 116.379 229.502 107.35C230.766 97.9641 232.927 92.2968 230.576 83.1224C229.956 80.7024 229.332 79.4274 228.517 77.0658Z" fill="#4F976E"/>
<path d="M343.174 399.989C368.301 424.635 442.879 454.633 469.413 427.428C495.947 400.222 464.388 326.115 439.262 301.47C414.136 276.824 372.257 278.9 345.723 306.105C319.189 333.31 318.048 375.344 343.174 399.989Z" fill="#4F976E"/>
<path d="M359.395 300.294L354.574 307.587L357.276 320.406L347.797 317.209L341.704 320.789L336.499 335.547L332.402 332.352L323.841 342.793L331.601 328.553L324.224 335.327L311.036 337.738L303.188 344.598L308.081 335.32L323.123 330.104L324.719 321.429L312.073 321.769L311.372 318.446L331.195 310.383L334.303 301.924L333.002 295.752L334.209 278.272L339.278 283.756L347.532 295.067L354.491 277.029L363.952 270.861L359.519 286.958L365.171 285.924L375.686 273.153L383.263 267.329L376.487 276.952L371.153 288.775L384.511 284.853L376.693 294.173L359.395 300.294Z" fill="#4F976E"/>
<path d="M194.831 395.959C199.838 393.519 206.456 392.262 210.779 396.275C213.974 399.242 211.613 403.851 214.163 407.332C217.358 411.692 222.451 412.208 227.18 414.989L248.573 427.575C260.886 434.819 271.628 438.274 282.468 447.516C295.203 458.373 304.085 468.634 310.322 483.623C317.738 501.447 315.681 516.763 313.638 535.194C311.127 557.853 305.811 575.133 293.474 593.944C284.855 607.086 276.04 615.566 263.748 625.599C250.353 636.533 238.552 642.95 222.622 650.387C207.956 657.235 196.564 662.402 180.303 665.409C164.958 668.246 152.729 668.573 136.842 667.036C120.296 665.435 107.09 663.844 91.9418 656.366C79.2861 650.117 71.0289 643.929 61.9745 636.827C59.7985 635.12 55.4627 631.6 54.3428 629.156C52.8715 625.946 58.3809 624.551 58.9997 621.241C59.4432 618.868 53.9383 617.808 58.6275 614.501C63.3168 611.195 105.44 602.398 130.17 591.385C147.963 583.462 162.277 578.163 177.03 565.993C194.65 551.457 207.599 537.797 214.504 516.155C221.562 494.033 212.744 451.027 212.744 451.027C212.744 451.027 208.495 432.344 201.675 423.84C197.091 418.125 187.336 417.548 186.213 410.609C185.192 404.305 189.14 398.731 194.831 395.959Z" fill="#4F976E"/>
</svg>
