<svg width="670" height="189" viewBox="0 0 670 189" fill="none" xmlns="http://www.w3.org/2000/svg">
<path d="M0 17.8045C0 7.97132 7.97133 0 17.8045 0H307.869C317.702 0 325.673 7.97133 325.673 17.8045V170.626C325.673 180.459 317.702 188.431 307.869 188.431H17.8045C7.97134 188.431 0 180.459 0 170.626V17.8045Z" fill="#93AD49"/>
<path d="M101.239 100.535H96.5986L95.4636 106.41H91.8916L93.0266 100.535H90.3559V97.3633H93.6275L94.5956 92.3224H90.3559V89.1843H95.1965L96.3316 83.2755H99.9036L98.7686 89.1843H103.409L104.544 83.2755H108.116L106.981 89.1843H109.685V92.3224H106.38L105.412 97.3633H109.685V100.535H104.811L103.676 106.41H100.104L101.239 100.535ZM97.1995 97.3633H101.84L102.808 92.3224H98.1677L97.1995 97.3633ZM120.798 94.4255C121.444 94.4255 122.078 94.3699 122.701 94.2586C123.324 94.1251 123.858 93.9359 124.303 93.6911C124.326 93.4463 124.337 93.2349 124.337 93.0568C124.337 92.8788 124.337 92.723 124.337 92.5894C124.337 91.6992 124.27 90.8646 124.137 90.0857C124.025 89.2845 123.814 88.5946 123.502 88.0159C123.213 87.415 122.801 86.9477 122.267 86.6138C121.755 86.2577 121.11 86.0797 120.331 86.0797C119.685 86.0797 119.129 86.2132 118.662 86.4803C118.217 86.7474 117.849 87.0923 117.56 87.5152C117.271 87.938 117.059 88.3943 116.926 88.8839C116.792 89.3735 116.725 89.852 116.725 90.3194C116.725 91.677 117.048 92.7007 117.694 93.3906C118.361 94.0806 119.396 94.4255 120.798 94.4255ZM123.97 96.8625C123.435 97.1073 122.846 97.2965 122.2 97.43C121.555 97.5636 120.932 97.6303 120.331 97.6303C118.951 97.6303 117.771 97.4523 116.792 97.0962C115.835 96.7179 115.045 96.206 114.422 95.5606C113.821 94.8929 113.376 94.1251 113.087 93.2571C112.797 92.3891 112.653 91.4544 112.653 90.4529C112.653 89.5849 112.797 88.7058 113.087 87.8156C113.376 86.9031 113.832 86.0686 114.455 85.3119C115.079 84.5552 115.869 83.9432 116.826 83.4758C117.783 82.9862 118.918 82.7413 120.231 82.7413C122.946 82.7413 124.993 83.6204 126.373 85.3786C127.775 87.1146 128.476 89.5738 128.476 92.7564C128.476 97.252 127.319 100.657 125.004 102.972C122.69 105.286 119.14 106.455 114.355 106.477L114.188 103.105C115.524 103.105 116.725 102.994 117.794 102.771C118.884 102.549 119.83 102.193 120.631 101.703C121.455 101.213 122.145 100.579 122.701 99.8002C123.257 98.999 123.68 98.0198 123.97 96.8625ZM138.069 106.911C137.468 106.911 136.845 106.866 136.2 106.777C135.577 106.711 134.976 106.61 134.397 106.477C133.841 106.366 133.329 106.243 132.862 106.11C132.394 105.954 132.038 105.809 131.793 105.676L132.595 102.237C133.062 102.46 133.741 102.716 134.631 103.005C135.521 103.272 136.623 103.406 137.936 103.406C139.694 103.406 140.963 103.072 141.742 102.404C142.521 101.714 142.91 100.802 142.91 99.6667C142.91 98.9323 142.754 98.3203 142.443 97.8306C142.153 97.341 141.742 96.9515 141.207 96.6622C140.696 96.3506 140.095 96.1392 139.405 96.0279C138.737 95.8944 138.025 95.8276 137.268 95.8276H135.899V92.5561H137.569C138.081 92.5561 138.592 92.5115 139.104 92.4225C139.638 92.3112 140.117 92.1332 140.54 91.8884C140.963 91.6213 141.308 91.2764 141.575 90.8535C141.842 90.4307 141.975 89.8854 141.975 89.2177C141.975 88.6836 141.875 88.2273 141.675 87.849C141.474 87.4707 141.207 87.1591 140.874 86.9143C140.562 86.6695 140.195 86.4914 139.772 86.3801C139.349 86.2689 138.904 86.2132 138.437 86.2132C137.435 86.2132 136.545 86.369 135.766 86.6806C134.987 86.9699 134.297 87.3037 133.696 87.6821L132.227 84.6776C132.539 84.4773 132.917 84.2659 133.362 84.0433C133.807 83.8207 134.297 83.6093 134.831 83.409C135.388 83.2087 135.977 83.0529 136.601 82.9416C137.224 82.8081 137.88 82.7413 138.57 82.7413C139.861 82.7413 140.974 82.8971 141.908 83.2087C142.843 83.5203 143.611 83.9654 144.212 84.5441C144.835 85.1004 145.291 85.7681 145.581 86.5471C145.892 87.3037 146.048 88.1383 146.048 89.0508C146.048 90.1191 145.748 91.0761 145.147 91.9218C144.568 92.7675 143.811 93.4129 142.877 93.858C144.078 94.2809 145.069 94.9819 145.848 95.9612C146.649 96.9404 147.05 98.1978 147.05 99.7335C147.05 100.757 146.871 101.714 146.515 102.604C146.159 103.472 145.614 104.229 144.88 104.875C144.145 105.498 143.21 105.998 142.075 106.377C140.963 106.733 139.627 106.911 138.069 106.911ZM167.292 106.41C166.98 105.498 166.658 104.596 166.324 103.706C165.99 102.816 165.667 101.903 165.356 100.969H155.608C155.296 101.903 154.973 102.827 154.64 103.739C154.328 104.63 154.016 105.52 153.705 106.41H149.332C150.2 103.94 151.023 101.659 151.802 99.5666C152.581 97.4745 153.338 95.4938 154.072 93.6243C154.829 91.7549 155.574 89.9744 156.309 88.283C157.043 86.5916 157.8 84.9224 158.579 83.2755H162.551C163.33 84.9224 164.087 86.5916 164.821 88.283C165.556 89.9744 166.29 91.7549 167.025 93.6243C167.781 95.4938 168.549 97.4745 169.328 99.5666C170.129 101.659 170.964 103.94 171.832 106.41H167.292ZM160.482 87.7489C159.97 88.9284 159.38 90.3639 158.712 92.0553C158.067 93.7467 157.388 95.5828 156.676 97.5636H164.287C163.575 95.5828 162.885 93.7356 162.218 92.0219C161.55 90.3082 160.971 88.8839 160.482 87.7489ZM178.962 102.938C179.207 102.961 179.53 102.983 179.931 103.005C180.331 103.005 180.876 103.005 181.566 103.005C184.393 103.005 186.496 102.293 187.876 100.869C189.278 99.4219 189.979 97.4078 189.979 94.8261C189.979 92.2 189.3 90.1858 187.943 88.7837C186.585 87.3816 184.482 86.6806 181.633 86.6806C180.387 86.6806 179.497 86.714 178.962 86.7807V102.938ZM194.386 94.8261C194.386 96.8291 194.074 98.5762 193.451 100.067C192.828 101.536 191.937 102.771 190.78 103.773C189.645 104.752 188.265 105.487 186.641 105.976C185.038 106.444 183.258 106.677 181.299 106.677C180.365 106.677 179.307 106.633 178.128 106.544C176.948 106.477 175.824 106.321 174.756 106.076V83.6093C175.824 83.3645 176.959 83.2087 178.161 83.1419C179.363 83.0752 180.431 83.0418 181.366 83.0418C183.302 83.0418 185.072 83.2755 186.674 83.7429C188.276 84.188 189.645 84.9001 190.78 85.8794C191.937 86.8364 192.828 88.0604 193.451 89.5516C194.074 91.0204 194.386 92.7786 194.386 94.8261ZM207.458 88.2496C206.924 88.895 206.367 89.5849 205.789 90.3194C205.232 91.0538 204.687 91.8216 204.153 92.6228C203.619 93.424 203.107 94.2475 202.617 95.0932C202.128 95.9167 201.683 96.7401 201.282 97.5636H207.458V88.2496ZM211.397 83.2755V97.5636H214.001V100.869H211.397V106.41H207.458V100.869H197.309V97.9975C197.755 97.0183 198.344 95.8944 199.079 94.6258C199.835 93.3573 200.67 92.0553 201.583 90.72C202.495 89.3846 203.463 88.0716 204.487 86.7807C205.511 85.4899 206.534 84.3215 207.558 83.2755H211.397ZM224.763 94.4255C225.408 94.4255 226.042 94.3699 226.665 94.2586C227.289 94.1251 227.823 93.9359 228.268 93.6911C228.29 93.4463 228.301 93.2349 228.301 93.0568C228.301 92.8788 228.301 92.723 228.301 92.5894C228.301 91.6992 228.234 90.8646 228.101 90.0857C227.99 89.2845 227.778 88.5946 227.467 88.0159C227.177 87.415 226.766 86.9477 226.231 86.6138C225.72 86.2577 225.074 86.0797 224.295 86.0797C223.65 86.0797 223.093 86.2132 222.626 86.4803C222.181 86.7474 221.814 87.0923 221.524 87.5152C221.235 87.938 221.024 88.3943 220.89 88.8839C220.757 89.3735 220.69 89.852 220.69 90.3194C220.69 91.677 221.013 92.7007 221.658 93.3906C222.326 94.0806 223.36 94.4255 224.763 94.4255ZM227.934 96.8625C227.4 97.1073 226.81 97.2965 226.165 97.43C225.519 97.5636 224.896 97.6303 224.295 97.6303C222.915 97.6303 221.736 97.4523 220.757 97.0962C219.8 96.7179 219.01 96.206 218.386 95.5606C217.785 94.8929 217.34 94.1251 217.051 93.2571C216.762 92.3891 216.617 91.4544 216.617 90.4529C216.617 89.5849 216.762 88.7058 217.051 87.8156C217.34 86.9031 217.797 86.0686 218.42 85.3119C219.043 84.5552 219.833 83.9432 220.79 83.4758C221.747 82.9862 222.882 82.7413 224.195 82.7413C226.91 82.7413 228.958 83.6204 230.338 85.3786C231.74 87.1146 232.441 89.5738 232.441 92.7564C232.441 97.252 231.283 100.657 228.969 102.972C226.654 105.286 223.105 106.455 218.32 106.477L218.153 103.105C219.488 103.105 220.69 102.994 221.758 102.771C222.849 102.549 223.794 102.193 224.596 101.703C225.419 101.213 226.109 100.579 226.665 99.8002C227.222 98.999 227.645 98.0198 227.934 96.8625Z" fill="white"/>
<path d="M669.596 17.8045C669.596 7.97132 661.625 0 651.792 0H359.502C349.669 0 341.697 7.97133 341.697 17.8045V170.626C341.697 180.459 349.669 188.431 359.502 188.431H651.792C661.625 188.431 669.596 180.459 669.596 170.626V17.8045Z" fill="#2B6243"/>
<path d="M446.6 100.535H441.959L440.824 106.41H437.252L438.387 100.535H435.717V97.3633H438.988L439.956 92.3224H435.717V89.1843H440.557L441.692 83.2755H445.264L444.129 89.1843H448.77L449.905 83.2755H453.477L452.342 89.1843H455.046V92.3224H451.741L450.773 97.3633H455.046V100.535H450.172L449.037 106.41H445.465L446.6 100.535ZM442.56 97.3633H447.201L448.169 92.3224H443.528L442.56 97.3633ZM472.635 89.2845C472.635 90.0857 472.468 90.8758 472.135 91.6547C471.801 92.4114 471.367 93.157 470.833 93.8914C470.321 94.6036 469.731 95.3046 469.063 95.9945C468.396 96.6622 467.728 97.3188 467.06 97.9642C466.704 98.298 466.304 98.6986 465.859 99.166C465.413 99.6333 464.991 100.101 464.59 100.568C464.189 101.035 463.844 101.492 463.555 101.937C463.266 102.36 463.11 102.716 463.088 103.005H473.37V106.41H458.648C458.626 106.232 458.614 106.021 458.614 105.776C458.614 105.509 458.614 105.309 458.614 105.175C458.614 104.107 458.781 103.127 459.115 102.237C459.471 101.325 459.927 100.479 460.484 99.7001C461.04 98.9212 461.663 98.1867 462.353 97.4968C463.043 96.8069 463.733 96.1281 464.423 95.4604C464.957 94.9485 465.469 94.4478 465.959 93.9582C466.448 93.4685 466.871 92.99 467.227 92.5227C467.606 92.0331 467.906 91.5434 468.129 91.0538C468.351 90.5419 468.462 90.0189 468.462 89.4848C468.462 88.3275 468.129 87.504 467.461 87.0144C466.793 86.5248 465.981 86.28 465.024 86.28C464.401 86.28 463.822 86.369 463.288 86.5471C462.754 86.7251 462.275 86.9365 461.853 87.1813C461.452 87.4261 461.096 87.6821 460.784 87.9492C460.473 88.194 460.239 88.3943 460.083 88.5501L458.08 85.7125C459.015 84.8222 460.106 84.1101 461.352 83.5759C462.62 83.0195 463.978 82.7413 465.425 82.7413C467.895 82.7413 469.709 83.3311 470.866 84.5107C472.046 85.668 472.635 87.2592 472.635 89.2845ZM485.3 106.677C484.076 106.677 482.84 106.633 481.594 106.544C480.348 106.477 479.257 106.321 478.323 106.076V83.6093C478.812 83.5203 479.335 83.4424 479.892 83.3756C480.448 83.2866 481.015 83.2198 481.594 83.1753C482.173 83.1308 482.74 83.0974 483.297 83.0752C483.875 83.0529 484.421 83.0418 484.932 83.0418C486.335 83.0418 487.637 83.1531 488.838 83.3756C490.04 83.5759 491.075 83.9209 491.943 84.4105C492.833 84.9001 493.523 85.5456 494.013 86.3468C494.502 87.148 494.747 88.1383 494.747 89.3179C494.747 90.4084 494.48 91.3431 493.946 92.1221C493.434 92.901 492.711 93.5242 491.776 93.9915C493.178 94.4589 494.213 95.1488 494.881 96.0613C495.548 96.9738 495.882 98.1311 495.882 99.5332C495.882 101.915 495.014 103.706 493.278 104.908C491.542 106.087 488.883 106.677 485.3 106.677ZM482.462 95.9945V103.038C482.929 103.083 483.43 103.116 483.964 103.139C484.498 103.161 484.988 103.172 485.433 103.172C486.301 103.172 487.102 103.116 487.837 103.005C488.594 102.894 489.239 102.705 489.773 102.438C490.329 102.148 490.763 101.77 491.075 101.303C491.409 100.835 491.576 100.234 491.576 99.4998C491.576 98.1867 491.097 97.2742 490.14 96.7624C489.183 96.2505 487.859 95.9945 486.168 95.9945H482.462ZM482.462 92.6896H485.433C487.036 92.6896 488.293 92.467 489.206 92.0219C490.118 91.5546 490.574 90.7311 490.574 89.5516C490.574 88.4388 490.096 87.6487 489.139 87.1813C488.204 86.714 486.98 86.4803 485.467 86.4803C484.821 86.4803 484.243 86.4914 483.731 86.5137C483.241 86.5359 482.818 86.5693 482.462 86.6138V92.6896ZM506.906 95.16C506.261 95.16 505.638 95.2156 505.037 95.3269C504.436 95.4382 503.891 95.6051 503.401 95.8276C503.379 96.0057 503.357 96.206 503.334 96.4285C503.334 96.6288 503.334 96.8291 503.334 97.0294C503.334 97.9197 503.39 98.7654 503.501 99.5666C503.635 100.346 503.846 101.035 504.135 101.636C504.447 102.215 504.859 102.682 505.371 103.038C505.905 103.372 506.561 103.539 507.34 103.539C507.986 103.539 508.531 103.406 508.976 103.139C509.443 102.872 509.822 102.527 510.111 102.104C510.4 101.681 510.612 101.225 510.745 100.735C510.879 100.223 510.946 99.7335 510.946 99.2661C510.946 97.9308 510.623 96.9182 509.978 96.2282C509.332 95.5161 508.308 95.16 506.906 95.16ZM507.407 91.9552C508.787 91.9552 509.955 92.1555 510.912 92.5561C511.892 92.9344 512.682 93.4574 513.283 94.1251C513.883 94.7927 514.317 95.5717 514.584 96.4619C514.874 97.3299 515.018 98.2424 515.018 99.1993C515.018 100.067 514.863 100.958 514.551 101.87C514.262 102.782 513.794 103.617 513.149 104.374C512.526 105.108 511.736 105.72 510.779 106.21C509.822 106.677 508.687 106.911 507.374 106.911C504.725 106.911 502.7 106.043 501.298 104.307C499.918 102.549 499.228 100.134 499.228 97.0628C499.228 94.8373 499.551 92.8676 500.196 91.154C500.864 89.418 501.799 87.9603 503 86.7807C504.224 85.6012 505.693 84.711 507.407 84.1101C509.143 83.4869 511.09 83.1642 513.249 83.1419L513.483 86.4803C512.281 86.5025 511.157 86.6361 510.111 86.8809C509.065 87.1034 508.13 87.4595 507.307 87.9492C506.483 88.4388 505.771 89.0731 505.17 89.852C504.592 90.631 504.147 91.5879 503.835 92.723C504.926 92.2111 506.116 91.9552 507.407 91.9552ZM532.523 89.2845C532.523 90.0857 532.356 90.8758 532.023 91.6547C531.689 92.4114 531.255 93.157 530.721 93.8914C530.209 94.6036 529.619 95.3046 528.951 95.9945C528.284 96.6622 527.616 97.3188 526.948 97.9642C526.592 98.298 526.192 98.6986 525.747 99.166C525.301 99.6333 524.879 100.101 524.478 100.568C524.077 101.035 523.732 101.492 523.443 101.937C523.154 102.36 522.998 102.716 522.976 103.005H533.258V106.41H518.536C518.513 106.232 518.502 106.021 518.502 105.776C518.502 105.509 518.502 105.309 518.502 105.175C518.502 104.107 518.669 103.127 519.003 102.237C519.359 101.325 519.815 100.479 520.372 99.7001C520.928 98.9212 521.551 98.1867 522.241 97.4968C522.931 96.8069 523.621 96.1281 524.311 95.4604C524.845 94.9485 525.357 94.4478 525.847 93.9582C526.336 93.4685 526.759 92.99 527.115 92.5227C527.494 92.0331 527.794 91.5434 528.017 91.0538C528.239 90.5419 528.35 90.0189 528.35 89.4848C528.35 88.3275 528.017 87.504 527.349 87.0144C526.681 86.5248 525.869 86.28 524.912 86.28C524.289 86.28 523.71 86.369 523.176 86.5471C522.642 86.7251 522.163 86.9365 521.741 87.1813C521.34 87.4261 520.984 87.6821 520.672 87.9492C520.361 88.194 520.127 88.3943 519.971 88.5501L517.968 85.7125C518.903 84.8222 519.993 84.1101 521.24 83.5759C522.508 83.0195 523.866 82.7413 525.313 82.7413C527.783 82.7413 529.597 83.3311 530.754 84.5107C531.934 85.668 532.523 87.2592 532.523 89.2845ZM546.69 88.2496C546.156 88.895 545.599 89.5849 545.021 90.3194C544.464 91.0538 543.919 91.8216 543.385 92.6228C542.851 93.424 542.339 94.2475 541.849 95.0932C541.36 95.9167 540.915 96.7401 540.514 97.5636H546.69V88.2496ZM550.629 83.2755V97.5636H553.233V100.869H550.629V106.41H546.69V100.869H536.541V97.9975C536.986 97.0183 537.576 95.8944 538.311 94.6258C539.067 93.3573 539.902 92.0553 540.814 90.72C541.727 89.3846 542.695 88.0716 543.719 86.7807C544.743 85.4899 545.766 84.3215 546.79 83.2755H550.629ZM562.292 106.911C561.691 106.911 561.068 106.866 560.422 106.777C559.799 106.711 559.198 106.61 558.62 106.477C558.063 106.366 557.551 106.243 557.084 106.11C556.617 105.954 556.261 105.809 556.016 105.676L556.817 102.237C557.284 102.46 557.963 102.716 558.853 103.005C559.744 103.272 560.845 103.406 562.158 103.406C563.917 103.406 565.185 103.072 565.964 102.404C566.743 101.714 567.132 100.802 567.132 99.6667C567.132 98.9323 566.977 98.3203 566.665 97.8306C566.376 97.341 565.964 96.9515 565.43 96.6622C564.918 96.3506 564.317 96.1392 563.627 96.0279C562.96 95.8944 562.247 95.8276 561.491 95.8276H560.122V92.5561H561.791C562.303 92.5561 562.815 92.5115 563.327 92.4225C563.861 92.3112 564.339 92.1332 564.762 91.8884C565.185 91.6213 565.53 91.2764 565.797 90.8535C566.064 90.4307 566.198 89.8854 566.198 89.2177C566.198 88.6836 566.098 88.2273 565.897 87.849C565.697 87.4707 565.43 87.1591 565.096 86.9143C564.785 86.6695 564.417 86.4914 563.994 86.3801C563.572 86.2689 563.126 86.2132 562.659 86.2132C561.658 86.2132 560.767 86.369 559.988 86.6806C559.21 86.9699 558.52 87.3037 557.919 87.6821L556.45 84.6776C556.761 84.4773 557.14 84.2659 557.585 84.0433C558.03 83.8207 558.52 83.6093 559.054 83.409C559.61 83.2087 560.2 83.0529 560.823 82.9416C561.446 82.8081 562.103 82.7413 562.793 82.7413C564.083 82.7413 565.196 82.8971 566.131 83.2087C567.066 83.5203 567.834 83.9654 568.434 84.5441C569.058 85.1004 569.514 85.7681 569.803 86.5471C570.115 87.3037 570.271 88.1383 570.271 89.0508C570.271 90.1191 569.97 91.0761 569.369 91.9218C568.791 92.7675 568.034 93.4129 567.099 93.858C568.301 94.2809 569.291 94.9819 570.07 95.9612C570.871 96.9404 571.272 98.1978 571.272 99.7335C571.272 100.757 571.094 101.714 570.738 102.604C570.382 103.472 569.837 104.229 569.102 104.875C568.368 105.498 567.433 105.998 566.298 106.377C565.185 106.733 563.85 106.911 562.292 106.911Z" fill="white"/>
</svg>
