<svg width="195" height="205" viewBox="0 0 195 205" fill="none" xmlns="http://www.w3.org/2000/svg">
<path d="M90.0006 1.69548C86.2679 -0.123157 81.3334 -1.0609 78.1103 1.93177C75.7284 4.1434 77.4886 7.58004 75.5871 10.1751C73.2046 13.4265 69.4075 13.8106 65.882 15.8847L49.931 25.2687C40.7508 30.6695 32.7417 33.2458 24.6594 40.1363C15.1643 48.2312 8.54201 55.8815 3.892 67.0574C-1.63725 80.3465 -0.103634 91.7663 1.41945 105.508C3.29199 122.403 7.25491 135.286 16.4535 149.311C22.8798 159.11 29.4522 165.433 38.6167 172.913C48.6045 181.065 57.4027 185.85 69.2801 191.395C80.2151 196.5 88.7088 200.353 100.833 202.595C112.274 204.71 121.392 204.954 133.237 203.808C145.574 202.614 155.42 201.428 166.714 195.852C176.15 191.194 182.306 186.58 189.057 181.285C190.68 180.012 193.912 177.387 194.747 175.566C195.844 173.172 191.737 172.132 191.275 169.664C190.945 167.895 195.049 167.104 191.553 164.639C188.057 162.173 156.65 155.615 138.211 147.404C124.945 141.496 114.272 137.545 103.273 128.472C90.1355 117.634 80.4815 107.449 75.333 91.3125C70.0704 74.8186 76.645 42.7542 76.645 42.7542C76.645 42.7542 79.8133 28.8239 84.898 22.4839C88.3159 18.2222 95.5887 17.792 96.4267 12.6185C97.1879 7.91867 94.2439 3.76291 90.0006 1.69548Z" fill="#A3BD5B"/>
</svg>
