<svg width="295" height="284" viewBox="0 0 295 284" fill="none" xmlns="http://www.w3.org/2000/svg">
<circle cx="147.5" cy="142" r="144.735" transform="rotate(1.10511 147.5 142)" fill="#969ADA"/>
<circle cx="147.506" cy="142.003" r="144.008" transform="rotate(1.10511 147.506 142.003)" fill="#969ADA"/>
<circle cx="147.507" cy="141.999" r="143.281" transform="rotate(1.10511 147.507 141.999)" fill="#969ADA"/>
<circle cx="147.503" cy="142" r="142.554" transform="rotate(1.10511 147.503 142)" fill="#969ADA"/>
<circle cx="147.499" cy="142" r="141.827" transform="rotate(1.10511 147.499 142)" fill="#969ADA"/>
<circle cx="147.513" cy="142.001" r="141.1" transform="rotate(1.10511 147.513 142.001)" fill="#969ADA"/>
<circle cx="147.503" cy="141.999" r="140.373" transform="rotate(1.10511 147.503 141.999)" fill="#969ADA"/>
<circle cx="147.498" cy="141.996" r="139.646" transform="rotate(1.10511 147.498 141.996)" fill="#969ADA"/>
<circle cx="147.51" cy="142.004" r="138.919" transform="rotate(1.10511 147.51 142.004)" fill="#969ADA"/>
<circle cx="147.503" cy="142" r="138.192" transform="rotate(1.10511 147.503 142)" fill="#969ADA"/>
<circle cx="147.5" cy="141.997" r="137.465" transform="rotate(1.10511 147.5 141.997)" fill="#969ADA"/>
<circle cx="147.5" cy="141.999" r="136.738" transform="rotate(1.10511 147.5 141.999)" fill="#969ADA"/>
<circle cx="147.505" cy="141.998" r="136.011" transform="rotate(1.10511 147.505 141.998)" fill="#969ADA"/>
<circle cx="147.497" cy="141.998" r="135.284" transform="rotate(1.10511 147.497 141.998)" fill="#969ADA"/>
<circle cx="147.509" cy="142.002" r="134.557" transform="rotate(1.10511 147.509 142.002)" fill="#969ADA"/>
<circle cx="147.517" cy="142.001" r="133.83" transform="rotate(1.10511 147.517 142.001)" fill="#969ADA"/>
<circle cx="147.506" cy="141.998" r="133.103" transform="rotate(1.10511 147.506 141.998)" fill="#969ADA"/>
<circle cx="147.511" cy="141.999" r="132.376" transform="rotate(1.10511 147.511 141.999)" fill="#969ADA"/>
<circle cx="147.515" cy="142" r="131.649" transform="rotate(1.10511 147.515 142)" fill="#969ADA"/>
<circle cx="147.507" cy="141.999" r="130.922" transform="rotate(1.10511 147.507 141.999)" fill="#969ADA"/>
<circle cx="147.508" cy="141.999" r="130.195" transform="rotate(1.10511 147.508 141.999)" fill="#969ADA"/>
<circle cx="147.512" cy="142" r="129.468" transform="rotate(1.10511 147.512 142)" fill="#EF9354"/>
<circle cx="147.508" cy="141.999" r="128.741" transform="rotate(1.10511 147.508 141.999)" fill="#969ADA"/>
<circle cx="147.512" cy="142.001" r="128.014" transform="rotate(1.10511 147.512 142.001)" fill="#969ADA"/>
<circle cx="147.512" cy="142.003" r="127.287" transform="rotate(1.10511 147.512 142.003)" fill="#EE9555"/>
<circle cx="147.506" cy="141.997" r="126.56" transform="rotate(1.10511 147.506 141.997)" fill="#EE9655"/>
<circle cx="147.509" cy="142.001" r="125.833" transform="rotate(1.10511 147.509 142.001)" fill="#969ADA"/>
<circle cx="147.509" cy="142.002" r="125.106" transform="rotate(1.10511 147.509 142.002)" fill="#969ADA"/>
<circle cx="147.503" cy="141.996" r="124.379" transform="rotate(1.10511 147.503 141.996)" fill="#ED9857"/>
<circle cx="147.507" cy="141.999" r="123.652" transform="rotate(1.10511 147.507 141.999)" fill="#EC9957"/>
<circle cx="147.507" cy="142.001" r="122.925" transform="rotate(1.10511 147.507 142.001)" fill="#EC9958"/>
<circle cx="147.497" cy="141.994" r="122.198" transform="rotate(1.10511 147.497 141.994)" fill="#EC9A58"/>
<circle cx="147.508" cy="141.999" r="121.471" transform="rotate(1.10511 147.508 141.999)" fill="#969ADA"/>
<circle cx="147.515" cy="142.003" r="120.744" transform="rotate(1.10511 147.515 142.003)" fill="#969ADA"/>
<circle cx="147.508" cy="142.001" r="120.017" transform="rotate(1.10511 147.508 142.001)" fill="#EB9C59"/>
<circle cx="147.509" cy="141.999" r="119.29" transform="rotate(1.10511 147.509 141.999)" fill="#EB9D5A"/>
<circle cx="147.513" cy="142.001" r="118.562" transform="rotate(1.10511 147.513 142.001)" fill="#EA9D5A"/>
<circle cx="147.505" cy="142.003" r="117.835" transform="rotate(1.10511 147.505 142.003)" fill="#EA9E5B"/>
<circle cx="147.518" cy="142.001" r="117.108" transform="rotate(1.10511 147.518 142.001)" fill="#EA9F5B"/>
<circle cx="147.518" cy="142.001" r="116.381" transform="rotate(1.10511 147.518 142.001)" fill="#E99F5C"/>
<circle cx="147.51" cy="142.002" r="115.654" transform="rotate(1.10511 147.51 142.002)" fill="#E9A05C"/>
<circle cx="147.514" cy="142.003" r="114.927" transform="rotate(1.10511 147.514 142.003)" fill="#969ADA"/>
<circle cx="147.511" cy="142.002" r="114.2" transform="rotate(1.10511 147.511 142.002)" fill="#969ADA"/>
<circle cx="147.514" cy="142.005" r="113.473" transform="rotate(1.10511 147.514 142.005)" fill="#E8A25E"/>
<circle cx="147.515" cy="142.004" r="112.746" transform="rotate(1.10511 147.515 142.004)" fill="#969ADA"/>
<circle cx="147.509" cy="141.999" r="112.019" transform="rotate(1.10511 147.509 141.999)" fill="#969ADA"/>
<circle cx="147.501" cy="142" r="111.292" transform="rotate(1.10511 147.501 142)" fill="#E7A45F"/>
<circle cx="147.512" cy="142.002" r="110.565" transform="rotate(1.10511 147.512 142.002)" fill="#E7A55F"/>
<circle cx="147.502" cy="142" r="109.838" transform="rotate(1.10511 147.502 142)" fill="#E7A560"/>
<circle cx="147.508" cy="141.998" r="109.111" transform="rotate(1.10511 147.508 141.998)" fill="#969ADA"/>
<circle cx="147.505" cy="142.003" r="108.384" transform="rotate(1.10511 147.505 142.003)" fill="#969ADA"/>
<circle cx="147.51" cy="142.006" r="107.657" transform="rotate(1.10511 147.51 142.006)" fill="#969ADA"/>
<circle cx="147.514" cy="142.002" r="106.93" transform="rotate(1.10511 147.514 142.002)" fill="#E6A862"/>
<circle cx="147.518" cy="142.005" r="106.203" transform="rotate(1.10511 147.518 142.005)" fill="#E5A962"/>
<circle cx="147.511" cy="142.002" r="105.476" transform="rotate(1.10511 147.511 142.002)" fill="#E5A963"/>
<circle cx="147.504" cy="141.999" r="104.749" transform="rotate(1.10511 147.504 141.999)" fill="#969ADA"/>
<circle cx="147.505" cy="141.999" r="104.022" transform="rotate(1.10511 147.505 141.999)" fill="#969ADA"/>
<circle cx="147.509" cy="141.997" r="103.295" transform="rotate(1.10511 147.509 141.997)" fill="#969ADA"/>
<circle cx="147.509" cy="142.001" r="102.568" transform="rotate(1.10511 147.509 142.001)" fill="#E4AC64"/>
<circle cx="147.508" cy="142.004" r="101.841" transform="rotate(1.10511 147.508 142.004)" fill="#969ADA"/>
<circle cx="147.502" cy="141.999" r="101.114" transform="rotate(1.10511 147.502 141.999)" fill="#969ADA"/>
<circle cx="147.501" cy="142.002" r="100.387" transform="rotate(1.10511 147.501 142.002)" fill="#E3AE66"/>
<circle cx="147.495" cy="141.997" r="99.6598" transform="rotate(1.10511 147.495 141.997)" fill="#E3AF66"/>
<circle cx="147.499" cy="141.998" r="98.9327" transform="rotate(1.10511 147.499 141.998)" fill="#E2AF67"/>
<circle cx="147.515" cy="142.002" r="98.2057" transform="rotate(1.10511 147.515 142.002)" fill="#E2B067"/>
<circle cx="147.499" cy="142.001" r="97.4787" transform="rotate(1.10511 147.499 142.001)" fill="#E2B168"/>
<circle cx="147.503" cy="142.002" r="96.7517" transform="rotate(1.10511 147.503 142.002)" fill="#E1B168"/>
<circle cx="147.511" cy="142.004" r="96.0246" transform="rotate(1.10511 147.511 142.004)" fill="#E1B269"/>
<circle cx="147.512" cy="142.001" r="95.2976" transform="rotate(1.10511 147.512 142.001)" fill="#969ADA"/>
<circle cx="147.512" cy="142.002" r="94.5706" transform="rotate(1.10511 147.512 142.002)" fill="#969ADA"/>
<circle cx="147.513" cy="142.002" r="93.8436" transform="rotate(1.10511 147.513 142.002)" fill="#E0B46A"/>
<circle cx="147.506" cy="142" r="93.1165" transform="rotate(1.10511 147.506 142)" fill="#E0B56A"/>
<circle cx="147.509" cy="142.003" r="92.3895" transform="rotate(1.10511 147.509 142.003)" fill="#E0B56B"/>
<circle cx="147.51" cy="142.001" r="91.6625" transform="rotate(1.10511 147.51 142.001)" fill="#DFB66B"/>
<circle cx="148.717" cy="142.022" r="130.171" transform="rotate(1.10511 148.717 142.022)" fill="#DFB76C"/>
<circle cx="147.506" cy="142.002" r="90.2084" transform="rotate(1.10511 147.506 142.002)" fill="#DFB76C"/>
<circle cx="147.508" cy="141.999" r="89.4814" transform="rotate(1.10511 147.508 141.999)" fill="#DEB86D"/>
<circle cx="147.512" cy="142" r="88.7544" transform="rotate(1.10511 147.512 142)" fill="#DEB96D"/>
<circle cx="147.509" cy="141.998" r="88.0273" transform="rotate(1.10511 147.509 141.998)" fill="#DEBA6E"/>
<circle cx="147.501" cy="141.998" r="87.3003" transform="rotate(1.10511 147.501 141.998)" fill="#DEBA6E"/>
<circle cx="147.508" cy="142.003" r="86.5733" transform="rotate(1.10511 147.508 142.003)" fill="#DDBB6E"/>
<circle cx="147.51" cy="142.002" r="85.8463" transform="rotate(1.10511 147.51 142.002)" fill="#DDBC6F"/>
<circle cx="147.508" cy="142.003" r="85.1192" transform="rotate(1.10511 147.508 142.003)" fill="#DDBC6F"/>
<circle cx="147.499" cy="141.997" r="84.3922" transform="rotate(1.10511 147.499 141.997)" fill="#DCBD70"/>
<circle cx="147.501" cy="141.997" r="83.6652" transform="rotate(1.10511 147.501 141.997)" fill="#DCBE70"/>
<circle cx="147.506" cy="142.001" r="82.9381" transform="rotate(1.10511 147.506 142.001)" fill="#DCBE71"/>
<circle cx="147.507" cy="141.998" r="82.2111" transform="rotate(1.10511 147.507 141.998)" fill="#DBBF71"/>
<circle cx="147.504" cy="141.998" r="81.4841" transform="rotate(1.10511 147.504 141.998)" fill="#DBC072"/>
<circle cx="147.503" cy="142.001" r="80.7571" transform="rotate(1.10511 147.503 142.001)" fill="#DBC072"/>
<circle cx="147.504" cy="141.999" r="80.03" transform="rotate(1.10511 147.504 141.999)" fill="#DBC173"/>
<circle cx="147.496" cy="141.999" r="79.303" transform="rotate(1.10511 147.496 141.999)" fill="#DAC273"/>
<circle cx="147.501" cy="141.999" r="78.576" transform="rotate(1.10511 147.501 141.999)" fill="#DAC273"/>
<circle cx="147.517" cy="142.002" r="77.849" transform="rotate(1.10511 147.517 142.002)" fill="#DAC374"/>
<circle cx="147.506" cy="141.999" r="77.1219" transform="rotate(1.10511 147.506 141.999)" fill="#D9C474"/>
<circle cx="147.503" cy="141.998" r="76.3949" transform="rotate(1.10511 147.503 141.998)" fill="#D9C475"/>
<circle cx="147.507" cy="142.001" r="75.6679" transform="rotate(1.10511 147.507 142.001)" fill="#D9C575"/>
<circle cx="147.499" cy="142.001" r="74.9408" transform="rotate(1.10511 147.499 142.001)" fill="#D8C676"/>
<circle cx="147.5" cy="141.997" r="74.2138" transform="rotate(1.10511 147.5 141.997)" fill="#D8C676"/>
<circle cx="147.506" cy="141.999" r="73.4868" transform="rotate(1.10511 147.506 141.999)" fill="#D8C777"/>
<g filter="url(#filter0_f_2132_14819)">
<circle cx="147.495" cy="141.996" r="120.669" transform="rotate(1.10511 147.495 141.996)" fill="#78470E"/>
</g>
<g filter="url(#filter1_f_2132_14819)">
<circle cx="147.492" cy="141.996" r="120.669" transform="rotate(1.10511 147.492 141.996)" fill="#78470E"/>
</g>
<circle cx="147.503" cy="141.998" r="72.7598" transform="rotate(1.10511 147.503 141.998)" fill="#D8C877"/>
<circle cx="147.507" cy="141.999" r="72.0327" transform="rotate(1.10511 147.507 141.999)" fill="#D7C878"/>
<circle cx="147.512" cy="142.001" r="71.3057" transform="rotate(1.10511 147.512 142.001)" fill="#D7C978"/>
<g filter="url(#filter2_f_2132_14819)">
<circle cx="148.679" cy="143.757" r="102.072" transform="rotate(1.10511 148.679 143.757)" fill="#B4AF2A"/>
</g>
<g filter="url(#filter3_f_2132_14819)">
<circle cx="147.009" cy="141.487" r="37.4269" transform="rotate(1.10511 147.009 141.487)" fill="#DFB76C"/>
</g>
<ellipse cx="5.52277" cy="8.21155" rx="5.52277" ry="8.21155" transform="matrix(-0.842678 0.538418 0.538418 0.842678 103.201 71.0433)" fill="#291808"/>
<ellipse cx="5.52277" cy="8.21155" rx="5.52277" ry="8.21155" transform="matrix(-0.842678 0.538418 0.538418 0.842678 124.435 71.4515)" fill="#291808"/>
<ellipse cx="5.52278" cy="8.21155" rx="5.52278" ry="8.21155" transform="matrix(-0.66813 0.744044 0.744044 0.66813 100.105 94.3949)" fill="#291808"/>
<ellipse cx="5.52277" cy="8.21155" rx="5.52277" ry="8.21155" transform="matrix(-0.761421 -0.648258 -0.648258 0.761421 190.396 69.4022)" fill="#291808"/>
<ellipse cx="5.52278" cy="8.21155" rx="5.52278" ry="8.21155" transform="matrix(-0.999969 -0.00792094 -0.00792094 0.999969 144.815 55.4559)" fill="#291808"/>
<ellipse cx="5.52277" cy="8.21155" rx="5.52277" ry="8.21155" transform="matrix(-0.761421 -0.648258 -0.648258 0.761421 196.21 89.8278)" fill="#291808"/>
<ellipse cx="5.52277" cy="8.21155" rx="5.52277" ry="8.21155" transform="matrix(-0.761421 -0.648258 -0.648258 0.761421 221.033 97.3073)" fill="#291808"/>
<ellipse cx="5.52278" cy="8.21155" rx="5.52278" ry="8.21155" transform="matrix(-0.906975 -0.421184 -0.421184 0.906975 167.143 73.2732)" fill="#291808"/>
<ellipse cx="5.52277" cy="8.21155" rx="5.52277" ry="8.21155" transform="matrix(0.153518 -0.988146 -0.988146 -0.153518 236.72 151.355)" fill="#291808"/>
<ellipse cx="5.52277" cy="8.21155" rx="5.52277" ry="8.21155" transform="matrix(0.153518 -0.988146 -0.988146 -0.153518 222.364 167.014)" fill="#291808"/>
<ellipse cx="5.52278" cy="8.21155" rx="5.52278" ry="8.21155" transform="matrix(-0.116153 -0.993231 -0.993231 0.116153 221.255 133.586)" fill="#291808"/>
<ellipse cx="5.52278" cy="8.21155" rx="5.52278" ry="8.21155" transform="matrix(0.989819 -0.14233 -0.14233 -0.989819 180.279 217.835)" fill="#291808"/>
<ellipse cx="5.52278" cy="8.21155" rx="5.52278" ry="8.21155" transform="matrix(0.667322 -0.744769 -0.744769 -0.667322 220.89 192.867)" fill="#291808"/>
<ellipse cx="5.52278" cy="8.21155" rx="5.52278" ry="8.21155" transform="matrix(0.989819 -0.14233 -0.14233 -0.989819 161.107 208.69)" fill="#291808"/>
<ellipse cx="5.52278" cy="8.21155" rx="5.52278" ry="8.21155" transform="matrix(0.915776 -0.401688 -0.401688 -0.915776 192.74 197.837)" fill="#291808"/>
<ellipse cx="5.52278" cy="8.21155" rx="5.52278" ry="8.21155" transform="matrix(0.853537 0.521031 0.521031 -0.853537 99.8986 210.264)" fill="#291808"/>
<ellipse cx="5.52278" cy="8.21155" rx="5.52278" ry="8.21155" transform="matrix(0.853537 0.521031 0.521031 -0.853537 90.9498 190.998)" fill="#291808"/>
<ellipse cx="5.52278" cy="8.21155" rx="5.52278" ry="8.21155" transform="matrix(0.961739 0.273966 0.273966 -0.961739 122.246 202.795)" fill="#291808"/>
<ellipse cx="5.52278" cy="8.21155" rx="5.52278" ry="8.21155" transform="matrix(-0.248485 0.968636 0.968636 0.248485 60.1772 132.631)" fill="#291808"/>
<ellipse cx="5.52278" cy="8.21155" rx="5.52278" ry="8.21155" transform="matrix(0.431593 0.902069 0.902069 -0.431593 67.6356 179.708)" fill="#291808"/>
<ellipse cx="5.52278" cy="8.21155" rx="5.52278" ry="8.21155" transform="matrix(-0.248485 0.968636 0.968636 0.248485 75.977 118.438)" fill="#291808"/>
<ellipse cx="5.52278" cy="8.21155" rx="5.52278" ry="8.21155" transform="matrix(0.0194274 0.999811 0.999811 -0.0194274 73.8435 151.815)" fill="#291808"/>
<defs>
<filter id="filter0_f_2132_14819" x="15.7947" y="10.2956" width="263.4" height="263.4" filterUnits="userSpaceOnUse" color-interpolation-filters="sRGB">
<feFlood flood-opacity="0" result="BackgroundImageFix"/>
<feBlend mode="normal" in="SourceGraphic" in2="BackgroundImageFix" result="shape"/>
<feGaussianBlur stdDeviation="5.51511" result="effect1_foregroundBlur_2132_14819"/>
</filter>
<filter id="filter1_f_2132_14819" x="15.7923" y="10.2956" width="263.4" height="263.4" filterUnits="userSpaceOnUse" color-interpolation-filters="sRGB">
<feFlood flood-opacity="0" result="BackgroundImageFix"/>
<feBlend mode="normal" in="SourceGraphic" in2="BackgroundImageFix" result="shape"/>
<feGaussianBlur stdDeviation="5.51511" result="effect1_foregroundBlur_2132_14819"/>
</filter>
<filter id="filter2_f_2132_14819" x="37.2769" y="32.3547" width="222.804" height="222.804" filterUnits="userSpaceOnUse" color-interpolation-filters="sRGB">
<feFlood flood-opacity="0" result="BackgroundImageFix"/>
<feBlend mode="normal" in="SourceGraphic" in2="BackgroundImageFix" result="shape"/>
<feGaussianBlur stdDeviation="4.66511" result="effect1_foregroundBlur_2132_14819"/>
</filter>
<filter id="filter3_f_2132_14819" x="102.249" y="96.7272" width="89.5195" height="89.5195" filterUnits="userSpaceOnUse" color-interpolation-filters="sRGB">
<feFlood flood-opacity="0" result="BackgroundImageFix"/>
<feBlend mode="normal" in="SourceGraphic" in2="BackgroundImageFix" result="shape"/>
<feGaussianBlur stdDeviation="3.66635" result="effect1_foregroundBlur_2132_14819"/>
</filter>
</defs>
</svg>
